<?xml  version="1.0" encoding="UTF-8"?>
<!DOCTYPE svg PUBLIC "-//W3C//DTD SVG 1.0//EN" "http://www.w3.org/TR/2001/REC-SVG-20010904/DTD/svg10.dtd" >
<svg xmlns="http://www.w3.org/2000/svg" >
<metadata>
<version>1.0</version>
<id><![CDATA[Semplicita W01 Medium]]></id>
<vendor>Monotype Imaging Inc.</vendor>
<credits>
<name>Fonts.com WebFonts</name>
<URL>http://webfonts.fonts.com</URL>
<role>Home of the Web fonts</role>
</credits>
<license>
<URL>http://webfonts.fonts.com/Legal</URL>
</license>
<copyright></copyright>
<trademark></trademark>
<licensee>
<name></name>
</licensee>
</metadata>
<defs >
<font horiz-adv-x="566" id="56f015af-156d-4cb9-937a-4c228a814578">
<font-face font-family="" panose-1="2 0 0 0 0 0 0 0 0 0" ascent="1037" descent="-270" units-per-em="1000" alphabetic="0">
</font-face>
<missing-glyph horiz-adv-x="0" />

<glyph unicode="&#xA;" />
<glyph unicode="&#xD;" />
<glyph unicode=" " horiz-adv-x="240" />
<glyph unicode="!" horiz-adv-x="264" d="M196 49Q196 26 178 7T132 -13Q120 -13 109 -8T89 6T75 26T70 49Q70 75 88 93T132 112Q160 112 178 94T196 49ZM100 207L77 757H187L164 207H100Z"  />
<glyph unicode="&quot;" horiz-adv-x="401" d="M251 472L236 761H339L324 472H251ZM77 472L62 761H165L150 472H77Z"  />
<glyph unicode="#" horiz-adv-x="660" d="M404 434H271L255 306H388L404 434ZM350 0L379 231H245L216 -9L141 0L169 231H54L58 306H179L194 434H81L85 509H204L233 744L310 738L280 509H414L443 744L520 738L491 509H606L602 434H481L465 306H578L576 231H455L425 -9L350 0Z"  />
<glyph unicode="$" horiz-adv-x="581" d="M285 657Q247 651 219 627T191 559Q191 539 197 524T215 496T240 474T271 456L285 657ZM321 78Q366 87 391 115T417 189Q417 234 397 261T338 313L321 78ZM232 -116L239 -10Q207 -6 177 4T122 28T77 57T47 86L100 156Q120 133 156 110T245 78L264 352Q232 368 201 386T146 428T106 482T91 553Q91 597 107 631T152 689T216 726T291 743L299 849L375 847L367 737Q392 731 413 721T451 701T479 681T496 665L447 596Q429 613 408 628T361 651L345 419Q392 395 425 373T479 324T510 266T520 191Q520 155 506 122T466 60T402 14T315 -11L308 -118L232 -116Z"  />
<glyph unicode="%" horiz-adv-x="805" d="M606 54Q642 54 666 79T690 140Q690 176 666 201T606 227Q570 227 546 202T521 140Q521 105 545 80T606 54ZM757 140Q757 108 745 81T713 33T664 1T605 -11Q573 -11 546 1T498 33T465 80T453 140Q453 172 465 200T497 248T545 281T605 293Q636 293 664 281T712 249T745 200T757 140ZM199 523Q236 523 260 548T284 610Q284 645 260 670T199 696Q164 696 140 671T115 610Q115 573 139 548T199 523ZM351 610Q351 578 339 551T307 503T258 470T198 458Q166 458 139 470T91 502T59 550T47 610Q47 641 59 669T91 717T138 750T198 762Q230 762 258 750T306 718T339 669T351 610ZM207 0L523 757L582 732L266 -24L207 0Z"  />
<glyph unicode="&amp;" horiz-adv-x="742" d="M266 444Q257 442 234 432T186 399T144 343T125 259Q125 214 142 178T186 117T247 78T315 64Q358 64 390 78T443 112T477 151T494 181L266 444ZM648 0L547 122Q539 108 521 85T474 41T405 3T314 -13Q256 -13 207 8T121 66T64 151T43 254Q43 303 58 344T98 418T154 472T217 505Q212 512 204 523T188 548T175 580T169 617Q169 650 179 678T210 726T258 758T323 770Q355 770 378 763T419 745T448 724T467 706L414 651Q408 656 399 663T378 677T352 689T323 694Q295 694 272 678T248 621Q248 592 264 568T300 521L565 522L548 450H362L760 0H648Z"  />
<glyph unicode="&apos;" horiz-adv-x="226" d="M77 472L62 761H164L149 472H77Z"  />
<glyph unicode="(" horiz-adv-x="257" d="M145 -265Q103 -157 80 -18T57 277Q57 363 64 443T83 594T111 727T145 836L215 807Q203 772 190 717T164 593T144 444T136 279Q136 206 142 139T158 9T183 -114T214 -236L145 -265Z"  />
<glyph unicode=")" horiz-adv-x="256" d="M43 -236Q59 -175 73 -115T98 9T115 139T121 279Q121 364 113 444T93 593T68 717T42 807L112 836Q130 788 145 727T173 595T192 444T199 277Q199 122 177 -17T112 -265L43 -236Z"  />
<glyph unicode="*" horiz-adv-x="489" d="M103 514L207 611L231 591L163 464L103 514ZM296 639L287 669L398 733L430 663L296 639ZM326 464L258 591L282 611L386 514L326 464ZM230 684L200 821H290L259 684H230ZM59 663L91 733L202 669L193 639L59 663Z"  />
<glyph unicode="+" horiz-adv-x="650" d="M369 325V104H281V325H54V402H281V624H369V402H596V325H369Z"  />
<glyph unicode="&#x2c;" horiz-adv-x="250" d="M12 -108L91 104H188L78 -108H12Z"  />
<glyph unicode="-" horiz-adv-x="404" d="M68 209L78 283H336L326 209H68Z"  />
<glyph unicode="." horiz-adv-x="240" d="M182 49Q182 26 164 7T120 -12Q94 -12 76 7T58 49Q58 75 76 93T120 112Q146 112 164 94T182 49Z"  />
<glyph unicode="/" horiz-adv-x="548" d="M37 -192L445 820L512 791L105 -216L37 -192Z"  />
<glyph unicode="0" horiz-adv-x="667" d="M333 65Q372 65 400 80T447 122T478 180T496 247T504 315T506 374Q506 416 501 469T477 570T425 650T332 683Q275 683 242 652T190 573T167 472T162 374Q162 348 164 315T172 248T191 181T222 122T268 81T333 65ZM333 -14Q276 -14 235 3T163 50T115 119T85 201T70 289T66 374Q66 413 70 457T84 545T114 627T162 697T233 745T332 763Q417 763 470 726T552 632T591 506T601 374Q601 333 597 288T582 200T552 118T503 50T431 4T333 -14Z"  />
<glyph unicode="1" horiz-adv-x="370" d="M175 -4V646L50 597L23 667L268 770V-4H175Z"  />
<glyph unicode="2" horiz-adv-x="608" d="M29 0V47Q62 70 105 102T192 174T280 259T357 351T411 447T432 542Q432 570 423 596T396 641T354 672T299 684Q272 684 248 676T203 655T167 629T141 602L94 662Q106 675 125 692T172 725T233 752T308 763Q357 763 397 746T467 699T513 629T529 542Q529 496 514 452T473 365T413 282T343 206T269 138T198 79L554 81V0H29Z"  />
<glyph unicode="3" horiz-adv-x="560" d="M69 134Q76 126 91 114T128 91T178 72T239 64Q282 64 313 76T366 109T397 156T407 211Q407 246 393 278T351 335T283 374T189 389V441Q235 441 270 453T329 484T365 528T377 578Q377 623 346 652T255 681Q224 681 190 670T132 642L103 708Q110 715 126 725T165 743T215 757T272 763Q318 763 354 748T416 707T455 650T469 586Q469 539 444 495T354 420V418Q391 403 418 380T464 328T490 268T499 203Q499 162 482 123T432 54T351 5T240 -14Q195 -14 160 -5T98 17T54 43T29 65L69 134Z"  />
<glyph unicode="4" horiz-adv-x="638" d="M399 579L148 218L399 219V579ZM399 -4V138H26V182L442 778H488V219H591V138H488V-4H399Z"  />
<glyph unicode="5" horiz-adv-x="563" d="M66 123Q98 99 140 83T224 67Q272 67 307 81T365 120T399 175T410 239Q410 272 399 302T366 356T308 394T224 409Q196 409 166 404T98 387L196 749H489L466 673H257L204 472Q218 474 231 475T260 476Q311 476 356 459T435 411T488 338T508 244Q508 193 492 147T442 64T359 7T239 -14Q203 -14 170 -7T110 9T62 29T32 46L66 123Z"  />
<glyph unicode="6" horiz-adv-x="614" d="M477 226Q477 260 465 291T432 345T379 382T311 396Q275 396 245 383T194 347T161 293T149 226Q149 193 162 164T197 114T249 80T313 67Q349 67 379 80T431 115T465 165T477 226ZM420 713Q403 695 378 665T325 598T268 521T218 441Q276 470 334 470Q384 470 427 450T502 396T552 318T570 226Q570 179 551 136T497 59T415 6T313 -14Q257 -14 210 6T128 59T74 135T55 226Q55 275 73 329T119 439T183 546T251 643T313 720T357 771L420 713Z"  />
<glyph unicode="7" horiz-adv-x="547" d="M57 -8L405 668L47 667V748H542L160 -8H57Z"  />
<glyph unicode="8" horiz-adv-x="610" d="M443 545Q443 575 433 600T404 645T360 674T305 685Q276 685 251 675T207 645T177 601T166 548Q166 522 176 498T206 455T250 425T306 414Q335 414 360 424T403 453T432 495T443 545ZM446 203Q446 231 435 256T405 301T360 331T304 343Q275 343 249 332T204 302T173 257T162 203Q162 174 173 149T203 105T249 74T304 63Q334 63 359 74T404 105T435 149T446 203ZM423 378Q445 368 466 352T504 315T531 266T542 206Q542 159 523 119T472 49T397 2T306 -15Q257 -15 214 2T138 48T86 118T67 204Q67 237 78 264T108 314T147 352T189 379Q165 389 144 407T108 447T83 494T74 547Q74 599 94 639T146 706T220 748T305 763Q352 763 394 748T468 705T518 637T537 547Q537 520 528 495T504 447T467 406T423 378Z"  />
<glyph unicode="9" horiz-adv-x="615" d="M303 354Q333 354 362 364T415 396T452 449T466 523Q466 556 453 585T418 635T366 669T302 682Q261 682 231 669T182 633T152 581T142 522Q142 480 156 449T192 396T244 365T303 354ZM195 36Q211 54 236 84T290 151T347 228T397 308Q370 292 342 285T286 278Q239 278 196 296T119 347T65 425T45 523Q45 570 64 613T118 690T200 743T302 763Q358 763 405 743T487 690T541 614T560 523Q560 474 542 420T496 310T432 203T364 106T302 29T258 -22L195 36Z"  />
<glyph unicode=":" horiz-adv-x="260" d="M192 393Q192 369 175 351T130 332Q104 332 86 350T68 393Q68 419 86 437T130 455Q157 455 174 437T192 393ZM192 49Q192 26 175 7T130 -12Q104 -12 86 7T68 49Q68 76 86 94T130 112Q157 112 174 94T192 49Z"  />
<glyph unicode=";" horiz-adv-x="277" d="M20 -108L98 104H195L86 -108H20ZM209 393Q209 369 192 351T147 332Q121 332 104 350T86 393Q86 419 103 437T147 455Q174 455 191 437T209 393Z"  />
<glyph unicode="&lt;" horiz-adv-x="624" d="M48 344V396L514 674L554 599L161 370L554 121L514 49L48 344Z"  />
<glyph unicode="=" horiz-adv-x="702" d="M80 446V523H622V446H80ZM80 205V282H622V205H80Z"  />
<glyph unicode="&gt;" horiz-adv-x="625" d="M111 66L71 141L464 370L71 619L112 691L577 396V344L111 66Z"  />
<glyph unicode="?" horiz-adv-x="479" d="M223 -12Q198 -12 180 7T162 49Q162 75 180 93T223 112Q249 112 266 94T284 49Q284 26 267 7T223 -12ZM426 304Q418 290 401 272T358 237T300 209T231 197Q201 197 171 207T117 236T78 282T63 344Q63 377 74 402T101 446T138 480T179 508Q201 523 221 538T258 569T285 603T295 639Q295 666 276 684T231 702Q196 702 170 687T127 659L92 711Q102 720 117 730T151 750T194 766T245 773Q280 773 306 762T350 731T376 688T385 638Q385 609 371 583T334 535T288 493T243 460Q227 448 211 437T181 412T159 382T150 345Q150 330 156 316T174 292T201 275T235 269Q262 269 285 278T327 299T359 326T380 350L426 304Z"  />
<glyph unicode="@" horiz-adv-x="1042" d="M804 -188Q732 -218 672 -227T563 -237Q459 -237 368 -199T208 -93T100 64T60 256Q60 358 98 448T202 605T357 711T551 750Q655 750 737 718T875 629T962 495T992 327Q992 270 967 208T893 93T772 8T604 -26Q534 -26 484 -9T401 37T353 101T337 174Q337 208 350 240T387 298T448 339T531 354Q572 354 605 342T666 308V361Q666 396 635 422T545 448Q494 448 460 437T413 421L385 480Q411 493 454 507T549 521Q607 521 645 506T705 466T735 406T744 333V175H721Q704 209 681 229T632 261T582 276T538 280Q508 280 485 271T447 248T423 214T414 174Q414 151 425 129T459 88T519 59T605 47Q678 47 736 72T836 137T898 229T920 335Q920 383 903 442T842 553T728 641T548 677Q460 677 385 644T253 553T165 416T133 244Q133 165 167 91T259 -40T394 -131T560 -165Q611 -165 664 -159T780 -124L804 -188Z"  />
<glyph unicode="A" horiz-adv-x="717" d="M375 537Q370 548 365 561T358 580Q356 575 352 562T342 537L217 265H499L375 537ZM620 0L539 178H179L97 0H-9L358 784L726 0H620Z"  />
<glyph unicode="B" horiz-adv-x="630" d="M313 85Q399 85 439 121T480 217Q480 274 435 309T314 345H190V85H313ZM251 431Q329 431 373 464T418 560Q418 591 407 612T377 646T332 665T275 671H190V431H251ZM94 0V757H257Q312 757 359 749T442 718T498 659T519 563Q519 536 509 512T481 466T442 430T400 408Q428 403 460 389T519 351T564 294T582 218Q582 116 511 58T299 0H94Z"  />
<glyph unicode="C" horiz-adv-x="755" d="M717 82Q665 34 600 10T456 -15Q368 -15 293 16T164 100T78 225T47 378Q47 459 77 530T160 656T287 741T449 772Q498 772 539 762T614 737T673 704T714 670L661 603Q625 639 572 662T441 685Q378 685 325 662T232 598T171 499T149 373Q149 309 173 254T240 159T338 95T457 71Q535 71 589 94T673 145L717 82Z"  />
<glyph unicode="D" horiz-adv-x="748" d="M280 85Q347 85 404 102T504 155T571 247T595 381Q595 451 572 505T507 596T411 652T291 671H190V85H280ZM94 0V757H288Q372 757 446 733T576 661T664 542T697 378Q697 289 667 219T582 100T450 26T280 0H94Z"  />
<glyph unicode="E" horiz-adv-x="576" d="M94 1V756H507V671H190V447H445V361H190V85L539 86V1H94Z"  />
<glyph unicode="F" horiz-adv-x="525" d="M94 0V756H499V671H190V444H440V359H190V0H94Z"  />
<glyph unicode="G" horiz-adv-x="843" d="M508 290V377H811Q810 274 780 200T699 78T584 8T450 -15Q366 -15 293 15T165 99T79 224T47 376Q47 459 77 531T162 656T290 741T451 772Q518 772 570 757T659 722T714 687T736 668L686 597Q684 599 667 613T619 643T545 672T449 685Q379 685 324 661T229 595T170 497T149 374Q149 315 171 261T234 164T332 97T457 71Q506 71 550 86T628 129T683 198T710 290H508Z"  />
<glyph unicode="H" horiz-adv-x="771" d="M581 0V342H190V0H94V757H190V429H581V757H677V0H581Z"  />
<glyph unicode="I" horiz-adv-x="284" d="M94 0V757H190V0H94Z"  />
<glyph unicode="J" horiz-adv-x="284" d="M-62 -178Q-15 -160 15 -142T63 -95T87 -23T94 86V757H190V82Q190 2 180 -52T144 -144T78 -209T-26 -261L-62 -178Z"  />
<glyph unicode="K" horiz-adv-x="676" d="M553 0L190 323V0H94V757H190V428L508 757H631L257 384L694 0H553Z"  />
<glyph unicode="L" horiz-adv-x="530" d="M94 1V757H190V86H511V1H94Z"  />
<glyph unicode="M" horiz-adv-x="975" d="M817 0L769 450Q768 457 768 469T768 488Q766 483 761 473T751 454L487 -29L222 453Q212 472 205 489Q207 481 207 471T206 450L160 0H58L148 778L475 192Q477 189 482 178T488 160Q490 166 494 177T501 192L827 777L918 0H817Z"  />
<glyph unicode="N" horiz-adv-x="854" d="M188 544L189 0H93L94 777L666 201L665 757H761L760 -27L188 544Z"  />
<glyph unicode="O" horiz-adv-x="905" d="M756 376Q756 443 732 499T667 597T570 662T454 685Q390 685 335 662T238 599T172 503T148 382Q148 320 171 264T235 165T330 97T447 71Q512 71 568 94T666 159T732 255T756 376ZM858 375Q858 294 826 223T738 99T610 16T454 -15Q368 -15 294 16T165 100T79 225T47 378Q47 460 78 531T165 656T294 741T454 772Q538 772 611 742T740 659T826 534T858 375Z"  />
<glyph unicode="P" horiz-adv-x="578" d="M250 372Q342 372 392 415T443 532Q443 567 431 593T396 636T343 662T276 671H190V372H250ZM94 0V757H251Q309 757 361 746T454 709T519 640T543 533Q543 479 526 434T472 356T382 305T252 287H190V0H94Z"  />
<glyph unicode="Q" horiz-adv-x="905" d="M756 376Q756 443 732 499T667 597T570 662T454 685Q390 685 335 662T238 599T172 503T148 382Q148 320 171 264T235 165T330 97T447 71Q512 71 568 94T666 159T732 255T756 376ZM653 36Q610 11 559 -2T454 -15Q368 -15 294 16T165 100T79 225T47 378Q47 460 78 531T165 656T294 741T454 772Q538 772 612 742T740 659T826 534T858 375Q858 288 821 213T723 85L870 -29L801 -100L653 36Z"  />
<glyph unicode="R" horiz-adv-x="622" d="M244 383Q342 383 392 425T443 532Q443 604 396 637T264 671H190V383H244ZM519 0L219 298H190V0H94V757H245Q294 757 346 748T442 715T514 646T543 533Q543 487 528 448T484 379T415 330T325 303L654 0H519Z"  />
<glyph unicode="S" horiz-adv-x="567" d="M82 157Q94 143 112 129T155 101T210 80T277 72Q341 72 380 105T420 195Q420 244 395 275T331 330T248 373T165 418T101 481T75 576Q75 624 93 661T143 723T214 760T299 773Q338 773 371 764T429 742T472 716T498 694L448 624Q422 650 384 668T300 687Q276 687 253 681T213 662T186 630T175 583Q175 542 201 516T265 470T349 429T432 380T497 307T523 196Q523 156 506 118T457 51T377 3T269 -15Q229 -15 192 -5T123 20T67 53T30 87L82 157Z"  />
<glyph unicode="T" horiz-adv-x="574" d="M239 0V671H18V756H556V671H335V0H239Z"  />
<glyph unicode="U" horiz-adv-x="761" d="M575 757H671V87Q632 44 560 14T378 -16Q240 -16 164 56T87 275V757H183V324Q183 253 195 205T233 127T300 84T401 71Q449 71 496 83T575 122V757Z"  />
<glyph unicode="V" horiz-adv-x="671" d="M-9 757H97L329 192Q331 186 332 178T335 160Q337 180 342 192L574 757H680L336 -35L-9 757Z"  />
<glyph unicode="W" horiz-adv-x="1033" d="M516 537L277 -32L-3 757H102L283 238Q286 230 287 221T289 201Q290 223 296 238L515 777L741 238Q746 224 748 201Q749 212 750 221T754 238L930 757H1033L759 -33L516 537Z"  />
<glyph unicode="X" horiz-adv-x="665" d="M539 0L332 312L121 0H3L281 390L24 757H141L335 467L530 757H648L385 390L657 0H539Z"  />
<glyph unicode="Y" horiz-adv-x="601" d="M252 0V325L-10 757H98L296 417Q298 412 299 408T302 392Q303 403 305 407T309 417L509 757H615L348 325V0H252Z"  />
<glyph unicode="Z" horiz-adv-x="631" d="M0 1L430 671H81V756H594L165 86H599V1H0Z"  />
<glyph unicode="[" horiz-adv-x="314" d="M81 -216V820H278V748H159V-146H278V-216H81Z"  />
<glyph unicode="\" horiz-adv-x="547" d="M443 -217L36 791L103 820L510 -193L443 -217Z"  />
<glyph unicode="]" horiz-adv-x="315" d="M37 -216V-144H153V751H37V820H234V-216H37Z"  />
<glyph unicode="^" horiz-adv-x="664" d="M481 408L332 706L183 408H80L293 814H371L584 408H481Z"  />
<glyph unicode="_" horiz-adv-x="615" d="M60 -38V38H555V-38H60Z"  />
<glyph unicode="`" horiz-adv-x="329" d="M223 583L57 729L132 793L270 620L223 583Z"  />
<glyph unicode="a" horiz-adv-x="521" d="M375 198Q355 215 322 231T244 248Q181 248 151 221T120 157Q120 138 128 121T152 91T193 69T249 61Q290 61 321 70T375 95V198ZM460 52Q428 24 374 5T243 -14Q188 -14 148 0T81 40T42 97T29 164Q29 206 48 236T97 285T163 314T232 323Q267 323 306 312T375 275V336Q375 377 345 403T253 430Q229 430 207 427T167 419T136 409T116 401L87 467Q116 480 158 492T258 505Q318 505 357 492T419 453T451 393T460 315V52Z"  />
<glyph unicode="b" horiz-adv-x="590" d="M158 92Q175 80 207 70T278 59Q315 59 347 71T404 108T441 168T455 250Q455 286 445 318T416 376T368 415T301 430Q281 430 260 424T220 409T184 389T158 365V92ZM69 820H158V447Q168 456 185 466T224 485T268 499T315 505Q376 505 420 484T492 427T534 345T548 249Q548 184 525 135T465 53T379 3T278 -14Q225 -14 171 1T69 50V820Z"  />
<glyph unicode="c" horiz-adv-x="516" d="M488 65Q464 34 416 10T295 -14Q241 -14 194 6T113 60T60 142T40 245Q40 301 59 348T114 431T198 485T303 505Q336 505 364 498T415 480T451 460T472 443L434 379Q429 384 418 392T390 409T352 424T304 431Q272 431 241 419T186 384T147 325T132 244Q132 202 146 168T183 110T238 73T306 60Q366 60 402 79T455 118L488 65Z"  />
<glyph unicode="d" horiz-adv-x="589" d="M432 371Q413 397 376 413T298 429Q223 429 179 378T134 239Q134 196 148 163T187 107T244 72T311 60Q337 60 370 67T432 94V371ZM432 820H520V50Q472 17 419 2T311 -14Q259 -14 211 2T125 49T64 128T41 239Q41 299 59 348T112 432T192 486T295 505Q332 505 368 494T432 460V820Z"  />
<glyph unicode="e" horiz-adv-x="559" d="M432 301Q427 329 417 353T389 395T348 423T292 433Q236 433 192 402T133 301H432ZM506 61Q495 47 476 34T430 10T370 -7T299 -14Q243 -14 196 4T114 56T60 137T41 243Q41 300 59 348T111 431T191 485T294 505Q352 505 394 484T465 428T507 348T521 254V228H130Q130 219 131 211T133 198Q140 161 157 135T199 92T254 67T318 59Q349 59 374 65T419 80T453 100T475 120L506 61Z"  />
<glyph unicode="f" horiz-adv-x="336" d="M106 0V418H24V491H106V620Q106 665 116 701T149 763Q173 791 209 804T284 817Q330 817 359 805T394 788L358 717Q353 721 334 730T286 739Q240 739 218 707T195 620V491H318V418H195V0H106Z"  />
<glyph unicode="g" horiz-adv-x="584" d="M428 400Q414 408 385 419T312 430Q277 430 245 419T189 386T149 328T134 245Q134 215 143 183T171 123T221 79T293 62Q335 62 372 84T428 139V400ZM428 56Q400 24 358 5T275 -14Q231 -14 189 3T114 54T61 136T41 245Q41 308 63 356T123 438T209 488T311 505Q387 505 436 487T515 448V-26Q515 -96 495 -142T441 -216T367 -255T284 -267Q217 -267 164 -250T74 -208L113 -142Q140 -161 185 -177T284 -193Q309 -193 335 -187T381 -163T415 -115T428 -36V56Z"  />
<glyph unicode="h" horiz-adv-x="562" d="M406 0V280Q406 352 382 388T291 425Q268 425 248 419T210 403T179 383T159 363V0H71V820H159V440Q169 449 184 460T219 481T265 498T321 505Q405 505 449 462T494 324V0H406Z"  />
<glyph unicode="i" horiz-adv-x="239" d="M120 584Q94 584 76 601T58 645Q58 673 76 690T120 707Q148 707 164 690T181 645Q181 619 164 602T120 584ZM75 0V492H164V0H75Z"  />
<glyph unicode="j" horiz-adv-x="238" d="M181 645Q181 619 164 602T119 584Q93 584 76 601T58 645Q58 673 75 690T119 707Q147 707 164 690T181 645ZM-30 -200Q9 -185 30 -172T61 -134T73 -70T75 38V492H163V39Q163 -33 159 -83T139 -167T91 -225T4 -268L-30 -200Z"  />
<glyph unicode="k" horiz-adv-x="505" d="M381 0L160 230V0H71V820H160V297L340 492H459L235 269L509 0H381Z"  />
<glyph unicode="l" horiz-adv-x="238" d="M75 0V820H163V0H75Z"  />
<glyph unicode="m" horiz-adv-x="850" d="M695 0V317Q695 375 671 400T599 425Q578 425 559 419T523 404T493 385T471 365V0H383V319Q383 378 358 401T284 425Q263 425 244 419T209 403T179 383T159 364V0H71V492H159V439Q168 448 183 459T219 480T265 498T319 505Q347 505 368 498T404 480T430 456T448 430Q462 442 481 455T523 479T572 497T626 505Q700 505 741 463T783 328V0H695Z"  />
<glyph unicode="n" horiz-adv-x="562" d="M406 0V280Q406 352 382 388T291 425Q268 425 248 419T210 403T179 383T159 363V0H71V492H159V440Q169 449 184 460T219 481T265 498T321 505Q405 505 449 462T494 324V0H406Z"  />
<glyph unicode="o" horiz-adv-x="607" d="M302 59Q340 59 372 72T426 110T461 169T474 245Q474 285 461 319T424 378T369 416T304 430Q266 430 235 416T180 377T145 318T132 242Q132 202 146 169T183 111T238 73T302 59ZM567 245Q567 191 547 144T491 62T408 7T304 -14Q248 -14 200 6T117 61T61 143T40 245Q40 300 60 347T116 430T200 485T305 505Q360 505 408 485T491 429T547 346T567 245Z"  />
<glyph unicode="p" horiz-adv-x="589" d="M157 132Q179 102 219 82T303 62Q334 62 361 74T410 110T443 168T455 244Q455 284 443 317T407 376T350 415T273 429Q241 429 208 419T157 396V132ZM69 -255V444Q117 476 172 490T281 505Q333 505 381 489T466 441T525 359T548 245Q548 194 532 148T486 65T410 8T308 -14Q287 -14 266 -10T225 3T188 21T157 44V-255H69Z"  />
<glyph unicode="q" horiz-adv-x="593" d="M435 396Q418 407 388 418T325 429Q281 429 246 415T186 375T148 315T134 241Q134 198 147 165T183 109T235 74T296 62Q338 62 375 83T435 138V396ZM435 -255V47Q409 22 367 5T281 -13Q229 -13 185 6T109 60T59 142T41 244Q41 309 65 358T128 439T218 488T320 505Q380 505 429 490T524 444V-255H435Z"  />
<glyph unicode="r" horiz-adv-x="356" d="M71 0V492H159V418Q162 427 170 441T193 470T225 494T265 504Q295 504 317 496T349 481L314 398Q304 405 289 412T253 420Q232 420 215 409T186 382T167 347T159 312V0H71Z"  />
<glyph unicode="s" horiz-adv-x="418" d="M62 117Q82 96 117 76T198 55Q234 55 261 74T288 136Q288 159 271 175T229 207T175 236T120 269T78 312T61 369Q61 397 72 421T104 465T154 495T219 506Q275 506 314 487T372 449L337 387Q333 391 323 399T299 416T267 431T230 437Q191 437 172 418T153 375Q153 351 169 335T211 305T266 278T320 246T362 202T379 138Q379 103 366 75T330 27T274 -3T202 -14Q170 -14 143 -8T94 8T54 30T23 54L62 117Z"  />
<glyph unicode="t" horiz-adv-x="332" d="M110 0V418H19V491H110V662H198V491H319V418H198V0H110Z"  />
<glyph unicode="u" horiz-adv-x="561" d="M403 492H492V55Q414 -14 281 -14Q234 -14 195 -2T128 33T83 92T67 176V492H156V196Q156 159 166 133T193 91T235 68T287 60Q332 60 360 71T403 94V492Z"  />
<glyph unicode="v" horiz-adv-x="491" d="M228 -10L1 492H97L220 203Q223 196 227 187T235 167T242 146T247 129H248Q251 143 259 164T274 203L395 492H490L266 -10H228Z"  />
<glyph unicode="w" horiz-adv-x="743" d="M504 -10L371 297L239 -10H200L5 492H99L228 148L363 494H380L517 148L646 492H738L542 -10H504Z"  />
<glyph unicode="x" horiz-adv-x="508" d="M396 0L253 199L110 0H7L203 263L32 492H138L255 325L372 492H474L303 264L501 0H396Z"  />
<glyph unicode="y" horiz-adv-x="517" d="M40 -258L205 50L1 492H99L252 145L419 492H518L136 -258H40Z"  />
<glyph unicode="z" horiz-adv-x="480" d="M10 1L305 418H59V491H453L161 74H445V1H10Z"  />
<glyph unicode="{" horiz-adv-x="342" d="M293 -217Q246 -206 214 -189T162 -148T134 -93T125 -21V119Q125 153 121 177T104 222T72 262T19 306Q51 330 71 349T104 389T120 434T125 493V633Q125 673 133 704T161 760T213 801T293 829L310 761Q293 758 275 752T242 734T217 703T207 654V481Q207 419 190 378T141 306Q172 276 189 235T207 131V-42Q207 -72 217 -91T242 -123T275 -140T310 -149L293 -217Z"  />
<glyph unicode="|" horiz-adv-x="241" d="M80 -260V820H161V-260H80Z"  />
<glyph unicode="}" horiz-adv-x="341" d="M31 -149Q48 -146 66 -141T99 -123T124 -92T134 -42V131Q134 193 151 234T200 306Q169 336 152 377T134 481V654Q134 684 124 703T99 734T66 752T31 761L48 829Q95 818 127 801T179 760T207 705T216 633V493Q216 459 220 435T237 390T269 350T322 306Q290 282 270 263T237 223T221 178T216 119V-21Q216 -62 208 -93T180 -148T128 -189T48 -217L31 -149Z"  />
<glyph unicode="~" horiz-adv-x="564" d="M512 495Q505 488 491 478T459 459T418 443T372 436Q352 436 331 444T289 462T245 480T200 488Q185 488 168 483T136 470T107 454T84 440L52 507Q61 515 77 526T114 547T156 564T199 571Q222 571 245 563T289 545T331 527T370 518Q390 518 407 523T439 536T464 551T481 564L512 495Z"  />
<glyph unicode="&#xA0;" horiz-adv-x="240" />
<glyph unicode="&#xA1;" horiz-adv-x="265" d="M133 434Q105 434 87 452T69 497Q69 520 87 539T133 559Q145 559 156 554T176 540T190 520T195 497Q195 471 177 453T133 434ZM78 -211L101 339H165L188 -211H78Z"  />
<glyph unicode="&#xA2;" horiz-adv-x="573" d="M278 532Q255 526 233 513T192 479T163 429T152 360Q152 324 162 295T190 244T230 206T278 185V532ZM278 -13V108Q231 115 191 137T121 192T76 269T59 363Q59 414 76 457T123 532T193 584T278 610V759H342V612Q373 610 401 601T452 580T489 557T509 539L465 483Q460 487 448 496T419 514T383 530T342 539V180Q367 180 389 187T430 204T464 225T488 247L520 189Q495 157 449 135T342 108V-13H278Z"  />
<glyph unicode="&#xA3;" horiz-adv-x="626" d="M581 -2Q526 -18 464 -18Q443 -18 420 -14T373 -4T326 6T280 11Q252 11 219 3T155 -14T104 -33T78 -44L49 26Q51 27 65 33T99 47T143 63T191 77V285H96V357H191V531Q191 592 202 633T234 700T288 737T362 749Q399 749 427 736T467 714L427 646Q419 651 402 660T361 669Q313 669 298 636T282 544V357H419V285H282V86Q305 86 327 82T373 72T420 63T470 58Q496 58 521 62T573 75L581 -2Z"  />
<glyph unicode="&#xA4;" horiz-adv-x="710" d="M513 365Q513 398 500 426T465 476T414 509T353 521Q323 521 295 509T246 476T211 427T197 365Q197 333 210 305T245 255T295 221T353 208Q385 208 414 220T465 254T500 304T513 365ZM569 99L493 173Q464 153 430 141T353 128Q312 128 278 141T215 173L137 98L77 150L153 226Q132 255 119 289T106 365Q106 410 119 443T152 502L75 579L136 631L215 555Q244 575 278 588T353 601Q395 601 430 589T493 556L570 631L635 579L557 501Q577 475 589 443T602 365Q602 323 590 289T555 226Q576 206 597 187T635 150L569 99Z"  />
<glyph unicode="&#xA5;" horiz-adv-x="724" d="M408 129V0H312V129H90V196H312V268H90V335H306L50 757H158L356 417Q358 412 359 408T362 393Q363 403 365 407T369 417L569 757H675L414 335H632V268H408V196H632V129H408Z"  />
<glyph unicode="&#xA6;" horiz-adv-x="251" d="M85 381V820H166V381H85ZM85 -260V179H166V-260H85Z"  />
<glyph unicode="&#xA7;" horiz-adv-x="569" d="M248 458Q212 457 183 445T130 414L318 118Q355 119 385 134T432 164L248 458ZM43 399Q50 420 69 440T112 478T160 509T205 531L121 664Q123 675 139 690T180 720T236 751T299 779T362 799T417 807L424 718Q400 718 368 713T303 700T245 685T209 673Q286 548 364 425T520 179Q512 158 494 138T452 101T405 70T362 49L467 -116Q463 -129 445 -145T400 -178T341 -211T276 -241T213 -262T159 -270L152 -181Q176 -181 210 -175T279 -159T341 -141T379 -126L43 399Z"  />
<glyph unicode="&#xA8;" horiz-adv-x="355" d="M355 639Q355 617 340 602T297 586Q274 586 259 601T243 639Q243 662 258 678T297 694Q324 694 339 678T355 639ZM123 639Q123 617 107 602T66 586Q43 586 27 601T10 639Q10 662 26 678T66 694Q90 694 106 678T123 639Z"  />
<glyph unicode="&#xA9;" horiz-adv-x="912" d="M456 51Q523 51 582 76T684 146T753 249T778 375Q778 442 753 501T685 604T582 673T456 699Q388 699 330 674T228 605T159 502T134 375Q134 308 159 249T227 146T329 77T456 51ZM853 375Q853 293 822 221T738 96T612 11T456 -20Q373 -20 301 11T175 95T90 221T59 375Q59 457 90 529T175 655T301 740T456 771Q539 771 611 740T737 655T822 529T853 375ZM651 201Q588 145 481 145Q424 145 376 163T293 213T239 287T219 378Q219 426 237 469T289 545T369 597T473 617Q508 617 536 611T586 595T623 575T649 555L602 488Q579 509 547 521T469 534Q436 534 408 522T360 488T329 438T317 377Q317 347 330 320T365 273T418 240T481 228Q533 228 565 239T612 265L651 201Z"  />
<glyph unicode="&#xAA;" horiz-adv-x="443" d="M297 528Q284 537 263 546T214 555Q184 555 158 541T132 500Q132 470 155 454T215 437Q241 437 262 442T297 457V528ZM380 425Q348 399 305 388T211 377Q168 377 137 387T86 414T55 454T45 502Q45 531 59 552T96 586T146 605T199 611Q234 611 256 605T297 588V624Q297 647 275 663T210 679Q179 679 152 672T113 659L87 710Q111 721 144 729T223 738Q270 738 300 729T348 701T373 658T380 602V425Z"  />
<glyph unicode="&#xAB;" horiz-adv-x="544" d="M404 25L266 236L401 447H492L350 237L497 25H404ZM186 25L47 236L182 447H275L134 236L279 25H186Z"  />
<glyph unicode="&#xAC;" horiz-adv-x="701" d="M525 104V325H74V403H616V104H525Z"  />
<glyph unicode="&#xAD;" horiz-adv-x="404" d="M68 209L78 283H336L326 209H68Z"  />
<glyph unicode="&#xAE;" horiz-adv-x="711" d="M333 492Q376 492 396 508T417 550Q417 573 398 586T343 600H307V492H333ZM425 345L323 449L307 465V345H247V651H335Q361 651 386 646T431 628T463 597T475 550Q475 512 452 488T388 455L501 345H425ZM356 258Q402 258 443 276T516 326T565 398T583 487Q583 533 565 575T516 648T444 697T356 716Q309 716 268 698T195 649T146 577T128 487Q128 440 146 399T195 326T267 277T356 258ZM356 202Q297 202 245 224T154 285T93 376T70 487Q70 546 92 597T154 687T245 748T356 771Q414 771 466 749T557 688T618 598T641 487Q641 428 619 376T557 286T466 225T356 202Z"  />
<glyph unicode="&#xAF;" horiz-adv-x="525" d="M64 578V654H461V578H64Z"  />
<glyph unicode="&#xB0;" horiz-adv-x="418" d="M210 542Q242 542 264 565T287 624Q287 658 265 682T210 706Q178 706 156 682T134 624Q134 589 156 566T210 542ZM371 624Q371 592 359 564T324 516T273 483T209 471Q175 471 146 483T95 515T61 564T48 624Q48 656 60 684T94 732T145 765T209 777Q243 777 272 765T324 733T358 684T371 624Z"  />
<glyph unicode="&#xB1;" horiz-adv-x="688" d="M73 1V77H615V1H73ZM388 356V135H300V356H73V433H300V655H388V433H615V356H388Z"  />
<glyph unicode="&#xB2;" horiz-adv-x="471" d="M43 335Q79 361 128 401T227 493Q269 535 288 568T307 636Q307 663 286 682T235 702Q201 702 176 686T136 655L95 709Q104 717 118 727T151 747T193 763T244 770Q277 770 305 760T352 731T383 689T394 636Q394 604 379 572T337 509T278 451T209 401L412 404V335H43Z"  />
<glyph unicode="&#xB3;" horiz-adv-x="408" d="M73 431Q78 425 88 419T113 407T145 397T182 393Q230 393 252 414T275 461Q275 541 135 543L136 590Q196 592 225 609T254 653Q254 676 237 688T189 701Q166 701 144 694T109 679L84 739Q96 749 129 759T203 770Q234 770 259 761T302 738T328 706T338 669Q338 641 324 616T269 572Q317 554 338 520T359 448Q359 425 347 403T313 364T257 335T183 324Q153 324 129 329T86 342T55 358T37 371L73 431Z"  />
<glyph unicode="&#xB4;" horiz-adv-x="335" d="M110 583L63 620L201 793L280 736L110 583Z"  />
<glyph unicode="&#xB5;" horiz-adv-x="588" d="M435 0V66Q424 45 408 31T372 7T333 -5T295 -9Q270 -9 237 -1T175 30V-255H86V492H175V110Q196 95 224 81T296 66Q324 66 349 75T393 101T423 145T435 207V492H524V0H435Z"  />
<glyph unicode="&#xB6;" horiz-adv-x="567" d="M370 -155V757H459V-155H370ZM311 259Q249 257 200 277T117 331T65 408T46 496Q46 542 64 588T117 671T200 731T311 754V259Z"  />
<glyph unicode="&#xB7;" horiz-adv-x="246" d="M186 371Q186 347 168 330T123 312Q97 312 79 329T60 371Q60 396 78 413T123 430Q149 430 167 413T186 371Z"  />
<glyph unicode="&#xB8;" horiz-adv-x="585" d="M241 -211L326 -39H424L327 -211H241Z"  />
<glyph unicode="&#xB9;" horiz-adv-x="293" d="M133 334V671L59 642L28 706L219 775V334H133Z"  />
<glyph unicode="&#xBA;" horiz-adv-x="491" d="M244 451Q295 451 326 483T357 567Q357 592 348 613T324 650T289 675T247 684Q222 684 201 675T165 650T142 612T133 565Q133 540 142 519T167 483T203 460T244 451ZM446 567Q446 530 431 497T388 440T325 401T246 387Q204 387 167 401T103 439T61 496T45 567Q45 604 60 637T103 695T167 734T246 748Q288 748 324 734T388 695T430 637T446 567Z"  />
<glyph unicode="&#xBB;" horiz-adv-x="537" d="M264 25L409 236L268 447H357L490 236L353 25H264ZM47 25L192 235L51 447H142L277 236L139 25H47Z"  />
<glyph unicode="&#xBC;" horiz-adv-x="843" d="M644 310L494 136H643L644 310ZM640 -8V73H406V128L665 428H721V140H791V73H721V-8H640ZM149 334V671L75 642L44 706L235 775V334H149ZM151 0L549 765L622 731L223 -34L151 0Z"  />
<glyph unicode="&#xBD;" horiz-adv-x="893" d="M468 0Q504 26 553 66T652 158Q694 200 713 233T732 301Q732 328 711 347T660 367Q626 367 601 351T561 320L520 374Q529 382 543 392T576 412T618 428T669 435Q702 435 730 425T777 396T808 354T819 301Q819 269 804 237T762 174T703 116T634 66L837 69V0H468ZM149 334V671L75 642L44 706L235 775V334H149ZM151 0L549 765L622 731L223 -34L151 0Z"  />
<glyph unicode="&#xBE;" horiz-adv-x="931" d="M82 431Q87 425 97 419T122 407T154 397T191 393Q239 393 261 414T284 461Q284 541 144 543L145 590Q205 592 234 609T263 653Q263 676 246 688T198 701Q175 701 153 694T118 679L93 739Q105 749 138 759T212 770Q243 770 268 761T311 738T337 706T347 669Q347 641 333 616T278 572Q326 554 347 520T368 448Q368 425 356 403T322 364T266 335T192 324Q162 324 138 329T95 342T64 358T46 371L82 431ZM734 310L584 136H733L734 310ZM730 -8V73H496V128L755 428H811V140H881V73H811V-8H730ZM241 0L639 765L712 731L313 -34L241 0Z"  />
<glyph unicode="&#xBF;" horiz-adv-x="461" d="M248 414Q222 414 205 432T187 477Q187 500 204 519T248 538Q273 538 291 519T309 477Q309 451 291 433T248 414ZM379 -185Q369 -194 354 -204T320 -224T277 -240T226 -247Q191 -247 165 -236T121 -205T95 -162T86 -112Q86 -83 100 -57T137 -9T183 33T228 66Q244 78 260 89T290 114T312 144T321 181Q321 196 315 210T297 234T270 251T236 257Q209 257 186 248T144 226T112 200T91 176L45 222Q53 236 70 254T113 289T171 317T240 329Q270 329 300 319T354 290T393 244T408 182Q408 149 397 124T370 80T332 46T292 18Q270 3 250 -12T213 -43T186 -77T176 -113Q176 -140 195 -158T240 -176Q275 -176 301 -161T344 -133L379 -185Z"  />
<glyph unicode="&#xC0;" horiz-adv-x="717" d="M200 881L233 963L505 897L486 834L200 881ZM375 537Q370 548 365 561T358 580Q356 575 352 562T342 537L217 265H499L375 537ZM620 0L539 178H179L97 0H-9L358 784L726 0H620Z"  />
<glyph unicode="&#xC1;" horiz-adv-x="717" d="M210 835L190 898L462 964L496 881L210 835ZM375 537Q370 548 365 561T358 580Q356 575 352 562T342 537L217 265H499L375 537ZM620 0L539 178H179L97 0H-9L358 784L726 0H620Z"  />
<glyph unicode="&#xC2;" horiz-adv-x="717" d="M514 807L358 871L197 805L156 856L358 962L563 855L514 807ZM375 537Q370 548 365 561T358 580Q356 575 352 562T342 537L217 265H499L375 537ZM620 0L539 178H179L97 0H-9L358 784L726 0H620Z"  />
<glyph unicode="&#xC3;" horiz-adv-x="717" d="M555 902Q546 892 532 880T500 856T462 837T421 829Q405 829 390 836T359 851T327 867T295 874Q283 874 271 869T246 855T223 837T205 822L161 878Q170 887 186 900T221 924T260 944T299 952Q317 952 333 945T365 929T394 913T424 905Q437 905 450 912T476 928T497 947T512 963L555 902ZM375 537Q370 548 365 561T358 580Q356 575 352 562T342 537L217 265H499L375 537ZM620 0L539 178H179L97 0H-9L358 784L726 0H620Z"  />
<glyph unicode="&#xC4;" horiz-adv-x="717" d="M288 901Q288 878 270 862T225 846Q200 846 182 862T164 901Q164 926 182 942T225 959Q251 959 269 943T288 901ZM552 901Q552 878 535 862T489 846Q463 846 446 862T429 901Q429 926 446 942T489 959Q518 959 535 943T552 901ZM375 537Q370 548 365 561T358 580Q356 575 352 562T342 537L217 265H499L375 537ZM620 0L539 178H179L97 0H-9L358 784L726 0H620Z"  />
<glyph unicode="&#xC5;" horiz-adv-x="717" d="M359 864Q384 864 401 882T418 924Q418 948 401 965T359 983Q335 983 318 966T301 924Q301 900 318 882T359 864ZM475 923Q475 899 466 879T442 843T405 818T359 809Q334 809 313 818T276 842T251 878T242 923Q242 947 251 968T276 1004T313 1028T359 1037Q383 1037 404 1028T441 1004T466 967T475 923ZM375 537Q370 548 365 561T358 580Q356 575 352 562T342 537L217 265H499L375 537ZM620 0L539 178H179L97 0H-9L358 784L726 0H620Z"  />
<glyph unicode="&#xC6;" horiz-adv-x="948" d="M466 605L273 288H466V605ZM466 1V207H224L96 0H-17L466 756H879V671H562V447H817V361H562V86H911V1H466Z"  />
<glyph unicode="&#xC7;" horiz-adv-x="755" d="M308 -237L393 -65H491L394 -237H308ZM717 82Q665 34 600 10T456 -15Q368 -15 293 16T164 100T78 225T47 378Q47 459 77 530T160 656T287 741T449 772Q498 772 539 762T614 737T673 704T714 670L661 603Q625 639 572 662T441 685Q378 685 325 662T232 598T171 499T149 373Q149 309 173 254T240 159T338 95T457 71Q535 71 589 94T673 145L717 82Z"  />
<glyph unicode="&#xC8;" horiz-adv-x="576" d="M94 1V756H507V671H190V447H445V361H190V86H539V1H94ZM143 866L186 953L459 896L430 829L143 866Z"  />
<glyph unicode="&#xC9;" horiz-adv-x="576" d="M94 1V756H507V671H190V447H445V361H190V85L539 86V1H94ZM165 835L146 898L418 964L451 881L165 835Z"  />
<glyph unicode="&#xCA;" horiz-adv-x="576" d="M295 882L134 805L92 859L295 968H296L500 864L451 812L295 882ZM94 1V756H507V671H190V447H445V361H190V86H539V1H94Z"  />
<glyph unicode="&#xCB;" horiz-adv-x="576" d="M94 1V756H507V671H190V447H445V361H190V86H539V1H94ZM483 879Q483 856 467 840T426 824Q402 824 386 840T370 879Q370 904 386 920T426 937Q451 937 467 921T483 879ZM223 879Q223 856 206 840T165 824Q142 824 126 840T109 879Q109 903 125 919T165 936Q189 936 206 920T223 879Z"  />
<glyph unicode="&#xCC;" horiz-adv-x="284" d="M94 0V757H190V0H94ZM9 863L42 950L263 890L245 824L9 863Z"  />
<glyph unicode="&#xCD;" horiz-adv-x="284" d="M94 0V757H190V0H94ZM34 824L16 890L237 950L270 863L34 824Z"  />
<glyph unicode="&#xCE;" horiz-adv-x="284" d="M143 875L39 801L-2 855L142 973H143L288 860L240 809L143 875ZM94 0V757H190V0H94Z"  />
<glyph unicode="&#xCF;" horiz-adv-x="284" d="M94 0V757H190V0H94ZM284 859Q284 836 268 820T224 803Q199 803 183 819T167 859Q167 884 183 900T224 917Q252 917 268 901T284 859ZM122 859Q122 836 105 820T63 803Q39 803 22 819T5 859Q5 884 22 900T63 917Q88 917 105 901T122 859Z"  />
<glyph unicode="&#xD0;" horiz-adv-x="754" d="M276 85Q429 85 515 159T601 381Q601 451 578 505T513 596T417 652T297 671H196V416H381V338H196V85H276ZM100 0V338H16V416H100V757H284Q374 757 451 733T584 661T671 542T703 378Q703 289 673 219T588 100T456 26T286 0H100Z"  />
<glyph unicode="&#xD1;" horiz-adv-x="854" d="M188 544L189 0H93L94 777L666 201L665 757H761L760 -27L188 544ZM615 902Q606 892 592 880T560 856T522 837T481 829Q465 829 450 836T419 851T387 867T355 874Q343 874 331 869T306 855T283 837T265 822L221 878Q230 887 246 900T281 924T320 944T359 952Q377 952 393 945T425 929T454 913T484 905Q497 905 510 912T536 928T557 947T572 963L615 902Z"  />
<glyph unicode="&#xD2;" horiz-adv-x="905" d="M756 376Q756 443 732 499T667 597T570 662T454 685Q390 685 335 662T238 599T172 503T148 382Q148 320 171 264T235 165T330 97T447 71Q512 71 568 94T666 159T732 255T756 376ZM858 375Q858 294 826 223T738 99T610 16T454 -15Q368 -15 294 16T165 100T79 225T47 378Q47 460 78 531T165 656T294 741T454 772Q538 772 611 742T740 659T826 534T858 375ZM278 881L311 963L583 897L564 834L278 881Z"  />
<glyph unicode="&#xD3;" horiz-adv-x="905" d="M756 376Q756 443 732 499T667 597T570 662T454 685Q390 685 335 662T238 599T172 503T148 382Q148 320 171 264T235 165T330 97T447 71Q512 71 568 94T666 159T732 255T756 376ZM858 375Q858 294 826 223T738 99T610 16T454 -15Q368 -15 294 16T165 100T79 225T47 378Q47 460 78 531T165 656T294 741T454 772Q538 772 611 742T740 659T826 534T858 375ZM313 835L294 898L566 964L599 881L313 835Z"  />
<glyph unicode="&#xD4;" horiz-adv-x="905" d="M756 376Q756 443 732 499T667 597T570 662T454 685Q390 685 335 662T238 599T172 503T148 382Q148 320 171 264T235 165T330 97T447 71Q512 71 568 94T666 159T732 255T756 376ZM858 375Q858 294 826 223T738 99T610 16T454 -15Q368 -15 294 16T165 100T79 225T47 378Q47 460 78 531T165 656T294 741T454 772Q538 772 611 742T740 659T826 534T858 375ZM608 806L452 871L291 805L250 856L452 962H453L657 854L608 806Z"  />
<glyph unicode="&#xD5;" horiz-adv-x="905" d="M756 376Q756 443 732 499T667 597T570 662T454 685Q390 685 335 662T238 599T172 503T148 382Q148 320 171 264T235 165T330 97T447 71Q512 71 568 94T666 159T732 255T756 376ZM858 375Q858 294 826 223T738 99T610 16T454 -15Q368 -15 294 16T165 100T79 225T47 378Q47 460 78 531T165 656T294 741T454 772Q538 772 611 742T740 659T826 534T858 375ZM652 902Q643 892 629 880T597 856T559 837T518 829Q502 829 487 836T456 851T424 867T392 874Q380 874 368 869T343 855T320 837T302 822L258 878Q267 887 283 900T318 924T357 944T396 952Q414 952 430 945T462 929T491 913T521 905Q534 905 547 912T573 928T594 947T609 963L652 902Z"  />
<glyph unicode="&#xD6;" horiz-adv-x="905" d="M756 376Q756 443 732 499T667 597T570 662T454 685Q390 685 335 662T238 599T172 503T148 382Q148 320 171 264T235 165T330 97T447 71Q512 71 568 94T666 159T732 255T756 376ZM858 375Q858 294 826 223T738 99T610 16T454 -15Q368 -15 294 16T165 100T79 225T47 378Q47 460 78 531T165 656T294 741T454 772Q538 772 611 742T740 659T826 534T858 375ZM722 874Q722 851 706 835T663 818Q639 818 624 834T608 874Q608 898 623 914T663 931Q690 931 706 915T722 874ZM295 874Q295 851 278 835T236 818Q213 818 197 834T180 874Q180 898 196 914T236 931Q261 931 278 915T295 874Z"  />
<glyph unicode="&#xD7;" horiz-adv-x="656" d="M523 116L329 306L135 117L70 166L271 358Q222 405 171 454T73 549L134 601L331 411L523 601L584 549L389 359L586 167L523 116Z"  />
<glyph unicode="&#xD8;" horiz-adv-x="904" d="M382 79Q396 75 411 73T447 71Q510 71 566 93T664 156T731 252T756 376Q756 465 716 534T611 640L382 79ZM532 675Q513 681 493 683T453 685Q389 684 334 661T237 598T172 503T148 382Q148 339 159 299T191 224T240 161T304 113L532 675ZM207 -121L267 28Q218 52 178 88T108 170T63 268T47 378Q47 460 78 532T164 657T293 742T453 773Q512 773 566 756L620 885L701 854L647 725Q694 701 733 665T799 585T842 487T858 375Q858 294 826 223T739 99T611 16T454 -15Q399 -15 348 -1L288 -146L207 -121Z"  />
<glyph unicode="&#xD9;" horiz-adv-x="761" d="M575 757H671V87Q632 44 560 14T378 -16Q240 -16 164 56T87 275V757H183V324Q183 253 195 205T233 127T300 84T401 71Q449 71 496 83T575 122V757ZM208 881L241 963L513 897L494 834L208 881Z"  />
<glyph unicode="&#xDA;" horiz-adv-x="761" d="M575 757H671V87Q632 44 560 14T378 -16Q240 -16 164 56T87 275V757H183V324Q183 253 195 205T233 127T300 84T401 71Q449 71 496 83T575 122V757ZM256 835L237 898L509 964L542 881L256 835Z"  />
<glyph unicode="&#xDB;" horiz-adv-x="761" d="M575 757H671V87Q632 44 560 14T378 -16Q240 -16 164 56T87 275V757H183V324Q183 253 195 205T233 127T300 84T401 71Q449 71 496 83T575 122V757ZM537 806L381 871L220 805L179 856L382 962L586 854L537 806Z"  />
<glyph unicode="&#xDC;" horiz-adv-x="761" d="M575 757H671V87Q632 44 560 14T378 -16Q240 -16 164 56T87 275V757H183V324Q183 253 195 205T233 127T300 84T401 71Q449 71 496 83T575 122V757ZM682 879Q682 856 666 840T622 824Q597 824 582 840T566 879Q566 904 581 920T622 937Q650 937 666 921T682 879ZM201 879Q201 856 184 840T142 824Q118 824 101 840T84 879Q84 904 101 920T142 937Q167 937 184 921T201 879Z"  />
<glyph unicode="&#xDD;" horiz-adv-x="601" d="M286 746L235 788L383 960L458 899L286 746ZM252 0V325L-10 757H98L296 417Q298 412 299 408T302 393Q303 403 305 407T309 417L509 757H615L348 325V0H252Z"  />
<glyph unicode="&#xDE;" horiz-adv-x="577" d="M250 229Q342 229 392 272T443 389Q443 424 431 450T396 493T343 519T276 528H190V229H250ZM94 0V757H190V614H251Q309 614 361 603T454 566T519 497T543 390Q543 337 526 292T472 214T382 163T252 144H190V0H94Z"  />
<glyph unicode="&#xDF;" horiz-adv-x="580" d="M274 -160Q305 -155 337 -140T395 -100T437 -44T453 29Q453 56 445 79T422 120T383 148T330 158Q296 158 245 144L401 418H195V0H106V418H24V491H106V610Q106 659 116 700T152 768Q176 794 212 805T283 816Q330 816 359 805T394 788L358 716Q352 721 332 729T286 738Q240 738 218 706T195 619V491H538L370 215Q377 217 385 217T401 218Q432 218 458 203T504 163T533 104T544 34Q544 -7 530 -49T483 -130T399 -198T274 -246V-160Z"  />
<glyph unicode="&#xE0;" horiz-adv-x="521" d="M460 52Q428 24 374 5T243 -14Q188 -14 148 0T81 40T42 97T29 164Q29 206 48 236T97 285T163 314T232 323Q267 323 306 312T375 275V336Q375 377 345 403T253 430Q229 430 207 427T167 419T136 409T116 401L87 467Q116 480 158 492T258 505Q318 505 357 492T419 453T451 393T460 315V52ZM375 198Q355 215 322 231T244 248Q181 248 151 221T120 157Q120 138 128 121T152 91T193 69T249 61Q290 61 321 70T375 95V198ZM293 583L127 729L202 793L340 620L293 583Z"  />
<glyph unicode="&#xE1;" horiz-adv-x="521" d="M460 52Q428 24 374 5T243 -14Q188 -14 148 0T81 40T42 97T29 164Q29 206 48 236T97 285T163 314T232 323Q267 323 306 312T375 275V336Q375 377 345 403T253 430Q229 430 207 427T167 419T136 409T116 401L87 467Q116 480 158 492T258 505Q318 505 357 492T419 453T451 393T460 315V52ZM375 198Q355 215 322 231T244 248Q181 248 151 221T120 157Q120 138 128 121T152 91T193 69T249 61Q290 61 321 70T375 95V198ZM231 583L184 620L322 793L401 736L231 583Z"  />
<glyph unicode="&#xE2;" horiz-adv-x="521" d="M262 662L140 572L91 623L262 758H263L433 623L386 572L262 662ZM375 198Q355 215 322 231T244 248Q181 248 151 221T120 157Q120 138 128 121T152 91T193 69T249 61Q290 61 321 70T375 95V198ZM460 52Q428 24 374 5T243 -14Q188 -14 148 0T81 40T42 97T29 164Q29 206 48 236T97 285T163 314T232 323Q267 323 306 312T375 275V336Q375 377 345 403T253 430Q229 430 207 427T167 419T136 409T116 401L87 467Q116 480 158 492T258 505Q318 505 357 492T419 453T451 393T460 315V52Z"  />
<glyph unicode="&#xE3;" horiz-adv-x="521" d="M460 52Q428 24 374 5T243 -14Q188 -14 148 0T81 40T42 97T29 164Q29 206 48 236T97 285T163 314T232 323Q267 323 306 312T375 275V336Q375 377 345 403T253 430Q229 430 207 427T167 419T136 409T116 401L87 467Q116 480 158 492T258 505Q318 505 357 492T419 453T451 393T460 315V52ZM375 198Q355 215 322 231T244 248Q181 248 151 221T120 157Q120 138 128 121T152 91T193 69T249 61Q290 61 321 70T375 95V198ZM439 659Q434 652 424 640T398 615T363 594T322 585Q307 585 292 591T263 606T234 621T204 628Q192 628 180 623T157 610T137 594T121 580L80 628Q89 637 103 649T135 674T172 694T208 702Q225 702 240 695T269 680T297 665T325 658Q338 658 351 663T375 677T394 693T407 707L439 659Z"  />
<glyph unicode="&#xE4;" horiz-adv-x="521" d="M460 52Q428 24 374 5T243 -14Q188 -14 148 0T81 40T42 97T29 164Q29 206 48 236T97 285T163 314T232 323Q267 323 306 312T375 275V336Q375 377 345 403T253 430Q229 430 207 427T167 419T136 409T116 401L87 467Q116 480 158 492T258 505Q318 505 357 492T419 453T451 393T460 315V52ZM375 198Q355 215 322 231T244 248Q181 248 151 221T120 157Q120 138 128 121T152 91T193 69T249 61Q290 61 321 70T375 95V198ZM427 643Q427 621 412 606T369 590Q346 590 331 605T315 643Q315 666 330 682T369 698Q396 698 411 682T427 643ZM195 643Q195 621 179 606T138 590Q115 590 99 605T82 643Q82 666 98 682T138 698Q162 698 178 682T195 643Z"  />
<glyph unicode="&#xE5;" horiz-adv-x="521" d="M460 52Q428 24 374 5T243 -14Q188 -14 148 0T81 40T42 97T29 164Q29 206 48 236T97 285T163 314T232 323Q267 323 306 312T375 275V336Q375 377 345 403T253 430Q229 430 207 427T167 419T136 409T116 401L87 467Q116 480 158 492T258 505Q318 505 357 492T419 453T451 393T460 315V52ZM375 198Q355 215 322 231T244 248Q181 248 151 221T120 157Q120 138 128 121T152 91T193 69T249 61Q290 61 321 70T375 95V198ZM271 610Q296 610 313 628T330 670Q330 694 313 711T271 729Q247 729 230 712T213 670Q213 646 230 628T271 610ZM387 669Q387 645 378 625T354 589T317 564T271 555Q246 555 225 564T188 588T163 624T154 669Q154 693 163 714T188 750T225 774T271 783Q295 783 316 774T353 750T378 713T387 669Z"  />
<glyph unicode="&#xE6;" horiz-adv-x="889" d="M762 301Q757 329 747 353T719 395T678 423T622 433Q566 433 522 402T463 301H762ZM400 116Q388 139 383 157T375 198Q355 215 322 231T244 248Q181 248 151 221T120 157Q120 138 128 121T152 91T193 69T249 61Q287 61 328 72T400 116ZM836 61Q825 48 806 35T760 11T700 -7T629 -14Q576 -14 532 2T454 47Q421 21 368 4T243 -14Q188 -14 148 0T81 40T42 97T29 164Q29 206 48 236T97 285T163 314T232 323Q267 323 306 312T375 275V335Q375 376 345 402T253 429Q229 429 207 426T167 418T136 408T116 400L87 467Q116 480 158 492T258 505Q333 505 375 484T437 417Q463 460 514 482T624 505Q682 505 724 484T795 428T837 348T851 254V228H460V221Q460 184 474 154T513 103T573 71T648 59Q679 59 704 65T749 80T783 100T805 120L836 61Z"  />
<glyph unicode="&#xE7;" horiz-adv-x="516" d="M156 -231L241 -59H339L242 -231H156ZM488 65Q464 34 416 10T295 -14Q241 -14 194 6T113 60T60 142T40 245Q40 301 59 348T114 431T198 485T303 505Q336 505 364 498T415 480T451 460T472 443L434 379Q429 384 418 392T390 409T352 424T304 431Q272 431 241 419T186 384T147 325T132 244Q132 202 146 168T183 110T238 73T306 60Q366 60 402 79T455 118L488 65Z"  />
<glyph unicode="&#xE8;" horiz-adv-x="559" d="M299 583L133 729L208 793L346 620L299 583ZM432 301Q427 329 417 353T389 395T348 423T292 433Q236 433 192 402T133 301H432ZM506 61Q495 47 476 34T430 10T370 -7T299 -14Q243 -14 196 4T114 56T60 137T41 243Q41 300 59 348T111 431T191 485T294 505Q352 505 394 484T465 428T507 348T521 254V228H130Q130 219 131 211T133 198Q140 161 157 135T199 92T254 67T318 59Q349 59 374 65T419 80T453 100T475 120L506 61Z"  />
<glyph unicode="&#xE9;" horiz-adv-x="559" d="M239 579L192 616L330 789L409 732L239 579ZM432 301Q427 329 417 353T389 395T348 423T292 433Q236 433 192 402T133 301H432ZM506 61Q495 47 476 34T430 10T370 -7T299 -14Q243 -14 196 4T114 56T60 137T41 243Q41 300 59 348T111 431T191 485T294 505Q352 505 394 484T465 428T507 348T521 254V228H130Q130 219 131 211T133 198Q140 161 157 135T199 92T254 67T318 59Q349 59 374 65T419 80T453 100T475 120L506 61Z"  />
<glyph unicode="&#xEA;" horiz-adv-x="559" d="M277 662L155 572L106 623L277 758H278L448 623L401 572L277 662ZM432 301Q427 329 417 353T389 395T348 423T292 433Q236 433 192 402T133 301H432ZM506 61Q495 47 476 34T430 10T370 -7T299 -14Q243 -14 196 4T114 56T60 137T41 243Q41 300 59 348T111 431T191 485T294 505Q352 505 394 484T465 428T507 348T521 254V228H130Q130 219 131 211T133 198Q140 161 157 135T199 92T254 67T318 59Q349 59 374 65T419 80T453 100T475 120L506 61Z"  />
<glyph unicode="&#xEB;" horiz-adv-x="559" d="M450 643Q450 621 435 606T392 590Q369 590 354 605T338 643Q338 666 353 682T392 698Q419 698 434 682T450 643ZM218 643Q218 621 202 606T161 590Q138 590 122 605T105 643Q105 666 121 682T161 698Q185 698 201 682T218 643ZM432 301Q427 329 417 353T389 395T348 423T292 433Q236 433 192 402T133 301H432ZM506 61Q495 47 476 34T430 10T370 -7T299 -14Q243 -14 196 4T114 56T60 137T41 243Q41 300 59 348T111 431T191 485T294 505Q352 505 394 484T465 428T507 348T521 254V228H130Q130 219 131 211T133 198Q140 161 157 135T199 92T254 67T318 59Q349 59 374 65T419 80T453 100T475 120L506 61Z"  />
<glyph unicode="&#xEC;" horiz-adv-x="239" d="M135 583L-31 729L44 793L182 620L135 583ZM75 0V492H164V0H75Z"  />
<glyph unicode="&#xED;" horiz-adv-x="239" d="M103 583L56 620L194 793L273 736L103 583ZM75 0V492H164V0H75Z"  />
<glyph unicode="&#xEE;" horiz-adv-x="239" d="M120 668L-2 578L-51 629L120 764H121L291 629L244 578L120 668ZM75 0V492H164V0H75Z"  />
<glyph unicode="&#xEF;" horiz-adv-x="239" d="M272 639Q272 617 257 602T214 586Q191 586 176 601T160 639Q160 662 175 678T214 694Q241 694 256 678T272 639ZM80 639Q80 617 64 602T23 586Q0 586 -16 601T-33 639Q-33 662 -17 678T23 694Q47 694 63 678T80 639ZM75 0V492H164V0H75Z"  />
<glyph unicode="&#xF0;" horiz-adv-x="609" d="M302 59Q336 59 367 71T420 107T456 163T470 238Q470 274 458 306T423 364T369 405T301 420Q259 420 228 405T175 365T143 306T132 236Q132 205 143 174T176 117T229 75T302 59ZM394 657Q420 619 449 572T504 471T545 360T562 242Q562 190 543 144T489 63T407 8T303 -13Q243 -13 195 8T112 64T59 144T40 238Q40 287 59 333T112 414T193 471T298 493Q311 493 327 491T361 484T394 470T424 447Q416 466 404 489T378 536T350 580T324 615L230 558L193 611L288 667Q255 712 215 754T140 820H266Q270 815 279 805T301 780T327 747T355 707L474 777L508 723L394 657Z"  />
<glyph unicode="&#xF1;" horiz-adv-x="562" d="M454 668Q449 661 439 649T413 624T378 603T337 594Q322 594 307 600T278 615T249 630T219 637Q207 637 195 632T172 619T152 603T136 589L95 637Q104 646 118 658T150 683T187 703T223 711Q240 711 255 704T284 689T312 674T340 667Q353 667 366 672T390 686T409 702T422 716L454 668ZM406 0V280Q406 352 382 388T291 425Q268 425 248 419T210 403T179 383T159 363V0H71V492H159V440Q169 449 184 460T219 481T265 498T321 505Q405 505 449 462T494 324V0H406Z"  />
<glyph unicode="&#xF2;" horiz-adv-x="607" d="M318 583L152 729L227 793L365 620L318 583ZM302 59Q340 59 372 72T426 110T461 169T474 245Q474 285 461 319T424 378T369 416T304 430Q266 430 235 416T180 377T145 318T132 242Q132 202 146 169T183 111T238 73T302 59ZM567 245Q567 191 547 144T491 62T408 7T304 -14Q248 -14 200 6T117 61T61 143T40 245Q40 300 60 347T116 430T200 485T305 505Q360 505 408 485T491 429T547 346T567 245Z"  />
<glyph unicode="&#xF3;" horiz-adv-x="607" d="M269 583L222 620L360 793L439 736L269 583ZM302 59Q340 59 372 72T426 110T461 169T474 245Q474 285 461 319T424 378T369 416T304 430Q266 430 235 416T180 377T145 318T132 242Q132 202 146 169T183 111T238 73T302 59ZM567 245Q567 191 547 144T491 62T408 7T304 -14Q248 -14 200 6T117 61T61 143T40 245Q40 300 60 347T116 430T200 485T305 505Q360 505 408 485T491 429T547 346T567 245Z"  />
<glyph unicode="&#xF4;" horiz-adv-x="607" d="M308 658L186 568L137 619L308 754H309L479 619L432 568L308 658ZM302 59Q340 59 372 72T426 110T461 169T474 245Q474 285 461 319T424 378T369 416T304 430Q266 430 235 416T180 377T145 318T132 242Q132 202 146 169T183 111T238 73T302 59ZM567 245Q567 191 547 144T491 62T408 7T304 -14Q248 -14 200 6T117 61T61 143T40 245Q40 300 60 347T116 430T200 485T305 505Q360 505 408 485T491 429T547 346T567 245Z"  />
<glyph unicode="&#xF5;" horiz-adv-x="607" d="M483 659Q478 652 468 640T442 615T407 594T366 585Q351 585 336 591T307 606T278 621T248 628Q236 628 224 623T201 610T181 594T165 580L124 628Q133 637 147 649T179 674T216 694T252 702Q269 702 284 695T313 680T341 665T369 658Q382 658 395 663T419 677T438 693T451 707L483 659ZM302 59Q340 59 372 72T426 110T461 169T474 245Q474 285 461 319T424 378T369 416T304 430Q266 430 235 416T180 377T145 318T132 242Q132 202 146 169T183 111T238 73T302 59ZM567 245Q567 191 547 144T491 62T408 7T304 -14Q248 -14 200 6T117 61T61 143T40 245Q40 300 60 347T116 430T200 485T305 505Q360 505 408 485T491 429T547 346T567 245Z"  />
<glyph unicode="&#xF6;" horiz-adv-x="607" d="M476 643Q476 621 461 606T418 590Q395 590 380 605T364 643Q364 666 379 682T418 698Q445 698 460 682T476 643ZM244 643Q244 621 228 606T187 590Q164 590 148 605T131 643Q131 666 147 682T187 698Q211 698 227 682T244 643ZM302 59Q340 59 372 72T426 110T461 169T474 245Q474 285 461 319T424 378T369 416T304 430Q266 430 235 416T180 377T145 318T132 242Q132 202 146 169T183 111T238 73T302 59ZM567 245Q567 191 547 144T491 62T408 7T304 -14Q248 -14 200 6T117 61T61 143T40 245Q40 300 60 347T116 430T200 485T305 505Q360 505 408 485T491 429T547 346T567 245Z"  />
<glyph unicode="&#xF7;" horiz-adv-x="699" d="M79 325V401H621V325H79ZM407 553Q407 533 392 517T350 501Q328 501 312 517T296 553Q296 576 312 592T350 608Q377 608 392 592T407 553ZM407 163Q407 141 392 126T350 110Q328 110 312 125T296 163Q296 185 312 201T350 217Q376 217 391 202T407 163Z"  />
<glyph unicode="&#xF8;" horiz-adv-x="606" d="M260 63Q279 57 302 57Q340 57 372 70T426 108T461 167T474 243Q474 288 458 324T414 385L260 63ZM349 421Q329 428 304 428Q266 428 235 414T180 375T145 316T132 240Q132 195 149 158T196 97L349 421ZM93 -121L161 24Q106 58 73 115T40 243Q40 298 60 345T116 428T200 483T305 503Q346 503 382 491L449 632L518 602L450 460Q504 425 535 368T567 243Q567 189 547 142T491 60T408 5T304 -16Q265 -16 227 -5L160 -146L93 -121Z"  />
<glyph unicode="&#xF9;" horiz-adv-x="561" d="M299 583L133 729L208 793L346 620L299 583ZM403 492H492V55Q414 -14 281 -14Q234 -14 195 -2T128 33T83 92T67 176V492H156V196Q156 159 166 133T193 91T235 68T287 60Q332 60 360 71T403 94V492Z"  />
<glyph unicode="&#xFA;" horiz-adv-x="561" d="M253 583L206 620L344 793L423 736L253 583ZM403 492H492V55Q414 -14 281 -14Q234 -14 195 -2T128 33T83 92T67 176V492H156V196Q156 159 166 133T193 91T235 68T287 60Q332 60 360 71T403 94V492Z"  />
<glyph unicode="&#xFB;" horiz-adv-x="561" d="M283 662L161 572L112 623L283 758H284L454 623L407 572L283 662ZM403 492H492V55Q414 -14 281 -14Q234 -14 195 -2T128 33T83 92T67 176V492H156V196Q156 159 166 133T193 91T235 68T287 60Q332 60 360 71T403 94V492Z"  />
<glyph unicode="&#xFC;" horiz-adv-x="561" d="M451 639Q451 617 436 602T393 586Q370 586 355 601T339 639Q339 662 354 678T393 694Q420 694 435 678T451 639ZM219 639Q219 617 203 602T162 586Q139 586 123 601T106 639Q106 662 122 678T162 694Q186 694 202 678T219 639ZM403 492H492V55Q414 -14 281 -14Q234 -14 195 -2T128 33T83 92T67 176V492H156V196Q156 159 166 133T193 91T235 68T287 60Q332 60 360 71T403 94V492Z"  />
<glyph unicode="&#xFD;" horiz-adv-x="517" d="M243 583L196 620L334 793L413 736L243 583ZM40 -258L205 50L1 492H99L252 145L419 492H518L136 -258H40Z"  />
<glyph unicode="&#xFE;" horiz-adv-x="591" d="M159 132Q181 102 221 82T305 62Q336 62 363 74T412 110T445 168T457 244Q457 284 445 317T409 376T352 415T275 429Q243 429 210 419T159 396V132ZM71 -255V820H159V478Q187 490 220 497T283 505Q335 505 383 489T468 441T527 359T550 245Q550 194 534 148T488 65T412 8T310 -14Q289 -14 268 -10T227 3T190 21T159 44V-255H71Z"  />
<glyph unicode="&#xFF;" horiz-adv-x="517" d="M427 639Q427 617 412 602T369 586Q346 586 331 601T315 639Q315 662 330 678T369 694Q396 694 411 678T427 639ZM195 639Q195 617 179 602T138 586Q115 586 99 601T82 639Q82 662 98 678T138 694Q162 694 178 678T195 639ZM40 -258L205 50L1 492H99L252 145L419 492H518L136 -258H40Z"  />
<glyph unicode="&#x152;" horiz-adv-x="1239" d="M756 376Q756 443 732 499T667 597T570 662T454 685Q390 685 335 662T238 599T172 503T148 382Q148 320 171 264T235 165T330 97T447 71Q512 71 568 94T666 159T732 255T756 376ZM757 1V140Q700 63 622 24T454 -15Q368 -15 294 16T165 100T79 225T47 378Q47 460 78 531T165 656T294 741T454 772Q545 772 623 734T757 619V756H1170V671H853V447H1108V361H853V86H1202V1H757Z"  />
<glyph unicode="&#x153;" horiz-adv-x="993" d="M866 301Q861 329 851 353T823 395T782 423T726 433Q670 433 626 402T567 301H866ZM302 59Q340 59 372 72T426 110T461 169T474 245Q474 285 461 319T424 378T369 416T304 430Q266 430 235 416T180 377T145 318T132 242Q132 202 146 169T183 111T238 73T302 59ZM940 61Q929 47 910 34T864 10T804 -7T733 -14Q662 -14 607 14T517 93Q482 44 427 15T304 -14Q248 -14 200 6T117 61T61 143T40 245Q40 300 60 347T116 430T200 485T305 505Q372 505 427 476T518 397Q550 448 604 476T728 505Q786 505 828 484T899 428T941 348T955 254V228H564Q564 219 565 211T567 198Q574 161 591 135T633 92T688 67T752 59Q783 59 808 65T853 80T887 100T909 120L940 61Z"  />
<glyph unicode="&#x160;" horiz-adv-x="567" d="M82 157Q94 143 112 129T155 101T210 80T277 72Q341 72 380 105T420 195Q420 244 395 275T331 330T248 373T165 418T101 481T75 576Q75 624 93 661T143 723T214 760T299 773Q338 773 371 764T429 742T472 716T498 694L448 624Q422 650 384 668T300 687Q276 687 253 681T213 662T186 630T175 583Q175 542 201 516T265 470T349 429T432 380T497 307T523 196Q523 156 506 118T457 51T377 3T269 -15Q229 -15 192 -5T123 20T67 53T30 87L82 157ZM285 809L87 915L130 958L288 888L437 955L486 916L285 809Z"  />
<glyph unicode="&#x161;" horiz-adv-x="418" d="M225 577H224L53 711L101 763L224 672L348 763L395 711L225 577ZM62 117Q82 96 117 76T198 55Q234 55 261 74T288 136Q288 159 271 175T229 207T175 236T120 269T78 312T61 369Q61 397 72 421T104 465T154 495T219 506Q275 506 314 487T372 449L337 387Q333 391 323 399T299 416T267 431T230 437Q191 437 172 418T153 375Q153 351 169 335T211 305T266 278T320 246T362 202T379 138Q379 103 366 75T330 27T274 -3T202 -14Q170 -14 143 -8T94 8T54 30T23 54L62 117Z"  />
<glyph unicode="&#x178;" horiz-adv-x="601" d="M252 0V325L-10 757H98L296 417Q298 412 299 408T302 392Q303 403 305 407T309 417L509 757H615L348 325V0H252ZM574 876Q574 853 559 837T517 821Q493 821 478 837T462 876Q462 900 477 916T517 933Q543 933 558 917T574 876ZM143 876Q143 853 127 837T86 821Q63 821 47 837T30 876Q30 900 46 916T86 933Q110 933 126 917T143 876Z"  />
<glyph unicode="&#x17D;" horiz-adv-x="631" d="M0 1L430 671H81V756H594L165 86H599V1H0ZM332 809L134 915L177 958L335 888L484 955L533 916L332 809Z"  />
<glyph unicode="&#x17E;" horiz-adv-x="480" d="M253 581H252L81 715L129 767L252 676L376 767L423 715L253 581ZM10 1L305 418H59V491H453L161 74H445V1H10Z"  />
<glyph unicode="&#x192;" horiz-adv-x="335" d="M-92 -181Q-84 -183 -73 -185T-51 -188Q-30 -188 -15 -176T10 -144T28 -96T42 -36L128 420H39L52 493H140L153 559Q167 631 182 685T219 776T275 830T360 849Q365 849 374 848T392 844T409 840T419 838L404 765Q401 765 396 766T383 767T370 768T361 769Q326 769 306 747T272 688T249 600T228 493H326L313 420H215L125 -66Q117 -105 103 -141T67 -204T17 -248T-48 -265Q-68 -265 -83 -260T-103 -251L-92 -181Z"  />
<glyph unicode="&#x2C6;" horiz-adv-x="445" d="M226 668L104 578L55 629L226 764H227L397 629L350 578L226 668Z"  />
<glyph unicode="&#x2DC;" horiz-adv-x="371" d="M381 659Q376 652 366 640T340 615T305 594T264 585Q249 585 234 591T205 606T176 621T146 628Q134 628 122 623T99 610T79 594T63 580L22 628Q31 637 45 649T77 674T114 694T150 702Q167 702 182 695T211 680T239 665T267 658Q280 658 293 663T317 677T336 693T349 707L381 659Z"  />
<glyph unicode="&#x2013;" horiz-adv-x="643" d="M68 209L79 283H574L563 209H68Z"  />
<glyph unicode="&#x2014;" horiz-adv-x="903" d="M68 209L80 283H834L823 209H68Z"  />
<glyph unicode="&#x2018;" horiz-adv-x="249" d="M42 545L146 757H212L138 545H42Z"  />
<glyph unicode="&#x2019;" horiz-adv-x="245" d="M46 545L120 757H216L112 545H46Z"  />
<glyph unicode="&#x201A;" horiz-adv-x="244" d="M18 -93L92 119H188L84 -93H18Z"  />
<glyph unicode="&#x201C;" horiz-adv-x="414" d="M219 545L310 757H376L307 545H219ZM42 545L146 757H212L129 545H42Z"  />
<glyph unicode="&#x201D;" horiz-adv-x="410" d="M47 545L117 757H204L113 545H47ZM211 545L294 757H381L277 545H211Z"  />
<glyph unicode="&#x201E;" horiz-adv-x="415" d="M21 -92L91 120H178L87 -92H21ZM185 -92L268 120H355L251 -92H185Z"  />
<glyph unicode="&#x2020;" horiz-adv-x="483" d="M196 56V543H49V618H196V815H283V618H434V543H283V56H196Z"  />
<glyph unicode="&#x2021;" horiz-adv-x="513" d="M211 57V246H64V320H211V567H64V641H211V820H298V641H449V567H298V320H449V246H298V57H211Z"  />
<glyph unicode="&#x2022;" horiz-adv-x="459" d="M229 153Q200 153 174 164T129 194T99 240T88 295Q88 324 99 349T129 394T174 425T229 436Q258 436 284 425T329 395T360 350T371 295Q371 266 360 240T330 195T284 164T229 153Z"  />
<glyph unicode="&#x2026;" horiz-adv-x="736" d="M678 49Q678 26 660 7T616 -12Q590 -12 572 7T554 49Q554 75 572 93T616 112Q642 112 660 94T678 49ZM430 49Q430 26 412 7T368 -12Q342 -12 324 7T306 49Q306 75 324 93T368 112Q394 112 412 94T430 49ZM182 49Q182 26 164 7T120 -12Q94 -12 76 7T58 49Q58 75 76 93T120 112Q146 112 164 94T182 49Z"  />
<glyph unicode="&#x2030;" horiz-adv-x="1195" d="M607 54Q643 54 667 79T691 140Q691 176 667 201T607 227Q571 227 547 202T522 140Q522 105 546 80T607 54ZM758 140Q758 108 746 81T714 33T665 1T606 -11Q574 -11 547 1T499 33T466 80T454 140Q454 172 466 200T498 248T546 281T606 293Q637 293 665 281T713 249T746 200T758 140ZM200 523Q237 523 261 548T285 610Q285 645 261 670T200 696Q165 696 141 671T116 610Q116 573 140 548T200 523ZM352 610Q352 578 340 551T308 503T259 470T199 458Q167 458 140 470T92 502T60 550T48 610Q48 641 60 669T92 717T139 750T199 762Q231 762 259 750T307 718T340 669T352 610ZM208 0L524 757L583 732L267 -24L208 0ZM997 54Q1034 54 1058 79T1082 140Q1082 176 1058 201T997 227Q962 227 938 202T913 140Q913 105 937 80T997 54ZM1149 140Q1149 108 1137 81T1105 33T1056 1T996 -11Q964 -11 937 1T889 33T857 80T845 140Q845 172 857 200T889 248T936 281T996 293Q1028 293 1056 281T1104 249T1137 200T1149 140Z"  />
<glyph unicode="&#x2039;" horiz-adv-x="324" d="M186 26L47 236L182 447H273L132 236L277 26H186Z"  />
<glyph unicode="&#x203A;" horiz-adv-x="324" d="M47 26L192 235L51 447H142L277 236L138 26H47Z"  />
<glyph unicode="&#x20AC;" horiz-adv-x="710" d="M653 25Q650 23 637 17T602 4T548 -8T476 -14Q410 -14 356 6T261 63T192 149T150 258H51L68 329H139Q137 340 137 352T137 376Q137 388 137 399T139 422H62L79 493H148Q164 566 197 617T273 700T367 746T466 761Q530 761 576 746T651 713L611 646Q606 649 592 654T557 666T511 676T458 681Q412 681 376 666T314 624T269 564T240 493H534L518 422H226Q224 410 224 398T224 375Q224 363 224 352T226 329H521L506 258H239Q266 164 330 115T477 66Q507 66 532 71T575 82T604 93T618 100L653 25Z"  />
<glyph unicode="&#x2122;" horiz-adv-x="992" d="M839 380L808 579L677 365L546 578L518 380H435L504 768L678 500L850 767L921 380H839ZM199 380V683L72 682V757H407V682L281 683V380H199Z"  />

</font>
</defs>
</svg>
