<?xml  version="1.0" encoding="UTF-8"?>
<!DOCTYPE svg PUBLIC "-//W3C//DTD SVG 1.0//EN" "http://www.w3.org/TR/2001/REC-SVG-20010904/DTD/svg10.dtd" >
<svg xmlns="http://www.w3.org/2000/svg" >
<metadata>
<version>1.0</version>
<id><![CDATA[ITC Luna W01 Bold]]></id>
<vendor>Monotype Imaging Inc.</vendor>
<credits>
<name>Fonts.com WebFonts</name>
<URL>http://webfonts.fonts.com</URL>
<role>Home of the Web fonts</role>
</credits>
<license>
<URL>http://webfonts.fonts.com/Legal</URL>
</license>
<copyright><![CDATA[Part of this font software is copyrighted (c) 2005 - 2006 Linotype GmbH, www.linotype.com. All rights reserved. This font software may not be reproduced, modified, disclosed or transferred without the express written approval of Linotype GmbH.  Copyright 1995-1998 International Typeface Corporation. All rights reserved.]]></copyright>
<trademark><![CDATA[ITC Luna is a trademark of International Typeface Corporation.]]></trademark>
<licensee>
<name></name>
</licensee>
</metadata>
<defs >
<font horiz-adv-x="455" id="6ba683cd-b304-49b7-b0df-d815bf6c5911">
<font-face font-family="" panose-1="2 0 5 3 8 0 0 2 0 3" ascent="727" descent="-273" units-per-em="1000" alphabetic="0">
</font-face>
<missing-glyph horiz-adv-x="0" />

<glyph unicode="&#xA;" />
<glyph unicode="&#xD;" horiz-adv-x="0" />
<glyph unicode=" " horiz-adv-x="167" />
<glyph unicode="!" horiz-adv-x="236" d="M141 206H94L66 667H170L141 206ZM183 53Q183 26 164 7T118 -12Q91 -12 72 7T52 53Q52 80 71 99T118 119Q145 119 164 100T183 53Z"  />
<glyph unicode="&quot;" horiz-adv-x="288" d="M103 430H46V700H103V430ZM242 430H184V700H242V430Z"  />
<glyph unicode="#" horiz-adv-x="501" d="M357 444L333 285H446V251H330L291 -1L250 6L288 251H180L139 -1L99 6L139 251H51V285H143L169 444H56V477H173L205 667L246 661L216 477H320L350 667L392 661L364 477H450V444H357ZM210 444L186 285H291L316 444H210Z"  />
<glyph unicode="$" horiz-adv-x="438" d="M382 183Q382 141 370 111T337 62T290 31T238 16V-49H203V11Q168 11 141 17T93 33T54 58T24 88L54 120Q71 91 102 67T179 43Q187 43 192 44T203 47V287Q201 293 196 298T182 311Q158 333 137 353T101 394T78 439T69 492Q69 534 82 563T115 611T160 639T209 653V699H243V655Q288 655 323 643T377 614L355 580Q341 598 316 612T261 627Q256 627 252 627T243 626V394Q270 372 295 349T339 301T370 246T382 183ZM209 621Q186 609 171 584T156 527Q156 494 169 470T209 417V621ZM289 155Q289 188 276 212T238 263V56Q266 71 277 97T289 155Z"  />
<glyph unicode="%" horiz-adv-x="569" d="M296 540Q296 514 287 491T261 451T222 424T172 414Q142 414 118 424T78 451T53 491T44 540Q44 566 53 589T80 629T120 657T172 667Q201 667 224 657T263 630T287 589T296 540ZM97 -13L68 1L467 677L496 663L97 -13ZM525 129Q525 103 516 80T490 39T451 12T401 2Q371 2 347 12T307 39T282 79T273 129Q273 155 282 178T309 218T349 246T401 256Q430 256 453 246T492 219T516 178T525 129ZM263 540Q263 579 240 607T172 636Q128 636 103 608T78 540Q78 501 101 473T172 444Q212 444 237 472T263 540ZM492 129Q492 168 469 196T401 225Q357 225 332 197T307 129Q307 90 330 61T401 32Q421 32 437 40T466 61T485 91T492 129Z"  />
<glyph unicode="&amp;" horiz-adv-x="569" d="M507 300V265Q507 206 497 155T455 66Q426 31 386 10T280 -11Q239 -11 198 -2T124 28T70 86T49 177Q49 248 94 298T229 368Q200 371 173 381T125 409T92 455T79 518Q79 564 96 594T142 644T206 671T277 679Q323 679 353 670T404 647L388 618Q368 635 343 644T289 653Q238 653 209 615T179 517Q179 454 213 419T299 384H338V356H295Q260 356 235 342T193 303T168 248T160 182Q160 151 168 122T194 70T237 34T296 20Q339 20 371 37T425 83Q451 116 459 159T468 255V283L367 239L356 266L550 349L560 323L507 300Z"  />
<glyph unicode="&apos;" horiz-adv-x="149" d="M103 430H46V700H103V430Z"  />
<glyph unicode="(" horiz-adv-x="241" d="M191 -189Q150 -158 119 -109T68 0T37 123T27 248Q27 308 37 372T67 496T119 604T191 685L208 674Q184 641 167 592T139 485T122 367T117 248Q117 191 122 130T138 11T167 -95T208 -178L191 -189Z"  />
<glyph unicode=")" horiz-adv-x="241" d="M215 248Q215 188 205 124T174 0T122 -108T50 -189L33 -178Q57 -145 74 -96T103 11T119 129T125 248Q125 305 120 366T103 485T75 591T33 674L50 685Q91 654 122 605T173 496T204 373T215 248Z"  />
<glyph unicode="*" horiz-adv-x="278" d="M173 554L207 482L197 475L139 528L81 475L71 482L104 554L36 591L40 604L117 594L132 671H146L161 594L238 604L242 591L173 554Z"  />
<glyph unicode="+" horiz-adv-x="593" d="M326 327H589V270H326V0H268V270H4V327H268V596H326V327Z"  />
<glyph unicode="&#x2c;" horiz-adv-x="203" d="M178 131Q170 102 157 65T127 -10T96 -79T69 -130H28Q35 -108 43 -75T57 -6T69 67T76 131H178H178Z"  />
<glyph unicode="-" horiz-adv-x="303" d="M44 201V255H259V201H44Z"  />
<glyph unicode="." horiz-adv-x="219" d="M170 44Q170 20 152 2T109 -17Q85 -17 67 1T49 44Q49 69 67 87T109 106Q134 106 152 88T170 44Z"  />
<glyph unicode="/" horiz-adv-x="348" d="M31 -172L0 -161L318 688L348 677L31 -172Z"  />
<glyph unicode="0" horiz-adv-x="787" d="M740 333Q740 262 717 199T649 90T543 16T402 -11Q317 -11 252 16T143 89T77 199T54 333Q54 405 79 468T150 578T260 652T402 680Q486 680 549 653T654 578T718 468T740 333ZM698 337Q698 402 678 459T621 558T531 625T412 650Q347 650 295 626T206 559T148 459T128 337Q128 272 148 216T205 116T295 49T412 24Q478 24 530 48T620 116T678 215T698 337Z"  />
<glyph unicode="1" horiz-adv-x="315" d="M112 0V599Q102 591 80 578T34 555L22 580Q59 596 96 620T161 674H215V0H112Z"  />
<glyph unicode="2" horiz-adv-x="442" d="M27 0V14Q63 56 105 115T184 242T245 380T270 514Q270 537 265 560T249 602T221 632T177 644Q135 644 111 623T69 574L42 599Q52 611 66 624T99 650T142 670T198 678Q280 678 330 633T381 501Q381 461 369 417T338 328T294 240T243 157T192 85T148 29H387V0H27Z"  />
<glyph unicode="3" horiz-adv-x="452" d="M397 198Q397 142 377 103T325 39T251 3T168 -9Q126 -9 83 2T13 33L30 63Q51 45 84 33T155 20Q186 20 211 31T254 63T281 111T291 170Q291 218 274 252T228 308T159 341T73 352L245 639H54V667H382L203 385Q236 383 270 371T333 336T379 278T397 198Z"  />
<glyph unicode="4" horiz-adv-x="475" d="M358 222V0H257V222H9V251Q44 305 87 365T172 484T253 592T319 674H358V251H448V222H358ZM257 552Q238 529 211 492T155 413T98 328T47 251H257V552Z"  />
<glyph unicode="5" horiz-adv-x="452" d="M397 199Q397 143 377 104T323 39T249 3T166 -9Q126 -9 83 2T13 33L30 63Q51 45 84 33T155 20Q186 20 211 31T254 63T281 111T291 170Q291 218 274 252T228 308T158 341T71 352L113 667H386V639H221L182 384Q223 383 261 372T330 337T378 279T397 199Z"  />
<glyph unicode="6" horiz-adv-x="535" d="M490 186Q490 145 476 110T436 48T374 6T291 -10Q220 -10 175 15T103 76T66 155T56 233Q56 317 87 392T171 528T295 629T445 686L454 668Q405 648 357 612T270 527T204 422T169 301Q189 322 225 341T310 360Q354 360 387 346T444 307T478 251T490 186ZM436 181Q436 210 429 237T406 284T366 317T309 330Q283 330 261 324T221 307T188 283T165 257Q164 248 164 239T163 220Q163 184 171 148T196 83T239 36T303 18Q334 18 358 31T400 67T427 119T436 181Z"  />
<glyph unicode="7" horiz-adv-x="400" d="M157 0H44L269 639H34V667H380L157 0Z"  />
<glyph unicode="8" horiz-adv-x="520" d="M465 169Q465 124 449 91T404 35T336 1T251 -11Q203 -11 167 1T106 36T69 89T56 156Q56 194 68 224T99 277T143 316T193 342Q173 352 153 366T116 400T89 447T78 509Q78 545 91 576T128 629T188 665T268 678Q311 678 344 666T399 633T433 585T444 526Q444 488 432 459T402 410T363 376T322 357Q351 343 377 326T422 286T453 235T465 169ZM398 526Q398 545 392 568T372 610T336 643T281 656Q251 656 231 644T198 612T181 570T176 525Q176 490 187 465T217 421T256 390T296 370Q340 385 369 424T398 526ZM364 159Q364 192 351 219T318 266T273 301T225 326Q202 318 181 305T144 271T118 223T108 159Q108 135 115 110T139 64T180 30T240 16Q271 16 294 28T333 60T356 106T364 159Z"  />
<glyph unicode="9" horiz-adv-x="511" d="M490 434Q490 350 459 275T374 139T251 38T101 -19L92 -1Q141 19 189 55T276 140T342 245T377 366Q357 345 321 326T236 307Q192 307 159 321T102 360T68 416T56 481Q56 522 70 557T110 619T172 661T255 677Q326 677 371 652T443 591T480 512T490 434ZM381 410Q382 419 382 428T383 447Q383 483 375 519T350 584T306 631T242 649Q211 649 187 636T145 600T119 548T110 486Q110 457 117 430T140 383T180 350T237 337Q262 337 284 343T325 360T358 384T381 410Z"  />
<glyph unicode=":" horiz-adv-x="219" d="M170 333Q170 309 152 291T109 272Q85 272 67 290T49 333Q49 358 67 376T109 395Q134 395 152 377T170 333ZM170 66Q170 42 152 24T109 6Q85 6 67 24T49 66Q49 91 67 109T109 127Q134 127 152 109T170 66Z"  />
<glyph unicode=";" horiz-adv-x="207" d="M181 333Q181 309 163 291T120 272Q96 272 78 290T60 333Q60 358 78 376T120 395Q145 395 163 377T181 333ZM178 131Q170 102 157 65T127 -10T96 -79T69 -130H28Q35 -108 43 -75T57 -6T69 67T76 131H178H178Z"  />
<glyph unicode="&lt;" horiz-adv-x="593" d="M47 212V272L546 472V412L117 242L546 74V14L47 212Z"  />
<glyph unicode="=" horiz-adv-x="593" d="M46 309V363H546V309H46ZM46 123V176H546V123H46Z"  />
<glyph unicode="&gt;" horiz-adv-x="593" d="M47 14V74L476 242L47 412V472L546 272V212L47 14Z"  />
<glyph unicode="?" horiz-adv-x="312" d="M298 532Q298 491 285 460T249 408T196 373T133 355V199H98V372Q142 383 169 420T196 526Q196 544 190 566T172 608T141 641T94 655Q85 655 72 652T44 641L37 670Q52 675 73 677T115 679Q150 679 183 671T241 646T282 600T298 532ZM190 58Q190 31 171 12T125 -8Q98 -8 79 11T59 58Q59 85 78 104T125 123Q152 123 171 104T190 58Z"  />
<glyph unicode="@" horiz-adv-x="796" d="M746 391Q746 356 737 314T707 234T653 173T571 148Q544 148 525 154T492 172T470 196T458 225Q444 196 415 174T350 151Q320 151 301 163T270 193T253 234T248 276Q248 322 261 367T299 449T359 507T439 530Q461 530 480 523T507 506L515 525H593L536 272Q528 238 528 218Q528 199 537 189T571 178Q604 178 629 195T671 242T698 308T707 387Q707 435 692 482T642 566T554 627T424 650Q363 650 314 626T230 559T176 456T157 325Q157 251 178 194T235 99T321 40T426 20Q451 20 480 24T538 36T594 59T644 93L661 60Q614 25 547 7T405 -11Q343 -11 282 8T171 67T92 167T61 310Q61 386 85 453T155 570T265 650T408 679Q491 679 554 657T660 595T724 504T746 391ZM498 480Q486 506 451 506Q422 506 401 483T365 426T343 353T335 280Q335 265 337 249T345 220T360 198T385 189Q405 189 423 210T455 267L498 480H498Z"  />
<glyph unicode="A" horiz-adv-x="571" d="M439 0L347 260H151L61 0H11L272 686H301L558 0H439ZM251 536L163 293H337L251 536Z"  />
<glyph unicode="B" horiz-adv-x="519" d="M481 181Q481 129 462 94T409 36T329 3T227 -7Q212 -7 193 -6T153 -3T112 1T77 7V659Q93 662 113 665T154 670T195 673T231 675Q268 675 309 670T385 649T443 601T466 518Q466 478 451 449T409 399T349 369T277 357Q314 354 351 344T416 313T463 260T481 181ZM359 518Q359 580 328 616T237 653Q227 653 213 652T185 646V367H226Q288 367 323 406T359 518ZM370 183Q370 220 358 249T326 299T278 330T221 341H185V26Q202 23 217 22T242 20Q309 20 339 64T370 183Z"  />
<glyph unicode="C" horiz-adv-x="666" d="M640 60Q601 30 541 10T400 -11Q310 -11 244 15T135 88T70 198T49 333Q49 408 74 471T144 581T252 653T392 679Q469 679 527 662T626 616L599 574Q585 590 564 604T519 628T467 644T412 650Q356 650 311 626T235 559T186 459T168 337Q168 272 186 215T237 115T316 46T419 21Q452 21 482 28T538 46T584 72T618 101L640 60H640Z"  />
<glyph unicode="D" horiz-adv-x="730" d="M679 336Q679 261 655 199T582 91T463 21T299 -4Q243 -4 184 1T77 16V651Q129 659 185 665T293 671Q397 671 470 647T589 578T657 473T679 336ZM565 332Q565 396 549 453T499 553T416 621T297 646Q268 646 239 643T188 633V39Q214 31 240 27T291 23Q366 23 418 47T502 112T550 210T565 332Z"  />
<glyph unicode="E" horiz-adv-x="380" d="M77 0V667H332V638H187V367H318V338H187V29H350V0H77Z"  />
<glyph unicode="F" horiz-adv-x="346" d="M187 638V367H318V338H187V0H77V667H332V638H187Z"  />
<glyph unicode="G" horiz-adv-x="714" d="M647 52Q603 27 540 8T392 -11Q308 -11 244 14T137 86T71 195T49 333Q49 408 74 471T144 581T252 653T392 679Q469 679 527 662T626 616L599 574Q585 590 564 604T519 628T467 644T412 650Q356 650 311 626T235 559T186 459T168 337Q168 272 185 215T234 114T311 45T412 19Q453 19 485 26T541 48V335H647V52H647Z"  />
<glyph unicode="H" horiz-adv-x="564" d="M377 0V338H187V0H77V667H187V367H377V667H487V0H377Z"  />
<glyph unicode="I" horiz-adv-x="263" d="M77 0V667H187V0H77Z"  />
<glyph unicode="J" horiz-adv-x="262" d="M186 57Q186 4 171 -42T130 -124T75 -186T13 -226L0 -213Q39 -176 58 -120T77 29V667H186V57H186Z"  />
<glyph unicode="K" horiz-adv-x="526" d="M550 -66Q537 -74 521 -76T488 -79Q437 -79 407 -62T361 -20T341 35T336 88V172Q336 206 332 237T316 293T283 331T226 345H187V0H77V667H187V365H210L399 667H526L299 357Q344 353 372 337T416 297T438 244T444 185V93Q444 63 445 36T453 -10T472 -41T506 -53Q525 -53 540 -40L550 -66H550Z"  />
<glyph unicode="L" horiz-adv-x="361" d="M77 0V667H187V29H350V0H77Z"  />
<glyph unicode="M" horiz-adv-x="806" d="M663 0L559 498L368 0H341L163 494L70 0H24L167 678H201L392 158L594 678H628L778 0H663Z"  />
<glyph unicode="N" horiz-adv-x="547" d="M435 -23L118 537V0H80V599L47 667H168L434 188V667H470V-23H435Z"  />
<glyph unicode="O" horiz-adv-x="790" d="M750 333Q750 262 727 199T659 90T553 16T412 -11Q322 -11 254 15T141 87T72 196T49 333Q49 408 75 471T148 581T262 654T412 680Q496 680 559 653T664 578T728 468T750 333ZM708 337Q708 402 689 458T633 557T547 623T434 648Q372 648 323 624T238 559T185 460T166 337Q166 271 184 215T238 117T322 51T434 27Q496 27 546 51T633 117T688 215T708 337Z"  />
<glyph unicode="P" horiz-adv-x="514" d="M485 488Q485 397 417 346T220 290L215 313Q299 318 333 362T368 491Q368 522 362 551T341 601T301 636T237 649Q226 649 214 648T188 643V0H77V659Q121 667 165 671T242 675Q281 675 324 668T402 640T461 583T485 488Z"  />
<glyph unicode="Q" horiz-adv-x="790" d="M959 -145Q948 -160 930 -178T887 -211T831 -236T766 -247Q721 -247 683 -237T610 -208T546 -168T485 -121Q444 -88 402 -64T312 -40Q282 -40 259 -47T216 -65T183 -91T158 -119L131 -80Q161 -51 205 -29T310 1Q244 14 195 44T114 118T65 217T49 333Q49 408 75 471T148 581T263 654T412 680Q496 680 559 653T664 578T728 468T750 333Q750 269 729 209T667 102T568 25T436 -8Q486 -11 529 -35T617 -88Q666 -120 718 -145T834 -171Q870 -171 896 -159T943 -122L959 -145H959ZM708 337Q708 402 689 458T633 557T547 623T434 648Q373 648 324 624T239 559T185 460T166 337Q166 271 184 215T238 117T322 51T434 27Q496 27 546 51T633 117T688 215T708 337Z"  />
<glyph unicode="R" horiz-adv-x="529" d="M555 -66Q542 -74 525 -76T492 -79Q441 -79 411 -62T365 -20T345 35T340 88V169Q340 205 337 236T321 291T286 328T221 341H187V0H77V659Q93 662 113 665T156 670T200 673T240 675Q271 675 312 672T389 652T450 604T475 515Q475 477 461 449T422 401T365 370T295 356Q448 344 448 187V93Q448 63 449 36T457 -10T476 -41T510 -53Q530 -53 545 -40L555 -66H555ZM364 510Q364 539 357 565T334 610T296 641T239 653Q225 653 212 651T187 646V367H238Q294 367 329 403T364 510Z"  />
<glyph unicode="S" horiz-adv-x="434" d="M386 184Q386 126 365 89T314 31T251 2T192 -7H182Q122 -7 78 15T4 70L36 106Q45 91 58 77T89 52T126 34T170 27H174Q221 29 250 61T279 143V147Q278 172 272 192T253 231T218 270T167 315Q140 337 117 358T77 402T49 448T37 502V511Q37 563 56 597T104 650T165 677T223 686H232Q277 686 312 675T367 647L344 609Q328 628 301 642T244 656H241Q193 654 167 622T141 545V540Q142 522 147 507T164 475T194 440T241 398Q269 375 294 353T340 306T372 255T386 195V184Z"  />
<glyph unicode="T" horiz-adv-x="395" d="M252 636V0H142V636H0V667H395V636H252Z"  />
<glyph unicode="U" horiz-adv-x="559" d="M372 0V47Q351 27 312 10T217 -8Q148 -8 110 32T71 138V667H181V156Q181 131 186 109T203 70T233 43T278 33Q304 33 329 45T372 78V667H482V0H372Z"  />
<glyph unicode="V" horiz-adv-x="556" d="M296 -19H268L11 667H133L317 146L494 667H547L296 -19Z"  />
<glyph unicode="W" horiz-adv-x="826" d="M619 -13H591L418 350L245 -13H217L14 667H132L281 140L398 392L269 667H387L465 485L541 667H589L486 451L628 143L763 667H812L619 -13Z"  />
<glyph unicode="X" horiz-adv-x="512" d="M370 0L222 295L66 0H13L199 325L13 667H141L276 397L418 667H470L298 367L499 0H370Z"  />
<glyph unicode="Y" horiz-adv-x="478" d="M296 327V0H188V312L11 667H132L275 361L419 667H469L296 327Z"  />
<glyph unicode="Z" horiz-adv-x="399" d="M4 0L249 638H50V667H377L132 33H384V0H4Z"  />
<glyph unicode="[" horiz-adv-x="235" d="M53 -197V679H201V655H135V-172H201V-197H53Z"  />
<glyph unicode="\" horiz-adv-x="348" d="M318 -172L1 677L31 688L349 -161L318 -172Z"  />
<glyph unicode="]" horiz-adv-x="235" d="M33 -197V-172H100V655H33V679H181V-197H33Z"  />
<glyph unicode="^" horiz-adv-x="593" d="M431 296L295 641L162 296H99L268 712H325L494 296H431Z"  />
<glyph unicode="_" horiz-adv-x="500" d="M500 -236H0V-178H500V-236Z"  />
<glyph unicode="`" horiz-adv-x="500" d="M288 456L158 534L210 583L305 472L288 456Z"  />
<glyph unicode="a" horiz-adv-x="405" d="M248 0V24Q231 10 209 3T156 -4Q139 -4 118 0T78 16Q60 28 47 47T33 96Q33 129 47 150T82 185Q103 198 127 202T171 206Q191 206 213 202T249 192V253Q249 312 229 349T156 386Q128 386 104 371T66 331L40 352Q47 361 59 371T88 391T128 406T180 412Q206 412 235 407T290 385T331 341T348 266V0H248ZM248 170Q228 180 198 180Q187 180 175 176T152 163T135 138T128 101Q128 79 135 65T152 42T174 30T196 26Q228 26 248 44V170Z"  />
<glyph unicode="b" horiz-adv-x="519" d="M480 202Q480 158 467 120T427 54T361 10T271 -7Q242 -7 215 0T165 18V0H62V778H165V368Q187 385 217 396T288 408Q339 408 375 392T435 348T469 283T480 202ZM371 198Q371 232 364 264T340 320T299 360T240 375Q220 375 199 366T165 342V42Q179 32 198 27T240 21Q272 21 296 35T337 73T362 129T371 198Z"  />
<glyph unicode="c" horiz-adv-x="415" d="M405 37Q381 16 346 4T267 -9Q210 -9 167 6T96 50T53 116T39 200Q39 246 54 284T98 351T170 394T268 410Q312 410 342 401T396 377L378 347Q364 361 337 373T280 385Q245 385 220 370T178 330T155 273T147 205Q147 170 155 137T179 77T222 35T283 19Q313 19 342 32T388 62L405 37H405Z"  />
<glyph unicode="d" horiz-adv-x="519" d="M355 0V34Q333 17 302 6T231 -6Q180 -6 144 10T84 54T50 119T39 200Q39 243 52 281T92 348T158 392T248 409Q277 409 305 403T355 384V778H457V0H355ZM355 360Q341 370 321 375T279 381Q247 381 223 367T182 329T157 273T148 205Q148 171 155 139T179 83T220 43T279 28Q299 28 320 37T355 60V360Z"  />
<glyph unicode="e" horiz-adv-x="430" d="M155 277Q150 257 149 238T148 202Q148 175 153 143T173 84T213 38T280 19Q315 19 343 33T388 63L405 37Q382 19 347 4T261 -11Q216 -11 176 1T105 38T57 102T39 193Q39 239 52 278T92 347T158 393T250 410Q295 410 325 397T374 363T400 319T410 277H155ZM333 299Q332 313 329 329T317 359T294 382T256 391Q233 391 217 381T189 357T170 327T160 299H333H333Z"  />
<glyph unicode="f" horiz-adv-x="249" d="M329 734Q317 747 300 755T259 763Q230 763 212 747T184 704T171 645T167 579V400H253V372H167V0H67V372H28V400H67V555Q67 605 76 647T106 721T163 769T251 787Q281 787 306 781T346 766L329 734Z"  />
<glyph unicode="g" horiz-adv-x="417" d="M490 -148Q490 -199 467 -234T406 -291T318 -323T217 -333Q176 -333 133 -327T53 -303T-7 -258T-31 -185Q-31 -150 -18 -125T16 -83T60 -54T107 -37Q79 -28 63 -6T46 52Q46 87 70 116T142 157Q111 167 86 197T61 275Q61 299 69 322T96 365T145 396T221 408Q244 408 269 403T312 385L399 441L417 408L332 369Q348 355 358 332T368 285Q368 247 356 221T324 178T278 154T223 146Q207 146 195 146T169 140Q153 135 139 121T125 77Q125 48 152 31T252 7Q292 3 327 -3T392 -18Q431 -31 460 -63T490 -148ZM339 281Q339 324 315 354T240 384Q202 384 180 354T157 270Q157 252 162 234T178 201T205 178T242 169Q285 169 312 199T339 281ZM382 -169Q382 -138 364 -117T313 -83Q282 -71 236 -63T138 -50Q85 -64 58 -92T31 -175Q31 -212 47 -237T88 -278T143 -301T202 -308Q235 -308 267 -301T325 -278T366 -235T382 -169Z"  />
<glyph unicode="h" horiz-adv-x="458" d="M298 0V265Q298 285 296 305T288 341T269 367T235 377Q219 377 199 369T165 344V0H62V778H165V368Q185 386 214 398T277 410Q334 410 367 380T400 288V0H298Z"  />
<glyph unicode="i" horiz-adv-x="227" d="M167 583Q167 561 151 545T113 529Q91 529 76 545T60 583Q60 605 75 620T113 636Q135 636 151 621T167 583ZM62 0V400H165V0H62Z"  />
<glyph unicode="j" horiz-adv-x="229" d="M169 583Q169 561 154 545T116 529Q94 529 78 545T62 583Q62 605 78 620T116 636Q138 636 153 621T169 583ZM167 -52Q167 -105 153 -150T116 -232T64 -294T4 -335L-10 -322Q28 -285 46 -229T64 -80V400H167V-52H167Z"  />
<glyph unicode="k" horiz-adv-x="417" d="M456 -64Q447 -69 433 -72T404 -76Q360 -76 333 -64T292 -32T272 15T267 68V87Q267 148 245 183T165 218V0H62V778H165V225L346 400H405L208 232Q238 231 266 225T318 205T355 167T369 104V67Q369 37 370 15T377 -23T392 -45T420 -53Q437 -53 448 -41L456 -64H456Z"  />
<glyph unicode="l" horiz-adv-x="231" d="M250 16Q237 5 216 -1T169 -7Q136 -7 115 3T81 31T64 75T59 130V778H161V138Q161 111 162 90T166 53T178 29T202 20Q214 20 223 25T239 37L250 16H250Z"  />
<glyph unicode="m" horiz-adv-x="687" d="M527 0V265Q527 285 525 305T517 341T498 367T464 377Q448 377 429 368T395 341V0H295V267Q295 286 293 305T284 341T265 367T233 377Q216 377 198 370T165 348V0H62V400H165V371Q182 387 214 398T279 410Q324 410 349 394T387 358Q408 382 440 396T506 410Q563 410 596 380T629 288V0H527Z"  />
<glyph unicode="n" horiz-adv-x="458" d="M298 0V265Q298 285 296 305T288 341T269 367T235 377Q219 377 199 369T165 344V0H62V400H165V368Q185 386 214 398T277 410Q334 410 367 380T400 288V0H298Z"  />
<glyph unicode="o" horiz-adv-x="509" d="M478 199Q478 154 463 116T420 49T353 6T266 -10Q212 -10 170 5T98 48T53 114T37 199Q37 245 54 283T102 349T174 392T266 408Q318 408 357 393T424 349T464 283T478 199ZM447 201Q447 238 436 270T404 327T355 366T292 380Q259 380 233 366T187 328T158 271T148 201Q148 164 158 132T187 75T232 36T292 22Q326 22 355 36T404 74T435 131T447 201Z"  />
<glyph unicode="p" horiz-adv-x="519" d="M480 202Q480 158 467 120T427 54T361 10T271 -7Q242 -7 215 0T165 18V-333H62V400H165V368Q187 385 217 396T288 408Q339 408 375 392T435 348T469 283T480 202ZM371 198Q371 232 364 264T340 320T299 360T240 375Q220 375 199 366T165 342V42Q179 32 198 27T240 21Q272 21 296 35T337 73T362 129T371 198Z"  />
<glyph unicode="q" horiz-adv-x="519" d="M355 -333V33Q333 16 302 5T231 -6Q180 -6 144 10T84 54T50 119T39 200Q39 243 52 281T92 348T158 392T248 409Q277 409 305 403T355 384V400H457V-333H355ZM355 360Q341 370 321 375T279 381Q247 381 223 367T182 329T157 273T148 205Q148 171 155 139T179 83T220 43T279 28Q299 28 320 37T355 60V360Z"  />
<glyph unicode="r" horiz-adv-x="269" d="M272 350Q265 352 258 353T241 355Q220 355 197 346T165 319V0H62V400H165V341Q171 353 181 365T206 388T236 405T272 412V350H272Z"  />
<glyph unicode="s" horiz-adv-x="317" d="M288 113Q288 73 273 49T235 11T188 -6T145 -11Q110 -11 76 3T20 38L43 69Q57 51 81 34T135 17Q164 17 181 34T198 80Q198 109 180 128T127 172Q91 198 67 226T43 290Q43 327 57 350T91 387T135 406T178 411Q207 411 234 402T277 380L257 350Q248 364 230 375T189 386Q168 386 149 372T130 323Q130 303 143 288T186 249Q206 234 224 220T257 189T279 154T288 113Z"  />
<glyph unicode="t" horiz-adv-x="247" d="M253 16Q241 6 224 0T177 -7Q112 -7 88 24T64 113V372H21V400H64V524H163V400H246V372H163V138Q163 112 164 91T169 53T183 29T207 20Q218 20 226 25T241 37L253 16H253Z"  />
<glyph unicode="u" horiz-adv-x="458" d="M293 0V32Q273 14 244 2T181 -10Q124 -10 91 20T58 112V400H160V136Q160 116 162 96T170 59T189 33T223 23Q239 23 259 31T293 57V400H396V0H293Z"  />
<glyph unicode="v" horiz-adv-x="367" d="M203 -11H177L9 400H118L220 120L319 400H360L203 -11Z"  />
<glyph unicode="w" horiz-adv-x="578" d="M421 -11H395L293 208L188 -11H161L9 400H113L215 110L277 239L205 400H305L338 315L375 400H410L355 285L434 101L531 400H571L421 -11Z"  />
<glyph unicode="x" horiz-adv-x="371" d="M250 0L161 158L66 0H14L142 182L13 400H125L207 248L298 400H346L227 225L360 0H250Z"  />
<glyph unicode="y" horiz-adv-x="352" d="M226 29Q200 -52 181 -114T143 -221T104 -296T56 -342L9 -295Q38 -279 63 -257T109 -203T147 -129T179 -30L9 400H117L221 111L305 400H346L226 29Z"  />
<glyph unicode="z" horiz-adv-x="339" d="M130 28H322V0H7L200 372H39V400H326L130 28Z"  />
<glyph unicode="{" horiz-adv-x="243" d="M131 -197Q111 -197 99 -192T79 -176T70 -152T67 -122V161Q67 206 56 220T14 236V256Q44 256 55 270T67 329V605Q67 621 69 634T79 658T98 673T131 679H210V655H173Q159 655 151 649T143 628V323Q143 285 119 268T61 246Q94 240 118 223T143 167V-146Q143 -161 151 -167T173 -173H210V-197H131Z"  />
<glyph unicode="|" horiz-adv-x="222" d="M82 -214V786H141V-214H82Z"  />
<glyph unicode="}" horiz-adv-x="243" d="M229 236Q199 235 188 221T177 161V-122Q177 -154 165 -175T112 -197H33V-173H70Q84 -173 92 -167T100 -146V167Q100 205 124 222T182 246Q149 251 125 268T100 323V628Q100 643 92 649T70 655H33V679H112Q152 679 164 658T177 605V329Q177 284 188 270T229 256V236H229Z"  />
<glyph unicode="~" horiz-adv-x="593" d="M558 313Q555 287 547 264T525 221T489 191T438 180Q405 180 367 191T292 217T219 242T157 254Q122 254 102 229T76 172H35Q39 197 47 221T69 265T104 295T156 307Q189 307 226 296T300 271T373 246T437 234Q473 234 492 257T518 313H558H558Z"  />
<glyph unicode="&#xA0;" horiz-adv-x="167" />
<glyph unicode="&#xA1;" horiz-adv-x="236" d="M183 365Q183 338 164 319T118 299Q91 299 72 318T52 365Q52 392 71 411T118 430Q145 430 164 411T183 365ZM66 -249L94 212H141L170 -249H66Z"  />
<glyph unicode="&#xA2;" horiz-adv-x="472" d="M421 175Q399 157 369 145T302 130V57H268V129Q162 134 109 191T56 338Q56 382 70 419T111 484T177 528T268 548V613H302V548Q338 546 364 537T412 515L395 485Q381 499 356 509T302 522V157Q332 158 360 170T405 200L421 175H421ZM268 522Q241 517 221 500T188 458T169 403T163 342Q163 311 169 281T188 226T221 182T268 158V522Z"  />
<glyph unicode="&#xA3;" horiz-adv-x="437" d="M374 625Q360 639 339 647T298 655Q266 655 247 638T217 593T203 533T200 470V364H321V335H200V288Q200 190 171 127T84 29H384V0H37V18Q59 30 71 51T90 103T97 173T99 262V335H61V364H100V446Q100 497 109 539T141 613T202 662T297 680Q323 680 349 673T390 657L374 625Z"  />
<glyph unicode="&#xA4;" horiz-adv-x="596" d="M491 126L427 190Q398 169 366 157T298 145Q263 145 230 157T169 190L105 126L68 163L132 227Q87 286 87 356Q87 391 98 424T131 485L68 549L105 586L168 522Q198 543 229 554T298 566Q336 566 366 555T428 522L491 585L528 548L464 485Q509 426 509 355Q509 318 498 287T464 227L528 163L491 126ZM453 355Q453 387 441 415T407 464T358 497T298 510Q266 510 238 498T189 465T156 416T144 355Q144 323 156 295T189 246T238 213T298 201Q330 201 358 213T407 246T440 295T453 355Z"  />
<glyph unicode="&#xA5;" horiz-adv-x="478" d="M296 328H420V300H293V226H420V198H293V0H190V198H67V226H190V300H67V328H188L11 667H132L275 361L419 667H469L296 328Z"  />
<glyph unicode="&#xA6;" horiz-adv-x="222" d="M82 411V661H141V411H82ZM82 -89V161H141V-89H82Z"  />
<glyph unicode="&#xA7;" horiz-adv-x="448" d="M410 228Q410 192 400 166T373 121T338 90T303 71Q312 63 321 52T339 26T354 -7T361 -47V-54Q361 -93 346 -122T305 -171T250 -201T188 -213H175Q122 -213 86 -199T26 -168L48 -133Q67 -149 99 -166T174 -183H180Q196 -182 212 -176T242 -159T264 -132T273 -96V-93Q272 -71 265 -54T244 -19T208 16T156 58Q127 81 106 100T70 140T48 184T39 237V242Q39 270 49 293T75 335T110 367T147 386Q118 409 96 441T71 521V527Q71 557 81 584T112 632T162 665T230 680H239Q282 680 311 669T360 642L337 613Q320 631 296 642T243 653H240Q203 651 181 629T158 572V568Q160 532 182 499T262 422Q292 399 318 378T365 334T397 287T410 235V228ZM323 183Q321 231 281 274T166 372Q149 361 137 338T124 281V275Q126 228 169 183T284 86Q299 94 311 118T323 176V183H323Z"  />
<glyph unicode="&#xA8;" horiz-adv-x="500" d="M386 511Q386 489 371 474T334 459Q312 459 297 474T281 511Q281 532 296 548T334 564Q355 564 370 548T386 511ZM221 511Q221 489 206 474T169 459Q148 459 133 474T117 511Q117 532 132 548T169 564Q191 564 206 548T221 511Z"  />
<glyph unicode="&#xA9;" horiz-adv-x="778" d="M755 354Q755 278 726 212T648 95T532 16T389 -13Q313 -13 247 16T130 95T51 211T22 354Q22 430 51 496T130 612T246 691T389 720Q465 720 532 692T648 614T726 497T755 354ZM719 354Q719 422 693 482T622 586T517 657T389 683Q321 683 261 657T156 587T85 482T59 354Q59 286 85 226T156 121T261 50T389 24Q458 24 518 50T622 120T693 225T719 354ZM566 279Q562 247 547 222T510 179T459 152T399 142Q354 142 317 159T255 205T215 273T201 356Q201 398 214 436T252 505T312 552T392 570Q424 570 453 560T506 531T545 485T563 425H516Q508 472 476 499T395 526Q360 526 334 512T291 473T266 419T257 358Q257 325 265 294T292 239T337 201T400 186Q445 186 477 211T519 279H566H566Z"  />
<glyph unicode="&#xAA;" horiz-adv-x="370" d="M231 380V399Q219 390 200 384T159 378Q147 378 130 381T98 392T72 415T61 451Q61 477 72 493T99 520T135 533T170 537Q187 537 204 534T232 525V561Q232 580 230 597T222 628T202 649T165 657Q142 657 122 648T90 618L69 640Q78 653 103 666T173 679Q190 679 212 677T253 663T286 629T299 568V380H231ZM53 293V325H307V293H53ZM232 505Q223 511 211 514T189 517Q167 517 152 503T136 457Q136 428 151 415T187 401Q198 401 211 406T232 420V505Z"  />
<glyph unicode="&#xAB;" horiz-adv-x="333" d="M275 113L169 227L275 340L291 331L246 228L291 122L275 113ZM148 113L42 227L148 340L165 331L120 228L165 122L148 113Z"  />
<glyph unicode="&#xAC;" horiz-adv-x="593" d="M490 123V309H46V363H546V123H490Z"  />
<glyph unicode="&#xAD;" horiz-adv-x="303" d="M44 201V255H259V201H44Z"  />
<glyph unicode="&#xAE;" horiz-adv-x="387" d="M376 539Q376 501 362 468T323 409T265 370T193 355Q155 355 122 369T64 409T25 467T11 539Q11 577 25 610T64 668T122 707T193 722Q231 722 264 708T322 669T361 611T376 539ZM348 538Q348 570 336 598T303 648T254 681T193 694Q161 694 133 682T84 648T51 599T39 538Q39 506 51 478T84 429T133 396T193 383Q225 383 253 395T303 429T336 478T348 538ZM245 447Q238 462 238 475T237 498T225 514T185 520L155 521V447H122V633H194Q207 633 221 631T248 623T268 606T276 578Q276 546 242 533Q259 525 265 515T272 494T273 470T279 447H245ZM243 578Q243 588 238 593T226 602T210 605T194 606H155V547H192Q200 547 209 548T225 552T238 561T243 578Z"  />
<glyph unicode="&#xAF;" horiz-adv-x="500" d="M139 472V534H359V472H139Z"  />
<glyph unicode="&#xB0;" horiz-adv-x="400" d="M350 562Q350 531 338 504T306 457T258 424T200 412Q169 412 142 424T95 456T62 504T50 562Q50 593 62 620T94 668T141 700T200 712Q231 712 258 700T305 668T338 620T350 562ZM297 562Q297 603 269 631T200 660Q159 660 131 632T103 562Q103 521 131 493T200 465Q241 465 269 493T297 562Z"  />
<glyph unicode="&#xB1;" horiz-adv-x="593" d="M326 265V89H266V265H46V319H266V495H326V319H546V265H326ZM46 -9V45H546V-9H46Z"  />
<glyph unicode="&#xB2;" horiz-adv-x="269" d="M26 174V184Q46 200 69 220T113 264T146 312T160 361Q160 387 147 405T103 424Q75 424 60 411T35 383L17 397Q31 415 54 431T117 448Q166 448 199 425T233 358Q233 329 220 304T186 257T144 219T105 191H242V174H26Z"  />
<glyph unicode="&#xB3;" horiz-adv-x="269" d="M253 152Q253 119 240 96T205 57T156 36T102 29Q74 29 46 35T0 54L11 72Q25 61 46 54T93 46Q135 46 159 72T183 136Q183 164 172 185T142 219T96 238T39 245L150 418H25V434H241L126 265Q148 264 170 257T211 235T241 201T253 152Z"  />
<glyph unicode="&#xB4;" horiz-adv-x="500" d="M211 454L195 470L289 581L341 532L211 454Z"  />
<glyph unicode="&#xB5;" horiz-adv-x="576" d="M426 0V75Q395 33 360 11T271 -11Q224 -11 194 6T138 61V-207H79V478H138V250Q138 214 142 177T159 110T200 60T273 40Q310 40 339 56Q367 71 384 92T410 140T422 195T425 253V478H484V0H426Z"  />
<glyph unicode="&#xB6;" horiz-adv-x="459" d="M400 646Q388 651 377 653T355 655V0H315V78Q249 79 201 102T121 166T74 260T59 375Q59 438 75 493T126 589T212 655T336 679Q356 679 375 678T405 675L400 646ZM315 654Q295 651 279 628T251 569T233 484T226 381Q226 328 232 280T249 194T277 132T315 104V654Z"  />
<glyph unicode="&#xB7;" horiz-adv-x="219" d="M170 357Q170 333 152 315T109 296Q85 296 67 314T49 357Q49 382 67 400T109 419Q134 419 152 401T170 357Z"  />
<glyph unicode="&#xB8;" horiz-adv-x="500" d="M335 -92Q335 -125 302 -138T217 -151V-130Q234 -130 250 -123T267 -93Q267 -76 258 -70T238 -63H232L240 7H262L256 -44Q289 -45 312 -54T335 -92Z"  />
<glyph unicode="&#xB9;" horiz-adv-x="191" d="M63 174V403Q56 398 42 390T11 376L3 391Q28 401 52 415T95 448H130V174H63Z"  />
<glyph unicode="&#xBA;" horiz-adv-x="408" d="M365 530Q365 499 355 472T325 424T277 392T215 380Q139 380 96 418T52 530Q52 566 64 594T99 640T151 669T215 679Q252 679 280 667T327 635T355 588T365 530ZM72 293V325H342V293H72ZM338 532Q338 557 330 580T308 619T274 646T228 656Q205 656 187 646T157 620T137 580T130 532Q130 506 137 484T156 444T187 418T228 408Q279 408 308 444T338 532Z"  />
<glyph unicode="&#xBB;" horiz-adv-x="333" d="M186 113L169 122L215 228L169 331L186 340L291 227L186 113ZM59 113L42 122L89 228L42 331L59 340L165 227L59 113Z"  />
<glyph unicode="&#xBC;" horiz-adv-x="645" d="M60 191V404Q54 399 40 392T11 380L3 394Q26 402 49 416T91 446H124V191H60ZM114 -10L85 4L403 688L431 674L114 -10ZM569 4V-130H505V4H349V20Q371 50 398 84T452 150T503 210T545 256H569V20H632V4H569ZM505 189Q493 176 476 156T441 112T405 64T373 20H505V189Z"  />
<glyph unicode="&#xBD;" horiz-adv-x="595" d="M60 191V404Q54 399 40 392T11 380L3 394Q26 402 49 416T91 446H124V191H60ZM114 -10L85 4L403 688L431 674L114 -10ZM362 0V10Q381 25 404 44T446 84T478 129T491 174Q491 198 478 215T436 233Q410 233 396 221T371 195L354 208Q367 225 389 240T450 255Q497 255 528 234T560 171Q560 145 547 121T515 77T475 42T438 16H568V0H362Z"  />
<glyph unicode="&#xBE;" horiz-adv-x="719" d="M241 171Q241 139 229 117T196 82T149 62T97 55Q71 55 44 61T0 79L10 96Q24 85 44 79T89 72Q129 72 152 96T175 156Q175 183 165 202T135 233T91 252T37 258L143 418H23V434H230L120 276Q141 275 162 268T201 248T230 216T241 171ZM297 -10L268 4L586 688L614 674L297 -10ZM642 4V-130H578V4H422V20Q444 50 471 84T525 150T576 210T618 256H642V20H705V4H642ZM578 189Q566 176 549 156T514 112T478 64T446 20H578V189Z"  />
<glyph unicode="&#xBF;" horiz-adv-x="312" d="M253 365Q253 338 234 319T188 299Q161 299 142 318T122 365Q122 392 141 411T188 430Q215 430 234 411T253 365ZM276 -248Q261 -253 240 -255T198 -257Q163 -257 130 -249T71 -224T30 -178T14 -110Q14 -69 27 -38T63 15T116 50T179 68V223H215V50Q171 39 144 3T117 -103Q117 -121 122 -143T140 -185T172 -218T218 -232Q227 -232 240 -230T268 -219L276 -248H276Z"  />
<glyph unicode="&#xC0;" horiz-adv-x="571" d="M439 0L347 260H151L61 0H11L272 686H301L558 0H439ZM251 536L163 293H337L251 536ZM325 728L195 806L247 855L342 744L325 728Z"  />
<glyph unicode="&#xC1;" horiz-adv-x="571" d="M439 0L347 260H151L61 0H11L272 686H301L558 0H439ZM251 536L163 293H337L251 536ZM247 726L231 742L325 853L377 804L247 726Z"  />
<glyph unicode="&#xC2;" horiz-adv-x="571" d="M439 0L347 260H151L61 0H11L272 686H301L558 0H439ZM251 536L163 293H337L251 536ZM383 727L286 769L190 727L175 744L286 842L397 744L383 727Z"  />
<glyph unicode="&#xC3;" horiz-adv-x="571" d="M439 0L347 260H151L61 0H11L272 686H301L558 0H439ZM251 536L163 293H337L251 536ZM404 795Q395 771 376 751T334 731Q314 731 300 737T270 755Q241 777 219 777Q208 777 199 771T183 748L166 761Q193 826 237 826Q255 826 269 821T301 802Q331 778 353 778Q363 778 372 784T388 807L404 795H404Z"  />
<glyph unicode="&#xC4;" horiz-adv-x="571" d="M439 0L347 260H151L61 0H11L272 686H301L558 0H439ZM251 536L163 293H337L251 536ZM422 783Q422 761 407 746T370 731Q348 731 333 746T317 783Q317 804 332 820T370 836Q391 836 406 820T422 783ZM257 783Q257 761 242 746T205 731Q184 731 169 746T153 783Q153 804 168 820T205 836Q227 836 242 820T257 783Z"  />
<glyph unicode="&#xC5;" horiz-adv-x="571" d="M439 0L347 260H151L61 0H11L272 686H301L558 0H439ZM251 536L163 293H337L251 536ZM286 727Q257 727 237 747T216 796Q216 825 236 845T286 866Q315 866 335 846T356 796Q356 767 336 747T286 727ZM286 836Q268 836 257 824T246 796Q246 777 258 767T286 756Q304 756 315 768T326 796Q326 814 314 825T286 836Z"  />
<glyph unicode="&#xC6;" horiz-adv-x="661" d="M400 0L323 321H175L61 0H11L267 667H609V638H357L429 350H596V321H435L508 29H631V0H400ZM263 578L185 350H318L263 578Z"  />
<glyph unicode="&#xC7;" horiz-adv-x="666" d="M640 60Q601 30 541 10T400 -11H380L376 -39Q409 -40 432 -49T455 -87Q455 -120 422 -133T337 -146V-125Q354 -125 370 -118T387 -88Q387 -71 378 -65T358 -58H352L359 -10Q280 -4 222 25T125 100T68 205T49 333Q49 408 74 471T144 581T252 653T392 679Q469 679 527 662T626 616L599 574Q585 590 564 604T519 628T467 644T412 650Q356 650 311 626T235 559T186 459T168 337Q168 272 186 215T237 115T316 46T419 21Q452 21 482 28T538 46T584 72T618 101L640 60H640Z"  />
<glyph unicode="&#xC8;" horiz-adv-x="380" d="M77 0V667H332V638H187V367H318V338H187V29H350V0H77ZM240 728L110 806L162 855L257 744L240 728Z"  />
<glyph unicode="&#xC9;" horiz-adv-x="380" d="M77 0V667H332V638H187V367H318V338H187V29H350V0H77ZM163 726L147 742L241 853L293 804L163 726Z"  />
<glyph unicode="&#xCA;" horiz-adv-x="380" d="M77 0V667H332V638H187V367H318V338H187V29H350V0H77ZM299 727L202 769L106 727L91 744L202 842L313 744L299 727Z"  />
<glyph unicode="&#xCB;" horiz-adv-x="380" d="M77 0V667H332V638H187V367H318V338H187V29H350V0H77ZM337 783Q337 761 322 746T285 731Q263 731 248 746T232 783Q232 804 247 820T285 836Q306 836 321 820T337 783ZM172 783Q172 761 157 746T120 731Q99 731 84 746T68 783Q68 804 83 820T120 836Q142 836 157 820T172 783Z"  />
<glyph unicode="&#xCC;" horiz-adv-x="263" d="M77 0V667H187V0H77ZM175 728L45 806L97 855L192 744L175 728Z"  />
<glyph unicode="&#xCD;" horiz-adv-x="263" d="M77 0V667H187V0H77ZM92 726L76 742L170 853L222 804L92 726Z"  />
<glyph unicode="&#xCE;" horiz-adv-x="263" d="M77 0V667H187V0H77ZM233 727L136 769L40 727L25 744L136 842L247 744L233 727Z"  />
<glyph unicode="&#xCF;" horiz-adv-x="263" d="M77 0V667H187V0H77ZM271 783Q271 761 256 746T219 731Q197 731 182 746T166 783Q166 804 181 820T219 836Q240 836 255 820T271 783ZM106 783Q106 761 91 746T54 731Q33 731 18 746T2 783Q2 804 17 820T54 836Q76 836 91 820T106 783Z"  />
<glyph unicode="&#xD0;" horiz-adv-x="730" d="M679 336Q679 261 655 199T582 91T463 21T299 -4Q243 -4 184 1T77 16V337H32V366H77V651Q129 659 185 665T293 671Q397 671 470 647T589 578T657 473T679 336ZM565 332Q565 396 549 453T499 553T416 621T297 646Q268 646 239 643T188 633V366H312V337H188V39Q214 31 240 27T291 23Q366 23 418 47T502 112T550 210T565 332Z"  />
<glyph unicode="&#xD1;" horiz-adv-x="547" d="M435 -23L118 537V0H80V599L47 667H168L434 188V667H470V-23H435ZM391 795Q382 771 363 751T321 731Q301 731 287 737T257 755Q228 777 206 777Q195 777 186 771T170 748L153 761Q180 826 224 826Q242 826 256 821T288 802Q318 778 340 778Q350 778 359 784T375 807L391 795H391Z"  />
<glyph unicode="&#xD2;" horiz-adv-x="790" d="M750 333Q750 262 727 199T659 90T553 16T412 -11Q322 -11 254 15T141 87T72 196T49 333Q49 408 75 471T148 581T262 654T412 680Q496 680 559 653T664 578T728 468T750 333ZM708 337Q708 402 689 458T633 557T547 623T434 648Q372 648 323 624T238 559T185 460T166 337Q166 271 184 215T238 117T322 51T434 27Q496 27 546 51T633 117T688 215T708 337ZM442 728L312 806L364 855L459 744L442 728Z"  />
<glyph unicode="&#xD3;" horiz-adv-x="790" d="M750 333Q750 262 727 199T659 90T553 16T412 -11Q322 -11 254 15T141 87T72 196T49 333Q49 408 75 471T148 581T262 654T412 680Q496 680 559 653T664 578T728 468T750 333ZM708 337Q708 402 689 458T633 557T547 623T434 648Q372 648 323 624T238 559T185 460T166 337Q166 271 184 215T238 117T322 51T434 27Q496 27 546 51T633 117T688 215T708 337ZM365 726L349 742L443 853L495 804L365 726Z"  />
<glyph unicode="&#xD4;" horiz-adv-x="790" d="M750 333Q750 262 727 199T659 90T553 16T412 -11Q322 -11 254 15T141 87T72 196T49 333Q49 408 75 471T148 581T262 654T412 680Q496 680 559 653T664 578T728 468T750 333ZM708 337Q708 402 689 458T633 557T547 623T434 648Q372 648 323 624T238 559T185 460T166 337Q166 271 184 215T238 117T322 51T434 27Q496 27 546 51T633 117T688 215T708 337ZM501 727L404 769L308 727L293 744L404 842L515 744L501 727Z"  />
<glyph unicode="&#xD5;" horiz-adv-x="790" d="M750 333Q750 262 727 199T659 90T553 16T412 -11Q322 -11 254 15T141 87T72 196T49 333Q49 408 75 471T148 581T262 654T412 680Q496 680 559 653T664 578T728 468T750 333ZM708 337Q708 402 689 458T633 557T547 623T434 648Q372 648 323 624T238 559T185 460T166 337Q166 271 184 215T238 117T322 51T434 27Q496 27 546 51T633 117T688 215T708 337ZM523 795Q514 771 495 751T453 731Q433 731 419 737T389 755Q360 777 338 777Q327 777 318 771T302 748L285 761Q312 826 356 826Q374 826 388 821T420 802Q450 778 472 778Q482 778 491 784T507 807L523 795H523Z"  />
<glyph unicode="&#xD6;" horiz-adv-x="790" d="M750 333Q750 262 727 199T659 90T553 16T412 -11Q322 -11 254 15T141 87T72 196T49 333Q49 408 75 471T148 581T262 654T412 680Q496 680 559 653T664 578T728 468T750 333ZM708 337Q708 402 689 458T633 557T547 623T434 648Q372 648 323 624T238 559T185 460T166 337Q166 271 184 215T238 117T322 51T434 27Q496 27 546 51T633 117T688 215T708 337ZM540 783Q540 761 525 746T488 731Q466 731 451 746T435 783Q435 804 450 820T488 836Q509 836 524 820T540 783ZM375 783Q375 761 360 746T323 731Q302 731 287 746T271 783Q271 804 286 820T323 836Q345 836 360 820T375 783Z"  />
<glyph unicode="&#xD7;" horiz-adv-x="593" d="M491 7L296 202L102 8L61 48L255 243L61 438L102 479L296 284L491 479L532 438L337 243L532 48L491 7Z"  />
<glyph unicode="&#xD8;" horiz-adv-x="790" d="M750 333Q750 262 727 199T659 90T553 16T412 -11Q342 -11 285 5T182 50L131 -10L107 11L158 70Q105 115 77 182T49 333Q49 408 75 471T148 581T262 654T412 680Q481 680 535 662T631 610L688 677L713 656L655 589Q703 541 726 476T750 333ZM607 584Q572 615 529 631T434 648Q372 648 323 624T238 559T185 460T166 337Q166 280 180 230T221 138L607 584H607ZM708 337Q708 403 688 460T630 561L242 111Q277 72 325 50T434 27Q496 27 546 51T633 117T688 215T708 337Z"  />
<glyph unicode="&#xD9;" horiz-adv-x="559" d="M372 0V47Q351 27 312 10T217 -8Q148 -8 110 32T71 138V667H181V156Q181 131 186 109T203 70T233 43T278 33Q304 33 329 45T372 78V667H482V0H372ZM316 728L186 806L238 855L333 744L316 728Z"  />
<glyph unicode="&#xDA;" horiz-adv-x="559" d="M372 0V47Q351 27 312 10T217 -8Q148 -8 110 32T71 138V667H181V156Q181 131 186 109T203 70T233 43T278 33Q304 33 329 45T372 78V667H482V0H372ZM239 726L223 742L317 853L369 804L239 726Z"  />
<glyph unicode="&#xDB;" horiz-adv-x="559" d="M372 0V47Q351 27 312 10T217 -8Q148 -8 110 32T71 138V667H181V156Q181 131 186 109T203 70T233 43T278 33Q304 33 329 45T372 78V667H482V0H372ZM375 727L278 769L182 727L167 744L278 842L389 744L375 727Z"  />
<glyph unicode="&#xDC;" horiz-adv-x="559" d="M372 0V47Q351 27 312 10T217 -8Q148 -8 110 32T71 138V667H181V156Q181 131 186 109T203 70T233 43T278 33Q304 33 329 45T372 78V667H482V0H372ZM414 783Q414 761 399 746T362 731Q340 731 325 746T309 783Q309 804 324 820T362 836Q383 836 398 820T414 783ZM249 783Q249 761 234 746T197 731Q176 731 161 746T145 783Q145 804 160 820T197 836Q219 836 234 820T249 783Z"  />
<glyph unicode="&#xDD;" horiz-adv-x="478" d="M296 327V0H188V312L11 667H132L275 361L419 667H469L296 327ZM211 726L195 742L289 853L341 804L211 726Z"  />
<glyph unicode="&#xDE;" horiz-adv-x="514" d="M485 360Q485 269 417 218T220 162L215 186Q299 191 333 235T368 364Q368 395 362 423T341 474T301 508T237 521Q226 521 214 520T188 515V0H77V667H188V542Q202 544 215 545T242 547Q281 547 324 540T402 512T461 455T485 360Z"  />
<glyph unicode="&#xDF;" horiz-adv-x="467" d="M451 127Q451 92 439 66T407 24T360 -1T301 -9Q271 -9 243 -2T193 17L209 47Q222 37 240 28T282 19Q315 19 333 46T352 111Q352 146 335 179T280 250Q246 285 229 315T211 385Q211 422 233 449T289 502Q320 525 335 563T351 644Q351 660 348 680T334 719T307 751T262 764Q234 764 216 749T187 708T172 649T167 579V0H67V372H29V400H67V555Q67 598 74 639T102 714T160 767T258 787Q336 787 383 753T430 649Q430 608 411 577T349 517Q318 495 307 472T295 421Q295 386 314 357T365 295Q380 280 395 262T422 222T443 177T451 127Z"  />
<glyph unicode="&#xE0;" horiz-adv-x="405" d="M248 0V24Q231 10 209 3T156 -4Q139 -4 118 0T78 16Q60 28 47 47T33 96Q33 129 47 150T82 185Q103 198 127 202T171 206Q191 206 213 202T249 192V253Q249 312 229 349T156 386Q128 386 104 371T66 331L40 352Q47 361 59 371T88 391T128 406T180 412Q206 412 235 407T290 385T331 341T348 266V0H248ZM248 170Q228 180 198 180Q187 180 175 176T152 163T135 138T128 101Q128 79 135 65T152 42T174 30T196 26Q228 26 248 44V170ZM224 456L94 534L146 583L241 472L224 456Z"  />
<glyph unicode="&#xE1;" horiz-adv-x="405" d="M248 0V24Q231 10 209 3T156 -4Q139 -4 118 0T78 16Q60 28 47 47T33 96Q33 129 47 150T82 185Q103 198 127 202T171 206Q191 206 213 202T249 192V253Q249 312 229 349T156 386Q128 386 104 371T66 331L40 352Q47 361 59 371T88 391T128 406T180 412Q206 412 235 407T290 385T331 341T348 266V0H248ZM248 170Q228 180 198 180Q187 180 175 176T152 163T135 138T128 101Q128 79 135 65T152 42T174 30T196 26Q228 26 248 44V170ZM147 454L131 470L225 581L277 532L147 454Z"  />
<glyph unicode="&#xE2;" horiz-adv-x="405" d="M248 0V24Q231 10 209 3T156 -4Q139 -4 118 0T78 16Q60 28 47 47T33 96Q33 129 47 150T82 185Q103 198 127 202T171 206Q191 206 213 202T249 192V253Q249 312 229 349T156 386Q128 386 104 371T66 331L40 352Q47 361 59 371T88 391T128 406T180 412Q206 412 235 407T290 385T331 341T348 266V0H248ZM248 170Q228 180 198 180Q187 180 175 176T152 163T135 138T128 101Q128 79 135 65T152 42T174 30T196 26Q228 26 248 44V170ZM283 455L186 497L90 455L75 472L186 570L297 472L283 455Z"  />
<glyph unicode="&#xE3;" horiz-adv-x="405" d="M248 0V24Q231 10 209 3T156 -4Q139 -4 118 0T78 16Q60 28 47 47T33 96Q33 129 47 150T82 185Q103 198 127 202T171 206Q191 206 213 202T249 192V253Q249 312 229 349T156 386Q128 386 104 371T66 331L40 352Q47 361 59 371T88 391T128 406T180 412Q206 412 235 407T290 385T331 341T348 266V0H248ZM248 170Q228 180 198 180Q187 180 175 176T152 163T135 138T128 101Q128 79 135 65T152 42T174 30T196 26Q228 26 248 44V170ZM305 523Q296 499 277 479T235 459Q215 459 201 465T171 483Q142 505 120 505Q109 505 100 499T84 476L67 489Q94 554 138 554Q156 554 170 549T202 530Q232 506 254 506Q264 506 273 512T289 535L305 523H305Z"  />
<glyph unicode="&#xE4;" horiz-adv-x="405" d="M248 0V24Q231 10 209 3T156 -4Q139 -4 118 0T78 16Q60 28 47 47T33 96Q33 129 47 150T82 185Q103 198 127 202T171 206Q191 206 213 202T249 192V253Q249 312 229 349T156 386Q128 386 104 371T66 331L40 352Q47 361 59 371T88 391T128 406T180 412Q206 412 235 407T290 385T331 341T348 266V0H248ZM248 170Q228 180 198 180Q187 180 175 176T152 163T135 138T128 101Q128 79 135 65T152 42T174 30T196 26Q228 26 248 44V170ZM322 511Q322 489 307 474T270 459Q248 459 233 474T217 511Q217 532 232 548T270 564Q291 564 306 548T322 511ZM157 511Q157 489 142 474T105 459Q84 459 69 474T53 511Q53 532 68 548T105 564Q127 564 142 548T157 511Z"  />
<glyph unicode="&#xE5;" horiz-adv-x="405" d="M248 0V24Q231 10 209 3T156 -4Q139 -4 118 0T78 16Q60 28 47 47T33 96Q33 129 47 150T82 185Q103 198 127 202T171 206Q191 206 213 202T249 192V253Q249 312 229 349T156 386Q128 386 104 371T66 331L40 352Q47 361 59 371T88 391T128 406T180 412Q206 412 235 407T290 385T331 341T348 266V0H248ZM248 170Q228 180 198 180Q187 180 175 176T152 163T135 138T128 101Q128 79 135 65T152 42T174 30T196 26Q228 26 248 44V170ZM193 455Q164 455 144 475T123 524Q123 553 143 573T193 594Q222 594 242 574T263 524Q263 495 243 475T193 455ZM193 564Q175 564 164 552T153 524Q153 505 165 495T193 484Q211 484 222 496T233 524Q233 542 221 553T193 564Z"  />
<glyph unicode="&#xE6;" horiz-adv-x="625" d="M349 277Q344 257 343 238T342 202Q342 175 347 143T367 84T408 38T475 19Q510 19 538 33T583 63L599 37Q576 19 542 4T456 -11Q393 -11 354 5T289 50Q265 24 233 10T163 -4Q140 -4 118 0T78 16Q60 28 47 47T33 96Q33 129 47 150T82 185Q103 198 127 202T171 206Q191 206 213 202T249 192V253Q249 312 229 349T156 386Q128 386 104 371T66 331L40 352Q47 361 59 371T88 391T128 406T180 412Q218 412 253 399T310 358Q333 381 367 395T447 410Q492 410 521 397T569 363T595 319T605 277H349ZM528 299Q527 313 524 329T511 359T488 382T450 391Q427 391 411 381T383 357T365 327T355 299H528H528ZM273 72Q260 95 254 120T248 170Q237 175 224 177T198 180Q187 180 175 176T152 163T135 138T128 101Q128 79 135 65T154 43T177 32T200 29Q220 29 241 42T273 72Z"  />
<glyph unicode="&#xE7;" horiz-adv-x="415" d="M405 37Q381 16 346 4T267 -9Q260 -9 254 -9T242 -8L237 -39Q270 -40 293 -49T316 -87Q316 -120 283 -133T198 -146V-125Q215 -125 231 -118T248 -88Q248 -71 239 -65T219 -58H213L220 -6Q129 6 84 62T39 200Q39 246 54 284T98 351T170 394T268 410Q312 410 342 401T396 377L378 347Q364 361 337 373T280 385Q245 385 220 370T178 330T155 273T147 205Q147 170 155 137T179 77T222 35T283 19Q313 19 342 32T388 62L405 37H405Z"  />
<glyph unicode="&#xE8;" horiz-adv-x="430" d="M155 277Q150 257 149 238T148 202Q148 175 153 143T173 84T213 38T280 19Q315 19 343 33T388 63L405 37Q382 19 347 4T261 -11Q216 -11 176 1T105 38T57 102T39 193Q39 239 52 278T92 347T158 393T250 410Q295 410 325 397T374 363T400 319T410 277H155ZM333 299Q332 313 329 329T317 359T294 382T256 391Q233 391 217 381T189 357T170 327T160 299H333H333ZM279 456L149 534L201 583L296 472L279 456Z"  />
<glyph unicode="&#xE9;" horiz-adv-x="430" d="M155 277Q150 257 149 238T148 202Q148 175 153 143T173 84T213 38T280 19Q315 19 343 33T388 63L405 37Q382 19 347 4T261 -11Q216 -11 176 1T105 38T57 102T39 193Q39 239 52 278T92 347T158 393T250 410Q295 410 325 397T374 363T400 319T410 277H155ZM333 299Q332 313 329 329T317 359T294 382T256 391Q233 391 217 381T189 357T170 327T160 299H333H333ZM202 454L186 470L280 581L332 532L202 454Z"  />
<glyph unicode="&#xEA;" horiz-adv-x="430" d="M155 277Q150 257 149 238T148 202Q148 175 153 143T173 84T213 38T280 19Q315 19 343 33T388 63L405 37Q382 19 347 4T261 -11Q216 -11 176 1T105 38T57 102T39 193Q39 239 52 278T92 347T158 393T250 410Q295 410 325 397T374 363T400 319T410 277H155ZM333 299Q332 313 329 329T317 359T294 382T256 391Q233 391 217 381T189 357T170 327T160 299H333H333ZM338 455L241 497L145 455L130 472L241 570L352 472L338 455Z"  />
<glyph unicode="&#xEB;" horiz-adv-x="430" d="M155 277Q150 257 149 238T148 202Q148 175 153 143T173 84T213 38T280 19Q315 19 343 33T388 63L405 37Q382 19 347 4T261 -11Q216 -11 176 1T105 38T57 102T39 193Q39 239 52 278T92 347T158 393T250 410Q295 410 325 397T374 363T400 319T410 277H155ZM333 299Q332 313 329 329T317 359T294 382T256 391Q233 391 217 381T189 357T170 327T160 299H333H333ZM377 511Q377 489 362 474T325 459Q303 459 288 474T272 511Q272 532 287 548T325 564Q346 564 361 548T377 511ZM212 511Q212 489 197 474T160 459Q139 459 124 474T108 511Q108 532 123 548T160 564Q182 564 197 548T212 511Z"  />
<glyph unicode="&#xEC;" horiz-adv-x="227" d="M62 0V400H165V0H62ZM157 456L27 534L79 583L174 472L157 456Z"  />
<glyph unicode="&#xED;" horiz-adv-x="227" d="M62 0V400H165V0H62ZM77 454L61 470L155 581L207 532L77 454Z"  />
<glyph unicode="&#xEE;" horiz-adv-x="227" d="M62 0V400H165V0H62ZM209 455L112 497L16 455L1 472L112 570L223 472L209 455Z"  />
<glyph unicode="&#xEF;" horiz-adv-x="227" d="M62 0V400H165V0H62ZM252 511Q252 489 237 474T200 459Q178 459 163 474T147 511Q147 532 162 548T200 564Q221 564 236 548T252 511ZM87 511Q87 489 72 474T35 459Q14 459 -1 474T-17 511Q-17 532 -2 548T35 564Q57 564 72 548T87 511Z"  />
<glyph unicode="&#xF0;" horiz-adv-x="525" d="M494 245Q494 201 484 156T447 74T375 14T261 -10Q210 -10 169 4T98 45T53 110T37 199Q37 245 52 283T93 349T156 392T237 408Q257 408 278 404T318 394T354 378T381 356Q367 421 338 487T267 608L168 537L150 560L249 630Q210 678 167 711T81 759L92 779Q150 769 204 741T305 670L352 705L370 680L326 649Q363 610 394 563T447 463T482 356T494 245ZM394 213Q394 288 359 332T260 376Q231 376 209 362T172 324T150 267T142 197Q142 160 149 128T172 71T209 32T260 18Q294 18 319 34T361 78T386 141T394 213Z"  />
<glyph unicode="&#xF1;" horiz-adv-x="458" d="M298 0V265Q298 285 296 305T288 341T269 367T235 377Q219 377 199 369T165 344V0H62V400H165V368Q185 386 214 398T277 410Q334 410 367 380T400 288V0H298ZM347 523Q338 499 319 479T277 459Q257 459 243 465T213 483Q184 505 162 505Q151 505 142 499T126 476L109 489Q136 554 180 554Q198 554 212 549T244 530Q274 506 296 506Q306 506 315 512T331 535L347 523H347Z"  />
<glyph unicode="&#xF2;" horiz-adv-x="509" d="M478 199Q478 154 463 116T420 49T353 6T266 -10Q212 -10 170 5T98 48T53 114T37 199Q37 245 54 283T102 349T174 392T266 408Q318 408 357 393T424 349T464 283T478 199ZM447 201Q447 238 436 270T404 327T355 366T292 380Q259 380 233 366T187 328T158 271T148 201Q148 164 158 132T187 75T232 36T292 22Q326 22 355 36T404 74T435 131T447 201ZM296 456L166 534L218 583L313 472L296 456Z"  />
<glyph unicode="&#xF3;" horiz-adv-x="509" d="M478 199Q478 154 463 116T420 49T353 6T266 -10Q212 -10 170 5T98 48T53 114T37 199Q37 245 54 283T102 349T174 392T266 408Q318 408 357 393T424 349T464 283T478 199ZM447 201Q447 238 436 270T404 327T355 366T292 380Q259 380 233 366T187 328T158 271T148 201Q148 164 158 132T187 75T232 36T292 22Q326 22 355 36T404 74T435 131T447 201ZM218 454L202 470L296 581L348 532L218 454Z"  />
<glyph unicode="&#xF4;" horiz-adv-x="509" d="M478 199Q478 154 463 116T420 49T353 6T266 -10Q212 -10 170 5T98 48T53 114T37 199Q37 245 54 283T102 349T174 392T266 408Q318 408 357 393T424 349T464 283T478 199ZM447 201Q447 238 436 270T404 327T355 366T292 380Q259 380 233 366T187 328T158 271T148 201Q148 164 158 132T187 75T232 36T292 22Q326 22 355 36T404 74T435 131T447 201ZM354 455L257 497L161 455L146 472L257 570L368 472L354 455Z"  />
<glyph unicode="&#xF5;" horiz-adv-x="509" d="M478 199Q478 154 463 116T420 49T353 6T266 -10Q212 -10 170 5T98 48T53 114T37 199Q37 245 54 283T102 349T174 392T266 408Q318 408 357 393T424 349T464 283T478 199ZM447 201Q447 238 436 270T404 327T355 366T292 380Q259 380 233 366T187 328T158 271T148 201Q148 164 158 132T187 75T232 36T292 22Q326 22 355 36T404 74T435 131T447 201ZM376 523Q367 499 348 479T306 459Q286 459 272 465T242 483Q213 505 191 505Q180 505 171 499T155 476L138 489Q165 554 209 554Q227 554 241 549T273 530Q303 506 325 506Q335 506 344 512T360 535L376 523H376Z"  />
<glyph unicode="&#xF6;" horiz-adv-x="509" d="M478 199Q478 154 463 116T420 49T353 6T266 -10Q212 -10 170 5T98 48T53 114T37 199Q37 245 54 283T102 349T174 392T266 408Q318 408 357 393T424 349T464 283T478 199ZM447 201Q447 238 436 270T404 327T355 366T292 380Q259 380 233 366T187 328T158 271T148 201Q148 164 158 132T187 75T232 36T292 22Q326 22 355 36T404 74T435 131T447 201ZM393 511Q393 489 378 474T341 459Q319 459 304 474T288 511Q288 532 303 548T341 564Q362 564 377 548T393 511ZM228 511Q228 489 213 474T176 459Q155 459 140 474T124 511Q124 532 139 548T176 564Q198 564 213 548T228 511Z"  />
<glyph unicode="&#xF7;" horiz-adv-x="593" d="M346 421Q346 401 331 386T296 371Q275 371 261 385T247 421Q247 442 261 456T296 471Q317 471 331 457T346 421ZM46 215V270H546V215H46ZM346 64Q346 44 331 29T296 14Q275 14 261 28T247 64Q247 85 261 99T296 114Q317 114 331 100T346 64Z"  />
<glyph unicode="&#xF8;" horiz-adv-x="509" d="M478 199Q478 154 463 116T420 49T353 6T266 -10Q228 -10 194 -2T130 26L90 -17L67 7L102 44Q71 69 54 108T37 199Q37 245 54 283T102 349T174 392T266 408Q353 408 408 362L448 407L472 386L430 341Q478 284 478 199ZM390 342Q370 360 346 370T292 380Q259 380 233 366T187 328T158 271T148 201Q148 175 153 151T169 104L390 342H390ZM447 201Q447 234 438 265T411 319L186 77Q206 52 232 37T292 22Q326 22 355 36T404 74T435 131T447 201Z"  />
<glyph unicode="&#xF9;" horiz-adv-x="458" d="M293 0V32Q273 14 244 2T181 -10Q124 -10 91 20T58 112V400H160V136Q160 116 162 96T170 59T189 33T223 23Q239 23 259 31T293 57V400H396V0H293ZM267 456L137 534L189 583L284 472L267 456Z"  />
<glyph unicode="&#xFA;" horiz-adv-x="458" d="M293 0V32Q273 14 244 2T181 -10Q124 -10 91 20T58 112V400H160V136Q160 116 162 96T170 59T189 33T223 23Q239 23 259 31T293 57V400H396V0H293ZM189 454L173 470L267 581L319 532L189 454Z"  />
<glyph unicode="&#xFB;" horiz-adv-x="458" d="M293 0V32Q273 14 244 2T181 -10Q124 -10 91 20T58 112V400H160V136Q160 116 162 96T170 59T189 33T223 23Q239 23 259 31T293 57V400H396V0H293ZM326 455L229 497L133 455L118 472L229 570L340 472L326 455Z"  />
<glyph unicode="&#xFC;" horiz-adv-x="458" d="M293 0V32Q273 14 244 2T181 -10Q124 -10 91 20T58 112V400H160V136Q160 116 162 96T170 59T189 33T223 23Q239 23 259 31T293 57V400H396V0H293ZM365 511Q365 489 350 474T313 459Q291 459 276 474T260 511Q260 532 275 548T313 564Q334 564 349 548T365 511ZM200 511Q200 489 185 474T148 459Q127 459 112 474T96 511Q96 532 111 548T148 564Q170 564 185 548T200 511Z"  />
<glyph unicode="&#xFD;" horiz-adv-x="352" d="M226 29Q200 -52 181 -114T143 -221T104 -296T56 -342L9 -295Q38 -279 63 -257T109 -203T147 -129T179 -30L9 400H117L221 111L305 400H346L226 29ZM157 454L141 470L235 581L287 532L157 454Z"  />
<glyph unicode="&#xFE;" horiz-adv-x="519" d="M480 202Q480 158 467 120T427 54T361 10T271 -7Q242 -7 215 0T165 18V-333H62V778H165V368Q187 385 217 396T288 408Q339 408 375 392T435 348T469 283T480 202ZM371 198Q371 232 364 264T340 320T299 360T240 375Q220 375 199 366T165 342V42Q179 32 198 27T240 21Q272 21 296 35T337 73T362 129T371 198Z"  />
<glyph unicode="&#xFF;" horiz-adv-x="352" d="M226 29Q200 -52 181 -114T143 -221T104 -296T56 -342L9 -295Q38 -279 63 -257T109 -203T147 -129T179 -30L9 400H117L221 111L305 400H346L226 29ZM332 511Q332 489 317 474T280 459Q258 459 243 474T227 511Q227 532 242 548T280 564Q301 564 316 548T332 511ZM167 511Q167 489 152 474T115 459Q94 459 79 474T63 511Q63 532 78 548T115 564Q137 564 152 548T167 511Z"  />
<glyph unicode="&#x131;" horiz-adv-x="227" d="M62 0V400H165V0H62Z"  />
<glyph unicode="&#x152;" horiz-adv-x="999" d="M699 0V152Q662 79 587 34T412 -11Q322 -11 254 15T141 87T72 196T49 333Q49 408 75 471T148 581T262 654T412 680Q515 680 588 638T699 521V667H952V638H806V367H937V338H806V29H969V0H699ZM708 337Q708 402 689 458T633 557T547 623T434 648Q372 648 323 624T238 559T185 460T166 337Q166 271 184 215T238 117T322 51T434 27Q496 27 546 51T633 117T688 215T708 337Z"  />
<glyph unicode="&#x153;" horiz-adv-x="827" d="M551 277Q546 257 546 238T545 202Q545 175 550 143T570 84T610 38T677 19Q712 19 740 33T785 63L802 37Q779 19 744 4T658 -11Q592 -11 538 15T456 99Q431 49 382 20T266 -10Q212 -10 170 5T98 48T53 114T37 199Q37 245 54 283T102 349T174 392T266 408Q336 408 384 380T458 301Q482 351 529 380T647 410Q692 410 722 397T771 363T797 319T807 277H551ZM730 299Q729 313 726 329T714 359T691 382T653 391Q630 391 614 381T586 357T567 327T557 299H730H730ZM447 201Q447 238 436 270T404 327T355 366T292 380Q259 380 233 366T187 328T158 271T148 201Q148 164 158 132T187 75T232 36T292 22Q326 22 355 36T404 74T435 131T447 201Z"  />
<glyph unicode="&#x160;" horiz-adv-x="434" d="M386 184Q386 126 365 89T314 31T251 2T192 -7H182Q122 -7 78 15T4 70L36 106Q45 91 58 77T89 52T126 34T170 27H174Q221 29 250 61T279 143V147Q278 172 272 192T253 231T218 270T167 315Q140 337 117 358T77 402T49 448T37 502V511Q37 563 56 597T104 650T165 677T223 686H232Q277 686 312 675T367 647L344 609Q328 628 301 642T244 656H241Q193 654 167 622T141 545V540Q142 522 147 507T164 475T194 440T241 398Q269 375 294 353T340 306T372 255T386 195V184ZM224 727L113 825L128 842L224 799L321 842L335 825L224 727Z"  />
<glyph unicode="&#x161;" horiz-adv-x="317" d="M288 113Q288 73 273 49T235 11T188 -6T145 -11Q110 -11 76 3T20 38L43 69Q57 51 81 34T135 17Q164 17 181 34T198 80Q198 109 180 128T127 172Q91 198 67 226T43 290Q43 327 57 350T91 387T135 406T178 411Q207 411 234 402T277 380L257 350Q248 364 230 375T189 386Q168 386 149 372T130 323Q130 303 143 288T186 249Q206 234 224 220T257 189T279 154T288 113ZM165 455L54 553L69 570L165 527L262 570L276 553L165 455Z"  />
<glyph unicode="&#x178;" horiz-adv-x="478" d="M296 327V0H188V312L11 667H132L275 361L419 667H469L296 327ZM386 783Q386 761 371 746T334 731Q312 731 297 746T281 783Q281 804 296 820T334 836Q355 836 370 820T386 783ZM221 783Q221 761 206 746T169 731Q148 731 133 746T117 783Q117 804 132 820T169 836Q191 836 206 820T221 783Z"  />
<glyph unicode="&#x17D;" horiz-adv-x="399" d="M4 0L249 638H50V667H377L132 33H384V0H4ZM212 727L101 825L116 842L212 799L309 842L323 825L212 727Z"  />
<glyph unicode="&#x17E;" horiz-adv-x="339" d="M130 28H322V0H7L200 372H39V400H326L130 28ZM179 455L68 553L83 570L179 527L276 570L290 553L179 455Z"  />
<glyph unicode="&#x192;" horiz-adv-x="440" d="M424 633Q413 642 397 648T362 655Q339 655 325 641T301 601T287 544T278 474L271 400H359V372H269L238 42Q233 -8 223 -49T194 -119T145 -164T72 -181Q55 -181 35 -178T0 -168L13 -137Q23 -146 36 -152T64 -158Q77 -158 88 -151T107 -125T122 -77T132 -3L168 372H123V400H169L175 457Q180 506 190 547T221 617T273 662T354 678Q385 678 405 674T435 665L424 633Z"  />
<glyph unicode="&#x2C6;" horiz-adv-x="500" d="M347 455L250 497L154 455L139 472L250 570L361 472L347 455Z"  />
<glyph unicode="&#x2C7;" horiz-adv-x="500" d="M250 455L139 553L154 570L250 527L347 570L361 553L250 455Z"  />
<glyph unicode="&#x2DA;" horiz-adv-x="500" d="M249 455Q220 455 200 475T179 524Q179 553 199 573T249 594Q278 594 298 574T319 524Q319 495 299 475T249 455ZM249 564Q231 564 220 552T209 524Q209 505 221 495T249 484Q267 484 278 496T289 524Q289 542 277 553T249 564Z"  />
<glyph unicode="&#x2DC;" horiz-adv-x="500" d="M369 523Q360 499 341 479T299 459Q279 459 265 465T235 483Q206 505 184 505Q173 505 164 499T148 476L131 489Q158 554 202 554Q220 554 234 549T266 530Q296 506 318 506Q328 506 337 512T353 535L369 523H369Z"  />
<glyph unicode="&#x2013;" horiz-adv-x="465" d="M44 210V246H420V210H44Z"  />
<glyph unicode="&#x2014;" horiz-adv-x="665" d="M44 210V246H620V210H44Z"  />
<glyph unicode="&#x2018;" horiz-adv-x="153" d="M132 715Q127 703 122 676T112 615T104 547T99 485H14Q17 506 27 539T50 607T75 671T96 715H132H132Z"  />
<glyph unicode="&#x2019;" horiz-adv-x="153" d="M139 715Q136 694 126 661T103 593T79 528T58 485H21Q25 497 30 524T41 585T49 653T54 715H139H139Z"  />
<glyph unicode="&#x201A;" horiz-adv-x="153" d="M132 101Q129 80 119 47T96 -21T72 -86T51 -129H14Q18 -117 23 -90T34 -29T43 39T48 101H132H132Z"  />
<glyph unicode="&#x201C;" horiz-adv-x="286" d="M265 715Q260 703 255 676T245 615T236 547T231 485H147Q150 506 160 539T183 607T207 671T228 715H265H265ZM132 715Q127 703 122 676T112 615T104 547T99 485H14Q17 506 27 539T50 607T75 671T96 715H132H132Z"  />
<glyph unicode="&#x201D;" horiz-adv-x="286" d="M271 715Q268 694 258 661T235 593T211 528T190 485H153Q157 497 162 524T173 585T182 653T187 715H271H271ZM139 715Q136 694 126 661T103 593T79 528T58 485H21Q25 497 30 524T41 585T49 653T54 715H139H139Z"  />
<glyph unicode="&#x201E;" horiz-adv-x="275" d="M253 101Q250 80 240 47T217 -21T193 -86T172 -129H136Q140 -117 145 -90T156 -29T164 39T169 101H253H253ZM132 101Q129 80 119 47T96 -21T72 -86T51 -129H14Q18 -117 23 -90T34 -29T43 39T48 101H132H132Z"  />
<glyph unicode="&#x2020;" horiz-adv-x="278" d="M159 458V0H119V458H32V489H119V667H159V489H246V458H159Z"  />
<glyph unicode="&#x2021;" horiz-adv-x="278" d="M159 178V0H119V178H32V209H119V458H32V489H119V667H159V489H246V458H159V209H246V178H159Z"  />
<glyph unicode="&#x2022;" horiz-adv-x="218" d="M200 355Q200 337 193 321T173 291T144 271T108 263Q90 263 74 270T45 291T26 320T18 355Q18 374 25 390T45 419T73 439T108 447Q146 447 173 420T200 355Z"  />
<glyph unicode="&#x2026;" horiz-adv-x="1000" d="M228 44Q228 20 210 2T167 -17Q143 -17 125 1T107 44Q107 69 125 87T167 106Q192 106 210 88T228 44ZM561 44Q561 20 543 2T500 -17Q476 -17 458 1T440 44Q440 69 458 87T500 106Q525 106 543 88T561 44ZM894 44Q894 20 876 2T833 -17Q809 -17 791 1T773 44Q773 69 791 87T833 106Q858 106 876 88T894 44Z"  />
<glyph unicode="&#x2030;" horiz-adv-x="848" d="M815 129Q815 103 806 80T780 39T741 12T691 2Q661 2 637 12T597 39T573 79T564 129Q564 155 573 178T600 218T640 246T691 256Q720 256 743 246T782 219T806 178T815 129ZM296 540Q296 514 287 491T261 451T222 424T172 414Q142 414 118 424T78 451T53 491T44 540Q44 566 53 589T80 629T120 657T172 667Q201 667 224 657T263 630T287 589T296 540ZM97 -13L68 1L467 677L496 663L97 -13ZM525 129Q525 103 516 80T490 39T451 12T401 2Q371 2 347 12T307 39T282 79T273 129Q273 155 282 178T309 218T349 246T401 256Q430 256 453 246T492 219T516 178T525 129ZM783 129Q783 168 759 196T691 225Q647 225 622 197T597 129Q597 90 620 61T691 32Q711 32 728 40T757 61T776 91T783 129ZM263 540Q263 579 240 607T172 636Q128 636 103 608T78 540Q78 501 101 473T172 444Q212 444 237 472T263 540ZM492 129Q492 168 469 196T401 225Q357 225 332 197T307 129Q307 90 330 61T401 32Q421 32 437 40T466 61T485 91T492 129Z"  />
<glyph unicode="&#x2039;" horiz-adv-x="207" d="M148 113L37 227L148 340L165 331L119 228L165 122L148 113Z"  />
<glyph unicode="&#x203A;" horiz-adv-x="207" d="M59 113L42 122L88 228L42 331L59 340L170 227L59 113Z"  />
<glyph unicode="&#x20AC;" horiz-adv-x="464" d="M453 61Q424 26 383 8T296 -10Q234 -10 191 16T120 85T78 179T60 285H-3V313H58V320Q58 354 61 387H-3V415H64Q71 461 87 508T130 593T197 656T291 680Q335 680 375 666T444 617L415 575Q399 607 372 629T308 651Q267 651 242 626T201 564T180 486T171 415H351V387H169Q168 370 168 355T168 322V313H324V285H169Q171 252 177 207T199 121T242 51T313 22Q355 22 381 44T426 102L453 61H453Z"  />
<glyph unicode="&#x2122;" horiz-adv-x="1017" d="M792 356V668L674 356H637L519 668V356H479V712H546L657 423L767 712H832V356H792ZM291 673V356H246V673H122V712H414V673H291Z"  />
<glyph unicode="&#xE300;" horiz-adv-x="500" d="M288 728L158 806L210 855L305 744L288 728Z"  />
<glyph unicode="&#xE301;" horiz-adv-x="500" d="M211 726L195 742L289 853L341 804L211 726Z"  />
<glyph unicode="&#xE302;" horiz-adv-x="500" d="M347 727L250 769L154 727L139 744L250 842L361 744L347 727Z"  />
<glyph unicode="&#xE303;" horiz-adv-x="500" d="M250 727L139 825L154 842L250 799L347 842L361 825L250 727Z"  />
<glyph unicode="&#xE304;" horiz-adv-x="500" d="M369 795Q360 771 341 751T299 731Q279 731 265 737T235 755Q206 777 184 777Q173 777 164 771T148 748L131 761Q158 826 202 826Q220 826 234 821T266 802Q296 778 318 778Q328 778 337 784T353 807L369 795H369Z"  />
<glyph unicode="&#xE305;" horiz-adv-x="500" d="M386 783Q386 761 371 746T334 731Q312 731 297 746T281 783Q281 804 296 820T334 836Q355 836 370 820T386 783ZM221 783Q221 761 206 746T169 731Q148 731 133 746T117 783Q117 804 132 820T169 836Q191 836 206 820T221 783Z"  />
<glyph unicode="&#xE308;" horiz-adv-x="500" d="M249 727Q220 727 200 747T179 796Q179 825 199 845T249 866Q278 866 298 846T319 796Q319 767 299 747T249 727ZM249 836Q231 836 220 824T209 796Q209 777 221 767T249 756Q267 756 278 768T289 796Q289 814 277 825T249 836Z"  />

</font>
</defs>
</svg>
