<?xml  version="1.0" encoding="UTF-8"?>
<!DOCTYPE svg PUBLIC "-//W3C//DTD SVG 1.0//EN" "http://www.w3.org/TR/2001/REC-SVG-20010904/DTD/svg10.dtd" >
<svg xmlns="http://www.w3.org/2000/svg" >
<metadata>
<version>1.0</version>
<id><![CDATA[Beverly Hills W90]]></id>
<vendor>Monotype Imaging Inc.</vendor>
<credits>
<name>Fonts.com WebFonts</name>
<URL>http://webfonts.fonts.com</URL>
<role>Home of the Web fonts</role>
</credits>
<license>
<URL>http://webfonts.fonts.com/Legal</URL>
</license>
<copyright><![CDATA[Copyright 1994 Monotype Imaging Inc. All rights reserved.]]></copyright>
<trademark><![CDATA[Beverly Hills is a trademark of Monotype Imaging Inc. and may be registered in certain jurisdictions.]]></trademark>
<licensee>
<name></name>
</licensee>
</metadata>
<defs >
<font horiz-adv-x="1366" id="790d5e89-14a6-419c-9f1f-f359becad585">
<font-face font-family="" panose-1="0 0 4 0 0 0 0 0 0 0" ascent="1903" descent="-547" units-per-em="2048" alphabetic="0">
</font-face>
<missing-glyph horiz-adv-x="1024" d="M128 0V1501H896V0H128ZM256 128H768V1373H256V128Z"  />

<glyph unicode="&#xA;" />
<glyph unicode="&#xD;" horiz-adv-x="369" />
<glyph unicode=" " horiz-adv-x="369" />
<glyph unicode="!" horiz-adv-x="489" d="M428 1434L346 279H315L395 1434H428ZM342 1434L260 279H145L61 1434H342ZM354 98Q354 52 322 20T244 -12Q198 -12 166 20T133 98Q133 144 165 176T244 209Q290 209 322 177T354 98Z"  />
<glyph unicode="&quot;" horiz-adv-x="686" d="M573 1434L510 1053H444L385 1434H573ZM305 1434L242 1053H176L117 1434H305Z"  />
<glyph unicode="#" horiz-adv-x="1513" d="M1462 946L1454 913H1231L1133 541H1384L1376 508H1124L989 0H954L1333 1434H1368L1237 946H1462ZM1264 1434L891 0H696L834 508H594L459 0H424L803 1434H838L709 946H950L1081 1434H1264ZM733 1434L360 0H166L301 508H51L59 541H309L412 913H129L137 946H420L551 1434H733ZM942 913H700L602 541H842L942 913Z"  />
<glyph unicode="$" horiz-adv-x="1415" d="M1151 504Q1153 428 1139 348Q1129 390 1100 432Q1067 479 858 592L479 797Q362 860 318 904Q236 986 236 1110Q236 1227 326 1316Q445 1434 674 1434V1597H707V1434Q1039 1434 1104 1163H997Q982 1255 911 1322Q828 1401 707 1401V879L954 754Q1146 657 1151 504ZM1114 299Q1114 167 998 88Q886 12 707 12V-186H674V12Q273 12 207 244H313Q344 166 444 108Q550 45 674 45V592L397 743Q280 808 238 881Q205 940 205 1042Q226 955 249 918Q297 842 418 776L961 481Q1114 396 1114 299ZM674 893V1401Q367 1401 367 1151Q367 1041 674 893ZM1077 295Q1077 371 946 442L707 573V45Q870 45 971 110Q1077 178 1077 295Z"  />
<glyph unicode="%" horiz-adv-x="1880" d="M199 672Q144 718 105 803Q61 899 61 999Q61 1206 199 1329V672ZM889 1001Q889 818 772 691Q651 561 467 561Q355 561 250 639V1362Q370 1438 467 1438Q651 1438 772 1309Q889 1185 889 1001ZM1165 1446L748 -12H700L1118 1446H1165ZM1128 104Q1074 150 1035 235Q991 332 991 432Q991 645 1128 762V104ZM1819 434Q1819 251 1701 124Q1581 -6 1397 -6Q1303 -6 1180 72V795Q1279 870 1397 870Q1581 870 1700 744T1819 434ZM784 999Q784 1165 696 1282Q603 1405 459 1405Q382 1405 283 1348V655Q377 594 459 594Q602 594 696 720Q784 838 784 999ZM1714 432Q1714 598 1626 715Q1533 838 1389 838Q1305 838 1212 780V88Q1297 27 1389 27Q1533 27 1626 150Q1714 266 1714 432Z"  />
<glyph unicode="&amp;" horiz-adv-x="1280" d="M1260 0H1219L408 1204Q367 1265 365 1323Q363 1356 371 1393Q449 1446 535 1446Q663 1446 744 1372T825 1178Q825 1007 649 905L1032 336Q1112 451 1104 612Q1099 719 1012 819H1096Q1143 725 1143 621Q1143 439 1049 311L1260 0ZM1147 0H922L852 102Q814 68 752 35Q662 -12 563 -12L125 637Q163 675 250 745Q288 771 371 817L303 915Q215 1044 215 1112Q215 1252 315 1341Q311 1236 381 1133L1147 0ZM487 -12Q272 -12 146 147Q51 268 51 387Q51 507 92 575L487 -12ZM793 1178Q793 1279 725 1345Q654 1413 535 1413Q462 1413 403 1380Q398 1360 401 1325Q407 1265 436 1221L633 928Q793 1023 793 1178ZM834 131L389 791Q349 771 270 725Q226 695 166 635L582 20Q630 29 731 61Q785 86 834 131Z"  />
<glyph unicode="&apos;" horiz-adv-x="369" d="M279 1434L215 1053H150L90 1434H279Z"  />
<glyph unicode="(" horiz-adv-x="641" d="M610 -72Q515 -45 371 59V1374Q501 1475 610 1505V1473Q489 1428 403 1356V78Q495 7 610 -39V-72ZM311 102Q211 203 140 365Q61 546 61 717Q61 894 140 1072Q210 1230 311 1331V102Z"  />
<glyph unicode=")" horiz-adv-x="641" d="M580 717Q580 546 501 365Q430 203 330 102V1331Q431 1230 501 1072Q580 894 580 717ZM270 59Q126 -45 31 -72V-39Q146 7 238 78V1356Q152 1428 31 1473V1505Q140 1475 270 1374V59Z"  />
<glyph unicode="*" horiz-adv-x="1415" d="M963 1032Q963 1013 949 996T918 979Q879 979 821 1041Q748 1118 715 1137Q715 1051 736 993T758 924Q758 864 711 864Q655 864 655 922Q655 939 676 1010T698 1137Q648 1115 586 1042Q533 981 498 981Q484 981 468 996T451 1026Q451 1076 530 1096Q649 1127 686 1151Q658 1172 538 1201Q451 1223 451 1272Q451 1290 469 1306T508 1323Q538 1323 582 1266Q638 1196 698 1165Q698 1219 678 1293T657 1378Q657 1401 671 1423T707 1446Q758 1446 758 1380Q758 1366 737 1300T715 1165Q768 1192 826 1265Q873 1323 913 1323Q931 1323 947 1304T963 1266Q963 1229 918 1211Q905 1206 842 1194T725 1149Q761 1126 881 1095Q963 1074 963 1032Z"  />
<glyph unicode="+" horiz-adv-x="1415" d="M1253 516H737V0H676V516H160V578H676V1094H737V578H1253V516Z"  />
<glyph unicode="&#x2c;" horiz-adv-x="369" d="M289 199L57 -104H-4L92 199H289Z"  />
<glyph unicode="-" horiz-adv-x="662" d="M600 840L541 676H90L150 840H600ZM524 627L512 594H61L74 627H524Z"  />
<glyph unicode="." horiz-adv-x="369" d="M307 111Q307 60 271 24T184 -12Q134 -12 98 24T61 111Q61 161 97 197T184 233Q235 233 271 197T307 111Z"  />
<glyph unicode="/" horiz-adv-x="440" d="M453 1446L35 -12H-12L406 1446H453Z"  />
<glyph unicode="0" horiz-adv-x="1415" d="M281 172Q192 255 132 391Q61 550 61 717Q61 1043 281 1266V172ZM1354 719Q1354 413 1169 204Q978 -12 686 -12Q532 -12 342 115V1321Q529 1446 684 1446Q977 1446 1168 1232Q1354 1024 1354 719ZM1233 717Q1233 995 1054 1205Q881 1407 672 1407Q525 1407 375 1307V131Q528 29 674 29Q881 29 1055 235Q1233 447 1233 717Z"  />
<glyph unicode="1" horiz-adv-x="737" d="M594 0H561V1434H594V0ZM500 0H313V1266L29 1004V1120L500 1421V0Z"  />
<glyph unicode="2" horiz-adv-x="1067" d="M944 983Q944 838 870 726Q834 671 754 600V1358Q944 1197 944 983ZM973 0H29Q29 136 118 268Q197 386 311 455Q377 494 514 540Q646 585 659 594V1370Q597 1407 512 1407Q388 1407 289 1332Q197 1263 154 1153H55Q88 1280 219 1366Q342 1446 477 1446Q568 1446 692 1395V571Q672 559 534 513T330 426Q241 371 193 316Q154 271 111 186H973V0Z"  />
<glyph unicode="3" horiz-adv-x="1098" d="M979 1114Q979 985 918 907Q889 871 821 829V1399Q979 1289 979 1114ZM760 27Q698 -12 549 -12Q344 -12 195 119Q60 239 61 373H158Q168 243 275 140Q395 25 571 25Q668 25 723 53V788Q633 805 610 805Q545 805 465 780V821Q550 838 604 838Q658 838 723 825V1399Q645 1415 596 1415Q287 1415 209 1153H115Q167 1446 549 1446Q658 1446 760 1417V27ZM1036 414Q1036 198 821 39V772Q1036 674 1036 414Z"  />
<glyph unicode="4" horiz-adv-x="1178" d="M1141 393H956V0H924V1434H956V426H1141V393ZM862 0H676V393H-16L862 1421V0ZM676 426V1157L172 426H676Z"  />
<glyph unicode="5" horiz-adv-x="1098" d="M963 1434L901 1247H182L127 694Q285 954 537 954Q668 954 784 889V45Q692 -12 563 -12Q370 -12 218 90Q74 186 39 324H137Q186 200 289 120Q415 20 592 20Q683 20 752 68V870Q649 922 537 922Q380 922 258 804Q147 697 117 551H80L162 1434H963ZM1036 473Q1036 259 846 98V856Q926 785 962 731Q1036 618 1036 473Z"  />
<glyph unicode="6" horiz-adv-x="1202" d="M1141 473Q1139 266 992 127T625 -12Q498 -12 342 104V1329Q501 1446 662 1446Q757 1446 875 1400Q1035 1337 1128 1217H991Q834 1401 645 1401Q507 1401 375 1313V879Q483 969 639 969Q849 969 995 824T1141 473ZM281 143Q192 226 132 363Q61 521 61 688Q61 1048 281 1270V143ZM1026 479Q1026 658 895 794Q769 926 614 926Q490 926 375 842V121Q513 25 621 25Q781 25 903 162T1026 479Z"  />
<glyph unicode="7" horiz-adv-x="1147" d="M1124 1434L391 0H354L1087 1434H1124ZM1018 1434L287 0H121L864 1247H27L121 1434H1018Z"  />
<glyph unicode="8" horiz-adv-x="1133" d="M915 1190Q915 1028 735 922Q607 930 515 997Q410 1074 410 1194Q410 1299 481 1372T666 1446Q768 1446 841 1371T915 1190ZM1071 442Q1071 289 977 177T731 29Q816 104 849 186Q881 265 881 387Q881 496 794 597Q709 695 596 725Q393 779 295 852Q160 952 160 1118Q160 1243 247 1338T461 1444Q345 1339 346 1178Q347 1027 486 946Q564 900 672 883Q854 853 962 734T1071 442ZM819 356Q819 174 705 76Q603 -12 436 -12Q284 -12 172 96T61 352Q64 629 379 741Q819 669 819 356ZM870 1190Q870 1282 807 1347T653 1413Q567 1413 505 1348T442 1194Q442 1095 532 1026Q608 968 717 950Q870 1058 870 1190ZM786 356Q789 638 387 715Q146 550 143 354Q142 220 228 120T436 20Q594 20 684 99Q785 185 786 356Z"  />
<glyph unicode="9" horiz-adv-x="1202" d="M1141 745Q1141 386 922 164V1290Q1010 1207 1070 1071Q1141 912 1141 745ZM860 104Q701 -12 541 -12Q445 -12 327 34Q167 97 74 217H211Q369 33 557 33Q695 33 827 121V555Q719 465 563 465Q353 465 207 610T61 961Q63 1168 210 1307T578 1446Q705 1446 860 1329V104ZM827 592V1313Q689 1409 582 1409Q421 1409 299 1271T176 954Q176 776 307 640Q433 508 588 508Q713 508 827 592Z"  />
<glyph unicode=":" horiz-adv-x="369" d="M307 897Q307 846 271 810T184 774Q134 774 98 810T61 897Q61 948 97 984T184 1020Q235 1020 271 984T307 897ZM307 111Q307 60 271 24T184 -12Q134 -12 98 24T61 111Q61 161 97 197T184 233Q235 233 271 197T307 111Z"  />
<glyph unicode=";" horiz-adv-x="369" d="M307 897Q307 846 271 810T184 774Q134 774 98 810T61 897Q61 948 97 984T184 1020Q235 1020 271 984T307 897ZM289 199L57 -104H-4L92 199H289Z"  />
<glyph unicode="&lt;" horiz-adv-x="2048" d="M1741 0L307 717L1741 1434V0Z"  />
<glyph unicode="=" horiz-adv-x="1415" d="M1253 596H160V657H1253V596ZM1253 436H160V498H1253V436Z"  />
<glyph unicode="&gt;" horiz-adv-x="2048" d="M1741 717L307 0V1434L1741 717Z"  />
<glyph unicode="?" horiz-adv-x="950" d="M901 975Q901 733 694 580V1372Q771 1319 826 1230Q901 1111 901 975ZM641 553Q563 508 537 442Q522 407 522 350V279H408Q402 379 440 453Q494 555 608 578V1382Q537 1406 469 1407Q361 1408 262 1335T123 1155H16Q48 1266 155 1350Q278 1446 440 1446Q563 1446 641 1395V553ZM573 98Q573 52 541 20T463 -12Q417 -12 385 20T352 98Q352 144 384 176T463 209Q509 209 541 177T573 98Z"  />
<glyph unicode="@" horiz-adv-x="2048" d="M1853 657Q1853 388 1672 191Q1498 2 1278 2Q1134 2 1128 147Q1013 14 862 14Q745 14 671 89Q592 168 592 307Q592 537 756 753Q926 977 1120 977Q1280 977 1360 825L1405 936H1581L1411 512Q1286 200 1286 164Q1286 109 1348 109Q1480 109 1608 252Q1757 419 1757 657Q1757 912 1566 1069Q1386 1217 1120 1217Q823 1217 579 965T334 410Q334 153 526 -10Q723 -178 1047 -178Q1381 -178 1647 31L1700 -16Q1635 -91 1480 -166Q1265 -270 1038 -270Q671 -270 433 -81T195 408Q195 773 469 1047T1112 1321Q1428 1321 1639 1136Q1853 947 1853 657ZM1292 766Q1292 818 1260 855Q1225 897 1165 897Q1029 897 886 639Q754 401 754 236Q754 98 897 98Q980 98 1045 165Q1071 193 1120 272Q1198 397 1250 568Q1292 706 1292 766Z"  />
<glyph unicode="A" horiz-adv-x="1255" d="M1245 0H1210L692 1434H727L1245 0ZM1149 0H950L854 279H231L162 0H10L469 1434H631L1149 0ZM842 311L494 1311L240 311H842Z"  />
<glyph unicode="B" horiz-adv-x="1102" d="M279 0H92V1434H279V0ZM1040 401Q1040 211 909 100T551 -12Q460 -12 340 33V1434H477Q634 1434 747 1332Q864 1227 864 1067Q864 855 684 784V780Q826 780 932 670Q1040 557 1040 401ZM918 401Q918 539 808 638Q692 743 512 743Q477 743 412 713V745Q450 764 492 772Q741 818 741 1067Q741 1216 655 1308T432 1401Q394 1399 373 1401V55Q451 20 549 20Q704 20 811 132T918 401Z"  />
<glyph unicode="C" horiz-adv-x="1513" d="M268 240Q64 439 61 717Q60 863 120 1000Q176 1130 268 1214V240ZM1489 324Q1433 193 1269 100Q1072 -12 799 -12Q665 -12 524 53Q404 108 330 182V1274Q537 1446 784 1446Q1047 1446 1240 1344Q1402 1258 1452 1143H1298Q1208 1272 1056 1346Q917 1413 776 1413Q647 1413 542 1371Q470 1342 362 1268V193Q594 20 799 20Q992 20 1145 129Q1222 184 1341 324H1489Z"  />
<glyph unicode="D" horiz-adv-x="1415" d="M1354 717Q1354 418 1132 209T602 0H340V1434H602Q915 1434 1133 1229Q1354 1021 1354 717ZM279 0H92V1434H279V0ZM1223 717Q1223 1003 1043 1202T594 1401H373V33H594Q861 33 1043 236Q1223 435 1223 717Z"  />
<glyph unicode="E" horiz-adv-x="1047" d="M1032 127L373 242V47L735 121L791 0H340V1434H705L795 1237L373 1391V279H965L1032 127ZM279 0H92V1434H279V0Z"  />
<glyph unicode="F" horiz-adv-x="920" d="M905 190L373 305V0H340V1434H705L795 1237L373 1391V342H838L905 190ZM279 0H92V1434H279V0Z"  />
<glyph unicode="G" horiz-adv-x="1458" d="M268 240Q61 442 61 717Q61 1038 268 1214V240ZM1434 354Q1368 214 1216 112Q1032 -12 801 -12Q666 -12 526 52Q407 106 330 182V1274Q527 1446 786 1446Q1007 1446 1177 1342Q1294 1271 1364 1169H1210Q1110 1291 983 1357Q873 1413 778 1413Q558 1413 362 1264V195Q561 20 801 20Q971 20 1123 124Q1229 197 1305 303L733 203L801 354H1434Z"  />
<glyph unicode="H" horiz-adv-x="1206" d="M1135 0H1102V279H373V0H340V1434H373V311H1102V1434H1135V0ZM279 0H92V1434H279V0Z"  />
<glyph unicode="I" horiz-adv-x="465" d="M373 0H340V1434H373V0ZM279 0H92V1434H279V0Z"  />
<glyph unicode="J" horiz-adv-x="743" d="M557 391Q557 255 502 158Q481 121 435 86T352 41Q354 48 365 106Q371 142 371 227V1434H557V391ZM651 391Q651 219 566 93Q473 -45 322 -45Q117 -45 10 59L160 250Q170 -8 346 -8Q463 -8 542 112Q618 228 618 391V1434H651V391Z"  />
<glyph unicode="K" horiz-adv-x="1018" d="M1008 1434L379 418L897 0H692L373 358V0H340V1434H373V485L836 1434H1008ZM279 0H92V1434H279V0Z"  />
<glyph unicode="L" horiz-adv-x="866" d="M856 0H340V1434H373V39L762 168L856 0ZM279 0H92V1434H279V0Z"  />
<glyph unicode="M" horiz-adv-x="1784" d="M1692 0H1659V1434H1692V0ZM1606 0H1419V1311L905 598L360 1434H401L907 655L1466 1434H1606V0ZM866 547L748 387L147 1305L176 0H68L92 1434H291L866 547Z"  />
<glyph unicode="N" horiz-adv-x="1292" d="M1219 1434L1200 346L358 1434H401L1151 465L1110 1434H1219ZM1200 -43L147 1305L176 0H68L92 1434H285L1200 262V-43Z"  />
<glyph unicode="O" horiz-adv-x="1591" d="M268 240Q61 442 61 717Q61 1038 268 1214V240ZM1530 717Q1530 412 1326 202Q1117 -12 799 -12Q666 -12 527 51Q406 106 330 182V1274Q533 1446 776 1446Q1077 1446 1303 1230T1530 717ZM1407 717Q1407 986 1204 1202Q1007 1413 776 1413Q548 1413 362 1264V193Q576 20 797 20Q1026 20 1213 226Q1407 438 1407 717Z"  />
<glyph unicode="P" horiz-adv-x="1102" d="M1040 864Q1040 585 837 433Q666 305 418 305V332Q630 363 763 487Q918 631 918 864Q918 1401 444 1401H373V0H340V1434H434Q1040 1434 1040 864ZM279 0H92V1434H279V0Z"  />
<glyph unicode="Q" horiz-adv-x="1591" d="M268 240Q61 442 61 717Q61 1038 268 1214V240ZM1530 717Q1530 474 1394 284T1030 23Q1034 -23 1034 -45Q1034 -281 1165 -281Q1261 -281 1255 -141H1284Q1284 -342 1112 -342Q1025 -342 976 -264Q934 -198 934 -102Q934 -54 928 -2Q859 -12 799 -12Q666 -12 527 51Q406 106 330 182V1274Q533 1446 776 1446Q1077 1446 1303 1230T1530 717ZM1407 717Q1407 986 1204 1202Q1007 1413 776 1413Q547 1413 362 1264V193Q519 65 688 31Q690 104 738 157T856 211Q979 211 1018 76Q1184 159 1292 329Q1407 510 1407 717ZM911 39Q898 86 884 103Q862 129 813 129Q720 129 709 27Q749 20 788 20Q850 20 911 39Z"  />
<glyph unicode="R" horiz-adv-x="1090" d="M1028 864Q1028 596 851 430Q692 282 457 268L737 0H573L373 293V0H340V1434H422Q675 1434 849 1277Q1028 1115 1028 864ZM279 0H92V1434H279V0ZM905 864Q905 1129 739 1275Q609 1388 434 1399Q400 1401 373 1401V348L428 295Q645 323 773 469Q905 621 905 864Z"  />
<glyph unicode="S" horiz-adv-x="545" d="M492 1434Q361 1366 305 1313Q225 1238 225 1141Q225 1046 292 919Q354 808 416 696Q483 558 483 436Q483 318 429 184Q386 77 328 0H113Q451 211 451 436Q451 562 379 698Q313 813 247 928Q176 1068 176 1202Q176 1273 212 1341T295 1434H492ZM387 475Q387 339 319 256Q319 389 190 555T61 852Q61 933 83 1018Q104 1100 131 1135Q136 1004 203 872Q263 770 323 668Q387 557 387 475Z"  />
<glyph unicode="T" horiz-adv-x="1202" d="M1192 1231L741 1391V0H709V1434H1022L1192 1231ZM647 0H461V1391L10 1231L180 1434H647V0Z"  />
<glyph unicode="U" horiz-adv-x="1194" d="M1102 420Q1102 247 991 121Q878 -8 711 -8Q553 -8 444 124Q340 251 340 420V1434H373V420Q373 262 466 146Q564 25 711 25Q863 25 967 144Q1069 260 1069 420V1434H1102V420ZM508 -12Q332 -12 197 150Q92 274 92 420V1434H279V420Q279 107 508 -12Z"  />
<glyph unicode="V" horiz-adv-x="1264" d="M1253 1434L774 51L272 1434H305L760 182L1094 1434H1253ZM727 0H528L10 1434H207L727 0Z"  />
<glyph unicode="W" horiz-adv-x="1962" d="M1952 1434L1473 51L971 1434H1004L1458 182L1792 1434H1952ZM1425 0H1227L989 659L776 51L274 1434H307L762 182L930 815L709 1434H905L1425 0ZM729 0H532L10 1434H209L729 0Z"  />
<glyph unicode="X" horiz-adv-x="1278" d="M1268 1434L745 784L1237 0H1196L301 1434H338L715 834L1083 1434H1268ZM1124 0H907L567 545L242 0H41L537 596L10 1434H229L1124 0Z"  />
<glyph unicode="Y" horiz-adv-x="1294" d="M1284 1434L780 768V0H748V750L305 1434H342L748 813L1106 1434H1284ZM686 0H500V682L12 1434H236L686 729V0Z"  />
<glyph unicode="Z" horiz-adv-x="1399" d="M1389 1434L379 45L1165 193L1079 0H305L1348 1434H1389ZM1274 1434L227 0H10L1030 1401L270 1241L356 1434H1274Z"  />
<glyph unicode="[" horiz-adv-x="532" d="M506 -76H309V1493H502V1460H342V-43H506V-76ZM248 -76H61V1493H248V-76Z"  />
<glyph unicode="\" horiz-adv-x="2048" d="M2028 717Q2028 441 1742 270Q1463 102 1024 102Q585 102 306 270Q20 441 20 717Q20 993 306 1164Q585 1331 1024 1331Q1463 1331 1742 1164Q2028 993 2028 717ZM1966 717Q1966 956 1702 1113T1024 1270Q611 1270 347 1113T82 717Q82 477 346 321T1024 164Q1437 164 1701 320T1966 717Z"  />
<glyph unicode="]" horiz-adv-x="532" d="M471 -76H285V1493H471V-76ZM223 -76H27V-43H190V1460H31V1493H223V-76Z"  />
<glyph unicode="^" horiz-adv-x="530" d="M528 985H408L264 1327L121 985H0L203 1434H326L528 985Z"  />
<glyph unicode="_" horiz-adv-x="1024" d="M1024 -256H0V-154H1024V-256Z"  />
<glyph unicode="`" horiz-adv-x="270" d="M266 1550H186L4 1847H209L266 1550Z"  />
<glyph unicode="a" horiz-adv-x="1255" d="M1245 0H1210L692 1434H727L1245 0ZM1149 0H950L854 279H231L162 0H10L469 1434H631L1149 0ZM842 311L494 1311L240 311H842Z"  />
<glyph unicode="b" horiz-adv-x="1102" d="M279 0H92V1434H279V0ZM1040 401Q1040 211 909 100T551 -12Q460 -12 340 33V1434H477Q634 1434 747 1332Q864 1227 864 1067Q864 855 684 784V780Q826 780 932 670Q1040 557 1040 401ZM918 401Q918 539 808 638Q692 743 512 743Q477 743 412 713V745Q450 764 492 772Q741 818 741 1067Q741 1216 655 1308T432 1401Q394 1399 373 1401V55Q451 20 549 20Q704 20 811 132T918 401Z"  />
<glyph unicode="c" horiz-adv-x="1513" d="M268 240Q64 439 61 717Q60 863 120 1000Q176 1130 268 1214V240ZM1489 324Q1433 193 1269 100Q1072 -12 799 -12Q665 -12 524 53Q404 108 330 182V1274Q537 1446 784 1446Q1047 1446 1240 1344Q1402 1258 1452 1143H1298Q1208 1272 1056 1346Q917 1413 776 1413Q647 1413 542 1371Q470 1342 362 1268V193Q594 20 799 20Q992 20 1145 129Q1222 184 1341 324H1489Z"  />
<glyph unicode="d" horiz-adv-x="1415" d="M1354 717Q1354 418 1132 209T602 0H340V1434H602Q915 1434 1133 1229Q1354 1021 1354 717ZM279 0H92V1434H279V0ZM1223 717Q1223 1003 1043 1202T594 1401H373V33H594Q861 33 1043 236Q1223 435 1223 717Z"  />
<glyph unicode="e" horiz-adv-x="1047" d="M1032 127L373 242V47L735 121L791 0H340V1434H705L795 1237L373 1391V279H965L1032 127ZM279 0H92V1434H279V0Z"  />
<glyph unicode="f" horiz-adv-x="920" d="M905 190L373 305V0H340V1434H705L795 1237L373 1391V342H838L905 190ZM279 0H92V1434H279V0Z"  />
<glyph unicode="g" horiz-adv-x="1458" d="M268 240Q61 442 61 717Q61 1038 268 1214V240ZM1434 354Q1368 214 1216 112Q1032 -12 801 -12Q666 -12 526 52Q407 106 330 182V1274Q527 1446 786 1446Q1007 1446 1177 1342Q1294 1271 1364 1169H1210Q1110 1291 983 1357Q873 1413 778 1413Q558 1413 362 1264V195Q561 20 801 20Q971 20 1123 124Q1229 197 1305 303L733 203L801 354H1434Z"  />
<glyph unicode="h" horiz-adv-x="1206" d="M1135 0H1102V279H373V0H340V1434H373V311H1102V1434H1135V0ZM279 0H92V1434H279V0Z"  />
<glyph unicode="i" horiz-adv-x="465" d="M373 0H340V1434H373V0ZM279 0H92V1434H279V0Z"  />
<glyph unicode="j" horiz-adv-x="743" d="M557 391Q557 255 502 158Q481 121 435 86T352 41Q354 48 365 106Q371 142 371 227V1434H557V391ZM651 391Q651 219 566 93Q473 -45 322 -45Q117 -45 10 59L160 250Q170 -8 346 -8Q463 -8 542 112Q618 228 618 391V1434H651V391Z"  />
<glyph unicode="k" horiz-adv-x="1018" d="M1008 1434L379 418L897 0H692L373 358V0H340V1434H373V485L836 1434H1008ZM279 0H92V1434H279V0Z"  />
<glyph unicode="l" horiz-adv-x="866" d="M856 0H340V1434H373V39L762 168L856 0ZM279 0H92V1434H279V0Z"  />
<glyph unicode="m" horiz-adv-x="1784" d="M1692 0H1659V1434H1692V0ZM1606 0H1419V1311L905 598L360 1434H401L907 655L1466 1434H1606V0ZM866 547L748 387L147 1305L176 0H68L92 1434H291L866 547Z"  />
<glyph unicode="n" horiz-adv-x="1292" d="M1219 1434L1200 346L358 1434H401L1151 465L1110 1434H1219ZM1208 -43L147 1305L176 0H68L92 1434H285L1200 262L1208 -43Z"  />
<glyph unicode="o" horiz-adv-x="1591" d="M268 240Q61 442 61 717Q61 1038 268 1214V240ZM1530 717Q1530 412 1326 202Q1117 -12 799 -12Q666 -12 527 51Q406 106 330 182V1274Q533 1446 776 1446Q1077 1446 1303 1230T1530 717ZM1407 717Q1407 986 1204 1202Q1007 1413 776 1413Q548 1413 362 1264V193Q576 20 797 20Q1026 20 1213 226Q1407 438 1407 717Z"  />
<glyph unicode="p" horiz-adv-x="1102" d="M1040 864Q1040 585 837 433Q666 305 418 305V332Q630 363 763 487Q918 631 918 864Q918 1401 444 1401H373V0H340V1434H434Q1040 1434 1040 864ZM279 0H92V1434H279V0Z"  />
<glyph unicode="q" horiz-adv-x="1591" d="M268 240Q61 442 61 717Q61 1038 268 1214V240ZM1530 717Q1530 474 1394 284T1030 23Q1034 -23 1034 -45Q1034 -281 1165 -281Q1261 -281 1255 -141H1284Q1284 -342 1112 -342Q1025 -342 976 -264Q934 -198 934 -102Q934 -54 928 -2Q859 -12 799 -12Q666 -12 527 51Q406 106 330 182V1274Q533 1446 776 1446Q1077 1446 1303 1230T1530 717ZM1407 717Q1407 986 1204 1202Q1007 1413 776 1413Q547 1413 362 1264V193Q519 65 688 31Q690 104 738 157T856 211Q979 211 1018 76Q1184 159 1292 329Q1407 510 1407 717ZM911 39Q898 86 884 103Q862 129 813 129Q720 129 709 27Q749 20 788 20Q850 20 911 39Z"  />
<glyph unicode="r" horiz-adv-x="1090" d="M1028 864Q1028 596 851 430Q692 282 457 268L737 0H573L373 293V0H340V1434H422Q675 1434 849 1277Q1028 1115 1028 864ZM279 0H92V1434H279V0ZM905 864Q905 1129 739 1275Q609 1388 434 1399Q400 1401 373 1401V348L428 295Q645 323 773 469Q905 621 905 864Z"  />
<glyph unicode="s" horiz-adv-x="545" d="M492 1434Q361 1366 305 1313Q225 1238 225 1141Q225 1046 292 919Q354 808 416 696Q483 558 483 436Q483 318 429 184Q386 77 328 0H113Q451 211 451 436Q451 562 379 698Q313 813 247 928Q176 1068 176 1202Q176 1273 212 1341T295 1434H492ZM387 475Q387 339 319 256Q319 389 190 555T61 852Q61 933 83 1018Q104 1100 131 1135Q136 1004 203 872Q263 770 323 668Q387 557 387 475Z"  />
<glyph unicode="t" horiz-adv-x="1202" d="M1192 1231L741 1391V0H709V1434H1022L1192 1231ZM647 0H461V1391L10 1231L180 1434H647V0Z"  />
<glyph unicode="u" horiz-adv-x="1194" d="M1102 420Q1102 247 991 121Q878 -8 711 -8Q553 -8 444 124Q340 251 340 420V1434H373V420Q373 262 466 146Q564 25 711 25Q863 25 967 144Q1069 260 1069 420V1434H1102V420ZM508 -12Q332 -12 197 150Q92 274 92 420V1434H279V420Q279 107 508 -12Z"  />
<glyph unicode="v" horiz-adv-x="1264" d="M1253 1434L774 51L272 1434H305L760 182L1094 1434H1253ZM727 0H528L10 1434H207L727 0Z"  />
<glyph unicode="w" horiz-adv-x="1962" d="M1952 1434L1473 51L971 1434H1004L1458 182L1792 1434H1952ZM1425 0H1227L989 659L776 51L274 1434H307L762 182L930 815L709 1434H905L1425 0ZM729 0H532L10 1434H209L729 0Z"  />
<glyph unicode="x" horiz-adv-x="1278" d="M1268 1434L745 784L1237 0H1196L301 1434H338L715 834L1083 1434H1268ZM1124 0H907L567 545L242 0H41L537 596L10 1434H229L1124 0Z"  />
<glyph unicode="y" horiz-adv-x="1294" d="M1284 1434L780 768V0H748V750L305 1434H342L748 813L1106 1434H1284ZM686 0H500V682L12 1434H236L686 729V0Z"  />
<glyph unicode="z" horiz-adv-x="1399" d="M1389 1434L379 45L1165 193L1079 0H305L1348 1434H1389ZM1274 1434L227 0H10L1030 1401L270 1241L356 1434H1274Z"  />
<glyph unicode="{" horiz-adv-x="1290" d="M985 -547Q822 -540 692 -443Q553 -340 553 -199Q553 -125 578 -2Q610 162 610 190Q610 281 541 354Q479 421 385 451V500Q610 571 610 760Q610 788 578 952Q553 1075 553 1149Q553 1290 692 1394Q822 1491 985 1497V1446Q878 1421 819 1337Q766 1263 766 1167Q766 1108 780 994T795 831Q795 684 674 584Q610 531 477 475Q609 417 674 362Q795 261 795 119Q795 72 781 -43T766 -217Q766 -312 819 -387Q878 -471 985 -496V-547Z"  />
<glyph unicode="|" horiz-adv-x="2048" d="M2028 717Q2028 441 1742 270Q1463 102 1024 102Q585 102 306 270Q20 441 20 717Q20 993 306 1164Q585 1331 1024 1331Q1463 1331 1742 1164Q2028 993 2028 717Z"  />
<glyph unicode="}" horiz-adv-x="1290" d="M985 451Q891 421 829 354Q760 281 760 190Q760 162 793 -2Q817 -125 817 -199Q817 -340 678 -443Q548 -540 385 -547V-496Q492 -471 551 -387Q604 -312 604 -217Q604 -158 590 -43T575 119Q575 261 696 362Q761 417 893 475Q760 531 696 584Q575 684 575 831Q575 879 589 993T604 1167Q604 1263 551 1337Q492 1421 385 1446V1497Q548 1491 678 1394Q817 1290 817 1149Q817 1075 793 952Q760 788 760 760Q760 571 985 500V451Z"  />
<glyph unicode="~" horiz-adv-x="1987" d="M1982 512Q1982 102 1692 -188T991 -479Q581 -479 291 -189T0 512Q0 922 290 1212T991 1503Q1401 1503 1691 1213T1982 512ZM1788 934Q1721 1059 1624 1153Q1549 1226 1438 1296V934H1788ZM1890 528Q1890 597 1882 657Q1878 687 1855 770H1274V1368Q1238 1379 1153 1399Q1106 1407 1032 1411V528H1890ZM950 -389V496H92Q92 416 100 371Q114 295 129 254H709V-344Q745 -355 827 -375Q877 -384 950 -389ZM545 -270V90H195Q245 -7 342 -113Q432 -211 545 -270Z"  />
<glyph unicode="&#xA0;" horiz-adv-x="1415" />
<glyph unicode="&#xA1;" horiz-adv-x="489" d="M354 1335Q354 1289 322 1257T244 1225Q198 1225 166 1257T133 1335Q133 1381 165 1413T244 1446Q290 1446 322 1414T354 1335ZM428 0H395L315 1155H346L428 0ZM342 0H61L145 1155H260L342 0Z"  />
<glyph unicode="&#xA2;" horiz-adv-x="1415" d="M449 334Q369 405 333 459Q258 572 258 717Q258 931 449 1092V334ZM1139 547Q1104 416 979 334Q859 257 707 254V57H674V254Q616 257 510 301V1126Q541 1142 572 1157Q615 1176 674 1176V1356H707V1176Q1037 1176 1130 887H1032Q994 980 924 1049Q827 1143 707 1143V287Q935 298 1036 547H1139ZM674 287V1143Q613 1139 543 1104V324Q610 292 674 287Z"  />
<glyph unicode="&#xA3;" horiz-adv-x="1415" d="M752 1446Q674 1407 639 1362Q572 1274 569 1171Q569 1145 633 905T692 539Q684 318 584 158Q477 -12 324 -12Q262 -12 220 18Q162 60 164 147Q166 291 315 291Q395 291 485 229Q511 370 508 481Q504 606 455 805H289V838H446Q383 1018 383 1139Q383 1245 474 1338Q582 1446 752 1446ZM1262 291Q1176 -12 903 -12Q810 -12 758 5Q691 27 610 94Q661 159 703 276Q751 411 754 539Q757 675 694 882Q631 1094 631 1155Q631 1246 673 1318Q738 1430 887 1432Q1136 1434 1227 1233H1100Q1046 1401 887 1401Q779 1401 718 1329Q662 1261 664 1155Q665 1088 691 1000Q716 921 741 842H1001V809H750Q786 684 786 539Q786 434 742 301Q703 183 651 102Q718 56 761 41Q817 20 901 20Q1117 20 1165 289L1262 291ZM479 197Q394 258 315 258Q276 258 243 236Q197 205 197 143Q197 20 326 20Q439 20 479 197Z"  />
<glyph unicode="&#xA4;" horiz-adv-x="1442" d="M1274 840H1186V1376H1182L1042 840H934L795 1376H791V840H702V1434H862L985 967H989L1110 1434H1274V840ZM614 1008Q614 921 557 870T393 819Q272 819 209 886Q154 944 154 1038H240Q240 897 383 897Q526 897 526 1001Q526 1060 436 1091Q342 1120 248 1149Q172 1181 172 1278Q172 1355 228 1404T381 1454Q493 1454 550 1389Q596 1337 596 1262H508Q497 1315 483 1336Q452 1380 379 1380Q328 1380 295 1351T262 1280Q262 1233 344 1207Q434 1180 524 1153Q614 1117 614 1008Z"  />
<glyph unicode="&#xA5;" horiz-adv-x="2048" d="M1741 0H307V1434H1741V0Z"  />
<glyph unicode="&#xA6;" horiz-adv-x="1139" d="M1049 967Q1049 769 908 628T569 487Q371 487 231 628T90 967Q90 1165 230 1305T569 1446Q767 1446 908 1306T1049 967ZM979 967Q979 1136 859 1256T569 1376Q400 1376 280 1256T160 967Q160 798 280 678T569 557Q738 557 858 677T979 967ZM776 1077Q776 928 590 928H502V729H412V1235H573Q776 1235 776 1077ZM684 1073Q684 1149 590 1149H502V1008H582Q684 1008 684 1073Z"  />
<glyph unicode="&#xA7;" horiz-adv-x="2048" d="M1741 0H307V1434H1741V0ZM1671 70V1364H377V70H1671ZM1507 283L1458 233L1024 668L590 233L541 283L975 717L541 1151L590 1200L1024 766L1458 1200L1507 1151L1073 717L1507 283Z"  />
<glyph unicode="&#xA8;" horiz-adv-x="575" d="M563 1681Q563 1637 531 1605T455 1573Q410 1573 378 1605T346 1681Q346 1726 378 1758T455 1790Q499 1790 531 1758T563 1681ZM221 1681Q221 1637 189 1605T113 1573Q68 1573 36 1605T4 1681Q4 1726 36 1758T113 1790Q157 1790 189 1758T221 1681Z"  />
<glyph unicode="&#xA9;" horiz-adv-x="2048" d="M1808 752Q1808 428 1578 198T1024 -33Q700 -33 470 197T240 752Q240 1076 470 1306T1024 1536Q1348 1536 1578 1306T1808 752ZM1733 754Q1733 1045 1525 1251T1024 1458Q734 1458 529 1251T324 754Q324 463 529 256T1024 49Q1316 49 1524 255T1733 754ZM1350 975L1280 934Q1249 981 1190 1018Q1116 1065 1036 1065Q900 1065 807 974T713 750Q713 620 807 528T1032 436Q1168 436 1274 557L1339 510Q1301 454 1220 406Q1125 350 1032 350Q866 350 746 467T625 750Q625 916 745 1032T1036 1149Q1237 1149 1350 975Z"  />
<glyph unicode="&#xAA;" horiz-adv-x="2048" d="M1741 1434L1024 0L307 1434H1741Z"  />
<glyph unicode="&#xAB;" horiz-adv-x="715" d="M643 483L367 803V834L643 1151V1102L395 817L643 532V483ZM338 483L61 803V834L338 1151V1102L90 817L338 532V483ZM643 287L367 606V741L643 422V287ZM338 287L61 606V741L338 422V287Z"  />
<glyph unicode="&#xAC;" horiz-adv-x="2048" d="M1741 0H307L1024 1434L1741 0Z"  />
<glyph unicode="&#xAD;" horiz-adv-x="2048" />
<glyph unicode="&#xAE;" horiz-adv-x="1139" d="M1049 967Q1049 769 908 628T569 487Q371 487 231 628T90 967Q90 1165 230 1305T569 1446Q767 1446 908 1306T1049 967ZM979 967Q979 1136 859 1256T569 1376Q400 1376 280 1256T160 967Q160 798 280 678T569 557Q738 557 858 677T979 967ZM770 725H668L588 930H479V725H387V1233H557Q764 1233 764 1069Q764 1011 732 979Q719 966 676 944L770 725ZM668 1077Q668 1145 582 1145H479V1012H590Q668 1012 668 1077Z"  />
<glyph unicode="&#xAF;" horiz-adv-x="2048" />
<glyph unicode="&#xB0;" horiz-adv-x="1415" d="M987 1165Q987 1050 905 968T707 885Q677 885 633 895V1434Q686 1446 707 1446Q823 1446 905 1364T987 1165ZM580 913Q426 994 426 1165Q426 1333 580 1413V913ZM954 1165Q954 1265 880 1339T707 1413Q686 1413 666 1403V924Q678 918 707 918Q806 918 880 991T954 1165Z"  />
<glyph unicode="&#xB1;" horiz-adv-x="1415" d="M1253 516H737V31H676V516H160V578H676V1094H737V578H1253V516ZM1253 -127H160V-66H1253V-127Z"  />
<glyph unicode="&#xB2;" horiz-adv-x="2048" d="M1741 0H307L1024 1434L1741 0ZM1628 70L1024 1276L420 70H1628Z"  />
<glyph unicode="&#xB3;" horiz-adv-x="1554" d="M1509 834L1057 504L1229 -25L778 303L328 -25L500 504L47 834H606L778 1364L950 834H1509ZM1298 764H901L778 1141L655 764H260L582 530L459 156L778 389L1098 156L975 530L1298 764Z"  />
<glyph unicode="&#xB4;" horiz-adv-x="270" d="M266 1847L84 1550H4L61 1847H266Z"  />
<glyph unicode="&#xB5;" horiz-adv-x="2048" d="M1741 0H307V1434H1741V0ZM1671 70V1364H377V70H1671Z"  />
<glyph unicode="&#xB6;" horiz-adv-x="1290" d="M1096 1358H977V-418H901V1358H776V-418H700V477Q531 497 410 593Q248 720 248 942Q248 1189 446 1321Q614 1434 860 1434H1096V1358Z"  />
<glyph unicode="&#xB8;" horiz-adv-x="463" d="M459 -283Q459 -352 386 -397Q310 -444 188 -444Q93 -444 4 -383L23 -360Q98 -418 180 -418Q328 -418 328 -287Q328 -233 293 -200Q264 -172 229 -172Q179 -172 133 -188L211 6H240L184 -141Q238 -127 266 -127Q340 -127 392 -159Q459 -200 459 -283Z"  />
<glyph unicode="&#xB9;" horiz-adv-x="1630" d="M1602 1110Q1545 1038 1502 920T1450 700Q1133 609 913 500Q644 366 499 279Q313 169 111 12L70 45Q134 236 156 401Q175 549 172 700L410 778Q380 623 344 498Q318 409 225 176Q523 500 899 754Q1203 959 1602 1110ZM1462 985Q1151 850 934 702Q651 509 455 326Q570 396 887 555Q1113 669 1395 748Q1409 863 1462 985ZM330 686L233 655Q236 548 217 393Q211 343 190 254Q220 323 285 514Q314 614 330 686Z"  />
<glyph unicode="&#xBA;" horiz-adv-x="2048" d="M1741 1434L1024 0L307 1434H1741ZM1628 1364H420L1024 158L1628 1364Z"  />
<glyph unicode="&#xBB;" horiz-adv-x="715" d="M653 696L377 1016V1151L653 831V696ZM348 696L72 1016V1151L348 831V696ZM653 604L377 287V336L625 621L377 905V954L653 635V604ZM348 604L72 287V336L319 621L72 905V954L348 635V604Z"  />
<glyph unicode="&#xBC;" horiz-adv-x="1630" d="M1430 717Q1430 463 1250 283T815 102Q562 102 382 282T201 717Q201 970 381 1150T815 1331Q1069 1331 1249 1151T1430 717ZM1360 717Q1360 943 1201 1102T815 1262Q589 1262 430 1103T270 717Q270 491 429 332T815 172Q1041 172 1200 331T1360 717Z"  />
<glyph unicode="&#xBD;" horiz-adv-x="1630" d="M1430 717Q1430 463 1250 283T815 102Q562 102 382 282T201 717Q201 970 381 1150T815 1331Q1069 1331 1249 1151T1430 717Z"  />
<glyph unicode="&#xBE;" horiz-adv-x="1554" d="M1509 834L1057 504L1229 -25L778 303L328 -25L500 504L47 834H606L778 1364L950 834H1509Z"  />
<glyph unicode="&#xBF;" horiz-adv-x="950" d="M598 1323Q598 1277 566 1245T487 1212Q441 1212 409 1244T377 1323Q377 1369 409 1401T487 1434Q534 1434 566 1402T598 1323ZM934 266Q903 155 796 72Q672 -25 510 -25Q387 -25 309 27V868Q387 913 414 979Q428 1015 428 1071V1143H543Q548 1042 510 969Q456 866 342 844V39Q414 15 481 14Q589 13 688 86T827 266H934ZM256 49Q180 103 124 191Q49 310 49 446Q49 689 256 842V49Z"  />
<glyph unicode="&#xC0;" horiz-adv-x="1255" d="M1245 0H1210L692 1434H727L1245 0ZM1149 0H950L854 279H231L162 0H10L469 1434H631L1149 0ZM842 311L494 1311L240 311H842ZM663 1550H583L401 1847H606L663 1550Z"  />
<glyph unicode="&#xC1;" horiz-adv-x="1255" d="M1245 0H1210L692 1434H727L1245 0ZM1149 0H950L854 279H231L162 0H10L469 1434H631L1149 0ZM842 311L494 1311L240 311H842ZM778 1847L596 1550H516L573 1847H778Z"  />
<glyph unicode="&#xC2;" horiz-adv-x="1255" d="M1245 0H1210L692 1434H727L1245 0ZM1149 0H950L854 279H231L162 0H10L469 1434H631L1149 0ZM842 311L494 1311L240 311H842ZM840 1550H647L512 1778L348 1550H309L508 1827H661L840 1550Z"  />
<glyph unicode="&#xC3;" horiz-adv-x="1255" d="M1245 0H1210L692 1434H727L1245 0ZM1149 0H950L854 279H231L162 0H10L469 1434H631L1149 0ZM842 311L494 1311L240 311H842ZM856 1765Q834 1579 707 1579Q645 1579 551 1615T430 1651Q358 1651 328 1579H299Q335 1765 436 1765Q497 1765 594 1730T719 1694Q801 1694 827 1765H856Z"  />
<glyph unicode="&#xC4;" horiz-adv-x="1255" d="M1245 0H1210L692 1434H727L1245 0ZM1149 0H950L854 279H231L162 0H10L469 1434H631L1149 0ZM842 311L494 1311L240 311H842ZM844 1681Q844 1637 812 1605T736 1573Q691 1573 659 1605T627 1681Q627 1726 659 1758T736 1790Q780 1790 812 1758T844 1681ZM502 1681Q502 1637 470 1605T394 1573Q349 1573 317 1605T285 1681Q285 1726 317 1758T394 1790Q438 1790 470 1758T502 1681Z"  />
<glyph unicode="&#xC5;" horiz-adv-x="1255" d="M1245 0H1210L692 1434H727L1245 0ZM1149 0H950L854 279H231L162 0H10L469 1434H631L1149 0ZM842 311L494 1311L240 311H842ZM740 1743Q740 1677 693 1631T580 1585Q514 1585 467 1631T420 1743Q420 1809 467 1856T580 1903Q646 1903 693 1856T740 1743ZM676 1743Q676 1783 648 1811T580 1839Q540 1839 512 1811T484 1743Q484 1703 512 1676T580 1649Q620 1649 648 1676T676 1743Z"  />
<glyph unicode="&#xC6;" horiz-adv-x="1808" d="M1794 127L1135 242V47L1497 121L1552 0H1102V1434H1466L1556 1237L1135 1391V279H1726L1794 127ZM1040 0H854V279H307L162 0H10L854 1434H1040V0ZM854 311V1311L324 311H854Z"  />
<glyph unicode="&#xC7;" horiz-adv-x="1513" d="M268 240Q64 439 61 717Q60 863 120 1000Q176 1130 268 1214V240ZM1489 324Q1433 193 1269 100Q1072 -12 799 -12H784L719 -141Q773 -127 801 -127Q874 -127 926 -159Q993 -200 993 -283Q993 -352 919 -398T723 -444Q628 -444 539 -383L557 -360Q633 -418 715 -418Q862 -418 862 -287Q862 -233 828 -200Q798 -172 764 -172Q709 -172 664 -188L750 -10Q636 -3 508 60Q397 115 330 182V1274Q537 1446 784 1446Q1047 1446 1240 1344Q1402 1258 1452 1143H1298Q1208 1272 1056 1346Q917 1413 776 1413Q647 1413 542 1371Q470 1342 362 1268V193Q590 20 799 20Q992 20 1145 129Q1222 184 1341 324H1489Z"  />
<glyph unicode="&#xC8;" horiz-adv-x="1047" d="M1032 127L373 242V47L735 121L791 0H340V1434H705L795 1237L373 1391V279H965L1032 127ZM279 0H92V1434H279V0ZM467 1550H387L205 1847H410L467 1550Z"  />
<glyph unicode="&#xC9;" horiz-adv-x="1047" d="M1032 127L373 242V47L735 121L791 0H340V1434H705L795 1237L373 1391V279H965L1032 127ZM279 0H92V1434H279V0ZM571 1847L389 1550H309L366 1847H571Z"  />
<glyph unicode="&#xCA;" horiz-adv-x="1047" d="M1032 127L373 242V47L735 121L791 0H340V1434H705L795 1237L373 1391V279H965L1032 127ZM279 0H92V1434H279V0ZM664 1550H471L336 1778L172 1550H133L332 1827H485L664 1550Z"  />
<glyph unicode="&#xCB;" horiz-adv-x="1047" d="M1032 127L373 242V47L735 121L791 0H340V1434H705L795 1237L373 1391V279H965L1032 127ZM279 0H92V1434H279V0ZM676 1681Q676 1637 644 1605T568 1573Q523 1573 491 1605T459 1681Q459 1726 491 1758T568 1790Q612 1790 644 1758T676 1681ZM334 1681Q334 1637 302 1605T226 1573Q181 1573 149 1605T117 1681Q117 1726 149 1758T226 1790Q270 1790 302 1758T334 1681Z"  />
<glyph unicode="&#xCC;" horiz-adv-x="465" d="M373 0H340V1434H373V0ZM279 0H92V1434H279V0ZM334 1550H254L72 1847H277L334 1550Z"  />
<glyph unicode="&#xCD;" horiz-adv-x="465" d="M373 0H340V1434H373V0ZM279 0H92V1434H279V0ZM416 1847L234 1550H154L211 1847H416Z"  />
<glyph unicode="&#xCE;" horiz-adv-x="465" d="M373 0H340V1434H373V0ZM279 0H92V1434H279V0ZM516 1550H323L188 1778L24 1550H-15L184 1827H337L516 1550Z"  />
<glyph unicode="&#xCF;" horiz-adv-x="465" d="M373 0H340V1434H373V0ZM279 0H92V1434H279V0ZM513 1681Q513 1637 481 1605T405 1573Q360 1573 328 1605T296 1681Q296 1726 328 1758T405 1790Q449 1790 481 1758T513 1681ZM171 1681Q171 1637 139 1605T63 1573Q18 1573 -14 1605T-46 1681Q-46 1726 -14 1758T63 1790Q107 1790 139 1758T171 1681Z"  />
<glyph unicode="&#xD0;" horiz-adv-x="2048" d="M1741 0L307 717L1741 1434V0ZM1671 113V1321L465 717L1671 113Z"  />
<glyph unicode="&#xD1;" horiz-adv-x="1292" d="M1219 1434L1200 346L358 1434H401L1151 465L1110 1434H1219ZM1208 -43L147 1305L176 0H68L92 1434H285L1200 262L1208 -43ZM926 1762Q904 1576 777 1576Q715 1576 621 1612T500 1648Q428 1648 398 1576H369Q405 1762 506 1762Q567 1762 664 1727T789 1691Q871 1691 897 1762H926Z"  />
<glyph unicode="&#xD2;" horiz-adv-x="1591" d="M268 240Q61 442 61 717Q61 1038 268 1214V240ZM1530 717Q1530 412 1326 202Q1117 -12 799 -12Q666 -12 527 51Q406 106 330 182V1274Q533 1446 776 1446Q1077 1446 1303 1230T1530 717ZM1407 717Q1407 986 1204 1202Q1007 1413 776 1413Q548 1413 362 1264V193Q576 20 797 20Q1026 20 1213 226Q1407 438 1407 717ZM854 1550H774L592 1847H797L854 1550Z"  />
<glyph unicode="&#xD3;" horiz-adv-x="1591" d="M268 240Q61 442 61 717Q61 1038 268 1214V240ZM1530 717Q1530 412 1326 202Q1117 -12 799 -12Q666 -12 527 51Q406 106 330 182V1274Q533 1446 776 1446Q1077 1446 1303 1230T1530 717ZM1407 717Q1407 986 1204 1202Q1007 1413 776 1413Q548 1413 362 1264V193Q576 20 797 20Q1026 20 1213 226Q1407 438 1407 717ZM979 1847L797 1550H717L774 1847H979Z"  />
<glyph unicode="&#xD4;" horiz-adv-x="1591" d="M268 240Q61 442 61 717Q61 1038 268 1214V240ZM1530 717Q1530 412 1326 202Q1117 -12 799 -12Q666 -12 527 51Q406 106 330 182V1274Q533 1446 776 1446Q1077 1446 1303 1230T1530 717ZM1407 717Q1407 986 1204 1202Q1007 1413 776 1413Q548 1413 362 1264V193Q576 20 797 20Q1026 20 1213 226Q1407 438 1407 717ZM1067 1550H874L739 1778L575 1550H536L735 1827H888L1067 1550Z"  />
<glyph unicode="&#xD5;" horiz-adv-x="1591" d="M268 240Q61 442 61 717Q61 1038 268 1214V240ZM1530 717Q1530 412 1326 202Q1117 -12 799 -12Q666 -12 527 51Q406 106 330 182V1274Q533 1446 776 1446Q1077 1446 1303 1230T1530 717ZM1407 717Q1407 986 1204 1202Q1007 1413 776 1413Q548 1413 362 1264V193Q576 20 797 20Q1026 20 1213 226Q1407 438 1407 717ZM1067 1765Q1045 1579 918 1579Q856 1579 762 1615T641 1651Q569 1651 539 1579H510Q546 1765 647 1765Q708 1765 805 1730T930 1694Q1012 1694 1038 1765H1067Z"  />
<glyph unicode="&#xD6;" horiz-adv-x="1591" d="M268 240Q61 442 61 717Q61 1038 268 1214V240ZM1530 717Q1530 412 1326 202Q1117 -12 799 -12Q666 -12 527 51Q406 106 330 182V1274Q533 1446 776 1446Q1077 1446 1303 1230T1530 717ZM1407 717Q1407 986 1204 1202Q1007 1413 776 1413Q548 1413 362 1264V193Q576 20 797 20Q1026 20 1213 226Q1407 438 1407 717ZM1079 1666Q1079 1622 1047 1590T971 1558Q926 1558 894 1590T862 1666Q862 1711 894 1743T971 1775Q1015 1775 1047 1743T1079 1666ZM737 1666Q737 1622 705 1590T629 1558Q584 1558 552 1590T520 1666Q520 1711 552 1743T629 1775Q673 1775 705 1743T737 1666Z"  />
<glyph unicode="&#xD7;" horiz-adv-x="1024" d="M870 358H154V1075H870V358Z"  />
<glyph unicode="&#xD8;" horiz-adv-x="1591" d="M268 240Q61 442 61 717Q61 1038 268 1214V240ZM1530 717Q1530 412 1326 202Q1117 -12 799 -12Q558 -12 356 152L190 -47L160 -18L328 184L330 1274Q533 1446 776 1446Q1035 1446 1249 1278L1401 1458L1432 1430L1282 1251Q1530 1034 1530 717ZM1194 1212Q1000 1413 776 1413Q548 1413 362 1264V223L1194 1212ZM1407 717Q1407 970 1223 1182L381 178Q588 20 797 20Q1026 20 1213 226Q1407 438 1407 717Z"  />
<glyph unicode="&#xD9;" horiz-adv-x="1194" d="M1102 420Q1102 247 991 121Q878 -8 711 -8Q553 -8 444 124Q340 251 340 420V1434H373V420Q373 262 466 146Q564 25 711 25Q863 25 967 144Q1069 260 1069 420V1434H1102V420ZM508 -12Q332 -12 197 150Q92 274 92 420V1434H279V420Q279 107 508 -12ZM700 1550H620L438 1847H643L700 1550Z"  />
<glyph unicode="&#xDA;" horiz-adv-x="1194" d="M1102 420Q1102 247 991 121Q878 -8 711 -8Q553 -8 444 124Q340 251 340 420V1434H373V420Q373 262 466 146Q564 25 711 25Q863 25 967 144Q1069 260 1069 420V1434H1102V420ZM508 -12Q332 -12 197 150Q92 274 92 420V1434H279V420Q279 107 508 -12ZM792 1847L610 1550H530L587 1847H792Z"  />
<glyph unicode="&#xDB;" horiz-adv-x="1194" d="M1102 420Q1102 247 991 121Q878 -8 711 -8Q553 -8 444 124Q340 251 340 420V1434H373V420Q373 262 466 146Q564 25 711 25Q863 25 967 144Q1069 260 1069 420V1434H1102V420ZM508 -12Q332 -12 197 150Q92 274 92 420V1434H279V420Q279 107 508 -12ZM881 1550H688L553 1778L389 1550H350L549 1827H702L881 1550Z"  />
<glyph unicode="&#xDC;" horiz-adv-x="1194" d="M1102 420Q1102 247 991 121Q878 -8 711 -8Q553 -8 444 124Q340 251 340 420V1434H373V420Q373 262 466 146Q564 25 711 25Q863 25 967 144Q1069 260 1069 420V1434H1102V420ZM508 -12Q332 -12 197 150Q92 274 92 420V1434H279V420Q279 107 508 -12ZM905 1681Q905 1637 873 1605T797 1573Q752 1573 720 1605T688 1681Q688 1726 720 1758T797 1790Q841 1790 873 1758T905 1681ZM563 1681Q563 1637 531 1605T455 1573Q410 1573 378 1605T346 1681Q346 1726 378 1758T455 1790Q499 1790 531 1758T563 1681Z"  />
<glyph unicode="&#xDD;" horiz-adv-x="1630" d="M1602 1110Q1545 1038 1502 920T1450 700Q1133 609 913 500Q644 366 499 279Q313 169 111 12L70 45Q134 236 156 401Q175 549 172 700L410 778Q380 623 344 498Q318 409 225 176Q523 500 899 754Q1203 959 1602 1110Z"  />
<glyph unicode="&#xE0;" horiz-adv-x="2048" />
<glyph unicode="&#xE1;" horiz-adv-x="2048" />
<glyph unicode="&#xE2;" horiz-adv-x="2048" />
<glyph unicode="&#xE3;" horiz-adv-x="2048" />
<glyph unicode="&#xE4;" horiz-adv-x="2048" />
<glyph unicode="&#xE5;" horiz-adv-x="2048" />
<glyph unicode="&#xE6;" horiz-adv-x="2048" />
<glyph unicode="&#xE7;" horiz-adv-x="2048" />
<glyph unicode="&#xE8;" horiz-adv-x="2048" />
<glyph unicode="&#xE9;" horiz-adv-x="2048" />
<glyph unicode="&#xEA;" horiz-adv-x="2048" />
<glyph unicode="&#xEB;" horiz-adv-x="2048" />
<glyph unicode="&#xEC;" horiz-adv-x="2048" />
<glyph unicode="&#xED;" horiz-adv-x="2048" />
<glyph unicode="&#xEE;" horiz-adv-x="2048" />
<glyph unicode="&#xEF;" horiz-adv-x="2048" />
<glyph unicode="&#xF0;" horiz-adv-x="2048" d="M1741 717L307 0V1434L1741 717ZM1583 717L377 1321V113L1583 717Z"  />
<glyph unicode="&#xF1;" horiz-adv-x="2048" />
<glyph unicode="&#xF2;" horiz-adv-x="2048" />
<glyph unicode="&#xF3;" horiz-adv-x="2048" />
<glyph unicode="&#xF4;" horiz-adv-x="2048" />
<glyph unicode="&#xF6;" horiz-adv-x="2048" />
<glyph unicode="&#xF7;" horiz-adv-x="1415" d="M782 999Q782 969 761 948T709 926Q678 926 657 947T635 999Q635 1030 656 1052T709 1075Q739 1075 760 1053T782 999ZM1253 516H160V578H1253V516ZM782 84Q782 53 761 31T709 8Q678 8 657 30T635 84Q635 115 656 136T709 158Q739 158 760 137T782 84Z"  />
<glyph unicode="&#xFB;" horiz-adv-x="2048" />
<glyph unicode="&#xFC;" horiz-adv-x="2048" />
<glyph unicode="&#x152;" horiz-adv-x="2087" d="M268 240Q61 442 61 717Q61 1038 268 1214V240ZM2073 127L1413 242V47L1776 121L1831 0H1380V1434H1745L1835 1237L1413 1391V279H2005L2073 127ZM1319 0H1133V63Q957 -12 799 -12Q666 -12 527 51Q406 106 330 182V1274Q533 1446 776 1446Q970 1446 1133 1354V1434H1319V0ZM1133 156V1270Q941 1413 776 1413Q548 1413 362 1264V193Q582 16 797 20Q967 24 1133 156Z"  />
<glyph unicode="&#x160;" horiz-adv-x="1630" d="M1569 692Q1369 599 1186 381H1106Q1128 435 1153 483Q1213 598 1278 666H55V768H1278Q1181 869 1106 1053H1186Q1239 989 1297 935Q1434 804 1569 741V692Z"  />
<glyph unicode="&#x161;" horiz-adv-x="1630" d="M1575 666H352Q449 565 524 381H444Q391 445 334 499Q196 630 61 692V741Q261 835 444 1053H524Q502 999 477 951Q418 836 352 768H1575V666Z"  />
<glyph unicode="&#x178;" horiz-adv-x="1294" d="M1284 1434L780 768V0H748V750L305 1434H342L748 813L1106 1434H1284ZM686 0H500V682L12 1434H236L686 729V0ZM950 1681Q950 1637 918 1605T842 1573Q797 1573 765 1605T733 1681Q733 1726 765 1758T842 1790Q886 1790 918 1758T950 1681ZM608 1681Q608 1637 576 1605T500 1573Q455 1573 423 1605T391 1681Q391 1726 423 1758T500 1790Q544 1790 576 1758T608 1681Z"  />
<glyph unicode="&#x192;" horiz-adv-x="1100" d="M813 1446Q729 1414 686 1368Q629 1308 604 1196L352 61Q304 -157 157 -271Q37 -365 -111 -365Q-188 -365 -265 -323Q-349 -278 -354 -217H-240Q-230 -255 -196 -289Q-155 -332 -102 -332Q68 -332 154 43L322 776H156L164 809H326L397 1106Q458 1358 641 1423Q704 1446 813 1446ZM1176 1262H1061Q1007 1389 907 1389Q743 1389 692 1159L614 809H895L889 776H606L434 -8Q395 -188 294 -278T96 -381Q41 -388 16 -387L10 -375Q60 -375 94 -367Q198 -342 274 -262Q365 -167 401 -4L666 1192Q718 1427 938 1427Q1113 1427 1176 1262Z"  />
<glyph unicode="&#x2C6;" horiz-adv-x="539" d="M535 1550H342L207 1778L43 1550H4L203 1827H356L535 1550Z"  />
<glyph unicode="&#x2DA;" horiz-adv-x="328" d="M324 1743Q324 1677 277 1631T164 1585Q98 1585 51 1631T4 1743Q4 1809 51 1856T164 1903Q230 1903 277 1856T324 1743ZM260 1743Q260 1783 232 1811T164 1839Q124 1839 96 1811T68 1743Q68 1703 96 1676T164 1649Q204 1649 232 1676T260 1743Z"  />
<glyph unicode="&#x2DC;" horiz-adv-x="565" d="M561 1765Q539 1579 412 1579Q350 1579 256 1615T135 1651Q63 1651 33 1579H4Q40 1765 141 1765Q202 1765 299 1730T424 1694Q506 1694 532 1765H561Z"  />
<glyph unicode="&#x3A3;" horiz-adv-x="1630" d="M1430 717Q1430 463 1250 283T815 102Q562 102 382 282T201 717Q201 970 381 1150T815 1331Q1069 1331 1249 1151T1430 717ZM1360 717Q1360 943 1201 1102T815 1262Q589 1262 430 1103T270 717Q270 491 429 332T815 172Q1041 172 1200 331T1360 717Z"  />
<glyph unicode="&#x3A9;" horiz-adv-x="1139" d="M1049 967Q1049 769 908 628T569 487Q371 487 231 628T90 967Q90 1165 230 1305T569 1446Q767 1446 908 1306T1049 967ZM979 967Q979 1136 859 1256T569 1376Q400 1376 280 1256T160 967Q160 798 280 678T569 557Q738 557 858 677T979 967ZM776 1077Q776 928 590 928H502V729H412V1235H573Q776 1235 776 1077ZM684 1073Q684 1149 590 1149H502V1008H582Q684 1008 684 1073Z"  />
<glyph unicode="&#x3C0;" horiz-adv-x="1554" d="M1509 834L1057 504L1229 -25L778 303L328 -25L500 504L47 834H606L778 1364L950 834H1509Z"  />
<glyph unicode="&#x2013;" horiz-adv-x="1202" d="M1149 825L1102 690H88L135 825H1149ZM1085 641L1075 608H61L72 641H1085Z"  />
<glyph unicode="&#x2014;" horiz-adv-x="2048" d="M1987 825L1937 690H88L135 825H1987ZM1921 641L1911 608H61L72 641H1921Z"  />
<glyph unicode="&#x2018;" horiz-adv-x="369" d="M307 1126Q307 1076 271 1040T184 1004Q134 1004 98 1040T61 1126Q61 1172 84 1206L240 1446H272L156 1245Q168 1249 197 1249Q246 1249 276 1214T307 1126Z"  />
<glyph unicode="&#x2019;" horiz-adv-x="369" d="M307 1323Q307 1278 285 1243L129 1004H96L213 1204Q201 1200 172 1200Q123 1200 92 1235T61 1323Q61 1374 97 1410T184 1446Q235 1446 271 1410T307 1323Z"  />
<glyph unicode="&#x201A;" horiz-adv-x="369" d="M307 111Q307 65 285 31L129 -209H96L213 -8Q201 -12 172 -12Q123 -12 92 23T61 111Q61 161 97 197T184 233Q235 233 271 197T307 111Z"  />
<glyph unicode="&#x201C;" horiz-adv-x="686" d="M625 1126Q625 1076 589 1040T502 1004Q451 1004 415 1040T379 1126Q379 1172 401 1206L557 1446H590L473 1245Q485 1249 514 1249Q564 1249 594 1214T625 1126ZM307 1126Q307 1076 271 1040T184 1004Q134 1004 98 1040T61 1126Q61 1172 84 1206L240 1446H272L156 1245Q168 1249 197 1249Q246 1249 276 1214T307 1126Z"  />
<glyph unicode="&#x201D;" horiz-adv-x="686" d="M625 1323Q625 1278 602 1243L446 1004H414L530 1204Q518 1200 489 1200Q440 1200 410 1235T379 1323Q379 1374 415 1410T502 1446Q552 1446 588 1410T625 1323ZM307 1323Q307 1278 285 1243L129 1004H96L213 1204Q201 1200 172 1200Q123 1200 92 1235T61 1323Q61 1374 97 1410T184 1446Q235 1446 271 1410T307 1323Z"  />
<glyph unicode="&#x201E;" horiz-adv-x="686" d="M625 111Q625 65 602 31L446 -209H414L530 -8Q518 -12 489 -12Q440 -12 410 23T379 111Q379 161 415 197T502 233Q552 233 588 197T625 111ZM307 111Q307 65 285 31L129 -209H96L213 -8Q201 -12 172 -12Q123 -12 92 23T61 111Q61 161 97 197T184 233Q235 233 271 197T307 111Z"  />
<glyph unicode="&#x2020;" horiz-adv-x="1415" d="M1053 1114H848V-61H815V1434H848V1147H1053V1114ZM754 -61H567V1114H362V1147H567V1434H754V-61Z"  />
<glyph unicode="&#x2021;" horiz-adv-x="1415" d="M1053 225H848V-61H815V1434H848V1147H1053V1114H848V258H1053V225ZM754 -61H567V225H362V258H567V1114H362V1147H567V1434H754V-61Z"  />
<glyph unicode="&#x2022;" horiz-adv-x="1024" d="M793 717Q793 602 710 519T512 436Q397 436 314 519T231 717Q231 832 314 914T512 997Q627 997 710 915T793 717Z"  />
<glyph unicode="&#x2026;" horiz-adv-x="2048" d="M1823 111Q1823 63 1789 29T1706 -6Q1658 -6 1624 28T1589 111Q1589 158 1623 192T1706 227Q1754 227 1788 193T1823 111ZM1141 111Q1141 63 1107 29T1024 -6Q976 -6 942 28T907 111Q907 158 941 192T1024 227Q1072 227 1106 193T1141 111ZM459 111Q459 63 425 29T342 -6Q294 -6 260 28T225 111Q225 158 259 192T342 227Q390 227 424 193T459 111Z"  />
<glyph unicode="&#x2030;" horiz-adv-x="2814" d="M199 672Q144 718 105 803Q61 899 61 999Q61 1206 199 1329V672ZM889 1001Q889 818 772 691Q651 561 467 561Q355 561 250 639V1362Q370 1438 467 1438Q651 1438 772 1309Q889 1185 889 1001ZM1165 1446L748 -12H700L1118 1446H1165ZM2062 104Q2008 150 1969 235Q1925 332 1925 432Q1925 645 2062 762V104ZM1128 104Q1074 150 1035 235Q991 332 991 432Q991 645 1128 762V104ZM2753 434Q2753 251 2635 124Q2515 -6 2331 -6Q2237 -6 2114 72V795Q2213 870 2331 870Q2515 870 2634 744T2753 434ZM1819 434Q1819 251 1701 124Q1581 -6 1397 -6Q1303 -6 1180 72V795Q1279 870 1397 870Q1581 870 1700 744T1819 434ZM784 999Q784 1165 696 1282Q603 1405 459 1405Q382 1405 283 1348V655Q377 594 459 594Q602 594 696 720Q784 838 784 999ZM2648 432Q2648 598 2560 715Q2467 838 2322 838Q2239 838 2146 780V88Q2231 27 2322 27Q2462 27 2557 153Q2648 272 2648 432ZM1714 432Q1714 598 1626 715Q1533 838 1389 838Q1305 838 1212 780V88Q1297 27 1389 27Q1532 27 1626 153Q1714 271 1714 432Z"  />
<glyph unicode="&#x2039;" horiz-adv-x="410" d="M338 483L61 803V834L338 1151V1102L90 817L338 532V483ZM338 287L61 606V741L338 422V287Z"  />
<glyph unicode="&#x203A;" horiz-adv-x="410" d="M348 696L72 1016V1151L348 831V696ZM348 604L72 287V336L319 621L72 905V954L348 635V604Z"  />
<glyph unicode="&#x2122;" horiz-adv-x="1442" d="M1219 840H1130V1376H1126L987 840H879L739 1376H735V840H647V1434H807L930 967H934L1055 1434H1219V840ZM580 1348H428V840H340V1348H190V1434H580V1348Z"  />
<glyph unicode="&#x2202;" horiz-adv-x="1630" d="M1430 717Q1430 463 1250 283T815 102Q562 102 382 282T201 717Q201 970 381 1150T815 1331Q1069 1331 1249 1151T1430 717Z"  />
<glyph unicode="&#x2206;" horiz-adv-x="1630" d="M1575 666H352Q449 565 524 381H444Q391 445 334 499Q196 630 61 692V741Q261 835 444 1053H524Q502 999 477 951Q418 836 352 768H1575V666Z"  />
<glyph unicode="&#x220F;" horiz-adv-x="1630" d="M1602 1110Q1545 1038 1502 920T1450 700Q1133 609 913 500Q644 366 499 279Q313 169 111 12L70 45Q134 236 156 401Q175 549 172 700L410 778Q380 623 344 498Q318 409 225 176Q523 500 899 754Q1203 959 1602 1110ZM1462 985Q1151 850 934 702Q651 509 455 326Q570 396 887 555Q1113 669 1395 748Q1409 863 1462 985ZM330 686L233 655Q236 548 217 393Q211 343 190 254Q220 323 285 514Q314 614 330 686Z"  />
<glyph unicode="&#x2215;" horiz-adv-x="375" d="M408 1446L-10 -12H-57L360 1446H408Z"  />
<glyph unicode="&#x2219;" horiz-adv-x="1415" d="M836 717Q836 663 798 626T707 588Q653 588 616 625T578 717Q578 771 615 808T707 846Q760 846 798 809T836 717Z"  />
<glyph unicode="&#x221A;" horiz-adv-x="2048" d="M1741 0H307L1024 1434L1741 0ZM1628 70L1024 1276L420 70H1628Z"  />
<glyph unicode="&#x221E;" horiz-adv-x="1024" d="M870 358H154V1075H870V358Z"  />
<glyph unicode="&#x222B;" horiz-adv-x="1554" d="M1509 834L1057 504L1229 -25L778 303L328 -25L500 504L47 834H606L778 1364L950 834H1509ZM1298 764H901L778 1141L655 764H260L582 530L459 156L778 389L1098 156L975 530L1298 764Z"  />
<glyph unicode="&#x2248;" horiz-adv-x="1630" d="M1569 692Q1369 599 1186 381H1106Q1128 435 1153 483Q1213 598 1278 666H55V768H1278Q1181 869 1106 1053H1186Q1239 989 1297 935Q1434 804 1569 741V692Z"  />
<glyph unicode="&#x2260;" horiz-adv-x="1630" d="M1602 1110Q1545 1038 1502 920T1450 700Q1133 609 913 500Q644 366 499 279Q313 169 111 12L70 45Q134 236 156 401Q175 549 172 700L410 778Q380 623 344 498Q318 409 225 176Q523 500 899 754Q1203 959 1602 1110Z"  />
<glyph unicode="&#x2264;" horiz-adv-x="2048" d="M1741 0L307 717L1741 1434V0ZM1671 113V1321L465 717L1671 113Z"  />
<glyph unicode="&#x2265;" horiz-adv-x="2048" d="M1741 717L307 0V1434L1741 717ZM1583 717L377 1321V113L1583 717Z"  />
<glyph unicode="&#x25CA;" horiz-adv-x="1024" d="M973 717L512 0L51 717L512 1434L973 717ZM889 717L512 1305L135 717L512 129L889 717Z"  />
<glyph unicode="&#xF000;" horiz-adv-x="2048" d="M1761 0H287V1475H1761V0ZM1686 76V1399H362V76H1686Z"  />


</font>
</defs>
</svg>
