<?xml  version="1.0" encoding="UTF-8"?>
<!DOCTYPE svg PUBLIC "-//W3C//DTD SVG 1.0//EN" "http://www.w3.org/TR/2001/REC-SVG-20010904/DTD/svg10.dtd" >
<svg xmlns="http://www.w3.org/2000/svg" >
<metadata>
<version>1.0</version>
<id><![CDATA[Semplicita W01 Bold]]></id>
<vendor>Monotype Imaging Inc.</vendor>
<credits>
<name>Fonts.com WebFonts</name>
<URL>http://webfonts.fonts.com</URL>
<role>Home of the Web fonts</role>
</credits>
<license>
<URL>http://webfonts.fonts.com/Legal</URL>
</license>
<copyright></copyright>
<trademark></trademark>
<licensee>
<name></name>
</licensee>
</metadata>
<defs >
<font horiz-adv-x="594" id="8a75cbf9-4bc1-436f-8c4f-10be1c4060a6">
<font-face font-family="" panose-1="2 0 0 0 0 0 0 0 0 0" ascent="1059" descent="-285" units-per-em="1000" alphabetic="0">
</font-face>
<missing-glyph horiz-adv-x="0" />

<glyph unicode="&#xA;" />
<glyph unicode="&#xD;" />
<glyph unicode=" " horiz-adv-x="240" />
<glyph unicode="!" horiz-adv-x="289" d="M223 65Q223 50 217 36T201 11T175 -7T143 -14Q127 -14 113 -7T88 11T71 36T64 65Q64 98 87 121T143 145Q178 145 200 122T223 65ZM91 225L61 757H229L197 225H91Z"  />
<glyph unicode="&quot;" horiz-adv-x="467" d="M283 456L262 761H412L391 456H283ZM76 456L55 761H205L184 456H76Z"  />
<glyph unicode="#" horiz-adv-x="665" d="M389 409H287L276 322H378L389 409ZM340 9L365 214H262L234 -6L127 9L152 214H53V322H166L177 409H78V516H190L216 726L325 717L300 516H403L429 726L539 717L514 516H612V409H499L488 322H587V214H475L447 -6L340 9Z"  />
<glyph unicode="$" horiz-adv-x="619" d="M251 -56V18Q218 23 186 34T127 60T79 90T45 120L119 222Q133 209 152 195T195 170T246 152T303 144Q356 144 383 165T410 216Q410 238 387 256T328 292T252 331T175 379T117 441T93 523Q93 561 105 592T139 648T189 689T251 715V785H377V720Q410 714 437 702T485 676T519 652T537 636L469 531Q455 545 438 557T402 579T364 594T327 600Q292 600 267 582T241 529Q241 507 264 489T324 453T401 415T478 369T537 309T561 228Q561 193 549 161T513 101T455 54T377 24V-56H251Z"  />
<glyph unicode="%" horiz-adv-x="780" d="M578 83Q605 83 622 102T640 147Q640 174 623 192T578 211Q552 211 534 193T516 147Q516 121 534 102T578 83ZM737 147Q737 114 725 86T691 36T640 3T577 -10Q544 -10 516 2T466 36T432 85T420 147Q420 180 432 209T465 260T515 294T577 307Q610 307 639 295T690 261T724 210T737 147ZM202 540Q228 540 246 558T264 603Q264 629 246 648T202 667Q176 667 158 648T140 603Q140 577 158 559T202 540ZM360 603Q360 570 348 541T314 491T263 458T201 445Q168 445 139 457T89 491T56 541T43 603Q43 636 55 665T89 715T139 749T201 762Q234 762 263 750T313 716T347 665T360 603ZM186 7L494 744L580 708L273 -28L186 7Z"  />
<glyph unicode="&amp;" horiz-adv-x="760" d="M262 422Q251 419 232 410T195 381T164 334T150 265Q150 226 164 195T202 143T255 109T314 97Q348 97 374 107T418 132T448 163T465 190L262 422ZM626 0L537 107Q525 90 506 70T458 31T394 1T313 -12Q254 -12 204 9T116 68T57 155T36 261Q36 306 49 345T85 415T135 469T194 506Q183 523 170 548T157 606Q157 640 168 670T201 722T253 757T322 770Q357 770 384 761T430 740T464 714T487 693L412 616Q405 622 395 630T373 645T348 658T322 663Q302 663 285 651T267 610Q267 590 280 571T308 533L580 534L555 429H398L780 0H626Z"  />
<glyph unicode="&apos;" horiz-adv-x="260" d="M76 456L55 761H205L184 456H76Z"  />
<glyph unicode="(" horiz-adv-x="287" d="M149 -261Q103 -149 77 -10T50 278Q50 361 58 439T79 589T110 723T148 836L251 794Q239 759 224 705T197 583T176 438T167 280Q167 143 190 22T249 -220L149 -261Z"  />
<glyph unicode=")" horiz-adv-x="287" d="M38 -220Q55 -160 70 -100T96 22T113 148T120 280Q120 360 112 437T91 582T64 704T36 794L140 836Q159 786 176 724T207 591T228 441T236 278Q236 129 211 -10T139 -261L38 -220Z"  />
<glyph unicode="*" horiz-adv-x="476" d="M90 544L199 616L223 596L175 464L90 544ZM288 644L279 674L390 758L422 648L288 644ZM298 464L250 596L274 616L393 524L298 464ZM222 689L172 821H302L251 689H222ZM51 648L93 758L194 674L185 644L51 648Z"  />
<glyph unicode="+" horiz-adv-x="684" d="M407 309V104H277V309H50V418H277V624H407V418H634V309H407Z"  />
<glyph unicode="&#x2c;" horiz-adv-x="281" d="M5 -110L90 131H230L94 -110H5Z"  />
<glyph unicode="-" horiz-adv-x="423" d="M65 191L80 299H358L343 191H65Z"  />
<glyph unicode="." horiz-adv-x="259" d="M209 65Q209 50 203 36T187 11T161 -7T129 -14Q113 -14 99 -7T74 11T57 36T50 65Q50 98 73 121T129 144Q164 144 186 121T209 65Z"  />
<glyph unicode="/" horiz-adv-x="583" d="M32 -183L437 820L550 776L145 -220L32 -183Z"  />
<glyph unicode="0" horiz-adv-x="685" d="M341 97Q374 97 397 111T437 148T463 201T478 261T484 321T486 374Q486 399 484 429T477 490T462 550T436 601T396 637T340 651Q293 651 265 623T222 552T203 462T198 374Q198 340 202 293T222 202T265 128T341 97ZM341 -16Q281 -16 237 1T161 49T109 118T78 201T62 289T58 374Q58 413 62 457T77 545T108 628T159 698T235 746T340 764Q401 764 446 747T523 701T575 632T606 550T622 461T627 374Q627 312 616 244T574 117T487 22T341 -16Z"  />
<glyph unicode="1" horiz-adv-x="410" d="M183 -4V592L55 554L16 653L321 772V-4H183Z"  />
<glyph unicode="2" horiz-adv-x="626" d="M31 0V85Q55 95 88 116T156 163T224 219T284 277Q316 313 339 345T377 408T399 470T406 533Q406 557 398 578T376 615T342 641T297 651Q270 651 247 643T203 623T167 597T140 569L74 658Q88 672 110 690T163 724T230 752T310 764Q363 764 407 746T483 697T532 623T550 533Q550 482 532 435T487 347T431 274T381 219Q353 190 322 162T264 113L577 114V0H31Z"  />
<glyph unicode="3" horiz-adv-x="570" d="M382 417Q418 402 443 379T485 327T510 266T518 201Q518 160 500 121T446 52T361 3T246 -16Q199 -16 162 -7T96 16T49 43T21 66L79 162Q87 153 103 142T142 120T190 103T245 96Q281 96 307 106T350 134T376 174T385 220Q385 251 372 279T335 328T278 361T203 373Q195 373 188 373T172 371V453Q190 450 207 450Q238 450 264 459T310 485T340 521T351 563Q351 647 250 647Q236 647 220 644T187 636T157 624T133 612L93 709Q102 718 120 727T163 745T217 758T277 764Q325 764 364 747T430 704T471 645T486 580Q486 537 465 494T382 418V417Z"  />
<glyph unicode="4" horiz-adv-x="664" d="M384 534L177 228L384 230V534ZM384 -5V122H24V209L422 785H514V230L622 231V122H514V-5H384Z"  />
<glyph unicode="5" horiz-adv-x="583" d="M70 160Q82 149 99 139T138 120T181 106T227 100Q267 100 296 111T346 141T376 187T386 243Q386 271 377 298T349 345T300 378T227 391Q197 391 165 386T85 366L186 747H512L479 640H274L231 479Q245 481 256 482T284 483Q335 483 380 465T459 415T513 340T533 245Q533 193 517 146T466 63T379 6T252 -16Q213 -16 177 -9T111 9T59 31T25 50L70 160Z"  />
<glyph unicode="6" horiz-adv-x="638" d="M322 98Q351 98 374 109T415 138T441 181T451 232Q451 260 442 286T416 331T375 362T320 374Q291 374 267 363T225 333T197 288T187 232Q187 204 197 180T226 137T269 109T322 98ZM456 691Q445 679 423 655T375 601T322 537T274 470Q297 477 319 480T361 483Q413 483 456 464T529 410T576 330T593 232Q593 183 573 138T516 59T430 5T322 -16Q262 -16 212 4T125 61T68 144T47 246Q47 296 67 351T119 462T189 568T262 660T324 731T363 772L456 691Z"  />
<glyph unicode="7" horiz-adv-x="589" d="M41 -9L389 631H48V747H590L195 -9H41Z"  />
<glyph unicode="8" horiz-adv-x="622" d="M421 536Q421 586 390 619T311 652Q287 652 267 643T232 619T209 583T200 539Q200 518 208 498T232 462T267 437T312 427Q335 427 355 436T389 460T412 495T421 536ZM310 95Q334 95 354 104T390 130T414 167T423 212Q423 235 414 256T390 292T355 317T310 327Q287 327 267 318T231 293T206 256T197 212Q197 188 206 167T230 130T266 105T310 95ZM453 379Q473 369 492 353T527 316T552 268T562 212Q562 163 542 121T489 49T410 1T313 -16Q261 -16 215 1T135 48T80 119T59 208Q59 238 70 264T97 313T133 351T171 378Q151 387 133 404T99 444T75 492T66 541Q66 594 87 635T142 705T221 749T311 764Q362 764 407 749T485 705T537 635T557 541Q557 517 549 492T526 444T492 405T453 379Z"  />
<glyph unicode="9" horiz-adv-x="638" d="M318 374Q347 374 371 385T413 415T441 460T451 516Q451 544 441 568T412 611T369 639T316 650Q287 650 264 639T223 610T197 567T187 516Q187 487 196 462T222 417T263 386T318 374ZM182 53Q192 65 214 89T263 145T316 210T364 278Q341 271 319 268T277 265Q224 265 182 284T109 338T62 418T45 516Q45 565 65 610T122 689T208 743T316 764Q376 764 426 744T513 689T570 610T591 516Q591 466 571 409T519 296T449 186T376 88T314 14T275 -28L182 53Z"  />
<glyph unicode=":" horiz-adv-x="289" d="M224 384Q224 369 218 355T202 330T176 312T144 305Q128 305 114 311T89 329T72 355T65 384Q65 416 88 439T144 463Q179 463 201 440T224 384ZM224 65Q224 50 218 36T202 11T176 -7T144 -14Q128 -14 114 -7T89 11T72 36T65 65Q65 98 88 121T144 145Q179 145 201 122T224 65Z"  />
<glyph unicode=";" horiz-adv-x="300" d="M6 -110L91 131H231L95 -110H6ZM160 305Q144 305 130 312T105 330T88 355T81 384Q81 416 104 439T160 463Q194 463 216 440T239 384Q239 369 233 355T217 330T192 312T160 305Z"  />
<glyph unicode="&lt;" horiz-adv-x="656" d="M43 333V408L537 703L597 591L216 369L597 128L536 19L43 333Z"  />
<glyph unicode="=" horiz-adv-x="728" d="M72 189V298H656V189H72ZM72 427V536H656V427H72Z"  />
<glyph unicode="&gt;" horiz-adv-x="655" d="M118 37L59 149L440 371L59 612L119 721L612 407V332L118 37Z"  />
<glyph unicode="?" horiz-adv-x="488" d="M230 -14Q214 -14 200 -7T176 11T159 36T153 65Q153 98 175 121T230 144Q263 144 285 121T307 65Q307 50 301 36T285 11T261 -7T230 -14ZM439 329Q429 314 410 294T365 256T306 226T234 213Q202 213 170 223T113 253T71 301T55 365Q55 401 70 429T110 479T161 519T212 556T251 593T267 635Q267 652 254 663T226 675Q190 675 170 663T132 634L81 704Q93 714 110 726T148 749T194 767T247 775Q286 775 315 763T363 730T391 683T401 631Q401 599 385 573T345 525T294 482T242 443T202 406T186 367Q186 346 200 330T238 314Q263 314 285 323T324 345T355 371T374 394L439 329Z"  />
<glyph unicode="@" horiz-adv-x="1019" d="M804 -162Q724 -195 663 -205T555 -215Q425 -215 331 -177T175 -75T84 70T54 238Q54 329 86 417T179 575T331 688T537 731Q647 731 728 698T863 610T943 487T970 346Q970 277 946 211T873 93T754 10T589 -22Q520 -22 469 -5T383 41T332 106T315 179Q315 225 330 259T372 316T432 350T502 362Q564 362 619 330V370Q619 411 592 427T525 443Q491 443 454 434T386 411L350 502Q365 509 385 517T429 533T477 545T528 550Q588 550 627 534T688 489T720 425T729 348V168H696Q688 191 670 209T628 239T577 257T523 264Q472 264 446 240T420 185Q420 166 431 148T464 114T517 90T590 81Q657 81 709 103T796 163T849 248T867 346Q867 398 847 448T786 538T682 602T534 626Q444 626 375 594T258 508T187 388T163 251Q163 182 186 117T258 1T379 -81T552 -112Q598 -112 650 -107T768 -73L804 -162Z"  />
<glyph unicode="A" horiz-adv-x="760" d="M379 498L266 258H494L379 498ZM617 0L551 139H208L142 0H-16L380 790L776 0H617Z"  />
<glyph unicode="B" horiz-adv-x="650" d="M331 129Q401 129 433 155T465 232Q465 250 456 266T429 294T385 314T325 322H223V129H331ZM283 451Q341 451 373 474T405 543Q405 568 397 584T373 611T338 624T295 628H223V451H283ZM81 0V757H267Q326 757 378 748T470 717T532 656T555 557Q555 533 545 510T518 468T483 434T446 412Q472 406 502 392T557 354T600 299T617 228Q617 121 540 61T304 0H81Z"  />
<glyph unicode="C" horiz-adv-x="767" d="M735 84Q683 33 616 8T461 -17Q370 -17 293 14T160 100T72 226T40 378Q40 459 69 531T153 657T282 742T448 774Q510 774 559 761T644 729T700 693T729 665L654 567Q613 605 561 625T441 646Q386 646 340 626T261 569T210 483T192 374Q192 319 213 271T271 188T357 132T462 111Q505 111 539 118T600 135T643 157T670 177L735 84Z"  />
<glyph unicode="D" horiz-adv-x="765" d="M311 129Q363 129 410 142T493 186T549 264T570 381Q570 435 553 480T503 558T427 609T329 628H223V129H311ZM81 0V757H311Q396 757 471 733T601 661T689 542T722 378Q722 288 691 218T603 99T466 25T287 0H81Z"  />
<glyph unicode="E" horiz-adv-x="601" d="M81 1V756H531V628H223V465H471V336H223V130H562V1H81Z"  />
<glyph unicode="F" horiz-adv-x="547" d="M81 0V756H523V628H223V460H466V331H223V0H81Z"  />
<glyph unicode="G" horiz-adv-x="855" d="M488 287V411H828Q828 290 796 208T713 76T596 5T463 -17Q376 -17 299 13T165 96T74 220T40 374Q40 461 71 534T157 661T287 744T449 774Q518 774 572 760T663 727T720 693T742 675L672 568Q670 571 655 583T611 610T543 635T451 646Q391 646 343 626T262 569T210 484T191 376Q191 323 211 276T267 191T353 133T464 111Q507 111 545 124T611 162T658 218T679 287H488Z"  />
<glyph unicode="H" horiz-adv-x="789" d="M566 0V322H223V0H81V757H223V451H566V757H708V0H566Z"  />
<glyph unicode="I" horiz-adv-x="304" d="M81 0V757H223V0H81Z"  />
<glyph unicode="J" horiz-adv-x="305" d="M-79 -136Q-30 -120 1 -104T50 -61T74 4T81 104V757H224V100Q224 20 212 -35T171 -130T93 -199T-29 -257L-79 -136Z"  />
<glyph unicode="K" horiz-adv-x="731" d="M544 0L223 290V0H81V757H223V465L496 757H680L315 389L753 0H544Z"  />
<glyph unicode="L" horiz-adv-x="554" d="M81 1V757H223V130H539V1H81Z"  />
<glyph unicode="M" horiz-adv-x="988" d="M791 0L752 384L493 -30L235 380L198 0H45L148 777L494 229L839 776L943 0H791Z"  />
<glyph unicode="N" horiz-adv-x="859" d="M220 462L222 0H80L82 778L638 275L637 757H779L777 -28L220 462Z"  />
<glyph unicode="O" horiz-adv-x="907" d="M716 376Q716 434 695 483T639 569T556 625T455 646Q401 646 353 626T268 570T211 486T190 382Q190 329 210 280T266 193T348 133T448 110Q504 110 553 130T638 187T695 271T716 376ZM868 375Q868 294 835 223T746 99T614 14T455 -17Q368 -17 293 14T161 99T72 225T39 378Q39 459 71 531T160 657T292 742T455 774Q540 774 615 744T747 660T835 534T868 375Z"  />
<glyph unicode="P" horiz-adv-x="609" d="M273 391Q351 391 389 423T428 513Q428 565 395 596T289 628H223V391H273ZM81 0V757H250Q321 757 381 745T485 705T553 630T578 513Q578 456 560 410T505 331T410 280T276 262H223V0H81Z"  />
<glyph unicode="Q" horiz-adv-x="908" d="M717 376Q717 434 696 483T639 569T556 625T456 646Q401 646 353 626T269 570T212 486T191 382Q191 329 211 280T267 193T349 133T449 110Q505 110 554 130T639 187T696 271T717 376ZM647 30Q606 7 556 -5T456 -17Q369 -17 293 14T161 99T72 225T39 378Q39 459 71 531T160 657T293 742T456 774Q541 774 616 744T747 660T835 534T868 375Q868 295 834 224T746 100L893 -9L792 -110L647 30Z"  />
<glyph unicode="R" horiz-adv-x="669" d="M271 411Q352 411 390 438T428 523Q428 571 392 599T275 628H223V411H271ZM522 0L238 282H223V0H81V757H237Q273 757 312 754T390 742T462 717T522 675T563 612T578 524Q578 470 564 431T524 365T466 321T396 295L718 0H522Z"  />
<glyph unicode="S" horiz-adv-x="601" d="M96 193Q111 179 131 165T176 138T230 119T291 111Q349 111 379 135T409 202Q409 242 384 268T322 316T241 358T160 406T98 471T73 568Q73 619 94 657T149 722T228 761T320 775Q364 775 401 764T466 737T511 708T535 687L466 581Q437 610 398 629T321 648Q302 648 284 644T252 630T230 607T221 574Q221 541 246 519T309 478T390 439T472 389T535 315T560 204Q560 160 541 120T486 50T398 1T280 -17Q239 -17 200 -6T126 21T64 56T22 91L96 193Z"  />
<glyph unicode="T" horiz-adv-x="619" d="M238 0V628H15V756H604V628H380V0H238Z"  />
<glyph unicode="U" horiz-adv-x="780" d="M560 757H702V93Q658 47 581 15T388 -18Q237 -18 157 55T76 279V757H218V361Q218 290 226 242T256 164T315 122T411 109Q457 109 494 120T560 149V757Z"  />
<glyph unicode="V" horiz-adv-x="726" d="M-18 757H141L367 255L584 757H743L364 -42L-18 757Z"  />
<glyph unicode="W" horiz-adv-x="1084" d="M541 470L311 -36L-12 757H146L321 294L543 790L766 296L936 757H1092L776 -38L541 470Z"  />
<glyph unicode="X" horiz-adv-x="746" d="M566 0L372 278L176 0H-4L294 389L17 757H196L376 502L557 757H736L453 389L744 0H566Z"  />
<glyph unicode="Y" horiz-adv-x="677" d="M267 0V307L-17 757H142L342 431L541 757H698L409 307V0H267Z"  />
<glyph unicode="Z" horiz-adv-x="702" d="M-3 1L417 628H87V756H669L254 130H668V1H-3Z"  />
<glyph unicode="[" horiz-adv-x="351" d="M74 -216V820H317V718H188V-117H317V-216H74Z"  />
<glyph unicode="\" horiz-adv-x="583" d="M438 -218L33 778L146 822L551 -181L438 -218Z"  />
<glyph unicode="]" horiz-adv-x="351" d="M34 -216V-114H159V721H34V820H277V-216H34Z"  />
<glyph unicode="^" horiz-adv-x="721" d="M495 403L360 648L225 403H73L307 814H413L648 403H495Z"  />
<glyph unicode="_" horiz-adv-x="637" d="M61 -54V54H576V-54H61Z"  />
<glyph unicode="`" horiz-adv-x="364" d="M252 583L50 750L156 830L314 629L252 583Z"  />
<glyph unicode="a" horiz-adv-x="542" d="M362 202Q346 216 317 227T256 239Q218 239 190 221T161 169Q161 129 189 106T265 82Q295 82 320 87T362 103V202ZM487 48Q458 25 401 5T255 -15Q196 -15 153 0T82 40T40 100T26 171Q26 215 45 245T94 295T161 323T234 332Q247 332 264 330T300 324T334 313T362 298V350Q362 382 338 401T261 421Q211 421 173 410T119 391L81 483Q116 500 163 513T272 526Q336 526 377 512T443 470T477 405T487 319V48Z"  />
<glyph unicode="b" horiz-adv-x="606" d="M194 114Q210 105 230 100T286 94Q352 94 392 137T432 260Q432 290 424 318T400 369T361 404T306 418Q292 418 276 415T245 406T217 393T194 376V114ZM62 820H194V486Q206 493 222 500T257 513T294 522T328 526Q391 526 436 504T512 444T556 358T570 259Q570 192 546 141T483 55T392 3T286 -15Q232 -15 173 -2T62 47V820Z"  />
<glyph unicode="c" horiz-adv-x="524" d="M502 55Q494 47 478 36T437 13T377 -7T299 -15Q242 -15 194 6T110 63T54 149T34 255Q34 313 55 362T113 448T202 505T313 526Q345 526 373 519T424 503T462 484T485 468L440 374Q434 379 423 387T396 402T361 414T319 419Q289 419 262 408T214 375T181 324T168 254Q168 219 180 189T212 137T259 103T318 91Q344 91 367 97T410 112T442 130T461 145L502 55Z"  />
<glyph unicode="d" horiz-adv-x="604" d="M411 378Q394 396 365 406T307 417Q276 417 252 405T210 370T183 317T173 249Q173 213 184 184T216 135T262 103T317 92Q338 92 363 96T411 114V378ZM411 820H542V47Q488 14 430 0T317 -15Q263 -15 212 2T122 52T59 134T35 249Q35 310 55 361T110 448T195 505T303 526Q330 526 358 519T411 496V820Z"  />
<glyph unicode="e" horiz-adv-x="588" d="M425 304Q425 328 417 350T393 388T357 414T309 424Q252 424 215 393T167 304H425ZM537 48Q527 39 508 29T460 8T397 -8T318 -15Q255 -15 203 4T113 58T56 142T35 254Q35 312 55 362T112 448T198 505T308 526Q370 526 416 504T494 445T540 359T556 256V206H167Q172 170 189 148T232 112T287 94T347 89Q376 89 401 94T445 107T478 123T499 139L537 48Z"  />
<glyph unicode="f" horiz-adv-x="383" d="M108 0V407H23V510H108V601Q108 643 119 682T155 752T216 800T305 818Q339 818 381 809T457 774L409 679Q401 684 379 695T324 707Q279 707 259 679T239 600V510H367V407H239V0H108Z"  />
<glyph unicode="g" horiz-adv-x="597" d="M404 402Q388 408 368 413T323 418Q294 418 267 409T220 381T187 331T174 256Q174 230 181 201T204 148T242 109T298 93Q339 93 365 109T404 148V402ZM404 40Q392 27 376 17T343 -1T308 -11T275 -15Q229 -15 186 3T110 57T56 143T35 256Q35 322 58 372T121 456T211 508T318 526Q358 526 389 522T447 512T494 497T535 478V-24Q535 -96 513 -144T455 -220T376 -261T288 -273Q244 -273 207 -267T139 -250T87 -230T52 -210L106 -113Q114 -119 130 -128T170 -146T222 -160T284 -166Q309 -166 331 -160T369 -139T394 -101T404 -43V40Z"  />
<glyph unicode="h" horiz-adv-x="584" d="M393 0V273Q393 304 390 329T378 373T351 401T303 411Q286 411 269 405T237 391T211 372T194 354V0H63V820H194V459Q203 468 218 479T255 501T301 519T356 526Q438 526 481 483T524 342V0H393Z"  />
<glyph unicode="i" horiz-adv-x="265" d="M132 596Q97 596 74 618T50 678Q50 715 73 737T132 760Q170 760 192 737T214 678Q214 641 191 619T132 596ZM67 0V511H198V0H67Z"  />
<glyph unicode="j" horiz-adv-x="265" d="M131 596Q96 596 73 618T49 678Q49 715 72 737T131 760Q169 760 191 737T213 678Q213 641 190 619T131 596ZM-50 -170Q-7 -158 16 -147T51 -114T64 -57T67 39V511H198V35Q198 -32 192 -80T165 -164T105 -225T-1 -268L-50 -170Z"  />
<glyph unicode="k" horiz-adv-x="544" d="M381 0L194 224V0H63V819H194V310L351 511H513L309 275L548 0H381Z"  />
<glyph unicode="l" horiz-adv-x="257" d="M63 0V820H194V0H63Z"  />
<glyph unicode="m" horiz-adv-x="882" d="M691 0V322Q691 411 620 411Q602 411 585 406T554 393T528 376T508 357V0H377V327Q377 372 357 391T299 411Q283 411 267 405T237 391T211 373T194 356V0H63V511H194V458Q202 466 217 477T252 500T298 518T353 526Q384 526 405 518T441 498T463 473T477 449Q492 461 511 474T554 499T604 518T659 526Q738 526 780 482T822 344V0H691Z"  />
<glyph unicode="n" horiz-adv-x="584" d="M393 0V273Q393 304 390 329T378 373T351 401T303 411Q286 411 269 405T237 391T211 372T194 354V0H63V511H194V459Q203 468 218 479T255 501T301 519T356 526Q438 526 481 483T524 342V0H393Z"  />
<glyph unicode="o" horiz-adv-x="622" d="M310 87Q373 87 411 133T450 254Q450 290 439 320T410 373T367 407T314 420Q283 420 257 408T212 373T182 320T171 251Q171 215 182 185T213 134T258 100T310 87ZM588 254Q588 198 567 150T508 64T420 6T311 -15Q252 -15 202 6T114 63T56 149T34 254Q34 311 55 360T114 446T203 504T314 526Q372 526 422 505T509 446T567 359T588 254Z"  />
<glyph unicode="p" horiz-adv-x="604" d="M193 152Q219 115 248 105T310 94Q334 94 356 105T394 138T420 189T430 256Q430 290 420 319T391 371T344 405T281 417Q258 417 234 412T193 397V152ZM62 -255V469Q116 498 176 512T291 526Q345 526 395 510T484 459T546 375T569 257Q569 204 553 155T505 69T427 9T320 -14Q290 -14 255 -2T193 30V-255H62Z"  />
<glyph unicode="q" horiz-adv-x="612" d="M419 397Q404 405 381 411T334 418Q298 418 268 405T217 369T185 315T173 250Q173 212 184 183T215 134T258 104T309 93Q341 93 370 108T419 152V397ZM419 -255V31Q393 11 357 -1T285 -14Q236 -14 191 5T112 60T56 145T35 255Q35 322 60 373T127 458T221 509T329 526Q399 526 452 511T550 469V-255H419Z"  />
<glyph unicode="r" horiz-adv-x="401" d="M63 0V511H193V430Q197 440 207 456T231 487T263 514T305 525Q340 525 360 517T397 500L352 377Q340 385 323 394T282 403Q260 403 244 392T216 362T199 323T193 282V0H63Z"  />
<glyph unicode="s" horiz-adv-x="445" d="M66 143Q78 132 94 121T130 102T169 88T207 82Q219 82 230 84T252 94T268 112T274 140Q274 157 258 172T217 202T164 233T111 270T71 316T54 376Q54 406 66 433T102 482T158 515T232 528Q267 528 295 522T345 506T382 487T407 470L360 380Q357 384 347 392T323 408T291 422T255 429Q229 429 211 417T192 383Q192 363 208 348T248 319T300 289T352 253T392 207T408 145Q408 70 356 27T216 -16Q148 -16 99 5T18 49L66 143Z"  />
<glyph unicode="t" horiz-adv-x="384" d="M115 0V407H18V510H115V683H246V510H372V407H246V0H115Z"  />
<glyph unicode="u" horiz-adv-x="582" d="M390 511H521V56Q476 17 420 1T292 -15Q241 -15 199 -3T125 34T77 96T60 183V511H191V213Q191 175 200 152T226 114T263 95T306 90Q339 90 360 98T390 114V511Z"  />
<glyph unicode="v" horiz-adv-x="534" d="M237 -10L-8 511H134L242 259Q248 246 256 226T268 191H269Q273 205 280 225T294 259L400 511H541L301 -10H237Z"  />
<glyph unicode="w" horiz-adv-x="776" d="M500 -10L388 273L277 -10H210L-4 511H134L253 211L376 508H400L522 207L643 511H780L566 -10H500Z"  />
<glyph unicode="x" horiz-adv-x="561" d="M408 0L281 183L154 0H1L207 272L24 511H180L283 357L385 511H535L353 273L561 0H408Z"  />
<glyph unicode="y" horiz-adv-x="561" d="M24 -256L209 70L-8 511H137L276 194L426 511H571L168 -256H24Z"  />
<glyph unicode="z" horiz-adv-x="527" d="M4 1L291 407H58V510H500L220 104H495V1H4Z"  />
<glyph unicode="{" horiz-adv-x="389" d="M334 -201Q275 -194 235 -179T171 -138T137 -73T127 18V137Q127 164 122 187T102 231T64 271T3 310Q40 329 64 348T102 389T121 433T127 483V602Q127 655 137 693T171 757T235 799T334 821L361 724Q329 719 308 711T272 687T252 649T246 589V471Q246 418 234 382T188 310Q222 275 234 239T246 149V31Q246 -5 252 -28T272 -67T307 -90T361 -104L334 -201Z"  />
<glyph unicode="|" horiz-adv-x="268" d="M75 -260V820H193V-260H75Z"  />
<glyph unicode="}" horiz-adv-x="389" d="M28 -104Q59 -99 81 -91T117 -67T137 -29T143 31V149Q143 202 155 238T201 310Q167 345 155 381T143 471V589Q143 625 137 648T117 687T81 710T28 724L55 821Q114 814 154 799T218 758T252 693T262 602V483Q262 456 267 433T287 389T325 349T386 310Q349 291 325 272T287 231T268 187T262 137V18Q262 -35 252 -73T218 -137T154 -179T55 -201L28 -104Z"  />
<glyph unicode="~" horiz-adv-x="554" d="M510 481Q503 474 489 464T457 445T416 429T370 422Q350 422 329 430T287 448T243 466T198 474Q183 474 166 469T134 456T105 440T82 426L44 533Q53 541 69 552T106 573T148 590T191 597Q214 597 237 589T281 571T323 553T362 544Q382 544 399 549T431 562T456 577T473 590L510 481Z"  />
<glyph unicode="&#xA0;" horiz-adv-x="240" />
<glyph unicode="&#xA1;" horiz-adv-x="279" d="M138 401Q106 401 83 424T59 481Q59 496 65 510T82 535T107 553T138 560Q155 560 170 553T195 535T212 510T218 481Q218 448 196 425T138 401ZM56 -211L86 321H192L224 -211H56Z"  />
<glyph unicode="&#xA2;" horiz-adv-x="591" d="M280 513Q233 499 207 462T180 364Q180 307 206 267T280 211V513ZM280 -13V104Q231 113 190 136T118 193T70 272T53 369Q53 422 72 465T123 540T196 591T280 616V759H368V618Q397 615 425 605T477 581T518 556T542 537L480 456Q474 463 462 472T435 491T403 506T368 515V208Q389 208 410 216T449 235T480 256T499 273L540 186Q531 175 516 163T480 139T430 118T368 106V-13H280Z"  />
<glyph unicode="&#xA3;" horiz-adv-x="666" d="M625 4Q593 -5 559 -11T488 -18Q464 -18 441 -14T395 -4T347 5T299 10Q273 10 238 2T171 -17T114 -38T85 -50L43 51Q46 52 60 59T96 74T141 92T188 106V277H103V378H188V528Q188 647 239 700T381 753Q404 753 424 748T461 734T491 717T512 702L456 609Q451 612 445 617T429 627T410 635T387 639Q352 639 339 618T325 548V378H462V277H325V119Q347 117 366 113T404 105T441 97T482 93Q502 93 518 94T549 99T579 106T613 115L625 4Z"  />
<glyph unicode="&#xA4;" horiz-adv-x="724" d="M360 230Q385 230 407 240T446 267T473 306T483 354Q483 380 473 402T446 440T407 466T360 476Q337 476 316 467T277 441T250 402T239 354Q239 328 249 306T276 267T315 240T360 230ZM560 83L487 152Q460 137 429 127T360 117Q325 117 293 127T234 152L159 82L65 157L140 229Q123 255 113 286T103 354Q103 393 112 423T139 477L64 550L158 626L234 553Q261 570 293 580T360 590Q397 590 429 581T488 554L561 624L661 550L584 477Q601 452 610 423T619 354Q619 317 609 287T582 230L661 157L560 83Z"  />
<glyph unicode="&#xA5;" horiz-adv-x="809" d="M474 90V0H332V90H92V192H332V277H92V379H286L48 757H207L399 445Q401 438 402 433T405 414Q406 426 408 432T414 445L606 757H763L520 379H714V277H474V192H714V90H474Z"  />
<glyph unicode="&#xA6;" horiz-adv-x="272" d="M77 381V820H195V381H77ZM77 -260V179H195V-260H77Z"  />
<glyph unicode="&#xA7;" horiz-adv-x="592" d="M250 445Q218 443 197 435T161 412L340 130Q352 130 364 134T389 143T410 155T425 167L250 445ZM39 398Q53 438 95 476T194 542Q176 569 155 601T117 663Q121 676 140 693T186 727T245 761T310 791T370 812T416 820L446 700Q422 700 393 698T336 691T282 681T239 669Q314 547 393 423T548 180Q533 139 493 104T397 40Q418 4 445 -38T495 -115Q490 -129 471 -147T423 -183T361 -220T294 -253T232 -276T183 -285L153 -165Q177 -165 207 -162T268 -152T326 -139T372 -123L39 398Z"  />
<glyph unicode="&#xA8;" horiz-adv-x="495" d="M445 648Q445 620 425 600T369 580Q337 580 317 600T296 648Q296 678 316 698T369 719Q404 719 424 699T445 648ZM200 648Q200 620 178 600T124 580Q94 580 72 600T50 648Q50 678 72 698T124 719Q156 719 178 699T200 648Z"  />
<glyph unicode="&#xA9;" horiz-adv-x="911" d="M456 62Q520 62 576 86T674 152T740 250T764 371Q764 435 740 491T674 590T576 656T456 680Q391 680 335 656T237 590T171 492T147 371Q147 307 171 251T236 152T334 86T456 62ZM858 371Q858 288 827 216T741 89T613 4T456 -27Q372 -27 299 4T171 89T85 215T53 371Q53 454 84 526T171 653T299 738T456 770Q539 770 612 739T740 653T826 527T858 371ZM654 203Q621 172 577 156T474 140Q415 140 365 159T279 210T222 285T201 376Q201 424 219 467T272 542T355 594T462 613Q504 613 536 605T592 584T629 561T648 543L589 466Q561 491 529 501T458 511Q427 511 403 501T361 472T334 428T325 374Q325 347 336 323T368 281T416 253T475 242Q503 242 525 246T563 256T588 267T602 276L654 203Z"  />
<glyph unicode="&#xAA;" horiz-adv-x="463" d="M283 513Q272 519 257 523T226 528Q201 528 185 518T168 491Q168 472 182 460T228 447Q244 447 258 450T283 458V513ZM406 412Q369 383 322 373T222 363Q175 363 141 373T85 402T51 443T40 494Q40 525 54 546T92 581T143 600T201 606Q230 606 249 602T282 594V622Q282 636 264 646T210 657Q183 657 156 650T114 637L79 709Q110 723 148 731T236 740Q287 740 319 730T371 700T398 653T406 590V412Z"  />
<glyph unicode="&#xAB;" horiz-adv-x="642" d="M463 25L311 238L459 451H599L438 239L605 25H463ZM191 25L39 238L187 451H331L171 237L335 25H191Z"  />
<glyph unicode="&#xAC;" horiz-adv-x="721" d="M508 93V308H61V419H644V93H508Z"  />
<glyph unicode="&#xAD;" horiz-adv-x="423" d="M65 191L80 299H358L343 191H65Z"  />
<glyph unicode="&#xAE;" horiz-adv-x="712" d="M345 497Q374 498 387 508T400 537Q400 553 388 563T349 573H326V497H345ZM400 327L333 429L326 439V327H236V650H360Q384 650 406 642T446 619T475 583T486 537Q486 505 470 477T418 438L501 327H400ZM357 263Q401 263 440 280T508 326T555 395T572 479Q572 524 555 563T509 631T440 678T357 695Q312 695 273 679T204 635T158 566T141 479Q141 434 158 395T204 327T272 280T357 263ZM652 478Q652 417 629 364T565 271T470 208T356 185Q295 185 242 208T148 270T84 363T60 478Q60 539 83 592T147 686T241 749T356 772Q416 772 470 749T564 686T628 593T652 478Z"  />
<glyph unicode="&#xAF;" horiz-adv-x="525" d="M52 578V687H473V578H52Z"  />
<glyph unicode="&#xB0;" horiz-adv-x="436" d="M218 549Q244 549 261 569T279 619Q279 649 262 670T218 691Q194 691 176 670T158 619Q158 590 176 570T218 549ZM395 619Q395 586 382 557T344 507T288 473T218 460Q181 460 149 472T92 506T55 557T41 619Q41 653 54 682T92 733T148 767T218 780Q255 780 287 768T344 733T381 682T395 619Z"  />
<glyph unicode="&#xB1;" horiz-adv-x="714" d="M65 1V110H649V1H65ZM422 364V159H292V364H65V473H292V679H422V473H649V364H422Z"  />
<glyph unicode="&#xB2;" horiz-adv-x="508" d="M37 296Q70 319 122 364T235 473Q271 511 287 545T304 605Q304 630 290 644T250 658Q216 658 190 642T147 609L88 689Q99 699 116 711T155 733T204 751T262 758Q339 758 385 718T432 609Q432 576 418 545T383 486T336 436T288 397H455V296H37Z"  />
<glyph unicode="&#xB3;" horiz-adv-x="427" d="M84 421Q90 415 102 408T129 396T160 388T192 384Q227 384 244 401T261 439Q261 473 229 488T152 504Q145 504 139 504T124 503V573Q129 572 134 572T144 572Q180 572 207 585T235 622Q235 643 222 651T190 659Q166 659 144 650T113 636L78 725Q94 738 130 748T211 758Q247 758 275 749T322 723T351 687T361 645Q361 619 347 593T300 547Q340 531 361 498T383 427Q383 401 372 375T338 329T278 297T192 284Q159 284 133 289T86 303T52 321T31 336L84 421Z"  />
<glyph unicode="&#xB4;" horiz-adv-x="364" d="M112 583L50 629L208 830L314 750L112 583Z"  />
<glyph unicode="&#xB5;" horiz-adv-x="629" d="M440 0V60Q419 22 389 4T324 -14Q292 -14 262 1T208 46V-255H77V511H208V143Q229 116 258 102T318 88Q342 88 364 96T403 120T430 162T440 220V511H571V0H440Z"  />
<glyph unicode="&#xB6;" horiz-adv-x="593" d="M306 259Q244 257 195 277T112 331T60 408T41 496Q41 542 59 588T112 671T195 731T306 754V259ZM366 -155V757H496V-155H366Z"  />
<glyph unicode="&#xB7;" horiz-adv-x="270" d="M217 359Q217 344 211 331T193 308T167 291T135 285Q118 285 103 291T77 307T60 331T53 359Q53 391 77 412T135 434Q170 434 193 413T217 359Z"  />
<glyph unicode="&#xB8;" horiz-adv-x="317" d="M28 -257L114 -52H273L148 -257H28Z"  />
<glyph unicode="&#xB9;" horiz-adv-x="341" d="M141 294V611L66 584L20 678L270 765V294H141Z"  />
<glyph unicode="&#xBA;" horiz-adv-x="504" d="M251 455Q288 455 310 481T333 550Q333 571 327 589T311 620T286 641T255 649Q219 649 194 620T169 548Q169 528 176 511T194 482T221 462T251 455ZM465 550Q465 512 449 478T404 419T336 378T252 363Q207 363 168 377T101 417T56 477T39 550Q39 589 55 623T100 684T168 725T252 740Q297 740 336 725T403 683T448 623T465 550Z"  />
<glyph unicode="&#xBB;" horiz-adv-x="633" d="M308 24L473 237L312 451H448L595 238L444 24H308ZM40 24L205 237L44 451H184L332 238L180 24H40Z"  />
<glyph unicode="&#xBC;" horiz-adv-x="977" d="M739 281L623 149H739V281ZM851 60V-12H734V60H495V135L770 453H851V156H926V60H851ZM158 294V611L83 584L37 678L287 765V294H158ZM204 8L602 775L712 726L311 -40L204 8Z"  />
<glyph unicode="&#xBD;" horiz-adv-x="1016" d="M545 0Q578 23 630 68T743 177Q779 215 795 249T812 309Q812 334 798 348T758 362Q724 362 698 346T655 313L596 393Q607 403 624 415T663 437T712 455T770 462Q847 462 893 422T940 313Q940 280 926 249T891 190T844 140T796 101H963V0H545ZM158 294V611L83 584L37 678L287 765V294H158ZM204 8L602 775L712 726L311 -40L204 8Z"  />
<glyph unicode="&#xBE;" horiz-adv-x="1054" d="M95 421Q101 415 113 408T140 396T171 388T203 384Q238 384 255 401T272 439Q272 473 240 488T163 504Q156 504 150 504T135 503V573Q140 572 145 572T155 572Q191 572 218 585T246 622Q246 643 233 651T201 659Q177 659 155 650T124 636L89 725Q105 738 141 748T222 758Q258 758 286 749T333 723T362 687T372 645Q372 619 358 593T311 547Q351 531 372 498T394 427Q394 401 383 375T349 329T289 297T203 284Q170 284 144 289T97 303T63 321T42 336L95 421ZM819 281L703 149H819V281ZM931 60V-12H814V60H575V135L850 453H931V156H1006V60H931ZM284 8L682 775L792 726L391 -40L284 8Z"  />
<glyph unicode="&#xBF;" horiz-adv-x="472" d="M250 382Q217 382 195 405T173 461Q173 476 179 490T195 515T219 533T250 540Q266 540 280 533T304 515T321 490T327 461Q327 428 305 405T250 382ZM399 -178Q387 -188 370 -200T332 -223T286 -241T233 -249Q194 -249 165 -237T117 -204T89 -157T79 -105Q79 -73 95 -47T135 1T186 44T238 83T278 120T294 159Q294 180 280 196T242 212Q217 212 195 203T156 181T125 155T106 132L41 197Q51 212 70 232T115 270T174 300T246 313Q278 313 310 303T367 273T409 225T425 161Q425 125 410 97T370 47T319 7T268 -30T229 -67T213 -109Q213 -126 226 -137T254 -149Q290 -149 310 -137T348 -108L399 -178Z"  />
<glyph unicode="&#xC0;" horiz-adv-x="760" d="M379 498L266 258H494L379 498ZM617 0L551 139H208L142 0H-16L380 790L776 0H617ZM188 877L240 991L555 921L520 827L188 877Z"  />
<glyph unicode="&#xC1;" horiz-adv-x="760" d="M379 498L266 258H494L379 498ZM617 0L551 139H208L142 0H-16L380 790L776 0H617ZM217 828L191 922L506 992L549 877L217 828Z"  />
<glyph unicode="&#xC2;" horiz-adv-x="760" d="M379 498L266 258H494L379 498ZM617 0L551 139H208L142 0H-16L380 790L776 0H617ZM542 802L379 865L210 798L144 877L380 990L619 875L542 802Z"  />
<glyph unicode="&#xC3;" horiz-adv-x="760" d="M379 498L266 258H494L379 498ZM617 0L551 139H208L142 0H-16L380 790L776 0H617ZM584 911Q571 898 554 883T516 855T471 834T421 825Q403 825 388 831T357 846T327 860T295 867Q283 867 270 861T245 845T221 826T201 809L133 892Q145 903 164 917T207 945T254 968T299 978Q318 978 334 972T365 957T394 942T424 935Q437 935 451 942T477 960T500 982T516 1001L584 911Z"  />
<glyph unicode="&#xC4;" horiz-adv-x="760" d="M379 498L266 258H494L379 498ZM617 0L551 139H208L142 0H-16L380 790L776 0H617ZM591 899Q591 869 569 847T506 825Q470 825 447 847T424 899Q424 931 447 952T506 974Q546 974 568 953T591 899ZM327 899Q327 869 303 847T242 825Q208 825 184 847T159 899Q159 931 183 952T242 974Q278 974 302 953T327 899Z"  />
<glyph unicode="&#xC5;" horiz-adv-x="760" d="M379 498L266 258H494L379 498ZM617 0L551 139H208L142 0H-16L380 790L776 0H617ZM380 886Q400 886 414 900T428 935Q428 955 414 970T380 985Q360 985 346 970T332 935Q332 915 346 901T380 886ZM507 935Q507 909 497 887T470 847T430 821T379 811Q352 811 329 820T288 847T261 886T251 935Q251 961 261 983T288 1023T329 1049T379 1059Q406 1059 429 1049T470 1022T497 983T507 935Z"  />
<glyph unicode="&#xC6;" horiz-adv-x="1025" d="M493 537L331 282H493V537ZM493 1V163H255L152 0H-23L493 756H943V628H635V465H883V336H635V130H992V1H493Z"  />
<glyph unicode="&#xC7;" horiz-adv-x="767" d="M280 -247L373 -61H516L399 -247H280ZM735 84Q683 33 616 8T461 -17Q370 -17 293 14T160 100T72 226T40 378Q40 459 69 531T153 657T282 742T448 774Q510 774 559 761T644 729T700 693T729 665L654 567Q613 605 561 625T441 646Q386 646 340 626T261 569T210 483T192 374Q192 319 213 271T271 187T357 131T462 110Q505 110 539 117T600 134T643 156T670 176L735 84Z"  />
<glyph unicode="&#xC8;" horiz-adv-x="601" d="M81 1V756H531V628H223V465H471V336H223V130H562V1H81ZM123 867L166 981L481 911L456 817L123 867Z"  />
<glyph unicode="&#xC9;" horiz-adv-x="601" d="M81 1V756H531V628H223V465H471V336H223V130H562V1H81ZM151 828L123 922L438 992L484 877L151 828Z"  />
<glyph unicode="&#xCA;" horiz-adv-x="601" d="M461 811L299 872L130 808L64 887L300 1000L539 884L461 811ZM81 1V756H531V628H223V465H471V336H223V130H562V1H81Z"  />
<glyph unicode="&#xCB;" horiz-adv-x="601" d="M81 1V756H531V628H223V465H471V336H223V130H562V1H81ZM515 883Q515 853 494 832T440 810Q408 810 388 831T367 883Q367 915 387 936T440 958Q472 958 493 937T515 883ZM249 882Q249 852 227 831T173 809Q143 809 121 830T99 882Q99 914 121 935T173 957Q205 957 227 936T249 882Z"  />
<glyph unicode="&#xCC;" horiz-adv-x="304" d="M-28 877L15 991L330 921L305 827L-28 877ZM81 0V757H223V0H81Z"  />
<glyph unicode="&#xCD;" horiz-adv-x="304" d="M3 821L-25 915L290 985L336 870L3 821ZM81 0V757H223V0H81Z"  />
<glyph unicode="&#xCE;" horiz-adv-x="304" d="M314 821L152 882L-17 818L-83 897L153 1010L392 894L314 821ZM81 0V757H223V0H81Z"  />
<glyph unicode="&#xCF;" horiz-adv-x="304" d="M350 888Q350 860 330 840T274 820Q242 820 222 840T201 888Q201 918 221 938T274 959Q309 959 329 939T350 888ZM105 888Q105 860 83 840T29 820Q-1 820 -23 840T-45 888Q-45 918 -23 938T29 959Q61 959 83 939T105 888ZM81 0V757H223V0H81Z"  />
<glyph unicode="&#xD0;" horiz-adv-x="785" d="M330 129Q382 129 429 142T512 186T568 264T589 381Q589 435 572 480T522 558T446 609T348 628H242V443H422V318H242V129H330ZM100 0V318H13V443H100V757H330Q415 757 490 733T620 661T708 542T741 378Q741 288 710 218T622 99T485 25T306 0H100Z"  />
<glyph unicode="&#xD1;" horiz-adv-x="859" d="M640 910Q635 904 620 890T583 860T536 834T485 822Q465 822 449 829T418 845T388 861T356 869Q342 869 327 863T297 849T270 831T251 816L195 893Q207 902 226 916T268 943T315 967T359 977Q379 977 394 969T424 952T453 935T484 927Q496 927 511 934T541 952T567 973T585 990L640 910ZM220 462L222 0H80L82 778L638 275L637 757H779L777 -28L220 462Z"  />
<glyph unicode="&#xD2;" horiz-adv-x="907" d="M716 376Q716 434 695 483T639 569T556 625T455 646Q401 646 353 626T268 570T211 486T190 382Q190 329 210 280T266 193T348 133T448 110Q504 110 553 130T638 187T695 271T716 376ZM868 375Q868 294 835 223T746 99T614 14T455 -17Q368 -17 293 14T161 99T72 225T39 378Q39 459 71 531T160 657T292 742T455 774Q540 774 615 744T747 660T835 534T868 375ZM249 877L296 991L611 921L582 827L249 877Z"  />
<glyph unicode="&#xD3;" horiz-adv-x="907" d="M716 376Q716 434 695 483T639 569T556 625T455 646Q401 646 353 626T268 570T211 486T190 382Q190 329 210 280T266 193T348 133T448 110Q504 110 553 130T638 187T695 271T716 376ZM868 375Q868 294 835 223T746 99T614 14T455 -17Q368 -17 293 14T161 99T72 225T39 378Q39 459 71 531T160 657T292 742T455 774Q540 774 615 744T747 660T835 534T868 375ZM287 828L262 922L577 992L620 877L287 828Z"  />
<glyph unicode="&#xD4;" horiz-adv-x="907" d="M451 862L282 798L216 877L452 990L680 872L613 799L451 862ZM716 376Q716 434 695 483T639 569T556 625T455 646Q401 646 353 626T268 570T211 486T190 382Q190 329 210 280T266 193T348 133T448 110Q504 110 553 130T638 187T695 271T716 376ZM868 375Q868 294 835 223T746 99T614 14T455 -17Q368 -17 293 14T161 99T72 225T39 378Q39 459 71 531T160 657T292 742T455 774Q540 774 615 744T747 660T835 534T868 375Z"  />
<glyph unicode="&#xD5;" horiz-adv-x="907" d="M716 376Q716 434 695 483T639 569T556 625T455 646Q401 646 353 626T268 570T211 486T190 382Q190 329 210 280T266 193T348 133T448 110Q504 110 553 130T638 187T695 271T716 376ZM868 375Q868 294 835 223T746 99T614 14T455 -17Q368 -17 293 14T161 99T72 225T39 378Q39 459 71 531T160 657T292 742T455 774Q540 774 615 744T747 660T835 534T868 375ZM668 911Q656 898 639 883T601 855T556 834T506 825Q488 825 473 831T442 846T411 860T380 867Q368 867 355 861T330 845T306 826T286 809L218 892Q230 903 249 917T292 945T339 968T384 978Q402 978 418 972T449 957T479 942T509 935Q522 935 536 942T562 960T585 982T601 1001L668 911Z"  />
<glyph unicode="&#xD6;" horiz-adv-x="907" d="M716 376Q716 434 695 483T639 569T556 625T455 646Q401 646 353 626T268 570T211 486T190 382Q190 329 210 280T266 193T348 133T448 110Q504 110 553 130T638 187T695 271T716 376ZM868 375Q868 294 835 223T746 99T614 14T455 -17Q368 -17 293 14T161 99T72 225T39 378Q39 459 71 531T160 657T292 742T455 774Q540 774 615 744T747 660T835 534T868 375ZM743 866Q743 836 722 815T666 793Q633 793 612 814T591 866Q591 898 612 919T666 941Q701 941 722 920T743 866ZM308 866Q308 836 286 815T231 793Q200 793 178 814T155 866Q155 898 177 919T231 941Q263 941 285 920T308 866Z"  />
<glyph unicode="&#xD7;" horiz-adv-x="676" d="M524 104L338 279L154 106L59 172L252 351Q206 395 155 443T62 530L154 601L340 425L524 602L615 530L427 352L616 174L524 104Z"  />
<glyph unicode="&#xD8;" horiz-adv-x="907" d="M419 113Q426 111 432 111T446 111Q500 111 549 130T635 185T694 269T716 376Q716 445 688 499T615 587L419 113ZM496 641Q486 644 475 645T453 646Q397 645 349 625T266 570T211 487T190 382Q190 313 220 257T301 163L496 641ZM185 -106L244 37Q199 62 162 98T97 178T54 273T39 378Q39 459 71 531T158 658T290 743T453 775Q502 775 548 764L601 884L724 839L670 716Q715 690 751 655T814 577T854 482T868 375Q868 294 835 223T746 99T615 14T455 -17Q432 -17 410 -15T367 -8L309 -142L185 -106Z"  />
<glyph unicode="&#xD9;" horiz-adv-x="780" d="M187 876L230 990L545 920L520 826L187 876ZM560 757H702V93Q658 47 581 15T388 -18Q237 -18 157 55T76 279V757H218V361Q218 290 226 242T256 164T315 122T411 109Q457 109 494 120T560 149V757Z"  />
<glyph unicode="&#xDA;" horiz-adv-x="780" d="M242 828L214 922L529 992L575 877L242 828ZM560 757H702V93Q658 47 581 15T388 -18Q237 -18 157 55T76 279V757H218V361Q218 290 226 242T256 164T315 122T411 109Q457 109 494 120T560 149V757Z"  />
<glyph unicode="&#xDB;" horiz-adv-x="780" d="M542 801L380 862L211 798L145 877L381 990L620 874L542 801ZM560 757H702V93Q658 47 581 15T388 -18Q237 -18 157 55T76 279V757H218V361Q218 290 226 242T256 164T315 122T411 109Q457 109 494 120T560 149V757Z"  />
<glyph unicode="&#xDC;" horiz-adv-x="780" d="M560 757H702V93Q658 47 581 15T388 -18Q237 -18 157 55T76 279V757H218V361Q218 290 226 242T256 164T315 122T411 109Q457 109 494 120T560 149V757ZM707 878Q707 848 686 827T627 805Q594 805 573 826T551 878Q551 910 572 931T627 953Q664 953 685 932T707 878ZM229 878Q229 848 206 827T150 805Q118 805 95 826T72 878Q72 910 95 931T150 953Q183 953 206 932T229 878Z"  />
<glyph unicode="&#xDD;" horiz-adv-x="677" d="M267 0V307L-17 757H142L342 431L541 757H698L409 307V0H267ZM333 765L246 824L421 1013L537 933L333 765Z"  />
<glyph unicode="&#xDE;" horiz-adv-x="608" d="M273 261Q351 261 389 293T428 383Q428 435 395 466T289 498H223V261H273ZM81 0V757H223V627H250Q321 627 381 615T485 575T553 500T578 383Q578 326 560 280T505 201T410 150T276 132H223V0H81Z"  />
<glyph unicode="&#xDF;" horiz-adv-x="638" d="M323 -128Q353 -123 378 -108T423 -69T454 -18T465 42Q465 95 435 122T358 150Q320 150 278 132L417 407H238V0H106V407H26V510H106V601Q106 643 117 682T151 751T212 800T300 818Q327 818 365 812T437 786L386 691Q360 707 323 707Q277 707 258 679T238 600V510H600L444 223Q483 220 513 205T564 164T594 108T605 41Q605 -3 588 -48T537 -133T449 -203T323 -246V-128Z"  />
<glyph unicode="&#xE0;" horiz-adv-x="542" d="M362 202Q346 216 317 227T256 239Q218 239 190 221T161 169Q161 129 189 106T265 82Q295 82 320 87T362 103V202ZM487 48Q458 25 401 5T255 -15Q196 -15 153 0T82 40T40 100T26 171Q26 215 45 245T94 295T161 323T234 332Q247 332 264 330T300 324T334 313T362 298V350Q362 382 338 401T261 421Q211 421 173 410T119 391L81 483Q116 500 163 513T272 526Q336 526 377 512T443 470T477 405T487 319V48ZM308 583L106 750L212 830L370 629L308 583Z"  />
<glyph unicode="&#xE1;" horiz-adv-x="542" d="M362 202Q346 216 317 227T256 239Q218 239 190 221T161 169Q161 129 189 106T265 82Q295 82 320 87T362 103V202ZM487 48Q458 25 401 5T255 -15Q196 -15 153 0T82 40T40 100T26 171Q26 215 45 245T94 295T161 323T234 332Q247 332 264 330T300 324T334 313T362 298V350Q362 382 338 401T261 421Q211 421 173 410T119 391L81 483Q116 500 163 513T272 526Q336 526 377 512T443 470T477 405T487 319V48ZM242 583L180 629L338 830L444 750L242 583Z"  />
<glyph unicode="&#xE2;" horiz-adv-x="542" d="M362 202Q346 216 317 227T256 239Q218 239 190 221T161 169Q161 129 189 106T265 82Q295 82 320 87T362 103V202ZM487 48Q458 25 401 5T255 -15Q196 -15 153 0T82 40T40 100T26 171Q26 215 45 245T94 295T161 323T234 332Q247 332 264 330T300 324T334 313T362 298V350Q362 382 338 401T261 421Q211 421 173 410T119 391L81 483Q116 500 163 513T272 526Q336 526 377 512T443 470T477 405T487 319V48ZM272 659L149 570L79 649L273 786L465 649L397 570L272 659Z"  />
<glyph unicode="&#xE3;" horiz-adv-x="542" d="M362 202Q346 216 317 227T256 239Q218 239 190 221T161 169Q161 129 189 106T265 82Q295 82 320 87T362 103V202ZM487 48Q458 25 401 5T255 -15Q196 -15 153 0T82 40T40 100T26 171Q26 215 45 245T94 295T161 323T234 332Q247 332 264 330T300 324T334 313T362 298V350Q362 382 338 401T261 421Q211 421 173 410T119 391L81 483Q116 500 163 513T272 526Q336 526 377 512T443 470T477 405T487 319V48ZM475 657Q470 651 458 637T428 609T388 585T340 574Q320 574 304 582T273 599T244 617T212 625Q198 625 186 620T162 608T142 594T126 580L70 657Q82 666 99 678T138 703T181 723T224 731Q244 731 259 723T289 706T318 689T349 681Q361 681 373 686T397 698T417 713T432 727L475 657Z"  />
<glyph unicode="&#xE4;" horiz-adv-x="542" d="M362 202Q346 216 317 227T256 239Q218 239 190 221T161 169Q161 129 189 106T265 82Q295 82 320 87T362 103V202ZM487 48Q458 25 401 5T255 -15Q196 -15 153 0T82 40T40 100T26 171Q26 215 45 245T94 295T161 323T234 332Q247 332 264 330T300 324T334 313T362 298V350Q362 382 338 401T261 421Q211 421 173 410T119 391L81 483Q116 500 163 513T272 526Q336 526 377 512T443 470T477 405T487 319V48ZM225 648Q225 620 203 600T149 580Q119 580 97 600T75 648Q75 678 97 698T149 719Q181 719 203 699T225 648ZM470 648Q470 620 450 600T394 580Q362 580 342 600T321 648Q321 678 341 698T394 719Q429 719 449 699T470 648Z"  />
<glyph unicode="&#xE5;" horiz-adv-x="542" d="M362 202Q346 216 317 227T256 239Q218 239 190 221T161 169Q161 129 189 106T265 82Q295 82 320 87T362 103V202ZM487 48Q458 25 401 5T255 -15Q196 -15 153 0T82 40T40 100T26 171Q26 215 45 245T94 295T161 323T234 332Q247 332 264 330T300 324T334 313T362 298V350Q362 382 338 401T261 421Q211 421 173 410T119 391L81 483Q116 500 163 513T272 526Q336 526 377 512T443 470T477 405T487 319V48ZM400 703Q400 677 390 655T363 615T323 589T272 579Q245 579 222 588T181 615T154 654T144 703Q144 729 154 751T181 791T222 817T272 827Q299 827 322 817T363 790T390 751T400 703ZM273 654Q293 654 307 668T321 703Q321 723 307 738T273 753Q253 753 239 738T225 703Q225 683 239 669T273 654Z"  />
<glyph unicode="&#xE6;" horiz-adv-x="910" d="M747 304Q747 328 739 350T715 388T679 414T631 424Q574 424 537 393T489 304H747ZM390 116Q365 153 362 202Q346 216 317 227T256 239Q218 239 190 221T161 169Q161 129 189 106T265 82Q292 82 321 88T390 116ZM859 48Q849 39 830 29T782 8T719 -8T640 -15Q537 -15 466 33Q434 14 382 0T255 -15Q196 -15 153 0T82 40T40 100T26 171Q26 215 45 245T94 295T161 323T234 332Q247 332 264 330T300 324T334 313T362 298V350Q362 382 338 401T261 421Q211 421 173 410T119 391L81 483Q116 500 163 513T272 526Q340 526 383 510T449 462Q484 492 530 509T630 526Q692 526 738 504T816 445T862 359T878 256V206H489Q494 170 511 148T554 112T609 94T669 89Q698 89 723 94T767 107T800 123T821 139L859 48Z"  />
<glyph unicode="&#xE7;" horiz-adv-x="524" d="M502 55Q494 47 478 36T437 13T377 -7T299 -15Q242 -15 194 6T110 63T54 149T34 255Q34 313 55 362T113 448T202 505T313 526Q345 526 373 519T424 503T462 484T485 468L440 374Q434 379 423 387T396 402T361 414T319 419Q289 419 262 408T214 375T181 324T168 254Q168 219 180 189T212 137T259 103T318 91Q344 91 367 97T410 112T442 130T461 145L502 55ZM144 -247L232 -61H370L253 -247H144Z"  />
<glyph unicode="&#xE8;" horiz-adv-x="588" d="M339 583L137 750L243 830L401 629L339 583ZM425 304Q425 328 417 350T393 388T357 414T309 424Q252 424 215 393T167 304H425ZM537 48Q527 39 508 29T460 8T397 -8T318 -15Q255 -15 203 4T113 58T56 142T35 254Q35 312 55 362T112 448T198 505T308 526Q370 526 416 504T494 445T540 359T556 256V206H167Q172 170 189 148T232 112T287 94T347 89Q376 89 401 94T445 107T478 123T499 139L537 48Z"  />
<glyph unicode="&#xE9;" horiz-adv-x="588" d="M247 583L185 629L343 830L449 750L247 583ZM425 304Q425 328 417 350T393 388T357 414T309 424Q252 424 215 393T167 304H425ZM537 48Q527 39 508 29T460 8T397 -8T318 -15Q255 -15 203 4T113 58T56 142T35 254Q35 312 55 362T112 448T198 505T308 526Q370 526 416 504T494 445T540 359T556 256V206H167Q172 170 189 148T232 112T287 94T347 89Q376 89 401 94T445 107T478 123T499 139L537 48Z"  />
<glyph unicode="&#xEA;" horiz-adv-x="588" d="M298 659L175 570L105 649L299 786L491 649L423 570L298 659ZM425 304Q425 328 417 350T393 388T357 414T309 424Q252 424 215 393T167 304H425ZM537 48Q527 39 508 29T460 8T397 -8T318 -15Q255 -15 203 4T113 58T56 142T35 254Q35 312 55 362T112 448T198 505T308 526Q370 526 416 504T494 445T540 359T556 256V206H167Q172 170 189 148T232 112T287 94T347 89Q376 89 401 94T445 107T478 123T499 139L537 48Z"  />
<glyph unicode="&#xEB;" horiz-adv-x="588" d="M495 648Q495 620 475 600T419 580Q387 580 367 600T346 648Q346 678 366 698T419 719Q454 719 474 699T495 648ZM250 648Q250 620 228 600T174 580Q144 580 122 600T100 648Q100 678 122 698T174 719Q206 719 228 699T250 648ZM425 304Q425 328 417 350T393 388T357 414T309 424Q252 424 215 393T167 304H425ZM537 48Q527 39 508 29T460 8T397 -8T318 -15Q255 -15 203 4T113 58T56 142T35 254Q35 312 55 362T112 448T198 505T308 526Q370 526 416 504T494 445T540 359T556 256V206H167Q172 170 189 148T232 112T287 94T347 89Q376 89 401 94T445 107T478 123T499 139L537 48Z"  />
<glyph unicode="&#xEC;" horiz-adv-x="265" d="M157 583L-45 750L61 830L219 629L157 583ZM67 0V511H198V0H67Z"  />
<glyph unicode="&#xED;" horiz-adv-x="265" d="M107 583L45 629L203 830L309 750L107 583ZM67 0V511H198V0H67Z"  />
<glyph unicode="&#xEE;" horiz-adv-x="265" d="M132 659L9 570L-61 649L133 786L325 649L257 570L132 659ZM67 0V511H198V0H67Z"  />
<glyph unicode="&#xEF;" horiz-adv-x="265" d="M310 648Q310 620 290 600T234 580Q202 580 182 600T161 648Q161 678 181 698T234 719Q269 719 289 699T310 648ZM105 648Q105 620 83 600T29 580Q-1 580 -23 600T-45 648Q-45 678 -23 698T29 719Q61 719 83 699T105 648ZM67 0V511H198V0H67Z"  />
<glyph unicode="&#xF0;" horiz-adv-x="624" d="M307 87Q336 87 361 98T406 130T436 179T447 243Q447 273 437 301T409 350T364 385T307 399Q272 399 247 386T204 350T179 298T171 239Q171 213 181 186T209 137T252 101T307 87ZM427 654Q458 613 486 567T537 469T572 363T585 249Q585 196 564 148T506 64T418 7T308 -15Q246 -15 196 7T109 65T54 147T34 241Q34 292 54 338T109 421T189 478T286 500Q341 500 394 472Q380 501 362 531T321 591L250 549L196 624L264 664Q224 712 179 753T86 825H276Q295 805 318 780T368 725L481 792L528 714L427 654Z"  />
<glyph unicode="&#xF1;" horiz-adv-x="584" d="M485 657Q480 651 468 637T438 609T398 585T350 574Q330 574 314 582T283 599T254 617T222 625Q208 625 196 620T172 608T152 594T136 580L80 657Q92 666 109 678T148 703T191 723T234 731Q254 731 269 723T299 706T328 689T359 681Q371 681 383 686T407 698T427 713T442 727L485 657ZM393 0V273Q393 304 390 329T378 373T351 401T303 411Q286 411 269 405T237 391T211 372T194 354V0H63V511H194V459Q203 468 218 479T255 501T301 519T356 526Q438 526 481 483T524 342V0H393Z"  />
<glyph unicode="&#xF2;" horiz-adv-x="622" d="M335 583L134 750L250 830L427 639L335 583ZM310 87Q373 87 411 133T450 254Q450 290 439 320T410 373T367 407T314 420Q283 420 257 408T212 373T182 320T171 251Q171 215 182 185T213 134T258 100T310 87ZM588 254Q588 198 567 150T508 64T420 6T311 -15Q252 -15 202 6T114 63T56 149T34 254Q34 311 55 360T114 446T203 504T314 526Q372 526 422 505T509 446T567 359T588 254Z"  />
<glyph unicode="&#xF3;" horiz-adv-x="622" d="M290 583L199 639L376 830L492 750L290 583ZM310 87Q373 87 411 133T450 254Q450 290 439 320T410 373T367 407T314 420Q283 420 257 408T212 373T182 320T171 251Q171 215 182 185T213 134T258 100T310 87ZM588 254Q588 198 567 150T508 64T420 6T311 -15Q252 -15 202 6T114 63T56 149T34 254Q34 311 55 360T114 446T203 504T314 526Q372 526 422 505T509 446T567 359T588 254Z"  />
<glyph unicode="&#xF4;" horiz-adv-x="622" d="M304 639L181 560L111 639L305 776L497 639L429 560L304 639ZM310 87Q373 87 411 133T450 254Q450 290 439 320T410 373T367 407T314 420Q283 420 257 408T212 373T182 320T171 251Q171 215 182 185T213 134T258 100T310 87ZM588 254Q588 198 567 150T508 64T420 6T311 -15Q252 -15 202 6T114 63T56 149T34 254Q34 311 55 360T114 446T203 504T314 526Q372 526 422 505T509 446T567 359T588 254Z"  />
<glyph unicode="&#xF5;" horiz-adv-x="622" d="M513 680Q508 672 497 657T468 625T427 596T377 584Q360 584 345 590T316 603T288 617T259 624Q245 624 232 618T208 604T187 587T172 571L110 642Q121 652 139 667T177 697T220 721T263 731Q281 731 295 725T324 711T351 697T380 691Q393 691 406 697T432 713T453 732T469 748L513 680ZM310 87Q373 87 411 133T450 254Q450 290 439 320T410 373T367 407T314 420Q283 420 257 408T212 373T182 320T171 251Q171 215 182 185T213 134T258 100T310 87ZM588 254Q588 198 567 150T508 64T420 6T311 -15Q252 -15 202 6T114 63T56 149T34 254Q34 311 55 360T114 446T203 504T314 526Q372 526 422 505T509 446T567 359T588 254Z"  />
<glyph unicode="&#xF6;" horiz-adv-x="622" d="M509 656Q509 628 489 608T433 588Q401 588 381 608T360 656Q360 686 380 706T433 727Q468 727 488 707T509 656ZM264 656Q264 628 242 608T188 588Q158 588 136 608T114 656Q114 686 136 706T188 727Q220 727 242 707T264 656ZM310 87Q373 87 411 133T450 254Q450 290 439 320T410 373T367 407T314 420Q283 420 257 408T212 373T182 320T171 251Q171 215 182 185T213 134T258 100T310 87ZM588 254Q588 198 567 150T508 64T420 6T311 -15Q252 -15 202 6T114 63T56 149T34 254Q34 311 55 360T114 446T203 504T314 526Q372 526 422 505T509 446T567 359T588 254Z"  />
<glyph unicode="&#xF7;" horiz-adv-x="700" d="M58 309V418H642V309H58ZM425 557Q425 531 405 511T350 490Q321 490 300 510T278 557Q278 586 299 606T350 627Q386 627 405 607T425 557ZM425 154Q425 125 405 105T350 85Q321 85 300 105T278 154Q278 183 299 203T350 223Q384 223 404 203T425 154Z"  />
<glyph unicode="&#xF8;" horiz-adv-x="622" d="M326 419Q322 420 314 420Q283 420 257 408T212 373T182 320T171 251Q171 195 198 154L326 419ZM286 89Q292 88 298 88T310 87Q373 87 411 133T450 254Q450 286 442 313T419 361L286 89ZM73 -106L142 39Q92 76 63 131T34 254Q34 311 55 360T114 446T203 504T314 526Q330 526 345 524T374 519L435 646L538 605L474 475Q527 438 557 380T588 254Q588 198 567 150T508 64T420 6T311 -15Q273 -15 239 -6L172 -143L73 -106Z"  />
<glyph unicode="&#xF9;" horiz-adv-x="582" d="M316 583L114 750L220 830L378 629L316 583ZM390 511H521V56Q476 17 420 1T292 -15Q241 -15 199 -3T125 34T77 96T60 183V511H191V213Q191 175 200 152T226 114T263 95T306 90Q339 90 360 98T390 114V511Z"  />
<glyph unicode="&#xFA;" horiz-adv-x="582" d="M281 583L219 629L377 830L483 750L281 583ZM390 511H521V56Q476 17 420 1T292 -15Q241 -15 199 -3T125 34T77 96T60 183V511H191V213Q191 175 200 152T226 114T263 95T306 90Q339 90 360 98T390 114V511Z"  />
<glyph unicode="&#xFB;" horiz-adv-x="582" d="M293 659L170 570L100 649L294 786L486 649L418 570L293 659ZM390 511H521V56Q476 17 420 1T292 -15Q241 -15 199 -3T125 34T77 96T60 183V511H191V213Q191 175 200 152T226 114T263 95T306 90Q339 90 360 98T390 114V511Z"  />
<glyph unicode="&#xFC;" horiz-adv-x="582" d="M490 648Q490 620 470 600T414 580Q382 580 362 600T341 648Q341 678 361 698T414 719Q449 719 469 699T490 648ZM245 648Q245 620 223 600T169 580Q139 580 117 600T95 648Q95 678 117 698T169 719Q201 719 223 699T245 648ZM390 511H521V56Q476 17 420 1T292 -15Q241 -15 199 -3T125 34T77 96T60 183V511H191V213Q191 175 200 152T226 114T263 95T306 90Q339 90 360 98T390 114V511Z"  />
<glyph unicode="&#xFD;" horiz-adv-x="561" d="M278 583L216 629L374 830L480 750L278 583ZM24 -256L209 70L-8 511H137L276 194L426 511H571L168 -256H24Z"  />
<glyph unicode="&#xFE;" horiz-adv-x="605" d="M194 152Q217 117 248 106T311 94Q335 94 357 105T395 138T421 189T431 256Q431 290 421 319T392 370T345 404T282 416Q259 416 235 412T194 397V152ZM63 -255V820H195V510Q215 517 243 521T292 526Q346 526 396 510T485 459T547 375T570 257Q570 204 554 155T505 69T427 9T320 -14Q290 -14 255 -2T194 30V-255H63Z"  />
<glyph unicode="&#xFF;" horiz-adv-x="561" d="M479 648Q479 620 459 600T403 580Q371 580 351 600T330 648Q330 678 350 698T403 719Q438 719 458 699T479 648ZM234 648Q234 620 212 600T158 580Q128 580 106 600T84 648Q84 678 106 698T158 719Q190 719 212 699T234 648ZM24 -256L209 70L-8 511H137L276 194L426 511H571L168 -256H24Z"  />
<glyph unicode="&#x152;" horiz-adv-x="1237" d="M716 376Q716 434 695 483T639 569T556 625T455 646Q401 646 353 626T268 570T211 486T190 382Q190 329 210 280T266 193T348 133T448 110Q504 110 553 130T638 187T695 271T716 376ZM717 1V98Q663 37 596 10T455 -17Q368 -17 293 14T161 99T72 225T39 378Q39 459 71 531T160 657T292 742T455 774Q530 774 596 748T717 661V756H1167V628H859V465H1107V336H859V130H1198V1H717Z"  />
<glyph unicode="&#x153;" horiz-adv-x="1004" d="M841 304Q841 328 833 350T809 388T773 414T725 424Q668 424 633 393T587 304H841ZM310 87Q373 87 411 133T450 254Q450 290 439 320T410 373T367 407T314 420Q283 420 257 408T212 373T182 320T171 251Q171 215 182 185T213 134T258 100T310 87ZM953 48Q943 39 924 29T876 8T813 -8T734 -15Q664 -15 609 7T515 72Q477 31 425 8T311 -15Q252 -15 202 6T114 63T56 149T34 254Q34 311 55 360T114 446T203 504T314 526Q376 526 428 502T517 437Q554 479 606 502T724 526Q786 526 832 504T910 445T956 359T972 256V206H587Q592 170 609 148T650 112T703 94T763 89Q792 89 817 94T861 107T894 123T915 139L953 48Z"  />
<glyph unicode="&#x160;" horiz-adv-x="601" d="M96 193Q111 179 131 165T176 138T230 119T291 111Q349 111 379 135T409 202Q409 242 384 268T322 316T241 358T160 406T98 471T73 568Q73 619 94 657T149 722T228 761T320 775Q364 775 401 764T466 737T511 708T535 687L466 581Q437 610 398 629T321 648Q302 648 284 644T252 630T230 607T221 574Q221 541 246 519T309 478T390 439T472 389T535 315T560 204Q560 160 541 120T486 50T398 1T280 -17Q239 -17 200 -6T126 21T64 56T22 91L96 193ZM305 820L79 933L150 995L307 926L460 991L538 935L305 820Z"  />
<glyph unicode="&#x161;" horiz-adv-x="445" d="M228 585L33 722L104 801L227 711L352 801L420 722L228 585ZM66 143Q78 132 94 121T130 102T169 88T207 82Q219 82 230 84T252 94T268 112T274 140Q274 157 258 172T217 202T164 233T111 270T71 316T54 376Q54 406 66 433T102 482T158 515T232 528Q267 528 295 522T345 506T382 487T407 470L360 380Q357 384 347 392T323 408T291 422T255 429Q229 429 211 417T192 383Q192 363 208 348T248 319T300 289T352 253T392 207T408 145Q408 70 356 27T216 -16Q148 -16 99 5T18 49L66 143Z"  />
<glyph unicode="&#x178;" horiz-adv-x="677" d="M267 0V307L-17 757H142L342 431L541 757H698L409 307V0H267ZM167 870Q167 840 146 819T93 797Q63 797 41 818T19 870Q19 902 41 923T93 945Q125 945 146 924T167 870ZM662 870Q662 840 641 819T587 797Q555 797 535 818T514 870Q514 902 534 923T587 945Q620 945 641 924T662 870Z"  />
<glyph unicode="&#x17D;" horiz-adv-x="702" d="M365 815L139 928L210 990L367 921L520 986L598 930L365 815ZM-3 1L417 628H87V756H669L254 130H668V1H-3Z"  />
<glyph unicode="&#x17E;" horiz-adv-x="527" d="M262 585L67 722L138 801L261 711L386 801L454 722L262 585ZM4 1L291 407H58V510H500L220 104H495V1H4Z"  />
<glyph unicode="&#x192;" horiz-adv-x="386" d="M-88 -137Q-77 -139 -63 -143T-34 -148Q-4 -148 12 -114T41 -17L124 404H33L51 509H142L154 576Q164 634 181 684T224 772T289 831T379 853Q389 853 400 851T424 847T446 841T464 836L439 733Q429 735 411 736T385 738Q359 738 342 721T313 673T291 600T272 509H379L361 404H252L160 -72Q151 -116 133 -151T89 -210T33 -248T-29 -261Q-58 -261 -79 -253T-105 -240L-88 -137Z"  />
<glyph unicode="&#x2C6;" horiz-adv-x="486" d="M243 659L120 570L50 649L244 786L436 649L368 570L243 659Z"  />
<glyph unicode="&#x2DC;" horiz-adv-x="371" d="M401 657Q396 651 384 637T354 609T314 585T266 574Q246 574 230 582T199 599T170 617T138 625Q124 625 112 620T88 608T68 594T52 580L-4 657Q8 666 25 678T64 703T107 723T150 731Q170 731 185 723T215 706T244 689T275 681Q287 681 299 686T323 698T343 713T358 727L401 657Z"  />
<glyph unicode="&#x2013;" horiz-adv-x="689" d="M64 191L81 299H623L607 191H64Z"  />
<glyph unicode="&#x2014;" horiz-adv-x="951" d="M65 191L83 299H885L868 191H65Z"  />
<glyph unicode="&#x2018;" horiz-adv-x="297" d="M35 516L169 757H268L184 516H35Z"  />
<glyph unicode="&#x2019;" horiz-adv-x="291" d="M40 516L124 757H273L139 516H40Z"  />
<glyph unicode="&#x201A;" horiz-adv-x="284" d="M2 -122L86 119H235L101 -122H2Z"  />
<glyph unicode="&#x201C;" horiz-adv-x="492" d="M253 516L362 757H461L385 516H253ZM35 516L169 757H268L167 516H35Z"  />
<glyph unicode="&#x201D;" horiz-adv-x="485" d="M41 516L117 757H249L140 516H41ZM234 516L335 757H467L333 516H234Z"  />
<glyph unicode="&#x201E;" horiz-adv-x="488" d="M8 -121L84 120H216L107 -121H8ZM201 -121L302 120H434L300 -121H201Z"  />
<glyph unicode="&#x2020;" horiz-adv-x="519" d="M192 48V527H45V634H192V815H323V634H474V527H323V48H192Z"  />
<glyph unicode="&#x2021;" horiz-adv-x="544" d="M204 49V243H57V351H204V549H57V656H204V820H335V656H486V549H335V351H486V243H335V49H204Z"  />
<glyph unicode="&#x2022;" horiz-adv-x="416" d="M208 143Q174 143 145 156T93 191T57 243T44 307Q44 341 57 370T92 422T144 458T208 471Q242 471 271 458T323 423T359 371T372 307Q372 273 359 244T324 192T272 156T208 143Z"  />
<glyph unicode="&#x2026;" horiz-adv-x="781" d="M731 65Q731 50 725 36T709 11T683 -7T651 -14Q635 -14 621 -7T596 11T579 36T572 65Q572 98 595 121T651 144Q686 144 708 121T731 65ZM470 65Q470 50 464 36T448 11T422 -7T390 -14Q374 -14 360 -7T335 11T318 36T311 65Q311 98 334 121T390 144Q425 144 447 121T470 65ZM209 65Q209 50 203 36T187 11T161 -7T129 -14Q113 -14 99 -7T74 11T57 36T50 65Q50 98 73 121T129 144Q164 144 186 121T209 65Z"  />
<glyph unicode="&#x2030;" horiz-adv-x="1160" d="M579 83Q606 83 623 102T641 147Q641 174 624 192T579 211Q553 211 535 193T517 147Q517 121 535 102T579 83ZM738 147Q738 114 726 86T692 36T641 3T578 -10Q545 -10 517 2T467 36T433 85T421 147Q421 180 433 209T466 260T516 294T578 307Q611 307 640 295T691 261T725 210T738 147ZM203 540Q229 540 247 558T265 603Q265 629 247 648T203 667Q177 667 159 648T141 603Q141 577 159 559T203 540ZM361 603Q361 570 349 541T315 491T264 458T202 445Q169 445 140 457T90 491T57 541T44 603Q44 636 56 665T90 715T140 749T202 762Q235 762 264 750T314 716T348 665T361 603ZM187 7L495 744L581 708L274 -28L187 7ZM959 83Q986 83 1003 102T1021 147Q1021 174 1004 192T959 211Q933 211 915 193T897 147Q897 121 915 102T959 83ZM1118 147Q1118 114 1106 86T1072 36T1021 3T958 -10Q925 -10 897 2T847 36T814 85T801 147Q801 180 813 209T847 260T896 294T958 307Q991 307 1020 295T1071 261T1105 210T1118 147Z"  />
<glyph unicode="&#x2039;" horiz-adv-x="369" d="M191 26L39 238L187 451H327L166 237L331 26H191Z"  />
<glyph unicode="&#x203A;" horiz-adv-x="369" d="M38 25L202 237L42 451H182L330 238L178 25H38Z"  />
<glyph unicode="&#x20AC;" horiz-adv-x="733" d="M60 408L82 510H154Q169 566 198 612T267 691T360 742T475 760Q540 760 593 742T682 701L623 606Q617 609 601 615T564 629T517 641T467 646Q405 646 363 613T294 510H561L540 408H60ZM681 34Q677 32 661 24T620 8T560 -8T484 -15Q421 -15 368 3T272 55T200 136T155 239H48L70 341H547L526 239H296Q322 173 368 136T485 99Q512 99 537 104T582 117T615 131T631 140L681 34Z"  />
<glyph unicode="&#x2122;" horiz-adv-x="1039" d="M860 366L836 545L720 351L604 543L582 366H458L552 769L721 539L888 768L983 366H860ZM201 366V646L69 645V758H455V645L323 646V366H201Z"  />

</font>
</defs>
</svg>
