<?xml  version="1.0" encoding="UTF-8"?>
<!DOCTYPE svg PUBLIC "-//W3C//DTD SVG 1.0//EN" "http://www.w3.org/TR/2001/REC-SVG-20010904/DTD/svg10.dtd" >
<svg xmlns="http://www.w3.org/2000/svg" >
<metadata>
<version>1.0</version>
<id><![CDATA[Passage W01]]></id>
<vendor>Monotype Imaging Inc.</vendor>
<credits>
<name>Fonts.com WebFonts</name>
<URL>http://webfonts.fonts.com</URL>
<role>Home of the Web fonts</role>
</credits>
<license>
<URL>http://webfonts.fonts.com/Legal</URL>
</license>
<copyright><![CDATA[Copyright (c) 2010 by Tour de Force Font Foundy & Dusan Jelesijevic. All rights reserved.]]></copyright>
<trademark><![CDATA[Passage is a trademark of Tour de Force Font Foundy & Dusan Jelesijevic.]]></trademark>
<licensee>
<name></name>
</licensee>
</metadata>
<defs >
<font horiz-adv-x="299" id="c71b650d-05ba-4710-a595-0643f13392a8">
<font-face font-family="" panose-1="2 0 0 0 0 0 0 0 0 0" ascent="750" descent="-250" units-per-em="1000" alphabetic="0">
</font-face>
<missing-glyph horiz-adv-x="160" />

<glyph unicode="&#xA;" />
<glyph unicode="&#xD;" horiz-adv-x="254" />
<glyph unicode=" " horiz-adv-x="160" />
<glyph unicode="!" horiz-adv-x="157" d="M100 120H58V716H100V120ZM107 0H50V57H107V0Z"  />
<glyph unicode="&quot;" horiz-adv-x="192" d="M30 716H72V570H30V716ZM120 716H162V570H120V716Z"  />
<glyph unicode="#" horiz-adv-x="327" d="M104 429L140 716H182L146 429H202L238 716H280L244 429H302L296 387H239L231 329H287L281 287H226L191 0H148L184 287H128L93 0H50L86 287H25L31 329H91L99 387H40L46 429H104ZM133 329H189L197 387H141L133 329Z"  />
<glyph unicode="$" horiz-adv-x="230" d="M194 681Q165 682 140 672T97 643T66 598T53 540Q51 512 57 489T73 446T98 407T128 370Q144 351 160 330T188 284T208 228T214 162Q210 96 172 51T74 -5V-84H32V35Q62 33 86 42T129 68T158 110T171 165Q172 195 167 219T151 266T126 307T95 344Q79 363 63 383T35 428T16 480T11 543Q13 576 24 605T54 657T98 696T152 718V797H194V681Z"  />
<glyph unicode="%" horiz-adv-x="415" d="M205 555Q205 535 202 508T190 456T165 414T121 396Q83 396 62 438T40 555Q40 575 42 602T53 655T78 698T122 716Q160 715 182 673T205 555ZM121 429Q147 429 159 462T172 555Q172 615 160 649T121 683Q96 683 85 649T73 555Q73 495 84 462T121 429ZM375 159Q375 139 372 112T360 60T335 18T291 0Q253 0 232 42T210 159Q210 179 212 206T223 259T248 302T292 320Q330 319 352 277T375 159ZM291 33Q317 33 329 66T342 159Q342 219 330 253T291 287Q266 287 255 253T243 159Q243 99 254 66T291 33ZM318 723L124 -7H92L286 723H318Z"  />
<glyph unicode="&amp;" horiz-adv-x="371" d="M371 557V515H306V0H221Q181 0 147 15T86 56T45 117T30 192Q30 248 58 293T134 361Q87 386 59 431T30 532Q30 572 45 606T86 667T146 708T221 723V681Q190 681 163 670T116 638T84 590T72 532Q72 501 83 474T115 427T163 395T221 383V341Q190 341 163 329T116 297T84 250T72 192Q72 161 83 134T115 86T163 54T221 42H264V515H199V557H371Z"  />
<glyph unicode="&apos;" horiz-adv-x="122" d="M40 716H82V570H40V716Z"  />
<glyph unicode="(" horiz-adv-x="208" d="M208 -250Q168 -241 141 -217T97 -157T70 -76T57 20T52 126T51 237Q51 319 53 399T70 547T115 661T206 723V681Q167 667 144 630T110 536T96 403T93 237Q93 145 96 70T110 -63T145 -157T208 -207V-250Z"  />
<glyph unicode=")" horiz-adv-x="208" d="M0 -207Q40 -194 63 -157T97 -63T112 69T115 237Q115 327 112 402T98 535T64 630T2 681V723Q60 708 92 661T138 547T154 400T157 237Q157 181 157 126T152 20T138 -76T112 -156T67 -216T0 -250V-207Z"  />
<glyph unicode="*" horiz-adv-x="352" d="M155 609V716H197V609L291 664L312 628L217 573L312 519L291 483L197 537V427H155V537L61 483L40 519L134 573L40 628L61 664L155 609Z"  />
<glyph unicode="+" horiz-adv-x="276" d="M117 379V456H159V379H236V337H159V260H117V337H40V379H117Z"  />
<glyph unicode="&#x2c;" horiz-adv-x="143" d="M56 -9Q62 2 64 17T62 52H102Q107 5 88 -29Q77 -48 56 -62T9 -84L0 -47Q21 -40 34 -32T56 -9Z"  />
<glyph unicode="-" horiz-adv-x="226" d="M186 379V337H40V379H186Z"  />
<glyph unicode="." horiz-adv-x="137" d="M97 0H40V57H97V0Z"  />
<glyph unicode="/" horiz-adv-x="182" d="M152 716L63 0H30L120 716H152Z"  />
<glyph unicode="0" horiz-adv-x="455" d="M415 358Q415 328 413 290T403 211T383 132T349 63T298 15T226 -4Q183 -4 149 20T90 91T53 205T40 358Q40 388 42 427T52 506T72 586T105 655T156 704T228 723Q271 723 305 698T364 626T402 512T415 358ZM227 38Q260 38 287 60T333 123T362 224T373 358Q373 433 363 492T333 594T287 658T227 681Q194 681 168 659T122 594T93 493T82 358Q82 208 121 124T227 38Z"  />
<glyph unicode="1" horiz-adv-x="237" d="M135 0V666L56 607L30 642L177 749V0H135Z"  />
<glyph unicode="2" horiz-adv-x="284" d="M0 0Q5 9 24 39T67 112T119 207T169 314T207 421T222 517Q222 565 211 597T176 647T114 673T20 681V723Q84 723 130 713T206 678T250 615T264 517Q264 479 254 435T227 346T190 256T148 171T109 98T77 42H256V0H0Z"  />
<glyph unicode="3" horiz-adv-x="281" d="M10 35Q65 35 104 50T169 90T207 150T219 225Q219 261 209 293T177 349T124 387T49 401H10L178 674H10V716H255L85 439Q163 429 212 374T261 225Q261 112 194 53T10 -7V35Z"  />
<glyph unicode="4" horiz-adv-x="319" d="M217 439H259V0H217V243H10L91 716H134L59 285H217V439Z"  />
<glyph unicode="5" horiz-adv-x="296" d="M20 43Q112 43 168 91T224 238Q224 279 210 314T172 376T114 418T42 433H20V716H240V674H62V474Q106 470 143 451T208 400T250 327T266 238Q266 180 249 136T199 61T121 16T20 1V43Z"  />
<glyph unicode="6" horiz-adv-x="364" d="M189 -7Q159 -5 137 7T100 39T74 84T57 137Q51 166 47 199T41 270Q40 310 42 353T49 437T62 516T84 584Q114 656 167 700T309 747V706Q257 706 218 683T152 620T110 525T88 408Q97 445 125 470T190 495Q257 494 295 427T334 244Q334 209 329 166T307 85T263 21T189 -7ZM190 34Q218 34 237 53T269 103T286 171T292 244Q292 279 287 316T269 383T238 433T190 453Q162 453 143 434T111 384T94 316T88 244Q88 208 93 171T111 104T142 54T190 34Z"  />
<glyph unicode="7" horiz-adv-x="224" d="M224 716L122 0H79L112 235H23V277H118L175 674H20V716H224Z"  />
<glyph unicode="8" horiz-adv-x="379" d="M349 235Q349 185 337 142T303 66T252 15T190 -4Q156 -4 127 14T77 65T43 141T30 235Q30 283 41 325T73 400Q44 455 44 528Q44 560 52 594T77 657T122 704T190 723Q221 723 247 710T293 671T324 609T336 528Q336 490 328 459T306 400Q326 368 337 326T349 235ZM190 681Q169 681 150 670T117 639T95 591T86 528Q86 502 89 480T104 438Q122 454 143 463T190 474Q237 474 275 438Q287 458 290 480T294 528Q294 563 286 591T263 639T230 670T190 681ZM307 235Q307 265 299 300T276 364T239 412T190 432Q163 432 141 413T104 364T81 300T72 235Q72 196 81 160T107 97T145 54T190 38Q213 38 234 54T272 97T297 160T307 235Z"  />
<glyph unicode="9" horiz-adv-x="364" d="M175 723Q204 723 226 711T264 679T290 632T307 579Q313 550 317 517T323 446Q324 405 322 363T315 279T302 200T280 132Q265 96 245 66T198 15T136 -19T55 -31V10Q108 10 147 33T213 96T255 191T276 308Q267 271 239 246T174 221Q107 222 69 289T30 472Q30 507 35 550T56 632T100 697T175 723ZM174 682Q146 682 127 663T95 613T78 545T72 472Q72 437 77 400T95 333T126 283T174 263Q202 263 221 282T253 332T270 400T276 472Q276 508 271 545T253 612T222 662T174 682Z"  />
<glyph unicode=":" horiz-adv-x="137" d="M97 0H40V57H97V0ZM97 444H40V501H97V444Z"  />
<glyph unicode=";" horiz-adv-x="170" d="M76 -9Q82 2 84 17T82 52H122Q127 5 108 -29Q97 -48 76 -62T29 -84L20 -47Q41 -40 54 -32T76 -9ZM130 444H73V501H130V444Z"  />
<glyph unicode="&lt;" horiz-adv-x="239" d="M151 130L40 360L151 588H199L87 359L197 130H151Z"  />
<glyph unicode="=" horiz-adv-x="276" d="M236 439V397H40V439H236ZM236 319V277H40V319H236Z"  />
<glyph unicode="&gt;" horiz-adv-x="209" d="M22 130L132 359L20 588H68L179 360L68 130H22Z"  />
<glyph unicode="?" horiz-adv-x="272" d="M95 120H53V292Q87 296 115 313T165 355T197 414T209 485Q209 583 156 632T10 681V723Q65 723 109 708T185 662T234 588T252 485Q252 444 241 408T208 341T158 290T95 258V120ZM102 0H45V57H102V0Z"  />
<glyph unicode="@" horiz-adv-x="797" d="M295 0H255L403 539L534 42H683Q698 87 706 136T715 237Q715 327 690 408T623 549T523 645T399 681Q333 681 276 646T176 550T108 408T83 237Q83 146 108 66T175 -75T275 -171T399 -207H670V-250H399Q325 -250 260 -212T145 -107T68 48T40 237Q40 336 68 424T145 579T259 684T399 723Q473 723 538 685T652 580T729 425T757 237Q757 173 746 113T713 0H505L464 158H339L295 0ZM349 196H454Q441 247 429 292T402 388L349 196Z"  />
<glyph unicode="A" horiz-adv-x="404" d="M43 0H0L206 750L404 0H361L300 230H106L43 0ZM118 272H289L205 588L118 272Z"  />
<glyph unicode="B" horiz-adv-x="347" d="M327 227Q327 180 310 139T261 68T189 19T102 0H60V716H102Q145 716 182 700T247 655T291 590T307 509Q307 474 296 442T264 383Q293 354 310 314T327 227ZM102 346Q133 347 162 360T214 395T251 446T265 509Q265 543 253 573T218 625T166 661T102 675V346ZM102 42Q140 42 173 57T231 97T270 155T285 227Q285 264 272 296T235 354Q179 306 102 304V42Z"  />
<glyph unicode="C" horiz-adv-x="352" d="M342 -6Q263 -4 206 27T112 109T58 224T40 359Q40 432 59 497T115 613T209 692T342 723V680Q270 680 221 652T141 578T96 475T82 359Q82 300 96 243T140 140T220 66T342 37V-6Z"  />
<glyph unicode="D" horiz-adv-x="437" d="M101 716Q176 715 231 686T324 607T379 494T397 357Q397 288 380 225T327 112T235 33T101 0H60V716H101ZM102 42Q172 42 220 70T299 142T342 243T356 357Q356 414 343 470T299 572T221 645T102 674V42Z"  />
<glyph unicode="E" horiz-adv-x="302" d="M102 675V268H244V226H102V41H292V0H60V716H292V675H102Z"  />
<glyph unicode="F" horiz-adv-x="292" d="M102 675V268H244V226H102V0H60V716H292V675H102Z"  />
<glyph unicode="G" horiz-adv-x="403" d="M363 0H342Q263 0 206 31T112 114T58 231T40 364Q40 440 58 505T113 618T208 694T342 723V680Q270 680 221 653T141 581T96 479T82 364Q82 308 94 253T135 152T209 78T321 44V434H363V0Z"  />
<glyph unicode="H" horiz-adv-x="458" d="M356 716H398V0H356V225H102V0H60V716H102V267H356V716Z"  />
<glyph unicode="I" horiz-adv-x="162" d="M102 0H60V716H102V0Z"  />
<glyph unicode="J" horiz-adv-x="224" d="M-30 41Q15 41 45 56T94 107T119 205T127 358V716H169V358Q169 284 164 219T138 106T79 29T-30 0V41Z"  />
<glyph unicode="K" horiz-adv-x="339" d="M298 0L161 360L102 226V0H60V716H102V316L273 716H319L184 412L339 0H298Z"  />
<glyph unicode="L" horiz-adv-x="291" d="M291 0H60V716H102V42H291V0Z"  />
<glyph unicode="M" horiz-adv-x="535" d="M93 0H50L103 749L271 468L432 751L485 0H442L398 617L271 389L137 619L93 0Z"  />
<glyph unicode="N" horiz-adv-x="474" d="M102 575V0H60V750L372 137V716H414V-35L102 575Z"  />
<glyph unicode="O" horiz-adv-x="539" d="M499 357Q499 301 490 238T455 121T384 31T269 -7Q216 -7 174 18T102 90T56 204T40 357Q40 395 44 436T58 517T85 594T127 659T188 704T271 723Q324 723 366 698T437 626T483 511T499 357ZM270 35Q321 35 356 63T414 137T446 240T456 357Q456 417 446 474T414 578T357 652T270 681Q219 681 183 653T125 578T93 475T83 357Q83 298 93 241T125 138T183 64T270 35Z"  />
<glyph unicode="P" horiz-adv-x="317" d="M307 480Q307 431 291 388T247 313T182 262T102 243V0H60V716H102Q145 716 182 697T247 646T291 571T307 480ZM102 285Q136 285 165 300T217 342T253 404T266 480Q266 520 253 555T218 616T166 658T102 675V285Z"  />
<glyph unicode="Q" horiz-adv-x="539" d="M441 -172H431Q393 -172 360 -160T303 -126T264 -74T247 -9Q199 -3 161 24T96 99T55 211T40 357Q40 395 44 436T58 517T85 594T127 659T188 704T271 723Q324 723 366 698T437 626T483 511T499 357Q499 303 490 242T458 127T394 37T288 -8Q292 -62 331 -96T431 -130H440L441 -172ZM270 32Q321 32 356 61T414 136T446 240T456 357Q456 417 446 474T414 578T357 652T270 681Q219 681 183 653T125 578T93 475T83 357Q83 298 93 240T125 136T183 61T270 32Z"  />
<glyph unicode="R" horiz-adv-x="334" d="M275 0L181 261Q162 253 143 248T102 243V0H60V716H102Q145 716 182 697T247 646T291 571T307 480Q307 418 283 367T216 283L319 0H275ZM102 285Q136 285 165 300T217 342T253 404T266 480Q266 520 253 555T218 616T166 658T102 675V285Z"  />
<glyph unicode="S" horiz-adv-x="230" d="M32 35Q62 33 86 42T129 68T158 110T171 165Q172 195 167 219T151 266T126 307T95 344Q79 363 63 383T35 428T16 480T11 543Q13 582 28 615T68 673T125 711T194 722V681Q165 682 140 672T97 643T66 598T53 540Q51 512 57 489T73 446T98 407T128 370Q144 351 160 330T188 284T208 228T214 162Q212 124 198 92T159 38T103 3T32 -7V35Z"  />
<glyph unicode="T" horiz-adv-x="278" d="M278 674H160V0H118V674H0V716H278V674Z"  />
<glyph unicode="U" horiz-adv-x="463" d="M231 -8Q195 -8 164 -1T110 25T74 72T60 143V716H102V143Q102 109 112 88T139 55T180 39T231 34Q258 34 281 38T322 55T350 88T361 143V716H403V143Q403 101 390 72T353 25T298 0T231 -8Z"  />
<glyph unicode="V" horiz-adv-x="399" d="M356 716H399L196 -35L0 716H43L197 125L356 716Z"  />
<glyph unicode="W" horiz-adv-x="479" d="M142 110L239 349L334 110L426 716H469L351 -37L241 240L127 -37L10 716H53L142 110Z"  />
<glyph unicode="X" horiz-adv-x="250" d="M146 459L250 0H207L124 387L43 0H0L104 459L25 716H71L124 516L182 716H228L146 459Z"  />
<glyph unicode="Y" horiz-adv-x="305" d="M0 716H43L153 276L262 716H305L174 192V0H132V192L0 716Z"  />
<glyph unicode="Z" horiz-adv-x="237" d="M122 491L156 675H0V716H206L165 491H237V449H157L83 42H237V0H32L114 449H34V491H122Z"  />
<glyph unicode="[" horiz-adv-x="206" d="M206 716V674H92V-208H206V-250H50V716H206Z"  />
<glyph unicode="\" horiz-adv-x="122" d="M32 716L122 0H89L0 716H32Z"  />
<glyph unicode="]" horiz-adv-x="206" d="M156 716V-250H0V-208H114V674H0V716H156Z"  />
<glyph unicode="^" horiz-adv-x="411" d="M20 485L205 724L391 485H350L205 675L61 485H20Z"  />
<glyph unicode="_" horiz-adv-x="226" d="M226 -208V-250H0V-208H226Z"  />
<glyph unicode="`" horiz-adv-x="154" d="M30 650L56 676L124 602L99 577L30 650Z"  />
<glyph unicode="a" d="M41 0H0L153 538L299 0H258L215 163H86L41 0ZM97 202H204Q190 255 178 301T152 402L97 202Z"  />
<glyph unicode="b" horiz-adv-x="272" d="M242 161Q242 128 230 99T196 48T145 13T83 0H50V501H83Q113 501 139 490T185 458T216 411T228 354Q228 305 201 268Q242 225 242 161ZM88 247Q107 248 125 257T158 280T181 314T190 354Q190 399 162 430T88 464V247ZM88 38Q112 39 133 49T170 75T195 114T204 161Q204 209 174 241Q157 227 134 219T88 209V38Z"  />
<glyph unicode="c" horiz-adv-x="246" d="M246 -4Q189 -3 148 19T81 76T43 156T30 251Q30 302 43 348T84 429T151 484T246 506V467Q197 467 163 448T108 399T78 329T68 251Q68 212 77 173T108 104T163 54T246 35V-4Z"  />
<glyph unicode="d" horiz-adv-x="320" d="M82 501Q134 500 173 480T238 425T277 346T290 250Q290 202 278 158T241 79T176 23T82 0H50V501H82ZM88 38Q133 39 164 58T215 107T244 174T253 250Q253 288 244 325T216 392T165 441T88 463V38Z"  />
<glyph unicode="e" horiz-adv-x="228" d="M88 464V194H185V155H88V38H218V0H50V501H218V464H88Z"  />
<glyph unicode="f" horiz-adv-x="218" d="M88 464V194H185V155H88V0H50V501H218V464H88Z"  />
<glyph unicode="g" horiz-adv-x="286" d="M261 0H242Q187 0 147 22T81 80T43 162T30 255Q30 308 43 353T82 432T150 485T247 506V467Q197 467 163 449T108 400T78 332T68 255Q68 218 76 182T103 116T151 66T222 41V308H261V0Z"  />
<glyph unicode="h" horiz-adv-x="341" d="M253 501H291V0H253V155H88V0H50V501H88V193H253V501Z"  />
<glyph unicode="i" horiz-adv-x="138" d="M88 0H50V501H88V0Z"  />
<glyph unicode="j" horiz-adv-x="182" d="M-10 38Q21 38 41 48T74 82T92 148T97 251V501H137V251Q137 199 133 154T114 74T70 20T-10 0V38Z"  />
<glyph unicode="k" horiz-adv-x="254" d="M213 0L123 237L88 158V0H50V501H88V246L197 501H240L145 288L254 0H213Z"  />
<glyph unicode="l" horiz-adv-x="217" d="M217 0H50V501H88V38H217V0Z"  />
<glyph unicode="m" horiz-adv-x="378" d="M74 0H35L72 539L191 335L306 540L343 0H304L274 416L191 262L103 419L74 0Z"  />
<glyph unicode="n" horiz-adv-x="352" d="M88 379V0H50V538L264 120V501H302V-38L88 379Z"  />
<glyph unicode="o" horiz-adv-x="385" d="M355 250Q355 211 348 167T323 84T273 20T192 -5Q116 -5 73 62T30 250Q30 289 37 334T62 417T111 480T193 505Q269 505 312 438T355 250ZM193 34Q226 34 249 52T288 101T309 171T316 250Q316 290 310 329T288 398T250 448T193 467Q159 467 136 448T98 399T77 329T70 250Q70 210 76 171T97 102T135 53T193 34Z"  />
<glyph unicode="p" horiz-adv-x="238" d="M228 334Q228 299 218 270T188 218T144 182T88 167V0H50V501H83Q113 501 139 488T185 452T216 399T228 334ZM88 206Q109 207 128 217T161 245T183 285T191 334Q191 359 183 381T160 421T128 450T88 464V206Z"  />
<glyph unicode="q" horiz-adv-x="385" d="M315 -118H303Q276 -118 253 -110T212 -86T184 -51T172 -5Q106 6 68 72T30 250Q30 289 37 334T62 417T111 480T193 505Q268 505 311 438T355 250Q355 212 349 170T327 90T283 27T210 -6Q215 -38 240 -58T303 -79H315V-118ZM193 31Q226 31 249 50T288 101T309 171T316 250Q316 290 310 329T288 398T250 448T193 468Q159 468 136 449T98 399T77 329T70 250Q70 210 76 171T97 101T135 51T193 31Z"  />
<glyph unicode="r" horiz-adv-x="241" d="M199 0L134 177Q111 167 88 167V0H50V501H83Q113 501 140 488T186 452T217 399T229 334Q229 290 213 255T168 197L241 0H199ZM88 206Q109 207 128 217T161 245T184 285T192 334Q192 359 184 381T161 421T128 449T88 463V206Z"  />
<glyph unicode="s" horiz-adv-x="171" d="M26 34Q67 31 93 55T121 119Q123 155 107 185T70 238Q48 264 29 297T11 377Q12 405 23 429T53 470T96 497T147 505V468Q107 470 80 443T51 376Q49 338 64 312T101 262Q112 248 123 233T143 201T156 162T160 116Q159 89 149 66T120 27T78 2T26 -5V34Z"  />
<glyph unicode="t" horiz-adv-x="200" d="M200 463H118V0H80V463H0V501H200V463Z"  />
<glyph unicode="u" horiz-adv-x="345" d="M172 -7Q121 -7 86 19T50 105V501H88V105Q88 83 94 69T112 47T139 35T172 32Q189 32 204 35T231 46T249 69T256 105V501H295V105Q295 75 285 54T259 19T220 -1T172 -7Z"  />
<glyph unicode="v" horiz-adv-x="287" d="M247 501H287L141 -38L0 501H40L141 112L247 501Z"  />
<glyph unicode="w" horiz-adv-x="347" d="M298 501H337L250 -40L174 156L92 -39L10 501H50L107 99L176 258L236 101L298 501Z"  />
<glyph unicode="x" horiz-adv-x="203" d="M120 320L193 0H153L100 244L49 0H10L81 320L25 501H67L100 378L136 501H178L120 320Z"  />
<glyph unicode="y" horiz-adv-x="221" d="M0 501H40L110 216L182 501H221L130 135V0H91V135L0 501Z"  />
<glyph unicode="z" horiz-adv-x="191" d="M94 347L115 464H10V501H162L133 347H181V308H125L77 38H181V0H30L86 308H32V347H94Z"  />
<glyph unicode="{" horiz-adv-x="293" d="M0 212Q0 257 22 286T79 323V504Q79 548 95 586T141 654T209 699T293 716V675Q257 675 226 662T172 625T135 571T121 505V283H99Q68 283 56 261T43 212Q43 186 55 164T99 141H121V-40Q121 -75 134 -105T171 -159T226 -195T293 -209V-250Q248 -250 209 -234T141 -189T96 -122T79 -39V100Q44 108 22 137T0 212Z"  />
<glyph unicode="|" horiz-adv-x="162" d="M102 -250H60V716H102V-250Z"  />
<glyph unicode="}" horiz-adv-x="293" d="M293 212Q293 167 271 138T214 100V-39Q214 -83 198 -121T152 -188T84 -233T0 -250V-209Q36 -209 67 -196T121 -159T158 -106T172 -40V141H194Q225 142 237 164T250 212Q250 238 238 260T194 283H172V505Q172 540 159 571T122 625T67 661T0 675V716Q45 716 84 700T152 654T197 587T214 504V323Q249 315 271 286T293 212Z"  />
<glyph unicode="~" horiz-adv-x="272" d="M180 631Q167 631 156 639T133 656T112 672T92 678Q79 675 73 661T71 631H32Q29 646 32 661T45 688T66 708T92 716Q104 716 116 708T140 690T162 673T180 669Q192 672 199 686T201 716H240Q243 701 240 686T227 659T206 639T180 631Z"  />
<glyph unicode="&#xA0;" horiz-adv-x="160" />
<glyph unicode="&#xA1;" horiz-adv-x="157" d="M100 -250H58V346H100V-250ZM107 409H50V466H107V409Z"  />
<glyph unicode="&#xA2;" horiz-adv-x="246" d="M246 467Q197 467 163 448T108 399T78 329T68 251Q68 212 77 173T108 104T163 54T246 35V-115H204V0Q125 12 81 73Q30 142 30 251Q30 361 81 429Q103 458 134 477T204 502V616H246V467Z"  />
<glyph unicode="&#xA3;" horiz-adv-x="244" d="M65 439V573Q65 604 78 631T114 678T168 711T234 724V682Q207 682 184 673T144 650T117 615T107 573V439H226V397H107V42H226V0H30V42H65V397H30V439H65Z"  />
<glyph unicode="&#xA4;" horiz-adv-x="449" d="M336 556Q360 523 373 474T386 359Q386 311 376 257T336 162L389 109L359 79L307 131Q272 104 223 104Q175 104 141 131L90 79L60 109L111 161Q87 194 74 243T61 359Q61 383 63 409T71 462T86 512T111 557L60 609L90 639L141 587Q158 600 178 607T224 614Q270 614 307 586L359 639L389 609L336 556ZM224 143Q257 143 280 161T319 210T340 280T347 359Q347 399 341 438T319 507T281 557T224 576Q190 576 167 557T129 508T108 438T101 359Q101 319 107 280T128 211T166 162T224 143Z"  />
<glyph unicode="&#xA5;" horiz-adv-x="305" d="M120 234L0 716H43L152 276L262 716H305L183 234H250V192H173V124H250V82H173V0H131V82H54V124H131V192H54V234H120Z"  />
<glyph unicode="&#xA6;" horiz-adv-x="162" d="M102 280H60V716H102V280ZM102 -250H60V186H102V-250Z"  />
<glyph unicode="&#xA7;" horiz-adv-x="245" d="M224 167Q219 101 182 59Q202 30 214 -4T224 -87Q222 -125 208 -156T169 -208T113 -241T42 -250V-208Q102 -212 140 -178T181 -84Q182 -54 177 -30T161 14T136 53T105 90Q89 109 73 128T45 171T26 222T21 284Q23 316 34 345T64 396Q44 425 31 460T21 543Q23 582 38 615T78 673T135 711T204 722V681Q175 682 150 672T107 643T76 598T63 540Q61 512 67 489T83 446T108 407T138 370Q154 351 170 331T198 286T218 233T224 167ZM90 361Q78 344 71 324T63 281Q61 253 67 231T83 190T108 152T138 116L156 94Q178 125 181 170Q182 200 177 224T161 268T136 307T105 344L90 361Z"  />
<glyph unicode="&#xA8;" horiz-adv-x="207" d="M77 599H30V646H77V599ZM177 599H130V646H177V599Z"  />
<glyph unicode="&#xA9;" horiz-adv-x="683" d="M376 105Q323 105 281 124T211 182Q160 251 160 360Q160 470 211 538Q239 576 281 595T376 615V576Q327 576 293 557T238 508T208 438T198 360Q198 321 207 282T238 213T293 163T376 144V105ZM340 -4Q277 -4 223 24T128 101T64 216T40 357Q40 431 63 497T127 614T222 693T340 723Q404 723 459 694T555 614T619 498T643 357Q643 282 620 216T555 102T459 25T340 -4ZM340 682Q287 682 240 656T157 585T101 481T80 357Q80 291 100 233T156 131T239 63T340 38Q394 38 442 63T525 131T580 232T601 357Q601 422 581 481T525 584T442 655T340 682Z"  />
<glyph unicode="&#xAA;" horiz-adv-x="274" d="M75 397H40L137 724L234 397H197L174 487H99L75 397ZM107 518H166L137 626L107 518Z"  />
<glyph unicode="&#xAB;" horiz-adv-x="258" d="M102 130L30 360L104 588H148L74 360L146 130H102ZM192 130L120 360L194 588H238L164 360L236 130H192Z"  />
<glyph unicode="&#xAC;" horiz-adv-x="335" d="M295 294H253V385H40V427H295V294Z"  />
<glyph unicode="&#xAD;" horiz-adv-x="226" d="M186 379V337H40V379H186Z"  />
<glyph unicode="&#xAE;" horiz-adv-x="683" d="M340 -4Q277 -4 223 24T128 101T64 216T40 357Q40 431 63 497T127 614T222 693T340 723Q404 723 459 694T555 614T619 498T643 357Q643 282 620 216T555 102T459 25T340 -4ZM340 682Q287 682 240 656T157 585T101 481T80 357Q80 291 100 233T156 131T239 63T340 38Q394 38 442 63T525 131T580 232T601 357Q601 422 581 481T525 584T442 655T340 682ZM391 110L335 281Q325 278 315 277T298 274V110H260V611H293Q323 611 349 598T395 562T426 509T438 444Q438 399 419 361T369 300L431 110H391ZM298 316Q319 317 337 328T370 356T392 396T400 444Q400 469 392 491T370 531T338 560T298 574V316Z"  />
<glyph unicode="&#xAF;" horiz-adv-x="286" d="M256 677V635H30V677H256Z"  />
<glyph unicode="&#xB0;" horiz-adv-x="237" d="M119 573Q82 573 56 599T30 662Q30 699 56 724T119 750Q156 750 181 725T207 662Q207 625 182 599T119 573ZM119 717Q96 717 80 701T64 662Q64 639 80 623T119 607Q142 607 158 623T174 662Q174 685 158 701T119 717Z"  />
<glyph unicode="&#xB1;" horiz-adv-x="276" d="M117 329V406H159V329H236V287H159V210H117V287H40V329H117ZM236 149V107H40V149H236Z"  />
<glyph unicode="&#xB2;" horiz-adv-x="194" d="M20 394Q32 415 49 444T81 505T107 567T118 620Q118 655 99 667T33 680V716Q98 716 126 696T154 620Q154 597 147 571T128 520T105 471T83 430H151V394H20Z"  />
<glyph unicode="&#xB3;" horiz-adv-x="206" d="M36 434Q81 434 102 454T123 501Q123 528 108 546T62 565H30L99 680H36V716H166L91 596Q123 589 141 566T160 501Q160 453 127 426T36 398V434Z"  />
<glyph unicode="&#xB4;" horiz-adv-x="154" d="M55 577L30 602L98 676L124 650L55 577Z"  />
<glyph unicode="&#xB5;" horiz-adv-x="345" d="M171 -4Q147 -4 126 3T88 25V-250H50V501H88V105Q88 76 112 55T171 34Q189 34 204 39T231 55T249 78T256 105V501H295V105Q295 82 285 63T259 28T219 5T171 -4Z"  />
<glyph unicode="&#xB6;" horiz-adv-x="307" d="M10 480Q10 528 26 571T69 646T134 697T215 716H257V-250H215V243Q188 243 161 251V-250H119V271Q70 301 40 356T10 480ZM215 675Q181 674 152 659T100 617T64 555T51 480Q51 440 64 405T99 343T151 301T215 285V675Z"  />
<glyph unicode="&#xB7;" horiz-adv-x="137" d="M97 330H40V387H97V330Z"  />
<glyph unicode="&#xB8;" horiz-adv-x="179" d="M40 -126Q81 -126 98 -106Q106 -96 108 -85T111 -65H42V19H69V-37H135L137 -49Q137 -49 138 -56T138 -75T133 -98T119 -123Q94 -154 40 -154V-126Z"  />
<glyph unicode="&#xB9;" horiz-adv-x="155" d="M69 397V651L42 631L20 662L105 723V397H69Z"  />
<glyph unicode="&#xBA;" horiz-adv-x="245" d="M205 555Q205 535 202 508T190 456T165 414T121 396Q83 396 62 438T40 555Q40 575 42 602T53 655T78 698T122 716Q160 715 182 673T205 555ZM121 429Q147 429 159 462T172 555Q172 615 160 649T121 683Q96 683 85 649T73 555Q73 495 84 462T121 429Z"  />
<glyph unicode="&#xBB;" horiz-adv-x="258" d="M112 130L184 360L110 588H154L228 360L156 130H112ZM22 130L94 360L20 588H64L138 360L66 130H22Z"  />
<glyph unicode="&#xBC;" horiz-adv-x="359" d="M225 716L136 0H103L193 716H225ZM284 319H319V0H284V102H193L230 319H266L234 138H284V319ZM69 397V651L42 631L20 662L105 723V397H69Z"  />
<glyph unicode="&#xBD;" horiz-adv-x="378" d="M225 716L136 0H103L193 716H225ZM204 0Q216 21 233 50T265 111T291 173T302 226Q302 261 283 273T217 286V322Q282 322 310 302T338 226Q338 203 331 177T312 126T289 77T267 36H335V0H204ZM69 397V651L42 631L20 662L105 723V397H69Z"  />
<glyph unicode="&#xBE;" horiz-adv-x="385" d="M26 434Q71 434 92 454T113 501Q113 528 98 546T52 565H20L89 680H26V716H156L81 596Q113 589 131 566T150 501Q150 453 117 426T26 398V434ZM251 716L162 0H129L219 716H251ZM310 319H345V0H310V102H219L256 319H292L260 138H310V319Z"  />
<glyph unicode="&#xBF;" horiz-adv-x="282" d="M187 353H229V181Q195 176 167 160T117 118T85 59T73 -12Q73 -110 126 -159T272 -208V-250Q217 -250 173 -235T97 -189T48 -115T30 -12Q30 29 41 65T74 132T123 183T187 215V353ZM180 466H237V409H180V466Z"  />
<glyph unicode="&#xC0;" horiz-adv-x="404" d="M43 0H0L206 750L404 0H361L300 230H106L43 0ZM118 272H289L205 588L118 272ZM142 865L168 891L236 817L211 792L142 865Z"  />
<glyph unicode="&#xC1;" horiz-adv-x="404" d="M43 0H0L206 750L404 0H361L300 230H106L43 0ZM118 272H289L205 588L118 272ZM197 792L172 817L240 891L266 865L197 792Z"  />
<glyph unicode="&#xC2;" horiz-adv-x="404" d="M43 0H0L206 750L404 0H361L300 230H106L43 0ZM118 272H289L205 588L118 272ZM202 892L266 799L239 781L202 841L165 781L138 799L202 892Z"  />
<glyph unicode="&#xC3;" horiz-adv-x="404" d="M43 0H0L206 750L404 0H361L300 230H106L43 0ZM118 272H289L205 588L118 272ZM236 832Q227 832 219 837T203 848T188 858T174 862Q165 860 162 851T161 832H132Q130 842 132 853T141 872T156 885T174 891Q182 891 190 886T207 874T223 864T236 861Q244 863 248 871T248 891H278Q282 870 269 851T236 832Z"  />
<glyph unicode="&#xC4;" horiz-adv-x="404" d="M43 0H0L206 750L404 0H361L300 230H106L43 0ZM118 272H289L205 588L118 272ZM180 814H133V861H180V814ZM280 814H233V861H280V814Z"  />
<glyph unicode="&#xC5;" horiz-adv-x="404" d="M43 0H0L206 750L404 0H361L300 230H106L43 0ZM118 272H289L205 588L118 272ZM207 815Q181 815 163 833T145 877Q145 903 163 920T207 938Q233 938 250 921T268 877Q268 851 251 833T207 815ZM207 913Q192 913 181 903T170 877Q170 862 181 851T207 840Q222 840 232 851T243 877Q243 892 233 902T207 913Z"  />
<glyph unicode="&#xC6;" horiz-adv-x="546" d="M346 675V272H488V230H346V41H536V0H304V230H127L23 0H-20L304 716H536V675H346ZM304 272V620L146 272H304Z"  />
<glyph unicode="&#xC7;" horiz-adv-x="355" d="M246 -126Q287 -126 304 -106Q312 -96 314 -85T317 -65H248V9Q194 27 155 62T90 143T52 245T40 359Q40 432 59 497T115 613T209 692T342 723V680Q270 680 221 652T141 578T96 475T82 359Q82 300 96 243T140 140T220 66T342 37V-6Q324 -5 308 -3T275 2V-37H341L343 -49Q343 -49 344 -56T344 -75T339 -98T325 -123Q300 -154 246 -154V-126Z"  />
<glyph unicode="&#xC8;" horiz-adv-x="302" d="M102 675V268H244V226H102V41H292V0H60V716H292V675H102ZM129 865L155 891L223 817L198 792L129 865Z"  />
<glyph unicode="&#xC9;" horiz-adv-x="302" d="M102 675V268H244V226H102V41H292V0H60V716H292V675H102ZM194 792L169 817L237 891L263 865L194 792Z"  />
<glyph unicode="&#xCA;" horiz-adv-x="302" d="M102 675V268H244V226H102V41H292V0H60V716H292V675H102ZM186 892L250 799L223 781L186 841L149 781L122 799L186 892Z"  />
<glyph unicode="&#xCB;" horiz-adv-x="302" d="M102 675V268H244V226H102V41H292V0H60V716H292V675H102ZM161 814H114V861H161V814ZM261 814H214V861H261V814Z"  />
<glyph unicode="&#xCC;" horiz-adv-x="159" d="M102 0H60V716H102V0ZM26 865L52 891L120 817L95 792L26 865Z"  />
<glyph unicode="&#xCD;" horiz-adv-x="169" d="M102 0H60V716H102V0ZM70 792L45 817L113 891L139 865L70 792Z"  />
<glyph unicode="&#xCE;" horiz-adv-x="168" d="M102 0H60V716H102V0ZM85 892L149 799L122 781L85 841L48 781L21 799L85 892Z"  />
<glyph unicode="&#xCF;" horiz-adv-x="167" d="M102 0H60V716H102V0ZM58 814H11V861H58V814ZM158 814H111V861H158V814Z"  />
<glyph unicode="&#xD0;" horiz-adv-x="444" d="M67 267V716H108Q183 715 238 686T331 607T386 494T404 357Q404 288 387 225T334 112T242 33T108 0H67V225H15V267H67ZM109 42Q179 42 227 70T306 142T349 243T363 357Q363 414 350 470T306 572T228 645T109 674V267H161V225H109V42Z"  />
<glyph unicode="&#xD1;" horiz-adv-x="474" d="M102 575V0H60V750L372 137V716H414V-35L102 575ZM258 832Q249 832 241 837T225 848T210 858T196 862Q187 860 184 851T183 832H154Q152 842 154 853T163 872T178 885T196 891Q204 891 212 886T229 874T245 864T258 861Q266 863 270 871T270 891H300Q304 870 291 851T258 832Z"  />
<glyph unicode="&#xD2;" horiz-adv-x="539" d="M499 357Q499 301 490 238T455 121T384 31T269 -7Q216 -7 174 18T102 90T56 204T40 357Q40 395 44 436T58 517T85 594T127 659T188 704T271 723Q324 723 366 698T437 626T483 511T499 357ZM270 35Q321 35 356 63T414 137T446 240T456 357Q456 417 446 474T414 578T357 652T270 681Q219 681 183 653T125 578T93 475T83 357Q83 298 93 241T125 138T183 64T270 35ZM191 865L217 891L285 817L260 792L191 865Z"  />
<glyph unicode="&#xD3;" horiz-adv-x="539" d="M499 357Q499 301 490 238T455 121T384 31T269 -7Q216 -7 174 18T102 90T56 204T40 357Q40 395 44 436T58 517T85 594T127 659T188 704T271 723Q324 723 366 698T437 626T483 511T499 357ZM270 35Q321 35 356 63T414 137T446 240T456 357Q456 417 446 474T414 578T357 652T270 681Q219 681 183 653T125 578T93 475T83 357Q83 298 93 241T125 138T183 64T270 35ZM267 792L242 817L310 891L336 865L267 792Z"  />
<glyph unicode="&#xD4;" horiz-adv-x="539" d="M499 357Q499 301 490 238T455 121T384 31T269 -7Q216 -7 174 18T102 90T56 204T40 357Q40 395 44 436T58 517T85 594T127 659T188 704T271 723Q324 723 366 698T437 626T483 511T499 357ZM270 35Q321 35 356 63T414 137T446 240T456 357Q456 417 446 474T414 578T357 652T270 681Q219 681 183 653T125 578T93 475T83 357Q83 298 93 241T125 138T183 64T270 35ZM272 892L336 799L309 781L272 841L235 781L208 799L272 892Z"  />
<glyph unicode="&#xD5;" horiz-adv-x="539" d="M499 357Q499 301 490 238T455 121T384 31T269 -7Q216 -7 174 18T102 90T56 204T40 357Q40 395 44 436T58 517T85 594T127 659T188 704T271 723Q324 723 366 698T437 626T483 511T499 357ZM270 35Q321 35 356 63T414 137T446 240T456 357Q456 417 446 474T414 578T357 652T270 681Q219 681 183 653T125 578T93 475T83 357Q83 298 93 241T125 138T183 64T270 35ZM300 832Q291 832 283 837T267 848T252 858T238 862Q229 860 226 851T225 832H196Q194 842 196 853T205 872T220 885T238 891Q246 891 254 886T271 874T287 864T300 861Q308 863 312 871T312 891H342Q346 870 333 851T300 832Z"  />
<glyph unicode="&#xD6;" horiz-adv-x="539" d="M499 357Q499 301 490 238T455 121T384 31T269 -7Q216 -7 174 18T102 90T56 204T40 357Q40 395 44 436T58 517T85 594T127 659T188 704T271 723Q324 723 366 698T437 626T483 511T499 357ZM270 35Q321 35 356 63T414 137T446 240T456 357Q456 417 446 474T414 578T357 652T270 681Q219 681 183 653T125 578T93 475T83 357Q83 298 93 241T125 138T183 64T270 35ZM243 814H196V861H243V814ZM343 814H296V861H343V814Z"  />
<glyph unicode="&#xD7;" horiz-adv-x="248" d="M94 358L40 412L70 442L124 388L178 442L208 412L154 358L208 304L178 274L124 328L70 274L40 304L94 358Z"  />
<glyph unicode="&#xD8;" horiz-adv-x="539" d="M499 357Q499 301 490 238T455 121T384 31T269 -7Q185 -5 130 53L103 -1L73 13L107 80Q75 128 58 197T40 357Q40 395 44 436T58 517T85 594T127 659T188 704T271 723Q350 721 405 667L430 716L459 703L427 640Q462 592 480 522T499 357ZM270 35Q321 35 356 63T414 137T446 240T456 357Q456 423 444 485T405 596L151 94Q173 67 202 51T270 35ZM83 357Q83 294 94 233T130 126L384 626Q363 652 335 666T270 681Q219 681 183 653T125 578T93 475T83 357Z"  />
<glyph unicode="&#xD9;" horiz-adv-x="463" d="M231 -8Q195 -8 164 -1T110 25T74 72T60 143V716H102V143Q102 109 112 88T139 55T180 39T231 34Q258 34 281 38T322 55T350 88T361 143V716H403V143Q403 101 390 72T353 25T298 0T231 -8ZM156 865L182 891L250 817L225 792L156 865Z"  />
<glyph unicode="&#xDA;" horiz-adv-x="463" d="M231 -8Q195 -8 164 -1T110 25T74 72T60 143V716H102V143Q102 109 112 88T139 55T180 39T231 34Q258 34 281 38T322 55T350 88T361 143V716H403V143Q403 101 390 72T353 25T298 0T231 -8ZM242 792L217 817L285 891L311 865L242 792Z"  />
<glyph unicode="&#xDB;" horiz-adv-x="463" d="M231 -8Q195 -8 164 -1T110 25T74 72T60 143V716H102V143Q102 109 112 88T139 55T180 39T231 34Q258 34 281 38T322 55T350 88T361 143V716H403V143Q403 101 390 72T353 25T298 0T231 -8ZM230 892L294 799L267 781L230 841L193 781L166 799L230 892Z"  />
<glyph unicode="&#xDC;" horiz-adv-x="463" d="M231 -8Q195 -8 164 -1T110 25T74 72T60 143V716H102V143Q102 109 112 88T139 55T180 39T231 34Q258 34 281 38T322 55T350 88T361 143V716H403V143Q403 101 390 72T353 25T298 0T231 -8ZM205 814H158V861H205V814ZM305 814H258V861H305V814Z"  />
<glyph unicode="&#xDD;" horiz-adv-x="305" d="M0 716H43L153 276L262 716H305L174 192V0H132V192L0 716ZM150 792L125 817L193 891L219 865L150 792Z"  />
<glyph unicode="&#xDE;" horiz-adv-x="327" d="M102 594Q145 594 182 575T247 524T291 449T307 358Q307 309 291 266T247 191T182 140T102 121V0H60V716H102V594ZM102 163Q136 163 165 178T217 220T253 282T266 358Q266 398 253 433T218 494T166 536T102 553V163Z"  />
<glyph unicode="&#xDF;" horiz-adv-x="334" d="M227 358Q265 335 286 291T308 185Q308 97 264 45T145 -7V35Q187 35 211 53T247 97T263 147T266 185Q266 198 263 223T248 274T213 318T150 338H145V379H150Q190 380 213 398T248 442T263 492T266 530Q266 542 264 565T251 613T220 656T163 681L31 -9L-10 -1L128 723H145Q182 723 212 710T263 671T296 610T308 530Q308 470 287 426T227 358Z"  />
<glyph unicode="&#xE0;" d="M41 0H0L153 538L299 0H258L215 163H86L41 0ZM97 202H204Q190 255 178 301T152 402L97 202ZM85 650L111 676L179 602L154 577L85 650Z"  />
<glyph unicode="&#xE1;" d="M41 0H0L153 538L299 0H258L215 163H86L41 0ZM97 202H204Q190 255 178 301T152 402L97 202ZM159 577L134 602L202 676L228 650L159 577Z"  />
<glyph unicode="&#xE2;" d="M41 0H0L153 538L299 0H258L215 163H86L41 0ZM97 202H204Q190 255 178 301T152 402L97 202ZM151 677L215 584L188 566L151 626L114 566L87 584L151 677Z"  />
<glyph unicode="&#xE3;" d="M41 0H0L153 538L299 0H258L215 163H86L41 0ZM97 202H204Q190 255 178 301T152 402L97 202ZM186 617Q177 617 169 622T153 633T138 643T124 647Q115 645 112 636T111 617H82Q80 627 82 638T91 657T106 670T124 676Q132 676 140 671T157 659T173 649T186 646Q194 648 198 656T198 676H228Q232 655 219 636T186 617Z"  />
<glyph unicode="&#xE4;" d="M41 0H0L153 538L299 0H258L215 163H86L41 0ZM97 202H204Q190 255 178 301T152 402L97 202ZM124 599H77V646H124V599ZM224 599H177V646H224V599Z"  />
<glyph unicode="&#xE5;" d="M41 0H0L153 538L299 0H258L215 163H86L41 0ZM97 202H204Q190 255 178 301T152 402L97 202ZM155 600Q129 600 111 618T93 662Q93 688 111 705T155 723Q181 723 198 706T216 662Q216 636 199 618T155 600ZM155 698Q140 698 129 688T118 662Q118 647 129 636T155 625Q170 625 180 636T191 662Q191 677 181 687T155 698Z"  />
<glyph unicode="&#xE6;" horiz-adv-x="365" d="M225 464V197H322V158H225V38H355V0H187V158H85L19 0H-20L187 501H355V464H225ZM187 196V410L101 196H187Z"  />
<glyph unicode="&#xE7;" horiz-adv-x="255" d="M156 -126Q197 -126 214 -106Q222 -96 224 -85T227 -65H158V14Q125 29 101 53T61 109T38 176T30 251Q30 302 43 348T84 429T151 484T246 506V467Q197 467 163 448T108 399T78 329T68 251Q68 212 77 173T108 104T163 54T246 35V-4Q212 -2 185 5V-37H251L253 -49Q253 -49 254 -56T254 -75T249 -98T235 -123Q210 -154 156 -154V-126Z"  />
<glyph unicode="&#xE8;" horiz-adv-x="228" d="M88 464V194H185V155H88V38H218V0H50V501H218V464H88ZM81 650L107 676L175 602L150 577L81 650Z"  />
<glyph unicode="&#xE9;" horiz-adv-x="228" d="M88 464V194H185V155H88V38H218V0H50V501H218V464H88ZM136 577L111 602L179 676L205 650L136 577Z"  />
<glyph unicode="&#xEA;" horiz-adv-x="228" d="M88 464V194H185V155H88V38H218V0H50V501H218V464H88ZM148 677L212 584L185 566L148 626L111 566L84 584L148 677Z"  />
<glyph unicode="&#xEB;" horiz-adv-x="228" d="M88 464V194H185V155H88V38H218V0H50V501H218V464H88ZM111 599H64V646H111V599ZM211 599H164V646H211V599Z"  />
<glyph unicode="&#xEC;" horiz-adv-x="163" d="M113 501V0H75V463H-20V501H113ZM20 650L46 676L114 602L89 577L20 650Z"  />
<glyph unicode="&#xED;" horiz-adv-x="163" d="M113 501V0H75V463H-20V501H113ZM74 577L49 602L117 676L143 650L74 577Z"  />
<glyph unicode="&#xEE;" horiz-adv-x="163" d="M113 501V0H75V463H-20V501H113ZM67 677L131 584L104 566L67 626L30 566L3 584L67 677Z"  />
<glyph unicode="&#xEF;" horiz-adv-x="177" d="M113 501V0H75V463H-20V501H113ZM49 599H2V646H49V599ZM149 599H102V646H149V599Z"  />
<glyph unicode="&#xF0;" horiz-adv-x="354" d="M156 680Q135 694 110 701T55 709V750Q100 750 134 739T195 707L260 753L285 719L226 677Q243 658 256 635T280 586Q293 556 301 518T315 439T322 355T323 272Q322 234 318 201T307 139Q301 112 291 86T264 40T226 7T175 -5Q128 -5 100 21T56 85T35 167T30 246Q30 361 68 428T174 497Q211 497 239 472T276 410Q269 485 248 548T189 652L100 589L75 623L156 680ZM174 36Q202 36 221 55T253 105T270 173T276 246Q276 281 271 318T253 385T222 435T174 455Q146 455 127 436T95 386T78 318T72 246Q72 210 77 173T95 106T126 56T174 36Z"  />
<glyph unicode="&#xF1;" horiz-adv-x="352" d="M88 379V0H50V538L264 120V501H302V-38L88 379ZM211 617Q202 617 194 622T178 633T163 643T149 647Q140 645 137 636T136 617H107Q105 627 107 638T116 657T131 670T149 676Q157 676 165 671T182 659T198 649T211 646Q219 648 223 656T223 676H253Q257 655 244 636T211 617Z"  />
<glyph unicode="&#xF2;" horiz-adv-x="385" d="M355 250Q355 211 348 167T323 84T273 20T192 -5Q116 -5 73 62T30 250Q30 289 37 334T62 417T111 480T193 505Q269 505 312 438T355 250ZM193 34Q226 34 249 52T288 101T309 171T316 250Q316 290 310 329T288 398T250 448T193 467Q159 467 136 448T98 399T77 329T70 250Q70 210 76 171T97 102T135 53T193 34ZM132 650L158 676L226 602L201 577L132 650Z"  />
<glyph unicode="&#xF3;" horiz-adv-x="385" d="M355 250Q355 211 348 167T323 84T273 20T192 -5Q116 -5 73 62T30 250Q30 289 37 334T62 417T111 480T193 505Q269 505 312 438T355 250ZM193 34Q226 34 249 52T288 101T309 171T316 250Q316 290 310 329T288 398T250 448T193 467Q159 467 136 448T98 399T77 329T70 250Q70 210 76 171T97 102T135 53T193 34ZM184 577L159 602L227 676L253 650L184 577Z"  />
<glyph unicode="&#xF4;" horiz-adv-x="385" d="M355 250Q355 211 348 167T323 84T273 20T192 -5Q116 -5 73 62T30 250Q30 289 37 334T62 417T111 480T193 505Q269 505 312 438T355 250ZM193 34Q226 34 249 52T288 101T309 171T316 250Q316 290 310 329T288 398T250 448T193 467Q159 467 136 448T98 399T77 329T70 250Q70 210 76 171T97 102T135 53T193 34ZM192 677L256 584L229 566L192 626L155 566L128 584L192 677Z"  />
<glyph unicode="&#xF5;" horiz-adv-x="385" d="M355 250Q355 211 348 167T323 84T273 20T192 -5Q116 -5 73 62T30 250Q30 289 37 334T62 417T111 480T193 505Q269 505 312 438T355 250ZM193 34Q226 34 249 52T288 101T309 171T316 250Q316 290 310 329T288 398T250 448T193 467Q159 467 136 448T98 399T77 329T70 250Q70 210 76 171T97 102T135 53T193 34ZM224 617Q215 617 207 622T191 633T176 643T162 647Q153 645 150 636T149 617H120Q118 627 120 638T129 657T144 670T162 676Q170 676 178 671T195 659T211 649T224 646Q232 648 236 656T236 676H266Q270 655 257 636T224 617Z"  />
<glyph unicode="&#xF6;" horiz-adv-x="385" d="M355 250Q355 211 348 167T323 84T273 20T192 -5Q116 -5 73 62T30 250Q30 289 37 334T62 417T111 480T193 505Q269 505 312 438T355 250ZM193 34Q226 34 249 52T288 101T309 171T316 250Q316 290 310 329T288 398T250 448T193 467Q159 467 136 448T98 399T77 329T70 250Q70 210 76 171T97 102T135 53T193 34ZM169 599H122V646H169V599ZM269 599H222V646H269V599Z"  />
<glyph unicode="&#xF7;" horiz-adv-x="276" d="M164 429H111V481H164V429ZM164 235H111V287H164V235ZM236 379V337H40V379H236Z"  />
<glyph unicode="&#xF8;" horiz-adv-x="385" d="M355 250Q355 211 348 167T323 84T273 20T192 -5Q127 -5 85 46L57 0L30 16L66 74Q30 138 30 250Q30 289 37 334T62 417T111 480T193 505Q258 505 299 455L326 500L355 486L318 426Q355 360 355 250ZM193 34Q226 34 249 52T288 101T309 171T316 250Q316 286 311 321T293 385L108 83Q122 60 143 47T193 34ZM70 250Q70 214 75 180T91 116L276 418Q262 441 241 453T193 467Q159 467 136 448T98 399T77 329T70 250Z"  />
<glyph unicode="&#xF9;" horiz-adv-x="345" d="M172 -7Q121 -7 86 19T50 105V501H88V105Q88 83 94 69T112 47T139 35T172 32Q189 32 204 35T231 46T249 69T256 105V501H295V105Q295 75 285 54T259 19T220 -1T172 -7ZM99 650L125 676L193 602L168 577L99 650Z"  />
<glyph unicode="&#xFA;" horiz-adv-x="345" d="M172 -7Q121 -7 86 19T50 105V501H88V105Q88 83 94 69T112 47T139 35T172 32Q189 32 204 35T231 46T249 69T256 105V501H295V105Q295 75 285 54T259 19T220 -1T172 -7ZM184 577L159 602L227 676L253 650L184 577Z"  />
<glyph unicode="&#xFB;" horiz-adv-x="345" d="M172 -7Q121 -7 86 19T50 105V501H88V105Q88 83 94 69T112 47T139 35T172 32Q189 32 204 35T231 46T249 69T256 105V501H295V105Q295 75 285 54T259 19T220 -1T172 -7ZM186 677L250 584L223 566L186 626L149 566L122 584L186 677Z"  />
<glyph unicode="&#xFC;" horiz-adv-x="345" d="M172 -7Q121 -7 86 19T50 105V501H88V105Q88 83 94 69T112 47T139 35T172 32Q189 32 204 35T231 46T249 69T256 105V501H295V105Q295 75 285 54T259 19T220 -1T172 -7ZM146 599H99V646H146V599ZM246 599H199V646H246V599Z"  />
<glyph unicode="&#xFD;" horiz-adv-x="221" d="M0 501H40L110 216L182 501H221L130 135V0H91V135L0 501ZM123 577L98 602L166 676L192 650L123 577Z"  />
<glyph unicode="&#xFE;" horiz-adv-x="327" d="M92 469Q135 469 172 450T237 399T281 324T297 233Q297 184 281 141T237 66T172 15T92 -4V-250H50V716H92V469ZM92 38Q126 38 155 53T207 95T243 157T256 233Q256 273 243 308T208 369T156 411T92 428V38Z"  />
<glyph unicode="&#xFF;" horiz-adv-x="221" d="M0 501H40L110 216L182 501H221L130 135V0H91V135L0 501ZM85 599H38V646H85V599ZM185 599H138V646H185V599Z"  />
<glyph unicode="&#x131;" horiz-adv-x="163" d="M113 501V0H75V463H-20V501H113Z"  />
<glyph unicode="&#x152;" horiz-adv-x="638" d="M438 675V268H580V226H438V41H628V0H396V40Q349 -1 269 -4Q216 -4 174 20T102 91T56 204T40 357Q40 395 44 436T58 517T85 594T127 659T188 704T271 723Q343 723 396 678V716H628V675H438ZM270 38Q352 38 396 105V614Q352 681 270 681Q219 681 183 653T125 578T93 475T83 357Q83 298 93 241T125 139T183 66T270 38Z"  />
<glyph unicode="&#x153;" horiz-adv-x="463" d="M323 464V194H420V155H323V38H453V0H285V32Q267 15 244 6T192 -5Q117 -4 74 62T30 250Q30 289 37 333T62 415T111 478T193 505Q220 505 243 495T285 467V501H453V464H323ZM193 34Q225 34 247 51T285 98V402Q270 431 248 449T193 467Q159 467 136 448T98 399T77 329T70 250Q70 210 76 171T97 102T135 53T193 34Z"  />
<glyph unicode="&#x160;" horiz-adv-x="230" d="M32 35Q62 33 86 42T129 68T158 110T171 165Q172 195 167 219T151 266T126 307T95 344Q79 363 63 383T35 428T16 480T11 543Q13 582 28 615T68 673T125 711T194 722V681Q165 682 140 672T97 643T66 598T53 540Q51 512 57 489T73 446T98 407T128 370Q144 351 160 330T188 284T208 228T214 162Q212 124 198 92T159 38T103 3T32 -7V35ZM122 781L58 874L85 892L122 832L159 892L186 874L122 781Z"  />
<glyph unicode="&#x161;" horiz-adv-x="175" d="M26 34Q67 31 93 55T121 119Q123 155 107 185T70 238Q48 264 29 297T11 377Q12 405 23 429T53 470T96 497T147 505V468Q107 470 80 443T51 376Q49 338 64 312T101 262Q112 248 123 233T143 201T156 162T160 116Q159 89 149 66T120 27T78 2T26 -5V34ZM101 566L37 659L64 677L101 617L138 677L165 659L101 566Z"  />
<glyph unicode="&#x178;" horiz-adv-x="305" d="M0 716H43L153 276L262 716H305L174 192V0H132V192L0 716ZM126 814H79V861H126V814ZM226 814H179V861H226V814Z"  />
<glyph unicode="&#x17D;" horiz-adv-x="237" d="M122 491L156 675H0V716H206L165 491H237V449H157L83 42H237V0H32L114 449H34V491H122ZM118 781L54 874L81 892L118 832L155 892L182 874L118 781Z"  />
<glyph unicode="&#x17E;" horiz-adv-x="191" d="M94 347L115 464H10V501H162L133 347H181V308H125L77 38H181V0H30L86 308H32V347H94ZM109 566L45 659L72 677L109 617L146 677L173 659L109 566Z"  />
<glyph unicode="&#x192;" horiz-adv-x="223" d="M116 268H228L222 226H110L73 -38Q59 -141 4 -195T-140 -250L-134 -209Q7 -209 31 -39L109 511Q123 614 178 668T323 723L317 682Q175 682 151 512L116 268Z"  />
<glyph unicode="&#x2C6;" horiz-adv-x="188" d="M94 677L158 584L131 566L94 626L57 566L30 584L94 677Z"  />
<glyph unicode="&#x2C7;" horiz-adv-x="188" d="M94 566L30 659L57 677L94 617L131 677L158 659L94 566Z"  />
<glyph unicode="&#x2DA;" horiz-adv-x="183" d="M92 600Q66 600 48 618T30 662Q30 688 48 705T92 723Q118 723 135 706T153 662Q153 636 136 618T92 600ZM92 698Q77 698 66 688T55 662Q55 647 66 636T92 625Q107 625 117 636T128 662Q128 677 118 687T92 698Z"  />
<glyph unicode="&#x2DC;" horiz-adv-x="208" d="M135 617Q126 617 118 622T102 633T87 643T73 647Q64 645 61 636T60 617H31Q29 627 31 638T40 657T55 670T73 676Q81 676 89 671T106 659T122 649T135 646Q143 648 147 656T147 676H177Q181 655 168 636T135 617Z"  />
<glyph unicode="&#x3BC;" horiz-adv-x="345" d="M171 -4Q147 -4 126 3T88 25V-250H50V501H88V105Q88 76 112 55T171 34Q189 34 204 39T231 55T249 78T256 105V501H295V105Q295 82 285 63T259 28T219 5T171 -4Z"  />
<glyph unicode="&#x2013;" horiz-adv-x="306" d="M266 379V337H40V379H266Z"  />
<glyph unicode="&#x2014;" horiz-adv-x="376" d="M336 379V337H40V379H336Z"  />
<glyph unicode="&#x2018;" horiz-adv-x="153" d="M77 707Q71 696 69 681T71 646H31Q26 693 45 727Q56 746 77 760T124 782L133 745Q112 738 99 730T77 707Z"  />
<glyph unicode="&#x2019;" horiz-adv-x="163" d="M76 721Q82 732 84 747T82 782H122Q127 735 108 701Q97 682 76 668T29 646L20 683Q41 690 54 698T76 721Z"  />
<glyph unicode="&#x201A;" horiz-adv-x="163" d="M76 -9Q82 2 84 17T82 52H122Q127 5 108 -29Q97 -48 76 -62T29 -84L20 -47Q41 -40 54 -32T76 -9Z"  />
<glyph unicode="&#x201C;" horiz-adv-x="212" d="M40 716H82V570H40V716ZM130 716H172V570H130V716Z"  />
<glyph unicode="&#x201D;" horiz-adv-x="212" d="M40 716H82V570H40V716ZM130 716H172V570H130V716Z"  />
<glyph unicode="&#x201E;" horiz-adv-x="263" d="M76 -9Q82 2 84 17T82 52H122Q127 5 108 -29Q97 -48 76 -62T29 -84L20 -47Q41 -40 54 -32T76 -9ZM176 -9Q182 2 184 17T182 52H222Q227 5 208 -29Q197 -48 176 -62T129 -84L120 -47Q141 -40 154 -32T176 -9Z"  />
<glyph unicode="&#x2020;" horiz-adv-x="216" d="M87 501V716H129V501H206V459H129V-250H87V459H10V501H87Z"  />
<glyph unicode="&#x2021;" horiz-adv-x="216" d="M87 501V716H129V501H206V459H129V42H206V0H129V-250H87V0H10V42H87V459H10V501H87Z"  />
<glyph unicode="&#x2022;" horiz-adv-x="176" d="M40 361Q40 381 54 395T88 409Q108 409 122 395T136 361Q136 341 122 327T88 313Q68 313 54 327T40 361Z"  />
<glyph unicode="&#x2026;" horiz-adv-x="381" d="M97 0H40V57H97V0ZM219 0H162V57H219V0ZM341 0H284V57H341V0Z"  />
<glyph unicode="&#x2030;" horiz-adv-x="565" d="M185 555Q185 535 182 508T170 456T145 414T101 396Q63 396 42 438T20 555Q20 575 22 602T33 655T58 698T102 716Q140 715 162 673T185 555ZM101 429Q127 429 139 462T152 555Q152 615 140 649T101 683Q76 683 65 649T53 555Q53 495 64 462T101 429ZM355 159Q355 139 352 112T340 60T315 18T271 0Q233 0 212 42T190 159Q190 179 192 206T203 259T228 302T272 320Q310 319 332 277T355 159ZM271 33Q297 33 309 66T322 159Q322 219 310 253T271 287Q246 287 235 253T223 159Q223 99 234 66T271 33ZM545 159Q545 139 542 112T530 60T505 18T461 0Q423 0 402 42T380 159Q380 179 382 206T393 259T418 302T462 320Q500 319 522 277T545 159ZM461 33Q487 33 499 66T512 159Q512 219 500 253T461 287Q436 287 425 253T413 159Q413 99 424 66T461 33ZM298 723L104 -7H72L266 723H298Z"  />
<glyph unicode="&#x2039;" horiz-adv-x="168" d="M102 130L30 360L104 588H148L74 360L146 130H102Z"  />
<glyph unicode="&#x203A;" horiz-adv-x="168" d="M22 130L94 360L20 588H64L138 360L66 130H22Z"  />
<glyph unicode="&#x20AC;" horiz-adv-x="362" d="M51 319Q50 329 50 338T50 359Q50 369 50 378T51 397H5V439H56Q71 543 124 614Q163 668 221 695T352 723V680Q293 680 249 660T174 607T125 531T98 439H295V397H93Q92 387 92 378T92 359Q92 348 92 339T93 319H295V277H98Q106 229 124 186T174 109T249 57T352 37V-6Q280 -6 222 21T124 103Q71 174 56 277H5V319H51Z"  />
<glyph unicode="&#x2122;" horiz-adv-x="361" d="M135 687H92V479H64V687H20V716H135V687ZM177 479H147L168 743L236 632L301 743L321 479H291L277 651L236 577L193 650L177 479Z"  />

</font>
</defs>
</svg>
