<?xml  version="1.0" encoding="UTF-8"?>
<!DOCTYPE svg PUBLIC "-//W3C//DTD SVG 1.0//EN" "http://www.w3.org/TR/2001/REC-SVG-20010904/DTD/svg10.dtd" >
<svg xmlns="http://www.w3.org/2000/svg" >
<metadata>
<version>1.0</version>
<id><![CDATA[Chic W90]]></id>
<vendor>Monotype Imaging Inc.</vendor>
<credits>
<name>Fonts.com WebFonts</name>
<URL>http://webfonts.fonts.com</URL>
<role>Home of the Web fonts</role>
</credits>
<license>
<URL>http://webfonts.fonts.com/Legal</URL>
</license>
<copyright><![CDATA[Copyright 1993 Monotype Imaging Inc. All rights reserved.]]></copyright>
<trademark><![CDATA[Chic is a trademark of Monotype Imaging Inc. and may be registered in certain jurisdictions.]]></trademark>
<licensee>
<name></name>
</licensee>
</metadata>
<defs >
<font horiz-adv-x="1320" id="997d8a62-657b-44d9-bbb6-e2d49709d29b">
<font-face font-family="" panose-1="2 0 6 4 2 0 0 2 0 3" ascent="1903" descent="-469" units-per-em="2048" alphabetic="0">
</font-face>
<missing-glyph horiz-adv-x="1024" />

<glyph unicode="&#xA;" />
<glyph unicode="&#xD;" horiz-adv-x="0" />
<glyph unicode=" " horiz-adv-x="524" />
<glyph unicode="!" horiz-adv-x="524" d="M399 528H371L418 1446H446L399 528ZM313 528H285L319 1446H348L313 528ZM225 528H156L80 1446H242L225 528ZM453 162Q453 123 438 88T397 27T336 -14T262 -29Q223 -29 189 -14T128 27T87 88T72 162Q72 201 87 235T128 296T188 337T262 352Q301 352 336 337T397 296T438 236T453 162ZM424 162Q424 210 397 249T328 307V14Q335 17 350 29T382 60T411 104T424 162ZM299 317Q294 318 288 320Q283 322 276 323T262 324Q250 324 239 322T219 317V8Q225 5 240 3T262 0Q276 0 283 1T299 6V317Z"  />
<glyph unicode="&quot;" horiz-adv-x="977" d="M723 838H694L743 1446H772L723 838ZM645 838H575L532 1446H690L645 838ZM399 838H371L420 1446H449L399 838ZM322 838H252L209 1446H367L322 838Z"  />
<glyph unicode="#" horiz-adv-x="1636" d="M1567 913H1317L1227 541H1489L1481 512H1221L1096 0H1067L1417 1446H1446L1325 942H1575L1567 913ZM993 0H965L1315 1446H1343L993 0ZM891 0H760L889 512H662L524 0H496L883 1446H911L776 942H995L1112 1446H1243L891 0ZM422 0H393L780 1446H809L422 0ZM319 0H184L324 512H55L70 541H330L430 913H147L156 942H436L573 1446H705L319 0ZM768 913L670 541H897L987 913H768Z"  />
<glyph unicode="$" horiz-adv-x="1364" d="M1219 442Q1209 468 1197 489T1174 528Q1163 545 1144 567T1085 621L438 1126Q422 1139 404 1156T370 1193T339 1231T317 1266Q308 1284 303 1297T293 1339Q306 1354 330 1371T388 1403T461 1431T547 1452Q548 1472 548 1499T548 1550Q548 1578 547 1608H575V1456Q594 1458 612 1459T651 1460Q673 1460 694 1459T737 1456V1608H766V1454Q832 1448 895 1418T1004 1343Q1016 1331 1035 1308T1072 1257T1103 1204T1116 1161Q1116 1146 1112 1135T1090 1124Q1076 1124 1071 1138T1065 1161Q1063 1175 1056 1196T1037 1240T1012 1286T983 1323Q934 1376 877 1398T766 1427V903L1087 655Q1126 624 1150 600T1192 551Q1199 541 1203 535T1211 522T1218 508T1225 489L1219 442ZM1192 274Q1187 299 1183 321T1165 367Q1159 379 1149 395T1125 429T1096 464T1063 494L344 1069Q332 1078 318 1092T289 1122T264 1152T246 1178Q238 1190 229 1208T221 1247L238 1276Q244 1256 252 1234T272 1192Q279 1182 290 1169T313 1141T338 1114T362 1092L1083 514Q1117 488 1143 455T1184 399Q1190 388 1194 376T1204 340L1192 274ZM1147 170Q1140 160 1120 134T1058 79T945 22T766 -16V-250H735Q736 -186 736 -135Q736 -113 736 -93T736 -56T736 -29T735 -18Q714 -22 690 -22T637 -23Q621 -23 606 -22T575 -18V-250H547V-12Q470 1 395 35T261 122T164 241T127 389Q127 431 135 474T157 551T187 607T221 629Q233 629 239 625T248 616T251 605T252 594Q252 586 239 574T211 539T183 480T170 387Q170 310 202 248T288 138T409 60T547 16V655L311 827Q279 853 253 879T207 935T178 999T168 1077Q168 1089 169 1097T174 1113T180 1127T186 1143Q196 1124 202 1111T223 1081Q231 1072 246 1057T278 1024T312 992T342 967L987 459Q1050 408 1080 365T1124 291Q1132 274 1139 242T1147 170ZM547 1421Q519 1416 487 1407T424 1385T367 1358T326 1327Q330 1315 333 1306T340 1288T350 1270T365 1249Q374 1237 385 1224T409 1198T434 1174T457 1153L547 1079V1421ZM737 1427Q714 1431 693 1431T649 1432Q631 1432 613 1431T575 1427V1055L737 928V1427ZM737 498L575 631V12Q594 10 610 9T641 8Q667 8 691 9T737 12V498ZM1034 104Q1035 116 1036 124T1037 141T1036 159T1034 184Q1032 202 1022 224T995 268T957 312T913 352L766 473V12Q812 17 849 25T917 45T977 71T1034 104Z"  />
<glyph unicode="%" horiz-adv-x="1835" d="M168 696Q149 721 130 751T96 820T71 906T61 1012Q61 1069 73 1122T102 1219T137 1291T168 1331V696ZM225 635V1389L254 1409V616L225 635ZM844 1012Q844 926 817 845T740 700T619 598T461 559Q433 559 412 560T373 565T340 573T309 586V1436Q327 1442 341 1447T371 1455T408 1460T461 1462Q550 1462 621 1427T741 1330T817 1187T844 1012ZM688 -123H637L1106 1475H1157L688 -123ZM1098 106Q1079 131 1060 161T1026 230T1001 316T991 422Q991 479 1003 532T1032 629T1067 701T1098 741V106ZM1155 45V799L1184 819V27L1155 45ZM1774 422Q1774 337 1747 256T1670 111T1549 8T1391 -31Q1363 -31 1342 -30T1303 -25T1270 -17T1239 -4V846Q1257 852 1271 857T1301 865T1338 870T1391 872Q1480 872 1551 837T1671 740T1747 597T1774 422ZM815 1012Q815 1103 790 1180T719 1314T607 1402T461 1434Q432 1434 415 1433T384 1430T361 1425T338 1417V604Q356 597 368 594T394 590T422 588T461 588Q540 588 605 623T717 717T789 852T815 1012ZM1745 422Q1745 513 1720 590T1649 724T1537 812T1391 844Q1362 844 1345 843T1314 840T1291 835T1268 827V14Q1286 7 1298 4T1324 0T1352 -2T1391 -2Q1470 -2 1535 33T1647 127T1719 262T1745 422Z"  />
<glyph unicode="&amp;" horiz-adv-x="1640" d="M1473 864Q1456 864 1436 859T1399 834Q1389 822 1376 792T1345 720T1305 631T1257 537Q1243 511 1230 490T1202 449T1171 408T1133 365L1362 29H1509V0H1346L489 1278Q480 1292 473 1310T461 1348Q456 1368 456 1381T455 1415Q480 1433 503 1444T551 1462T601 1472T659 1475Q721 1475 775 1455T870 1398T934 1312T958 1206Q958 1154 939 1108T891 1024T827 958T760 915L1112 393Q1150 433 1176 470T1227 551Q1248 591 1269 635T1305 718T1329 789T1333 836Q1327 857 1304 860T1249 864H1110V893H1610V864H1473ZM1219 0L408 1194Q394 1216 384 1245T371 1300Q369 1316 369 1327T371 1354L395 1380Q395 1360 395 1343T399 1309Q402 1287 409 1261T434 1208L1251 0H1219ZM977 0L899 115Q880 96 851 74T795 35Q756 10 714 -9T637 -29L180 639Q209 673 239 696T307 743Q339 765 366 777T426 807L354 913Q317 970 292 1024T266 1133Q266 1151 270 1169T280 1202T292 1230T303 1249Q309 1228 320 1204T344 1159L1126 0H977ZM516 -29L113 557L131 584L549 -29H516ZM410 -29Q372 -29 331 -15T249 25T174 84T111 157T68 240T51 326Q51 377 56 409T70 469L410 -29ZM926 1206Q926 1258 905 1302T845 1379T756 1430T647 1448Q599 1448 563 1437T487 1403Q489 1386 488 1377T492 1352Q497 1333 505 1317T520 1290L750 942Q783 958 814 984T871 1045T911 1120T926 1206ZM442 782Q419 770 386 754T322 719Q301 707 288 698T263 679T241 661T215 639L649 -2Q665 2 679 7T707 20T738 37T776 59Q805 76 832 96T881 137L442 782Z"  />
<glyph unicode="&apos;" horiz-adv-x="524" d="M332 838H303L352 1446H381L332 838ZM254 838H184L141 1446H299L254 838Z"  />
<glyph unicode="(" horiz-adv-x="567" d="M207 102Q190 120 171 156T135 243T102 354T76 477T57 605T51 729Q51 794 59 861T80 991T109 1112T143 1216T177 1296T207 1343V102ZM549 -78Q517 -76 474 -68T383 -43V1489Q439 1509 478 1514T549 1524V1495Q520 1490 486 1487T412 1470V-25Q454 -37 487 -42T549 -49V-78ZM281 20V1425L309 1452V-6L281 20Z"  />
<glyph unicode=")" horiz-adv-x="567" d="M516 729Q517 670 510 606T492 478T465 354T432 244T396 156T360 102V1343Q374 1329 390 1296T424 1217T457 1113T487 992T507 861T516 729ZM258 -6V1452L287 1425V20L258 -6ZM184 -43Q136 -60 93 -68T18 -78V-49Q47 -47 80 -42T156 -25V1470Q115 1484 81 1487T18 1495V1524Q50 1519 89 1514T184 1489V-43Z"  />
<glyph unicode="*" horiz-adv-x="1364" d="M705 1104L733 1446H766L725 1149L942 1360L991 1294L705 1104ZM414 1323L434 1350L655 1147L608 1446H680L684 1104L414 1323ZM389 883L346 942L618 1085L344 1221L387 1282L672 1085L389 883ZM739 1083L1030 934L1012 905L717 1085L1016 1255L1032 1231L739 1083ZM940 803L723 999L766 719H733L702 1069L983 864L940 803ZM680 719H608L641 1001L438 813L418 840L686 1069L680 719Z"  />
<glyph unicode="+" horiz-adv-x="1364" d="M727 520V0H639V520H119V608H639V1126H727V608H1245V520H727Z"  />
<glyph unicode="&#x2c;" horiz-adv-x="524" d="M453 162Q453 114 430 70T377 -23L242 -242L199 -240Q234 -178 261 -129Q273 -108 284 -89T303 -53T317 -28T322 -18Q292 -29 262 -29Q223 -29 189 -14T128 27T87 88T72 162Q72 201 87 235T128 296T188 337T262 352Q301 352 336 337T397 297T438 237T453 162ZM424 162Q424 210 397 249T328 307V14Q335 17 350 29T382 60T411 104T424 162ZM305 317Q297 319 286 321T262 324Q255 324 249 323T237 320Q231 318 225 317V6Q235 3 241 2T262 0Q268 0 283 2T305 8V317Z"  />
<glyph unicode="-" horiz-adv-x="625" d="M51 844V872H573V844H51ZM51 762V791H573V762H51ZM51 610V709H573V610H51Z"  />
<glyph unicode="." horiz-adv-x="524" d="M453 162Q453 123 438 88T397 27T336 -14T262 -29Q223 -29 189 -14T128 27T87 88T72 162Q72 201 87 235T128 296T188 337T262 352Q301 352 336 337T397 296T438 236T453 162ZM424 162Q424 186 417 209T397 252T367 288T328 313V14Q335 17 350 29T382 60T411 104T424 162ZM305 317Q297 319 286 321T262 324Q255 324 249 323T237 320Q231 318 225 317V6Q235 3 241 2T262 0Q268 0 283 2T305 8V317Z"  />
<glyph unicode="/" horiz-adv-x="537" d="M45 -94H-6L455 1475H506L45 -94Z"  />
<glyph unicode="0" horiz-adv-x="1364" d="M1303 723Q1303 629 1284 537T1228 361T1138 206T1018 82T869 1T694 -29Q633 -29 586 -20T503 2T441 31T395 59V1391Q425 1407 459 1422T532 1449T610 1468T694 1475Q836 1475 949 1416T1140 1255T1261 1016T1303 723ZM301 121V1315L330 1341V94L301 121ZM231 193Q195 232 164 283T110 400T74 546T61 723Q61 820 82 906T131 1060T188 1175T231 1237V193ZM1274 723Q1274 876 1234 1008T1119 1237T937 1390T694 1446Q654 1446 620 1441T553 1427T489 1404T424 1376V76Q456 58 487 44T550 21T617 6T694 0Q781 1 858 29T999 106T1115 224T1201 372T1255 541T1274 723Z"  />
<glyph unicode="1" horiz-adv-x="774" d="M522 0V1438L551 1448V29H743V0H522ZM420 0V1403L449 1413V0H420ZM31 0V29H215V1303L18 1241V1270L346 1380V0H31Z"  />
<glyph unicode="2" horiz-adv-x="1221" d="M152 0H12L1038 1202Q1009 1265 963 1311T862 1387T748 1431T633 1446Q555 1446 493 1432T383 1394T297 1343T233 1288Q218 1273 209 1256T199 1219Q199 1197 206 1177T221 1143L401 860L371 838Q353 870 327 914T270 1007T206 1107T142 1206T81 1293T31 1360L53 1378L78 1346Q85 1337 92 1325T108 1303T125 1285T143 1278Q159 1278 178 1295T223 1331Q269 1365 314 1392T407 1437T508 1465T627 1475Q716 1475 785 1456T906 1405T994 1334T1054 1257T1093 1184T1114 1128L152 0ZM1139 1012Q1136 1004 1130 995T1114 971Q1105 957 1095 945T1075 920L295 0H254L1055 940Q1061 949 1074 965T1098 995Q1107 1009 1117 1023T1135 1051L1139 1012ZM1114 0H387L1063 788Q1069 798 1083 814T1106 844Q1115 858 1125 872T1143 899L1147 860Q1144 852 1138 843T1122 819Q1113 805 1103 793T1083 768L449 29H1016Q1054 29 1075 53Q1088 67 1095 85T1108 125L1163 311L1190 303L1114 0Z"  />
<glyph unicode="3" horiz-adv-x="1157" d="M1059 1090Q1059 1037 1047 991T1015 907T968 846T913 813Q918 829 921 842T928 866Q933 883 935 904T938 940V1370Q963 1354 985 1326T1023 1260T1049 1180T1059 1090ZM834 25V637Q834 657 833 676T821 715Q816 725 811 732T800 745T785 757T764 770Q796 784 806 798T823 827Q834 856 834 909V1448L862 1434V897Q862 875 860 858T852 823Q847 809 839 797T813 768Q825 757 831 752T846 731Q855 716 858 690T862 637V39L834 25ZM754 0Q722 -9 698 -15T648 -24T595 -28T528 -29Q432 -29 338 -6T168 60T47 166T0 309Q0 331 7 352T26 391T52 419T82 430Q93 430 97 427T102 412Q102 404 98 400T89 394T77 389T66 381Q53 367 45 346T37 293Q37 234 77 181T186 87T341 24T524 0Q558 0 583 0T630 3T675 9T725 20V633Q725 653 725 673T713 713Q702 730 683 741T629 752H528V780H629Q664 780 683 794T713 823Q722 840 723 858T725 905V1438Q721 1440 711 1442Q703 1444 687 1445T645 1446Q568 1446 503 1434T386 1405T297 1367T240 1329Q226 1317 221 1302T215 1276Q215 1262 219 1252T229 1231L381 987L346 969Q328 1001 304 1042T252 1127T194 1218T135 1306T79 1386T31 1450L55 1466L88 1423Q95 1414 104 1401T123 1376T143 1355T164 1346Q181 1346 195 1352T231 1370Q298 1404 351 1424T451 1456T545 1471T645 1475Q674 1475 694 1474T729 1470Q744 1468 754 1466V893Q754 871 753 853T741 817Q733 802 724 792T692 766Q700 761 706 758T717 751T728 741T739 723Q750 704 752 683T754 633V0ZM1096 416Q1096 360 1085 308T1052 212T1002 135T938 84V602Q938 618 938 637T934 670Q931 688 929 697T922 725Q947 718 977 695T1034 632T1078 538T1096 416Z"  />
<glyph unicode="4" horiz-adv-x="1268" d="M973 348V29H1165V0H944V1442L973 1475V377H1255V348H973ZM842 0V1341L870 1370V0H842ZM453 0V29H637V348H-29V365L768 1255V0H453ZM637 1075L10 377H637V1075Z"  />
<glyph unicode="5" horiz-adv-x="1243" d="M1040 1427Q1040 1416 1031 1408T1012 1399Q971 1397 934 1397T859 1399T781 1404T696 1409Q641 1412 585 1416T478 1419T381 1408T303 1374Q284 1361 272 1331T250 1262T234 1175T223 1081T212 989T201 909Q248 937 296 963T396 1009T504 1041T623 1053Q686 1053 743 1048T854 1026V12Q817 1 786 -7T724 -20T658 -27T582 -29Q477 -29 398 -7T262 42T171 91T125 113Q116 113 108 107T93 92T80 74T70 57L27 -6L2 14Q18 35 46 76T107 168T176 273T243 377T297 463T328 516L354 500L199 250Q185 228 177 205T174 162Q177 149 194 132T240 96T306 59T385 28T473 6T563 0Q653 3 723 12T825 35V1004Q798 1009 775 1013T729 1020T680 1024T623 1024Q558 1022 501 1010T391 977T291 930T201 874L193 791L152 788Q156 806 160 833T169 894T178 964T188 1040Q196 1098 202 1154T218 1258T244 1342T289 1399Q320 1421 362 1430T454 1441T562 1441T682 1440Q727 1441 773 1441T862 1441T941 1442T1001 1446Q1014 1448 1027 1444T1040 1427ZM1192 541Q1192 478 1181 418T1148 305T1097 206T1030 127V926Q1117 848 1154 752T1192 541ZM928 51V995L954 985V72L928 51Z"  />
<glyph unicode="6" horiz-adv-x="1356" d="M1313 1456Q1264 1391 1229 1341T1162 1241T1096 1138T1014 1010L989 1028L1079 1157Q1085 1167 1096 1183T1117 1218T1135 1255T1143 1286Q1143 1299 1135 1311T1115 1333T1090 1353T1065 1370Q999 1415 928 1429T774 1446Q665 1450 580 1423T422 1346V694Q459 737 502 775T596 841T706 886T834 903Q947 903 1033 868T1177 772T1264 632T1294 463Q1294 362 1251 273T1132 117T957 10T741 -29Q680 -29 634 -24T548 -8T472 15T393 45V1360Q421 1383 460 1404T547 1440T653 1465T774 1475Q828 1475 871 1469T952 1453T1022 1427T1090 1393Q1120 1376 1140 1362T1178 1348Q1189 1348 1207 1366T1239 1405L1288 1475L1313 1456ZM291 133V1303L319 1329V102L291 133ZM217 199Q200 218 174 262T122 373T79 524T61 709Q61 807 80 893T125 1047T177 1159T217 1217V199ZM1257 463Q1257 486 1253 526T1233 611T1190 704T1115 788T999 850T834 874Q765 874 704 857T592 808T498 735T422 643V66Q450 54 485 43T559 22T641 6T729 0Q836 -1 932 32T1100 127T1214 274T1257 463Z"  />
<glyph unicode="7" horiz-adv-x="1202" d="M356 0H102V31H225L809 1395L190 1372Q169 1372 152 1370T123 1356Q112 1343 117 1325T129 1292L256 1008L227 995Q218 1016 202 1052T166 1131T124 1222T79 1314T37 1395T2 1456L31 1475Q43 1452 53 1437T74 1415Q89 1406 112 1406T158 1405L940 1421L356 0ZM598 29H766V0H553L1139 1425H1171L598 29ZM471 0H442L1024 1423H1055L471 0Z"  />
<glyph unicode="8" horiz-adv-x="1323" d="M1260 471Q1252 490 1238 516T1204 563Q1192 576 1177 592T1133 625L373 1106Q355 1117 337 1132T302 1163T274 1195T256 1223Q251 1232 246 1245T237 1274T229 1304T227 1333Q242 1346 273 1370T357 1417T488 1457T678 1475Q777 1475 859 1453T1000 1387T1091 1281T1124 1135Q1124 1082 1110 1039T1065 958T986 887T872 823L1139 659Q1157 648 1180 633T1217 598Q1226 586 1236 571T1257 532L1260 471ZM1241 309Q1235 338 1222 371T1194 426Q1175 452 1150 478T1096 522L317 1018Q303 1026 286 1037T253 1063T222 1092T199 1124Q183 1152 171 1185T156 1266L178 1288Q180 1273 184 1254T193 1216T204 1180T219 1149Q226 1137 239 1122T268 1093T300 1067T328 1047L1100 559Q1131 541 1161 515T1210 461Q1217 450 1223 442T1234 424T1243 404T1251 375L1241 309ZM1210 227Q1210 190 1168 146T1047 62T853 -3T594 -29Q531 -29 467 -20T344 8T233 58T143 131T83 229T61 354Q61 427 87 487T160 593T270 672T406 723Q347 760 290 795T189 869T117 956T90 1067Q90 1101 96 1126T113 1169Q126 1125 137 1102Q163 1045 206 1004T309 928L1053 459Q1084 439 1114 410T1171 342Q1190 314 1200 285T1210 227ZM1096 1135Q1096 1213 1066 1271T980 1368T848 1426T678 1446Q532 1446 429 1413T260 1325Q263 1303 269 1278T285 1237Q291 1227 302 1213T326 1185T354 1158T383 1137L846 842Q914 872 961 903T1039 970T1082 1046T1096 1135ZM1116 156Q1117 190 1108 219T1083 274T1044 320T993 358L442 705Q419 701 384 691T310 662T232 616T161 551T110 464T90 354Q90 268 129 202T235 91T389 23T573 0Q678 0 767 13T925 49T1043 99T1116 156Z"  />
<glyph unicode="9" horiz-adv-x="1356" d="M1294 752Q1294 686 1285 625T1260 510T1227 410T1191 329T1158 271T1133 238V1272Q1157 1244 1185 1194T1238 1077T1278 927T1294 752ZM1030 129V1356L1059 1325V156L1030 129ZM956 98Q927 74 888 51T801 10T696 -18T575 -29Q521 -29 479 -23T401 -5T334 22T272 57Q241 76 215 89T172 102Q164 102 156 97T141 82T127 63T113 43L61 -25L45 -4Q78 42 104 80T152 153T195 221T238 289T285 365T342 455L367 436L254 258Q240 235 229 216T217 170Q217 157 225 145T246 121T272 100T297 82Q358 34 426 19T575 0Q630 -2 677 5T767 28T849 65T928 113V756Q889 717 846 682T752 620T643 577T514 561Q415 561 332 594T189 685T95 820T61 987Q61 1087 104 1176T223 1331T399 1436T614 1475Q668 1475 720 1468T818 1450T899 1424T956 1393V98ZM928 1380Q896 1397 864 1409T796 1430T719 1442T627 1446Q515 1446 419 1413T253 1320T142 1175T102 987Q102 964 107 925T127 842T169 753T243 672T355 613T514 590Q581 590 640 606T750 650T846 718T928 803V1380Z"  />
<glyph unicode=":" horiz-adv-x="524" d="M453 1049Q453 1010 438 975T397 914T336 873T262 858Q223 858 189 873T129 914T89 975T74 1049Q74 1088 88 1122T128 1183T188 1224T262 1239Q301 1239 336 1224T397 1183T438 1123T453 1049ZM453 162Q453 123 438 88T397 27T336 -14T262 -29Q223 -29 189 -14T128 27T87 88T72 162Q72 201 87 235T128 296T188 337T262 352Q301 352 336 337T397 296T438 236T453 162ZM424 1049Q424 1097 397 1136T328 1194V901Q335 904 350 915T382 946T411 991T424 1049ZM305 1204Q297 1206 286 1208T262 1210Q255 1210 249 1209T237 1207Q231 1205 225 1204V893Q235 890 241 889T262 887Q268 887 283 889T305 895V1204ZM424 162Q424 210 397 249T328 307Q327 234 327 173Q327 147 327 121T326 74T326 36T326 14Q333 17 349 29T381 60T411 104T424 162ZM305 317Q297 319 286 321T262 324Q255 324 249 323T237 320Q231 318 225 317V6Q235 3 241 2T262 0Q268 0 283 2T305 8V317Z"  />
<glyph unicode=";" horiz-adv-x="524" d="M453 1049Q453 1010 438 975T397 914T336 873T262 858Q223 858 189 873T128 914T87 975T72 1049Q72 1088 87 1122T128 1183T188 1224T262 1239Q301 1239 336 1224T397 1183T438 1123T453 1049ZM453 162Q453 114 430 70T377 -23L242 -242L199 -240Q234 -178 261 -129Q273 -108 284 -89T303 -53T317 -28T322 -18Q292 -29 262 -29Q223 -29 189 -14T128 27T87 88T72 162Q72 201 87 235T128 296T188 337T262 352Q301 352 336 337T397 297T438 237T453 162ZM424 1049Q424 1097 397 1136T328 1194V901Q335 904 350 915T382 946T411 991T424 1049ZM305 1204Q297 1206 286 1208T262 1210Q255 1210 249 1209T237 1207Q231 1205 225 1204V893Q235 890 241 889T262 887Q268 887 283 889T305 895V1204ZM424 162Q424 210 397 249T328 307V14Q335 17 350 29T382 60T411 104T424 162ZM305 317Q297 319 286 321T262 324Q255 324 249 323T237 320Q231 318 225 317V6Q235 3 241 2T262 0Q268 0 283 2T305 8V317Z"  />
<glyph unicode="=" horiz-adv-x="1364" d="M119 610V698H1245V610H119ZM119 430V518H1245V430H119Z"  />
<glyph unicode="?" horiz-adv-x="977" d="M905 1079Q905 1011 887 957T844 856V913Q856 939 866 978T877 1077Q877 1105 876 1124T871 1159T862 1190T848 1229V1286Q856 1272 866 1250T884 1201T899 1142T905 1079ZM760 756V1378L788 1350V786L760 756ZM686 727Q667 722 639 717T579 703T519 684T469 657Q451 642 441 623T427 582T423 537T422 492H389Q389 526 390 553T398 602T415 642T446 678Q458 689 473 697T504 711T538 723T571 735V1427Q540 1437 517 1441T461 1446Q393 1446 334 1429T228 1376T147 1289T98 1167Q95 1155 92 1145T74 1135Q58 1135 53 1142T47 1161Q47 1217 83 1273T176 1374T305 1447T449 1475Q486 1475 516 1473T575 1463T629 1445T686 1417V727ZM578 162Q578 123 563 88T522 27T461 -14T387 -29Q348 -29 314 -14T253 27T212 88T197 162Q197 201 212 235T253 296T313 337T387 352Q426 352 461 337T522 296T563 236T578 162ZM549 162Q549 210 522 249T453 307V14Q460 17 475 29T507 60T536 104T549 162ZM424 317Q419 318 413 320Q408 322 401 323T387 324Q375 324 364 322T344 317V8Q350 5 365 3T387 0Q401 0 408 1T424 6V317Z"  />
<glyph unicode="@" horiz-adv-x="2048" d="M1853 657Q1853 565 1830 481T1767 324T1673 192T1554 90T1420 25T1278 2Q1229 2 1200 17T1155 55T1134 103T1128 147Q1118 136 1098 114T1044 69T966 31T862 14Q806 14 757 33T671 88T613 180T592 307Q592 381 612 459T669 612T756 753T865 869T988 948T1120 977Q1183 977 1225 959T1295 916T1337 866T1360 825L1405 936H1581L1411 512Q1393 469 1372 415T1331 311T1299 220T1286 164Q1286 139 1299 124T1348 109Q1385 109 1430 125T1520 174T1608 252T1684 360T1737 495T1757 657Q1757 745 1734 821T1668 959T1566 1069T1436 1150T1285 1200T1120 1217Q1021 1217 924 1185T740 1097T578 965T450 799T365 610T334 410Q334 284 383 177T525 -10T750 -133T1047 -178Q1140 -178 1218 -164T1361 -129T1476 -83T1561 -34T1618 7T1647 31L1700 -16Q1687 -31 1657 -56T1583 -109T1480 -166T1353 -218T1204 -255T1038 -270Q855 -270 701 -221T434 -81T258 133T195 408Q195 529 228 644T323 860T468 1046T655 1192T872 1287T1112 1321Q1268 1321 1403 1273T1638 1136T1795 926T1853 657ZM1292 766Q1292 790 1284 813T1260 855T1220 885T1165 897Q1116 897 1067 862T972 769T886 639T817 494T771 352T754 236Q754 199 765 173T795 130T840 106T897 98Q945 98 981 117T1044 165T1089 222T1120 272Q1164 343 1196 421T1250 568T1281 691T1292 766Z"  />
<glyph unicode="A" horiz-adv-x="1929" d="M1726 0L989 1446H1165V1417H1040L1751 29H1915V0H1726ZM1612 0L864 1446H903L1645 0H1612ZM1153 0V29H1364L1120 506H422L233 111Q221 79 223 68T236 47Q247 36 266 33T305 29H498V0H14V29H92Q109 29 129 36T160 51Q172 60 183 78T199 106L387 506H14V535H401L741 1249L659 1417H571V1446H788L1526 0H1153ZM762 1214L436 535H1098L762 1214Z"  />
<glyph unicode="B" horiz-adv-x="1352" d="M1300 389Q1300 302 1268 226T1179 94T1048 4T885 -29Q788 -29 704 10T563 117V0H535V1446H563V1341Q585 1370 614 1394T678 1437T752 1465T834 1475Q917 1475 979 1447T1084 1374T1147 1272T1169 1157Q1169 1080 1147 1021T1087 918T996 845T883 801Q970 798 1046 766T1178 679T1267 550T1300 389ZM432 0V1446H461V0H432ZM31 0V29H227V1417H31V1446H358V0H31ZM1260 389Q1260 467 1230 534T1149 652T1028 736T881 778Q864 780 850 782T813 784V811Q896 830 955 860T1052 932T1108 1030T1126 1157Q1126 1214 1106 1266T1048 1358T956 1422T834 1446Q788 1446 748 1434T674 1400T613 1351T563 1292Q564 976 564 729Q564 623 564 522T564 342T564 215T563 166Q617 91 701 46T885 0Q966 0 1034 30T1153 114T1231 237T1260 389Z"  />
<glyph unicode="C" horiz-adv-x="1667" d="M1636 1454Q1595 1394 1541 1317T1418 1137T1260 906T1063 614L1038 637L1341 1085Q1355 1107 1364 1128T1374 1176Q1374 1202 1357 1227T1321 1272Q1284 1309 1240 1341T1140 1396T1013 1433T850 1446Q796 1446 735 1437T614 1411T502 1371T412 1319V123Q437 104 483 83T587 43T712 12T844 0Q963 0 1055 20T1217 72T1335 138T1413 203Q1439 229 1450 247T1475 266Q1490 266 1495 259T1501 240Q1501 231 1482 208T1426 155T1334 93T1208 33T1050 -11T862 -29Q781 -29 704 -15T562 20T451 63T383 102V1335Q411 1361 463 1386T580 1431T715 1463T850 1475Q959 1475 1038 1459T1175 1418T1273 1363T1343 1303Q1369 1278 1386 1262T1421 1245Q1430 1245 1440 1252T1460 1268T1478 1289T1491 1309L1606 1475L1636 1454ZM281 176V1257L309 1284V145L281 176ZM207 236Q190 256 164 301T112 410T69 556T51 729Q51 827 70 906T115 1043T167 1137T207 1188V236Z"  />
<glyph unicode="D" horiz-adv-x="1653" d="M1602 729Q1602 632 1584 538T1531 360T1444 204T1324 81T1172 0T989 -29Q915 -29 850 -9T731 40T634 101T563 156V0H535V1446H563V1282Q592 1313 635 1347T734 1409T854 1456T993 1475Q1093 1475 1177 1447T1328 1369T1447 1248T1533 1095T1584 919T1602 729ZM432 0V1446H461V0H432ZM31 0V29H227V1417H31V1446H358V0H31ZM1561 729Q1561 826 1545 917T1496 1087T1415 1233T1303 1346T1163 1420T993 1446Q917 1446 849 1424T724 1370T627 1302T563 1239V195Q594 169 635 136T728 72T844 21T989 0Q1126 0 1232 59T1412 218T1523 451T1561 729Z"  />
<glyph unicode="E" horiz-adv-x="1255" d="M1208 0H535V1446H1100L1110 1245H1081L1075 1354Q1075 1368 1069 1382T1055 1403Q1041 1412 1019 1414T975 1417H563V973H983Q1002 973 1018 976T1044 989Q1052 997 1054 1013T1057 1047V1085H1085V829H1057V877Q1057 880 1056 887T1053 902T1047 918T1040 930Q1031 939 1016 941T983 944H563V29H1087Q1109 29 1133 30T1169 45Q1186 64 1186 92L1196 207H1225L1208 0ZM432 0V1446H461V0H432ZM31 0V29H227V1417H31V1446H358V0H31Z"  />
<glyph unicode="F" horiz-adv-x="1139" d="M1079 1245L1073 1354Q1073 1368 1067 1382T1053 1403Q1039 1412 1017 1414T973 1417H561V973H981Q1000 973 1016 976T1042 989Q1050 997 1052 1013T1055 1047V1085H1083V829H1055V877Q1055 880 1054 887T1051 902T1045 918T1038 930Q1029 939 1014 941T981 944H561V29H786V0H532V1446H1098L1108 1245H1079ZM432 0V1446H461V0H432ZM31 0V29H227V1417H31V1446H358V0H31Z"  />
<glyph unicode="G" horiz-adv-x="1667" d="M1634 1456Q1602 1409 1557 1343T1458 1199T1349 1040T1239 881T1141 736T1063 618L1038 637L1341 1085Q1355 1107 1364 1128T1374 1176Q1374 1202 1357 1227T1321 1272Q1284 1309 1240 1341T1140 1396T1013 1433T850 1446Q796 1446 737 1436T620 1407T509 1366T412 1319V113Q452 93 506 73T619 36T737 10T846 0Q933 1 1013 10T1162 42T1291 101T1395 193Q1400 199 1403 207T1401 221Q1395 230 1379 231T1348 233H766V262H1602V233H1528Q1520 233 1513 231T1499 227Q1488 224 1477 213Q1426 151 1358 106T1210 30T1037 -14T846 -29Q792 -29 724 -17T591 13T469 53T383 94V1335Q422 1359 472 1384T582 1429T709 1462T850 1475Q959 1475 1038 1459T1175 1418T1273 1363T1343 1303Q1369 1278 1386 1262T1421 1245Q1430 1245 1440 1252T1460 1268T1478 1289T1491 1309L1608 1475L1634 1456ZM281 176V1257L309 1284V145L281 176ZM207 236Q190 256 164 301T112 410T69 556T51 729Q51 827 70 905T115 1040T167 1135T207 1188V236Z"  />
<glyph unicode="H" horiz-adv-x="1815" d="M1587 0V1446H1780V1417H1616V29H1780V0H1587ZM1485 0V1446H1513V0H1485ZM1083 0V29H1280V973H563V29H723V0H535V1446H727V1417H563V1001H1280V1417H1083V1446H1411V0H1083ZM432 0V1446H461V0H432ZM31 0V29H227V1417H31V1446H358V0H31Z"  />
<glyph unicode="I" horiz-adv-x="758" d="M535 0V1446H727V1417H563V29H727V0H535ZM432 0V1446H461V0H432ZM31 0V29H227V1417H31V1446H358V0H31Z"  />
<glyph unicode="J" horiz-adv-x="1288" d="M1094 1417V266Q1094 248 1092 235T1085 205Q1082 188 1077 175T1063 145L1030 121Q1032 127 1036 139T1044 163T1051 187T1057 205Q1060 219 1062 239T1065 268V1446H1257V1417H1094ZM991 252Q991 214 987 175T971 98Q968 87 966 83T962 76T958 69T950 53L915 33Q925 53 932 72T944 111Q948 128 951 147T957 186T961 224T963 254V1446H991V252ZM889 309Q889 255 884 206T869 115T846 42T815 -6Q800 -15 781 -20T737 -27T681 -29T610 -29Q535 -29 468 -9T345 47T246 135T176 250Q165 275 158 304T146 357T135 398T121 414Q108 414 94 399T68 371L14 315L-6 340Q13 358 48 395T127 478T216 573T301 664T367 737T401 776L424 756L225 532Q204 506 195 486T182 451Q180 440 181 420T185 376T194 327T207 281Q219 245 247 197T325 105T444 31T610 0Q633 0 657 0T707 2Q720 23 729 57T745 133T755 224T758 326V1417H561V1446H889V309Z"  />
<glyph unicode="K" horiz-adv-x="1720" d="M1544 0L813 1094L1135 1366Q1146 1375 1150 1387T1149 1407Q1143 1415 1126 1416T1092 1417H956V1446H1460V1417H1305Q1288 1417 1273 1415T1239 1405Q1225 1399 1213 1391T1188 1374L854 1085L1559 29H1706V0H1544ZM563 1417V29H723V0H535V1446H727V1417H563ZM432 0V1446H461V0H432ZM31 0V29H227V1417H31V1446H358V0H31ZM1411 0L731 1024L756 1040L1448 0H1411ZM942 0V29H1155L580 893L680 979L1323 0H942Z"  />
<glyph unicode="L" horiz-adv-x="1255" d="M1208 0H535V1446H727V1417H563V29H1087Q1109 29 1133 30T1169 45Q1186 64 1186 92L1196 207H1225L1208 0ZM432 0V1446H461V0H432ZM31 0V29H227V1417H31V1446H358V0H31Z"  />
<glyph unicode="M" horiz-adv-x="1855" d="M899 393L479 1446H508L913 426L899 393ZM1636 0L1610 1446H1802V1417H1638L1665 29H1825V0H1636ZM1534 0L1507 1446H1536L1563 0H1534ZM1133 0V29H1329L1305 1343L956 530L584 1446H776V1417H627L958 604L1303 1417H1106V1446H1434L1460 0H1133ZM795 143L279 1417L233 92Q233 80 234 70T244 49Q253 35 270 32T305 29H434V0H31V29H121Q138 29 153 32T178 47Q186 55 190 69T195 98L238 1417H80V1446H391L856 293L795 143Z"  />
<glyph unicode="N" horiz-adv-x="1530" d="M1409 1417Q1392 1417 1374 1414T1346 1399Q1338 1391 1334 1377T1329 1348V707L197 1425V1462L1290 770V1354Q1290 1366 1289 1376T1280 1397Q1271 1411 1254 1414T1219 1417H1096V1446H1499V1417H1409ZM197 1303V1339L1335 621V580L197 1303ZM1294 -61V375L238 1051V92Q240 80 240 70T248 49Q257 35 273 32T307 29H436V0H31V29H121Q138 29 153 32T178 47Q186 55 191 71T197 102V1212L1335 492V-61H1294Z"  />
<glyph unicode="O" horiz-adv-x="1532" d="M207 236Q190 256 164 301T112 410T69 556T51 729Q51 826 69 908T113 1055T165 1160T207 1217V236ZM281 152V1298L309 1325V121L281 152ZM1481 729Q1481 632 1461 538T1400 360T1299 204T1159 81T980 0T762 -29Q708 -29 650 -20T540 4T446 36T383 70V1376Q412 1392 453 1409T545 1441T651 1465T766 1475Q884 1475 983 1447T1161 1369T1301 1248T1401 1095T1461 919T1481 729ZM1440 729Q1440 875 1397 1005T1268 1233T1057 1388T766 1446Q718 1446 667 1438T568 1417T480 1389T412 1358V84Q443 67 483 52T568 26T663 7T762 0Q872 0 965 27T1134 103T1267 219T1362 367T1420 540T1440 729Z"  />
<glyph unicode="P" horiz-adv-x="1423" d="M1372 958Q1372 864 1337 775T1241 616T1100 504T930 461Q873 461 824 472T729 503T643 547T563 600V29H760V0H535V1446H563V1284Q587 1308 618 1339T692 1397T789 1443T915 1462Q1032 1462 1118 1422T1260 1313T1344 1153T1372 958ZM432 0V1446H461V0H432ZM31 0V29H227V1417H31V1446H358V0H31ZM1331 958Q1331 1003 1323 1056T1297 1162T1247 1264T1170 1351T1060 1411T915 1434Q853 1434 799 1415T699 1366T620 1302T563 1235V641Q589 620 626 594T709 544T811 505T928 489Q1013 489 1086 531T1214 640T1300 790T1331 958Z"  />
<glyph unicode="Q" horiz-adv-x="1532" d="M207 236Q190 256 164 301T112 410T69 556T51 729Q51 827 70 910T115 1057T167 1162T207 1217V236ZM281 152V1298L309 1325V121L281 152ZM1491 2Q1491 -5 1479 -19T1447 -51T1398 -87T1336 -120T1265 -144T1190 -154Q1091 -154 1004 -122T856 -25Q833 -28 810 -28T762 -29Q708 -29 650 -20T540 4T446 36T383 70V1376Q401 1392 443 1409T538 1441T652 1465T766 1475Q884 1475 983 1447T1161 1369T1301 1248T1401 1095T1461 919T1481 729Q1481 598 1444 474T1334 248T1151 76T897 -18Q953 -74 1027 -99T1186 -125Q1226 -125 1260 -115T1322 -90T1370 -60T1403 -35Q1432 -10 1444 9T1466 29Q1477 29 1484 22T1491 2ZM1440 729Q1440 875 1397 1005T1268 1233T1057 1388T766 1446Q663 1446 572 1422T412 1360V84Q443 67 483 52T568 26T663 7T762 0Q780 0 798 0T836 2Q807 42 791 92T774 205Q774 250 790 292T835 366T905 418T995 438Q1046 438 1083 421T1145 374T1182 306T1194 225Q1194 199 1191 178T1180 135Q1244 186 1293 251T1374 393T1423 554T1440 729ZM1165 219Q1165 256 1156 290T1126 351T1073 394T995 410Q952 410 917 392T856 345T816 278T803 201Q805 141 823 92T872 6Q947 19 1011 42T1130 100Q1147 128 1156 156T1165 219Z"  />
<glyph unicode="R" horiz-adv-x="1423" d="M1460 188Q1460 140 1441 100T1388 32T1309 -13T1214 -29Q1134 -29 1069 -2T949 68T849 164T766 270Q738 308 711 352T661 440T621 524T594 594H625Q627 591 638 583T655 569Q687 551 718 536T782 511T850 495T928 489Q1013 489 1086 531T1214 640T1300 790T1331 958Q1331 1003 1324 1057T1298 1165T1249 1270T1172 1360T1062 1422T915 1446Q856 1446 802 1428T702 1380T621 1317T563 1251V29H760V0H535V1446H563V1300Q578 1316 606 1345T678 1403T780 1453T915 1475Q1032 1475 1118 1433T1260 1320T1344 1155T1372 958Q1372 864 1337 775T1241 616T1100 504T930 461Q852 461 778 483T647 541Q672 485 709 417T793 287Q834 231 880 180T979 88T1089 24T1214 0Q1256 0 1295 13T1364 50T1413 108T1432 186Q1432 231 1421 256T1396 295T1369 313T1350 322Q1345 325 1346 334T1360 344Q1383 344 1401 330T1433 293T1453 243T1460 188ZM432 0V1446H461V0H432ZM31 0V29H227V1417H31V1446H358V0H31Z"  />
<glyph unicode="S" horiz-adv-x="1210" d="M1155 408Q1143 440 1130 468T1098 518Q1081 538 1060 562T1010 608L362 1143Q333 1168 299 1205T242 1280Q232 1294 225 1310T217 1354Q238 1372 271 1393T350 1433T452 1463T575 1475Q675 1475 770 1456T946 1395Q977 1379 993 1370T1026 1360Q1042 1360 1052 1373T1077 1409L1122 1487L1149 1470L850 942L825 965L954 1198Q967 1221 977 1241T987 1288Q987 1314 968 1334T926 1366Q878 1393 833 1408T743 1432T657 1442T573 1446Q523 1447 475 1439T384 1415T307 1381T252 1339Q259 1315 265 1301T289 1264Q298 1252 309 1239T333 1212T358 1188T381 1167L1012 647Q1050 616 1075 589T1118 541Q1132 524 1144 502T1165 459L1155 408ZM1122 248Q1117 276 1112 303T1094 352Q1088 364 1077 381T1051 417T1021 454T987 485L268 1083Q257 1092 243 1106T214 1136T188 1166T170 1192Q166 1198 161 1206T152 1224T145 1244T143 1266L162 1290Q168 1270 176 1248T197 1206Q204 1196 214 1183T237 1157T262 1130T287 1108L1008 506Q1046 474 1073 439T1116 375Q1120 368 1122 364T1128 354T1134 338T1141 309L1122 248ZM1071 162Q1066 154 1054 137T1019 99T958 55T865 14T735 -17T561 -29Q504 -29 444 -16T327 23T220 84T133 166T73 266T51 381Q51 423 59 466T81 543T111 599T145 621Q157 621 163 617T172 608T175 597T176 586Q176 578 163 566T135 531T107 472T94 379Q94 319 114 268T170 174T251 100T350 45T457 12T565 0Q643 0 700 6T802 25T884 55T958 96Q961 107 962 115T963 132T962 151T958 176Q955 194 945 216T918 260T882 304T838 344L236 842Q204 868 178 894T132 950T103 1015T92 1092Q92 1110 93 1119T98 1135T104 1145T111 1155Q118 1143 125 1132Q131 1122 137 1112T150 1094Q157 1084 171 1069T202 1037T236 1005T266 981L911 451Q974 400 1004 357T1049 283Q1057 266 1064 234T1071 162Z"  />
<glyph unicode="T" horiz-adv-x="1272" d="M1212 1245L1206 1354Q1206 1368 1200 1382T1186 1403Q1172 1412 1154 1414T1114 1417H795V29H954V0H766V1446Q896 1447 998 1447Q1041 1447 1083 1447T1157 1447T1210 1447T1231 1446L1241 1245H1212ZM664 0V1446H692V0H664ZM262 0V29H459V1417H158Q136 1417 118 1415T86 1403Q78 1397 72 1383T66 1354L59 1245H31L41 1446H590V0H262Z"  />
<glyph unicode="U" horiz-adv-x="1520" d="M375 66Q365 67 352 76T324 99T297 132T274 172Q262 200 253 224T239 274T230 334T227 412V1417H31V1446H358V332Q358 276 359 225T365 143Q367 126 368 116T371 98T372 83T375 66ZM461 29Q453 53 448 78T440 123Q438 147 437 162T435 194T433 234T432 295V1446H461V328Q461 296 461 270T463 221T466 175T471 127Q476 95 485 61T504 -2L461 29ZM1397 1417Q1378 1417 1363 1414T1337 1397Q1332 1389 1329 1379T1325 1358V483Q1325 369 1301 279T1210 111Q1169 63 1115 35T1003 -7T888 -25T784 -29Q751 -29 720 -28T663 -23T616 -16T584 -6Q569 10 560 36T545 96T537 166T535 240V1446H727V1417H563V248Q563 214 565 179T572 113T586 56T608 18Q617 15 635 12T677 6T728 2T784 0Q842 0 896 4T1001 23T1098 64T1184 133Q1220 172 1240 213T1270 301T1282 397T1284 504V1354Q1284 1368 1281 1379T1268 1399Q1245 1417 1212 1417H1108V1446H1489V1417H1397Z"  />
<glyph unicode="V" horiz-adv-x="1669" d="M1575 1417Q1555 1417 1537 1414T1507 1399Q1495 1386 1488 1375T1475 1348L1014 303L473 1446H711V1417H524L1012 385L1434 1352Q1439 1364 1441 1376T1438 1399Q1430 1411 1413 1414T1372 1417H1264V1446H1649V1417H1575ZM954 168L358 1446H391L975 209L954 168ZM868 -29H840L156 1417H14V1446H291L920 86L868 -29Z"  />
<glyph unicode="W" horiz-adv-x="2263" d="M2175 1417Q2155 1417 2137 1414T2107 1399Q2095 1386 2088 1375T2075 1348L1726 344L1245 1399L1262 1444L1720 440L2034 1352Q2037 1364 2040 1376T2038 1399Q2030 1411 2013 1414T1972 1417H1864V1446H2249V1417H2175ZM844 190L365 1446H397L860 244L844 190ZM1675 195L1194 1257L1210 1309L1694 242L1675 195ZM1583 -29H1554L1118 952L897 348L477 1446H719V1417H524L897 440L1161 1169L1630 104L1583 -29ZM764 -29H735L156 1417H14V1446H291L809 86L764 -29Z"  />
<glyph unicode="X" horiz-adv-x="1753" d="M1575 0L571 1446H764V1417H629L995 891L1354 1356Q1365 1373 1370 1380T1372 1397Q1367 1409 1359 1413T1327 1417H1194V1446H1624V1417H1513Q1496 1417 1484 1415T1458 1407Q1446 1401 1437 1391T1419 1370L1020 856L1599 29H1739V0H1575ZM1452 0L432 1446H469L1497 0H1452ZM1006 0V29H1206L797 596L395 90Q384 73 379 66T377 49Q382 37 390 33T422 29H555V0H125V29H236Q253 29 265 31T291 39Q303 45 315 60T336 84L768 631L211 1417H14V1446H342L1374 0H1006Z"  />
<glyph unicode="Y" horiz-adv-x="1769" d="M1645 1417Q1628 1417 1616 1415T1589 1407Q1577 1401 1566 1392T1548 1370L1104 627V29H1264V0H1075V618L571 1446H764V1417H625L1087 674L1489 1354Q1500 1371 1503 1379T1503 1397Q1498 1409 1490 1413T1458 1417H1325V1446H1755V1417H1645ZM969 0V594L432 1446H469L999 610V0H969ZM571 0V29H768V541L211 1417H14V1446H342L899 565V0H571Z"  />
<glyph unicode="Z" horiz-adv-x="1257" d="M436 29H1061Q1083 29 1101 31T1133 43Q1141 49 1147 63T1153 92L1159 201H1188L1178 0H383L1190 1446H1227L436 29ZM289 0H256L1071 1446H1110L289 0ZM170 0H31L838 1417H254Q232 1417 214 1415T182 1403Q174 1397 168 1383T162 1354L156 1245H127L137 1446H977L170 0Z"  />
<glyph unicode="[" horiz-adv-x="567" d="M377 1495V-49H537V-78H348V1524H541V1495H377ZM246 -78V1524H274V-78H246ZM41 -78V1524H172V-78H41Z"  />
<glyph unicode="]" horiz-adv-x="567" d="M395 -78V1524H526V-78H395ZM293 -78V1524H322V-78H293ZM31 -78V-49H190V1495H27V1524H219V-78H31Z"  />
<glyph unicode="^" horiz-adv-x="530" d="M408 997L264 1339L121 997H0L203 1446H326L528 997H408Z"  />
<glyph unicode="_" horiz-adv-x="1024" d="M0 -256V-154H1024V-256H0Z"  />
<glyph unicode="`" horiz-adv-x="270" d="M186 1550L4 1847H209L266 1550H186Z"  />
<glyph unicode="a" horiz-adv-x="1929" d="M1726 0L989 1446H1165V1417H1040L1751 29H1915V0H1726ZM1612 0L864 1446H903L1645 0H1612ZM1153 0V29H1364L1120 506H422L233 111Q221 79 223 68T236 47Q247 36 266 33T305 29H498V0H14V29H92Q109 29 129 36T160 51Q172 60 183 78T199 106L387 506H14V535H401L741 1249L659 1417H571V1446H788L1526 0H1153ZM762 1214L436 535H1098L762 1214Z"  />
<glyph unicode="b" horiz-adv-x="1352" d="M1300 389Q1300 302 1268 226T1179 94T1048 4T885 -29Q788 -29 704 10T563 117V0H535V1446H563V1341Q585 1370 614 1394T678 1437T752 1465T834 1475Q917 1475 979 1447T1084 1374T1147 1272T1169 1157Q1169 1080 1147 1021T1087 918T996 845T883 801Q970 798 1046 766T1178 679T1267 550T1300 389ZM432 0V1446H461V0H432ZM31 0V29H227V1417H31V1446H358V0H31ZM1260 389Q1260 467 1230 534T1149 652T1028 736T881 778Q864 780 850 782T813 784V811Q896 830 955 860T1052 932T1108 1030T1126 1157Q1126 1214 1106 1266T1048 1358T956 1422T834 1446Q788 1446 748 1434T674 1400T613 1351T563 1292Q564 976 564 729Q564 623 564 522T564 342T564 215T563 166Q617 91 701 46T885 0Q966 0 1034 30T1153 114T1231 237T1260 389Z"  />
<glyph unicode="c" horiz-adv-x="1667" d="M1640 1458Q1599 1398 1545 1320T1420 1140T1261 907T1063 614L1038 637L1341 1085Q1355 1107 1364 1128T1374 1176Q1374 1202 1357 1227T1321 1272Q1284 1309 1240 1341T1140 1396T1013 1433T850 1446Q796 1446 735 1437T614 1411T502 1371T412 1319V123Q437 104 483 83T587 43T712 12T844 0Q963 0 1055 20T1217 72T1335 138T1413 203Q1439 229 1450 247T1475 266Q1490 266 1495 259T1501 240Q1501 231 1482 208T1426 155T1334 93T1208 33T1050 -11T862 -29Q781 -29 704 -15T562 20T451 63T383 102V1335Q411 1361 463 1386T580 1431T715 1463T850 1475Q959 1475 1038 1459T1175 1418T1273 1363T1343 1303Q1369 1278 1386 1262T1421 1245Q1430 1245 1440 1252T1460 1268T1478 1289T1491 1309L1610 1479L1640 1458ZM281 176V1257L309 1284V145L281 176ZM207 236Q190 256 164 301T112 410T69 556T51 729Q51 827 70 906T115 1043T167 1137T207 1188V236Z"  />
<glyph unicode="d" horiz-adv-x="1653" d="M1602 729Q1602 632 1584 538T1531 360T1444 204T1324 81T1172 0T989 -29Q915 -29 850 -9T731 40T634 101T563 156V0H535V1446H563V1282Q592 1313 635 1347T734 1409T854 1456T993 1475Q1093 1475 1177 1447T1328 1369T1447 1248T1533 1095T1584 919T1602 729ZM432 0V1446H461V0H432ZM31 0V29H227V1417H31V1446H358V0H31ZM1561 729Q1561 826 1545 917T1496 1087T1415 1233T1303 1346T1163 1420T993 1446Q917 1446 849 1424T724 1370T627 1302T563 1239V195Q594 169 635 136T728 72T844 21T989 0Q1126 0 1232 59T1412 218T1523 451T1561 729Z"  />
<glyph unicode="e" horiz-adv-x="1255" d="M1208 0H535V1446H1100L1110 1245H1081L1075 1354Q1075 1368 1069 1382T1055 1403Q1041 1412 1019 1414T975 1417H563V973H983Q1002 973 1018 976T1044 989Q1052 997 1054 1013T1057 1047V1085H1085V829H1057V877Q1057 880 1056 887T1053 902T1047 918T1040 930Q1031 939 1016 941T983 944H563V29H1087Q1109 29 1133 30T1169 45Q1186 64 1186 92L1196 207H1225L1208 0ZM432 0V1446H461V0H432ZM31 0V29H227V1417H31V1446H358V0H31Z"  />
<glyph unicode="f" horiz-adv-x="1143" d="M1079 1245L1073 1354Q1073 1368 1067 1382T1053 1403Q1039 1412 1017 1414T973 1417H561V973H981Q1000 973 1016 976T1042 989Q1050 997 1052 1013T1055 1047V1085H1083V829H1055V877Q1055 880 1054 887T1051 902T1045 918T1038 930Q1029 939 1014 941T981 944H561V29H786V0H532V1446H1098L1108 1245H1079ZM432 0V1446H461V0H432ZM31 0V29H227V1417H31V1446H358V0H31Z"  />
<glyph unicode="g" horiz-adv-x="1667" d="M1636 1458Q1604 1411 1558 1344T1459 1201T1350 1042T1240 882T1141 736T1063 618L1038 637L1341 1085Q1355 1107 1364 1128T1374 1176Q1374 1202 1357 1227T1321 1272Q1284 1309 1240 1341T1140 1396T1013 1433T850 1446Q796 1446 737 1436T620 1407T509 1366T412 1319V113Q452 93 506 73T619 36T737 10T846 0Q933 1 1013 10T1162 42T1291 101T1395 193Q1400 199 1403 207T1401 221Q1395 230 1379 231T1348 233H766V262H1602V233H1528Q1520 233 1513 231T1499 227Q1488 224 1477 213Q1426 151 1358 106T1210 30T1037 -14T846 -29Q792 -29 724 -17T591 13T469 53T383 94V1335Q422 1359 472 1384T582 1429T709 1462T850 1475Q959 1475 1038 1459T1175 1418T1273 1363T1343 1303Q1369 1278 1386 1262T1421 1245Q1430 1245 1440 1252T1460 1268T1478 1289T1491 1309L1610 1477L1636 1458ZM281 176V1257L309 1284V145L281 176ZM207 236Q190 256 164 301T112 410T69 556T51 729Q51 827 70 905T115 1040T167 1135T207 1188V236Z"  />
<glyph unicode="h" horiz-adv-x="1815" d="M1587 0V1446H1780V1417H1616V29H1780V0H1587ZM1485 0V1446H1513V0H1485ZM1083 0V29H1280V973H563V29H723V0H535V1446H727V1417H563V1001H1280V1417H1083V1446H1411V0H1083ZM432 0V1446H461V0H432ZM31 0V29H227V1417H31V1446H358V0H31Z"  />
<glyph unicode="i" horiz-adv-x="758" d="M535 0V1446H727V1417H563V29H727V0H535ZM432 0V1446H461V0H432ZM31 0V29H227V1417H31V1446H358V0H31Z"  />
<glyph unicode="j" horiz-adv-x="1288" d="M1094 1417V266Q1094 248 1092 235T1085 205Q1082 188 1077 175T1063 145L1030 121Q1032 127 1036 139T1044 163T1051 187T1057 205Q1060 219 1062 239T1065 268V1446H1257V1417H1094ZM991 252Q991 214 987 175T971 98Q968 87 966 83T962 76T958 69T950 53L915 33Q925 53 932 72T944 111Q948 128 951 147T957 186T961 224T963 254V1446H991V252ZM889 309Q889 255 884 206T869 115T846 42T815 -6Q800 -15 781 -20T737 -27T681 -29T610 -29Q535 -29 468 -9T345 47T246 135T176 250Q165 275 158 304T146 357T135 398T121 414Q108 414 94 399T68 371L14 315L-6 340Q13 358 48 395T127 478T216 573T301 664T367 737T401 776L424 756L225 532Q204 506 195 486T182 451Q180 440 181 420T185 376T194 327T207 281Q219 245 247 197T325 105T444 31T610 0Q633 0 657 0T707 2Q720 23 729 57T745 133T755 224T758 326V1417H561V1446H889V309Z"  />
<glyph unicode="k" horiz-adv-x="1720" d="M1544 0L813 1094L1135 1366Q1146 1375 1150 1387T1149 1407Q1143 1415 1126 1416T1092 1417H956V1446H1460V1417H1305Q1288 1417 1273 1415T1239 1405Q1225 1399 1213 1391T1188 1374L854 1085L1559 29H1706V0H1544ZM563 1417V29H723V0H535V1446H727V1417H563ZM432 0V1446H461V0H432ZM31 0V29H227V1417H31V1446H358V0H31ZM1411 0L731 1024L756 1040L1448 0H1411ZM942 0V29H1155L580 893L680 979L1323 0H942Z"  />
<glyph unicode="l" horiz-adv-x="1255" d="M1208 0H535V1446H727V1417H563V29H1087Q1109 29 1133 30T1169 45Q1186 64 1186 92L1196 207H1225L1208 0ZM432 0V1446H461V0H432ZM31 0V29H227V1417H31V1446H358V0H31Z"  />
<glyph unicode="m" horiz-adv-x="1855" d="M899 393L479 1446H508L913 426L899 393ZM1636 0L1610 1446H1802V1417H1638L1665 29H1825V0H1636ZM1534 0L1507 1446H1536L1563 0H1534ZM1133 0V29H1329L1305 1343L956 530L584 1446H776V1417H627L958 604L1303 1417H1106V1446H1434L1460 0H1133ZM795 143L279 1417L233 92Q233 80 234 70T244 49Q253 35 270 32T305 29H434V0H31V29H121Q138 29 153 32T178 47Q186 55 190 69T195 98L238 1417H80V1446H391L856 293L795 143Z"  />
<glyph unicode="n" horiz-adv-x="1530" d="M1409 1417Q1392 1417 1374 1414T1346 1399Q1338 1391 1334 1377T1329 1348V707L197 1425V1462L1290 770V1354Q1290 1366 1289 1376T1280 1397Q1271 1411 1254 1414T1219 1417H1096V1446H1499V1417H1409ZM197 1303V1339L1335 621V580L197 1303ZM1294 -61V375L238 1051V92Q240 80 240 70T248 49Q257 35 273 32T307 29H436V0H31V29H121Q138 29 153 32T178 47Q186 55 191 71T197 102V1212L1335 492V-61H1294Z"  />
<glyph unicode="o" horiz-adv-x="1532" d="M207 236Q190 256 164 301T112 410T69 556T51 729Q51 826 69 908T113 1055T165 1160T207 1217V236ZM281 152V1298L309 1325V121L281 152ZM1481 729Q1481 632 1461 538T1400 360T1299 204T1159 81T980 0T762 -29Q708 -29 650 -20T540 4T446 36T383 70V1376Q412 1392 453 1409T545 1441T651 1465T766 1475Q884 1475 983 1447T1161 1369T1301 1248T1401 1095T1461 919T1481 729ZM1440 729Q1440 875 1397 1005T1268 1233T1057 1388T766 1446Q718 1446 667 1438T568 1417T480 1389T412 1358V84Q443 67 483 52T568 26T663 7T762 0Q872 0 965 27T1134 103T1267 219T1362 367T1420 540T1440 729Z"  />
<glyph unicode="p" horiz-adv-x="1423" d="M1372 958Q1372 864 1337 775T1241 616T1100 504T930 461Q873 461 824 472T729 503T643 547T563 600V29H760V0H535V1446H563V1284Q587 1308 618 1339T692 1397T789 1443T915 1462Q1032 1462 1118 1422T1260 1313T1344 1153T1372 958ZM432 0V1446H461V0H432ZM31 0V29H227V1417H31V1446H358V0H31ZM1331 958Q1331 1003 1323 1056T1297 1162T1247 1264T1170 1351T1060 1411T915 1434Q853 1434 799 1415T699 1366T620 1302T563 1235V641Q589 620 626 594T709 544T811 505T928 489Q1013 489 1086 531T1214 640T1300 790T1331 958Z"  />
<glyph unicode="q" horiz-adv-x="1532" d="M207 236Q190 256 164 301T112 410T69 556T51 729Q51 827 70 910T115 1057T167 1162T207 1217V236ZM281 152V1298L309 1325V121L281 152ZM1491 2Q1491 -5 1479 -19T1447 -51T1398 -87T1336 -120T1265 -144T1190 -154Q1091 -154 1004 -122T856 -25Q833 -28 810 -28T762 -29Q708 -29 650 -20T540 4T446 36T383 70V1376Q401 1392 443 1409T538 1441T652 1465T766 1475Q884 1475 983 1447T1161 1369T1301 1248T1401 1095T1461 919T1481 729Q1481 598 1444 474T1334 248T1151 76T897 -18Q953 -74 1027 -99T1186 -125Q1226 -125 1260 -115T1322 -90T1370 -60T1403 -35Q1432 -10 1444 9T1466 29Q1477 29 1484 22T1491 2ZM1440 729Q1440 875 1397 1005T1268 1233T1057 1388T766 1446Q663 1446 572 1422T412 1360V84Q443 67 483 52T568 26T663 7T762 0Q780 0 798 0T836 2Q807 42 791 92T774 205Q774 250 790 292T835 366T905 418T995 438Q1046 438 1083 421T1145 374T1182 306T1194 225Q1194 199 1191 178T1180 135Q1244 186 1293 251T1374 393T1423 554T1440 729ZM1165 219Q1165 256 1156 290T1126 351T1073 394T995 410Q952 410 917 392T856 345T816 278T803 201Q805 141 823 92T872 6Q947 19 1011 42T1130 100Q1147 128 1156 156T1165 219Z"  />
<glyph unicode="r" horiz-adv-x="1423" d="M1460 188Q1460 140 1441 100T1388 32T1309 -13T1214 -29Q1134 -29 1069 -2T949 68T849 164T766 270Q738 308 711 352T661 440T621 524T594 594H625Q627 591 638 583T655 569Q687 551 718 536T782 511T850 495T928 489Q1013 489 1086 531T1214 640T1300 790T1331 958Q1331 1003 1324 1057T1298 1165T1249 1270T1172 1360T1062 1422T915 1446Q856 1446 802 1428T702 1380T621 1317T563 1251V29H760V0H535V1446H563V1300Q578 1316 606 1345T678 1403T780 1453T915 1475Q1032 1475 1118 1433T1260 1320T1344 1155T1372 958Q1372 864 1337 775T1241 616T1100 504T930 461Q852 461 778 483T647 541Q672 485 709 417T793 287Q834 231 880 180T979 88T1089 24T1214 0Q1256 0 1295 13T1364 50T1413 108T1432 186Q1432 231 1421 256T1396 295T1369 313T1350 322Q1345 325 1346 334T1360 344Q1383 344 1401 330T1433 293T1453 243T1460 188ZM432 0V1446H461V0H432ZM31 0V29H227V1417H31V1446H358V0H31Z"  />
<glyph unicode="s" horiz-adv-x="1210" d="M1155 408Q1143 440 1130 468T1098 518Q1081 538 1060 562T1010 608L362 1143Q333 1168 299 1205T242 1280Q232 1294 225 1310T217 1354Q238 1372 271 1393T350 1433T452 1463T575 1475Q675 1475 770 1456T946 1395Q977 1379 993 1370T1026 1360Q1042 1360 1052 1373T1077 1409L1122 1487L1149 1470L850 942L825 965L954 1198Q967 1221 977 1241T987 1288Q987 1314 968 1334T926 1366Q878 1393 833 1408T743 1432T657 1442T573 1446Q523 1447 475 1439T384 1415T307 1381T252 1339Q259 1315 265 1301T289 1264Q298 1252 309 1239T333 1212T358 1188T381 1167L1012 647Q1050 616 1075 589T1118 541Q1132 524 1144 502T1165 459L1155 408ZM1122 248Q1117 276 1112 303T1094 352Q1088 364 1077 381T1051 417T1021 454T987 485L268 1083Q257 1092 243 1106T214 1136T188 1166T170 1192Q166 1198 161 1206T152 1224T145 1244T143 1266L162 1290Q168 1270 176 1248T197 1206Q204 1196 214 1183T237 1157T262 1130T287 1108L1008 506Q1046 474 1073 439T1116 375Q1120 368 1122 364T1128 354T1134 338T1141 309L1122 248ZM1071 162Q1066 154 1054 137T1019 99T958 55T865 14T735 -17T561 -29Q504 -29 444 -16T327 23T220 84T133 166T73 266T51 381Q51 423 59 466T81 543T111 599T145 621Q157 621 163 617T172 608T175 597T176 586Q176 578 163 566T135 531T107 472T94 379Q94 319 114 268T170 174T251 100T350 45T457 12T565 0Q643 0 700 6T802 25T884 55T958 96Q961 107 962 115T963 132T962 151T958 176Q955 194 945 216T918 260T882 304T838 344L236 842Q204 868 178 894T132 950T103 1015T92 1092Q92 1110 93 1119T98 1135T104 1145T111 1155Q118 1143 125 1132Q131 1122 137 1112T150 1094Q157 1084 171 1069T202 1037T236 1005T266 981L911 451Q974 400 1004 357T1049 283Q1057 266 1064 234T1071 162Z"  />
<glyph unicode="t" horiz-adv-x="1272" d="M1212 1245L1206 1354Q1206 1368 1200 1382T1186 1403Q1172 1412 1154 1414T1114 1417H795V29H954V0H766V1446Q896 1447 998 1447Q1041 1447 1083 1447T1157 1447T1210 1447T1231 1446L1241 1245H1212ZM664 0V1446H692V0H664ZM262 0V29H459V1417H158Q136 1417 118 1415T86 1403Q78 1397 72 1383T66 1354L59 1245H31L41 1446H590V0H262Z"  />
<glyph unicode="u" horiz-adv-x="1522" d="M377 66Q367 67 354 76T326 99T299 132T276 172Q264 200 255 224T241 274T232 334T229 412V1417H33V1446H360V332Q360 276 361 225T367 143Q369 126 370 116T373 98T374 83T377 66ZM463 29Q455 53 450 78T442 123Q440 147 439 162T437 194T435 234T434 295V1446H463V328Q463 296 463 270T465 221T468 175T473 127Q478 95 487 61T506 -2L463 29ZM1399 1417Q1380 1417 1365 1414T1339 1397Q1334 1389 1331 1379T1327 1358V483Q1327 369 1303 279T1212 111Q1171 63 1117 35T1005 -7T890 -25T786 -29Q753 -29 722 -28T665 -23T618 -16T586 -6Q571 10 562 36T547 96T539 166T537 240V1446H729V1417H565V248Q565 214 567 179T574 113T588 56T610 18Q619 15 637 12T679 6T730 2T786 0Q844 0 898 4T1003 23T1100 64T1186 133Q1222 172 1242 213T1272 301T1284 397T1286 504V1354Q1286 1368 1283 1379T1270 1399Q1247 1417 1214 1417H1110V1446H1491V1417H1399Z"  />
<glyph unicode="v" horiz-adv-x="1669" d="M1575 1417Q1555 1417 1537 1414T1507 1399Q1495 1386 1488 1375T1475 1348L1014 303L473 1446H711V1417H524L1012 385L1434 1352Q1439 1364 1441 1376T1438 1399Q1430 1411 1413 1414T1372 1417H1264V1446H1649V1417H1575ZM954 168L358 1446H391L975 209L954 168ZM868 -29H840L156 1417H14V1446H291L920 86L868 -29Z"  />
<glyph unicode="w" horiz-adv-x="2263" d="M2175 1417Q2155 1417 2137 1414T2107 1399Q2095 1386 2088 1375T2075 1348L1726 344L1245 1399L1262 1444L1720 440L2034 1352Q2037 1364 2040 1376T2038 1399Q2030 1411 2013 1414T1972 1417H1864V1446H2249V1417H2175ZM844 190L365 1446H397L860 244L844 190ZM1675 195L1194 1257L1210 1309L1694 242L1675 195ZM1583 -29H1554L1118 952L897 348L477 1446H719V1417H524L897 440L1161 1169L1630 104L1583 -29ZM764 -29H735L156 1417H14V1446H291L809 86L764 -29Z"  />
<glyph unicode="x" horiz-adv-x="1753" d="M1575 0L571 1446H764V1417H629L995 891L1354 1356Q1365 1373 1370 1380T1372 1397Q1367 1409 1359 1413T1327 1417H1194V1446H1624V1417H1513Q1496 1417 1484 1415T1458 1407Q1446 1401 1437 1391T1419 1370L1020 856L1599 29H1739V0H1575ZM1452 0L432 1446H469L1497 0H1452ZM1006 0V29H1206L797 596L395 90Q384 73 379 66T377 49Q382 37 390 33T422 29H555V0H125V29H236Q253 29 265 31T291 39Q303 45 315 60T336 84L768 631L211 1417H14V1446H342L1374 0H1006Z"  />
<glyph unicode="y" horiz-adv-x="1769" d="M1645 1417Q1628 1417 1616 1415T1589 1407Q1577 1401 1566 1392T1548 1370L1104 627V29H1264V0H1075V618L571 1446H764V1417H625L1087 674L1489 1354Q1500 1371 1503 1379T1503 1397Q1498 1409 1490 1413T1458 1417H1325V1446H1755V1417H1645ZM969 0V594L432 1446H469L999 610V0H969ZM571 0V29H768V541L211 1417H14V1446H342L899 565V0H571Z"  />
<glyph unicode="z" horiz-adv-x="1257" d="M436 29H1061Q1083 29 1101 31T1133 43Q1141 49 1147 63T1153 92L1159 201H1188L1178 0H383L1190 1446H1227L436 29ZM289 0H256L1071 1446H1110L289 0ZM170 0H31L838 1417H254Q232 1417 214 1415T182 1403Q174 1397 168 1383T162 1354L156 1245H127L137 1446H977L170 0Z"  />
<glyph unicode="{" horiz-adv-x="1290" d="M985 -299Q908 -296 831 -269T692 -196T592 -87T553 49Q553 105 560 152T578 246Q589 300 599 349T610 438Q610 486 592 527T542 602T470 660T385 698V748Q429 761 469 784T541 839T591 914T610 1008Q610 1048 600 1097T578 1200Q568 1247 561 1294T553 1397Q553 1470 591 1532T692 1641T831 1715T985 1745V1694Q928 1681 887 1652T819 1585T779 1503T766 1415Q766 1375 770 1333T780 1241Q782 1223 784 1201T789 1156T793 1114T795 1079Q795 1022 779 977T736 895T675 832T606 784T537 749T477 723Q503 712 536 697T605 660T675 610T735 547T778 467T795 367Q795 352 794 332T790 290T785 246T780 205Q774 155 770 113T766 31Q766 -13 779 -57T819 -139T887 -206T985 -248V-299H985Z"  />
<glyph unicode="}" horiz-adv-x="1290" d="M985 698Q941 684 901 660T829 603T779 528T760 438Q760 398 771 349T793 246Q802 199 809 152T817 49Q817 -25 779 -87T678 -195T539 -269T385 -299V-248Q442 -235 483 -206T551 -139T591 -57T604 31Q604 71 600 113T590 205Q588 223 585 245T580 290T577 332T575 367Q575 422 591 466T635 546T696 610T765 659T834 696T893 723Q868 734 835 748T766 784T696 832T635 895T592 976T575 1079Q575 1094 576 1114T580 1156T585 1200T590 1241Q596 1291 600 1333T604 1415Q604 1459 591 1503T552 1585T484 1652T385 1694V1745Q462 1742 539 1715T678 1642T778 1533T817 1397Q817 1341 810 1294T793 1200Q782 1146 771 1097T760 1008Q760 956 778 914T828 840T900 784T985 748V698H985Z"  />
<glyph unicode="&#xA0;" horiz-adv-x="1364" />
<glyph unicode="&#xA1;" horiz-adv-x="524" d="M453 1284Q453 1245 438 1211T397 1150T336 1109T262 1094Q223 1094 189 1109T128 1150T87 1210T72 1284Q72 1323 87 1358T128 1419T188 1460T262 1475Q301 1475 336 1460T397 1419T438 1358T453 1284ZM418 0L371 918H399L446 0H418ZM319 0L285 918H313L348 0H319ZM80 0L156 918H225L242 0H80ZM424 1284Q424 1315 412 1341T383 1386T351 1417T328 1432V1139Q370 1157 397 1196T424 1284ZM299 1440Q290 1443 283 1444T262 1446Q256 1446 241 1444T219 1438V1128Q227 1126 238 1124T262 1122Q277 1122 288 1125Q294 1126 299 1128V1440Z"  />
<glyph unicode="&#xA2;" horiz-adv-x="1364" d="M387 338V1100L416 1122V319L387 338ZM313 379Q302 392 284 425T247 504T216 606T203 723Q203 787 217 838T249 928T285 991T313 1024V379ZM1137 920Q1137 904 1133 894T1110 883Q1096 883 1092 896T1085 920Q1083 933 1076 954T1057 999T1032 1044T1004 1081Q979 1107 951 1126T886 1157T805 1176T702 1182V256Q778 256 837 269T939 303T1013 347T1063 389Q1080 406 1087 418T1102 430Q1113 430 1116 421T1120 403Q1120 395 1093 367T1012 307T881 252T705 227H702V33H674V227Q615 234 567 250T487 283V1163Q503 1169 520 1176T559 1189T609 1201T674 1210V1358H702V1210Q771 1210 822 1201T912 1176T976 1141T1024 1102Q1036 1090 1055 1066T1093 1016T1124 963T1137 920ZM674 256Q674 256 674 296T675 401T675 550T675 720Q675 923 674 1182Q614 1179 579 1168T518 1147V303Q546 288 586 274T674 256Z"  />
<glyph unicode="&#xA3;" horiz-adv-x="1364" d="M1018 1475Q987 1458 964 1445T913 1411Q864 1375 834 1311T787 1163T765 979T760 770Q761 678 748 573T693 364T574 164T369 -8L289 -20Q380 31 447 91T561 219T639 356T687 497T712 636T721 768Q724 894 731 1005T760 1206T822 1360T932 1458L1018 1475ZM1317 1395Q1320 1356 1290 1356Q1275 1356 1267 1362T1253 1378T1243 1396T1231 1413Q1217 1426 1197 1436T1139 1446Q1084 1445 1044 1420T975 1351T928 1248T899 1122T882 981T872 836H1178V807H870V770Q866 695 861 612T833 441T762 259T625 72Q660 62 703 50T793 26T890 8T987 0Q1054 0 1104 27T1190 88T1249 148T1284 176Q1303 176 1306 163T1309 133Q1309 118 1279 91T1202 37T1097 -9T983 -29Q931 -29 878 -22T774 -3T677 23T594 49Q585 41 578 36T563 28T548 20T528 8L461 -4Q491 17 530 43T611 110T693 206T764 341T815 527T834 772Q834 847 837 928T852 1087T884 1235T939 1359T1022 1443T1141 1475Q1181 1475 1213 1467T1268 1447T1303 1421T1317 1395ZM856 1456Q834 1438 817 1424T787 1397T761 1369T735 1335Q719 1311 706 1270T684 1178T667 1071T654 961T645 859T639 776Q631 679 623 602T598 455T550 321T465 182Q444 153 406 116T315 47T198 -7T59 -29Q38 -29 11 -21T-41 5T-81 55T-98 131Q-98 170 -82 201T-41 254T18 287T86 299Q134 299 169 293T234 274T293 246T360 211Q408 285 441 389T485 608Q486 627 489 655T494 711T498 766T500 807H242V836H502Q507 932 518 1016T552 1171T612 1299T707 1401Q731 1419 768 1434T856 1456ZM340 188Q284 226 224 249T86 272Q57 272 29 263T-21 235T-56 190T-70 131Q-70 98 -58 74T-26 33T18 8T68 0Q109 0 149 16T224 59T289 119T340 188Z"  />
<glyph unicode="&#xA8;" horiz-adv-x="590" d="M586 1681Q586 1659 578 1640T554 1605T519 1582T477 1573Q455 1573 436 1581T401 1605T378 1639T369 1681Q369 1703 377 1723T401 1758T435 1781T477 1790Q499 1790 519 1782T554 1758T577 1723T586 1681ZM221 1681Q221 1659 213 1640T189 1605T155 1582T113 1573Q90 1573 71 1581T36 1605T13 1639T4 1681Q4 1703 12 1723T36 1758T70 1781T113 1790Q135 1790 154 1782T189 1758T212 1723T221 1681Z"  />
<glyph unicode="&#xA9;" horiz-adv-x="2048" d="M1808 725Q1808 617 1780 517T1701 330T1578 171T1419 48T1232 -31T1024 -59Q916 -59 816 -31T629 48T470 171T347 330T268 517T240 725Q240 833 268 933T347 1120T470 1279T629 1402T816 1481T1024 1509Q1132 1509 1232 1481T1419 1402T1578 1279T1701 1120T1780 933T1808 725ZM1733 727Q1733 824 1708 914T1636 1082T1524 1225T1381 1336T1212 1407T1024 1432Q927 1432 838 1407T671 1335T529 1225T420 1082T349 914T324 727Q324 630 349 541T419 373T529 230T670 120T837 49T1024 23Q1121 23 1211 48T1380 119T1524 229T1635 371T1707 540T1733 727ZM1280 907Q1268 925 1245 948T1191 991T1120 1024T1036 1038Q968 1038 909 1014T807 947T738 847T713 723Q713 658 738 601T807 502T909 435T1032 410Q1071 410 1105 419T1170 445T1225 483T1274 530L1339 483Q1323 459 1292 432T1220 380T1131 340T1032 324Q949 324 875 355T746 441T658 567T625 723Q625 807 657 879T746 1006T877 1091T1036 1122Q1081 1122 1126 1111T1211 1077T1287 1022T1350 948L1280 907Z"  />
<glyph unicode="&#xAB;" horiz-adv-x="766" d="M375 844V877L651 1186V1155L385 860L651 565V535L375 844ZM59 844V877L336 1186V1155L70 860L336 565V535L59 844ZM375 741V770L651 463V432L375 741ZM59 741V770L336 463V432L59 741ZM375 547V668L651 360V229L375 547ZM59 547V668L336 360V229L59 547Z"  />
<glyph unicode="&#xB0;" horiz-adv-x="1364" d="M981 1174Q981 1112 957 1057T892 961T795 896T678 872Q618 872 565 896T471 961T407 1057T383 1174Q383 1236 406 1290T470 1386T564 1451T678 1475Q740 1475 795 1451T891 1386T957 1291T981 1174ZM952 1174Q952 1230 930 1279T871 1366T784 1424T678 1446Q649 1446 625 1440V907Q652 901 678 901Q734 901 783 922T870 981T930 1068T952 1174ZM596 1432Q577 1425 558 1415T522 1393V954Q539 942 557 932T596 913V1432Z"  />
<glyph unicode="&#xB1;" horiz-adv-x="1364" d="M727 520V51H639V520H119V610H639V1126H727V610H1245V520H727ZM119 -117V-29H1245V-117H119Z"  />
<glyph unicode="&#xB4;" horiz-adv-x="270" d="M84 1550H4L61 1847H266L84 1550Z"  />
<glyph unicode="&#xB6;" horiz-adv-x="1290" d="M977 1370V-406H901V1370H776V-406H700V489Q657 494 607 507T507 545T410 605T327 691T270 806T248 954Q248 1043 273 1114T343 1240T446 1334T574 1398T715 1434T860 1446H1096V1370H977Z"  />
<glyph unicode="&#xB7;" horiz-adv-x="1403" d="M913 750Q913 708 897 672T854 608T791 565T715 549Q673 549 637 565T573 608T530 671T514 750Q514 791 530 827T573 891T636 934T715 950Q755 950 791 934T854 891T897 828T913 750ZM881 750Q881 801 853 842T780 903V594Q787 598 803 610T837 643T868 690T881 750ZM760 913Q751 915 739 917T715 920Q707 920 700 919T688 916Q682 914 676 913V586Q685 583 692 582T715 580Q721 580 736 582T760 588V913Z"  />
<glyph unicode="&#xB8;" horiz-adv-x="463" d="M459 -283Q459 -317 440 -346T386 -397T300 -431T188 -444Q150 -444 117 -435T58 -414Q29 -401 4 -383L23 -360Q43 -377 68 -389Q89 -400 118 -409T180 -418Q208 -418 235 -411T282 -387T315 -347T328 -287Q328 -258 318 -237T293 -201T261 -179T229 -172Q202 -172 179 -176T133 -188L211 6H240L184 -141Q207 -135 224 -131T266 -127Q295 -127 329 -134T392 -159T440 -207T459 -283Z"  />
<glyph unicode="&#xBB;" horiz-adv-x="766" d="M430 1004V1135L707 817V696L430 1004ZM115 1004V1135L391 817V696L115 1004ZM430 901V932L707 623V594L430 901ZM115 901V932L391 623V594L115 901ZM430 178V209L696 504L430 799V829L707 520V487L430 178ZM115 178V209L381 504L115 799V829L391 520V487L115 178Z"  />
<glyph unicode="&#xBF;" horiz-adv-x="977" d="M780 1284Q780 1245 765 1211T724 1150T664 1109T590 1094Q551 1094 516 1109T455 1150T414 1210T399 1284Q399 1323 414 1358T455 1419T516 1460T590 1475Q629 1475 663 1460T724 1419T765 1358T780 1284ZM930 285Q930 229 894 173T801 72T672 -1T528 -29Q477 -29 434 -23T373 -8V737Q392 743 408 747T440 756T473 769T512 793Q541 813 548 853T555 954H588Q588 885 578 842T535 772Q510 752 477 738T406 711V20Q435 9 459 5T516 0Q583 0 642 17T749 70T830 157T879 279Q882 291 885 301T903 311Q919 311 924 304T930 285ZM221 66Q187 88 160 126T113 209T83 299T72 383Q72 417 79 457T104 539T150 620T221 692V66ZM291 29V719L319 727V14L291 29ZM752 1284Q752 1315 740 1341T711 1386T678 1417T655 1432V1139Q697 1157 724 1196T752 1284ZM633 1438Q627 1441 612 1443T590 1446Q576 1446 569 1445T553 1440V1128Q558 1126 564 1125Q574 1122 590 1122Q602 1122 613 1124T633 1128V1438Z"  />
<glyph unicode="&#xC0;" horiz-adv-x="1929" d="M842 1550L659 1847H864L922 1550H842ZM1722 0L985 1446H1161V1417H1036L1747 29H1911V0H1722ZM1608 0L860 1446H899L1640 0H1608ZM1149 0V29H1360L1116 506H418L229 111Q217 79 219 68T231 47Q242 36 261 33T301 29H494V0H10V29H88Q105 29 125 36T156 51Q168 60 179 78T195 106L383 506H10V535H397L737 1249L655 1417H567V1446H784L1522 0H1149ZM758 1214L432 535H1094L758 1214Z"  />
<glyph unicode="&#xC1;" horiz-adv-x="1929" d="M1726 0L989 1446H1165V1417H1040L1751 29H1915V0H1726ZM1612 0L864 1446H903L1645 0H1612ZM1153 0V29H1364L1120 506H422L233 111Q221 79 223 68T236 47Q247 36 266 33T305 29H498V0H14V29H92Q109 29 129 36T160 51Q172 60 183 78T199 106L387 506H14V535H401L741 1249L659 1417H571V1446H788L1526 0H1153ZM762 1214L436 535H1098L762 1214ZM881 1550H801L858 1847H1063L881 1550Z"  />
<glyph unicode="&#xC2;" horiz-adv-x="1929" d="M1726 0L989 1446H1165V1417H1040L1751 29H1915V0H1726ZM1612 0L864 1446H903L1645 0H1612ZM1153 0V29H1364L1120 506H422L233 111Q221 79 223 68T236 47Q247 36 266 33T305 29H498V0H14V29H92Q109 29 129 36T160 51Q172 60 183 78T199 106L387 506H14V535H401L741 1249L659 1417H571V1446H788L1526 0H1153ZM762 1214L436 535H1098L762 1214ZM938 1550L803 1778L639 1550H600L799 1827H952L1131 1550H938Z"  />
<glyph unicode="&#xC3;" horiz-adv-x="1929" d="M1726 0L989 1446H1165V1417H1040L1751 29H1915V0H1726ZM1612 0L864 1446H903L1645 0H1612ZM1153 0V29H1364L1120 506H422L233 111Q221 79 223 68T236 47Q247 36 266 33T305 29H498V0H14V29H92Q109 29 129 36T160 51Q172 60 183 78T199 106L387 506H14V535H401L741 1249L659 1417H571V1446H788L1526 0H1153ZM762 1214L436 535H1098L762 1214ZM1225 1765Q1223 1746 1219 1715T1199 1653T1156 1601T1076 1579Q1034 1579 995 1590T920 1614T854 1639T799 1651Q775 1651 759 1647T732 1633T713 1611T697 1579H668Q672 1599 680 1630T703 1692T743 1743T805 1765Q847 1765 886 1754T962 1730T1030 1705T1088 1694Q1122 1694 1152 1711T1196 1765H1225H1225Z"  />
<glyph unicode="&#xC4;" horiz-adv-x="1929" d="M1726 0L989 1446H1165V1417H1040L1751 29H1915V0H1726ZM1612 0L864 1446H903L1645 0H1612ZM1153 0V29H1364L1120 506H422L233 111Q221 79 223 68T236 47Q247 36 266 33T305 29H498V0H14V29H92Q109 29 129 36T160 51Q172 60 183 78T199 106L387 506H14V535H401L741 1249L659 1417H571V1446H788L1526 0H1153ZM762 1214L436 535H1098L762 1214ZM1157 1681Q1157 1659 1149 1640T1125 1605T1090 1582T1048 1573Q1026 1573 1007 1581T972 1605T949 1639T940 1681Q940 1703 948 1723T972 1758T1006 1781T1048 1790Q1070 1790 1090 1782T1125 1758T1148 1723T1157 1681ZM792 1681Q792 1659 784 1640T760 1605T726 1582T684 1573Q661 1573 642 1581T607 1605T584 1639T575 1681Q575 1703 583 1723T607 1758T641 1781T684 1790Q706 1790 725 1782T760 1758T783 1723T792 1681Z"  />
<glyph unicode="&#xC5;" horiz-adv-x="1929" d="M1726 0L989 1446H1165V1417H1040L1751 29H1915V0H1726ZM1612 0L864 1446H903L1645 0H1612ZM1153 0V29H1364L1120 506H422L233 111Q221 79 223 68T236 47Q247 36 266 33T305 29H498V0H14V29H92Q109 29 129 36T160 51Q172 60 183 78T199 106L387 506H14V535H401L741 1249L659 1417H571V1446H788L1526 0H1153ZM762 1214L436 535H1098L762 1214ZM990 1743Q990 1711 977 1682T942 1631T891 1596T828 1583Q795 1583 766 1596T714 1631T679 1682T666 1743Q666 1777 679 1806T714 1856T765 1890T828 1903Q861 1903 890 1891T942 1857T977 1806T990 1743ZM920 1743Q920 1783 893 1808T828 1833Q791 1833 765 1808T738 1743Q738 1706 764 1680T828 1653Q846 1653 863 1660T892 1679T912 1708T920 1743Z"  />
<glyph unicode="&#xC6;" horiz-adv-x="2140" d="M2093 0H1419V1446H1985L1995 1245H1966L1960 1354Q1960 1368 1954 1382T1939 1403Q1925 1412 1903 1414T1860 1417H1448V973H1868Q1886 973 1903 976T1929 989Q1937 997 1939 1013T1942 1047V1085H1970V829H1942V877Q1942 880 1941 887T1937 902T1932 918T1925 930Q1916 939 1901 941T1868 944H1448V29H1972Q1994 29 2018 30T2054 45Q2071 65 2071 92L2081 207H2109L2093 0ZM1317 0V1446H1346V0H1317ZM915 0V29H1112V506H516L264 141Q246 110 238 96T231 66Q232 54 239 47T259 36T285 31T313 29H498V0H14V29H76Q102 29 126 37T164 57Q175 67 192 84T225 125L487 506H100V535H508L1112 1411V1417H915V1446H1243V0H915ZM1112 1368L537 535H1112V1368Z"  />
<glyph unicode="&#xC7;" horiz-adv-x="1667" d="M281 176V1257L309 1284V145L281 176ZM207 236Q190 256 164 301T112 410T69 556T51 729Q51 827 70 906T115 1043T167 1137T207 1188V236ZM1640 1458Q1599 1398 1545 1320T1420 1140T1261 907T1063 614L1038 637L1341 1085Q1355 1107 1364 1128T1374 1176Q1374 1202 1357 1227T1321 1272Q1284 1309 1240 1341T1140 1396T1013 1433T850 1446Q796 1446 735 1437T614 1411T502 1371T412 1319V113Q446 93 499 73T613 36T735 10T848 0Q967 0 1058 20T1218 71T1334 137T1411 201Q1437 227 1449 245T1475 264Q1490 264 1495 257T1501 238Q1501 230 1482 208T1426 155T1334 93T1208 33T1050 -11T862 -29Q853 -29 843 -29T819 -27L768 -162Q791 -157 812 -152T862 -147Q890 -147 922 -153T981 -177T1026 -225T1044 -303Q1044 -337 1025 -366T971 -418T886 -452T774 -465Q736 -465 703 -456T644 -434Q615 -421 590 -403L608 -381Q628 -398 654 -410Q675 -421 704 -429T766 -438Q794 -438 821 -431T868 -407T900 -367T913 -307Q913 -276 903 -255T876 -221T841 -201T803 -195Q775 -195 758 -199T719 -209L793 -27Q657 -13 558 18T383 94V1335Q411 1361 463 1386T580 1431T715 1463T850 1475Q959 1475 1038 1459T1175 1418T1273 1363T1343 1303Q1369 1278 1386 1262T1421 1245Q1430 1245 1440 1252T1460 1268T1478 1289T1491 1309L1610 1479L1640 1458Z"  />
<glyph unicode="&#xC8;" horiz-adv-x="1255" d="M1208 0H535V1446H1100L1110 1245H1081L1075 1354Q1075 1368 1069 1382T1055 1403Q1041 1412 1019 1414T975 1417H563V973H983Q1002 973 1018 976T1044 989Q1052 997 1054 1013T1057 1047V1085H1085V829H1057V877Q1057 880 1056 887T1053 902T1047 918T1040 930Q1031 939 1016 941T983 944H563V29H1087Q1109 29 1133 30T1169 45Q1186 64 1186 92L1196 207H1225L1208 0ZM432 0V1446H461V0H432ZM31 0V29H227V1417H31V1446H358V0H31ZM622 1550L440 1847H645L702 1550H622Z"  />
<glyph unicode="&#xC9;" horiz-adv-x="1255" d="M1208 0H535V1446H1100L1110 1245H1081L1075 1354Q1075 1368 1069 1382T1055 1403Q1041 1412 1019 1414T975 1417H563V973H983Q1002 973 1018 976T1044 989Q1052 997 1054 1013T1057 1047V1085H1085V829H1057V877Q1057 880 1056 887T1053 902T1047 918T1040 930Q1031 939 1016 941T983 944H563V29H1087Q1109 29 1133 30T1169 45Q1186 64 1186 92L1196 207H1225L1208 0ZM432 0V1446H461V0H432ZM31 0V29H227V1417H31V1446H358V0H31ZM623 1550H543L600 1847H805L623 1550Z"  />
<glyph unicode="&#xCA;" horiz-adv-x="1255" d="M1208 0H535V1446H1100L1110 1245H1081L1075 1354Q1075 1368 1069 1382T1055 1403Q1041 1412 1019 1414T975 1417H563V973H983Q1002 973 1018 976T1044 989Q1052 997 1054 1013T1057 1047V1085H1085V829H1057V877Q1057 880 1056 887T1053 902T1047 918T1040 930Q1031 939 1016 941T983 944H563V29H1087Q1109 29 1133 30T1169 45Q1186 64 1186 92L1196 207H1225L1208 0ZM432 0V1446H461V0H432ZM31 0V29H227V1417H31V1446H358V0H31ZM684 1550L549 1778L385 1550H346L545 1827H698L877 1550H684Z"  />
<glyph unicode="&#xCB;" horiz-adv-x="1255" d="M1208 0H535V1446H1100L1110 1245H1081L1075 1354Q1075 1368 1069 1382T1055 1403Q1041 1412 1019 1414T975 1417H563V973H983Q1002 973 1018 976T1044 989Q1052 997 1054 1013T1057 1047V1085H1085V829H1057V877Q1057 880 1056 887T1053 902T1047 918T1040 930Q1031 939 1016 941T983 944H563V29H1087Q1109 29 1133 30T1169 45Q1186 64 1186 92L1196 207H1225L1208 0ZM432 0V1446H461V0H432ZM31 0V29H227V1417H31V1446H358V0H31ZM930 1681Q930 1659 922 1640T898 1605T863 1582T821 1573Q799 1573 780 1581T745 1605T722 1639T713 1681Q713 1703 721 1723T745 1758T779 1781T821 1790Q843 1790 863 1782T898 1758T921 1723T930 1681ZM565 1681Q565 1659 557 1640T533 1605T499 1582T457 1573Q434 1573 415 1581T380 1605T357 1639T348 1681Q348 1703 356 1723T380 1758T414 1781T457 1790Q479 1790 498 1782T533 1758T556 1723T565 1681Z"  />
<glyph unicode="&#xCC;" horiz-adv-x="758" d="M535 0V1446H727V1417H563V29H727V0H535ZM432 0V1446H461V0H432ZM31 0V29H227V1417H31V1446H358V0H31ZM417 1550L235 1847H440L497 1550H417Z"  />
<glyph unicode="&#xCD;" horiz-adv-x="758" d="M535 0V1446H727V1417H563V29H727V0H535ZM432 0V1446H461V0H432ZM31 0V29H227V1417H31V1446H358V0H31ZM408 1550H328L385 1847H590L408 1550Z"  />
<glyph unicode="&#xCE;" horiz-adv-x="758" d="M535 0V1446H727V1417H563V29H727V0H535ZM432 0V1446H461V0H432ZM31 0V29H227V1417H31V1446H358V0H31ZM481 1547L346 1775L182 1547H143L342 1824H495L674 1547H481Z"  />
<glyph unicode="&#xCF;" horiz-adv-x="758" d="M535 0V1446H727V1417H563V29H727V0H535ZM432 0V1446H461V0H432ZM31 0V29H227V1417H31V1446H358V0H31ZM690 1681Q690 1659 682 1640T658 1605T623 1582T581 1573Q559 1573 540 1581T505 1605T482 1639T473 1681Q473 1703 481 1723T505 1758T539 1781T581 1790Q603 1790 623 1782T658 1758T681 1723T690 1681ZM325 1681Q325 1659 317 1640T293 1605T259 1582T217 1573Q194 1573 175 1581T140 1605T117 1639T108 1681Q108 1703 116 1723T140 1758T174 1781T217 1790Q239 1790 258 1782T293 1758T316 1723T325 1681Z"  />
<glyph unicode="&#xD1;" horiz-adv-x="1530" d="M1409 1417Q1392 1417 1374 1414T1346 1399Q1338 1391 1334 1377T1329 1348V707L197 1425V1462L1290 770V1354Q1290 1366 1289 1376T1280 1397Q1271 1411 1254 1414T1219 1417H1096V1446H1499V1417H1409ZM197 1303V1339L1335 621V580L197 1303ZM1294 -61V375L238 1051V92Q240 80 240 70T248 49Q257 35 273 32T307 29H436V0H31V29H121Q138 29 153 32T178 47Q186 55 191 71T197 102V1212L1335 492V-61H1294ZM1071 1798Q1069 1779 1065 1748T1045 1686T1002 1634T922 1612Q880 1612 841 1623T766 1647T700 1672T645 1684Q621 1684 605 1680T578 1666T559 1644T543 1612H514Q518 1632 526 1663T549 1725T589 1776T651 1798Q693 1798 732 1787T808 1763T876 1738T934 1727Q968 1727 998 1744T1042 1798H1071H1071Z"  />
<glyph unicode="&#xD2;" horiz-adv-x="1532" d="M207 236Q190 256 164 301T112 410T69 556T51 729Q51 826 69 908T113 1055T165 1160T207 1217V236ZM281 152V1298L309 1325V121L281 152ZM1481 729Q1481 632 1461 538T1400 360T1299 204T1159 81T980 0T762 -29Q708 -29 650 -20T540 4T446 36T383 70V1376Q412 1392 453 1409T545 1441T651 1465T766 1475Q884 1475 983 1447T1161 1369T1301 1248T1401 1095T1461 919T1481 729ZM1440 729Q1440 875 1397 1005T1268 1233T1057 1388T766 1446Q718 1446 667 1438T568 1417T480 1389T412 1358V84Q443 67 483 52T568 26T663 7T762 0Q872 0 965 27T1134 103T1267 219T1362 367T1420 540T1440 729ZM766 1550L584 1847H789L846 1550H766Z"  />
<glyph unicode="&#xD3;" horiz-adv-x="1532" d="M207 236Q190 256 164 301T112 410T69 556T51 729Q51 826 69 908T113 1055T165 1160T207 1217V236ZM281 152V1298L309 1325V121L281 152ZM1481 729Q1481 632 1461 538T1400 360T1299 204T1159 81T980 0T762 -29Q708 -29 650 -20T540 4T446 36T383 70V1376Q412 1392 453 1409T545 1441T651 1465T766 1475Q884 1475 983 1447T1161 1369T1301 1248T1401 1095T1461 919T1481 729ZM1440 729Q1440 875 1397 1005T1268 1233T1057 1388T766 1446Q718 1446 667 1438T568 1417T480 1389T412 1358V84Q443 67 483 52T568 26T663 7T762 0Q872 0 965 27T1134 103T1267 219T1362 367T1420 540T1440 729ZM793 1550H713L770 1847H975L793 1550Z"  />
<glyph unicode="&#xD4;" horiz-adv-x="1532" d="M207 236Q190 256 164 301T112 410T69 556T51 729Q51 826 69 908T113 1055T165 1160T207 1217V236ZM281 152V1298L309 1325V121L281 152ZM1481 729Q1481 632 1461 538T1400 360T1299 204T1159 81T980 0T762 -29Q708 -29 650 -20T540 4T446 36T383 70V1376Q412 1392 453 1409T545 1441T651 1465T766 1475Q884 1475 983 1447T1161 1369T1301 1248T1401 1095T1461 919T1481 729ZM1440 729Q1440 875 1397 1005T1268 1233T1057 1388T766 1446Q718 1446 667 1438T568 1417T480 1389T412 1358V84Q443 67 483 52T568 26T663 7T762 0Q872 0 965 27T1134 103T1267 219T1362 367T1420 540T1440 729ZM856 1550L721 1778L557 1550H518L717 1827H870L1049 1550H856Z"  />
<glyph unicode="&#xD5;" horiz-adv-x="1532" d="M207 236Q190 256 164 301T112 410T69 556T51 729Q51 826 69 908T113 1055T165 1160T207 1217V236ZM281 152V1298L309 1325V121L281 152ZM1481 729Q1481 632 1461 538T1400 360T1299 204T1159 81T980 0T762 -29Q708 -29 650 -20T540 4T446 36T383 70V1376Q412 1392 453 1409T545 1441T651 1465T766 1475Q884 1475 983 1447T1161 1369T1301 1248T1401 1095T1461 919T1481 729ZM1440 729Q1440 875 1397 1005T1268 1233T1057 1388T766 1446Q718 1446 667 1438T568 1417T480 1389T412 1358V84Q443 67 483 52T568 26T663 7T762 0Q872 0 965 27T1134 103T1267 219T1362 367T1420 540T1440 729ZM1093 1765Q1091 1746 1087 1715T1067 1653T1024 1601T944 1579Q902 1579 863 1590T788 1614T722 1639T667 1651Q643 1651 627 1647T600 1633T581 1611T565 1579H536Q540 1599 548 1630T571 1692T611 1743T673 1765Q715 1765 754 1754T830 1730T898 1705T956 1694Q990 1694 1020 1711T1064 1765H1093H1093Z"  />
<glyph unicode="&#xD6;" horiz-adv-x="1532" d="M207 236Q190 256 164 301T112 410T69 556T51 729Q51 826 69 908T113 1055T165 1160T207 1217V236ZM281 152V1298L309 1325V121L281 152ZM1481 729Q1481 632 1461 538T1400 360T1299 204T1159 81T980 0T762 -29Q708 -29 650 -20T540 4T446 36T383 70V1376Q412 1392 453 1409T545 1441T651 1465T766 1475Q884 1475 983 1447T1161 1369T1301 1248T1401 1095T1461 919T1481 729ZM1440 729Q1440 875 1397 1005T1268 1233T1057 1388T766 1446Q718 1446 667 1438T568 1417T480 1389T412 1358V84Q443 67 483 52T568 26T663 7T762 0Q872 0 965 27T1134 103T1267 219T1362 367T1420 540T1440 729ZM1051 1681Q1051 1659 1043 1640T1019 1605T984 1582T942 1573Q920 1573 901 1581T866 1605T843 1639T834 1681Q834 1703 842 1723T866 1758T900 1781T942 1790Q964 1790 984 1782T1019 1758T1042 1723T1051 1681ZM686 1681Q686 1659 678 1640T654 1605T620 1582T578 1573Q555 1573 536 1581T501 1605T478 1639T469 1681Q469 1703 477 1723T501 1758T535 1781T578 1790Q600 1790 619 1782T654 1758T677 1723T686 1681Z"  />
<glyph unicode="&#xD8;" horiz-adv-x="1532" d="M207 236Q190 256 164 301T112 410T69 556T51 729Q51 827 70 910T115 1057T167 1162T207 1217V236ZM281 152V1298L309 1325V121L281 152ZM1481 729Q1481 632 1461 538T1400 360T1299 204T1159 81T980 0T762 -29Q714 -29 663 -22T564 -3T476 23T408 53L262 -193L238 -176L383 72V1376Q401 1392 443 1409T538 1441T652 1465T766 1475Q881 1475 977 1449T1151 1374L1266 1585L1290 1569L1176 1358Q1252 1307 1309 1238T1404 1088T1461 915T1481 729ZM1135 1348Q1059 1394 967 1420T766 1446Q663 1446 572 1422T412 1360V121L1135 1348ZM1440 729Q1440 823 1422 910T1369 1075T1281 1218T1159 1331L422 78Q453 62 491 48T574 23T666 6T762 0Q872 0 965 27T1134 103T1267 219T1362 367T1420 540T1440 729Z"  />
<glyph unicode="&#xD9;" horiz-adv-x="1520" d="M375 66Q365 67 352 76T324 99T297 132T274 172Q262 200 253 224T239 274T230 334T227 412V1417H31V1446H358V332Q358 276 359 225T365 143Q367 126 368 116T371 98T372 83T375 66ZM461 29Q453 53 448 78T440 123Q438 147 437 162T435 194T433 234T432 295V1446H461V328Q461 296 461 270T463 221T466 175T471 127Q476 95 485 61T504 -2L461 29ZM1397 1417Q1378 1417 1363 1414T1337 1397Q1332 1389 1329 1379T1325 1358V483Q1325 369 1301 279T1210 111Q1169 63 1115 35T1003 -7T888 -25T784 -29Q751 -29 720 -28T663 -23T616 -16T584 -6Q569 10 560 36T545 96T537 166T535 240V1446H727V1417H563V248Q563 214 565 179T572 113T586 56T608 18Q617 15 635 12T677 6T728 2T784 0Q842 0 896 4T1001 23T1098 64T1184 133Q1220 172 1240 213T1270 301T1282 397T1284 504V1354Q1284 1368 1281 1379T1268 1399Q1245 1417 1212 1417H1108V1446H1489V1417H1397ZM772 1550L590 1847H795L852 1550H772Z"  />
<glyph unicode="&#xDA;" horiz-adv-x="1520" d="M375 66Q365 67 352 76T324 99T297 132T274 172Q262 200 253 224T239 274T230 334T227 412V1417H31V1446H358V332Q358 276 359 225T365 143Q367 126 368 116T371 98T372 83T375 66ZM461 29Q453 53 448 78T440 123Q438 147 437 162T435 194T433 234T432 295V1446H461V328Q461 296 461 270T463 221T466 175T471 127Q476 95 485 61T504 -2L461 29ZM1397 1417Q1378 1417 1363 1414T1337 1397Q1332 1389 1329 1379T1325 1358V483Q1325 369 1301 279T1210 111Q1169 63 1115 35T1003 -7T888 -25T784 -29Q751 -29 720 -28T663 -23T616 -16T584 -6Q569 10 560 36T545 96T537 166T535 240V1446H727V1417H563V248Q563 214 565 179T572 113T586 56T608 18Q617 15 635 12T677 6T728 2T784 0Q842 0 896 4T1001 23T1098 64T1184 133Q1220 172 1240 213T1270 301T1282 397T1284 504V1354Q1284 1368 1281 1379T1268 1399Q1245 1417 1212 1417H1108V1446H1489V1417H1397ZM801 1550H721L778 1847H983L801 1550Z"  />
<glyph unicode="&#xDB;" horiz-adv-x="1520" d="M375 66Q365 67 352 76T324 99T297 132T274 172Q262 200 253 224T239 274T230 334T227 412V1417H31V1446H358V332Q358 276 359 225T365 143Q367 126 368 116T371 98T372 83T375 66ZM461 29Q453 53 448 78T440 123Q438 147 437 162T435 194T433 234T432 295V1446H461V328Q461 296 461 270T463 221T466 175T471 127Q476 95 485 61T504 -2L461 29ZM1397 1417Q1378 1417 1363 1414T1337 1397Q1332 1389 1329 1379T1325 1358V483Q1325 369 1301 279T1210 111Q1169 63 1115 35T1003 -7T888 -25T784 -29Q751 -29 720 -28T663 -23T616 -16T584 -6Q569 10 560 36T545 96T537 166T535 240V1446H727V1417H563V248Q563 214 565 179T572 113T586 56T608 18Q617 15 635 12T677 6T728 2T784 0Q842 0 896 4T1001 23T1098 64T1184 133Q1220 172 1240 213T1270 301T1282 397T1284 504V1354Q1284 1368 1281 1379T1268 1399Q1245 1417 1212 1417H1108V1446H1489V1417H1397ZM840 1550L705 1778L541 1550H502L701 1827H854L1033 1550H840Z"  />
<glyph unicode="&#xDC;" horiz-adv-x="1520" d="M375 66Q365 67 352 76T324 99T297 132T274 172Q262 200 253 224T239 274T230 334T227 412V1417H31V1446H358V332Q358 276 359 225T365 143Q367 126 368 116T371 98T372 83T375 66ZM461 29Q453 53 448 78T440 123Q438 147 437 162T435 194T433 234T432 295V1446H461V328Q461 296 461 270T463 221T466 175T471 127Q476 95 485 61T504 -2L461 29ZM1397 1417Q1378 1417 1363 1414T1337 1397Q1332 1389 1329 1379T1325 1358V483Q1325 369 1301 279T1210 111Q1169 63 1115 35T1003 -7T888 -25T784 -29Q751 -29 720 -28T663 -23T616 -16T584 -6Q569 10 560 36T545 96T537 166T535 240V1446H727V1417H563V248Q563 214 565 179T572 113T586 56T608 18Q617 15 635 12T677 6T728 2T784 0Q842 0 896 4T1001 23T1098 64T1184 133Q1220 172 1240 213T1270 301T1282 397T1284 504V1354Q1284 1368 1281 1379T1268 1399Q1245 1417 1212 1417H1108V1446H1489V1417H1397ZM1096 1681Q1096 1659 1088 1640T1064 1605T1029 1582T987 1573Q965 1573 946 1581T911 1605T888 1639T879 1681Q879 1703 887 1723T911 1758T945 1781T987 1790Q1009 1790 1029 1782T1064 1758T1087 1723T1096 1681ZM731 1681Q731 1659 723 1640T699 1605T665 1582T623 1573Q600 1573 581 1581T546 1605T523 1639T514 1681Q514 1703 522 1723T546 1758T580 1781T623 1790Q645 1790 664 1782T699 1758T722 1723T731 1681Z"  />
<glyph unicode="&#xE0;" horiz-adv-x="1929" d="M842 1550L659 1847H864L922 1550H842ZM1722 0L985 1446H1161V1417H1036L1747 29H1911V0H1722ZM1608 0L860 1446H899L1640 0H1608ZM1149 0V29H1360L1116 506H418L229 111Q217 79 219 68T231 47Q242 36 261 33T301 29H494V0H10V29H88Q105 29 125 36T156 51Q168 60 179 78T195 106L383 506H10V535H397L737 1249L655 1417H567V1446H784L1522 0H1149ZM758 1214L432 535H1094L758 1214Z"  />
<glyph unicode="&#xE1;" horiz-adv-x="1929" d="M1726 0L989 1446H1165V1417H1040L1751 29H1915V0H1726ZM1612 0L864 1446H903L1645 0H1612ZM1153 0V29H1364L1120 506H422L233 111Q221 79 223 68T236 47Q247 36 266 33T305 29H498V0H14V29H92Q109 29 129 36T160 51Q172 60 183 78T199 106L387 506H14V535H401L741 1249L659 1417H571V1446H788L1526 0H1153ZM762 1214L436 535H1098L762 1214ZM881 1550H801L858 1847H1063L881 1550Z"  />
<glyph unicode="&#xE2;" horiz-adv-x="1929" d="M1726 0L989 1446H1165V1417H1040L1751 29H1915V0H1726ZM1612 0L864 1446H903L1645 0H1612ZM1153 0V29H1364L1120 506H422L233 111Q221 79 223 68T236 47Q247 36 266 33T305 29H498V0H14V29H92Q109 29 129 36T160 51Q172 60 183 78T199 106L387 506H14V535H401L741 1249L659 1417H571V1446H788L1526 0H1153ZM762 1214L436 535H1098L762 1214ZM938 1550L803 1778L639 1550H600L799 1827H952L1131 1550H938Z"  />
<glyph unicode="&#xE3;" horiz-adv-x="1929" d="M1726 0L989 1446H1165V1417H1040L1751 29H1915V0H1726ZM1612 0L864 1446H903L1645 0H1612ZM1153 0V29H1364L1120 506H422L233 111Q221 79 223 68T236 47Q247 36 266 33T305 29H498V0H14V29H92Q109 29 129 36T160 51Q172 60 183 78T199 106L387 506H14V535H401L741 1249L659 1417H571V1446H788L1526 0H1153ZM762 1214L436 535H1098L762 1214ZM1225 1765Q1223 1746 1219 1715T1199 1653T1156 1601T1076 1579Q1034 1579 995 1590T920 1614T854 1639T799 1651Q775 1651 759 1647T732 1633T713 1611T697 1579H668Q672 1599 680 1630T703 1692T743 1743T805 1765Q847 1765 886 1754T962 1730T1030 1705T1088 1694Q1122 1694 1152 1711T1196 1765H1225H1225Z"  />
<glyph unicode="&#xE4;" horiz-adv-x="1929" d="M1726 0L989 1446H1165V1417H1040L1751 29H1915V0H1726ZM1612 0L864 1446H903L1645 0H1612ZM1153 0V29H1364L1120 506H422L233 111Q221 79 223 68T236 47Q247 36 266 33T305 29H498V0H14V29H92Q109 29 129 36T160 51Q172 60 183 78T199 106L387 506H14V535H401L741 1249L659 1417H571V1446H788L1526 0H1153ZM762 1214L436 535H1098L762 1214ZM1157 1681Q1157 1659 1149 1640T1125 1605T1090 1582T1048 1573Q1026 1573 1007 1581T972 1605T949 1639T940 1681Q940 1703 948 1723T972 1758T1006 1781T1048 1790Q1070 1790 1090 1782T1125 1758T1148 1723T1157 1681ZM792 1681Q792 1659 784 1640T760 1605T726 1582T684 1573Q661 1573 642 1581T607 1605T584 1639T575 1681Q575 1703 583 1723T607 1758T641 1781T684 1790Q706 1790 725 1782T760 1758T783 1723T792 1681Z"  />
<glyph unicode="&#xE5;" horiz-adv-x="1929" d="M1726 0L989 1446H1165V1417H1040L1751 29H1915V0H1726ZM1612 0L864 1446H903L1645 0H1612ZM1153 0V29H1364L1120 506H422L233 111Q221 79 223 68T236 47Q247 36 266 33T305 29H498V0H14V29H92Q109 29 129 36T160 51Q172 60 183 78T199 106L387 506H14V535H401L741 1249L659 1417H571V1446H788L1526 0H1153ZM762 1214L436 535H1098L762 1214ZM990 1743Q990 1711 977 1682T942 1631T891 1596T828 1583Q795 1583 766 1596T714 1631T679 1682T666 1743Q666 1777 679 1806T714 1856T765 1890T828 1903Q861 1903 890 1891T942 1857T977 1806T990 1743ZM920 1743Q920 1783 893 1808T828 1833Q791 1833 765 1808T738 1743Q738 1706 764 1680T828 1653Q846 1653 863 1660T892 1679T912 1708T920 1743Z"  />
<glyph unicode="&#xE6;" horiz-adv-x="2140" d="M2093 0H1419V1446H1985L1995 1245H1966L1960 1354Q1960 1368 1954 1382T1939 1403Q1925 1412 1903 1414T1860 1417H1448V973H1868Q1886 973 1903 976T1929 989Q1937 997 1939 1013T1942 1047V1085H1970V829H1942V877Q1942 880 1941 887T1937 902T1932 918T1925 930Q1916 939 1901 941T1868 944H1448V29H1972Q1994 29 2018 30T2054 45Q2071 65 2071 92L2081 207H2109L2093 0ZM1317 0V1446H1346V0H1317ZM915 0V29H1112V506H516L264 141Q246 110 238 96T231 66Q232 54 239 47T259 36T285 31T313 29H498V0H14V29H76Q102 29 126 37T164 57Q175 67 192 84T225 125L487 506H100V535H508L1112 1411V1417H915V1446H1243V0H915ZM1112 1368L537 535H1112V1368Z"  />
<glyph unicode="&#xE7;" horiz-adv-x="1667" d="M281 176V1257L309 1284V145L281 176ZM207 236Q190 256 164 301T112 410T69 556T51 729Q51 827 70 906T115 1043T167 1137T207 1188V236ZM1640 1458Q1599 1398 1545 1320T1420 1140T1261 907T1063 614L1038 637L1341 1085Q1355 1107 1364 1128T1374 1176Q1374 1202 1357 1227T1321 1272Q1284 1309 1240 1341T1140 1396T1013 1433T850 1446Q796 1446 735 1437T614 1411T502 1371T412 1319V113Q446 93 499 73T613 36T735 10T848 0Q967 0 1058 20T1218 71T1334 137T1411 201Q1437 227 1449 245T1475 264Q1490 264 1495 257T1501 238Q1501 230 1482 208T1426 155T1334 93T1208 33T1050 -11T862 -29Q853 -29 843 -29T819 -27L768 -162Q791 -157 812 -152T862 -147Q890 -147 922 -153T981 -177T1026 -225T1044 -303Q1044 -337 1025 -366T971 -418T886 -452T774 -465Q736 -465 703 -456T644 -434Q615 -421 590 -403L608 -381Q628 -398 654 -410Q675 -421 704 -429T766 -438Q794 -438 821 -431T868 -407T900 -367T913 -307Q913 -276 903 -255T876 -221T841 -201T803 -195Q775 -195 758 -199T719 -209L793 -27Q657 -13 558 18T383 94V1335Q411 1361 463 1386T580 1431T715 1463T850 1475Q959 1475 1038 1459T1175 1418T1273 1363T1343 1303Q1369 1278 1386 1262T1421 1245Q1430 1245 1440 1252T1460 1268T1478 1289T1491 1309L1610 1479L1640 1458Z"  />
<glyph unicode="&#xE8;" horiz-adv-x="1255" d="M1208 0H535V1446H1100L1110 1245H1081L1075 1354Q1075 1368 1069 1382T1055 1403Q1041 1412 1019 1414T975 1417H563V973H983Q1002 973 1018 976T1044 989Q1052 997 1054 1013T1057 1047V1085H1085V829H1057V877Q1057 880 1056 887T1053 902T1047 918T1040 930Q1031 939 1016 941T983 944H563V29H1087Q1109 29 1133 30T1169 45Q1186 64 1186 92L1196 207H1225L1208 0ZM432 0V1446H461V0H432ZM31 0V29H227V1417H31V1446H358V0H31ZM622 1550L440 1847H645L702 1550H622Z"  />
<glyph unicode="&#xE9;" horiz-adv-x="1255" d="M1208 0H535V1446H1100L1110 1245H1081L1075 1354Q1075 1368 1069 1382T1055 1403Q1041 1412 1019 1414T975 1417H563V973H983Q1002 973 1018 976T1044 989Q1052 997 1054 1013T1057 1047V1085H1085V829H1057V877Q1057 880 1056 887T1053 902T1047 918T1040 930Q1031 939 1016 941T983 944H563V29H1087Q1109 29 1133 30T1169 45Q1186 64 1186 92L1196 207H1225L1208 0ZM432 0V1446H461V0H432ZM31 0V29H227V1417H31V1446H358V0H31ZM623 1550H543L600 1847H805L623 1550Z"  />
<glyph unicode="&#xEA;" horiz-adv-x="1255" d="M1208 0H535V1446H1100L1110 1245H1081L1075 1354Q1075 1368 1069 1382T1055 1403Q1041 1412 1019 1414T975 1417H563V973H983Q1002 973 1018 976T1044 989Q1052 997 1054 1013T1057 1047V1085H1085V829H1057V877Q1057 880 1056 887T1053 902T1047 918T1040 930Q1031 939 1016 941T983 944H563V29H1087Q1109 29 1133 30T1169 45Q1186 64 1186 92L1196 207H1225L1208 0ZM432 0V1446H461V0H432ZM31 0V29H227V1417H31V1446H358V0H31ZM684 1550L549 1778L385 1550H346L545 1827H698L877 1550H684Z"  />
<glyph unicode="&#xEB;" horiz-adv-x="1255" d="M1208 0H535V1446H1100L1110 1245H1081L1075 1354Q1075 1368 1069 1382T1055 1403Q1041 1412 1019 1414T975 1417H563V973H983Q1002 973 1018 976T1044 989Q1052 997 1054 1013T1057 1047V1085H1085V829H1057V877Q1057 880 1056 887T1053 902T1047 918T1040 930Q1031 939 1016 941T983 944H563V29H1087Q1109 29 1133 30T1169 45Q1186 64 1186 92L1196 207H1225L1208 0ZM432 0V1446H461V0H432ZM31 0V29H227V1417H31V1446H358V0H31ZM930 1681Q930 1659 922 1640T898 1605T863 1582T821 1573Q799 1573 780 1581T745 1605T722 1639T713 1681Q713 1703 721 1723T745 1758T779 1781T821 1790Q843 1790 863 1782T898 1758T921 1723T930 1681ZM565 1681Q565 1659 557 1640T533 1605T499 1582T457 1573Q434 1573 415 1581T380 1605T357 1639T348 1681Q348 1703 356 1723T380 1758T414 1781T457 1790Q479 1790 498 1782T533 1758T556 1723T565 1681Z"  />
<glyph unicode="&#xEC;" horiz-adv-x="758" d="M535 0V1446H727V1417H563V29H727V0H535ZM432 0V1446H461V0H432ZM31 0V29H227V1417H31V1446H358V0H31ZM417 1550L235 1847H440L497 1550H417Z"  />
<glyph unicode="&#xED;" horiz-adv-x="758" d="M535 0V1446H727V1417H563V29H727V0H535ZM432 0V1446H461V0H432ZM31 0V29H227V1417H31V1446H358V0H31ZM408 1550H328L385 1847H590L408 1550Z"  />
<glyph unicode="&#xEE;" horiz-adv-x="758" d="M535 0V1446H727V1417H563V29H727V0H535ZM432 0V1446H461V0H432ZM31 0V29H227V1417H31V1446H358V0H31ZM481 1547L346 1775L182 1547H143L342 1824H495L674 1547H481Z"  />
<glyph unicode="&#xEF;" horiz-adv-x="758" d="M535 0V1446H727V1417H563V29H727V0H535ZM432 0V1446H461V0H432ZM31 0V29H227V1417H31V1446H358V0H31ZM690 1681Q690 1659 682 1640T658 1605T623 1582T581 1573Q559 1573 540 1581T505 1605T482 1639T473 1681Q473 1703 481 1723T505 1758T539 1781T581 1790Q603 1790 623 1782T658 1758T681 1723T690 1681ZM325 1681Q325 1659 317 1640T293 1605T259 1582T217 1573Q194 1573 175 1581T140 1605T117 1639T108 1681Q108 1703 116 1723T140 1758T174 1781T217 1790Q239 1790 258 1782T293 1758T316 1723T325 1681Z"  />
<glyph unicode="&#xF1;" horiz-adv-x="1530" d="M1409 1417Q1392 1417 1374 1414T1346 1399Q1338 1391 1334 1377T1329 1348V707L197 1425V1462L1290 770V1354Q1290 1366 1289 1376T1280 1397Q1271 1411 1254 1414T1219 1417H1096V1446H1499V1417H1409ZM197 1303V1339L1335 621V580L197 1303ZM1294 -61V375L238 1051V92Q240 80 240 70T248 49Q257 35 273 32T307 29H436V0H31V29H121Q138 29 153 32T178 47Q186 55 191 71T197 102V1212L1335 492V-61H1294ZM1071 1798Q1069 1779 1065 1748T1045 1686T1002 1634T922 1612Q880 1612 841 1623T766 1647T700 1672T645 1684Q621 1684 605 1680T578 1666T559 1644T543 1612H514Q518 1632 526 1663T549 1725T589 1776T651 1798Q693 1798 732 1787T808 1763T876 1738T934 1727Q968 1727 998 1744T1042 1798H1071H1071Z"  />
<glyph unicode="&#xF2;" horiz-adv-x="1532" d="M207 236Q190 256 164 301T112 410T69 556T51 729Q51 826 69 908T113 1055T165 1160T207 1217V236ZM281 152V1298L309 1325V121L281 152ZM1481 729Q1481 632 1461 538T1400 360T1299 204T1159 81T980 0T762 -29Q708 -29 650 -20T540 4T446 36T383 70V1376Q412 1392 453 1409T545 1441T651 1465T766 1475Q884 1475 983 1447T1161 1369T1301 1248T1401 1095T1461 919T1481 729ZM1440 729Q1440 875 1397 1005T1268 1233T1057 1388T766 1446Q718 1446 667 1438T568 1417T480 1389T412 1358V84Q443 67 483 52T568 26T663 7T762 0Q872 0 965 27T1134 103T1267 219T1362 367T1420 540T1440 729ZM766 1550L584 1847H789L846 1550H766Z"  />
<glyph unicode="&#xF3;" horiz-adv-x="1532" d="M207 236Q190 256 164 301T112 410T69 556T51 729Q51 826 69 908T113 1055T165 1160T207 1217V236ZM281 152V1298L309 1325V121L281 152ZM1481 729Q1481 632 1461 538T1400 360T1299 204T1159 81T980 0T762 -29Q708 -29 650 -20T540 4T446 36T383 70V1376Q412 1392 453 1409T545 1441T651 1465T766 1475Q884 1475 983 1447T1161 1369T1301 1248T1401 1095T1461 919T1481 729ZM1440 729Q1440 875 1397 1005T1268 1233T1057 1388T766 1446Q718 1446 667 1438T568 1417T480 1389T412 1358V84Q443 67 483 52T568 26T663 7T762 0Q872 0 965 27T1134 103T1267 219T1362 367T1420 540T1440 729ZM793 1550H713L770 1847H975L793 1550Z"  />
<glyph unicode="&#xF4;" horiz-adv-x="1532" d="M207 236Q190 256 164 301T112 410T69 556T51 729Q51 826 69 908T113 1055T165 1160T207 1217V236ZM281 152V1298L309 1325V121L281 152ZM1481 729Q1481 632 1461 538T1400 360T1299 204T1159 81T980 0T762 -29Q708 -29 650 -20T540 4T446 36T383 70V1376Q412 1392 453 1409T545 1441T651 1465T766 1475Q884 1475 983 1447T1161 1369T1301 1248T1401 1095T1461 919T1481 729ZM1440 729Q1440 875 1397 1005T1268 1233T1057 1388T766 1446Q718 1446 667 1438T568 1417T480 1389T412 1358V84Q443 67 483 52T568 26T663 7T762 0Q872 0 965 27T1134 103T1267 219T1362 367T1420 540T1440 729ZM856 1550L721 1778L557 1550H518L717 1827H870L1049 1550H856Z"  />
<glyph unicode="&#xF5;" horiz-adv-x="1532" d="M207 236Q190 256 164 301T112 410T69 556T51 729Q51 826 69 908T113 1055T165 1160T207 1217V236ZM281 152V1298L309 1325V121L281 152ZM1481 729Q1481 632 1461 538T1400 360T1299 204T1159 81T980 0T762 -29Q708 -29 650 -20T540 4T446 36T383 70V1376Q412 1392 453 1409T545 1441T651 1465T766 1475Q884 1475 983 1447T1161 1369T1301 1248T1401 1095T1461 919T1481 729ZM1440 729Q1440 875 1397 1005T1268 1233T1057 1388T766 1446Q718 1446 667 1438T568 1417T480 1389T412 1358V84Q443 67 483 52T568 26T663 7T762 0Q872 0 965 27T1134 103T1267 219T1362 367T1420 540T1440 729ZM1093 1765Q1091 1746 1087 1715T1067 1653T1024 1601T944 1579Q902 1579 863 1590T788 1614T722 1639T667 1651Q643 1651 627 1647T600 1633T581 1611T565 1579H536Q540 1599 548 1630T571 1692T611 1743T673 1765Q715 1765 754 1754T830 1730T898 1705T956 1694Q990 1694 1020 1711T1064 1765H1093H1093Z"  />
<glyph unicode="&#xF6;" horiz-adv-x="1532" d="M207 236Q190 256 164 301T112 410T69 556T51 729Q51 826 69 908T113 1055T165 1160T207 1217V236ZM281 152V1298L309 1325V121L281 152ZM1481 729Q1481 632 1461 538T1400 360T1299 204T1159 81T980 0T762 -29Q708 -29 650 -20T540 4T446 36T383 70V1376Q412 1392 453 1409T545 1441T651 1465T766 1475Q884 1475 983 1447T1161 1369T1301 1248T1401 1095T1461 919T1481 729ZM1440 729Q1440 875 1397 1005T1268 1233T1057 1388T766 1446Q718 1446 667 1438T568 1417T480 1389T412 1358V84Q443 67 483 52T568 26T663 7T762 0Q872 0 965 27T1134 103T1267 219T1362 367T1420 540T1440 729ZM1051 1681Q1051 1659 1043 1640T1019 1605T984 1582T942 1573Q920 1573 901 1581T866 1605T843 1639T834 1681Q834 1703 842 1723T866 1758T900 1781T942 1790Q964 1790 984 1782T1019 1758T1042 1723T1051 1681ZM686 1681Q686 1659 678 1640T654 1605T620 1582T578 1573Q555 1573 536 1581T501 1605T478 1639T469 1681Q469 1703 477 1723T501 1758T535 1781T578 1790Q600 1790 619 1782T654 1758T677 1723T686 1681Z"  />
<glyph unicode="&#xF7;" horiz-adv-x="1364" d="M766 889Q766 855 743 832T686 809Q652 809 629 832T606 889Q606 923 629 946T686 969Q720 969 743 946T766 889ZM119 520V608H1245V520H119ZM766 260Q766 226 743 203T686 180Q652 180 629 203T606 260Q606 294 629 317T686 340Q720 340 743 317T766 260Z"  />
<glyph unicode="&#xF8;" horiz-adv-x="1532" d="M207 236Q190 256 164 301T112 410T69 556T51 729Q51 827 70 910T115 1057T167 1162T207 1217V236ZM281 152V1298L309 1325V121L281 152ZM1481 729Q1481 632 1461 538T1400 360T1299 204T1159 81T980 0T762 -29Q714 -29 663 -22T564 -3T476 23T408 53L262 -193L238 -176L383 72V1376Q401 1392 443 1409T538 1441T652 1465T766 1475Q881 1475 977 1449T1151 1374L1266 1585L1290 1569L1176 1358Q1252 1307 1309 1238T1404 1088T1461 915T1481 729ZM1135 1348Q1059 1394 967 1420T766 1446Q663 1446 572 1422T412 1360V121L1135 1348ZM1440 729Q1440 823 1422 910T1369 1075T1281 1218T1159 1331L422 78Q453 62 491 48T574 23T666 6T762 0Q872 0 965 27T1134 103T1267 219T1362 367T1420 540T1440 729Z"  />
<glyph unicode="&#xF9;" horiz-adv-x="1520" d="M375 66Q365 67 352 76T324 99T297 132T274 172Q262 200 253 224T239 274T230 334T227 412V1417H31V1446H358V332Q358 276 359 225T365 143Q367 126 368 116T371 98T372 83T375 66ZM461 29Q453 53 448 78T440 123Q438 147 437 162T435 194T433 234T432 295V1446H461V328Q461 296 461 270T463 221T466 175T471 127Q476 95 485 61T504 -2L461 29ZM1397 1417Q1378 1417 1363 1414T1337 1397Q1332 1389 1329 1379T1325 1358V483Q1325 369 1301 279T1210 111Q1169 63 1115 35T1003 -7T888 -25T784 -29Q751 -29 720 -28T663 -23T616 -16T584 -6Q569 10 560 36T545 96T537 166T535 240V1446H727V1417H563V248Q563 214 565 179T572 113T586 56T608 18Q617 15 635 12T677 6T728 2T784 0Q842 0 896 4T1001 23T1098 64T1184 133Q1220 172 1240 213T1270 301T1282 397T1284 504V1354Q1284 1368 1281 1379T1268 1399Q1245 1417 1212 1417H1108V1446H1489V1417H1397ZM772 1550L590 1847H795L852 1550H772Z"  />
<glyph unicode="&#xFA;" horiz-adv-x="1520" d="M375 66Q365 67 352 76T324 99T297 132T274 172Q262 200 253 224T239 274T230 334T227 412V1417H31V1446H358V332Q358 276 359 225T365 143Q367 126 368 116T371 98T372 83T375 66ZM461 29Q453 53 448 78T440 123Q438 147 437 162T435 194T433 234T432 295V1446H461V328Q461 296 461 270T463 221T466 175T471 127Q476 95 485 61T504 -2L461 29ZM1397 1417Q1378 1417 1363 1414T1337 1397Q1332 1389 1329 1379T1325 1358V483Q1325 369 1301 279T1210 111Q1169 63 1115 35T1003 -7T888 -25T784 -29Q751 -29 720 -28T663 -23T616 -16T584 -6Q569 10 560 36T545 96T537 166T535 240V1446H727V1417H563V248Q563 214 565 179T572 113T586 56T608 18Q617 15 635 12T677 6T728 2T784 0Q842 0 896 4T1001 23T1098 64T1184 133Q1220 172 1240 213T1270 301T1282 397T1284 504V1354Q1284 1368 1281 1379T1268 1399Q1245 1417 1212 1417H1108V1446H1489V1417H1397ZM801 1550H721L778 1847H983L801 1550Z"  />
<glyph unicode="&#xFB;" horiz-adv-x="1520" d="M375 66Q365 67 352 76T324 99T297 132T274 172Q262 200 253 224T239 274T230 334T227 412V1417H31V1446H358V332Q358 276 359 225T365 143Q367 126 368 116T371 98T372 83T375 66ZM461 29Q453 53 448 78T440 123Q438 147 437 162T435 194T433 234T432 295V1446H461V328Q461 296 461 270T463 221T466 175T471 127Q476 95 485 61T504 -2L461 29ZM1397 1417Q1378 1417 1363 1414T1337 1397Q1332 1389 1329 1379T1325 1358V483Q1325 369 1301 279T1210 111Q1169 63 1115 35T1003 -7T888 -25T784 -29Q751 -29 720 -28T663 -23T616 -16T584 -6Q569 10 560 36T545 96T537 166T535 240V1446H727V1417H563V248Q563 214 565 179T572 113T586 56T608 18Q617 15 635 12T677 6T728 2T784 0Q842 0 896 4T1001 23T1098 64T1184 133Q1220 172 1240 213T1270 301T1282 397T1284 504V1354Q1284 1368 1281 1379T1268 1399Q1245 1417 1212 1417H1108V1446H1489V1417H1397ZM840 1550L705 1778L541 1550H502L701 1827H854L1033 1550H840Z"  />
<glyph unicode="&#xFC;" horiz-adv-x="1520" d="M375 66Q365 67 352 76T324 99T297 132T274 172Q262 200 253 224T239 274T230 334T227 412V1417H31V1446H358V332Q358 276 359 225T365 143Q367 126 368 116T371 98T372 83T375 66ZM461 29Q453 53 448 78T440 123Q438 147 437 162T435 194T433 234T432 295V1446H461V328Q461 296 461 270T463 221T466 175T471 127Q476 95 485 61T504 -2L461 29ZM1397 1417Q1378 1417 1363 1414T1337 1397Q1332 1389 1329 1379T1325 1358V483Q1325 369 1301 279T1210 111Q1169 63 1115 35T1003 -7T888 -25T784 -29Q751 -29 720 -28T663 -23T616 -16T584 -6Q569 10 560 36T545 96T537 166T535 240V1446H727V1417H563V248Q563 214 565 179T572 113T586 56T608 18Q617 15 635 12T677 6T728 2T784 0Q842 0 896 4T1001 23T1098 64T1184 133Q1220 172 1240 213T1270 301T1282 397T1284 504V1354Q1284 1368 1281 1379T1268 1399Q1245 1417 1212 1417H1108V1446H1489V1417H1397ZM1096 1681Q1096 1659 1088 1640T1064 1605T1029 1582T987 1573Q965 1573 946 1581T911 1605T888 1639T879 1681Q879 1703 887 1723T911 1758T945 1781T987 1790Q1009 1790 1029 1782T1064 1758T1087 1723T1096 1681ZM731 1681Q731 1659 723 1640T699 1605T665 1582T623 1573Q600 1573 581 1581T546 1605T523 1639T514 1681Q514 1703 522 1723T546 1758T580 1781T623 1790Q645 1790 664 1782T699 1758T722 1723T731 1681Z"  />
<glyph unicode="&#x152;" horiz-adv-x="2038" d="M207 236Q190 256 164 301T112 410T69 556T51 729Q51 827 70 910T115 1057T167 1162T207 1217V236ZM281 152V1298L309 1325V121L281 152ZM1991 0H1317V1446H1882L1892 1243H1864L1858 1352Q1858 1366 1852 1380T1837 1401Q1823 1410 1801 1412T1757 1415L1346 1417V971H1765Q1784 971 1801 974T1827 987Q1835 995 1837 1011T1839 1044V1083H1868V827H1839V874Q1839 877 1838 884T1835 900T1830 916T1823 928Q1813 937 1798 939T1765 942H1346V29H1870Q1880 29 1892 29T1916 30T1936 35T1952 45Q1968 64 1968 92L1978 207H2007L1991 0ZM1214 0V1446H1243V0H1214ZM1010 0V8Q954 -10 893 -19T762 -29Q708 -29 650 -20T540 4T446 36T383 70V1376Q401 1392 443 1409T538 1441T652 1465T766 1475Q834 1475 894 1466T1010 1438V1446H1141V0H1010ZM1008 1405Q902 1446 766 1446Q663 1446 572 1422T412 1360V84Q443 67 483 52T568 26T663 7T762 0Q836 0 894 11T1008 45V1405Z"  />
<glyph unicode="&#x153;" horiz-adv-x="2038" d="M207 236Q190 256 164 301T112 410T69 556T51 729Q51 827 70 910T115 1057T167 1162T207 1217V236ZM281 152V1298L309 1325V121L281 152ZM1991 0H1317V1446H1882L1892 1243H1864L1858 1352Q1858 1366 1852 1380T1837 1401Q1823 1410 1801 1412T1757 1415L1346 1417V971H1765Q1784 971 1801 974T1827 987Q1835 995 1837 1011T1839 1044V1083H1868V827H1839V874Q1839 877 1838 884T1835 900T1830 916T1823 928Q1813 937 1798 939T1765 942H1346V29H1870Q1880 29 1892 29T1916 30T1936 35T1952 45Q1968 64 1968 92L1978 207H2007L1991 0ZM1214 0V1446H1243V0H1214ZM1010 0V8Q954 -10 893 -19T762 -29Q708 -29 650 -20T540 4T446 36T383 70V1376Q401 1392 443 1409T538 1441T652 1465T766 1475Q834 1475 894 1466T1010 1438V1446H1141V0H1010ZM1008 1405Q902 1446 766 1446Q663 1446 572 1422T412 1360V84Q443 67 483 52T568 26T663 7T762 0Q836 0 894 11T1008 45V1405Z"  />
<glyph unicode="&#x160;" horiz-adv-x="1630" d="M1569 692Q1488 654 1419 601T1297 499Q1236 442 1186 381H1106Q1127 432 1153 483Q1176 527 1207 575T1278 666H55V768H1278Q1239 809 1208 858T1153 951Q1127 1002 1106 1053H1186Q1236 992 1297 935Q1349 886 1418 833T1569 741V692H1569Z"  />
<glyph unicode="&#x161;" horiz-adv-x="1630" d="M352 666Q391 624 422 576T477 483Q503 432 524 381H444Q394 442 333 499Q281 548 212 601T61 692V741Q142 779 211 832T333 935Q394 992 444 1053H524Q503 1002 477 951Q454 907 423 858T352 768H1575V666H352Z"  />
<glyph unicode="&#x178;" horiz-adv-x="1769" d="M1645 1417Q1628 1417 1616 1415T1589 1407Q1577 1401 1566 1392T1548 1370L1104 627V29H1264V0H1075V618L571 1446H764V1417H625L1087 674L1489 1354Q1500 1371 1503 1379T1503 1397Q1498 1409 1490 1413T1458 1417H1325V1446H1755V1417H1645ZM969 0V594L432 1446H469L999 610V0H969ZM571 0V29H768V541L211 1417H14V1446H342L899 565V0H571ZM1303 1681Q1303 1659 1295 1640T1271 1605T1236 1582T1194 1573Q1172 1573 1153 1581T1118 1605T1095 1639T1086 1681Q1086 1703 1094 1723T1118 1758T1152 1781T1194 1790Q1216 1790 1236 1782T1271 1758T1294 1723T1303 1681ZM938 1681Q938 1659 930 1640T906 1605T872 1582T830 1573Q807 1573 788 1581T753 1605T730 1639T721 1681Q721 1703 729 1723T753 1758T787 1781T830 1790Q852 1790 871 1782T906 1758T929 1723T938 1681Z"  />
<glyph unicode="&#x192;" horiz-adv-x="973" d="M1012 1370Q1017 1352 1008 1342T983 1331Q968 1331 956 1345T930 1378T896 1410T842 1425Q797 1425 762 1415T692 1366Q668 1340 653 1303T629 1221T615 1129T609 1033T607 939T606 854H827V825H606Q600 701 593 606T579 436T563 306T546 205T528 123T508 49Q491 -14 461 -83T385 -238L309 -293Q338 -249 363 -204T408 -117T443 -36T467 35Q482 88 498 158T528 324T552 546T565 836Q566 905 568 985T580 1143T611 1285T672 1389Q692 1408 710 1420T748 1440T790 1451T840 1454Q875 1454 905 1446T958 1425T995 1397T1012 1370ZM762 1468Q721 1458 697 1447T658 1427T638 1410T629 1399Q600 1367 577 1322T537 1210T510 1051T496 834Q493 745 489 650T474 453T445 240T397 12Q387 -27 370 -74T331 -169T282 -263T229 -348L143 -403Q197 -339 235 -275T299 -154T339 -53T360 16Q386 120 404 226T434 436T451 641T457 834Q457 982 471 1087T512 1264T574 1382T655 1456Q671 1464 690 1467T725 1473Q743 1475 762 1475Q742 1475 740 1474T742 1471Q748 1469 762 1468ZM586 1454Q562 1437 545 1422T516 1392T494 1364T475 1337Q446 1297 428 1235T400 1102T385 962T379 838Q378 756 375 662T363 467T341 263T304 62T249 -128T172 -295Q153 -328 120 -359T46 -415T-41 -454T-133 -469Q-170 -469 -200 -458T-253 -432T-287 -399T-299 -371Q-299 -354 -292 -340T-260 -326Q-246 -326 -234 -344T-207 -383T-172 -422T-123 -440Q-84 -440 -51 -419T11 -366T62 -293T100 -213Q133 -129 156 -45T197 126T225 306T246 500Q247 513 248 537T252 592T255 657T258 722T259 779T260 821H80V850H262Q270 954 280 1035T308 1180T356 1293T434 1382Q457 1401 492 1422T586 1454Z"  />
<glyph unicode="&#x2C6;" horiz-adv-x="539" d="M342 1550L207 1778L43 1550H4L203 1827H356L535 1550H342Z"  />
<glyph unicode="&#x2DA;" horiz-adv-x="332" d="M328 1743Q328 1711 315 1682T280 1631T229 1596T166 1583Q133 1583 104 1596T52 1631T17 1682T4 1743Q4 1777 17 1806T52 1856T103 1890T166 1903Q199 1903 228 1891T280 1857T315 1806T328 1743ZM258 1743Q258 1783 231 1808T166 1833Q129 1833 103 1808T76 1743Q76 1706 102 1680T166 1653Q184 1653 201 1660T230 1679T250 1708T258 1743Z"  />
<glyph unicode="&#x2DC;" horiz-adv-x="565" d="M561 1765Q559 1746 555 1715T535 1653T492 1601T412 1579Q370 1579 331 1590T256 1614T190 1639T135 1651Q111 1651 95 1647T68 1633T49 1611T33 1579H4Q8 1599 16 1630T39 1692T79 1743T141 1765Q183 1765 222 1754T298 1730T366 1705T424 1694Q458 1694 488 1711T532 1765H561H561Z"  />
<glyph unicode="&#x2013;" horiz-adv-x="1364" d="M61 797V825H1303V797H61ZM61 645V743H1303V645H61Z"  />
<glyph unicode="&#x2014;" horiz-adv-x="2048" d="M61 797V825H1987V797H61ZM61 645V743H1987V645H61Z"  />
<glyph unicode="&#x2018;" horiz-adv-x="524" d="M453 1010Q453 971 438 936T398 875T338 834T264 819Q225 819 190 834T129 874T88 935T72 1010Q72 1036 79 1059T98 1104T122 1146T147 1186L317 1475H362L201 1190Q215 1195 231 1197T262 1200Q303 1200 338 1185T398 1144T438 1084T453 1010ZM422 1010Q422 1043 410 1068T382 1113T349 1144T324 1161V864Q343 870 361 884T392 918T414 961T422 1010ZM309 1163Q303 1166 291 1168T266 1171Q252 1171 246 1170T229 1165V854Q235 852 241 851Q251 848 266 848Q279 848 290 850T309 854V1163Z"  />
<glyph unicode="&#x2019;" horiz-adv-x="524" d="M453 1284Q453 1260 447 1238T430 1193T406 1147T377 1100L207 819H162Q208 899 243 961Q258 988 272 1013T298 1059T315 1091T322 1104Q308 1099 293 1097T262 1094Q223 1094 189 1109T128 1150T87 1210T72 1284Q72 1323 86 1358T126 1419T186 1460T260 1475Q299 1475 334 1460T396 1420T437 1359T453 1284ZM422 1284Q422 1309 414 1332T393 1375T361 1409T324 1430V1137Q334 1140 350 1151T383 1181T410 1226T422 1284ZM295 1440Q289 1441 283 1443Q278 1444 272 1445T258 1446Q246 1446 235 1444T215 1440V1130Q221 1127 233 1125T258 1122Q272 1122 279 1123T295 1128V1440Z"  />
<glyph unicode="&#x201A;" horiz-adv-x="524" d="M453 162Q453 114 430 70T377 -23L207 -303H162Q208 -223 243 -161Q258 -134 272 -109T298 -63T315 -31T322 -18Q292 -29 262 -29Q223 -29 189 -14T128 27T87 88T72 162Q72 201 86 235T126 296T186 337T260 352Q299 352 334 337T396 297T437 237T453 162ZM422 162Q422 186 414 209T393 252T361 286T324 307V14Q334 17 350 28T383 59T410 104T422 162ZM295 317Q289 318 283 320Q278 322 272 323T258 324Q246 324 235 322T215 317V8Q221 5 233 3T258 0Q272 0 279 1T295 6V317Z"  />
<glyph unicode="&#x201C;" horiz-adv-x="977" d="M905 1010Q905 971 890 936T850 875T790 834T717 819Q678 819 643 834T581 874T540 935T524 1010Q524 1035 531 1058T550 1103T575 1145T600 1186L770 1475H815L653 1190Q667 1195 683 1197T715 1200Q755 1200 790 1185T850 1144T890 1084T905 1010ZM453 1010Q453 971 438 936T398 875T338 834T264 819Q225 819 190 834T129 874T88 935T72 1010Q72 1035 79 1058T98 1103T122 1145T147 1186L317 1475H362L201 1190Q215 1195 231 1197T262 1200Q303 1200 338 1185T398 1144T438 1084T453 1010ZM874 1010Q874 1044 862 1069T834 1114T801 1144T776 1161V864Q795 870 813 884T844 918T866 961T874 1010ZM422 1010Q422 1044 410 1070T382 1114T349 1144T324 1161V864Q343 870 361 884T392 918T414 961T422 1010ZM762 1163Q756 1166 744 1168T719 1171Q705 1171 698 1170T682 1165V854Q687 852 693 851Q703 848 719 848Q731 848 742 850T762 854V1163ZM309 1163Q303 1166 291 1168T266 1171Q252 1171 246 1170T229 1165V854Q235 852 241 851Q251 848 266 848Q279 848 290 850T309 854V1163Z"  />
<glyph unicode="&#x201D;" horiz-adv-x="977" d="M905 1284Q905 1259 898 1236T879 1191T854 1149T829 1108L659 819H614L776 1104Q762 1099 746 1097T715 1094Q674 1094 639 1109T579 1150T539 1210T524 1284Q524 1323 539 1358T579 1419T639 1460T713 1475Q752 1475 787 1460T848 1420T889 1359T905 1284ZM453 1284Q453 1259 446 1236T427 1191T402 1149T377 1108L207 819H162L324 1104Q310 1099 294 1097T262 1094Q221 1094 187 1109T127 1150T87 1210T72 1284Q72 1323 86 1358T126 1419T186 1460T260 1475Q299 1475 334 1460T396 1420T437 1359T453 1284ZM748 1440Q742 1441 736 1443Q731 1444 725 1445T711 1446Q698 1446 687 1444T668 1440V1130Q674 1127 686 1125T711 1122Q725 1122 731 1123T748 1128V1440ZM295 1440Q289 1441 283 1443Q278 1444 272 1445T258 1446Q246 1446 235 1444T215 1440V1130Q221 1127 233 1125T258 1122Q272 1122 279 1123T295 1128V1440ZM874 1284Q874 1309 866 1332T845 1375T813 1409T776 1430V1133Q785 1138 801 1149T833 1179T862 1223T874 1284ZM422 1284Q422 1309 414 1332T393 1375T361 1409T324 1430V1133Q332 1138 348 1149T381 1180T410 1224T422 1284Z"  />
<glyph unicode="&#x201E;" horiz-adv-x="977" d="M905 162Q905 136 898 113T879 69T854 27T829 -14L659 -303H614L776 -18Q762 -23 746 -26T715 -29Q674 -29 639 -14T579 27T539 88T524 162Q524 201 539 235T579 296T639 337T713 352Q752 352 787 337T848 297T889 237T905 162ZM453 162Q453 136 446 113T427 69T402 27T377 -14L207 -303H162L324 -18Q294 -29 262 -29Q221 -29 187 -14T127 27T87 88T72 162Q72 201 86 235T126 296T186 337T260 352Q299 352 334 337T396 297T437 237T453 162ZM748 317Q742 318 736 320Q731 322 725 323T711 324Q698 324 687 322T668 317V8Q674 5 686 3T711 0Q725 0 731 1T748 6V317ZM295 317Q289 318 283 320Q278 322 272 323T258 324Q246 324 235 322T215 317V8Q221 5 233 3T258 0Q272 0 279 1T295 6V317ZM874 162Q874 186 866 209T845 252T813 286T776 307V10Q785 16 801 27T833 57T862 101T874 162ZM422 162Q422 186 414 209T393 252T361 286T324 307V10Q332 16 348 27T381 58T410 102T422 162Z"  />
<glyph unicode="&#x2020;" horiz-adv-x="1364" d="M840 1118V-49H811V1446H840V1147H1006V1118H840ZM719 -49V1446H748V-49H719ZM524 -49V1118H358V1147H524V1446H655V-49H524Z"  />
<glyph unicode="&#x2021;" horiz-adv-x="1364" d="M840 250V-49H811V1446H840V1147H1006V1118H840V279H1006V250H840ZM719 -49V1446H748V-49H719ZM524 -49V250H358V279H524V1118H358V1147H524V1446H655V-49H524Z"  />
<glyph unicode="&#x2022;" horiz-adv-x="1024" d="M844 717Q844 649 818 589T746 483T641 412T512 385Q444 385 384 411T278 483T207 588T180 717Q180 785 206 845T278 951T383 1022T512 1049Q580 1049 640 1023T746 951T817 846T844 717Z"  />
<glyph unicode="&#x2026;" horiz-adv-x="2048" d="M1888 160Q1888 123 1874 90T1835 33T1778 -6T1708 -20Q1670 -20 1637 -6T1580 32T1541 90T1526 160Q1526 197 1540 229T1579 286T1637 325T1708 340Q1745 340 1777 326T1834 287T1873 230T1888 160ZM1204 160Q1204 123 1190 90T1151 33T1094 -6T1024 -20Q986 -20 953 -6T896 32T857 90T842 160Q842 197 856 229T895 286T953 325T1024 340Q1061 340 1093 326T1150 287T1189 230T1204 160ZM522 160Q522 123 508 90T469 33T412 -6T342 -20Q304 -20 271 -6T214 32T175 90T160 160Q160 197 174 229T213 286T271 325T342 340Q379 340 411 326T468 287T507 230T522 160ZM1862 160Q1862 205 1836 242T1769 297V20Q1775 23 1790 34T1822 63T1850 105T1862 160ZM1743 307Q1737 308 1731 310Q1726 311 1720 312T1708 313Q1696 313 1685 311T1667 307V14Q1672 11 1687 9T1708 6Q1720 6 1727 7T1743 12V307ZM1178 160Q1178 205 1152 242T1085 297V20Q1091 23 1106 34T1138 63T1166 105T1178 160ZM1059 307Q1053 308 1047 310Q1042 311 1036 312T1024 313Q1012 313 1001 311T983 307V14Q988 11 1003 9T1024 6Q1036 6 1043 7T1059 12V307ZM496 160Q496 205 470 242T403 297V20Q409 23 424 34T456 63T484 105T496 160ZM377 307Q371 308 365 310Q360 311 354 312T342 313Q330 313 319 311T301 307V14Q306 11 321 9T342 6Q354 6 361 7T377 12V307Z"  />
<glyph unicode="&#x2030;" horiz-adv-x="2701" d="M168 696Q149 721 130 751T96 820T71 906T61 1012Q61 1069 73 1122T102 1219T137 1291T168 1331V696ZM225 635V1389L254 1409V616L225 635ZM844 1012Q844 926 817 845T740 700T619 598T461 559Q433 559 412 560T373 565T340 573T309 586V1436Q327 1442 341 1447T371 1455T408 1460T461 1462Q550 1462 621 1427T741 1330T817 1187T844 1012ZM688 -123H637L1106 1475H1157L688 -123ZM1964 106Q1945 131 1926 161T1892 230T1868 316T1858 422Q1858 479 1870 532T1898 629T1933 701T1964 741V106ZM1098 106Q1079 131 1060 161T1026 230T1001 316T991 422Q991 479 1003 532T1032 629T1067 701T1098 741V106ZM2021 45V799L2050 819V27L2021 45ZM1155 45V799L1184 819V27L1155 45ZM2640 422Q2640 337 2613 256T2536 111T2415 8T2257 -31Q2229 -31 2208 -30T2169 -25T2136 -17T2105 -4V846Q2123 852 2137 857T2167 865T2204 870T2257 872Q2346 872 2417 837T2537 740T2613 597T2640 422ZM1774 422Q1774 337 1747 256T1670 111T1549 8T1391 -31Q1363 -31 1342 -30T1303 -25T1270 -17T1239 -4V846Q1257 852 1271 857T1301 865T1338 870T1391 872Q1480 872 1551 837T1671 740T1747 597T1774 422ZM815 1012Q815 1103 790 1180T719 1314T607 1402T461 1434Q432 1434 415 1433T384 1430T361 1425T338 1417V604Q356 597 368 594T394 590T422 588T461 588Q540 588 605 623T717 717T789 852T815 1012ZM2611 422Q2611 513 2586 590T2515 724T2403 812T2257 844Q2228 844 2211 843T2180 840T2157 835T2134 827V14Q2152 7 2164 4T2190 0T2218 -2T2257 -2Q2336 -2 2401 33T2513 127T2585 262T2611 422ZM1745 422Q1745 513 1720 590T1649 724T1537 812T1391 844Q1362 844 1345 843T1314 840T1291 835T1268 827V14Q1286 7 1298 4T1324 0T1352 -2T1391 -2Q1470 -2 1535 33T1647 127T1719 262T1745 422Z"  />
<glyph unicode="&#x2039;" horiz-adv-x="451" d="M59 844V877L336 1186V1155L70 860L336 565V535L59 844ZM59 741V770L336 463V432L59 741ZM59 547V668L336 360V229L59 547Z"  />
<glyph unicode="&#x203A;" horiz-adv-x="451" d="M115 1004V1135L391 817V696L115 1004ZM115 901V932L391 623V594L115 901ZM115 178V209L381 504L115 799V829L391 520V487L115 178Z"  />
<glyph unicode="&#x2044;" horiz-adv-x="489" d="M8 -94H-43L377 1475H428L8 -94Z"  />
<glyph unicode="&#x2122;" horiz-adv-x="1442" d="M1130 852V1389H1126L987 852H879L739 1389H735V852H647V1446H807L930 979H934L1055 1446H1219V852H1130ZM428 1360V852H340V1360H190V1446H580V1360H428Z"  />


</font>
</defs>
</svg>
