<?xml  version="1.0" encoding="UTF-8"?>
<!DOCTYPE svg PUBLIC "-//W3C//DTD SVG 1.0//EN" "http://www.w3.org/TR/2001/REC-SVG-20010904/DTD/svg10.dtd" >
<svg xmlns="http://www.w3.org/2000/svg" >
<metadata>
<version>1.0</version>
<id><![CDATA[ITC Luna W01 Regular]]></id>
<vendor>Monotype Imaging Inc.</vendor>
<credits>
<name>Fonts.com WebFonts</name>
<URL>http://webfonts.fonts.com</URL>
<role>Home of the Web fonts</role>
</credits>
<license>
<URL>http://webfonts.fonts.com/Legal</URL>
</license>
<copyright><![CDATA[Part of this font software is copyrighted (c) 2005 - 2006 Linotype GmbH, www.linotype.com. All rights reserved. This font software may not be reproduced, modified, disclosed or transferred without the express written approval of Linotype GmbH.  Copyright 1995-1998 International Typeface Corporation. All rights reserved.]]></copyright>
<trademark><![CDATA[ITC Luna is a trademark of International Typeface Corporation.]]></trademark>
<licensee>
<name></name>
</licensee>
</metadata>
<defs >
<font horiz-adv-x="437" id="ed39b2ed-5d76-4571-a1c4-adb0b1efb955">
<font-face font-family="" panose-1="2 0 4 6 7 0 0 2 0 3" ascent="727" descent="-273" units-per-em="1000" alphabetic="0">
</font-face>
<missing-glyph horiz-adv-x="0" />

<glyph unicode="&#xA;" />
<glyph unicode="&#xD;" horiz-adv-x="0" />
<glyph unicode=" " horiz-adv-x="167" />
<glyph unicode="!" horiz-adv-x="225" d="M131 200H94L79 667H147L131 200ZM163 47Q163 26 148 11T112 -4Q91 -4 76 11T61 47Q61 68 76 83T112 98Q133 98 148 83T163 47Z"  />
<glyph unicode="&quot;" horiz-adv-x="259" d="M84 700V430H50V700H84ZM209 700V430H175V700H209Z"  />
<glyph unicode="#" horiz-adv-x="501" d="M357 444L333 285H446V251H330L291 -1L250 6L288 251H180L139 -1L99 6L139 251H51V285H143L169 444H56V477H173L205 667L246 661L216 477H320L350 667L392 661L364 477H450V444H357ZM210 444L186 285H291L316 444H210Z"  />
<glyph unicode="$" horiz-adv-x="418" d="M362 177Q362 141 351 112T322 62T279 29T226 13V-49H191V11Q139 11 97 32T29 77L58 110Q78 85 109 64T191 42V312Q159 339 135 361T94 405T69 453T60 509Q60 542 71 567T100 611T142 641T191 655V699H226V656Q264 654 294 641T341 609L318 581Q283 626 226 628V368Q252 348 276 328T320 284T350 234T362 177ZM191 627Q152 619 135 589T118 521Q118 475 138 445T191 387V627ZM302 155Q302 202 281 232T226 291V44Q263 52 282 83T302 155Z"  />
<glyph unicode="%" horiz-adv-x="569" d="M296 540Q296 514 287 491T261 451T222 424T172 414Q142 414 118 424T78 451T53 491T44 540Q44 566 53 589T80 629T120 657T172 667Q201 667 224 657T263 630T287 589T296 540ZM97 -13L68 1L467 677L496 663L97 -13ZM525 129Q525 103 516 80T490 39T451 12T401 2Q371 2 347 12T307 39T282 79T273 129Q273 155 282 178T309 218T349 246T401 256Q430 256 453 246T492 219T516 178T525 129ZM263 540Q263 579 240 607T172 636Q128 636 103 608T78 540Q78 501 101 473T172 444Q212 444 237 472T263 540ZM492 129Q492 168 469 196T401 225Q357 225 332 197T307 129Q307 90 330 61T401 32Q421 32 437 40T466 61T485 91T492 129Z"  />
<glyph unicode="&amp;" horiz-adv-x="551" d="M485 300V265Q485 206 474 155T432 66Q418 48 402 34T364 10T317 -5T258 -11Q217 -11 180 0T116 35T72 94T56 177Q56 207 66 236T96 292T146 338T216 368Q190 373 166 385T124 415T95 460T84 522Q84 557 96 586T132 635T187 667T258 679Q304 679 332 670T381 647L366 618Q346 635 322 644T269 653Q212 653 178 615T143 517Q143 457 178 421T270 384H316V356H272Q237 356 209 342T160 305T129 250T118 185Q118 148 129 118T159 66T207 32T268 20Q316 20 348 37T402 83Q428 116 437 159T446 255V283L345 239L333 266L528 349L538 323L485 300Z"  />
<glyph unicode="&apos;" horiz-adv-x="134" d="M84 700V430H50V700H84Z"  />
<glyph unicode="(" horiz-adv-x="222" d="M172 -189Q136 -158 110 -109T65 0T39 123T30 248Q30 308 38 372T65 496T109 604T172 685L189 674Q162 641 143 592T111 485T93 367T87 248Q87 191 93 130T111 11T142 -95T189 -178L172 -189Z"  />
<glyph unicode=")" horiz-adv-x="222" d="M192 248Q192 188 184 124T157 0T113 -108T50 -189L33 -178Q60 -145 79 -96T111 11T130 129T136 248Q136 305 130 366T112 485T80 591T33 674L50 685Q86 654 112 605T157 496T183 373T192 248Z"  />
<glyph unicode="*" horiz-adv-x="278" d="M168 555L207 482L197 475L139 536L81 475L71 482L110 555L36 591L40 604L120 589L132 671H146L158 589L238 604L242 591L168 555Z"  />
<glyph unicode="+" horiz-adv-x="593" d="M312 596V313H589V283H312V0H282V283H4V313H282V596H312Z"  />
<glyph unicode="&#x2c;" horiz-adv-x="168" d="M130 119Q125 98 116 65T96 -3T74 -68T56 -111H20Q24 -99 31 -72T46 -11T60 57T70 119H130H130Z"  />
<glyph unicode="-" horiz-adv-x="292" d="M44 210V246H248V210H44Z"  />
<glyph unicode="." horiz-adv-x="180" d="M143 40Q143 22 130 9T99 -4Q81 -4 68 9T54 40Q54 58 67 71T99 84Q117 84 130 71T143 40Z"  />
<glyph unicode="/" horiz-adv-x="348" d="M31 -172L0 -161L318 688L348 677L31 -172Z"  />
<glyph unicode="0" horiz-adv-x="787" d="M740 333Q740 262 717 199T649 90T543 16T402 -11Q317 -11 252 16T143 89T77 199T54 333Q54 405 79 468T150 578T260 652T402 680Q486 680 549 653T654 578T718 468T740 333ZM698 337Q698 402 678 459T621 558T531 625T412 650Q347 650 295 626T205 559T148 459T127 337Q127 272 147 216T205 116T294 49T412 24Q478 24 530 48T620 116T678 215T698 337Z"  />
<glyph unicode="1" horiz-adv-x="281" d="M117 0V619Q107 611 85 598T39 575L27 600Q64 616 93 635T143 674H179V0H117Z"  />
<glyph unicode="2" horiz-adv-x="428" d="M51 0V16Q85 55 128 111T209 234T273 371T299 509Q299 531 295 556T278 601T245 634T192 648Q153 648 127 626T85 576L59 603Q69 616 83 629T115 653T156 671T209 678Q247 678 276 666T326 632T357 581T368 519Q368 473 355 425T319 329T268 238T211 154T153 83T104 29H377V0H51Z"  />
<glyph unicode="3" horiz-adv-x="432" d="M377 193Q377 137 359 99T310 36T243 2T169 -9Q131 -9 90 2T20 31L36 60Q59 43 90 32T158 20Q226 20 268 63T311 181Q311 269 253 317T99 366L270 639H67V667H355L167 378Q195 377 231 368T300 338T355 281T377 193Z"  />
<glyph unicode="4" horiz-adv-x="458" d="M335 225V0H276V225H26V253Q59 309 97 370T174 487T247 593T307 674H335V253H427V225H335ZM276 585Q257 561 229 521T171 434T112 340T61 253H276V585Z"  />
<glyph unicode="5" horiz-adv-x="424" d="M175 639L136 386Q178 386 219 374T294 339T347 280T367 196Q367 140 349 102T300 38T233 2T159 -9Q121 -9 80 2T10 31L26 60Q49 43 80 32T148 20Q216 20 258 63T301 181Q301 273 242 319T76 366L119 667H368V639H175Z"  />
<glyph unicode="6" horiz-adv-x="524" d="M459 181Q459 140 446 105T409 45T352 5T277 -10Q213 -10 172 14T107 75T74 152T64 229Q64 311 92 384T167 516T274 617T401 679L411 664Q362 644 315 606T230 518T167 409T135 288Q158 313 196 334T287 356Q330 356 362 341T416 302T448 246T459 181ZM410 179Q410 242 378 284T278 327Q231 327 192 303T132 246Q131 241 131 236T131 224Q131 189 139 152T165 85T211 36T278 16Q308 16 332 29T374 65T400 117T410 179Z"  />
<glyph unicode="7" horiz-adv-x="398" d="M138 0H71L305 639H30V667H374L138 0Z"  />
<glyph unicode="8" horiz-adv-x="504" d="M444 162Q444 125 432 94T395 39T335 2T250 -11Q203 -11 168 2T108 38T72 92T60 160Q60 199 73 230T107 284T157 324T217 348Q193 358 169 371T126 403T94 451T81 521Q81 554 93 582T128 632T182 665T250 678Q288 678 320 666T374 632T409 583T422 521Q422 480 410 452T379 404T335 371T287 348Q318 340 346 324T396 285T431 231T444 162ZM382 521Q382 546 374 570T350 614T310 645T253 657Q224 657 203 646T169 615T148 570T141 519Q141 488 151 462T177 415T214 381T257 361Q282 367 305 381T345 416T372 463T382 521ZM380 162Q380 234 342 277T245 337Q184 322 144 278T103 161Q103 132 112 106T140 59T186 26T250 13Q283 13 307 25T347 58T372 106T380 162Z"  />
<glyph unicode="9" horiz-adv-x="511" d="M450 438Q450 356 422 282T346 148T235 45T102 -19L92 -1Q145 20 194 58T283 147T348 255T380 376Q357 351 319 331T228 311Q185 311 153 326T99 365T67 421T56 486Q56 527 69 562T107 622T166 662T241 677Q305 677 345 653T409 592T441 515T450 438ZM382 418Q383 424 383 429T383 441Q383 477 375 515T350 583T306 634T240 654Q210 654 185 641T142 605T114 552T104 490Q104 427 137 385T237 342Q284 342 323 364T382 418Z"  />
<glyph unicode=":" horiz-adv-x="180" d="M143 332Q143 314 130 301T99 288Q81 288 68 301T54 332Q54 350 67 363T99 377Q117 377 130 364T143 332ZM143 52Q143 34 130 21T99 8Q81 8 68 21T54 52Q54 70 67 83T99 97Q117 97 130 84T143 52Z"  />
<glyph unicode=";" horiz-adv-x="173" d="M133 332Q133 314 120 301T89 288Q71 288 58 301T44 332Q44 350 57 363T89 377Q107 377 120 364T133 332ZM126 102Q121 81 112 48T91 -20T69 -85T51 -128H16Q20 -116 27 -89T42 -28T56 40T66 102H126H126Z"  />
<glyph unicode="&lt;" horiz-adv-x="593" d="M53 225V255L540 460V429L87 240L540 53V22L53 225Z"  />
<glyph unicode="=" horiz-adv-x="593" d="M53 318V347H540V318H53ZM53 135V163H540V135H53Z"  />
<glyph unicode="&gt;" horiz-adv-x="593" d="M53 22V53L505 240L53 429V460L540 255V225L53 22Z"  />
<glyph unicode="?" horiz-adv-x="293" d="M277 529Q277 491 265 461T234 410T188 375T133 355V199H98V372Q151 385 182 421T213 526Q213 544 209 566T193 608T160 641T106 655Q95 655 81 652T53 641L46 670Q59 675 77 677T112 679Q160 679 191 665T242 629T269 581T277 529ZM171 47Q171 26 156 11T120 -4Q99 -4 84 11T69 47Q69 68 84 83T120 98Q141 98 156 83T171 47Z"  />
<glyph unicode="@" horiz-adv-x="796" d="M746 391Q746 356 737 314T707 234T653 173T571 148Q519 148 495 170T471 223V227Q450 194 418 173T350 151Q320 151 301 163T270 193T253 233T248 272Q248 325 263 372T304 454T367 509T448 530Q470 530 490 521T518 499L528 525H579L526 269Q524 257 522 247T520 226Q520 203 531 191T571 178Q604 178 629 195T671 242T698 308T707 387Q707 435 691 482T639 566T549 627T418 650Q352 650 300 626T210 559T153 456T133 325Q133 251 155 194T217 99T308 40T420 20Q445 20 475 24T535 36T593 59T644 93L661 60Q614 25 547 7T405 -11Q343 -11 282 8T171 67T92 167T61 310Q61 386 85 453T155 570T265 650T408 679Q491 679 554 657T660 595T724 504T746 391ZM510 475Q505 490 487 497T448 505Q415 505 390 484T349 431T324 361T315 288Q315 273 317 256T325 223T345 197T380 187Q404 187 427 208T467 265L510 475H510Z"  />
<glyph unicode="A" horiz-adv-x="568" d="M485 0L392 260H153L63 0H13L277 686H302L555 0H485ZM272 597L166 293H381L272 597Z"  />
<glyph unicode="B" horiz-adv-x="470" d="M427 181Q427 132 411 97T365 38T295 4T208 -7Q182 -7 146 -3T83 7V659Q95 662 111 665T144 670T179 673T211 675Q243 675 279 669T345 646T394 598T414 518Q414 480 399 452T358 403T302 371T240 357Q273 354 306 343T366 310T410 256T427 181ZM349 518Q349 580 310 616T202 653Q191 653 176 651T147 643V367H189Q263 367 306 406T349 518ZM361 183Q361 220 347 249T308 299T251 330T183 341H147V31Q165 25 180 23T209 20Q289 20 325 64T361 183Z"  />
<glyph unicode="C" horiz-adv-x="667" d="M637 60Q598 30 537 10T398 -11Q309 -11 245 16T138 91T75 200T54 333Q54 405 79 468T149 578T256 652T394 679Q470 679 528 662T626 616L599 574Q585 590 565 604T519 628T465 644T406 650Q343 650 292 626T204 559T148 459T128 337Q128 272 148 215T204 114T293 45T409 19Q444 19 475 26T533 45T580 71T615 101L637 60H637Z"  />
<glyph unicode="D" horiz-adv-x="717" d="M663 336Q663 262 638 199T564 91T446 19T287 -7Q229 -7 179 -2T83 12V656Q133 664 186 669T291 675Q391 675 461 649T577 577T642 469T663 336ZM589 332Q589 396 571 454T515 555T420 624T285 650Q252 650 213 646T149 636V37Q179 28 214 24T279 20Q364 20 423 44T519 111T572 210T589 332Z"  />
<glyph unicode="E" horiz-adv-x="366" d="M83 0V667H316V638H147V370H301V341H147V29H333V0H83Z"  />
<glyph unicode="F" horiz-adv-x="335" d="M147 638V367H301V338H147V0H83V667H316V638H147Z"  />
<glyph unicode="G" horiz-adv-x="725" d="M647 70Q600 32 536 11T394 -11Q311 -11 248 16T142 89T76 199T54 333Q54 405 79 468T149 578T256 652T394 679Q470 679 528 662T626 616L599 574Q585 590 565 604T519 628T465 644T406 650Q343 650 292 626T204 559T148 459T128 337Q128 272 147 215T203 114T290 45T406 19Q464 19 511 36T581 77V335H647V70H647Z"  />
<glyph unicode="H" horiz-adv-x="518" d="M371 0V338H147V0H83V667H147V367H371V667H435V0H371Z"  />
<glyph unicode="I" horiz-adv-x="230" d="M83 0V667H147V0H83Z"  />
<glyph unicode="J" horiz-adv-x="232" d="M149 57Q149 4 139 -41T111 -123T71 -185T24 -226L9 -213Q48 -176 67 -120T86 29V667H149V57H149Z"  />
<glyph unicode="K" horiz-adv-x="470" d="M490 -66Q478 -71 465 -73T440 -76Q396 -76 372 -60T336 -18T322 35T320 88V169Q320 203 315 234T297 289T259 327T198 341H147V0H83V667H147V367H175L394 667H470L231 365Q273 365 302 350T350 310T376 254T384 189V93Q384 63 385 36T393 -10T412 -41T446 -53Q465 -53 480 -40L490 -66H490Z"  />
<glyph unicode="L" horiz-adv-x="350" d="M83 0V667H147V29H333V0H83Z"  />
<glyph unicode="M" horiz-adv-x="777" d="M675 0L575 566L379 0H355L177 559L77 0H28L168 678H202L382 108L575 678H609L744 0H675Z"  />
<glyph unicode="N" horiz-adv-x="520" d="M419 -23L121 545V0H83V599L50 667H126L400 143V667H437V-23H419Z"  />
<glyph unicode="O" horiz-adv-x="787" d="M740 333Q740 262 717 199T649 90T543 16T402 -11Q317 -11 252 16T143 89T77 199T54 333Q54 405 79 468T150 578T260 652T402 680Q486 680 549 653T654 578T718 468T740 333ZM698 337Q698 402 678 459T621 558T531 625T412 650Q347 650 295 626T206 559T148 459T128 337Q128 272 148 216T205 116T295 49T412 24Q478 24 530 48T620 116T678 215T698 337Z"  />
<glyph unicode="P" horiz-adv-x="471" d="M435 482Q435 394 373 344T196 290L190 313Q284 318 325 362T367 491Q367 524 358 553T330 603T282 636T211 649Q195 649 178 647T147 640V0H83V659Q95 662 111 665T146 670T182 673T216 675Q249 675 287 668T358 641T413 582T435 482Z"  />
<glyph unicode="Q" horiz-adv-x="787" d="M974 -145Q963 -161 944 -179T900 -212T844 -237T780 -247Q744 -247 713 -240T651 -220T590 -186T525 -138Q498 -116 475 -98T428 -67T381 -47T327 -40Q297 -40 273 -47T231 -65T198 -91T172 -119L146 -80Q176 -51 220 -30T318 0Q253 12 204 42T121 117T71 216T54 333Q54 405 79 468T150 578T260 652T402 680Q486 680 549 653T654 578T718 468T740 333Q740 262 716 201T646 93T538 19T398 -8Q445 -16 491 -45T587 -110Q632 -142 681 -165T792 -189Q845 -189 887 -172T958 -125L974 -145H974ZM698 337Q698 402 678 459T621 558T531 625T412 650Q347 650 295 626T206 559T148 459T128 337Q128 272 148 216T205 116T295 49T412 24Q478 24 530 48T620 116T678 215T698 337Z"  />
<glyph unicode="R" horiz-adv-x="471" d="M490 -66Q478 -71 465 -73T440 -76Q396 -76 372 -60T336 -18T322 35T320 88V170Q320 207 314 238T294 292T257 328T198 341H147V0H83V659Q106 665 142 670T211 675Q243 675 279 669T345 646T394 598T414 518Q414 480 399 452T360 403T306 372T245 357Q310 351 347 308T384 183V93Q384 63 385 36T393 -10T412 -41T446 -53Q465 -53 480 -40L490 -66H490ZM349 516Q349 581 310 615T205 650Q193 650 177 649T147 643V367H189Q263 367 306 405T349 516Z"  />
<glyph unicode="S" horiz-adv-x="401" d="M365 160Q365 118 352 87T315 34T263 2T200 -11H191Q130 -11 88 11T22 59L52 93Q73 65 106 43T185 20H190Q218 21 239 31T274 59T295 97T302 141V146Q301 172 294 192T272 232T234 273T177 324Q147 350 126 372T89 417T67 464T58 515V523Q58 559 71 587T105 635T155 666T213 678H223Q267 678 296 668T348 641L326 605Q309 625 282 638T226 651H223Q195 650 176 640T144 613T126 578T120 538V533Q121 492 145 454T227 367Q252 346 276 325T320 280T351 229T365 168V160Z"  />
<glyph unicode="T" horiz-adv-x="370" d="M215 636V0H151V636H0V667H370V636H215Z"  />
<glyph unicode="U" horiz-adv-x="515" d="M368 0V52Q345 29 310 11T222 -8Q157 -8 119 27T81 135V667H145V153Q145 131 148 108T161 67T192 36T247 24Q285 24 316 41T368 82V667H431V0H368Z"  />
<glyph unicode="V" horiz-adv-x="568" d="M293 -19H266L13 667H86L296 76L505 667H555L293 -19Z"  />
<glyph unicode="W" horiz-adv-x="824" d="M615 -13H587L418 394L248 -13H220L27 667H97L257 91L398 428L295 667H364L438 477L510 667H552L460 449L610 91L750 667H803L615 -13Z"  />
<glyph unicode="X" horiz-adv-x="474" d="M390 0L229 311L69 0H17L209 339L31 667H104L249 386L388 667H440L270 359L464 0H390Z"  />
<glyph unicode="Y" horiz-adv-x="438" d="M253 327V0H192V328L10 667H84L236 361L380 667H430L253 327Z"  />
<glyph unicode="Z" horiz-adv-x="374" d="M88 31H348V0H11L279 638H59V667H355L88 31Z"  />
<glyph unicode="[" horiz-adv-x="222" d="M52 -197V679H182V655H103V-172H182V-197H52Z"  />
<glyph unicode="\" horiz-adv-x="348" d="M318 -172L1 677L31 688L349 -161L318 -172Z"  />
<glyph unicode="]" horiz-adv-x="222" d="M40 -197V-172H119V655H40V679H170V-197H40Z"  />
<glyph unicode="^" horiz-adv-x="593" d="M445 303L296 681L147 303H115L279 712H313L477 303H445Z"  />
<glyph unicode="_" horiz-adv-x="500" d="M500 -206V-236H0V-206H500Z"  />
<glyph unicode="`" horiz-adv-x="500" d="M271 455L162 545L197 577L287 470L271 455Z"  />
<glyph unicode="a" horiz-adv-x="360" d="M241 0V22Q206 -3 148 -3Q131 -3 112 1T76 16Q59 27 46 47T33 96Q33 129 46 150T80 185Q100 198 123 202T165 206Q185 206 206 202T242 193V253Q242 312 222 349T149 386Q121 386 97 371T59 331L33 352Q40 361 51 371T78 390T115 404T166 410Q184 410 207 405T250 385T285 341T300 266V0H241ZM241 171Q213 185 181 185Q166 185 151 181T124 166T104 140T96 101Q96 79 103 64T122 40T148 27T176 23Q193 23 211 28T241 43V171Z"  />
<glyph unicode="b" horiz-adv-x="472" d="M430 205Q430 162 416 124T375 57T310 11T223 -6Q197 -6 173 0T128 16V0H68V778H128V371Q149 388 178 398T243 409Q291 409 326 393T385 348T419 282T430 205ZM364 200Q364 234 355 266T328 324T281 365T215 380Q192 380 167 371T128 346V41Q159 19 215 19Q251 19 279 33T325 72T354 130T364 200Z"  />
<glyph unicode="c" horiz-adv-x="402" d="M388 37Q364 16 329 4T250 -9Q198 -9 159 8T94 55T55 121T42 200Q42 243 56 281T96 348T162 393T251 410Q295 410 325 401T379 377L361 347Q347 361 320 373T263 385Q222 385 193 370T145 330T118 273T109 205Q109 170 118 137T147 77T196 35T267 19Q297 19 325 32T371 62L388 37H388Z"  />
<glyph unicode="d" horiz-adv-x="472" d="M345 0V31Q324 14 294 4T229 -7Q181 -7 146 10T87 55T53 120T42 198Q42 241 56 279T97 346T162 391T249 408Q275 408 299 403T345 387V778H405V0H345ZM345 361Q330 372 308 378T258 384Q222 384 194 370T148 330T119 272T109 202Q109 167 118 135T145 78T192 37T258 22Q281 22 306 32T345 57V361Z"  />
<glyph unicode="e" horiz-adv-x="409" d="M381 37Q358 19 324 5T243 -9Q188 -9 150 8T87 54T53 119T42 193Q42 226 52 264T84 334T142 388T231 410Q275 410 303 397T347 363T370 319T378 277H116Q111 257 109 238T107 202Q107 176 113 144T137 85T184 38T259 19Q294 19 321 33T365 63L381 37H381ZM320 299Q319 312 315 328T301 357T274 379T231 388Q205 388 186 379T154 355T132 326T121 299H320H320Z"  />
<glyph unicode="f" horiz-adv-x="230" d="M322 734Q292 764 245 764Q213 764 192 750T157 711T137 653T131 579V400H247V372H131V0H71V372H33V400H71V555Q71 605 78 647T105 721T158 769T245 787Q275 787 300 781T339 766L322 734Z"  />
<glyph unicode="g" horiz-adv-x="398" d="M457 -148Q457 -199 436 -234T380 -291T299 -323T206 -333Q166 -333 124 -326T48 -302T-9 -256T-31 -185Q-31 -151 -18 -126T16 -82T61 -52T109 -34Q86 -23 69 -2T52 52Q52 87 76 117T146 160Q114 171 90 199T66 275Q66 299 74 322T100 365T143 396T206 408Q233 408 254 402T290 384L391 441L406 406L309 367Q323 354 332 332T342 285Q342 250 331 225T301 183T257 158T202 150Q185 150 168 148T139 139Q125 131 114 117T102 81Q102 49 128 29T222 2Q265 -3 302 -8T368 -23Q385 -29 401 -39T429 -64T449 -101T457 -148ZM313 281Q313 300 307 318T289 351T259 375T217 384Q174 384 150 352T126 272Q126 254 131 237T148 206T177 184T218 175Q258 175 285 203T313 281ZM402 -169Q402 -138 384 -114T330 -77Q297 -65 246 -57T140 -43Q118 -47 97 -57T60 -83T33 -121T23 -172Q23 -210 40 -236T85 -278T145 -300T208 -307Q244 -307 279 -300T341 -277T385 -234T402 -169Z"  />
<glyph unicode="h" horiz-adv-x="410" d="M287 0V267Q287 287 285 307T274 344T251 370T208 380Q187 380 166 371T128 344V0H68V778H128V366Q148 386 177 397T233 408Q288 408 317 379T347 288V0H287Z"  />
<glyph unicode="i" horiz-adv-x="196" d="M139 583Q139 566 127 554T98 541Q81 541 69 553T57 583Q57 600 69 612T98 624Q115 624 127 612T139 583ZM69 0V400H129V0H69Z"  />
<glyph unicode="j" horiz-adv-x="205" d="M146 583Q146 566 134 554T104 541Q87 541 75 553T63 583Q63 600 75 612T104 624Q121 624 133 612T146 583ZM135 -52Q135 -105 125 -150T97 -232T59 -294T14 -335L0 -322Q38 -285 56 -229T74 -80V400H135V-52H135Z"  />
<glyph unicode="k" horiz-adv-x="370" d="M399 -64Q389 -69 377 -72T355 -76Q315 -76 293 -61T259 -22T246 28T243 80V96Q243 123 238 145T220 183T185 209T127 218V0H68V778H127V222L298 400H350L167 232Q198 230 223 224T266 202T293 164T303 106V77Q303 47 304 23T312 -18T329 -44T359 -53Q378 -53 390 -41L399 -64H399Z"  />
<glyph unicode="l" horiz-adv-x="213" d="M226 16Q218 8 200 3T161 -3Q132 -3 114 6T85 33T70 75T66 130V778H128V138Q128 111 129 90T134 53T148 29T175 20Q188 20 198 25T216 37L226 16H226Z"  />
<glyph unicode="m" horiz-adv-x="625" d="M501 0V267Q501 287 499 307T488 344T465 370T422 380Q401 380 379 369T340 336V0H280V267Q280 287 279 307T271 344T250 370T208 380Q187 380 166 371T128 344V0H68V400H128V366Q148 386 177 397T233 408Q275 408 298 394T331 355Q354 382 386 395T448 408Q503 408 532 379T561 288V0H501Z"  />
<glyph unicode="n" horiz-adv-x="410" d="M287 0V267Q287 287 285 307T274 344T251 370T208 380Q187 380 166 371T128 344V0H68V400H128V366Q148 386 177 397T233 408Q288 408 317 379T347 288V0H287Z"  />
<glyph unicode="o" horiz-adv-x="504" d="M465 199Q465 155 450 117T408 51T342 7T256 -10Q205 -10 165 6T98 51T56 117T42 199Q42 242 57 280T101 347T169 391T256 408Q307 408 346 392T411 347T451 281T465 199ZM434 201Q434 238 423 271T390 329T339 368T272 382Q235 382 205 368T154 329T121 271T109 201Q109 163 120 131T153 73T205 34T272 20Q309 20 339 34T390 73T422 130T434 201Z"  />
<glyph unicode="p" horiz-adv-x="472" d="M430 205Q430 162 416 124T375 57T310 11T223 -6Q197 -6 173 0T128 16V-333H68V400H128V371Q149 388 178 398T243 409Q291 409 326 393T385 348T419 282T430 205ZM364 200Q364 234 355 266T328 324T281 365T215 380Q192 380 167 371T128 346V41Q159 19 215 19Q251 19 279 33T325 72T354 130T364 200Z"  />
<glyph unicode="q" horiz-adv-x="472" d="M345 -333V29Q324 12 294 2T229 -9Q181 -9 146 8T87 54T53 120T42 198Q42 241 56 279T97 346T162 391T249 408Q275 408 299 403T345 387V400H405V-333H345ZM345 361Q330 372 308 378T258 384Q222 384 194 370T148 330T119 272T109 202Q109 167 118 135T145 78T192 37T258 22Q281 22 306 32T345 57V361Z"  />
<glyph unicode="r" horiz-adv-x="238" d="M236 359Q229 361 222 362T205 364Q184 364 161 352T128 322V0H68V400H128V342Q141 366 169 387T236 408V359H236Z"  />
<glyph unicode="s" horiz-adv-x="293" d="M261 101Q261 69 250 48T221 14T181 -4T138 -10Q103 -10 71 3T17 38L39 67Q56 47 81 32T141 17Q153 17 164 20T185 30T201 51T207 83Q207 117 185 140T122 193Q84 222 67 247T49 305Q49 333 59 353T86 385T124 403T165 409Q195 409 218 402T257 382L238 354Q226 368 207 377T165 386Q141 386 121 371T101 323Q101 312 103 303T113 283T132 260T163 233Q203 202 232 172T261 101Z"  />
<glyph unicode="t" horiz-adv-x="231" d="M229 16Q221 8 204 3T165 -3Q110 -3 90 26T70 113V372H33V400H70V524H128V400H229V372H128V138Q128 111 129 90T135 53T150 29T178 20Q191 20 201 25T219 37L229 16H229Z"  />
<glyph unicode="u" horiz-adv-x="410" d="M282 0V34Q262 14 233 3T177 -8Q122 -8 93 21T63 112V400H123V133Q123 113 125 93T136 56T159 30T202 20Q223 20 244 30T282 57V400H342V0H282Z"  />
<glyph unicode="v" horiz-adv-x="344" d="M178 -11H160L16 400H81L183 78L289 400H330L178 -11Z"  />
<glyph unicode="w" horiz-adv-x="538" d="M381 -11H360L269 220L172 -11H151L16 400H79L180 71L251 247L187 400H247L289 290L329 400H364L306 266L382 74L485 400H525L381 -11Z"  />
<glyph unicode="x" horiz-adv-x="354" d="M271 0L169 176L66 0H16L149 199L23 400H90L186 235L282 400H327L205 211L338 0H271Z"  />
<glyph unicode="y" horiz-adv-x="342" d="M212 27Q186 -57 167 -118T131 -223T95 -292T50 -333L9 -293Q32 -281 54 -261T97 -206T136 -121T172 0L16 400H82L199 74L288 400H329L212 27Z"  />
<glyph unicode="z" horiz-adv-x="333" d="M19 0L232 372H49V400H312L100 28H315V0H19Z"  />
<glyph unicode="{" horiz-adv-x="250" d="M145 -197Q125 -197 112 -192T92 -176T83 -152T80 -122V161Q80 206 69 220T28 236V256Q58 256 69 270T80 329V605Q80 621 82 634T92 658T112 673T145 679H210V655H161Q147 655 139 649T131 628V323Q131 285 117 268T69 246Q102 240 116 223T131 167V-146Q131 -161 139 -167T161 -173H210V-197H145Z"  />
<glyph unicode="|" horiz-adv-x="222" d="M96 -214V786H126V-214H96Z"  />
<glyph unicode="}" horiz-adv-x="250" d="M222 236Q192 235 181 221T170 161V-122Q170 -138 168 -152T158 -176T139 -191T106 -197H40V-173H89Q103 -173 111 -167T119 -146V167Q119 205 133 222T181 246Q148 251 134 268T119 323V628Q119 643 111 649T89 655H40V679H106Q126 679 138 674T158 658T167 635T170 605V329Q170 284 181 270T222 256V236H222Z"  />
<glyph unicode="~" horiz-adv-x="593" d="M552 300Q547 279 538 259T514 224T480 199T437 189Q405 189 368 201T294 227T220 253T155 265Q120 265 97 240T65 182H40Q45 204 54 224T76 260T108 284T152 293Q156 293 165 292T193 287T239 275T308 251Q319 247 335 241T370 230T405 221T436 217Q472 217 495 242T528 300H552H552Z"  />
<glyph unicode="&#xA0;" horiz-adv-x="167" />
<glyph unicode="&#xA1;" horiz-adv-x="225" d="M163 371Q163 350 148 335T112 320Q91 320 76 335T61 371Q61 392 76 407T112 422Q133 422 148 407T163 371ZM78 -249L93 218H130L146 -249H78Z"  />
<glyph unicode="&#xA2;" horiz-adv-x="452" d="M401 176Q379 159 354 146T291 130V57H257V129Q209 130 172 147T109 192T70 258T56 338Q56 380 69 417T108 483T171 528T257 547V613H291V546Q323 544 347 535T392 515L375 485Q361 499 339 510T291 524V157Q320 159 344 171T385 199L401 176H401ZM257 524Q222 521 197 505T155 464T130 408T122 342Q122 307 130 276T156 220T198 179T257 158V524Z"  />
<glyph unicode="&#xA3;" horiz-adv-x="421" d="M32 0V18Q76 42 91 103T107 262V335H69V364H108V446Q108 496 115 538T141 612T194 662T283 680Q309 680 335 673T375 657L358 625Q343 639 324 647T275 655Q244 655 224 640T191 600T173 541T168 470V364H311V335H168V296Q168 196 144 129T80 29H375V0H32Z"  />
<glyph unicode="&#xA4;" horiz-adv-x="593" d="M495 139L431 203Q402 179 368 166T296 152Q257 152 224 165T161 203L98 139L78 159L141 223Q90 283 90 357Q90 397 103 429T141 493L77 556L97 576L161 512Q191 536 224 549T296 563Q335 563 368 550T431 512L494 576L514 556L451 493Q475 463 488 429T501 357Q501 319 488 285T451 222L514 158L495 139ZM472 357Q472 394 459 426T421 482T365 519T296 533Q260 533 228 519T172 481T134 425T120 357Q120 321 134 289T172 233T228 196T296 182Q332 182 364 195T420 233T458 289T472 357Z"  />
<glyph unicode="&#xA5;" horiz-adv-x="438" d="M255 328H378V300H251V226H378V198H251V0H195V198H71V226H195V300H71V328H192L10 667H84L236 361L380 667H430L255 328Z"  />
<glyph unicode="&#xA6;" horiz-adv-x="222" d="M96 411V661H126V411H96ZM96 -89V161H126V-89H96Z"  />
<glyph unicode="&#xA7;" horiz-adv-x="416" d="M368 209Q368 180 360 157T338 117T308 87T278 67Q287 59 296 48T314 22T329 -11T336 -51V-59Q336 -95 324 -123T291 -171T243 -201T186 -213H175Q124 -213 89 -199T32 -167L53 -132Q71 -148 101 -165T173 -182H178Q202 -181 220 -172T252 -149T271 -117T278 -79V-75Q277 -52 271 -34T251 1T216 37T164 82Q137 105 117 125T83 166T63 206T55 251V257Q55 284 63 306T85 345T115 373T146 392Q118 415 97 447T74 527V533Q74 563 84 589T112 635T155 667T213 680H222Q263 680 291 669T338 642L316 613Q300 631 277 642T226 653H223Q197 652 180 643T152 621T136 590T131 557V552Q133 516 154 480T229 400Q258 377 283 356T326 312T356 267T368 215V209ZM312 193Q310 240 274 281T167 375Q141 361 127 335T112 274V267Q114 220 153 177T258 84Q280 94 296 120T312 187V193H312Z"  />
<glyph unicode="&#xA8;" horiz-adv-x="500" d="M344 506Q344 492 335 483T311 473Q297 473 287 482T277 506Q277 520 287 529T311 538Q325 538 334 529T344 506ZM225 506Q225 492 215 483T191 473Q177 473 168 482T158 506Q158 520 167 529T191 538Q205 538 215 529T225 506Z"  />
<glyph unicode="&#xA9;" horiz-adv-x="778" d="M755 353Q755 277 726 211T648 95T532 16T389 -13Q313 -13 247 16T131 94T52 210T23 353Q23 429 52 495T130 611T246 690T389 719Q465 719 531 690T647 612T726 496T755 353ZM731 353Q731 424 704 486T631 594T522 668T389 695Q318 695 256 668T148 595T74 486T47 353Q47 282 74 220T147 112T256 38T389 11Q460 11 522 38T630 111T704 220T731 353ZM563 271Q558 241 543 218T506 178T457 153T401 144Q356 144 320 161T258 207T219 275T205 357Q205 399 218 437T255 504T314 550T393 568Q423 568 452 559T504 531T541 488T559 430H533Q523 482 486 512T395 543Q357 543 327 528T277 487T245 428T234 359Q234 322 245 288T277 227T330 184T401 168Q450 168 487 195T537 271H563H563Z"  />
<glyph unicode="&#xAA;" horiz-adv-x="370" d="M243 380V402Q229 391 209 385T166 378Q154 378 137 381T105 392T79 415T68 451Q68 477 79 493T106 520T142 533T177 537Q194 537 212 534T245 525V561Q245 604 228 630T165 657Q142 657 122 648T90 618L69 640Q78 653 103 666T173 679Q188 679 208 677T248 663T281 629T295 568V380H243ZM53 293V325H307V293H53ZM243 505Q231 511 216 514T188 517Q160 517 141 503T121 457Q121 428 141 415T186 401Q200 401 216 406T243 420V505Z"  />
<glyph unicode="&#xAB;" horiz-adv-x="333" d="M275 113L169 227L275 340L291 331L227 228L291 122L275 113ZM148 113L42 227L148 340L165 331L100 228L165 122L148 113Z"  />
<glyph unicode="&#xAC;" horiz-adv-x="593" d="M511 135V318H53V347H540V135H511Z"  />
<glyph unicode="&#xAD;" horiz-adv-x="292" d="M44 210V246H248V210H44Z"  />
<glyph unicode="&#xAE;" horiz-adv-x="389" d="M378 540Q378 502 364 469T324 410T266 371T194 356Q156 356 123 370T65 410T26 468T11 540Q11 578 25 611T64 669T122 708T194 723Q232 723 265 709T324 670T363 612T378 540ZM358 540Q358 574 345 604T310 656T258 691T194 704Q160 704 131 691T79 656T44 604T31 540Q31 506 44 476T79 424T130 388T194 375Q228 375 257 388T309 423T345 476T358 540ZM257 442Q251 453 252 467T250 495T235 517T191 526H147V442H127V640H197Q211 640 225 638T250 629T269 612T276 583Q276 566 267 554T241 535Q259 527 265 515T272 489T273 463T280 442H257ZM255 584Q255 597 250 604T237 615T218 620T198 621H147V545H197Q207 545 217 546T236 552T249 563T255 584Z"  />
<glyph unicode="&#xAF;" horiz-adv-x="500" d="M148 479V524H354V479H148Z"  />
<glyph unicode="&#xB0;" horiz-adv-x="400" d="M339 573Q339 544 328 519T299 475T255 445T200 434Q171 434 146 445T102 474T72 518T61 573Q61 602 72 627T101 671T145 701T200 712Q229 712 254 701T298 672T328 628T339 573ZM311 573Q311 596 302 616T278 651T243 675T200 684Q177 684 157 675T121 651T97 616T88 573Q88 550 97 530T121 494T156 470T200 461Q223 461 243 470T279 494T302 529T311 573Z"  />
<glyph unicode="&#xB1;" horiz-adv-x="593" d="M311 265V73H281V265H53V292H281V484H311V292H540V265H311ZM53 -2V25H540V-2H53Z"  />
<glyph unicode="&#xB2;" horiz-adv-x="269" d="M28 174V184Q58 200 85 220T134 262T168 308T181 359Q181 386 166 408T111 430Q85 430 68 417T40 386L23 401Q37 416 60 431T122 447Q173 447 198 423T224 364Q224 335 210 310T173 264T125 224T74 191H238V174H28Z"  />
<glyph unicode="&#xB3;" horiz-adv-x="265" d="M241 150Q241 117 229 94T197 56T153 36T104 29Q79 29 52 35T6 53L16 70Q32 59 52 53T97 46Q142 46 170 72T198 143Q198 196 160 224T58 253L166 418H36V434H221L103 261Q122 261 146 255T191 237T226 203T241 150Z"  />
<glyph unicode="&#xB4;" horiz-adv-x="500" d="M229 455L213 470L303 577L338 545L229 455Z"  />
<glyph unicode="&#xB5;" horiz-adv-x="549" d="M434 0V104Q409 50 365 20T260 -11Q204 -11 169 12T107 83V-205H77V461H107V232Q107 205 107 177T115 122Q130 74 169 46T259 17Q288 17 315 27T365 54T404 96T427 149Q432 169 433 190T434 231V461H463V0H434Z"  />
<glyph unicode="&#xB6;" horiz-adv-x="459" d="M400 646Q388 651 377 653T355 655V0H315V78Q249 79 201 102T121 166T74 260T59 375Q59 438 75 493T126 589T212 655T336 679Q356 679 375 678T405 675L400 646ZM315 654Q295 651 279 628T251 569T233 484T226 381Q226 328 232 280T249 194T277 132T315 104V654Z"  />
<glyph unicode="&#xB7;" horiz-adv-x="180" d="M143 372Q143 354 130 341T99 328Q81 328 68 341T54 372Q54 390 67 403T99 416Q117 416 130 403T143 372Z"  />
<glyph unicode="&#xB8;" horiz-adv-x="500" d="M317 -92Q317 -108 309 -118T288 -135T259 -145T225 -148V-127Q245 -127 259 -120T273 -90Q273 -73 263 -67T239 -60H233L241 0H263L257 -44Q265 -44 275 -46T295 -54T310 -68T317 -92Z"  />
<glyph unicode="&#xB9;" horiz-adv-x="178" d="M75 174V415Q68 410 54 402T23 388L15 403Q65 423 92 448H112V174H75Z"  />
<glyph unicode="&#xBA;" horiz-adv-x="408" d="M359 530Q359 499 349 472T319 424T272 392T210 380Q173 380 145 392T98 424T68 471T58 530Q58 561 69 588T100 635T149 667T210 679Q246 679 274 667T321 635T349 588T359 530ZM72 293V325H342V293H72ZM332 532Q332 557 324 580T302 619T268 646T222 656Q196 656 176 646T141 620T119 580T111 532Q111 506 119 484T141 444T175 418T222 408Q273 408 302 444T332 532Z"  />
<glyph unicode="&#xBB;" horiz-adv-x="333" d="M186 113L169 122L233 228L169 331L186 340L291 227L186 113ZM59 113L42 122L107 228L42 331L59 340L165 227L59 113Z"  />
<glyph unicode="&#xBC;" horiz-adv-x="574" d="M71 191V416Q65 411 51 404T22 391L14 405Q61 423 87 446H107V191H71ZM172 -10L143 4L461 688L489 674L172 -10ZM492 4V-130H455V4H297V20Q318 51 342 85T391 151T437 210T475 255H492V20H551V4H492ZM455 206Q443 192 426 170T390 121T353 69T320 20H455V206Z"  />
<glyph unicode="&#xBD;" horiz-adv-x="542" d="M71 191V416Q65 411 51 404T22 391L14 405Q61 423 87 446H107V191H71ZM132 -10L103 4L421 688L449 674L132 -10ZM312 0V10Q340 25 366 43T413 82T446 125T458 172Q458 185 455 197T443 218T423 233T391 239Q366 239 350 227T323 198L307 212Q320 226 342 240T401 255Q449 255 473 233T498 177Q498 150 485 127T450 84T404 46T355 16H512V0H312Z"  />
<glyph unicode="&#xBE;" horiz-adv-x="656" d="M231 169Q231 138 219 116T189 81T147 61T100 55Q77 55 50 61T6 78L16 94Q31 84 50 78T93 72Q136 72 163 96T190 162Q190 211 154 238T56 265L159 418H35V434H212L99 272Q117 272 140 267T183 249T217 218T231 169ZM275 -10L246 4L564 688L592 674L275 -10ZM575 4V-130H538V4H380V20Q401 51 425 85T474 151T520 210T558 255H575V20H634V4H575ZM538 206Q526 192 509 170T473 121T436 69T403 20H538V206Z"  />
<glyph unicode="&#xBF;" horiz-adv-x="293" d="M225 371Q225 350 210 335T173 320Q152 320 137 335T122 371Q122 392 137 407T173 422Q194 422 209 407T225 371ZM248 -252Q235 -257 217 -259T181 -261Q133 -261 102 -247T52 -211T25 -163T17 -111Q17 -73 28 -43T60 8T105 43T160 63V219H196V46Q143 33 112 -3T80 -108Q80 -126 84 -148T101 -190T134 -223T188 -237Q199 -237 212 -234T240 -223L248 -252H248Z"  />
<glyph unicode="&#xC0;" horiz-adv-x="568" d="M485 0L392 260H153L63 0H13L277 686H302L555 0H485ZM272 597L166 293H381L272 597ZM311 727L202 817L237 849L327 742L311 727Z"  />
<glyph unicode="&#xC1;" horiz-adv-x="568" d="M485 0L392 260H153L63 0H13L277 686H302L555 0H485ZM272 597L166 293H381L272 597ZM269 727L253 742L343 849L378 817L269 727Z"  />
<glyph unicode="&#xC2;" horiz-adv-x="568" d="M485 0L392 260H153L63 0H13L277 686H302L555 0H485ZM272 597L166 293H381L272 597ZM380 727L291 782L202 727L189 744L291 836L393 744L380 727Z"  />
<glyph unicode="&#xC3;" horiz-adv-x="568" d="M485 0L392 260H153L63 0H13L277 686H302L555 0H485ZM272 597L166 293H381L272 597ZM408 785Q400 764 384 749T345 734Q325 734 311 740T281 758Q252 780 230 780Q216 780 208 773T193 750L177 762Q185 783 200 799T239 815Q257 815 271 810T302 790Q331 767 354 767Q368 767 376 774T391 797L408 785H408Z"  />
<glyph unicode="&#xC4;" horiz-adv-x="568" d="M485 0L392 260H153L63 0H13L277 686H302L555 0H485ZM272 597L166 293H381L272 597ZM384 778Q384 764 375 755T351 745Q337 745 327 754T317 778Q317 792 327 801T351 810Q365 810 374 801T384 778ZM265 778Q265 764 255 755T231 745Q217 745 208 754T198 778Q198 792 207 801T231 810Q245 810 255 801T265 778Z"  />
<glyph unicode="&#xC5;" horiz-adv-x="568" d="M485 0L392 260H153L63 0H13L277 686H302L555 0H485ZM272 597L166 293H381L272 597ZM358 798Q358 769 338 749T288 729Q259 729 239 749T218 798Q218 827 238 847T288 868Q317 868 337 848T358 798ZM336 798Q336 820 321 833T288 846Q266 846 253 831T240 798Q240 775 255 763T288 750Q310 750 323 765T336 798Z"  />
<glyph unicode="&#xC6;" horiz-adv-x="654" d="M411 0L342 321H177L63 0H13L269 667H599V638H330L396 350H586V321H404L468 29H621V0H411ZM278 609L187 350H335L278 609Z"  />
<glyph unicode="&#xC7;" horiz-adv-x="667" d="M637 60Q599 31 540 10T403 -11H387L382 -42Q390 -42 400 -44T420 -52T435 -66T442 -90Q442 -106 434 -116T414 -133T385 -143T351 -146V-125Q371 -125 385 -118T399 -88Q399 -71 389 -65T365 -58H359L365 -10Q285 -5 227 24T130 100T73 207T54 333Q54 405 79 468T149 578T256 652T394 679Q470 679 528 662T626 616L599 574Q585 590 565 604T519 628T465 644T406 650Q343 650 292 626T204 559T148 459T128 337Q128 272 148 215T204 114T293 45T409 19Q444 19 475 26T533 45T580 71T615 101L637 60H637Z"  />
<glyph unicode="&#xC8;" horiz-adv-x="366" d="M83 0V667H316V638H147V370H301V341H147V29H333V0H83ZM223 727L114 817L149 849L239 742L223 727Z"  />
<glyph unicode="&#xC9;" horiz-adv-x="366" d="M83 0V667H316V638H147V370H301V341H147V29H333V0H83ZM181 727L165 742L255 849L290 817L181 727Z"  />
<glyph unicode="&#xCA;" horiz-adv-x="366" d="M83 0V667H316V638H147V370H301V341H147V29H333V0H83ZM292 727L203 782L114 727L101 744L203 836L305 744L292 727Z"  />
<glyph unicode="&#xCB;" horiz-adv-x="366" d="M83 0V667H316V638H147V370H301V341H147V29H333V0H83ZM296 778Q296 764 287 755T263 745Q249 745 239 754T229 778Q229 792 239 801T263 810Q277 810 286 801T296 778ZM177 778Q177 764 167 755T143 745Q129 745 120 754T110 778Q110 792 119 801T143 810Q157 810 167 801T177 778Z"  />
<glyph unicode="&#xCC;" horiz-adv-x="230" d="M83 0V667H147V0H83ZM136 727L27 817L62 849L152 742L136 727Z"  />
<glyph unicode="&#xCD;" horiz-adv-x="230" d="M83 0V667H147V0H83ZM94 727L78 742L168 849L203 817L94 727Z"  />
<glyph unicode="&#xCE;" horiz-adv-x="230" d="M83 0V667H147V0H83ZM205 727L116 782L27 727L14 744L116 836L218 744L205 727Z"  />
<glyph unicode="&#xCF;" horiz-adv-x="230" d="M83 0V667H147V0H83ZM209 778Q209 764 200 755T176 745Q162 745 152 754T142 778Q142 792 152 801T176 810Q190 810 199 801T209 778ZM90 778Q90 764 80 755T56 745Q42 745 33 754T23 778Q23 792 32 801T56 810Q70 810 80 801T90 778Z"  />
<glyph unicode="&#xD0;" horiz-adv-x="717" d="M663 336Q663 262 638 199T564 91T446 19T287 -7Q229 -7 179 -2T83 12V337H32V366H83V656Q133 664 186 669T291 675Q391 675 461 649T577 577T642 469T663 336ZM589 332Q589 396 571 454T515 555T420 624T285 650Q252 650 213 646T149 636V366H312V337H149V37Q179 28 214 24T279 20Q364 20 423 44T519 111T572 210T589 332Z"  />
<glyph unicode="&#xD1;" horiz-adv-x="520" d="M419 -23L121 545V0H83V599L50 667H126L400 143V667H437V-23H419ZM376 785Q368 764 352 749T313 734Q293 734 279 740T249 758Q220 780 198 780Q184 780 176 773T161 750L145 762Q153 783 168 799T207 815Q225 815 239 810T270 790Q299 767 322 767Q336 767 344 774T359 797L376 785H376Z"  />
<glyph unicode="&#xD2;" horiz-adv-x="787" d="M740 333Q740 262 717 199T649 90T543 16T402 -11Q317 -11 252 16T143 89T77 199T54 333Q54 405 79 468T150 578T260 652T402 680Q486 680 549 653T654 578T718 468T740 333ZM698 337Q698 402 678 459T621 558T531 625T412 650Q347 650 295 626T206 559T148 459T128 337Q128 272 148 216T205 116T295 49T412 24Q478 24 530 48T620 116T678 215T698 337ZM422 727L313 817L348 849L438 742L422 727Z"  />
<glyph unicode="&#xD3;" horiz-adv-x="787" d="M740 333Q740 262 717 199T649 90T543 16T402 -11Q317 -11 252 16T143 89T77 199T54 333Q54 405 79 468T150 578T260 652T402 680Q486 680 549 653T654 578T718 468T740 333ZM698 337Q698 402 678 459T621 558T531 625T412 650Q347 650 295 626T206 559T148 459T128 337Q128 272 148 216T205 116T295 49T412 24Q478 24 530 48T620 116T678 215T698 337ZM380 727L364 742L454 849L489 817L380 727Z"  />
<glyph unicode="&#xD4;" horiz-adv-x="787" d="M740 333Q740 262 717 199T649 90T543 16T402 -11Q317 -11 252 16T143 89T77 199T54 333Q54 405 79 468T150 578T260 652T402 680Q486 680 549 653T654 578T718 468T740 333ZM698 337Q698 402 678 459T621 558T531 625T412 650Q347 650 295 626T206 559T148 459T128 337Q128 272 148 216T205 116T295 49T412 24Q478 24 530 48T620 116T678 215T698 337ZM491 727L402 782L313 727L300 744L402 836L504 744L491 727Z"  />
<glyph unicode="&#xD5;" horiz-adv-x="787" d="M740 333Q740 262 717 199T649 90T543 16T402 -11Q317 -11 252 16T143 89T77 199T54 333Q54 405 79 468T150 578T260 652T402 680Q486 680 549 653T654 578T718 468T740 333ZM698 337Q698 402 678 459T621 558T531 625T412 650Q347 650 295 626T206 559T148 459T128 337Q128 272 148 216T205 116T295 49T412 24Q478 24 530 48T620 116T678 215T698 337ZM519 785Q511 764 495 749T456 734Q436 734 422 740T392 758Q363 780 341 780Q327 780 319 773T304 750L288 762Q296 783 311 799T350 815Q368 815 382 810T413 790Q442 767 465 767Q479 767 487 774T502 797L519 785H519Z"  />
<glyph unicode="&#xD6;" horiz-adv-x="787" d="M740 333Q740 262 717 199T649 90T543 16T402 -11Q317 -11 252 16T143 89T77 199T54 333Q54 405 79 468T150 578T260 652T402 680Q486 680 549 653T654 578T718 468T740 333ZM698 337Q698 402 678 459T621 558T531 625T412 650Q347 650 295 626T206 559T148 459T128 337Q128 272 148 216T205 116T295 49T412 24Q478 24 530 48T620 116T678 215T698 337ZM495 778Q495 764 486 755T462 745Q448 745 438 754T428 778Q428 792 438 801T462 810Q476 810 485 801T495 778ZM376 778Q376 764 366 755T342 745Q328 745 319 754T309 778Q309 792 318 801T342 810Q356 810 366 801T376 778Z"  />
<glyph unicode="&#xD7;" horiz-adv-x="593" d="M502 15L297 220L91 15L70 36L276 241L70 446L91 467L297 262L502 467L523 446L317 241L523 36L502 15Z"  />
<glyph unicode="&#xD8;" horiz-adv-x="787" d="M740 333Q740 262 717 199T649 90T543 16T402 -11Q331 -11 275 8T175 62L111 -11L87 10L150 83Q102 131 78 194T54 333Q54 405 79 468T150 578T260 652T402 679Q467 679 519 663T611 617L664 677L688 656L637 597Q688 549 714 482T740 333ZM698 337Q698 406 676 465T611 568L213 108Q250 69 300 47T412 24Q478 24 530 48T620 116T678 215T698 337ZM588 590Q553 619 509 634T412 650Q347 650 295 626T206 559T148 459T128 337Q128 278 144 226T192 131L588 590H588Z"  />
<glyph unicode="&#xD9;" horiz-adv-x="515" d="M368 0V52Q345 29 310 11T222 -8Q157 -8 119 27T81 135V667H145V153Q145 131 148 108T161 67T192 36T247 24Q285 24 316 41T368 82V667H431V0H368ZM277 727L168 817L203 849L293 742L277 727Z"  />
<glyph unicode="&#xDA;" horiz-adv-x="515" d="M368 0V52Q345 29 310 11T222 -8Q157 -8 119 27T81 135V667H145V153Q145 131 148 108T161 67T192 36T247 24Q285 24 316 41T368 82V667H431V0H368ZM235 727L219 742L309 849L344 817L235 727Z"  />
<glyph unicode="&#xDB;" horiz-adv-x="515" d="M368 0V52Q345 29 310 11T222 -8Q157 -8 119 27T81 135V667H145V153Q145 131 148 108T161 67T192 36T247 24Q285 24 316 41T368 82V667H431V0H368ZM346 727L257 782L168 727L155 744L257 836L359 744L346 727Z"  />
<glyph unicode="&#xDC;" horiz-adv-x="515" d="M368 0V52Q345 29 310 11T222 -8Q157 -8 119 27T81 135V667H145V153Q145 131 148 108T161 67T192 36T247 24Q285 24 316 41T368 82V667H431V0H368ZM350 778Q350 764 341 755T317 745Q303 745 293 754T283 778Q283 792 293 801T317 810Q331 810 340 801T350 778ZM231 778Q231 764 221 755T197 745Q183 745 174 754T164 778Q164 792 173 801T197 810Q211 810 221 801T231 778Z"  />
<glyph unicode="&#xDD;" horiz-adv-x="438" d="M253 327V0H192V328L10 667H84L236 361L380 667H430L253 327ZM209 727L193 742L283 849L318 817L209 727Z"  />
<glyph unicode="&#xDE;" horiz-adv-x="471" d="M435 355Q435 267 373 216T196 162L190 186Q284 191 325 235T367 364Q367 397 358 425T330 475T282 509T211 521Q195 521 178 519T147 512V0H83V667H147V539Q163 542 180 544T216 547Q249 547 287 541T358 514T413 455T435 355Z"  />
<glyph unicode="&#xDF;" horiz-adv-x="428" d="M418 127Q418 100 410 76T384 33T341 3T281 -9Q253 -9 229 -2T185 17L199 47Q213 37 233 28T281 19Q319 19 340 46T361 111Q361 179 279 252Q240 287 221 316T201 385Q201 422 219 450T262 504Q293 536 311 573T330 647Q330 668 325 689T309 726T280 753T237 764Q207 764 187 749T155 708T138 649T132 579V0H71V372H33V400H71V555Q71 598 77 639T102 714T155 767T245 787Q278 787 304 777T348 748T375 706T384 655Q384 607 359 572T301 507Q272 483 260 461T247 410Q247 393 251 379T264 352T286 325T318 295Q335 280 352 262T384 222T408 177T418 127Z"  />
<glyph unicode="&#xE0;" horiz-adv-x="360" d="M241 0V22Q206 -3 148 -3Q131 -3 112 1T76 16Q59 27 46 47T33 96Q33 129 46 150T80 185Q100 198 123 202T165 206Q185 206 206 202T242 193V253Q242 312 222 349T149 386Q121 386 97 371T59 331L33 352Q40 361 51 371T78 390T115 404T166 410Q184 410 207 405T250 385T285 341T300 266V0H241ZM241 171Q213 185 181 185Q166 185 151 181T124 166T104 140T96 101Q96 79 103 64T122 40T148 27T176 23Q193 23 211 28T241 43V171ZM184 455L75 545L110 577L200 470L184 455Z"  />
<glyph unicode="&#xE1;" horiz-adv-x="360" d="M241 0V22Q206 -3 148 -3Q131 -3 112 1T76 16Q59 27 46 47T33 96Q33 129 46 150T80 185Q100 198 123 202T165 206Q185 206 206 202T242 193V253Q242 312 222 349T149 386Q121 386 97 371T59 331L33 352Q40 361 51 371T78 390T115 404T166 410Q184 410 207 405T250 385T285 341T300 266V0H241ZM241 171Q213 185 181 185Q166 185 151 181T124 166T104 140T96 101Q96 79 103 64T122 40T148 27T176 23Q193 23 211 28T241 43V171ZM142 455L126 470L216 577L251 545L142 455Z"  />
<glyph unicode="&#xE2;" horiz-adv-x="360" d="M241 0V22Q206 -3 148 -3Q131 -3 112 1T76 16Q59 27 46 47T33 96Q33 129 46 150T80 185Q100 198 123 202T165 206Q185 206 206 202T242 193V253Q242 312 222 349T149 386Q121 386 97 371T59 331L33 352Q40 361 51 371T78 390T115 404T166 410Q184 410 207 405T250 385T285 341T300 266V0H241ZM241 171Q213 185 181 185Q166 185 151 181T124 166T104 140T96 101Q96 79 103 64T122 40T148 27T176 23Q193 23 211 28T241 43V171ZM253 455L164 510L75 455L62 472L164 564L266 472L253 455Z"  />
<glyph unicode="&#xE3;" horiz-adv-x="360" d="M241 0V22Q206 -3 148 -3Q131 -3 112 1T76 16Q59 27 46 47T33 96Q33 129 46 150T80 185Q100 198 123 202T165 206Q185 206 206 202T242 193V253Q242 312 222 349T149 386Q121 386 97 371T59 331L33 352Q40 361 51 371T78 390T115 404T166 410Q184 410 207 405T250 385T285 341T300 266V0H241ZM241 171Q213 185 181 185Q166 185 151 181T124 166T104 140T96 101Q96 79 103 64T122 40T148 27T176 23Q193 23 211 28T241 43V171ZM281 513Q273 492 257 477T218 462Q198 462 184 468T154 486Q125 508 103 508Q89 508 81 501T66 478L50 490Q58 511 73 527T112 543Q130 543 144 538T175 518Q204 495 227 495Q241 495 249 502T264 525L281 513H281Z"  />
<glyph unicode="&#xE4;" horiz-adv-x="360" d="M241 0V22Q206 -3 148 -3Q131 -3 112 1T76 16Q59 27 46 47T33 96Q33 129 46 150T80 185Q100 198 123 202T165 206Q185 206 206 202T242 193V253Q242 312 222 349T149 386Q121 386 97 371T59 331L33 352Q40 361 51 371T78 390T115 404T166 410Q184 410 207 405T250 385T285 341T300 266V0H241ZM241 171Q213 185 181 185Q166 185 151 181T124 166T104 140T96 101Q96 79 103 64T122 40T148 27T176 23Q193 23 211 28T241 43V171ZM257 506Q257 492 248 483T224 473Q210 473 200 482T190 506Q190 520 200 529T224 538Q238 538 247 529T257 506ZM138 506Q138 492 128 483T104 473Q90 473 81 482T71 506Q71 520 80 529T104 538Q118 538 128 529T138 506Z"  />
<glyph unicode="&#xE5;" horiz-adv-x="360" d="M241 0V22Q206 -3 148 -3Q131 -3 112 1T76 16Q59 27 46 47T33 96Q33 129 46 150T80 185Q100 198 123 202T165 206Q185 206 206 202T242 193V253Q242 312 222 349T149 386Q121 386 97 371T59 331L33 352Q40 361 51 371T78 390T115 404T166 410Q184 410 207 405T250 385T285 341T300 266V0H241ZM241 171Q213 185 181 185Q166 185 151 181T124 166T104 140T96 101Q96 79 103 64T122 40T148 27T176 23Q193 23 211 28T241 43V171ZM245 525Q245 496 225 476T175 456Q146 456 126 476T105 525Q105 554 125 574T175 595Q204 595 224 575T245 525ZM223 525Q223 547 208 560T175 573Q153 573 140 558T127 525Q127 502 142 490T175 477Q197 477 210 492T223 525Z"  />
<glyph unicode="&#xE6;" horiz-adv-x="600" d="M573 37Q550 19 516 5T435 -9Q383 -9 346 7T285 53Q276 44 264 34T236 16T198 2T150 -4Q134 -4 114 0T76 16Q59 27 46 47T33 96Q33 129 46 150T80 185Q100 198 123 202T165 206Q185 206 206 202T242 193V253Q242 312 222 349T149 386Q121 386 97 371T59 331L33 352Q40 361 51 371T78 390T115 404T166 410Q183 410 201 407T235 395T264 372T285 335Q306 367 338 388T422 410Q466 410 494 397T538 363T561 319T569 277H307Q302 257 300 238T298 202Q298 176 304 144T328 85T375 38T450 19Q485 19 512 33T556 63L573 37H573ZM511 299Q510 312 506 328T492 357T465 379T422 388Q396 388 377 379T345 355T323 326T312 299H511H511ZM270 72Q257 90 250 118T243 170Q229 178 213 181T181 185Q166 185 151 181T124 166T104 140T96 101Q96 79 103 65T122 41T148 28T176 24Q211 24 234 40T270 72Z"  />
<glyph unicode="&#xE7;" horiz-adv-x="402" d="M388 37Q364 16 329 4T250 -9H240L235 -42Q243 -42 253 -44T273 -52T288 -66T295 -90Q295 -106 287 -116T266 -133T237 -143T203 -146V-125Q223 -125 237 -118T251 -88Q251 -71 241 -65T217 -58H211L218 -7Q174 -2 141 17T86 64T53 127T42 200Q42 243 56 281T96 348T162 393T251 410Q295 410 325 401T379 377L361 347Q347 361 320 373T263 385Q222 385 193 370T145 330T118 273T109 205Q109 170 118 137T147 77T196 35T267 19Q297 19 325 32T371 62L388 37H388Z"  />
<glyph unicode="&#xE8;" horiz-adv-x="409" d="M381 37Q358 19 324 5T243 -9Q188 -9 150 8T87 54T53 119T42 193Q42 226 52 264T84 334T142 388T231 410Q275 410 303 397T347 363T370 319T378 277H116Q111 257 109 238T107 202Q107 176 113 144T137 85T184 38T259 19Q294 19 321 33T365 63L381 37H381ZM320 299Q319 312 315 328T301 357T274 379T231 388Q205 388 186 379T154 355T132 326T121 299H320H320ZM245 455L136 545L171 577L261 470L245 455Z"  />
<glyph unicode="&#xE9;" horiz-adv-x="409" d="M381 37Q358 19 324 5T243 -9Q188 -9 150 8T87 54T53 119T42 193Q42 226 52 264T84 334T142 388T231 410Q275 410 303 397T347 363T370 319T378 277H116Q111 257 109 238T107 202Q107 176 113 144T137 85T184 38T259 19Q294 19 321 33T365 63L381 37H381ZM320 299Q319 312 315 328T301 357T274 379T231 388Q205 388 186 379T154 355T132 326T121 299H320H320ZM203 455L187 470L277 577L312 545L203 455Z"  />
<glyph unicode="&#xEA;" horiz-adv-x="409" d="M381 37Q358 19 324 5T243 -9Q188 -9 150 8T87 54T53 119T42 193Q42 226 52 264T84 334T142 388T231 410Q275 410 303 397T347 363T370 319T378 277H116Q111 257 109 238T107 202Q107 176 113 144T137 85T184 38T259 19Q294 19 321 33T365 63L381 37H381ZM320 299Q319 312 315 328T301 357T274 379T231 388Q205 388 186 379T154 355T132 326T121 299H320H320ZM314 455L225 510L136 455L123 472L225 564L327 472L314 455Z"  />
<glyph unicode="&#xEB;" horiz-adv-x="409" d="M381 37Q358 19 324 5T243 -9Q188 -9 150 8T87 54T53 119T42 193Q42 226 52 264T84 334T142 388T231 410Q275 410 303 397T347 363T370 319T378 277H116Q111 257 109 238T107 202Q107 176 113 144T137 85T184 38T259 19Q294 19 321 33T365 63L381 37H381ZM320 299Q319 312 315 328T301 357T274 379T231 388Q205 388 186 379T154 355T132 326T121 299H320H320ZM318 506Q318 492 309 483T285 473Q271 473 261 482T251 506Q251 520 261 529T285 538Q299 538 308 529T318 506ZM199 506Q199 492 189 483T165 473Q151 473 142 482T132 506Q132 520 141 529T165 538Q179 538 189 529T199 506Z"  />
<glyph unicode="&#xEC;" horiz-adv-x="196" d="M69 0V400H129V0H69ZM119 455L10 545L45 577L135 470L119 455Z"  />
<glyph unicode="&#xED;" horiz-adv-x="196" d="M69 0V400H129V0H69ZM77 455L61 470L151 577L186 545L77 455Z"  />
<glyph unicode="&#xEE;" horiz-adv-x="196" d="M69 0V400H129V0H69ZM188 455L99 510L10 455L-3 472L99 564L201 472L188 455Z"  />
<glyph unicode="&#xEF;" horiz-adv-x="196" d="M69 0V400H129V0H69ZM192 506Q192 492 183 483T159 473Q145 473 135 482T125 506Q125 520 135 529T159 538Q173 538 182 529T192 506ZM73 506Q73 492 63 483T39 473Q25 473 16 482T6 506Q6 520 15 529T39 538Q53 538 63 529T73 506Z"  />
<glyph unicode="&#xF0;" horiz-adv-x="530" d="M491 228Q491 184 480 142T442 66T370 11T258 -10H256Q205 -10 165 6T98 51T56 117T42 199Q42 242 57 280T101 347T169 391T256 408Q315 408 353 389T414 342Q400 409 366 481T282 617L170 537L152 560L263 639Q228 678 190 709T109 761L122 778Q168 761 212 732T298 664L355 705L372 680L319 643Q357 603 388 555T443 454T478 344T491 228ZM434 201Q434 238 423 271T390 329T339 368T272 382Q235 382 205 368T154 329T121 271T109 201Q109 163 120 131T153 73T205 34T272 20Q309 20 339 34T390 73T422 130T434 201Z"  />
<glyph unicode="&#xF1;" horiz-adv-x="410" d="M287 0V267Q287 287 285 307T274 344T251 370T208 380Q187 380 166 371T128 344V0H68V400H128V366Q148 386 177 397T233 408Q288 408 317 379T347 288V0H287ZM323 513Q315 492 299 477T260 462Q240 462 226 468T196 486Q167 508 145 508Q131 508 123 501T108 478L92 490Q100 511 115 527T154 543Q172 543 186 538T217 518Q246 495 269 495Q283 495 291 502T306 525L323 513H323Z"  />
<glyph unicode="&#xF2;" horiz-adv-x="504" d="M465 199Q465 155 450 117T408 51T342 7T256 -10Q205 -10 165 6T98 51T56 117T42 199Q42 242 57 280T101 347T169 391T256 408Q307 408 346 392T411 347T451 281T465 199ZM434 201Q434 238 423 271T390 329T339 368T272 382Q235 382 205 368T154 329T121 271T109 201Q109 163 120 131T153 73T205 34T272 20Q309 20 339 34T390 73T422 130T434 201ZM271 455L162 545L197 577L287 470L271 455Z"  />
<glyph unicode="&#xF3;" horiz-adv-x="504" d="M465 199Q465 155 450 117T408 51T342 7T256 -10Q205 -10 165 6T98 51T56 117T42 199Q42 242 57 280T101 347T169 391T256 408Q307 408 346 392T411 347T451 281T465 199ZM434 201Q434 238 423 271T390 329T339 368T272 382Q235 382 205 368T154 329T121 271T109 201Q109 163 120 131T153 73T205 34T272 20Q309 20 339 34T390 73T422 130T434 201ZM229 455L213 470L303 577L338 545L229 455Z"  />
<glyph unicode="&#xF4;" horiz-adv-x="504" d="M465 199Q465 155 450 117T408 51T342 7T256 -10Q205 -10 165 6T98 51T56 117T42 199Q42 242 57 280T101 347T169 391T256 408Q307 408 346 392T411 347T451 281T465 199ZM434 201Q434 238 423 271T390 329T339 368T272 382Q235 382 205 368T154 329T121 271T109 201Q109 163 120 131T153 73T205 34T272 20Q309 20 339 34T390 73T422 130T434 201ZM340 455L251 510L162 455L149 472L251 564L353 472L340 455Z"  />
<glyph unicode="&#xF5;" horiz-adv-x="504" d="M465 199Q465 155 450 117T408 51T342 7T256 -10Q205 -10 165 6T98 51T56 117T42 199Q42 242 57 280T101 347T169 391T256 408Q307 408 346 392T411 347T451 281T465 199ZM434 201Q434 238 423 271T390 329T339 368T272 382Q235 382 205 368T154 329T121 271T109 201Q109 163 120 131T153 73T205 34T272 20Q309 20 339 34T390 73T422 130T434 201ZM368 513Q360 492 344 477T305 462Q285 462 271 468T241 486Q212 508 190 508Q176 508 168 501T153 478L137 490Q145 511 160 527T199 543Q217 543 231 538T262 518Q291 495 314 495Q328 495 336 502T351 525L368 513H368Z"  />
<glyph unicode="&#xF6;" horiz-adv-x="504" d="M465 199Q465 155 450 117T408 51T342 7T256 -10Q205 -10 165 6T98 51T56 117T42 199Q42 242 57 280T101 347T169 391T256 408Q307 408 346 392T411 347T451 281T465 199ZM434 201Q434 238 423 271T390 329T339 368T272 382Q235 382 205 368T154 329T121 271T109 201Q109 163 120 131T153 73T205 34T272 20Q309 20 339 34T390 73T422 130T434 201ZM344 506Q344 492 335 483T311 473Q297 473 287 482T277 506Q277 520 287 529T311 538Q325 538 334 529T344 506ZM225 506Q225 492 215 483T191 473Q177 473 168 482T158 506Q158 520 167 529T191 538Q205 538 215 529T225 506Z"  />
<glyph unicode="&#xF7;" horiz-adv-x="593" d="M329 414Q329 400 320 391T296 381Q282 381 273 390T263 414Q263 428 272 437T296 447Q310 447 319 438T329 414ZM53 227V255H540V227H53ZM329 68Q329 54 320 45T296 35Q282 35 273 44T263 68Q263 82 272 91T296 101Q310 101 319 92T329 68Z"  />
<glyph unicode="&#xF8;" horiz-adv-x="504" d="M465 199Q465 155 450 117T408 51T342 7T256 -10Q174 -10 122 30L80 -16L59 6L100 49Q71 79 57 117T42 199Q42 242 57 280T101 347T169 391T256 408Q336 408 391 365L430 406L452 386L414 344Q440 316 452 279T465 199ZM374 346Q330 382 272 382Q235 382 205 368T154 329T121 271T109 201Q109 171 116 142T140 92L374 346H374ZM434 201Q434 236 425 267T395 323L158 68Q179 45 207 33T272 20Q309 20 339 34T390 73T422 130T434 201Z"  />
<glyph unicode="&#xF9;" horiz-adv-x="410" d="M282 0V34Q262 14 233 3T177 -8Q122 -8 93 21T63 112V400H123V133Q123 113 125 93T136 56T159 30T202 20Q223 20 244 30T282 57V400H342V0H282ZM226 455L117 545L152 577L242 470L226 455Z"  />
<glyph unicode="&#xFA;" horiz-adv-x="410" d="M282 0V34Q262 14 233 3T177 -8Q122 -8 93 21T63 112V400H123V133Q123 113 125 93T136 56T159 30T202 20Q223 20 244 30T282 57V400H342V0H282ZM184 455L168 470L258 577L293 545L184 455Z"  />
<glyph unicode="&#xFB;" horiz-adv-x="410" d="M282 0V34Q262 14 233 3T177 -8Q122 -8 93 21T63 112V400H123V133Q123 113 125 93T136 56T159 30T202 20Q223 20 244 30T282 57V400H342V0H282ZM295 455L206 510L117 455L104 472L206 564L308 472L295 455Z"  />
<glyph unicode="&#xFC;" horiz-adv-x="410" d="M282 0V34Q262 14 233 3T177 -8Q122 -8 93 21T63 112V400H123V133Q123 113 125 93T136 56T159 30T202 20Q223 20 244 30T282 57V400H342V0H282ZM299 506Q299 492 290 483T266 473Q252 473 242 482T232 506Q232 520 242 529T266 538Q280 538 289 529T299 506ZM180 506Q180 492 170 483T146 473Q132 473 123 482T113 506Q113 520 122 529T146 538Q160 538 170 529T180 506Z"  />
<glyph unicode="&#xFD;" horiz-adv-x="342" d="M212 27Q186 -57 167 -118T131 -223T95 -292T50 -333L9 -293Q32 -281 54 -261T97 -206T136 -121T172 0L16 400H82L199 74L288 400H329L212 27ZM158 455L142 470L232 577L267 545L158 455Z"  />
<glyph unicode="&#xFE;" horiz-adv-x="472" d="M430 205Q430 162 416 124T375 57T310 11T223 -6Q197 -6 173 0T128 16V-333H68V778H128V371Q149 388 178 398T243 409Q291 409 326 393T385 348T419 282T430 205ZM364 200Q364 234 355 266T328 324T281 365T215 380Q192 380 167 371T128 346V41Q159 19 215 19Q251 19 279 33T325 72T354 130T364 200Z"  />
<glyph unicode="&#xFF;" horiz-adv-x="342" d="M212 27Q186 -57 167 -118T131 -223T95 -292T50 -333L9 -293Q32 -281 54 -261T97 -206T136 -121T172 0L16 400H82L199 74L288 400H329L212 27ZM273 506Q273 492 264 483T240 473Q226 473 216 482T206 506Q206 520 216 529T240 538Q254 538 263 529T273 506ZM154 506Q154 492 144 483T120 473Q106 473 97 482T87 506Q87 520 96 529T120 538Q134 538 144 529T154 506Z"  />
<glyph unicode="&#x131;" horiz-adv-x="196" d="M69 0V400H129V0H69Z"  />
<glyph unicode="&#x152;" horiz-adv-x="966" d="M688 0V157Q669 121 642 90T580 37T500 2T402 -11Q317 -11 252 16T143 89T77 199T54 333Q54 405 79 468T150 578T260 652T402 680Q461 680 507 666T588 629T647 576T688 517V667H916V638H747V370H902V341H747V29H934V0H688ZM695 337Q695 402 676 459T619 558T530 625T412 650Q347 650 295 626T206 559T148 459T128 337Q128 272 148 216T205 116T295 49T412 24Q478 24 530 48T619 116T675 215T695 337Z"  />
<glyph unicode="&#x153;" horiz-adv-x="787" d="M759 37Q736 19 702 5T621 -9Q582 -9 552 1T498 26T460 62T438 104Q417 53 370 22T256 -10Q205 -10 165 6T98 51T56 117T42 199Q42 242 57 280T101 347T169 391T256 408Q295 408 325 399T378 373T417 336T444 293Q453 314 466 335T499 372T546 399T609 410Q653 410 681 397T725 363T748 319T756 277H494Q489 257 487 238T485 202Q485 176 491 144T515 85T562 38T637 19Q672 19 699 33T743 63L759 37H759ZM698 299Q697 312 693 328T679 357T652 379T609 388Q583 388 564 379T532 355T510 326T499 299H698H698ZM434 201Q434 238 423 271T390 329T339 368T272 382Q235 382 205 368T154 329T121 271T109 201Q109 163 120 131T153 73T205 34T272 20Q309 20 339 34T390 73T422 130T434 201Z"  />
<glyph unicode="&#x160;" horiz-adv-x="401" d="M365 160Q365 118 352 87T315 34T263 2T200 -11H191Q130 -11 88 11T22 59L52 93Q73 65 106 43T185 20H190Q218 21 239 31T274 59T295 97T302 141V146Q301 172 294 192T272 232T234 273T177 324Q147 350 126 372T89 417T67 464T58 515V523Q58 559 71 587T105 635T155 666T213 678H223Q267 678 296 668T348 641L326 605Q309 625 282 638T226 651H223Q195 650 176 640T144 613T126 578T120 538V533Q121 492 145 454T227 367Q252 346 276 325T320 280T351 229T365 168V160ZM220 727L118 819L131 836L220 780L309 836L322 819L220 727Z"  />
<glyph unicode="&#x161;" horiz-adv-x="293" d="M261 101Q261 69 250 48T221 14T181 -4T138 -10Q103 -10 71 3T17 38L39 67Q56 47 81 32T141 17Q153 17 164 20T185 30T201 51T207 83Q207 117 185 140T122 193Q84 222 67 247T49 305Q49 333 59 353T86 385T124 403T165 409Q195 409 218 402T257 382L238 354Q226 368 207 377T165 386Q141 386 121 371T101 323Q101 312 103 303T113 283T132 260T163 233Q203 202 232 172T261 101ZM159 455L57 547L70 564L159 508L248 564L261 547L159 455Z"  />
<glyph unicode="&#x178;" horiz-adv-x="438" d="M253 327V0H192V328L10 667H84L236 361L380 667H430L253 327ZM324 778Q324 764 315 755T291 745Q277 745 267 754T257 778Q257 792 267 801T291 810Q305 810 314 801T324 778ZM205 778Q205 764 195 755T171 745Q157 745 148 754T138 778Q138 792 147 801T171 810Q185 810 195 801T205 778Z"  />
<glyph unicode="&#x17D;" horiz-adv-x="374" d="M88 31H348V0H11L279 638H59V667H355L88 31ZM205 727L103 819L116 836L205 780L294 836L307 819L205 727Z"  />
<glyph unicode="&#x17E;" horiz-adv-x="333" d="M19 0L232 372H49V400H312L100 28H315V0H19ZM179 455L77 547L90 564L179 508L268 564L281 547L179 455Z"  />
<glyph unicode="&#x192;" horiz-adv-x="425" d="M408 633Q397 642 380 648T342 655Q319 655 304 642T278 604T261 547T250 474L242 400H344V372H240L208 42Q203 -8 195 -49T172 -119T132 -164T71 -181Q54 -181 34 -178T0 -168L13 -137Q23 -146 36 -152T64 -158Q99 -158 117 -122T143 -3L180 372H108V400H181L187 451Q192 500 201 542T227 614T272 661T342 678Q367 678 388 674T419 665L408 633Z"  />
<glyph unicode="&#x2C6;" horiz-adv-x="500" d="M340 455L251 510L162 455L149 472L251 564L353 472L340 455Z"  />
<glyph unicode="&#x2C7;" horiz-adv-x="500" d="M251 455L149 547L162 564L251 508L340 564L353 547L251 455Z"  />
<glyph unicode="&#x2DA;" horiz-adv-x="500" d="M321 525Q321 496 301 476T251 456Q222 456 202 476T181 525Q181 554 201 574T251 595Q280 595 300 575T321 525ZM299 525Q299 547 284 560T251 573Q229 573 216 558T203 525Q203 502 218 490T251 477Q273 477 286 492T299 525Z"  />
<glyph unicode="&#x2DC;" horiz-adv-x="500" d="M368 513Q360 492 344 477T305 462Q285 462 271 468T241 486Q212 508 190 508Q176 508 168 501T153 478L137 490Q145 511 160 527T199 543Q217 543 231 538T262 518Q291 495 314 495Q328 495 336 502T351 525L368 513H368Z"  />
<glyph unicode="&#x2013;" horiz-adv-x="431" d="M44 210V246H398V210H44Z"  />
<glyph unicode="&#x2014;" horiz-adv-x="587" d="M44 210V246H542V210H44Z"  />
<glyph unicode="&#x2018;" horiz-adv-x="150" d="M126 715Q121 703 114 676T99 615T85 547T76 485H18Q22 506 31 539T51 607T74 671T92 715H126H126Z"  />
<glyph unicode="&#x2019;" horiz-adv-x="150" d="M132 715Q128 694 119 661T99 593T76 528T58 485H24Q28 497 36 524T51 585T65 653T74 715H132H132Z"  />
<glyph unicode="&#x201A;" horiz-adv-x="150" d="M130 102Q126 81 117 48T97 -20T74 -85T56 -128H22Q26 -116 34 -89T49 -28T63 40T72 102H130H130Z"  />
<glyph unicode="&#x201C;" horiz-adv-x="268" d="M243 715Q238 703 231 676T216 615T202 547T193 485H136Q140 506 149 539T169 607T192 671T210 715H243H243ZM135 715Q129 701 120 673T102 611T86 543T76 485H18Q22 505 31 537T53 604T78 669T101 715H135H135Z"  />
<glyph unicode="&#x201D;" horiz-adv-x="268" d="M250 715Q246 695 237 663T215 596T190 531T167 485H133Q139 498 148 527T166 589T182 657T192 715H250H250ZM132 715Q128 694 119 661T99 593T76 528T58 485H24Q28 497 36 524T51 585T65 653T74 715H132H132Z"  />
<glyph unicode="&#x201E;" horiz-adv-x="268" d="M248 102Q244 82 235 50T213 -17T188 -82T165 -128H131Q137 -115 146 -86T164 -24T180 44T190 102H248H248ZM130 102Q126 81 117 48T97 -20T74 -85T56 -128H22Q26 -116 34 -89T49 -28T63 40T72 102H130H130Z"  />
<glyph unicode="&#x2020;" horiz-adv-x="278" d="M159 458V0H119V458H32V489H119V667H159V489H246V458H159Z"  />
<glyph unicode="&#x2021;" horiz-adv-x="278" d="M159 178V0H119V178H32V209H119V458H32V489H119V667H159V489H246V458H159V209H246V178H159Z"  />
<glyph unicode="&#x2022;" horiz-adv-x="590" d="M150 372Q150 402 161 428T192 473T238 504T295 516Q325 516 351 505T396 474T427 428T439 372Q439 342 428 316T397 270T351 239T294 227Q264 227 238 238T192 269T161 315T150 372Z"  />
<glyph unicode="&#x2026;" horiz-adv-x="1000" d="M211 40Q211 22 198 9T167 -4Q149 -4 136 9T122 40Q122 58 135 71T167 84Q185 84 198 71T211 40ZM544 40Q544 22 531 9T500 -4Q482 -4 469 9T455 40Q455 58 468 71T500 84Q518 84 531 71T544 40ZM877 40Q877 22 864 9T833 -4Q815 -4 802 9T788 40Q788 58 801 71T833 84Q851 84 864 71T877 40Z"  />
<glyph unicode="&#x2030;" horiz-adv-x="848" d="M815 129Q815 103 806 80T780 39T741 12T691 2Q661 2 637 12T597 39T573 79T564 129Q564 155 573 178T600 218T640 246T691 256Q720 256 743 246T782 219T806 178T815 129ZM296 540Q296 514 287 491T261 451T222 424T172 414Q142 414 118 424T78 451T53 491T44 540Q44 566 53 589T80 629T120 657T172 667Q201 667 224 657T263 630T287 589T296 540ZM97 -13L68 1L467 677L496 663L97 -13ZM525 129Q525 103 516 80T490 39T451 12T401 2Q371 2 347 12T307 39T282 79T273 129Q273 155 282 178T309 218T349 246T401 256Q430 256 453 246T492 219T516 178T525 129ZM783 129Q783 168 759 196T691 225Q647 225 622 197T597 129Q597 90 620 61T691 32Q711 32 728 40T757 61T776 91T783 129ZM263 540Q263 579 240 607T172 636Q128 636 103 608T78 540Q78 501 101 473T172 444Q212 444 237 472T263 540ZM492 129Q492 168 469 196T401 225Q357 225 332 197T307 129Q307 90 330 61T401 32Q421 32 437 40T466 61T485 91T492 129Z"  />
<glyph unicode="&#x2039;" horiz-adv-x="207" d="M148 113L42 227L148 340L165 331L100 228L165 122L148 113Z"  />
<glyph unicode="&#x203A;" horiz-adv-x="207" d="M59 113L42 122L107 228L42 331L59 340L165 227L59 113Z"  />
<glyph unicode="&#x20AC;" horiz-adv-x="438" d="M424 37Q394 14 363 2T293 -10Q231 -10 191 17T126 87T90 182T74 285H-3V313H72Q72 349 75 387H-3V415H78Q84 458 98 505T138 591T201 655T291 680Q328 680 358 671T418 638L395 601Q378 624 354 637T301 651Q257 651 229 627T183 567T158 490T145 415H351V387H143Q141 366 140 351T141 313H324V285H143Q146 249 153 204T178 117T225 48T302 20Q334 20 359 34T404 73L424 37H424Z"  />
<glyph unicode="&#x2122;" horiz-adv-x="957" d="M768 356V682L639 356H613L485 682V356H460V712H500L626 391L753 712H792V356H768ZM257 687V356H230V687H101V712H386V687H257Z"  />
<glyph unicode="&#xE308;" horiz-adv-x="500" d="M321 797Q321 768 301 748T251 728Q222 728 202 748T181 797Q181 826 201 846T251 867Q280 867 300 847T321 797ZM299 797Q299 819 284 832T251 845Q229 845 216 830T203 797Q203 774 218 762T251 749Q273 749 286 764T299 797Z"  />

</font>
</defs>
</svg>
