<?xml  version="1.0" encoding="UTF-8"?>
<!DOCTYPE svg PUBLIC "-//W3C//DTD SVG 1.0//EN" "http://www.w3.org/TR/2001/REC-SVG-20010904/DTD/svg10.dtd" >
<svg xmlns="http://www.w3.org/2000/svg" >
<metadata>
<version>1.0</version>
<id><![CDATA[Semplicita W01 Light]]></id>
<vendor>Monotype Imaging Inc.</vendor>
<credits>
<name>Fonts.com WebFonts</name>
<URL>http://webfonts.fonts.com</URL>
<role>Home of the Web fonts</role>
</credits>
<license>
<URL>http://webfonts.fonts.com/Legal</URL>
</license>
<copyright></copyright>
<trademark></trademark>
<licensee>
<name></name>
</licensee>
</metadata>
<defs >
<font horiz-adv-x="539" id="f8988480-2c8e-48d9-8db6-aa140c333bb4">
<font-face font-family="" panose-1="2 0 0 0 0 0 0 0 0 0" ascent="1004" descent="-269" units-per-em="1000" alphabetic="0">
</font-face>
<missing-glyph horiz-adv-x="0" />

<glyph unicode="&#xA;" />
<glyph unicode="&#xD;" />
<glyph unicode=" " horiz-adv-x="240" />
<glyph unicode="!" horiz-adv-x="245" d="M168 33Q168 15 155 2T122 -11Q104 -11 91 2T78 33Q78 53 91 66T122 79Q143 79 155 66T168 33ZM104 188L88 757H157L141 188H104Z"  />
<glyph unicode="&quot;" horiz-adv-x="336" d="M220 488L211 761H265L256 488H220ZM80 488L71 761H125L116 488H80Z"  />
<glyph unicode="#" horiz-adv-x="653" d="M419 461H254L232 289H397L419 461ZM360 -9L392 248H227L195 -12L154 -9L186 248H56L63 289H191L212 461H84L91 502H217L250 762L292 759L259 502H424L457 762L499 759L466 502H597L591 461H461L439 289H568L564 248H434L401 -12L360 -9Z"  />
<glyph unicode="$" horiz-adv-x="550" d="M267 700Q242 697 220 688T181 663T154 625T144 572Q144 541 154 519T181 481T221 453T267 428V700ZM306 39Q360 49 395 86T430 184Q430 214 424 237T404 279T366 315T306 353V39ZM267 -101V-9Q229 -9 195 0T134 22T86 53T55 85L85 120Q94 107 109 93T147 66T199 45T267 36V373Q237 388 206 405T150 444T110 496T94 565Q94 606 108 638T145 692T200 728T267 744V843H306V744Q334 742 358 735T401 718T435 697T458 677L429 644Q409 664 380 680T306 700V408Q347 386 380 367T435 322T470 265T482 185Q482 153 470 122T436 64T381 19T306 -6V-101H267Z"  />
<glyph unicode="%" horiz-adv-x="832" d="M635 23Q658 23 677 31T711 55T734 90T743 133Q743 156 735 176T712 211T678 234T635 243Q612 243 593 235T559 211T536 176T527 133Q527 110 535 90T558 55T592 32T635 23ZM780 133Q780 103 769 77T738 31T691 0T634 -12Q604 -12 578 -1T532 30T501 76T489 133Q489 163 500 190T531 236T577 267T634 279Q664 279 691 268T737 237T768 190T780 133ZM198 506Q221 506 240 514T274 538T297 573T306 616Q306 639 298 659T275 694T241 717T198 726Q175 726 156 718T122 694T99 659T90 616Q90 593 98 573T121 538T155 515T198 506ZM343 616Q343 586 332 560T301 514T254 483T197 471Q167 471 141 482T95 513T64 559T52 616Q52 646 63 673T94 719T140 750T197 762Q227 762 254 751T300 720T331 673T343 616ZM229 -8L554 770L585 757L259 -20L229 -8Z"  />
<glyph unicode="&amp;" horiz-adv-x="723" d="M271 467Q263 466 235 455T177 419T124 354T100 253Q100 202 119 161T169 91T238 47T315 31Q368 31 406 49T469 92T508 139T525 172L271 467ZM671 -1L557 138Q554 127 538 102T491 52T416 7T314 -13Q258 -13 210 8T126 64T70 147T50 248Q50 301 67 345T112 422T174 476T241 504Q236 509 227 520T207 548T189 585T181 628Q181 690 219 730T324 770Q352 770 373 764T408 750T431 733T447 719L416 687Q405 697 383 712T324 727Q306 727 289 722T258 706T236 676T227 632Q227 595 247 565T291 509L550 510L540 472L324 471L739 0L671 -1Z"  />
<glyph unicode="&apos;" horiz-adv-x="196" d="M80 488L71 761H125L116 488H80Z"  />
<glyph unicode="(" horiz-adv-x="232" d="M148 -268Q111 -165 90 -26T69 275Q69 456 92 599T148 836L184 821Q173 786 160 731T136 605T118 451T110 277Q110 199 116 130T132 -4T155 -130T184 -252L148 -268Z"  />
<glyph unicode=")" horiz-adv-x="231" d="M48 -252Q63 -191 76 -130T100 -5T116 129T122 277Q122 367 115 450T96 604T72 730T48 821L84 836Q116 743 139 600T162 275Q162 114 142 -25T84 -268L48 -252Z"  />
<glyph unicode="*" horiz-adv-x="494" d="M295 635L285 664L412 716L425 676L295 635ZM125 499L209 606L231 592L158 476L125 499ZM338 476L259 590L283 609L369 503L338 476ZM233 680L227 822H268L262 680H233ZM69 675L80 715L207 665L198 635L69 675Z"  />
<glyph unicode="+" horiz-adv-x="620" d="M287 104V342H60V386H287V624H333V386H560V342H333V104H287Z"  />
<glyph unicode="&#x2c;" horiz-adv-x="217" d="M22 -106L93 76H146L64 -106H22Z"  />
<glyph unicode="-" horiz-adv-x="394" d="M72 227L77 267H322L317 227H72Z"  />
<glyph unicode="." horiz-adv-x="228" d="M158 33Q158 16 146 3T114 -10Q96 -10 83 3T70 33Q70 53 83 65T114 78Q133 78 145 66T158 33Z"  />
<glyph unicode="/" horiz-adv-x="534" d="M42 -201L453 820L493 802L82 -216L42 -201Z"  />
<glyph unicode="0" horiz-adv-x="648" d="M324 32Q370 32 403 49T458 95T494 159T514 234T524 308T526 374Q526 405 524 442T514 518T493 592T457 655T401 700T323 717Q278 717 246 701T192 658T157 595T136 522T126 445T123 374Q123 345 125 309T135 234T157 160T193 96T248 50T324 32ZM324 -12Q271 -12 232 5T166 52T120 120T92 202T79 289T75 374Q75 413 78 457T92 545T119 627T164 696T231 744T323 762Q403 762 452 725T528 631T564 506T574 374Q574 312 565 244T528 119T452 25T324 -12Z"  />
<glyph unicode="1" horiz-adv-x="329" d="M169 -4V702L47 642L32 681L215 768V-4H169Z"  />
<glyph unicode="2" horiz-adv-x="584" d="M22 0Q88 57 158 121T297 257Q322 283 349 317T400 389T438 469T453 551Q453 585 442 615T409 668T359 704T296 718Q267 718 242 710T197 688T161 661T137 635L109 667Q119 678 136 694T177 725T231 751T300 762Q345 762 382 746T446 702T486 635T501 551Q501 503 484 456T441 367T386 290T334 231Q306 202 277 175T221 123T168 78T124 43L524 46V0H22Z"  />
<glyph unicode="3" horiz-adv-x="553" d="M61 104Q66 97 79 85T114 60T166 40T235 31Q285 31 322 45T383 83T419 137T431 201Q431 237 417 273T374 338T304 386T207 408L208 429Q259 434 296 450T358 489T394 539T406 593Q406 617 397 639T369 679T324 706T263 716Q228 716 194 705T132 673L114 707Q120 713 134 722T170 741T216 756T269 762Q312 762 346 748T404 710T440 656T453 592Q453 542 423 496T326 422V420Q365 405 393 382T441 330T470 269T480 205Q480 164 465 125T419 56T342 7T236 -12Q193 -12 160 -3T102 19T62 45T40 65L61 104Z"  />
<glyph unicode="4" horiz-adv-x="611" d="M414 631L112 199H414V631ZM414 -4V155H27L460 772V199H559V155H460V-4H414Z"  />
<glyph unicode="5" horiz-adv-x="550" d="M64 84Q103 57 144 45T224 32Q279 32 319 49T386 96T424 161T437 235Q437 271 424 305T385 367T318 410T223 427Q171 427 114 408L209 750H467L455 706H242L178 465Q193 467 208 468T237 470Q289 470 334 454T413 408T466 337T485 244Q485 194 469 148T420 66T340 9T228 -12Q195 -12 165 -6T110 10T67 28T41 43L64 84Z"  />
<glyph unicode="6" horiz-adv-x="591" d="M496 220Q496 259 483 295T444 358T384 402T304 419Q261 419 226 404T165 361T125 298T111 220Q111 181 126 147T168 88T230 48T306 33Q349 33 384 48T444 89T482 149T496 220ZM384 733Q362 710 333 673T273 593T213 502T160 410Q173 425 191 435T230 451T271 460T306 463Q359 463 403 444T479 391T528 313T546 220Q546 174 528 132T478 58T401 6T306 -13Q253 -13 209 6T132 57T81 132T63 220Q63 267 79 319T120 424T178 529T242 625T303 707T353 766L384 733Z"  />
<glyph unicode="7" horiz-adv-x="506" d="M75 -6L422 706L48 705V750H493L124 -6H75Z"  />
<glyph unicode="8" horiz-adv-x="597" d="M465 554Q465 590 453 620T418 672T365 707T299 720Q264 720 234 708T180 673T144 621T131 557Q131 525 144 497T179 448T233 414T300 401Q335 401 365 413T417 446T452 494T465 554ZM470 194Q470 228 457 258T420 310T365 346T298 359Q262 359 231 346T176 311T139 258T125 194Q125 160 138 130T175 78T230 42T298 29Q334 29 365 42T420 77T456 130T470 194ZM392 378Q416 367 439 352T480 314T509 264T520 199Q520 155 502 117T454 50T384 4T298 -13Q252 -13 212 3T141 48T94 116T76 199Q76 235 88 263T119 314T161 352T207 379Q150 404 116 449T82 554Q82 603 101 642T151 708T221 749T299 763Q342 763 381 749T451 707T498 641T516 554Q516 495 481 449T392 378Z"  />
<glyph unicode="9" horiz-adv-x="592" d="M288 331Q331 331 366 346T427 388T467 451T481 529Q481 568 466 602T424 661T362 701T286 716Q243 716 208 701T148 660T110 600T96 529Q96 490 109 454T148 391T208 347T288 331ZM209 18Q231 41 260 77T319 157T379 247T432 339Q419 324 401 314T362 298T321 290T286 287Q233 287 189 306T113 359T64 436T46 529Q46 575 64 617T114 691T191 743T286 762Q339 762 383 743T460 691T511 617T529 529Q529 482 513 430T472 325T415 221T351 125T290 44T240 -15L209 18Z"  />
<glyph unicode=":" horiz-adv-x="232" d="M160 402Q160 384 148 372T115 360Q98 360 85 372T72 402Q72 422 85 434T115 447Q135 447 147 435T160 402ZM160 33Q160 16 148 3T115 -10Q98 -10 85 3T72 33Q72 53 85 66T115 79Q135 79 147 66T160 33Z"  />
<glyph unicode=";" horiz-adv-x="257" d="M38 -106L109 76H162L80 -106H38ZM181 403Q181 385 169 373T136 361Q119 361 107 373T94 403Q94 423 106 435T137 447Q157 447 169 435T181 403Z"  />
<glyph unicode="&lt;" horiz-adv-x="597" d="M53 356V384L489 644L509 607L103 370L509 114L489 79L53 356Z"  />
<glyph unicode="=" horiz-adv-x="674" d="M87 458V502H587V458H87ZM87 224V268H587V224H87Z"  />
<glyph unicode="&gt;" horiz-adv-x="595" d="M106 96L86 133L492 370L86 626L106 661L542 384V356L106 96Z"  />
<glyph unicode="?" horiz-adv-x="469" d="M256 33Q256 16 244 3T212 -10Q194 -10 181 3T168 33Q168 53 181 65T212 78Q231 78 243 66T256 33ZM408 278Q401 266 385 249T345 217T290 192T223 181Q195 181 168 191T118 219T81 263T67 322Q67 354 77 378T104 422T141 457T182 487Q208 505 232 523T276 560T308 600T320 644Q320 681 296 705T233 729Q213 729 195 724T163 713T137 699T119 685L99 719Q106 726 119 735T150 752T190 766T238 772Q270 772 293 761T333 732T356 692T364 645Q364 612 349 586T311 537T261 495T211 458Q190 443 172 430T139 402T117 369T109 323Q109 302 118 284T144 252T182 230T228 222Q257 222 281 231T325 252T359 279T382 305L408 278Z"  />
<glyph unicode="@" horiz-adv-x="1067" d="M818 -215Q752 -243 693 -251T584 -260Q477 -260 383 -220T218 -110T106 53T65 254Q65 360 103 454T208 618T366 729T564 770Q670 770 753 737T895 645T983 506T1013 332Q1013 273 988 209T912 92T787 5T616 -30Q552 -30 503 -11T421 38T370 107T353 183Q353 214 364 242T400 293T460 328T545 341Q596 341 633 326T703 284V352Q703 403 666 436T560 470Q536 470 515 467T476 459T446 449T428 442L408 477Q430 488 467 499T558 511Q615 511 651 499T709 463T738 409T747 339V182H734Q716 219 693 242T645 278T595 295T546 300Q508 300 480 291T434 265T406 228T397 183Q397 153 411 123T454 67T523 27T617 11Q700 11 766 39T878 114T948 220T973 341Q973 377 965 420T937 506T887 589T810 661T703 711T561 730Q463 730 380 693T236 590T141 435T106 241Q106 181 123 124T171 16T246 -79T343 -153T456 -202T581 -220Q638 -220 693 -212T805 -178L818 -215Z"  />
<glyph unicode="A" horiz-adv-x="671" d="M356 620Q351 631 345 647T336 670L316 620L164 268H507L356 620ZM623 0L526 224H145L48 0H-3L336 777L673 0H623Z"  />
<glyph unicode="B" horiz-adv-x="600" d="M292 44Q394 44 444 89T494 207Q494 241 479 270T438 320T377 354T300 366H154V44H292ZM215 410Q264 410 304 422T372 456T415 507T430 571Q430 611 417 638T380 681T324 705T252 713H154V410H215ZM106 0V757H245Q295 757 337 749T411 719T461 661T479 570Q479 541 468 514T439 465T398 427T351 403Q381 400 415 387T477 349T525 289T544 208Q544 111 480 56T291 0H106Z"  />
<glyph unicode="C" horiz-adv-x="746" d="M698 80Q646 35 584 11T450 -13Q365 -13 293 18T168 102T85 226T55 378Q55 459 85 530T167 655T292 739T450 770Q521 770 583 746T698 676L669 640Q653 656 632 671T583 699T520 718T441 725Q370 725 309 700T203 628T131 516T105 373Q105 300 132 238T207 129T317 57T451 31Q519 31 576 53T675 113L698 80Z"  />
<glyph unicode="D" horiz-adv-x="727" d="M246 44Q328 44 396 64T514 127T591 232T619 381Q619 466 589 529T509 632T391 693T248 713H154V44H246ZM106 0V757H261Q345 757 419 733T548 661T636 542T669 378Q669 291 640 221T558 102T432 27T271 0H106Z"  />
<glyph unicode="E" horiz-adv-x="547" d="M106 1V756H479V713H154V429H415V385H154V44H512V1H106Z"  />
<glyph unicode="F" horiz-adv-x="500" d="M106 0V756H472V713H154V429H410V385H154V0H106Z"  />
<glyph unicode="G" horiz-adv-x="831" d="M527 299V342H790Q789 252 760 186T682 75T571 9T442 -13Q362 -13 292 18T169 102T86 225T55 376Q55 458 84 530T166 655T292 739T451 770Q515 770 566 754T652 718T707 681T728 662L698 627Q696 629 678 644T628 678T552 710T453 725Q373 725 309 698T199 624T130 513T105 375Q105 311 129 249T198 139T305 61T443 31Q499 31 550 48T642 98T709 182T741 299H527Z"  />
<glyph unicode="H" horiz-adv-x="749" d="M595 0V363H154V0H106V757H154V407H595V757H643V0H595Z"  />
<glyph unicode="I" horiz-adv-x="260" d="M106 0V757H154V0H106Z"  />
<glyph unicode="J" horiz-adv-x="260" d="M-44 -221Q1 -202 30 -182T76 -130T99 -51T106 68V757H154V63Q154 -17 145 -70T116 -159T61 -219T-25 -265L-44 -221Z"  />
<glyph unicode="K" horiz-adv-x="617" d="M550 0L154 355V0H106V757H154V399L508 757H578L195 378L630 0H550Z"  />
<glyph unicode="L" horiz-adv-x="505" d="M106 1V757H154V44H480V1H106Z"  />
<glyph unicode="M" horiz-adv-x="963" d="M843 0L788 588L787 614L779 594L481 -28L183 594L175 614Q175 608 175 601T174 588L120 0H71L147 778L466 117Q468 112 474 99T482 77Q484 85 490 98T498 117L815 778L892 0H843Z"  />
<glyph unicode="N" horiz-adv-x="847" d="M154 647V0H106V775L694 106V757H742V-25L154 647Z"  />
<glyph unicode="O" horiz-adv-x="903" d="M798 376Q798 452 771 516T696 627T587 699T453 725Q380 725 317 699T206 628T132 519T105 382Q105 312 131 249T204 137T312 60T446 31Q521 31 585 57T697 130T771 239T798 376ZM848 375Q848 294 817 223T732 100T606 17T453 -13Q369 -13 297 17T171 101T86 225T55 378Q55 460 86 531T170 656T296 739T453 770Q536 770 608 741T733 659T817 534T848 375Z"  />
<glyph unicode="P" horiz-adv-x="544" d="M226 353Q332 353 394 401T456 542Q456 584 441 616T398 669T333 702T250 713H154V353H226ZM106 0V757H240Q291 757 338 746T423 709T482 642T505 543Q505 493 488 451T437 377T349 327T224 309H154V0H106Z"  />
<glyph unicode="Q" horiz-adv-x="903" d="M798 376Q798 452 771 516T696 627T587 699T453 725Q380 725 317 699T206 628T132 519T105 382Q105 312 131 249T204 137T312 60T446 31Q521 31 585 57T697 130T771 239T798 376ZM659 44Q614 17 562 2T453 -13Q369 -13 297 17T171 101T86 225T55 378Q55 460 86 531T170 656T296 739T453 770Q536 770 608 741T733 659T817 534T848 375Q848 281 808 203T698 71L846 -50L811 -90L659 44Z"  />
<glyph unicode="R" horiz-adv-x="579" d="M214 353Q331 353 393 401T456 542Q456 585 441 617T397 670T332 702T251 713H154V353H214ZM515 0L197 309H154V0H106V757H251Q294 757 339 747T421 711T481 645T505 543Q505 493 488 452T439 380T360 331T255 310L586 0H515Z"  />
<glyph unicode="S" horiz-adv-x="533" d="M68 119Q78 106 94 91T134 62T189 41T262 32Q298 32 329 43T383 74T419 122T432 187Q432 243 406 279T341 340T255 386T170 432T104 493T78 585Q78 631 95 666T140 724T205 760T282 772Q315 772 343 765T393 747T432 724T459 701L429 668Q406 691 372 709T282 728Q252 728 225 720T176 695T141 652T128 592Q128 556 143 530T184 485T241 450T306 418T371 382T428 337T468 274T484 188Q484 151 469 115T425 51T354 5T258 -13Q219 -13 184 -4T119 19T69 51T37 84L68 119Z"  />
<glyph unicode="T" horiz-adv-x="530" d="M241 0V713H22V756H508V713H289V0H241Z"  />
<glyph unicode="U" horiz-adv-x="740" d="M590 757H638V81Q605 42 538 15T368 -13Q306 -13 256 5T171 58T118 147T99 272V757H147V285Q147 216 162 168T208 89T284 45T391 31Q416 31 444 34T499 45T549 65T590 95V757Z"  />
<glyph unicode="V" horiz-adv-x="615" d="M0 757H59L304 120Q307 112 308 103T310 85Q311 93 312 102T316 120L556 757H614L308 -28L0 757Z"  />
<glyph unicode="W" horiz-adv-x="991" d="M496 635L258 -28L12 757H68L257 140Q260 131 261 123T263 106Q264 114 265 122T270 140L498 778L729 140Q732 131 733 123T735 106Q736 114 737 123T741 140L924 757H978L737 -28L496 635Z"  />
<glyph unicode="X" horiz-adv-x="589" d="M514 0L294 345L70 0H15L269 391L35 757H90L297 433L505 757H560L321 391L569 0H514Z"  />
<glyph unicode="Y" horiz-adv-x="523" d="M237 0V328L-3 757H54L258 392Q260 390 261 388T263 377Q264 385 265 387T268 392L474 757H528L285 328V0H237Z"  />
<glyph unicode="Z" horiz-adv-x="557" d="M4 1L433 713H75V756H516L87 44H527V1H4Z"  />
<glyph unicode="[" horiz-adv-x="275" d="M87 -216V820H237V778H129V-177H237V-216H87Z"  />
<glyph unicode="\" horiz-adv-x="532" d="M451 -216L41 803L81 820L491 -202L451 -216Z"  />
<glyph unicode="]" horiz-adv-x="276" d="M39 -216V-174H147V781H39V820H189V-216H39Z"  />
<glyph unicode="^" horiz-adv-x="605" d="M466 413L302 767L138 413H88L278 814H326L517 413H466Z"  />
<glyph unicode="_" horiz-adv-x="609" d="M57 -20V20H552V-20H57Z"  />
<glyph unicode="`" horiz-adv-x="329" d="M226 583L88 721L129 754L247 600L226 583Z"  />
<glyph unicode="a" horiz-adv-x="503" d="M391 209Q380 219 365 230T331 251T287 267T234 273Q209 273 183 267T134 246T97 210T82 158Q82 125 94 101T128 61T177 37T235 29Q288 29 326 42T391 76V209ZM391 324Q391 375 354 408T248 442Q224 442 203 439T164 431T134 421T116 414L96 449Q118 460 155 471T246 483Q303 483 339 471T397 435T426 381T435 311V57Q400 23 348 6T233 -12Q182 -12 145 2T84 39T48 94T36 158Q36 197 55 226T103 275T167 303T232 313Q279 313 320 298T391 254V324Z"  />
<glyph unicode="b" horiz-adv-x="573" d="M120 75Q129 67 146 59T183 44T225 33T269 29Q311 29 349 42T416 82T462 147T479 239Q479 281 467 318T432 382T375 426T295 442Q269 442 243 434T193 413T150 385T120 354V75ZM76 820H120V407Q129 417 147 430T188 455T240 475T300 483Q358 483 400 463T471 409T512 331T525 238Q525 175 504 129T446 51T364 4T269 -12Q218 -12 168 4T76 53V820Z"  />
<glyph unicode="c" horiz-adv-x="511" d="M480 70Q447 26 397 7T291 -12Q239 -12 195 6T117 57T66 135T47 234Q47 288 65 333T116 412T194 464T294 483Q328 483 356 475T405 456T439 435T457 418L431 388Q427 392 416 401T386 419T344 435T290 442Q255 442 220 430T157 392T111 327T93 234Q93 185 109 147T153 83T217 43T295 29Q355 29 392 48T457 97L480 70Z"  />
<glyph unicode="d" horiz-adv-x="573" d="M453 363Q433 398 388 420T288 442Q201 442 148 386T94 228Q94 178 111 141T157 78T224 41T304 29Q337 29 376 39T453 76V363ZM453 820H497V53Q455 20 406 4T304 -12Q255 -12 209 2T127 46T70 121T48 228Q48 286 65 333T115 414T191 465T288 483Q335 483 379 468T453 423V820Z"  />
<glyph unicode="e" horiz-adv-x="537" d="M445 284Q441 316 429 344T397 395T348 429T281 442Q245 442 215 432T163 403T125 361T102 310Q100 304 99 298T97 284H445ZM480 74Q452 36 402 12T286 -12Q235 -12 192 5T116 55T66 133T48 232Q48 288 64 334T111 413T186 464T285 483Q339 483 378 463T442 411T480 338T492 253V244H94Q94 234 94 226T95 213Q98 167 115 133T160 75T222 41T295 29Q327 29 352 36T398 53T432 76T455 100L480 74Z"  />
<glyph unicode="f" horiz-adv-x="285" d="M105 0V429H25V470H105V619Q105 719 145 768Q165 791 193 803T254 815Q282 815 301 809T327 797L306 755Q301 759 286 765T248 771Q197 771 173 733T149 629V470H266V429H149V0H105Z"  />
<glyph unicode="g" horiz-adv-x="574" d="M453 399Q447 403 434 410T402 425T358 437T302 442Q262 442 225 429T158 390T112 325T94 233Q94 198 105 162T140 97T201 49T290 30Q311 30 334 37T380 58T422 90T453 129V399ZM453 74Q422 35 375 12T277 -12Q235 -12 194 4T121 51T68 128T48 233Q48 294 69 341T127 419T209 467T304 483Q340 483 371 477T426 460T469 439T497 418V-28Q497 -95 478 -139T428 -211T358 -249T280 -260Q236 -260 191 -248T98 -206L121 -170Q159 -196 202 -207T284 -218Q310 -218 339 -212T394 -185T436 -128T453 -27V74Z"  />
<glyph unicode="h" horiz-adv-x="538" d="M419 0V288Q419 370 386 404T278 439Q249 439 225 432T181 415T147 394T123 373V0H79V820H123V420Q133 429 148 440T183 460T229 476T285 483Q370 483 416 441T463 306V0H419Z"  />
<glyph unicode="i" horiz-adv-x="210" d="M145 610Q145 594 134 583T105 571Q88 571 77 582T65 610Q65 628 76 639T105 651Q122 651 133 640T145 610ZM83 0V471H127V0H83Z"  />
<glyph unicode="j" horiz-adv-x="210" d="M146 610Q146 594 135 583T106 571Q89 571 78 582T66 610Q66 628 77 639T106 651Q123 651 134 640T146 610ZM-11 -230Q24 -213 43 -198T71 -155T81 -84T83 37V471H127V43Q127 -35 125 -85T112 -169T76 -225T8 -268L-11 -230Z"  />
<glyph unicode="k" horiz-adv-x="443" d="M374 0L123 249V0H79V820H123V269L324 471H385L172 263L445 0H374Z"  />
<glyph unicode="l" horiz-adv-x="218" d="M87 0V820H131V0H87Z"  />
<glyph unicode="m" horiz-adv-x="818" d="M699 0V308Q699 375 672 407T578 439Q530 439 492 417T427 369Q433 345 433 315V0H389V308Q389 375 362 407T268 439Q243 439 221 432T180 415T147 394T123 373V0H79V471H123V420Q133 429 149 440T186 460T229 476T275 483Q323 483 359 466T415 407Q451 440 497 461T585 483Q620 483 649 474T699 445T731 393T743 315V0H699Z"  />
<glyph unicode="n" horiz-adv-x="538" d="M419 0V288Q419 370 386 404T278 439Q249 439 225 432T181 415T147 394T123 373V0H79V471H123V420Q133 429 148 440T183 460T229 476T285 483Q370 483 416 441T463 306V0H419Z"  />
<glyph unicode="o" horiz-adv-x="593" d="M500 235Q500 280 484 317T439 382T374 425T295 441Q250 441 213 426T148 382T107 316T92 232Q92 188 109 151T154 87T218 45T295 30Q340 30 378 45T443 87T485 151T500 235ZM546 235Q546 183 527 138T474 60T395 7T297 -12Q244 -12 199 7T120 59T67 137T47 235Q47 288 66 333T119 412T198 464T297 483Q349 483 394 464T474 411T527 332T546 235Z"  />
<glyph unicode="p" horiz-adv-x="573" d="M121 119Q146 82 192 56T296 29Q333 29 366 42T425 82T465 146T480 232Q480 277 465 315T423 382T355 426T264 442Q243 442 222 438T181 428T146 414T121 399V119ZM77 -255V418Q119 452 169 467T270 483Q319 483 365 468T447 421T504 343T526 233Q526 184 511 140T466 62T394 8T296 -12Q269 -12 244 -6T195 9T153 32T121 59V-255H77Z"  />
<glyph unicode="q" horiz-adv-x="574" d="M453 399Q447 403 434 410T402 425T358 437T302 442Q262 442 225 429T158 390T112 325T94 233Q94 198 105 162T140 97T201 49T290 30Q311 30 334 37T380 58T422 90T453 129V399ZM453 -255V74Q422 35 375 12T277 -12Q235 -12 194 4T121 51T68 128T48 233Q48 294 69 341T127 419T209 467T304 483Q340 483 371 477T426 460T469 439T497 418V-255H453Z"  />
<glyph unicode="r" horiz-adv-x="310" d="M79 0V471H123V406Q124 414 132 427T153 452T185 474T223 483Q235 483 248 481T271 474T289 467T300 462L274 420Q267 425 254 431T222 438Q201 438 184 428T154 404T133 373T123 343V0H79Z"  />
<glyph unicode="s" horiz-adv-x="393" d="M58 90Q66 81 77 70T103 50T140 34T189 27Q239 27 271 53T303 132Q303 160 286 179T242 212T186 238T129 266T86 304T68 362Q68 388 77 410T105 448T148 474T206 484Q245 484 281 467T336 428L313 395Q308 400 298 408T274 425T241 439T203 445Q177 445 159 438T131 419T116 393T111 367Q111 341 128 324T172 293T230 265T287 235T331 193T349 132Q349 99 337 73T303 27T252 -2T188 -13Q158 -13 133 -7T88 10T53 34T29 60L58 90Z"  />
<glyph unicode="t" horiz-adv-x="280" d="M108 0V429H21V470H108V641H152V470H266V429H152V0H108Z"  />
<glyph unicode="u" horiz-adv-x="536" d="M416 471H460V54Q426 22 380 5T268 -12Q225 -12 190 -1T129 32T89 89T74 168V471H118V178Q118 103 158 66T267 29Q324 29 359 43T416 73V471Z"  />
<glyph unicode="v" horiz-adv-x="447" d="M222 -22L10 471H59L198 145Q205 130 213 107T225 69H226Q228 84 236 105T253 144L389 471H437L224 -22H222Z"  />
<glyph unicode="w" horiz-adv-x="707" d="M502 -22L353 382L205 -22H204L13 471H62L206 94L352 496H353L504 94L648 471H694L503 -22H502Z"  />
<glyph unicode="x" horiz-adv-x="451" d="M384 0L225 216L65 0H14L200 254L41 471H95L226 292L359 471H410L251 255L438 0H384Z"  />
<glyph unicode="y" horiz-adv-x="466" d="M55 -260L201 37L9 471H58L226 82L412 471H460L101 -260H55Z"  />
<glyph unicode="z" horiz-adv-x="432" d="M15 1L324 429H60V470H403L95 42H392V1H15Z"  />
<glyph unicode="{" horiz-adv-x="291" d="M247 -217Q208 -207 184 -192T145 -155T126 -100T121 -23V109Q121 147 117 174T104 222T77 262T33 302Q85 332 103 379T121 495V627Q121 668 126 702T144 761T182 802T247 821L255 790Q229 786 212 775T184 749T169 713T165 670V482Q165 452 162 428T149 383T125 342T87 302Q127 272 146 231T165 122V-59Q165 -95 173 -118T194 -156T223 -176T255 -186L247 -217Z"  />
<glyph unicode="|" horiz-adv-x="214" d="M86 -260V820H128V-260H86Z"  />
<glyph unicode="}" horiz-adv-x="291" d="M36 -186Q52 -183 68 -177T97 -156T118 -119T126 -59V122Q126 190 145 231T204 302Q181 322 166 341T142 382T130 428T126 482V670Q126 715 107 748T36 790L44 821Q84 818 108 803T146 762T165 702T170 627V495Q170 460 174 432T188 379T215 336T258 302Q231 281 214 263T188 223T174 174T170 109V-23Q170 -68 165 -100T146 -154T108 -192T44 -217L36 -186Z"  />
<glyph unicode="~" horiz-adv-x="582" d="M519 525Q512 518 498 508T466 489T425 473T379 466Q359 466 338 474T296 492T252 510T207 518Q192 518 175 513T143 500T114 484T91 470L65 497Q74 505 90 516T127 537T169 554T212 561Q235 561 258 553T302 535T344 517T383 508Q403 508 420 513T452 526T477 541T494 554L519 525Z"  />
<glyph unicode="&#xA0;" horiz-adv-x="240" />
<glyph unicode="&#xA1;" horiz-adv-x="243" d="M122 467Q101 467 89 480T76 513Q76 531 89 544T122 557Q140 557 153 544T166 513Q166 493 153 480T122 467ZM87 -211L103 358H140L156 -211H87Z"  />
<glyph unicode="&#xA2;" horiz-adv-x="554" d="M276 571Q244 566 215 551T162 511T125 449T111 366Q111 322 124 287T159 226T211 184T276 162V571ZM276 -13V122Q230 128 192 148T125 200T81 274T65 366Q65 415 80 458T123 533T190 586T276 613V759H314V615Q348 615 376 607T424 588T457 567T475 550L449 520Q445 524 434 532T406 550T366 566T314 574V159Q373 159 410 179T475 229L498 202Q466 159 417 140T314 120V-13H276Z"  />
<glyph unicode="&#xA3;" horiz-adv-x="580" d="M530 -8Q524 -10 514 -12T492 -16T468 -19T447 -20Q419 -20 395 -15T347 -5T301 6T253 11Q223 11 191 4T132 -11T86 -27T64 -37L50 1Q51 2 64 7T96 19T140 33T188 46V294H113V335H188V549Q188 649 228 698Q248 722 277 733T337 745Q365 745 384 739T410 727L389 685Q384 689 368 695T332 701Q280 701 256 663T232 559V335H369V294H232V52Q237 53 242 53T252 53Q277 52 301 47T349 35T397 25T447 20Q474 20 491 24T525 33L530 -8Z"  />
<glyph unicode="&#xA4;" horiz-adv-x="694" d="M543 377Q543 417 527 451T484 511T421 552T346 567Q309 567 274 552T212 512T169 452T152 377Q152 338 168 303T211 242T273 200T346 185Q385 185 420 200T483 242T527 303T543 377ZM577 116L498 194Q468 171 431 156T346 140Q299 140 262 155T195 194L115 116L88 143L167 223Q141 254 125 291T108 377Q108 426 124 462T166 527L86 609L114 637L195 556Q226 581 263 597T346 613Q393 613 431 597T498 557L578 637L608 609L529 527Q553 499 569 463T585 377Q585 329 569 291T526 223L607 143L577 116Z"  />
<glyph unicode="&#xA5;" horiz-adv-x="639" d="M342 173V0H294V173H98V209H294V293H98V329H293L54 757H109L315 387Q317 385 318 383T320 374Q321 380 322 382T325 387L533 757H585L342 329H538V293H342V209H538V173H342Z"  />
<glyph unicode="&#xA6;" horiz-adv-x="224" d="M91 381V820H133V381H91ZM91 -260V179H133V-260H91Z"  />
<glyph unicode="&#xA7;" horiz-adv-x="545" d="M245 472Q225 472 203 467T161 453T124 436T99 417L296 106Q319 106 341 111T382 125T415 142T439 161L245 472ZM47 401Q55 423 78 444T129 481T180 508T216 519L125 666Q129 678 158 699T229 740T322 776T418 793L402 736Q379 736 342 728T268 710T205 690T177 677L491 177Q483 155 460 134T411 97T361 70T326 59L438 -118Q432 -135 399 -158T321 -203T225 -240T134 -255L151 -198Q166 -198 189 -193T238 -181T290 -166T337 -150T371 -137T386 -129L47 401Z"  />
<glyph unicode="&#xA8;" horiz-adv-x="355" d="M330 630Q330 615 320 604T291 593Q275 593 265 604T255 630Q255 647 265 658T291 669Q309 669 319 658T330 630ZM111 630Q111 615 100 604T72 593Q57 593 46 604T35 630Q35 647 46 658T72 669Q89 669 100 658T111 630Z"  />
<glyph unicode="&#xA9;" horiz-adv-x="918" d="M459 20Q534 20 599 48T711 125T786 239T814 379Q814 454 787 519T712 633T599 710T459 738Q384 738 319 710T206 634T131 520T104 379Q104 304 131 239T206 125T319 48T459 20ZM459 -13Q377 -13 306 18T181 102T98 226T67 379Q67 461 97 532T181 657T305 740T459 771Q541 771 612 741T737 657T820 533T851 379Q851 298 821 227T737 102T613 18T459 -13ZM639 186Q604 157 562 146T471 134Q414 134 366 153T284 204T230 281T211 375Q211 425 230 471T283 551T365 606T470 627Q523 627 565 612T639 572L615 538Q593 559 557 572T464 586Q418 586 381 571T317 528T276 461T261 376Q261 333 277 296T321 232T387 190T472 175Q569 175 621 218L639 186Z"  />
<glyph unicode="&#xAA;" horiz-adv-x="419" d="M311 543Q295 557 268 570T200 583Q182 583 164 579T129 565T103 543T93 510Q93 489 101 473T125 447T159 431T201 426Q238 426 265 434T311 455V543ZM352 439Q325 415 286 403T199 391Q161 391 133 400T87 426T59 464T50 510Q50 537 64 557T100 591T148 610T197 617Q237 617 262 607T311 581V627Q311 658 285 680T208 702Q175 702 147 694T111 682L94 712Q111 720 140 728T209 736Q252 736 279 727T323 702T345 664T352 614V439Z"  />
<glyph unicode="&#xAB;" horiz-adv-x="435" d="M341 25L216 234L338 443H378L256 234L382 25H341ZM178 25L54 234L175 443H215L94 234L219 25H178Z"  />
<glyph unicode="&#xAC;" horiz-adv-x="676" d="M542 104V342H87V386H587V104H542Z"  />
<glyph unicode="&#xAD;" horiz-adv-x="394" d="M72 227L77 267H322L317 227H72Z"  />
<glyph unicode="&#xAE;" horiz-adv-x="710" d="M316 507Q368 507 394 524T420 574Q420 601 396 617T333 634H287V507H316ZM451 353L306 477H287V353H252V666H327Q350 666 373 662T415 646T445 618T457 574Q457 536 427 510T345 479L505 353H451ZM355 251Q404 251 448 271T525 324T577 402T597 496Q597 545 578 589T525 666T448 719T355 739Q306 739 262 720T185 667T133 589T113 496Q113 447 132 403T185 325T262 271T355 251ZM355 220Q298 220 248 242T161 301T102 389T80 496Q80 553 101 602T160 689T248 748T355 770Q412 770 462 749T549 690T608 603T630 496Q630 439 609 389T550 302T462 242T355 220Z"  />
<glyph unicode="&#xAF;" horiz-adv-x="525" d="M88 596V637H437V596H88Z"  />
<glyph unicode="&#xB0;" horiz-adv-x="397" d="M199 509Q222 509 241 517T275 541T298 576T307 619Q307 642 299 662T276 697T242 720T199 729Q176 729 157 721T123 697T100 662T91 619Q91 596 99 576T122 541T156 518T199 509ZM344 619Q344 589 333 563T302 517T255 486T198 474Q168 474 142 485T96 516T65 562T53 619Q53 649 64 676T95 722T141 753T198 765Q228 765 255 754T301 723T332 676T344 619Z"  />
<glyph unicode="&#xB1;" horiz-adv-x="666" d="M83 1V43H583V1H83ZM310 111V349H83V393H310V631H356V393H583V349H356V111H310Z"  />
<glyph unicode="&#xB2;" horiz-adv-x="436" d="M52 352Q91 380 137 417T222 491Q238 506 254 524T284 561T306 600T314 641Q314 675 289 699T223 724Q189 724 164 709T127 680L105 706Q112 712 123 721T149 738T183 752T227 758Q256 758 279 749T320 724T346 687T356 641Q356 615 346 590T320 544T287 504T255 473Q225 447 193 423T139 384L370 387V352H52Z"  />
<glyph unicode="&#xB3;" horiz-adv-x="394" d="M243 573Q292 557 315 525T339 458Q339 436 329 416T298 379T248 352T179 342Q151 342 129 347T90 359T64 373T49 384L68 416Q71 412 80 406T103 393T136 383T178 378Q238 378 267 403T296 460Q296 479 287 497T259 530T215 552T154 561V583Q217 585 248 609T279 661Q279 686 257 703T193 720Q172 720 150 714T111 698L96 728Q104 736 133 747T200 758Q228 758 250 750T289 729T313 699T321 665Q321 639 303 615T243 574V573Z"  />
<glyph unicode="&#xB4;" horiz-adv-x="335" d="M108 583L88 600L206 754L247 721L108 583Z"  />
<glyph unicode="&#xB5;" horiz-adv-x="552" d="M438 0V63Q415 20 376 4T288 -12Q250 -12 210 -2T140 31V-255H96V471H140V73Q161 58 196 44T289 29Q356 29 397 64T438 170V471H482V0H438Z"  />
<glyph unicode="&#xB6;" horiz-adv-x="540" d="M375 -155V757H421V-155H375ZM316 259Q254 257 205 277T122 331T70 408T51 496Q51 542 69 588T122 671T205 731T316 754V259Z"  />
<glyph unicode="&#xB7;" horiz-adv-x="230" d="M115 339Q97 339 84 352T71 383Q71 401 84 414T115 427Q133 427 146 414T159 383Q159 366 147 353T115 339Z"  />
<glyph unicode="&#xB8;" horiz-adv-x="585" d="M274 -196L342 -39H393L316 -196H274Z"  />
<glyph unicode="&#xB9;" horiz-adv-x="243" d="M124 350V709L50 678L36 711L164 761V350H124Z"  />
<glyph unicode="&#xBA;" horiz-adv-x="477" d="M382 563Q382 593 371 618T339 661T293 689T238 700Q206 700 180 690T134 661T105 617T94 561Q94 532 106 508T138 465T183 437T237 427Q302 427 342 464T382 563ZM426 563Q426 527 412 496T372 441T313 405T239 391Q200 391 166 404T106 440T66 495T51 563Q51 600 65 631T105 686T165 722T239 736Q278 736 312 723T372 686T411 631T426 563Z"  />
<glyph unicode="&#xBB;" horiz-adv-x="434" d="M217 25L341 234L220 443H260L380 234L257 25H217ZM53 25L178 234L57 443H97L218 234L94 25H53Z"  />
<glyph unicode="&#xBC;" horiz-adv-x="709" d="M545 340L361 122H544L545 340ZM543 -3V87H314V120L556 401H586V123H650V87H586V-3H543ZM112 0L510 765L539 750L140 -15L112 0ZM141 350V709L67 678L53 711L181 761V350H141Z"  />
<glyph unicode="&#xBD;" horiz-adv-x="748" d="M372 0Q411 28 457 65T542 139Q558 154 574 172T604 209T626 248T634 289Q634 323 609 347T543 372Q509 372 484 357T447 328L425 354Q432 360 443 369T469 386T503 400T547 406Q576 406 599 397T640 372T666 335T676 289Q676 263 666 238T640 192T607 152T575 121Q545 95 513 71T459 32L690 35V0H372ZM112 0L510 765L539 750L140 -15L112 0ZM141 350V709L67 678L53 711L181 761V350H141Z"  />
<glyph unicode="&#xBE;" horiz-adv-x="840" d="M676 340L492 122H675L676 340ZM243 0L641 765L670 750L271 -15L243 0ZM248 573Q297 557 320 525T344 458Q344 436 334 416T303 379T253 352T184 342Q156 342 134 347T95 359T69 373T54 384L73 416Q76 412 85 406T108 393T141 383T183 378Q243 378 272 403T301 460Q301 479 292 497T264 530T220 552T159 561V583Q222 585 253 609T284 661Q284 686 262 703T198 720Q177 720 155 714T116 698L101 728Q109 736 138 747T205 758Q233 758 255 750T294 729T318 699T326 665Q326 639 308 615T248 574V573ZM674 -3V87H445V120L687 401H717V123H781V87H717V-3H674Z"  />
<glyph unicode="&#xBF;" horiz-adv-x="457" d="M251 448Q232 448 220 460T207 493Q207 510 219 523T251 536Q269 536 282 523T295 493Q295 473 282 461T251 448ZM364 -193Q356 -200 344 -209T313 -226T273 -240T225 -246Q193 -246 170 -235T130 -206T107 -166T99 -119Q99 -86 114 -60T152 -11T202 31T252 68Q273 83 291 96T324 124T346 157T354 203Q354 224 345 242T319 274T281 296T235 304Q206 304 182 295T138 274T104 247T81 221L55 248Q62 260 78 277T118 309T173 334T240 345Q268 345 295 335T345 307T382 263T396 204Q396 172 386 148T359 104T322 69T281 39Q255 21 231 3T187 -34T155 -74T143 -118Q143 -155 167 -179T230 -203Q250 -203 268 -198T300 -187T326 -173T344 -159L364 -193Z"  />
<glyph unicode="&#xC0;" horiz-adv-x="671" d="M194 885L217 934L444 873L432 842L194 885ZM356 620Q351 631 345 647T336 670L316 620L164 268H507L356 620ZM623 0L526 224H145L48 0H-3L336 777L673 0H623Z"  />
<glyph unicode="&#xC1;" horiz-adv-x="671" d="M221 842L209 873L436 934L459 885L221 842ZM356 620Q351 631 345 647T336 670L316 620L164 268H507L356 620ZM623 0L526 224H145L48 0H-3L336 777L673 0H623Z"  />
<glyph unicode="&#xC2;" horiz-adv-x="671" d="M335 880L182 811L167 834L335 932H336L503 840L484 818L335 880ZM356 620Q351 631 345 647T336 670L316 620L164 268H507L356 620ZM623 0L526 224H145L48 0H-3L336 777L673 0H623Z"  />
<glyph unicode="&#xC3;" horiz-adv-x="671" d="M507 893Q502 887 491 877T465 856T435 839T402 832Q387 832 372 840T341 857T309 874T276 882Q265 882 253 877T229 865T207 850T191 836L172 863Q179 871 191 881T218 902T249 918T280 925Q297 925 313 917T346 900T376 882T405 874Q418 874 431 880T455 894T475 910T489 923L507 893ZM356 620Q351 631 345 647T336 670L316 620L164 268H507L356 620ZM623 0L526 224H145L48 0H-3L336 777L673 0H623Z"  />
<glyph unicode="&#xC4;" horiz-adv-x="671" d="M241 886Q241 871 230 860T202 849Q187 849 176 860T165 886Q165 903 176 914T202 925Q219 925 230 914T241 886ZM505 886Q505 871 495 860T466 849Q450 849 440 860T430 886Q430 903 440 914T466 925Q484 925 494 914T505 886ZM356 620Q351 631 345 647T336 670L316 620L164 268H507L356 620ZM623 0L526 224H145L48 0H-3L336 777L673 0H623Z"  />
<glyph unicode="&#xC5;" horiz-adv-x="671" d="M406 901Q406 930 386 950T336 971Q307 971 287 951T267 901Q267 873 287 852T336 831Q365 831 385 852T406 901ZM439 900Q439 879 431 860T409 827T376 805T335 797Q313 797 294 805T261 827T239 860T231 900Q231 922 239 941T261 974T295 996T335 1004Q357 1004 376 996T409 973T431 940T439 900ZM356 620Q351 631 345 647T336 670L316 620L164 268H507L356 620ZM623 0L526 224H145L48 0H-3L336 777L673 0H623Z"  />
<glyph unicode="&#xC6;" horiz-adv-x="881" d="M440 682L197 268H440V682ZM440 1V224H172L41 0H-10L430 756H813V713H488V429H749V385H488V44H847V1H440Z"  />
<glyph unicode="&#xC7;" horiz-adv-x="746" d="M346 -226L414 -69H465L388 -226H346ZM698 80Q646 35 584 11T450 -13Q365 -13 293 18T168 102T85 226T55 378Q55 459 85 530T167 655T292 739T450 770Q521 770 583 746T698 676L669 640Q653 656 632 671T583 699T520 718T441 725Q370 725 309 700T203 628T131 516T105 373Q105 300 132 238T207 129T317 57T451 31Q519 31 576 53T675 113L698 80Z"  />
<glyph unicode="&#xC8;" horiz-adv-x="547" d="M106 1V756H479V713H154V429H415V385H154V44H512V1H106ZM170 880L193 929L420 878L408 847L170 880Z"  />
<glyph unicode="&#xC9;" horiz-adv-x="547" d="M106 1V756H479V713H154V429H415V385H154V44H512V1H106ZM182 842L170 873L397 934L420 885L182 842Z"  />
<glyph unicode="&#xCA;" horiz-adv-x="547" d="M292 880L139 811L124 834L292 932H293L460 834L441 812L292 880ZM106 1V756H479V713H154V429H415V385H154V44H512V1H106Z"  />
<glyph unicode="&#xCB;" horiz-adv-x="547" d="M106 1V756H479V713H154V429H415V385H154V44H512V1H106ZM449 876Q449 861 439 850T410 839Q394 839 384 850T374 876Q374 893 384 904T410 915Q428 915 438 904T449 876ZM195 876Q195 861 184 850T156 839Q141 839 130 850T119 876Q119 893 130 904T156 915Q173 915 184 904T195 876Z"  />
<glyph unicode="&#xCC;" horiz-adv-x="260" d="M106 0V757H154V0H106ZM28 880L51 929L228 878L216 847L28 880Z"  />
<glyph unicode="&#xCD;" horiz-adv-x="260" d="M106 0V757H154V0H106ZM40 847L28 878L205 929L228 880L40 847Z"  />
<glyph unicode="&#xCE;" horiz-adv-x="260" d="M106 0V757H154V0H106ZM129 880L41 811L26 834L129 932H130L231 836L212 814L129 880Z"  />
<glyph unicode="&#xCF;" horiz-adv-x="260" d="M106 0V757H154V0H106ZM235 846Q235 831 225 820T196 809Q180 809 170 820T160 846Q160 863 170 874T196 885Q214 885 224 874T235 846ZM101 846Q101 831 90 820T62 809Q47 809 36 820T25 846Q25 863 36 874T62 885Q79 885 90 874T101 846Z"  />
<glyph unicode="&#xD0;" horiz-adv-x="727" d="M246 44Q328 44 396 64T514 127T591 232T619 381Q619 466 589 529T509 632T391 693T248 713H154V397H363V358H154V44H246ZM106 0V358H36V397H106V757H261Q345 757 419 733T548 661T636 542T669 378Q669 291 640 221T558 102T432 27T271 0H106Z"  />
<glyph unicode="&#xD1;" horiz-adv-x="847" d="M154 647V0H106V775L694 106V757H742V-25L154 647ZM599 893Q594 887 583 877T557 856T527 839T494 832Q479 832 464 840T433 857T401 874T368 882Q357 882 345 877T321 865T299 850T283 836L264 863Q271 871 283 881T310 902T341 918T372 925Q389 925 405 917T438 900T468 882T497 874Q510 874 523 880T547 894T567 910T581 923L599 893Z"  />
<glyph unicode="&#xD2;" horiz-adv-x="903" d="M798 376Q798 452 771 516T696 627T587 699T453 725Q380 725 317 699T206 628T132 519T105 382Q105 312 131 249T204 137T312 60T446 31Q521 31 585 57T697 130T771 239T798 376ZM848 375Q848 294 817 223T732 100T606 17T453 -13Q369 -13 297 17T171 101T86 225T55 378Q55 460 86 531T170 656T296 739T453 770Q536 770 608 741T733 659T817 534T848 375ZM298 885L321 934L548 873L536 842L298 885Z"  />
<glyph unicode="&#xD3;" horiz-adv-x="903" d="M798 376Q798 452 771 516T696 627T587 699T453 725Q380 725 317 699T206 628T132 519T105 382Q105 312 131 249T204 137T312 60T446 31Q521 31 585 57T697 130T771 239T798 376ZM848 375Q848 294 817 223T732 100T606 17T453 -13Q369 -13 297 17T171 101T86 225T55 378Q55 460 86 531T170 656T296 739T453 770Q536 770 608 741T733 659T817 534T848 375ZM335 842L323 873L550 934L573 885L335 842Z"  />
<glyph unicode="&#xD4;" horiz-adv-x="903" d="M449 880L296 811L281 834L449 932H450L617 840L598 818L449 880ZM798 376Q798 452 771 516T696 627T587 699T453 725Q380 725 317 699T206 628T132 519T105 382Q105 312 131 249T204 137T312 60T446 31Q521 31 585 57T697 130T771 239T798 376ZM848 375Q848 294 817 223T732 100T606 17T453 -13Q369 -13 297 17T171 101T86 225T55 378Q55 460 86 531T170 656T296 739T453 770Q536 770 608 741T733 659T817 534T848 375Z"  />
<glyph unicode="&#xD5;" horiz-adv-x="903" d="M798 376Q798 452 771 516T696 627T587 699T453 725Q380 725 317 699T206 628T132 519T105 382Q105 312 131 249T204 137T312 60T446 31Q521 31 585 57T697 130T771 239T798 376ZM848 375Q848 294 817 223T732 100T606 17T453 -13Q369 -13 297 17T171 101T86 225T55 378Q55 460 86 531T170 656T296 739T453 770Q536 770 608 741T733 659T817 534T848 375ZM620 893Q615 887 604 877T578 856T548 839T515 832Q500 832 485 840T454 857T422 874T389 882Q378 882 366 877T342 865T320 850T304 836L285 863Q292 871 304 881T331 902T362 918T393 925Q410 925 426 917T459 900T489 882T518 874Q531 874 544 880T568 894T588 910T602 923L620 893Z"  />
<glyph unicode="&#xD6;" horiz-adv-x="903" d="M798 376Q798 452 771 516T696 627T587 699T453 725Q380 725 317 699T206 628T132 519T105 382Q105 312 131 249T204 137T312 60T446 31Q521 31 585 57T697 130T771 239T798 376ZM848 375Q848 294 817 223T732 100T606 17T453 -13Q369 -13 297 17T171 101T86 225T55 378Q55 460 86 531T170 656T296 739T453 770Q536 770 608 741T733 659T817 534T848 375ZM691 882Q691 867 681 856T652 845Q636 845 626 856T616 882Q616 899 626 910T652 921Q670 921 680 910T691 882ZM272 882Q272 867 261 856T233 845Q218 845 207 856T196 882Q196 899 207 910T233 921Q250 921 261 910T272 882Z"  />
<glyph unicode="&#xD7;" horiz-adv-x="642" d="M525 128L322 333L117 128L84 159L294 364L87 569L117 601L324 396L525 601L555 569L352 365L558 159L525 128Z"  />
<glyph unicode="&#xD8;" horiz-adv-x="903" d="M346 47Q390 31 446 31Q521 31 585 57T697 130T771 239T798 376Q798 430 784 478T745 567T684 638T606 690L346 47ZM569 706Q541 715 512 720T453 725Q380 725 317 699T206 628T132 519T105 382Q105 330 120 281T162 190T226 115T309 61L569 706ZM230 -136L292 19Q239 41 196 77T121 160T72 262T55 378Q55 460 86 531T170 656T296 739T453 770Q488 770 521 765T586 748L641 885L678 869L623 734Q673 711 714 676T785 594T831 492T848 375Q848 294 817 223T732 100T606 17T453 -13Q420 -13 389 -8T329 6L267 -149L230 -136Z"  />
<glyph unicode="&#xD9;" horiz-adv-x="740" d="M590 757H638V81Q605 42 538 15T368 -13Q306 -13 256 5T171 58T118 147T99 272V757H147V285Q147 216 162 168T208 89T284 45T391 31Q416 31 444 34T499 45T549 65T590 95V757ZM229 885L252 934L479 873L467 842L229 885Z"  />
<glyph unicode="&#xDA;" horiz-adv-x="740" d="M590 757H638V81Q605 42 538 15T368 -13Q306 -13 256 5T171 58T118 147T99 272V757H147V285Q147 216 162 168T208 89T284 45T391 31Q416 31 444 34T499 45T549 65T590 95V757ZM271 842L259 873L486 934L509 885L271 842Z"  />
<glyph unicode="&#xDB;" horiz-adv-x="740" d="M372 880L219 811L204 834L372 932H373L540 840L521 818L372 880ZM590 757H638V81Q605 42 538 15T368 -13Q306 -13 256 5T171 58T118 147T99 272V757H147V285Q147 216 162 168T208 89T284 45T391 31Q416 31 444 34T499 45T549 65T590 95V757Z"  />
<glyph unicode="&#xDC;" horiz-adv-x="740" d="M590 757H638V81Q605 42 538 15T368 -13Q306 -13 256 5T171 58T118 147T99 272V757H147V285Q147 216 162 168T208 89T284 45T391 31Q416 31 444 34T499 45T549 65T590 95V757ZM643 881Q643 866 633 855T604 844Q588 844 578 855T568 881Q568 898 578 909T604 920Q622 920 632 909T643 881ZM172 881Q172 866 161 855T133 844Q118 844 107 855T96 881Q96 898 107 909T133 920Q150 920 161 909T172 881Z"  />
<glyph unicode="&#xDD;" horiz-adv-x="523" d="M237 0V328L-3 757H54L258 392Q260 390 261 388T263 377Q264 385 265 387T268 392L474 757H528L285 328V0H237ZM247 734L227 751L345 905L386 872L247 734Z"  />
<glyph unicode="&#xDE;" horiz-adv-x="542" d="M226 199Q332 199 394 247T456 388Q456 430 441 462T398 515T333 548T250 559H154V199H226ZM106 0V757H154V603H240Q291 603 338 592T423 555T482 488T505 389Q505 339 488 297T437 223T349 173T224 155H154V0H106Z"  />
<glyph unicode="&#xDF;" horiz-adv-x="516" d="M218 -209Q249 -204 287 -186T358 -138T413 -65T436 30Q436 60 428 85T403 129T360 158T297 169Q277 169 255 166T206 156L379 429H148V0H104V429H28V470H104V619Q104 719 144 768Q164 792 193 803T253 815Q281 815 300 809T326 797L305 755Q300 759 285 765T247 771Q196 771 172 733T148 629V470H458L281 209Q297 212 314 212Q351 212 382 198T435 159T469 100T481 27Q481 -38 452 -87T381 -169T294 -222T216 -246L218 -209Z"  />
<glyph unicode="&#xE0;" horiz-adv-x="503" d="M391 209Q380 219 365 230T331 251T287 267T234 273Q209 273 183 267T134 246T97 210T82 158Q82 125 94 101T128 61T177 37T235 29Q288 29 326 42T391 76V209ZM391 324Q391 375 354 408T248 442Q224 442 203 439T164 431T134 421T116 414L96 449Q118 460 155 471T246 483Q303 483 339 471T397 435T426 381T435 311V57Q400 23 348 6T233 -12Q182 -12 145 2T84 39T48 94T36 158Q36 197 55 226T103 275T167 303T232 313Q279 313 320 298T391 254V324ZM298 583L160 721L201 754L319 600L298 583Z"  />
<glyph unicode="&#xE1;" horiz-adv-x="503" d="M391 209Q380 219 365 230T331 251T287 267T234 273Q209 273 183 267T134 246T97 210T82 158Q82 125 94 101T128 61T177 37T235 29Q288 29 326 42T391 76V209ZM391 324Q391 375 354 408T248 442Q224 442 203 439T164 431T134 421T116 414L96 449Q118 460 155 471T246 483Q303 483 339 471T397 435T426 381T435 311V57Q400 23 348 6T233 -12Q182 -12 145 2T84 39T48 94T36 158Q36 197 55 226T103 275T167 303T232 313Q279 313 320 298T391 254V324ZM220 583L200 600L318 754L359 721L220 583Z"  />
<glyph unicode="&#xE2;" horiz-adv-x="503" d="M377 576L255 678L133 576L107 598L255 731H256L403 598L377 576ZM391 209Q380 219 365 230T331 251T287 267T234 273Q209 273 183 267T134 246T97 210T82 158Q82 125 94 101T128 61T177 37T235 29Q288 29 326 42T391 76V209ZM391 324Q391 375 354 408T248 442Q224 442 203 439T164 431T134 421T116 414L96 449Q118 460 155 471T246 483Q303 483 339 471T397 435T426 381T435 311V57Q400 23 348 6T233 -12Q182 -12 145 2T84 39T48 94T36 158Q36 197 55 226T103 275T167 303T232 313Q279 313 320 298T391 254V324Z"  />
<glyph unicode="&#xE3;" horiz-adv-x="503" d="M391 209Q380 219 365 230T331 251T287 267T234 273Q209 273 183 267T134 246T97 210T82 158Q82 125 94 101T128 61T177 37T235 29Q288 29 326 42T391 76V209ZM391 324Q391 375 354 408T248 442Q224 442 203 439T164 431T134 421T116 414L96 449Q118 460 155 471T246 483Q303 483 339 471T397 435T426 381T435 311V57Q400 23 348 6T233 -12Q182 -12 145 2T84 39T48 94T36 158Q36 197 55 226T103 275T167 303T232 313Q279 313 320 298T391 254V324ZM405 638Q400 632 391 623T368 606T340 591T309 585Q295 585 281 592T252 608T222 624T191 632Q180 632 169 627T147 616T127 602T112 589L94 613Q100 620 111 630T136 649T165 664T195 671Q211 671 226 664T256 647T285 631T312 623Q326 623 338 628T359 639T376 653T388 665L405 638Z"  />
<glyph unicode="&#xE4;" horiz-adv-x="503" d="M391 209Q380 219 365 230T331 251T287 267T234 273Q209 273 183 267T134 246T97 210T82 158Q82 125 94 101T128 61T177 37T235 29Q288 29 326 42T391 76V209ZM391 324Q391 375 354 408T248 442Q224 442 203 439T164 431T134 421T116 414L96 449Q118 460 155 471T246 483Q303 483 339 471T397 435T426 381T435 311V57Q400 23 348 6T233 -12Q182 -12 145 2T84 39T48 94T36 158Q36 197 55 226T103 275T167 303T232 313Q279 313 320 298T391 254V324ZM165 630Q165 615 154 604T126 593Q111 593 100 604T89 630Q89 647 100 658T126 669Q143 669 154 658T165 630ZM384 630Q384 615 374 604T345 593Q329 593 319 604T309 630Q309 647 319 658T345 669Q363 669 373 658T384 630Z"  />
<glyph unicode="&#xE5;" horiz-adv-x="503" d="M391 209Q380 219 365 230T331 251T287 267T234 273Q209 273 183 267T134 246T97 210T82 158Q82 125 94 101T128 61T177 37T235 29Q288 29 326 42T391 76V209ZM391 324Q391 375 354 408T248 442Q224 442 203 439T164 431T134 421T116 414L96 449Q118 460 155 471T246 483Q303 483 339 471T397 435T426 381T435 311V57Q400 23 348 6T233 -12Q182 -12 145 2T84 39T48 94T36 158Q36 197 55 226T103 275T167 303T232 313Q279 313 320 298T391 254V324ZM355 655Q355 634 347 615T325 582T292 560T251 552Q229 552 210 560T177 582T155 615T147 655Q147 677 155 696T177 729T211 751T251 759Q273 759 292 751T325 728T347 695T355 655ZM322 656Q322 685 302 705T252 726Q223 726 203 706T183 656Q183 628 203 607T252 586Q281 586 301 607T322 656Z"  />
<glyph unicode="&#xE6;" horiz-adv-x="871" d="M780 284Q776 316 764 344T732 395T682 429T615 442Q574 442 543 429T490 395T455 344T438 284H780ZM407 138Q402 152 398 171T392 210Q369 231 330 252T234 273Q209 273 183 267T134 246T97 210T82 158Q82 125 94 101T128 61T177 37T235 29Q265 29 296 41T351 70T391 105T407 138ZM814 74Q786 36 736 12T620 -12Q553 -12 506 15T427 91Q416 73 398 55T354 22T298 -2T233 -12Q182 -12 145 2T84 39T48 94T36 158Q36 197 55 226T103 275T167 303T232 313Q287 313 322 298T391 257V324Q391 375 354 408T248 442Q224 442 203 439T164 431T134 421T116 414L96 449Q118 460 155 471T246 483Q329 483 371 457T427 379Q457 428 503 455T619 483Q673 483 712 463T776 411T814 338T826 253V244H435V231Q435 178 451 140T494 78T556 41T629 29Q661 29 686 36T732 53T766 76T789 100L814 74Z"  />
<glyph unicode="&#xE7;" horiz-adv-x="511" d="M195 -216L263 -59H314L237 -216H195ZM480 70Q447 26 397 7T291 -12Q239 -12 195 6T117 57T66 135T47 234Q47 288 65 333T116 412T194 464T294 483Q328 483 356 475T405 456T439 435T457 418L431 388Q427 392 416 401T386 419T344 435T290 442Q255 442 220 430T157 392T111 327T93 234Q93 185 109 147T153 83T217 43T295 29Q355 29 392 48T457 97L480 70Z"  />
<glyph unicode="&#xE8;" horiz-adv-x="537" d="M301 583L163 721L204 754L322 600L301 583ZM445 284Q441 316 429 344T397 395T348 429T281 442Q245 442 215 432T163 403T125 361T102 310Q100 304 99 298T97 284H445ZM480 74Q452 36 402 12T286 -12Q235 -12 192 5T116 55T66 133T48 232Q48 288 64 334T111 413T186 464T285 483Q339 483 378 463T442 411T480 338T492 253V244H94Q94 234 94 226T95 213Q98 167 115 133T160 75T222 41T295 29Q327 29 352 36T398 53T432 76T455 100L480 74Z"  />
<glyph unicode="&#xE9;" horiz-adv-x="537" d="M223 583L203 600L321 754L362 721L223 583ZM445 284Q441 316 429 344T397 395T348 429T281 442Q245 442 215 432T163 403T125 361T102 310Q100 304 99 298T97 284H445ZM480 74Q452 36 402 12T286 -12Q235 -12 192 5T116 55T66 133T48 232Q48 288 64 334T111 413T186 464T285 483Q339 483 378 463T442 411T480 338T492 253V244H94Q94 234 94 226T95 213Q98 167 115 133T160 75T222 41T295 29Q327 29 352 36T398 53T432 76T455 100L480 74Z"  />
<glyph unicode="&#xEA;" horiz-adv-x="537" d="M394 576L272 678L150 576L124 598L272 731H273L420 598L394 576ZM445 284Q441 316 429 344T397 395T348 429T281 442Q245 442 215 432T163 403T125 361T102 310Q100 304 99 298T97 284H445ZM480 74Q452 36 402 12T286 -12Q235 -12 192 5T116 55T66 133T48 232Q48 288 64 334T111 413T186 464T285 483Q339 483 378 463T442 411T480 338T492 253V244H94Q94 234 94 226T95 213Q98 167 115 133T160 75T222 41T295 29Q327 29 352 36T398 53T432 76T455 100L480 74Z"  />
<glyph unicode="&#xEB;" horiz-adv-x="537" d="M420 630Q420 615 410 604T381 593Q365 593 355 604T345 630Q345 647 355 658T381 669Q399 669 409 658T420 630ZM201 630Q201 615 190 604T162 593Q147 593 136 604T125 630Q125 647 136 658T162 669Q179 669 190 658T201 630ZM445 284Q441 316 429 344T397 395T348 429T281 442Q245 442 215 432T163 403T125 361T102 310Q100 304 99 298T97 284H445ZM480 74Q452 36 402 12T286 -12Q235 -12 192 5T116 55T66 133T48 232Q48 288 64 334T111 413T186 464T285 483Q339 483 378 463T442 411T480 338T492 253V244H94Q94 234 94 226T95 213Q98 167 115 133T160 75T222 41T295 29Q327 29 352 36T398 53T432 76T455 100L480 74Z"  />
<glyph unicode="&#xEC;" horiz-adv-x="210" d="M142 583L4 721L45 754L163 600L142 583ZM83 0V471H127V0H83Z"  />
<glyph unicode="&#xED;" horiz-adv-x="210" d="M68 583L48 600L166 754L207 721L68 583ZM83 0V471H127V0H83Z"  />
<glyph unicode="&#xEE;" horiz-adv-x="210" d="M207 586L105 688L3 586L-23 608L105 741H106L233 608L207 586ZM83 0V471H127V0H83Z"  />
<glyph unicode="&#xEF;" horiz-adv-x="210" d="M223 630Q223 615 213 604T184 593Q168 593 158 604T148 630Q148 647 158 658T184 669Q202 669 212 658T223 630ZM64 630Q64 615 53 604T25 593Q10 593 -1 604T-12 630Q-12 647 -1 658T25 669Q42 669 53 658T64 630ZM83 0V471H127V0H83Z"  />
<glyph unicode="&#xF0;" horiz-adv-x="599" d="M297 30Q337 30 374 43T439 83T483 148T500 235Q500 277 485 314T442 379T377 424T296 441Q248 441 210 425T146 380T106 314T92 233Q92 197 106 161T147 96T212 48T297 30ZM367 665Q398 617 430 562T487 449T529 337T546 235Q546 185 528 140T476 61T398 8T298 -12Q241 -12 195 8T116 63T65 142T47 235Q47 284 65 329T116 408T195 462T298 483Q313 483 333 481T377 470T422 446T465 402Q451 433 434 466T399 532T362 593T329 643L211 571L190 601L312 673Q277 725 246 765T197 820H257Q265 811 290 778T347 694L468 766L487 736L367 665Z"  />
<glyph unicode="&#xF1;" horiz-adv-x="538" d="M419 638Q414 632 405 623T382 606T354 591T323 585Q309 585 295 592T266 608T236 624T205 632Q194 632 183 627T161 616T141 602T126 589L108 613Q114 620 125 630T150 649T179 664T209 671Q225 671 240 664T270 647T299 631T326 623Q340 623 352 628T373 639T390 653T402 665L419 638ZM419 0V288Q419 370 386 404T278 439Q249 439 225 432T181 415T147 394T123 373V0H79V471H123V420Q133 429 148 440T183 460T229 476T285 483Q370 483 416 441T463 306V0H419Z"  />
<glyph unicode="&#xF2;" horiz-adv-x="593" d="M333 583L195 721L236 754L354 600L333 583ZM500 235Q500 280 484 317T439 382T374 425T295 441Q250 441 213 426T148 382T107 316T92 232Q92 188 109 151T154 87T218 45T295 30Q340 30 378 45T443 87T485 151T500 235ZM546 235Q546 183 527 138T474 60T395 7T297 -12Q244 -12 199 7T120 59T67 137T47 235Q47 288 66 333T119 412T198 464T297 483Q349 483 394 464T474 411T527 332T546 235Z"  />
<glyph unicode="&#xF3;" horiz-adv-x="593" d="M257 583L237 600L355 754L396 721L257 583ZM500 235Q500 280 484 317T439 382T374 425T295 441Q250 441 213 426T148 382T107 316T92 232Q92 188 109 151T154 87T218 45T295 30Q340 30 378 45T443 87T485 151T500 235ZM546 235Q546 183 527 138T474 60T395 7T297 -12Q244 -12 199 7T120 59T67 137T47 235Q47 288 66 333T119 412T198 464T297 483Q349 483 394 464T474 411T527 332T546 235Z"  />
<glyph unicode="&#xF4;" horiz-adv-x="593" d="M420 576L298 678L176 576L150 598L298 731H299L446 598L420 576ZM500 235Q500 280 484 317T439 382T374 425T295 441Q250 441 213 426T148 382T107 316T92 232Q92 188 109 151T154 87T218 45T295 30Q340 30 378 45T443 87T485 151T500 235ZM546 235Q546 183 527 138T474 60T395 7T297 -12Q244 -12 199 7T120 59T67 137T47 235Q47 288 66 333T119 412T198 464T297 483Q349 483 394 464T474 411T527 332T546 235Z"  />
<glyph unicode="&#xF5;" horiz-adv-x="593" d="M452 638Q447 632 438 623T415 606T387 591T356 585Q342 585 328 592T299 608T269 624T238 632Q227 632 216 627T194 616T174 602T159 589L141 613Q147 620 158 630T183 649T212 664T242 671Q258 671 273 664T303 647T332 631T359 623Q373 623 385 628T406 639T423 653T435 665L452 638ZM500 235Q500 280 484 317T439 382T374 425T295 441Q250 441 213 426T148 382T107 316T92 232Q92 188 109 151T154 87T218 45T295 30Q340 30 378 45T443 87T485 151T500 235ZM546 235Q546 183 527 138T474 60T395 7T297 -12Q244 -12 199 7T120 59T67 137T47 235Q47 288 66 333T119 412T198 464T297 483Q349 483 394 464T474 411T527 332T546 235Z"  />
<glyph unicode="&#xF6;" horiz-adv-x="593" d="M444 630Q444 615 434 604T405 593Q389 593 379 604T369 630Q369 647 379 658T405 669Q423 669 433 658T444 630ZM225 630Q225 615 214 604T186 593Q171 593 160 604T149 630Q149 647 160 658T186 669Q203 669 214 658T225 630ZM500 235Q500 280 484 317T439 382T374 425T295 441Q250 441 213 426T148 382T107 316T92 232Q92 188 109 151T154 87T218 45T295 30Q340 30 378 45T443 87T485 151T500 235ZM546 235Q546 183 527 138T474 60T395 7T297 -12Q244 -12 199 7T120 59T67 137T47 235Q47 288 66 333T119 412T198 464T297 483Q349 483 394 464T474 411T527 332T546 235Z"  />
<glyph unicode="&#xF7;" horiz-adv-x="691" d="M96 342V384H596V342H96ZM384 549Q384 535 374 524T346 513Q332 513 322 524T311 549Q311 565 321 576T346 587Q364 587 374 576T384 549ZM384 173Q384 158 374 147T346 136Q332 136 322 147T311 173Q311 187 321 199T346 211Q363 211 373 200T384 173Z"  />
<glyph unicode="&#xF8;" horiz-adv-x="593" d="M234 39Q264 30 295 30Q340 30 378 45T443 87T485 151T500 235Q500 292 474 336T406 408L234 39ZM373 425Q333 441 295 441Q250 441 213 426T148 382T107 316T92 232Q92 172 122 125T200 53L373 425ZM114 -132L182 14Q121 44 84 102T47 235Q47 288 66 333T119 412T198 464T297 483Q322 483 345 478T391 465L464 621L498 604L425 448Q480 416 513 360T546 235Q546 183 527 138T474 60T395 7T297 -12Q276 -12 256 -9T216 0L148 -146L114 -132Z"  />
<glyph unicode="&#xF9;" horiz-adv-x="538" d="M307 583L169 721L210 754L328 600L307 583ZM417 471H461V54Q427 22 381 5T269 -12Q226 -12 191 -1T130 32T90 89T75 168V471H119V178Q119 103 159 66T268 29Q325 29 360 43T417 73V471Z"  />
<glyph unicode="&#xFA;" horiz-adv-x="538" d="M231 583L211 600L329 754L370 721L231 583ZM417 471H461V54Q427 22 381 5T269 -12Q226 -12 191 -1T130 32T90 89T75 168V471H119V178Q119 103 159 66T268 29Q325 29 360 43T417 73V471Z"  />
<glyph unicode="&#xFB;" horiz-adv-x="538" d="M394 576L272 678L150 576L124 598L272 731H273L420 598L394 576ZM417 471H461V54Q427 22 381 5T269 -12Q226 -12 191 -1T130 32T90 89T75 168V471H119V178Q119 103 159 66T268 29Q325 29 360 43T417 73V471Z"  />
<glyph unicode="&#xFC;" horiz-adv-x="538" d="M416 630Q416 615 406 604T377 593Q361 593 351 604T341 630Q341 647 351 658T377 669Q395 669 405 658T416 630ZM197 630Q197 615 186 604T158 593Q143 593 132 604T121 630Q121 647 132 658T158 669Q175 669 186 658T197 630ZM417 471H461V54Q427 22 381 5T269 -12Q226 -12 191 -1T130 32T90 89T75 168V471H119V178Q119 103 159 66T268 29Q325 29 360 43T417 73V471Z"  />
<glyph unicode="&#xFD;" horiz-adv-x="466" d="M226 583L206 600L324 754L365 721L226 583ZM55 -260L201 37L9 471H58L226 82L412 471H460L101 -260H55Z"  />
<glyph unicode="&#xFE;" horiz-adv-x="575" d="M123 119Q148 82 194 56T298 29Q335 29 368 42T427 82T467 146T482 232Q482 277 467 315T425 382T357 426T266 442Q245 442 224 438T184 428T149 414T123 398V119ZM79 -255V820H123V446Q158 465 195 474T272 483Q321 483 367 468T449 421T506 343T528 233Q528 184 513 140T468 62T396 8T298 -12Q271 -12 246 -6T197 9T155 32T123 59V-255H79Z"  />
<glyph unicode="&#xFF;" horiz-adv-x="466" d="M374 630Q374 615 364 604T335 593Q319 593 309 604T299 630Q299 647 309 658T335 669Q353 669 363 658T374 630ZM155 630Q155 615 144 604T116 593Q101 593 90 604T79 630Q79 647 90 658T116 669Q133 669 144 658T155 630ZM55 -260L201 37L9 471H58L226 82L412 471H460L101 -260H55Z"  />
<glyph unicode="&#x152;" horiz-adv-x="1239" d="M798 376Q798 452 771 516T696 627T587 699T453 725Q380 725 317 699T206 628T132 519T105 382Q105 312 131 249T204 137T312 60T446 31Q521 31 585 57T697 130T771 239T798 376ZM798 1V200Q775 149 739 110T657 43T559 1T453 -13Q369 -13 297 17T171 101T86 225T55 378Q55 460 86 531T170 656T296 739T453 770Q508 770 560 756T656 715T737 648T798 554V756H1171V713H846V429H1107V385H846V44H1204V1H798Z"  />
<glyph unicode="&#x153;" horiz-adv-x="989" d="M897 284Q893 316 881 344T849 395T800 429T733 442Q698 442 667 432T612 401T571 351T549 284H897ZM295 30Q339 30 376 44T441 86T484 153T500 243Q500 286 483 322T438 385T372 426T295 441Q250 441 213 426T148 382T107 316T92 232Q92 188 109 151T154 87T218 45T295 30ZM932 74Q904 36 854 12T738 -12Q663 -12 606 24T521 125Q491 63 432 26T297 -12Q244 -12 199 7T120 59T67 137T47 235Q47 288 66 333T119 412T198 464T297 483Q372 483 431 445T521 345Q547 409 602 446T737 483Q791 483 830 463T894 411T932 338T944 253V244H546Q546 230 546 223T547 213Q550 167 567 133T612 75T674 41T747 29Q779 29 804 36T850 53T884 76T907 100L932 74Z"  />
<glyph unicode="&#x160;" horiz-adv-x="533" d="M68 119Q78 106 94 91T134 62T189 41T262 32Q298 32 329 43T383 74T419 122T432 187Q432 243 406 279T341 340T255 386T170 432T104 493T78 585Q78 631 95 666T140 724T205 760T282 772Q315 772 343 765T393 747T432 724T459 701L429 668Q406 691 372 709T282 728Q252 728 225 720T176 695T141 652T128 592Q128 556 143 530T184 485T241 450T306 418T371 382T428 337T468 274T484 188Q484 151 469 115T425 51T354 5T258 -13Q219 -13 184 -4T119 19T69 51T37 84L68 119ZM281 816L113 914L128 937L285 867L430 938L449 916L281 816Z"  />
<glyph unicode="&#x161;" horiz-adv-x="393" d="M203 576H202L54 709L80 731L202 629L324 731L350 709L203 576ZM58 90Q66 81 77 70T103 50T140 34T189 27Q239 27 271 53T303 132Q303 160 286 179T242 212T186 238T129 266T86 304T68 362Q68 388 77 410T105 448T148 474T206 484Q245 484 281 467T336 428L313 395Q308 400 298 408T274 425T241 439T203 445Q177 445 159 438T131 419T116 393T111 367Q111 341 128 324T172 293T230 265T287 235T331 193T349 132Q349 99 337 73T303 27T252 -2T188 -13Q158 -13 133 -7T88 10T53 34T29 60L58 90Z"  />
<glyph unicode="&#x178;" horiz-adv-x="523" d="M237 0V328L-3 757H54L258 392Q260 390 261 388T263 377Q264 385 265 387T268 392L474 757H528L285 328V0H237ZM118 882Q118 867 107 856T79 845Q64 845 53 856T42 882Q42 899 53 910T79 921Q96 921 107 910T118 882ZM483 882Q483 867 473 856T444 845Q428 845 418 856T408 882Q408 899 418 910T444 921Q462 921 472 910T483 882Z"  />
<glyph unicode="&#x17D;" horiz-adv-x="557" d="M4 1L433 713H75V756H516L87 44H527V1H4ZM284 816L116 914L131 937L288 867L433 938L452 916L284 816Z"  />
<glyph unicode="&#x17E;" horiz-adv-x="432" d="M223 576H222L74 709L100 731L222 629L344 731L370 709L223 576ZM15 1L324 429H60V470H403L95 42H392V1H15Z"  />
<glyph unicode="&#x192;" horiz-adv-x="287" d="M-90 -226Q-87 -227 -79 -228T-63 -230Q-36 -230 -18 -215T13 -176T34 -120T48 -56L137 437H50L57 476H144L159 561Q169 617 180 668T212 759T263 821T345 845Q351 845 363 843T378 840L372 799Q370 799 359 800T340 802Q297 802 273 775T233 703T209 599T188 476H275L268 437H181L93 -59Q87 -94 77 -131T49 -199T4 -249T-63 -269Q-72 -269 -82 -267T-95 -263L-90 -226Z"  />
<glyph unicode="&#x2C6;" horiz-adv-x="445" d="M348 586L226 688L104 586L78 608L226 741H227L374 608L348 586Z"  />
<glyph unicode="&#x2DC;" horiz-adv-x="371" d="M360 638Q355 632 346 623T323 606T295 591T264 585Q250 585 236 592T207 608T177 624T146 632Q135 632 124 627T102 616T82 602T67 589L49 613Q55 620 66 630T91 649T120 664T150 671Q166 671 181 664T211 647T240 631T267 623Q281 623 293 628T314 639T331 653T343 665L360 638Z"  />
<glyph unicode="&#x2013;" horiz-adv-x="594" d="M72 227L77 267H522L517 227H72Z"  />
<glyph unicode="&#x2014;" horiz-adv-x="854" d="M72 227L77 267H782L777 227H72Z"  />
<glyph unicode="&#x2018;" horiz-adv-x="215" d="M55 575L127 757H169L106 575H55Z"  />
<glyph unicode="&#x2019;" horiz-adv-x="214" d="M57 575L120 757H171L99 575H57Z"  />
<glyph unicode="&#x201A;" horiz-adv-x="217" d="M36 -60L99 122H150L78 -60H36Z"  />
<glyph unicode="&#x201C;" horiz-adv-x="360" d="M200 575L272 757H314L251 575H200ZM55 575L127 757H169L106 575H55Z"  />
<glyph unicode="&#x201D;" horiz-adv-x="359" d="M57 575L120 757H171L99 575H57ZM202 575L265 757H316L244 575H202Z"  />
<glyph unicode="&#x201E;" horiz-adv-x="362" d="M36 -62L99 120H150L78 -62H36ZM181 -62L244 120H295L223 -62H181Z"  />
<glyph unicode="&#x2020;" horiz-adv-x="455" d="M206 63V561H59V600H206V815H245V600H396V561H245V63H206Z"  />
<glyph unicode="&#x2021;" horiz-adv-x="477" d="M217 63V258H70V297H217V586H70V625H217V820H256V625H407V586H256V297H407V258H256V63H217Z"  />
<glyph unicode="&#x2022;" horiz-adv-x="503" d="M251 182Q209 182 180 211T151 282Q151 324 180 353T251 382Q293 382 322 353T351 282Q351 240 322 211T251 182Z"  />
<glyph unicode="&#x2026;" horiz-adv-x="912" d="M500 33Q500 16 488 3T456 -10Q438 -10 425 3T412 33Q412 53 425 65T456 78Q475 78 487 66T500 33ZM158 33Q158 16 146 3T114 -10Q96 -10 83 3T70 33Q70 53 83 65T114 78Q133 78 145 66T158 33ZM842 33Q842 16 830 3T798 -10Q780 -10 767 3T754 33Q754 53 767 65T798 78Q817 78 829 66T842 33Z"  />
<glyph unicode="&#x2030;" horiz-adv-x="1232" d="M635 23Q658 23 677 31T711 55T734 90T743 133Q743 156 735 176T712 211T678 234T635 243Q612 243 593 235T559 211T536 176T527 133Q527 110 535 90T558 55T592 32T635 23ZM780 133Q780 103 769 77T738 31T691 0T634 -12Q604 -12 578 -1T532 30T501 76T489 133Q489 163 500 190T531 236T577 267T634 279Q664 279 691 268T737 237T768 190T780 133ZM198 506Q221 506 240 514T274 538T297 573T306 616Q306 639 298 659T275 694T241 717T198 726Q175 726 156 718T122 694T99 659T90 616Q90 593 98 573T121 538T155 515T198 506ZM343 616Q343 586 332 560T301 514T254 483T197 471Q167 471 141 482T95 513T64 559T52 616Q52 646 63 673T94 719T140 750T197 762Q227 762 254 751T300 720T331 673T343 616ZM229 -8L554 770L585 757L259 -20L229 -8ZM1037 23Q1060 23 1079 31T1113 55T1136 90T1145 133Q1145 156 1137 176T1114 211T1080 234T1037 243Q1014 243 995 235T961 211T938 176T929 133Q929 110 937 90T960 55T994 32T1037 23ZM1182 133Q1182 103 1171 77T1140 31T1093 0T1036 -12Q1006 -12 980 -1T934 30T903 76T891 133Q891 163 902 190T933 236T979 267T1036 279Q1066 279 1093 268T1139 237T1170 190T1182 133Z"  />
<glyph unicode="&#x2039;" horiz-adv-x="273" d="M178 26L54 234L175 443H215L94 234L219 26H178Z"  />
<glyph unicode="&#x203A;" horiz-adv-x="273" d="M54 26L179 234L58 443H98L219 234L95 26H54Z"  />
<glyph unicode="&#x20AC;" horiz-adv-x="688" d="M623 16Q621 14 611 10T582 0T535 -9T467 -13Q403 -13 349 8T254 67T184 158T145 277H55L65 317H139Q136 347 136 378Q136 407 139 437H65L75 477H144Q156 541 182 593T249 683T341 741T457 762Q520 762 559 751T619 725L598 687Q593 689 581 694T549 704T505 713T449 717Q349 717 285 654T196 477L505 479L495 437H188Q186 421 185 406T184 373Q184 362 184 350T188 317L495 319L485 277H195Q208 221 232 176T290 99T369 49T468 31Q502 31 526 35T567 44T593 53T604 59L623 16Z"  />
<glyph unicode="&#x2122;" horiz-adv-x="933" d="M805 394L773 650L621 380L468 650L441 394H401L444 768L623 455L799 767L845 394H805ZM196 394V722L75 721V757H357V721L236 722V394H196Z"  />

</font>
</defs>
</svg>
