<?xml  version="1.0" encoding="UTF-8"?>
<!DOCTYPE svg PUBLIC "-//W3C//DTD SVG 1.0//EN" "http://www.w3.org/TR/2001/REC-SVG-20010904/DTD/svg10.dtd" >
<svg xmlns="http://www.w3.org/2000/svg" >
<metadata>
<version>1.0</version>
<id><![CDATA[Nautilus LT W01 Bold Italic]]></id>
<vendor>Monotype Imaging Inc.</vendor>
<credits>
<name>Fonts.com WebFonts</name>
<URL>http://webfonts.fonts.com</URL>
<role>Home of the Web fonts</role>
</credits>
<license>
<URL>http://webfonts.fonts.com/Legal</URL>
</license>
<copyright><![CDATA[Copyright © 2003 - 2008 Linotype GmbH, www.linotype.com. All rights reserved. This font software may not be reproduced, modified, disclosed or transferred without the express written approval of Linotype GmbH. Linotype Nautilus is a trademark of Linotype GmbH and may be registered in certain jurisdictions. This typeface is original artwork of Hellmut G. Bomm. The design may be protected in certain jurisdictions.]]></copyright>
<trademark><![CDATA[Linotype Nautilus is a trademark of Linotype GmbH and may be registered in certain jurisdictions.]]></trademark>
<licensee>
<name></name>
</licensee>
</metadata>
<defs >
<font horiz-adv-x="457" id="1fe53377-b569-4bbe-b521-70d502cb1797">
<font-face font-family="" panose-1="2 11 8 6 8 0 0 9 0 4" ascent="856" descent="-244" units-per-em="1000" alphabetic="0">
</font-face>
<missing-glyph horiz-adv-x="0" />

<glyph unicode="&#xA;" />
<glyph unicode="&#xD;" horiz-adv-x="0" />
<glyph unicode=" " horiz-adv-x="251" />
<glyph unicode="!" horiz-adv-x="254" d="M213 111L189 0H78L102 111H213ZM339 694L223 207H132L221 694H339Z"  />
<glyph unicode="&quot;" horiz-adv-x="401" d="M328 695L262 497H183L212 695H328ZM481 695L415 497H336L366 695H481Z"  />
<glyph unicode="#" horiz-adv-x="696" d="M460 421H331L285 288H413L460 421ZM703 481L682 421H530L484 288H645L624 228H462L381 0H310L392 228H263L181 0H111L192 228H36L57 288H213L260 421H93L114 481H282L364 711H435L354 481H481L563 711H633L553 481H703Z"  />
<glyph unicode="$" horiz-adv-x="490" d="M366 123Q366 167 294 229L253 33H265Q301 33 333 61Q366 89 366 123ZM346 590Q328 593 322 593Q293 593 272 573T251 523Q251 501 273 473L312 430L346 590ZM447 513Q415 566 370 585Q369 583 360 540T332 409Q415 326 417 323Q462 269 462 215Q462 130 394 62Q330 1 243 -14L230 -74H204L217 -17Q206 -18 198 -18T185 -19Q89 -19 44 28L140 120Q175 54 228 37L273 250L222 305Q179 351 174 360Q153 390 153 428Q153 514 213 573Q268 627 356 640L365 688H392L382 642Q393 643 400 643T412 644Q475 644 530 610L447 513Z"  />
<glyph unicode="%" horiz-adv-x="556" d="M498 109Q498 148 484 190Q466 245 434 245Q409 245 396 212Q387 186 387 157Q387 114 400 74Q418 18 451 18Q477 18 489 53Q498 78 498 109ZM306 450Q306 491 292 533Q272 587 238 587Q213 587 201 554Q192 530 192 500Q192 459 206 417Q226 361 259 361Q306 361 306 450ZM564 175Q564 105 524 52Q481 -9 414 -9Q369 -9 345 18T320 92Q320 158 361 214Q406 273 471 273Q514 273 539 246T564 175ZM588 605L160 0H96L526 605H588ZM370 516Q370 449 332 394Q288 332 224 332Q178 332 152 361Q127 389 127 436Q127 503 167 556Q210 614 275 614Q320 614 345 588T370 516Z"  />
<glyph unicode="&amp;" horiz-adv-x="550" d="M246 286Q229 272 217 259T197 234Q179 205 179 166Q179 117 204 86Q231 51 278 51Q312 51 359 80L246 286ZM421 512Q421 543 408 565Q391 592 363 592Q332 592 313 565Q296 540 296 509Q296 465 339 391Q381 416 399 439Q421 467 421 512ZM582 292Q582 216 489 119L553 0H401L380 39Q262 -17 191 -17Q134 -17 97 12Q57 43 57 100Q57 230 224 325Q196 382 196 430Q196 520 257 575Q318 631 406 631Q455 631 490 611Q530 587 530 540Q530 480 472 428Q440 399 361 356L470 156Q509 199 509 243Q509 275 495 297Q483 315 453 336H573Q582 315 582 292Z"  />
<glyph unicode="&apos;" horiz-adv-x="219" d="M324 696L246 498H166L208 696H324Z"  />
<glyph unicode="(" horiz-adv-x="345" d="M435 741Q337 616 291 493Q214 283 214 102Q214 -15 259 -165L151 -166Q106 -39 106 67Q106 269 198 488Q248 606 365 741H435Z"  />
<glyph unicode=")" horiz-adv-x="355" d="M369 509Q369 307 277 88Q227 -30 110 -165H40Q138 -40 184 83Q261 293 261 474Q261 591 216 741L324 742Q369 614 369 509Z"  />
<glyph unicode="*" horiz-adv-x="412" d="M523 557L504 471L354 487L418 366L332 321L300 459L209 319L143 364L263 488L106 468L125 559L270 540L200 662L291 710L324 566L414 709L482 664L366 541L523 557Z"  />
<glyph unicode="+" horiz-adv-x="490" d="M342 247V80H266V247H101V317H266V483H342V317H508V247H342Z"  />
<glyph unicode="&#x2c;" horiz-adv-x="222" d="M209 112L71 -105H7L97 111L209 112Z"  />
<glyph unicode="-" horiz-adv-x="340" d="M330 331L316 271H133L147 331H330Z"  />
<glyph unicode="." horiz-adv-x="208" d="M187 111L162 0H51L75 111H187Z"  />
<glyph unicode="/" horiz-adv-x="360" d="M501 695L71 -25H14L449 695H501Z"  />
<glyph unicode="0" horiz-adv-x="490" d="M425 344Q425 417 408 477Q381 564 324 564Q254 564 220 444Q196 361 196 271Q196 187 212 130Q238 38 296 38Q364 38 400 165Q425 252 425 344ZM538 418Q538 268 470 143Q388 -8 248 -8Q163 -8 119 54Q81 107 81 197Q81 343 152 468Q236 615 373 615Q457 615 500 557Q538 504 538 418Z"  />
<glyph unicode="1" horiz-adv-x="490" d="M478 619L346 0H227L334 500L148 405L136 438L478 619Z"  />
<glyph unicode="2" horiz-adv-x="490" d="M519 498Q519 333 178 88H441L422 0H34L44 48L97 83Q206 155 286 248Q388 366 388 469Q388 503 370 526T317 550Q279 550 239 527Q220 517 172 478L150 497Q182 526 208 546T256 580Q320 617 383 617Q443 617 480 588Q519 556 519 498Z"  />
<glyph unicode="3" horiz-adv-x="490" d="M479 522Q479 458 423 410Q378 371 308 350Q383 344 410 331Q459 307 459 247Q459 130 323 49Q222 -11 83 -35L37 -43L32 -14Q212 17 276 99Q327 165 327 240Q327 313 237 313Q233 313 225 313T204 312L202 343L232 346Q287 352 320 394Q351 434 351 490Q351 560 282 560Q241 560 207 541Q186 528 145 493L127 513Q190 570 229 592Q286 625 352 625Q405 625 439 600Q479 572 479 522Z"  />
<glyph unicode="4" horiz-adv-x="490" d="M366 512L122 222L303 223L366 512ZM510 223L496 158H408L374 0H255L290 158H44L54 203L391 604H504L423 223H510Z"  />
<glyph unicode="5" horiz-adv-x="490" d="M512 605L493 518H248L197 374Q263 403 322 403Q465 403 465 287Q465 158 321 61Q207 -17 60 -47L54 -19Q170 4 248 74Q337 154 337 265Q337 352 253 352Q205 352 132 315L233 605H512Z"  />
<glyph unicode="6" horiz-adv-x="490" d="M387 191Q387 238 371 276Q349 328 310 328Q265 328 236 275Q213 231 213 182Q213 132 232 93Q255 40 298 40Q344 40 368 96Q387 138 387 191ZM536 602Q417 571 334 497Q244 415 219 301Q289 389 373 389Q431 389 466 350Q499 312 499 252Q499 152 417 70Q336 -12 237 -12Q163 -12 123 34Q85 78 85 153Q85 321 227 466Q363 605 533 631L536 602Z"  />
<glyph unicode="7" horiz-adv-x="490" d="M546 605L529 524L153 0H86L459 513H171L191 605H546Z"  />
<glyph unicode="8" horiz-adv-x="500" d="M386 130Q386 208 274 278Q197 254 197 159Q197 113 224 79Q252 42 297 42Q331 42 358 69Q386 96 386 130ZM427 476Q427 517 403 549Q377 584 338 584Q306 584 285 562T263 507Q263 447 361 373Q395 394 410 414Q427 437 427 476ZM536 515Q536 412 397 352Q446 316 464 294Q491 259 491 212Q491 116 408 51Q331 -9 233 -9Q167 -9 127 18Q80 50 80 111Q80 175 127 230Q170 277 235 304Q162 350 162 423Q162 511 232 571Q299 627 388 627Q536 627 536 515Z"  />
<glyph unicode="9" horiz-adv-x="490" d="M393 426Q393 476 374 515Q350 567 307 567Q262 567 238 511Q219 469 219 416Q219 369 235 331Q257 279 296 279Q340 279 369 333Q393 376 393 426ZM522 455Q522 290 391 150Q269 20 101 -19L75 -25L70 6Q176 29 266 116Q354 201 387 307Q330 219 233 219Q175 219 140 257Q107 294 107 354Q107 454 189 536Q272 619 370 619Q444 619 484 573Q522 529 522 455Z"  />
<glyph unicode=":" horiz-adv-x="197" d="M181 111L156 0H45L69 111H181ZM255 466L232 355H121L144 467L255 466Z"  />
<glyph unicode=";" horiz-adv-x="213" d="M189 112L51 -104H-13L77 111L189 112ZM262 466L238 355H127L151 467L262 466Z"  />
<glyph unicode="&lt;" horiz-adv-x="490" d="M101 246V316L508 476V398L201 281L508 165V86L101 246Z"  />
<glyph unicode="=" horiz-adv-x="490" d="M101 324V395H508V324H101ZM101 167V238H508V167H101Z"  />
<glyph unicode="&gt;" horiz-adv-x="490" d="M101 86V165L408 281L101 398V476L508 316V246L101 86Z"  />
<glyph unicode="?" horiz-adv-x="410" d="M265 111L241 0H130L154 111H265ZM504 587Q504 496 396 376Q367 344 322 303T214 208L186 233Q381 432 381 563Q381 638 311 638Q270 638 236 616Q225 608 210 596T175 564L154 584Q181 614 205 635T249 669Q304 705 370 705Q431 705 465 677Q504 645 504 587Z"  />
<glyph unicode="@" horiz-adv-x="856" d="M719 467L649 172Q641 137 637 116T632 83Q632 55 659 55Q685 55 711 77T757 137T791 225T804 330Q804 397 784 444T728 521T647 564T550 578Q509 578 464 567T373 531T287 471T215 385T166 273T147 134Q147 63 170 13T231 -70T319 -118T425 -134Q477 -134 525 -121T601 -90L619 -123Q577 -149 522 -167T397 -186Q336 -186 277 -170T170 -117T93 -23T63 118Q63 136 64 156T70 199Q83 275 113 336T184 446T274 528T376 585T480 618T579 629Q635 629 690 615T788 567T859 481T886 349Q886 289 868 227T814 115T729 32T617 0Q520 0 520 82Q520 102 525 124T535 166L555 243Q485 111 418 51T289 -10Q252 -10 235 12T217 67Q217 110 246 174T336 308Q409 392 470 429T589 467H719ZM508 225Q548 288 569 335T591 406Q591 417 585 425T566 433Q545 433 520 417T470 373T421 312T379 244T350 178T339 123Q339 106 345 96T367 86Q390 86 426 121T508 225Z"  />
<glyph unicode="A" horiz-adv-x="497" d="M338 219L310 505L170 219H338ZM494 0H359L342 177H149L61 0H9L328 631H429L494 0Z"  />
<glyph unicode="B" horiz-adv-x="508" d="M385 201Q385 263 346 289Q315 308 249 308L191 34Q211 32 222 31T235 30Q306 30 346 82Q385 128 385 201ZM426 506Q426 597 345 597Q342 597 333 597T309 595L258 353H270Q426 353 426 506ZM549 522Q549 388 381 339Q516 322 516 219Q516 184 501 144Q488 101 465 77Q396 0 257 0H60L192 629H377Q457 629 493 613Q549 589 549 522Z"  />
<glyph unicode="C" horiz-adv-x="523" d="M521 494Q508 519 496 537T472 567Q440 598 392 598Q300 598 254 478Q219 388 219 281Q219 186 250 125Q292 44 377 44Q431 44 505 95L519 74Q457 28 416 11Q361 -12 297 -12Q196 -12 142 47Q89 105 89 206Q89 373 185 502Q291 643 451 643Q541 643 609 589L521 494Z"  />
<glyph unicode="D" horiz-adv-x="574" d="M484 432Q484 594 354 594H302L185 37H239Q348 37 408 141Q441 198 463 281Q484 362 484 432ZM610 434Q610 265 513 138Q406 0 244 0H53L186 630L409 629Q610 629 610 434Z"  />
<glyph unicode="E" horiz-adv-x="436" d="M526 629L516 582H308L260 349H456L446 300L249 301L196 45H418L408 0H62L195 629H526Z"  />
<glyph unicode="F" horiz-adv-x="414" d="M529 629L519 582H307L259 349H455L446 300L248 301L185 0H60L194 629H529Z"  />
<glyph unicode="G" horiz-adv-x="573" d="M538 509Q484 601 406 601Q312 601 258 485Q216 393 216 285Q216 199 250 130Q293 40 368 40Q392 40 421 57L474 307H358L366 350H600L543 74Q397 -10 296 -10Q197 -10 143 51Q90 110 90 209Q90 365 181 496Q284 646 464 646Q540 646 621 608L538 509Z"  />
<glyph unicode="H" horiz-adv-x="578" d="M643 629L510 0H387L451 306H248L185 0H62L195 629H317L258 350H461L520 629H643Z"  />
<glyph unicode="I" horiz-adv-x="250" d="M317 629L184 0H62L195 629H317Z"  />
<glyph unicode="J" horiz-adv-x="358" d="M438 631L350 216Q335 148 315 109Q289 56 240 28Q181 -7 110 -7Q36 -7 -5 30L51 68Q66 35 106 35Q166 35 196 101Q207 125 227 218L315 631H438Z"  />
<glyph unicode="K" horiz-adv-x="495" d="M613 629L359 372L512 0H355L244 295L182 0H60L192 629H314L252 332L554 629H613Z"  />
<glyph unicode="L" horiz-adv-x="410" d="M415 41L406 0H63L197 629H318L195 41H415Z"  />
<glyph unicode="M" horiz-adv-x="738" d="M809 629L676 0H555L670 546L650 504L376 0H291L224 539L109 0H61L196 630L339 631L401 135L667 630L809 629Z"  />
<glyph unicode="N" horiz-adv-x="544" d="M619 628L487 0H372L208 460L111 0H63L195 627H292L469 130L575 628H619Z"  />
<glyph unicode="O" horiz-adv-x="596" d="M507 354Q507 439 483 504Q448 593 377 593Q301 593 255 475Q219 382 219 290Q219 206 243 136Q277 39 346 39Q425 39 472 162Q507 258 507 354ZM632 429Q632 263 547 136Q450 -9 292 -9Q193 -9 141 54Q91 113 91 214Q91 375 179 500Q278 642 432 642Q524 642 580 582Q632 524 632 429Z"  />
<glyph unicode="P" horiz-adv-x="483" d="M448 476Q448 590 351 590H310L255 324Q279 314 302 314Q366 314 408 364Q448 410 448 476ZM569 504Q569 380 450 312Q406 286 350 279Q333 277 307 276T244 275L186 0H65L197 633H383Q471 633 512 611Q569 582 569 504Z"  />
<glyph unicode="Q" horiz-adv-x="608" d="M511 353Q511 441 486 504Q451 593 377 593Q299 593 253 476Q218 383 218 291Q218 205 243 136Q277 39 349 39Q429 39 476 161Q511 255 511 353ZM635 422Q635 319 596 225Q556 126 482 61L568 -65H429L383 5Q336 -9 291 -9Q193 -9 141 58Q94 120 94 220Q94 379 183 504Q280 643 435 643Q532 643 585 580Q635 521 635 422Z"  />
<glyph unicode="R" horiz-adv-x="514" d="M446 479Q446 597 329 597H305L247 326Q270 324 282 323T299 322Q367 322 407 368Q446 411 446 479ZM570 506Q570 432 523 377Q480 328 406 304L516 0H378L282 283H238L178 0H56L190 633H366Q468 633 504 617Q570 591 570 506Z"  />
<glyph unicode="S" horiz-adv-x="441" d="M434 512Q381 596 317 596Q285 596 263 577Q238 558 238 526Q238 494 323 408L407 323Q450 271 450 215Q450 117 364 49Q284 -13 182 -13Q96 -13 34 30L129 127Q175 36 247 36Q285 36 317 60Q352 86 352 123Q352 160 298 216L210 308Q171 347 161 365Q141 397 141 436Q141 531 214 589Q281 643 380 643Q446 643 518 611L434 512Z"  />
<glyph unicode="T" horiz-adv-x="384" d="M530 629L521 581H380L257 0H135L258 581H117L127 629H530Z"  />
<glyph unicode="U" horiz-adv-x="547" d="M625 629L531 184Q511 95 445 43Q380 -6 287 -6Q206 -6 157 27Q99 66 99 142Q99 171 108 215L196 630H320L232 217Q227 194 225 176T222 144Q222 101 253 70Q284 39 327 39Q385 39 432 83Q476 124 488 183L582 630L625 629Z"  />
<glyph unicode="V" horiz-adv-x="508" d="M630 631L310 0H209L145 631H280L326 125L579 631H630Z"  />
<glyph unicode="W" horiz-adv-x="785" d="M922 630L634 0H528L499 487L264 0H159L132 630H270L280 125L516 630H617L649 132L870 630H922Z"  />
<glyph unicode="X" horiz-adv-x="463" d="M561 629L358 357L444 0H304L251 236L77 0H29L239 289L156 629H297L347 404L515 629H561Z"  />
<glyph unicode="Y" horiz-adv-x="461" d="M585 631L437 376Q424 357 406 326T363 249L312 0H187L233 220L144 631H283L350 305L538 631H585Z"  />
<glyph unicode="Z" horiz-adv-x="440" d="M514 629L500 570L157 93H422L400 0H47L58 50L413 536L151 537L173 629H514Z"  />
<glyph unicode="[" horiz-adv-x="281" d="M394 749L384 704H287L117 -112H211L200 -156H23L214 749H394Z"  />
<glyph unicode="\" horiz-adv-x="400" d="M362 -20H280L182 699H259L362 -20Z"  />
<glyph unicode="]" horiz-adv-x="286" d="M385 749L194 -155H18L28 -111H122L292 704H195L205 749H385Z"  />
<glyph unicode="^" horiz-adv-x="490" d="M397 312L302 550L211 312H133L271 651H337L476 312H397Z"  />
<glyph unicode="_" horiz-adv-x="500" d="M0 -125V-75H500V-125H0Z"  />
<glyph unicode="`" horiz-adv-x="400" d="M272 595H204L128 695H240L272 595Z"  />
<glyph unicode="a" horiz-adv-x="513" d="M414 408Q414 434 389 434Q344 434 271 346Q165 222 165 117Q165 81 191 81Q246 81 332 219Q414 350 414 408ZM547 467L449 0H329L383 253Q242 -14 115 -14Q83 -14 64 9T44 65Q44 148 122 255Q187 343 268 406Q312 439 334 450Q371 467 412 467H547Z"  />
<glyph unicode="b" horiz-adv-x="512" d="M424 298Q424 391 365 391Q301 391 259 288Q225 207 225 131Q225 37 285 37Q352 37 392 140Q424 222 424 298ZM545 348Q545 213 458 104Q364 -14 233 -14Q101 -14 101 112Q101 156 122 257L214 695L334 694L262 349Q334 479 435 479Q545 479 545 348Z"  />
<glyph unicode="c" horiz-adv-x="402" d="M369 343Q359 443 304 443Q245 443 212 333Q188 253 188 173Q188 119 208 84Q233 41 284 41Q345 41 410 92L426 73Q316 -14 208 -14Q69 -14 69 126Q69 255 144 363Q226 484 351 484Q434 484 468 414L369 343Z"  />
<glyph unicode="d" horiz-adv-x="512" d="M416 408Q416 434 391 434Q346 434 273 346Q167 221 167 117Q167 81 193 81Q248 81 334 219Q416 350 416 408ZM597 694L451 0H332L385 253Q244 -14 117 -14Q85 -14 66 9T46 65Q46 146 124 254Q188 343 268 405Q290 422 309 433T344 452Q381 466 431 466L478 694H597Z"  />
<glyph unicode="e" horiz-adv-x="439" d="M355 395Q355 444 320 444Q230 444 200 259Q286 273 312 291Q355 319 355 395ZM470 376Q470 339 435 271L196 226Q192 206 192 184Q192 38 289 38Q349 38 415 89L430 70Q323 -17 213 -17Q73 -17 73 124Q73 250 148 358Q232 480 352 480Q401 480 435 454Q470 425 470 376Z"  />
<glyph unicode="f" horiz-adv-x="286" d="M429 603Q409 662 370 662Q326 662 301 583Q291 554 278 467H424L414 423H269L179 0H60L150 424H97L108 467H160L169 508Q189 598 246 649Q307 705 395 705Q467 705 511 663L429 603Z"  />
<glyph unicode="g" horiz-adv-x="509" d="M413 408Q413 434 388 434Q343 434 270 346Q164 222 164 117Q164 81 190 81Q245 81 331 219Q413 350 413 408ZM546 467L451 16Q437 -49 413 -96T351 -173T262 -217T143 -232Q43 -232 -15 -202L64 -114Q116 -184 187 -184Q256 -184 294 -113Q314 -74 335 19Q343 54 354 112T382 253Q239 -14 114 -14Q82 -14 63 9T43 65Q43 148 121 255Q183 340 267 406Q311 439 333 450Q370 467 411 467H546Z"  />
<glyph unicode="h" horiz-adv-x="529" d="M542 418Q542 397 525 314L459 0H338L407 325Q411 342 411 358Q411 385 390 385Q348 385 293 300Q255 242 230 180T192 59L180 0H60L206 693H326L233 249Q268 331 333 399Q412 481 486 481Q542 481 542 418Z"  />
<glyph unicode="i" horiz-adv-x="251" d="M281 467L183 0H63L162 467H281ZM327 694L302 578L187 577L212 694H327Z"  />
<glyph unicode="j" horiz-adv-x="254" d="M287 467L189 -1Q172 -78 153 -118Q124 -175 72 -206Q7 -244 -61 -244Q-90 -244 -135 -235L-110 -194Q-85 -203 -74 -203Q-2 -203 36 -119Q50 -85 74 25L168 467H287ZM333 694L308 578L194 577L218 694H333Z"  />
<glyph unicode="k" horiz-adv-x="511" d="M559 418Q559 355 504 307Q469 276 394 241L515 0H378L273 222Q341 240 389 279Q448 329 448 390Q448 426 422 426Q371 426 310 335Q269 273 239 199Q225 164 214 129T195 56L183 0H64L211 694H329L238 263Q351 481 484 481Q559 481 559 418Z"  />
<glyph unicode="l" horiz-adv-x="250" d="M330 695L183 0H63L211 695H330Z"  />
<glyph unicode="m" horiz-adv-x="809" d="M823 418Q823 398 806 315L740 0H620L689 325Q693 342 693 359Q693 384 671 384Q637 384 585 312Q559 276 539 239T505 163Q482 101 463 0H342L410 325Q416 353 416 361Q416 384 394 384Q359 384 307 312Q255 241 227 164Q205 104 184 0H64L162 467H281L236 249L243 263L250 277L253 281L254 282Q294 354 351 410Q424 481 489 481Q545 481 545 417Q545 380 514 249L521 263L528 277L531 281L532 282Q573 357 628 410Q702 481 767 481Q823 481 823 418Z"  />
<glyph unicode="n" horiz-adv-x="531" d="M544 421Q544 397 527 314L461 0H340L409 325Q413 342 413 359Q413 385 392 385Q354 385 294 300Q248 235 221 156Q203 102 182 0H62L160 467H280L234 249L241 263L249 277L251 281L252 282Q295 359 349 411Q420 481 488 481Q544 481 544 421Z"  />
<glyph unicode="o" horiz-adv-x="491" d="M382 246Q382 307 366 356Q343 430 297 430Q208 430 208 226Q208 32 287 32Q340 32 366 118Q382 173 382 246ZM508 312Q508 188 438 94Q361 -10 243 -10Q79 -10 79 159Q79 281 149 375Q225 477 343 477Q508 477 508 312Z"  />
<glyph unicode="p" horiz-adv-x="529" d="M552 398Q552 333 525 251Q499 174 462 116Q422 54 372 25Q328 1 248 -10L244 19Q335 32 373 112Q395 157 410 226Q426 293 426 346Q426 394 402 394Q366 394 305 297Q238 193 199 44L140 -228H21L170 468H288L235 226Q368 479 489 479Q552 479 552 398Z"  />
<glyph unicode="q" horiz-adv-x="501" d="M410 408Q410 434 385 434Q340 434 267 346Q161 219 161 118Q161 82 187 82Q241 82 328 220Q410 350 410 408ZM543 467L396 -228H275L379 253Q238 -13 111 -13Q78 -13 59 11Q40 33 40 66Q40 148 118 255Q183 344 264 406Q285 422 301 433T331 450Q367 467 408 467H543Z"  />
<glyph unicode="r" horiz-adv-x="355" d="M406 348Q382 366 370 366Q312 366 255 241Q217 156 197 66L183 0H63L161 467H281L236 251Q278 348 309 393Q367 478 430 478Q452 478 487 455L406 348Z"  />
<glyph unicode="s" horiz-adv-x="363" d="M349 375Q287 437 248 437Q228 437 213 425Q197 413 197 393Q197 366 242 326L324 250Q369 202 369 158Q369 78 293 29Q226 -15 143 -15Q71 -15 24 10L95 90Q149 29 199 29Q225 29 246 45T267 87Q267 115 225 153L146 224Q104 269 104 314Q104 389 166 437Q224 481 300 481Q356 481 417 455L349 375Z"  />
<glyph unicode="t" horiz-adv-x="336" d="M445 467L436 426H288L241 197Q227 127 227 112Q227 45 297 45Q321 45 355 64L369 47Q302 -11 215 -11Q165 -11 134 15Q103 42 103 92Q103 115 112 159L168 426H111L120 467Q217 467 269 573H320L297 467H445Z"  />
<glyph unicode="u" horiz-adv-x="527" d="M557 467L459 0H339L385 219Q363 175 338 138T284 70Q207 -14 132 -14Q77 -14 77 47Q77 70 94 153L160 467H280L212 143Q208 126 208 108Q208 82 229 82Q263 82 315 155Q366 226 394 304Q404 331 415 371T438 467H557Z"  />
<glyph unicode="v" d="M550 467Q494 321 382 173Q241 -14 129 -14Q78 -14 78 46Q78 63 87 107L163 467H283L216 150Q208 110 208 104Q208 80 229 80Q259 80 303 127Q335 162 359 201Q389 250 410 312Q435 381 435 436Q435 453 432 467H550Z"  />
<glyph unicode="w" horiz-adv-x="734" d="M826 467Q760 311 658 172Q518 -14 405 -14Q352 -14 352 47Q352 82 364 133L385 218Q347 138 283 69Q203 -14 130 -14Q78 -14 78 44Q78 80 94 153L161 467H281L212 142Q208 125 208 107Q208 82 229 82Q260 82 313 153Q339 189 360 226T395 303Q405 330 416 371T439 467H559L491 150Q484 119 484 104Q484 80 505 80Q533 80 578 128Q594 145 608 163T634 201Q662 243 685 310Q710 381 710 427Q710 444 707 467H826Z"  />
<glyph unicode="x" horiz-adv-x="396" d="M472 467L302 270L387 0H253L203 174L56 0H2L189 217L112 467H246L289 316L418 467H472Z"  />
<glyph unicode="y" horiz-adv-x="525" d="M557 467L461 18Q454 -16 446 -41T430 -85Q408 -136 365 -170Q285 -233 153 -233Q48 -233 -6 -203L73 -116Q131 -185 197 -185Q264 -185 300 -122Q321 -84 339 0L385 217Q252 -15 128 -15Q76 -15 76 44Q76 65 94 152L159 467H280L212 142Q210 130 209 121T207 106Q207 82 228 82Q269 82 334 181Q378 249 400 318Q406 336 415 373T437 467H557Z"  />
<glyph unicode="z" horiz-adv-x="421" d="M483 467L472 418L154 98H410L387 0H37L50 59L364 369H126L148 467H483Z"  />
<glyph unicode="{" horiz-adv-x="346" d="M318 -196H222Q174 -196 146 -154Q120 -116 120 -67V104Q120 163 107 192Q88 235 39 245V286Q120 302 120 421V593Q120 642 146 680Q174 722 222 722H318V681H274Q228 681 228 599V405Q228 302 140 265V263Q228 220 228 120V-74Q228 -156 274 -156H318V-196Z"  />
<glyph unicode="|" horiz-adv-x="222" d="M63 -144V856H158V-144H63Z"  />
<glyph unicode="}" horiz-adv-x="367" d="M404 245Q353 234 336 192Q323 163 323 104V-67Q323 -116 297 -154Q268 -196 221 -196H126V-156H170Q216 -156 216 -74V120Q216 223 304 263V265Q216 302 216 405V599Q216 681 170 681H126V722H221Q268 722 297 680Q323 642 323 593V421Q323 302 404 286V245Z"  />
<glyph unicode="~" horiz-adv-x="490" d="M517 346Q512 290 487 255T408 219Q381 219 353 227T298 246T245 265T198 274Q176 274 164 257T147 216H93Q96 243 103 266T124 307T156 334T201 344Q228 344 255 336T309 317T362 298T412 289Q435 289 447 306T463 346H517H517Z"  />
<glyph unicode="&#xA0;" horiz-adv-x="251" />
<glyph unicode="&#xA1;" horiz-adv-x="254" d="M245 338L157 -150H38L153 338H245ZM299 545L275 434H164L187 545H299Z"  />
<glyph unicode="&#xA2;" horiz-adv-x="490" d="M328 439H320Q292 439 270 413T232 329Q220 287 215 248T209 171Q209 108 238 71L328 439ZM395 340Q387 369 382 386T373 412T365 426T354 433L262 54Q284 39 312 39Q368 39 437 90L451 71Q422 47 398 32T349 6T300 -9T245 -15L235 -58H207L218 -14Q149 -7 120 25T90 126Q90 236 158 346Q233 467 337 478L348 524H377L366 481Q374 482 379 482T386 482Q463 482 492 411L395 340Z"  />
<glyph unicode="&#xA3;" horiz-adv-x="490" d="M443 507Q423 602 348 602Q303 602 278 574T252 500Q252 461 265 410L288 321H439L430 280H292Q292 204 204 125Q253 125 316 97Q382 70 413 70Q434 70 451 82L482 110L506 95Q426 -18 339 -18Q307 -18 248 10Q187 39 154 39Q99 39 51 -16L32 -5Q53 42 86 74Q112 97 167 126Q187 166 187 203Q187 231 176 280H85L94 320H166Q154 378 154 404Q154 503 229 577Q303 650 405 650Q514 650 551 556L443 507Z"  />
<glyph unicode="&#xA4;" horiz-adv-x="490" d="M297 405Q275 405 256 397T223 374T200 340T192 298Q192 275 200 256T223 222T256 199T297 191Q319 191 338 200T371 223T393 257T401 298Q401 319 393 338T371 373T337 396T297 405ZM92 147L146 200Q130 225 123 249T116 298Q116 323 123 347T146 396L92 449L145 501L197 449Q223 466 247 471T297 477Q322 477 345 471T394 448L448 501L498 448L447 396Q476 352 476 297Q476 272 470 250T447 200L500 147L448 95L393 148Q367 131 344 125T297 119Q270 119 246 125T199 148L146 95L92 147Z"  />
<glyph unicode="&#xA5;" horiz-adv-x="490" d="M583 631L392 301H487L478 257H366Q362 253 347 182H462L453 137H337L309 0H185L213 138H78L87 183H223L231 218L223 256H104L113 301H214L142 631H281L348 305L535 631H583Z"  />
<glyph unicode="&#xA6;" horiz-adv-x="222" d="M63 481V731H158V481H63ZM63 -19V231H158V-19H63Z"  />
<glyph unicode="&#xA7;" horiz-adv-x="402" d="M339 307Q339 332 298 373L241 425Q192 394 192 366Q192 340 291 247Q339 277 339 307ZM408 610Q349 670 304 670Q284 670 268 659Q251 647 251 626Q251 600 300 555L390 471Q439 419 439 374Q439 294 322 222Q356 186 364 174Q386 146 386 116Q386 43 312 -7Q247 -52 170 -52Q106 -52 43 -23L106 48Q157 -11 207 -11Q236 -11 259 3Q286 21 286 48Q286 72 238 114Q196 151 174 170T149 194Q101 243 101 289Q101 378 215 449Q161 501 161 546Q161 621 222 667Q277 710 355 710Q407 710 466 680L408 610Z"  />
<glyph unicode="&#xA8;" horiz-adv-x="400" d="M151 592H53L76 696H174L151 592ZM323 592H226L249 696H346L323 592Z"  />
<glyph unicode="&#xA9;" horiz-adv-x="749" d="M599 168Q565 139 530 123T447 107Q401 107 364 121T300 163T259 230T244 318Q244 366 260 405T304 473T370 516T452 532Q488 532 521 520T589 481L517 423Q493 461 474 475T431 489Q399 489 377 461T355 365Q355 319 364 281T390 216T431 173T485 158Q525 158 569 193L599 168ZM109 316Q109 384 134 443T204 547T308 618T436 644Q504 644 564 618T668 548T738 444T764 316Q764 248 739 189T669 85T564 15T436 -11Q368 -11 309 14T205 84T135 188T109 316ZM169 315Q169 258 189 209T246 122T331 63T436 41Q493 41 542 62T627 121T684 208T705 315Q705 372 684 422T627 509T542 568T436 590Q380 590 331 569T246 510T190 422T169 315Z"  />
<glyph unicode="&#xAA;" horiz-adv-x="345" d="M356 581Q356 600 338 600Q308 600 256 537Q181 445 181 376Q181 351 201 351Q236 351 298 449Q356 541 356 581ZM450 623L381 293H297L334 472Q317 438 298 409T259 354Q201 284 147 284Q125 284 111 299T96 338Q96 411 193 515Q290 620 355 622L450 623Z"  />
<glyph unicode="&#xAB;" horiz-adv-x="438" d="M331 467L188 298L256 116H148L86 283L237 467H331ZM503 467L360 298L428 116H319L257 283L409 467H503Z"  />
<glyph unicode="&#xAC;" horiz-adv-x="490" d="M435 160V324H101V396H508V160H435Z"  />
<glyph unicode="&#xAD;" horiz-adv-x="340" d="M330 331L316 271H133L147 331H330Z"  />
<glyph unicode="&#xAE;" horiz-adv-x="506" d="M362 492Q362 540 308 540H296V451H311Q337 451 349 463T362 492ZM426 328H356L308 426H296V328H238V564H327Q368 564 393 550T419 495Q419 446 367 432L426 328ZM123 442Q123 484 139 521T182 585T247 628T326 644Q368 644 405 628T469 585T512 521T528 442Q528 400 513 364T470 300T405 257T326 241Q284 241 247 257T183 300T139 363T123 442ZM167 442Q167 409 179 380T212 329T263 295T326 282Q360 282 389 294T439 329T472 380T484 442Q484 475 472 504T439 555T389 590T326 603Q292 603 263 590T213 556T179 505T167 442Z"  />
<glyph unicode="&#xAF;" horiz-adv-x="400" d="M321 614H67L79 672H333L321 614Z"  />
<glyph unicode="&#xB0;" horiz-adv-x="245" d="M330 504Q330 478 320 455T293 414T252 387T203 377Q177 377 154 387T113 414T86 454T76 504Q76 530 86 553T113 593T153 620T203 630Q229 630 252 620T292 593T320 553T330 504ZM266 504Q266 530 248 549T203 568Q177 568 159 549T140 504Q140 477 158 458T203 439Q229 439 247 458T266 504Z"  />
<glyph unicode="&#xB1;" horiz-adv-x="490" d="M342 291V161H266V291H101V361H266V492H342V361H508V291H342ZM101 64V134H508V64H101Z"  />
<glyph unicode="&#xB2;" horiz-adv-x="396" d="M317 537Q317 484 242 418Q224 403 194 382T122 333L283 334L270 272H28L36 312Q70 332 99 354T154 400Q230 469 230 517Q230 536 218 548T186 560Q148 560 92 513L77 526Q120 568 146 583Q187 609 231 609Q317 609 317 537Z"  />
<glyph unicode="&#xB3;" horiz-adv-x="396" d="M294 554Q294 487 198 459Q218 458 232 456T254 449Q282 436 282 404Q282 332 195 287Q137 256 46 242V259Q201 286 201 397Q201 438 158 438Q153 438 149 438T139 437L142 457Q178 459 197 481Q216 503 216 540Q216 574 181 574Q149 574 106 537L96 549Q167 611 224 611Q252 611 272 597Q294 582 294 554Z"  />
<glyph unicode="&#xB4;" horiz-adv-x="400" d="M296 695L172 595H104L175 695H296Z"  />
<glyph unicode="&#xB5;" horiz-adv-x="533" d="M363 0L375 50Q347 21 322 8T262 -5Q201 -5 175 45L128 -174H29L165 468H264L211 215Q206 192 205 175T204 147Q204 121 221 101T278 81Q329 81 360 120T404 216L458 468H558L458 0H363Z"  />
<glyph unicode="&#xB6;" horiz-adv-x="515" d="M237 -123H182L270 276Q197 282 158 320T118 419Q118 468 136 507T184 573T255 615T338 630H569L405 -123H284L440 596H393L237 -123Z"  />
<glyph unicode="&#xB7;" horiz-adv-x="168" d="M199 323Q199 299 182 283T142 267Q119 267 103 283T86 323Q86 346 103 363T143 380Q165 380 182 363T199 323Z"  />
<glyph unicode="&#xB8;" horiz-adv-x="400" d="M306 -89Q306 -119 293 -140T256 -176T202 -196T138 -203Q126 -203 115 -201T94 -196L110 -160Q115 -162 124 -164T144 -166Q162 -166 179 -162T208 -151T229 -134T237 -112Q237 -100 229 -93T207 -85Q188 -85 158 -97L143 -82L215 26H249L202 -50Q236 -40 255 -40Q275 -40 290 -52T306 -89Z"  />
<glyph unicode="&#xB9;" horiz-adv-x="413" d="M274 609L203 261L116 260L171 517L61 453L53 476L274 609Z"  />
<glyph unicode="&#xBA;" horiz-adv-x="371" d="M347 468Q347 608 289 608Q254 608 236 549Q224 508 224 459Q224 319 281 319Q318 319 334 377Q347 416 347 468ZM437 516Q437 430 388 363Q332 289 250 289Q134 289 134 408Q134 493 184 560Q238 633 321 633Q437 633 437 516Z"  />
<glyph unicode="&#xBB;" horiz-adv-x="436" d="M302 299L151 115H57L200 285L132 467H240L302 299ZM475 299L323 115H228L372 285L304 467H413L475 299Z"  />
<glyph unicode="&#xBC;" horiz-adv-x="673" d="M560 281L412 122H521L560 281ZM274 609L203 261L116 260L171 517L61 453L53 476L274 609ZM598 604L170 -2H106L536 604H598ZM653 121L644 85H591L570 -1H483L505 85H355L361 111L568 331H650L600 121H653Z"  />
<glyph unicode="&#xBD;" horiz-adv-x="726" d="M278 622L205 273H120L175 529L64 465L57 488L278 622ZM598 604L170 -2H106L536 604H598ZM651 265Q651 213 575 147Q557 131 527 110T455 61L616 62L603 0H361L369 40Q403 60 432 82T488 128Q564 197 564 245Q564 264 551 276T519 288Q483 288 425 241L410 254Q452 294 479 312Q519 337 565 337Q651 337 651 265Z"  />
<glyph unicode="&#xBE;" horiz-adv-x="673" d="M560 281L412 122H521L560 281ZM294 554Q294 487 198 459Q218 458 232 456T254 449Q282 436 282 404Q282 332 195 287Q137 256 46 242V259Q201 286 201 397Q201 438 158 438Q153 438 149 438T139 437L142 457Q178 459 197 481Q216 503 216 540Q216 574 181 574Q149 574 106 537L96 549Q167 611 224 611Q252 611 272 597Q294 582 294 554ZM598 604L170 -2H106L536 604H598ZM653 121L644 85H591L570 -1H483L505 85H355L361 111L568 331H650L600 121H653Z"  />
<glyph unicode="&#xBF;" horiz-adv-x="410" d="M372 -41Q344 -70 320 -91T276 -126Q220 -161 155 -161Q95 -161 61 -134Q21 -103 21 -46Q21 44 129 166Q158 199 203 241T311 334L339 311Q253 222 212 162Q144 62 144 -17Q144 -95 215 -95Q255 -95 290 -73Q312 -60 350 -22L372 -41ZM397 544L374 433H262L285 544H397Z"  />
<glyph unicode="&#xC0;" horiz-adv-x="497" d="M338 219L310 505L170 219H338ZM494 0H359L342 177H149L61 0H9L328 631H429L494 0ZM442 671H374L298 771H410L442 671Z"  />
<glyph unicode="&#xC1;" horiz-adv-x="497" d="M338 219L310 505L170 219H338ZM494 0H359L342 177H149L61 0H9L328 631H429L494 0ZM506 772L382 672H314L385 772H506Z"  />
<glyph unicode="&#xC2;" horiz-adv-x="497" d="M338 219L310 505L170 219H338ZM494 0H359L342 177H149L61 0H9L328 631H429L494 0ZM513 672H447L396 740L313 672H250L332 767H473L513 672Z"  />
<glyph unicode="&#xC3;" horiz-adv-x="497" d="M338 219L310 505L170 219H338ZM494 0H359L342 177H149L61 0H9L328 631H429L494 0ZM536 763Q508 712 485 692T432 672Q423 672 406 678T371 691T337 705T314 712Q288 712 265 673L243 683Q272 733 295 753T347 773Q356 773 372 767T406 754T440 740T465 734Q491 734 513 772L536 763Z"  />
<glyph unicode="&#xC4;" horiz-adv-x="497" d="M338 219L310 505L170 219H338ZM494 0H359L342 177H149L61 0H9L328 631H429L494 0ZM338 672H242L263 773H360L338 672ZM516 672H418L440 773H538L516 672Z"  />
<glyph unicode="&#xC5;" horiz-adv-x="497" d="M338 219L310 505L170 219H338ZM494 0H359L342 177H149L61 0H9L328 631H429L494 0ZM299 731Q299 755 308 774T333 807T367 828T407 836Q440 836 460 816T480 767Q480 746 472 727T449 694T414 671T370 662Q338 662 319 680T299 731ZM344 737Q344 722 351 712T377 702Q401 702 417 719T434 761Q434 776 426 786T400 796Q379 796 362 779T344 737Z"  />
<glyph unicode="&#xC6;" horiz-adv-x="711" d="M430 550L293 336H401L430 550ZM786 630L776 582H556L525 336H727L717 288H519L489 45H692L682 0H354L394 288H263L76 0H18L429 630H786Z"  />
<glyph unicode="&#xC7;" horiz-adv-x="523" d="M365 -89Q365 -119 352 -140T315 -176T261 -196T197 -203Q185 -203 174 -201T153 -196L169 -160Q174 -162 183 -164T203 -166Q221 -166 238 -162T267 -151T288 -134T296 -112Q296 -100 288 -93T266 -85Q247 -85 217 -97L202 -82L251 -8Q182 2 142 47Q89 105 89 206Q89 373 185 502Q291 643 451 643Q541 643 609 589L521 494Q508 519 496 537T472 567Q440 598 392 598Q300 598 254 478Q219 388 219 281Q219 186 250 125Q292 44 377 44Q431 44 505 95L519 74Q457 28 416 11Q361 -12 297 -12H284L261 -50Q295 -40 314 -40Q334 -40 349 -52T365 -89Z"  />
<glyph unicode="&#xC8;" horiz-adv-x="436" d="M526 629L516 582H308L260 349H456L446 300L249 301L196 45H418L408 0H62L195 629H526ZM434 671H366L290 771H402L434 671Z"  />
<glyph unicode="&#xC9;" horiz-adv-x="436" d="M526 629L516 582H308L260 349H456L446 300L249 301L196 45H418L408 0H62L195 629H526ZM498 772L374 672H306L377 772H498Z"  />
<glyph unicode="&#xCA;" horiz-adv-x="436" d="M526 629L516 582H308L260 349H456L446 300L249 301L196 45H418L408 0H62L195 629H526ZM503 672H437L386 740L303 672H240L322 767H463L503 672Z"  />
<glyph unicode="&#xCB;" horiz-adv-x="436" d="M526 629L516 582H308L260 349H456L446 300L249 301L196 45H418L408 0H62L195 629H526ZM330 672H234L255 773H352L330 672ZM508 672H410L432 773H530L508 672Z"  />
<glyph unicode="&#xCC;" horiz-adv-x="250" d="M317 629L184 0H62L195 629H317ZM338 671H270L194 771H306L338 671Z"  />
<glyph unicode="&#xCD;" horiz-adv-x="250" d="M317 629L184 0H62L195 629H317ZM402 772L278 672H210L281 772H402Z"  />
<glyph unicode="&#xCE;" horiz-adv-x="250" d="M317 629L184 0H62L195 629H317ZM397 672H331L280 740L197 672H134L216 767H357L397 672Z"  />
<glyph unicode="&#xCF;" horiz-adv-x="250" d="M317 629L184 0H62L195 629H317ZM224 672H128L149 773H246L224 672ZM402 672H304L326 773H424L402 672Z"  />
<glyph unicode="&#xD0;" horiz-adv-x="574" d="M481 424Q481 594 353 594H300L262 412H406L396 367H252L181 37H238Q328 37 376 90Q422 142 454 249Q481 343 481 424ZM610 429Q610 259 513 135Q408 0 244 0H51L131 367H38L47 413H140L185 630L408 629Q610 626 610 429Z"  />
<glyph unicode="&#xD1;" horiz-adv-x="544" d="M619 628L487 0H372L208 460L111 0H63L195 627H292L469 130L575 628H619ZM577 763Q549 712 526 692T473 672Q464 672 447 678T412 691T378 705T355 712Q329 712 306 673L284 683Q313 733 336 753T388 773Q397 773 413 767T447 754T481 740T506 734Q532 734 554 772L577 763Z"  />
<glyph unicode="&#xD2;" horiz-adv-x="596" d="M507 354Q507 439 483 504Q448 593 377 593Q301 593 255 475Q219 382 219 290Q219 206 243 136Q277 39 346 39Q425 39 472 162Q507 258 507 354ZM632 429Q632 263 547 136Q450 -9 292 -9Q193 -9 141 54Q91 113 91 214Q91 375 179 500Q278 642 432 642Q524 642 580 582Q632 524 632 429ZM488 671H420L344 771H456L488 671Z"  />
<glyph unicode="&#xD3;" horiz-adv-x="596" d="M507 354Q507 439 483 504Q448 593 377 593Q301 593 255 475Q219 382 219 290Q219 206 243 136Q277 39 346 39Q425 39 472 162Q507 258 507 354ZM632 429Q632 263 547 136Q450 -9 292 -9Q193 -9 141 54Q91 113 91 214Q91 375 179 500Q278 642 432 642Q524 642 580 582Q632 524 632 429ZM574 772L450 672H382L453 772H574Z"  />
<glyph unicode="&#xD4;" horiz-adv-x="596" d="M507 354Q507 439 483 504Q448 593 377 593Q301 593 255 475Q219 382 219 290Q219 206 243 136Q277 39 346 39Q425 39 472 162Q507 258 507 354ZM632 429Q632 263 547 136Q450 -9 292 -9Q193 -9 141 54Q91 113 91 214Q91 375 179 500Q278 642 432 642Q524 642 580 582Q632 524 632 429ZM567 672H501L450 740L367 672H304L386 767H527L567 672Z"  />
<glyph unicode="&#xD5;" horiz-adv-x="596" d="M507 354Q507 439 483 504Q448 593 377 593Q301 593 255 475Q219 382 219 290Q219 206 243 136Q277 39 346 39Q425 39 472 162Q507 258 507 354ZM632 429Q632 263 547 136Q450 -9 292 -9Q193 -9 141 54Q91 113 91 214Q91 375 179 500Q278 642 432 642Q524 642 580 582Q632 524 632 429ZM592 763Q564 712 541 692T488 672Q479 672 462 678T427 691T393 705T370 712Q344 712 321 673L299 683Q328 733 351 753T403 773Q412 773 428 767T462 754T496 740T521 734Q547 734 569 772L592 763Z"  />
<glyph unicode="&#xD6;" horiz-adv-x="596" d="M507 354Q507 439 483 504Q448 593 377 593Q301 593 255 475Q219 382 219 290Q219 206 243 136Q277 39 346 39Q425 39 472 162Q507 258 507 354ZM632 429Q632 263 547 136Q450 -9 292 -9Q193 -9 141 54Q91 113 91 214Q91 375 179 500Q278 642 432 642Q524 642 580 582Q632 524 632 429ZM394 672H298L319 773H416L394 672ZM572 672H474L496 773H594L572 672Z"  />
<glyph unicode="&#xD7;" horiz-adv-x="490" d="M449 84L304 228L159 84L107 136L251 281L107 426L159 479L304 334L449 479L502 426L357 281L502 136L449 84Z"  />
<glyph unicode="&#xD8;" horiz-adv-x="591" d="M506 368Q506 400 497 441L239 138L278 71Q303 40 345 40Q424 40 471 169Q506 269 506 368ZM485 495Q450 594 375 594Q297 594 251 474Q215 379 215 286Q215 231 225 190L485 495ZM661 635L596 556Q630 491 630 422Q630 259 542 134Q445 -8 290 -8Q244 -8 217 2Q206 6 191 14T155 37L122 0H63L126 73Q88 123 88 208Q88 371 174 499Q271 643 429 643Q521 643 568 592L603 635H661Z"  />
<glyph unicode="&#xD9;" horiz-adv-x="547" d="M625 629L531 184Q511 95 445 43Q380 -6 287 -6Q206 -6 157 27Q99 66 99 142Q99 171 108 215L196 630H320L232 217Q227 194 225 176T222 144Q222 101 253 70Q284 39 327 39Q385 39 432 83Q476 124 488 183L582 630L625 629ZM492 671H424L348 771H460L492 671Z"  />
<glyph unicode="&#xDA;" horiz-adv-x="547" d="M625 629L531 184Q511 95 445 43Q380 -6 287 -6Q206 -6 157 27Q99 66 99 142Q99 171 108 215L196 630H320L232 217Q227 194 225 176T222 144Q222 101 253 70Q284 39 327 39Q385 39 432 83Q476 124 488 183L582 630L625 629ZM576 772L452 672H384L455 772H576Z"  />
<glyph unicode="&#xDB;" horiz-adv-x="547" d="M625 629L531 184Q511 95 445 43Q380 -6 287 -6Q206 -6 157 27Q99 66 99 142Q99 171 108 215L196 630H320L232 217Q227 194 225 176T222 144Q222 101 253 70Q284 39 327 39Q385 39 432 83Q476 124 488 183L582 630L625 629ZM561 672H495L444 740L361 672H298L380 767H521L561 672Z"  />
<glyph unicode="&#xDC;" horiz-adv-x="547" d="M625 629L531 184Q511 95 445 43Q380 -6 287 -6Q206 -6 157 27Q99 66 99 142Q99 171 108 215L196 630H320L232 217Q227 194 225 176T222 144Q222 101 253 70Q284 39 327 39Q385 39 432 83Q476 124 488 183L582 630L625 629ZM388 672H292L313 773H410L388 672ZM566 672H468L490 773H588L566 672Z"  />
<glyph unicode="&#xDD;" horiz-adv-x="461" d="M585 631L437 376Q424 357 406 326T363 249L312 0H187L233 220L144 631H283L350 305L538 631H585ZM536 772L412 672H344L415 772H536Z"  />
<glyph unicode="&#xDE;" horiz-adv-x="483" d="M448 476Q448 590 351 590H310L255 324Q279 314 302 314Q366 314 408 364Q448 410 448 476ZM569 504Q569 381 450 312Q406 286 350 279Q333 277 307 276T244 275L186 0H65L210 694H329L316 633H346H376Q465 633 508 613Q569 585 569 504Z"  />
<glyph unicode="&#xDF;" horiz-adv-x="565" d="M597 587Q597 529 552 466Q389 453 389 392Q389 367 433 326Q454 307 475 289T516 252Q560 205 560 162Q560 81 484 32Q419 -10 333 -10Q256 -10 213 14L283 92Q327 30 384 30Q411 30 433 46Q456 64 456 91Q456 118 414 156L335 225Q293 270 293 316Q293 396 374 452Q381 457 399 465T448 484Q492 501 492 576Q492 617 472 646Q449 678 409 678Q369 678 334 646Q304 618 295 575L174 0H55L153 465Q168 539 187 577Q212 629 261 667Q328 719 427 719Q500 719 544 690Q597 655 597 587Z"  />
<glyph unicode="&#xE0;" horiz-adv-x="513" d="M414 408Q414 434 389 434Q344 434 271 346Q165 222 165 117Q165 81 191 81Q246 81 332 219Q414 350 414 408ZM547 467L449 0H329L383 253Q242 -14 115 -14Q83 -14 64 9T44 65Q44 148 122 255Q187 343 268 406Q312 439 334 450Q371 467 412 467H547ZM476 595H408L332 695H444L476 595Z"  />
<glyph unicode="&#xE1;" horiz-adv-x="513" d="M414 408Q414 434 389 434Q344 434 271 346Q165 222 165 117Q165 81 191 81Q246 81 332 219Q414 350 414 408ZM547 467L449 0H329L383 253Q242 -14 115 -14Q83 -14 64 9T44 65Q44 148 122 255Q187 343 268 406Q312 439 334 450Q371 467 412 467H547ZM541 695L417 595H349L420 695H541Z"  />
<glyph unicode="&#xE2;" horiz-adv-x="513" d="M414 408Q414 434 389 434Q344 434 271 346Q165 222 165 117Q165 81 191 81Q246 81 332 219Q414 350 414 408ZM547 467L449 0H329L383 253Q242 -14 115 -14Q83 -14 64 9T44 65Q44 148 122 255Q187 343 268 406Q312 439 334 450Q371 467 412 467H547ZM548 594H483L432 662L349 594H283L365 689H508L548 594Z"  />
<glyph unicode="&#xE3;" horiz-adv-x="513" d="M414 408Q414 434 389 434Q344 434 271 346Q165 222 165 117Q165 81 191 81Q246 81 332 219Q414 350 414 408ZM547 467L449 0H329L383 253Q242 -14 115 -14Q83 -14 64 9T44 65Q44 148 122 255Q187 343 268 406Q312 439 334 450Q371 467 412 467H547ZM562 688Q532 636 509 616T456 596Q447 596 430 602T395 615T361 629T338 636Q312 636 289 597L266 606Q295 657 318 677T371 697Q381 697 397 691T430 678T464 664T489 658Q515 658 537 696L562 688Z"  />
<glyph unicode="&#xE4;" horiz-adv-x="513" d="M414 408Q414 434 389 434Q344 434 271 346Q165 222 165 117Q165 81 191 81Q246 81 332 219Q414 350 414 408ZM547 467L449 0H329L383 253Q242 -14 115 -14Q83 -14 64 9T44 65Q44 148 122 255Q187 343 268 406Q312 439 334 450Q371 467 412 467H547ZM366 592H268L291 696H389L366 592ZM538 592H441L464 696H561L538 592Z"  />
<glyph unicode="&#xE5;" horiz-adv-x="513" d="M414 408Q414 434 389 434Q344 434 271 346Q165 222 165 117Q165 81 191 81Q246 81 332 219Q414 350 414 408ZM547 467L449 0H329L383 253Q242 -14 115 -14Q83 -14 64 9T44 65Q44 148 122 255Q187 343 268 406Q312 439 334 450Q371 467 412 467H547ZM334 627Q334 651 343 670T368 703T402 724T442 732Q475 732 495 712T515 663Q515 642 507 623T484 590T449 567T405 558Q373 558 354 576T334 627ZM379 633Q379 618 386 608T412 598Q436 598 452 615T469 657Q469 672 461 682T435 692Q414 692 397 675T379 633Z"  />
<glyph unicode="&#xE6;" horiz-adv-x="696" d="M322 219Q288 212 263 204T220 184Q171 153 171 93Q171 49 205 49Q277 49 322 219ZM609 394Q609 449 574 449Q497 449 455 278L529 296Q553 302 568 309T593 327T605 354T609 394ZM721 389Q721 360 693 298L453 245Q451 228 450 210T448 174Q448 44 543 44Q601 44 669 94L684 75Q576 -12 467 -12Q408 -12 377 14Q351 36 331 97Q241 -13 135 -13Q43 -13 43 63Q43 151 148 202Q203 227 329 253Q350 347 350 368Q350 427 294 427Q241 427 145 367L133 390Q169 413 196 429T244 454Q301 479 368 479Q442 479 456 423Q478 440 494 452T523 470Q556 486 603 486Q653 486 685 463Q721 437 721 389Z"  />
<glyph unicode="&#xE7;" horiz-adv-x="402" d="M318 -89Q318 -119 305 -140T268 -176T214 -196T150 -203Q138 -203 127 -201T106 -196L122 -160Q127 -162 136 -164T156 -166Q174 -166 191 -162T220 -151T241 -134T249 -112Q249 -100 241 -93T219 -85Q200 -85 170 -97L155 -82L200 -14Q69 -10 69 126Q69 255 144 363Q226 484 351 484Q434 484 468 414L369 343Q359 443 304 443Q245 443 212 333Q188 253 188 173Q188 119 208 84Q233 41 284 41Q345 41 410 92L426 73Q332 -1 237 -12L214 -50Q248 -40 267 -40Q287 -40 302 -52T318 -89Z"  />
<glyph unicode="&#xE8;" horiz-adv-x="439" d="M355 395Q355 444 320 444Q230 444 200 259Q286 273 312 291Q355 319 355 395ZM470 376Q470 339 435 271L196 226Q192 206 192 184Q192 38 289 38Q349 38 415 89L430 70Q323 -17 213 -17Q73 -17 73 124Q73 250 148 358Q232 480 352 480Q401 480 435 454Q470 425 470 376ZM433 595H365L289 695H401L433 595Z"  />
<glyph unicode="&#xE9;" horiz-adv-x="439" d="M355 395Q355 444 320 444Q230 444 200 259Q286 273 312 291Q355 319 355 395ZM470 376Q470 339 435 271L196 226Q192 206 192 184Q192 38 289 38Q349 38 415 89L430 70Q323 -17 213 -17Q73 -17 73 124Q73 250 148 358Q232 480 352 480Q401 480 435 454Q470 425 470 376ZM487 695L363 595H295L366 695H487Z"  />
<glyph unicode="&#xEA;" horiz-adv-x="439" d="M355 395Q355 444 320 444Q230 444 200 259Q286 273 312 291Q355 319 355 395ZM470 376Q470 339 435 271L196 226Q192 206 192 184Q192 38 289 38Q349 38 415 89L430 70Q323 -17 213 -17Q73 -17 73 124Q73 250 148 358Q232 480 352 480Q401 480 435 454Q470 425 470 376ZM494 594H429L378 662L295 594H229L311 689H454L494 594Z"  />
<glyph unicode="&#xEB;" horiz-adv-x="439" d="M355 395Q355 444 320 444Q230 444 200 259Q286 273 312 291Q355 319 355 395ZM470 376Q470 339 435 271L196 226Q192 206 192 184Q192 38 289 38Q349 38 415 89L430 70Q323 -17 213 -17Q73 -17 73 124Q73 250 148 358Q232 480 352 480Q401 480 435 454Q470 425 470 376ZM312 592H214L237 696H335L312 592ZM484 592H387L410 696H507L484 592Z"  />
<glyph unicode="&#xEC;" horiz-adv-x="251" d="M281 467L183 0H63L162 467H281ZM322 595H254L178 695H290L322 595Z"  />
<glyph unicode="&#xED;" horiz-adv-x="251" d="M281 467L183 0H63L162 467H281ZM376 695L252 595H184L255 695H376Z"  />
<glyph unicode="&#xEE;" horiz-adv-x="251" d="M281 467L183 0H63L162 467H281ZM372 594H307L256 662L173 594H107L189 689H332L372 594Z"  />
<glyph unicode="&#xEF;" horiz-adv-x="251" d="M281 467L183 0H63L162 467H281ZM201 592H103L126 696H224L201 592ZM373 592H276L299 696H396L373 592Z"  />
<glyph unicode="&#xF0;" horiz-adv-x="528" d="M620 614L610 569H506Q545 498 545 408Q545 257 453 130Q353 -9 207 -9Q88 -9 88 131Q88 221 155 324Q208 403 318 474L328 470L340 454L328 446Q219 367 219 197Q219 142 232 103Q248 42 288 44L293 45Q331 47 373 106Q428 182 428 319Q428 472 349 569H132L142 614H306Q299 621 273 641T199 696H383Q415 673 438 652T475 614H620Z"  />
<glyph unicode="&#xF1;" horiz-adv-x="531" d="M544 421Q544 397 527 314L461 0H340L409 325Q413 342 413 359Q413 385 392 385Q354 385 294 300Q248 235 221 156Q203 102 182 0H62L160 467H280L234 249L241 263L249 277L251 281L252 282Q295 359 349 411Q420 481 488 481Q544 481 544 421ZM545 688Q515 636 492 616T439 596Q430 596 413 602T378 615T344 629T321 636Q295 636 272 597L249 606Q278 657 301 677T354 697Q364 697 380 691T413 678T447 664T472 658Q498 658 520 696L545 688Z"  />
<glyph unicode="&#xF2;" horiz-adv-x="491" d="M382 246Q382 307 366 356Q343 430 297 430Q208 430 208 226Q208 32 287 32Q340 32 366 118Q382 173 382 246ZM508 312Q508 188 438 94Q361 -10 243 -10Q79 -10 79 159Q79 281 149 375Q225 477 343 477Q508 477 508 312ZM426 595H358L282 695H394L426 595Z"  />
<glyph unicode="&#xF3;" horiz-adv-x="491" d="M382 246Q382 307 366 356Q343 430 297 430Q208 430 208 226Q208 32 287 32Q340 32 366 118Q382 173 382 246ZM508 312Q508 188 438 94Q361 -10 243 -10Q79 -10 79 159Q79 281 149 375Q225 477 343 477Q508 477 508 312ZM500 695L376 595H308L379 695H500Z"  />
<glyph unicode="&#xF4;" horiz-adv-x="491" d="M382 246Q382 307 366 356Q343 430 297 430Q208 430 208 226Q208 32 287 32Q340 32 366 118Q382 173 382 246ZM508 312Q508 188 438 94Q361 -10 243 -10Q79 -10 79 159Q79 281 149 375Q225 477 343 477Q508 477 508 312ZM494 594H429L378 662L295 594H229L311 689H454L494 594Z"  />
<glyph unicode="&#xF5;" horiz-adv-x="491" d="M382 246Q382 307 366 356Q343 430 297 430Q208 430 208 226Q208 32 287 32Q340 32 366 118Q382 173 382 246ZM508 312Q508 188 438 94Q361 -10 243 -10Q79 -10 79 159Q79 281 149 375Q225 477 343 477Q508 477 508 312ZM510 688Q480 636 457 616T404 596Q395 596 378 602T343 615T309 629T286 636Q260 636 237 597L214 606Q243 657 266 677T319 697Q329 697 345 691T378 678T412 664T437 658Q463 658 485 696L510 688Z"  />
<glyph unicode="&#xF6;" horiz-adv-x="491" d="M382 246Q382 307 366 356Q343 430 297 430Q208 430 208 226Q208 32 287 32Q340 32 366 118Q382 173 382 246ZM508 312Q508 188 438 94Q361 -10 243 -10Q79 -10 79 159Q79 281 149 375Q225 477 343 477Q508 477 508 312ZM313 592H215L238 696H336L313 592ZM485 592H388L411 696H508L485 592Z"  />
<glyph unicode="&#xF7;" horiz-adv-x="490" d="M358 423Q358 401 342 386T304 370Q281 370 266 385T250 423Q250 446 265 461T304 476Q327 476 342 461T358 423ZM101 246V316H508V246H101ZM358 139Q358 116 342 101T304 86Q282 86 266 101T250 139Q250 161 266 176T304 192Q327 192 342 177T358 139Z"  />
<glyph unicode="&#xF8;" horiz-adv-x="485" d="M379 232Q379 241 379 258T378 285L214 131Q216 114 221 98T234 68Q255 31 284 31Q334 31 360 111Q379 168 379 232ZM372 321Q366 360 348 392Q324 431 289 431Q205 431 205 218Q205 195 208 167L372 321ZM555 454Q544 444 528 429T491 394Q505 354 505 300Q505 182 434 90Q356 -10 242 -10Q160 -10 114 38L61 -10L40 10L97 62Q76 105 76 165Q76 283 148 376Q228 477 342 477Q436 477 477 418L536 473L555 454Z"  />
<glyph unicode="&#xF9;" horiz-adv-x="527" d="M557 467L459 0H339L385 219Q363 175 338 138T284 70Q207 -14 132 -14Q77 -14 77 47Q77 70 94 153L160 467H280L212 143Q208 126 208 108Q208 82 229 82Q263 82 315 155Q366 226 394 304Q404 331 415 371T438 467H557ZM438 595H370L294 695H406L438 595Z"  />
<glyph unicode="&#xFA;" horiz-adv-x="527" d="M557 467L459 0H339L385 219Q363 175 338 138T284 70Q207 -14 132 -14Q77 -14 77 47Q77 70 94 153L160 467H280L212 143Q208 126 208 108Q208 82 229 82Q263 82 315 155Q366 226 394 304Q404 331 415 371T438 467H557ZM524 695L400 595H332L403 695H524Z"  />
<glyph unicode="&#xFB;" horiz-adv-x="527" d="M557 467L459 0H339L385 219Q363 175 338 138T284 70Q207 -14 132 -14Q77 -14 77 47Q77 70 94 153L160 467H280L212 143Q208 126 208 108Q208 82 229 82Q263 82 315 155Q366 226 394 304Q404 331 415 371T438 467H557ZM520 594H455L404 662L321 594H255L337 689H480L520 594Z"  />
<glyph unicode="&#xFC;" horiz-adv-x="527" d="M557 467L459 0H339L385 219Q363 175 338 138T284 70Q207 -14 132 -14Q77 -14 77 47Q77 70 94 153L160 467H280L212 143Q208 126 208 108Q208 82 229 82Q263 82 315 155Q366 226 394 304Q404 331 415 371T438 467H557ZM349 592H251L274 696H372L349 592ZM521 592H424L447 696H544L521 592Z"  />
<glyph unicode="&#xFD;" horiz-adv-x="525" d="M557 467L461 18Q454 -16 446 -41T430 -85Q408 -136 365 -170Q285 -233 153 -233Q48 -233 -6 -203L73 -116Q131 -185 197 -185Q264 -185 300 -122Q321 -84 339 0L385 217Q252 -15 128 -15Q76 -15 76 44Q76 65 94 152L159 467H280L212 142Q210 130 209 121T207 106Q207 82 228 82Q269 82 334 181Q378 249 400 318Q406 336 415 373T437 467H557ZM506 695L382 595H314L385 695H506Z"  />
<glyph unicode="&#xFE;" horiz-adv-x="529" d="M552 398Q552 333 525 251Q499 174 462 116Q422 54 372 25Q328 1 248 -10L244 19Q335 32 373 112Q395 157 410 226Q426 293 426 346Q426 394 402 394Q366 394 305 297Q238 193 199 44L140 -228H21L219 695H337L235 226Q368 479 489 479Q552 479 552 398Z"  />
<glyph unicode="&#xFF;" horiz-adv-x="525" d="M557 467L461 18Q454 -16 446 -41T430 -85Q408 -136 365 -170Q285 -233 153 -233Q48 -233 -6 -203L73 -116Q131 -185 197 -185Q264 -185 300 -122Q321 -84 339 0L385 217Q252 -15 128 -15Q76 -15 76 44Q76 65 94 152L159 467H280L212 142Q210 130 209 121T207 106Q207 82 228 82Q269 82 334 181Q378 249 400 318Q406 336 415 373T437 467H557ZM341 592H243L266 696H364L341 592ZM513 592H416L439 696H536L513 592Z"  />
<glyph unicode="&#x131;" horiz-adv-x="251" d="M281 467L183 0H63L162 467H281Z"  />
<glyph unicode="&#x152;" horiz-adv-x="814" d="M509 353Q509 441 484 504Q449 593 375 593Q297 593 251 476Q216 383 216 292Q216 206 241 137Q276 39 346 39Q426 39 473 161Q509 254 509 353ZM906 629L896 582H685L635 349H835L824 300L626 301L572 45H795L785 0H441L449 37Q372 -8 293 -8Q191 -8 139 56Q91 114 91 219Q91 379 181 504Q280 643 435 643Q526 643 567 592L575 629H906Z"  />
<glyph unicode="&#x153;" horiz-adv-x="748" d="M382 246Q382 305 366 356Q343 430 297 430Q209 430 209 226Q209 160 221 111Q240 32 287 32Q339 32 365 118Q382 178 382 246ZM666 400Q666 449 631 449Q588 449 554 398Q543 382 532 349T510 263Q597 278 623 295Q666 323 666 400ZM780 382Q780 342 746 275L508 230Q506 211 505 194T503 163Q503 116 526 81Q553 42 599 42Q660 42 725 93L741 74Q631 -13 523 -13Q444 -13 410 38L400 53Q318 -9 240 -9Q79 -9 79 160Q79 283 149 375Q225 478 343 478Q452 478 488 401Q570 485 662 485Q711 485 744 458Q780 429 780 382Z"  />
<glyph unicode="&#x160;" horiz-adv-x="441" d="M434 512Q381 596 317 596Q285 596 263 577Q238 558 238 526Q238 494 323 408L407 323Q450 271 450 215Q450 117 364 49Q284 -13 182 -13Q96 -13 34 30L129 127Q175 36 247 36Q285 36 317 60Q352 86 352 123Q352 160 298 216L210 308Q171 347 161 365Q141 397 141 436Q141 531 214 589Q281 643 380 643Q446 643 518 611L434 512ZM518 764L427 670H284L233 764H298L361 697L453 764H518Z"  />
<glyph unicode="&#x161;" horiz-adv-x="363" d="M349 375Q287 437 248 437Q228 437 213 425Q197 413 197 393Q197 366 242 326L324 250Q369 202 369 158Q369 78 293 29Q226 -15 143 -15Q71 -15 24 10L95 90Q149 29 199 29Q225 29 246 45T267 87Q267 115 225 153L146 224Q104 269 104 314Q104 389 166 437Q224 481 300 481Q356 481 417 455L349 375ZM452 688L361 594H218L167 688H232L295 621L387 688H452Z"  />
<glyph unicode="&#x178;" horiz-adv-x="461" d="M585 631L437 376Q424 357 406 326T363 249L312 0H187L233 220L144 631H283L350 305L538 631H585ZM336 672H240L261 773H358L336 672ZM514 672H416L438 773H536L514 672Z"  />
<glyph unicode="&#x17D;" horiz-adv-x="440" d="M514 629L500 570L157 93H422L400 0H47L58 50L413 536L151 537L173 629H514ZM506 764L415 670H272L221 764H286L349 697L441 764H506Z"  />
<glyph unicode="&#x17E;" horiz-adv-x="421" d="M483 467L472 418L154 98H410L387 0H37L50 59L364 369H126L148 467H483ZM482 688L391 594H248L197 688H262L325 621L417 688H482Z"  />
<glyph unicode="&#x192;" horiz-adv-x="490" d="M516 637Q490 667 466 667Q414 667 392 604Q384 579 370 497L365 467H503L493 423H362L300 0Q270 -207 84 -207Q26 -207 -18 -179L34 -139Q56 -169 84 -169Q132 -169 158 -104Q163 -89 169 -63T180 1L241 425H165L174 467H247Q268 589 305 638Q354 705 466 705Q524 705 568 677L516 637Z"  />
<glyph unicode="&#x2C6;" horiz-adv-x="400" d="M332 594H267L216 662L133 594H67L149 689H292L332 594Z"  />
<glyph unicode="&#x2C7;" horiz-adv-x="400" d="M342 688L251 594H108L57 688H122L185 621L277 688H342Z"  />
<glyph unicode="&#x2DA;" horiz-adv-x="400" d="M109 627Q109 651 118 670T143 703T177 724T217 732Q250 732 270 712T290 663Q290 642 282 623T259 590T224 567T180 558Q148 558 129 576T109 627ZM154 633Q154 618 161 608T187 598Q211 598 227 615T244 657Q244 672 236 682T210 692Q189 692 172 675T154 633Z"  />
<glyph unicode="&#x2DC;" horiz-adv-x="400" d="M348 688Q318 636 295 616T242 596Q233 596 216 602T181 615T147 629T124 636Q98 636 75 597L52 606Q81 657 104 677T157 697Q167 697 183 691T216 678T250 664T275 658Q301 658 323 696L348 688Z"  />
<glyph unicode="&#x2013;" horiz-adv-x="500" d="M560 271H48L60 328H573L560 271Z"  />
<glyph unicode="&#x2014;" horiz-adv-x="1000" d="M876 271H210L223 328H889L876 271Z"  />
<glyph unicode="&#x2018;" horiz-adv-x="175" d="M306 743L236 545H139L242 743H306Z"  />
<glyph unicode="&#x2019;" horiz-adv-x="176" d="M304 696L201 498H137L207 695L304 696Z"  />
<glyph unicode="&#x201A;" horiz-adv-x="193" d="M184 110L80 -87H16L87 111L184 110Z"  />
<glyph unicode="&#x201C;" horiz-adv-x="295" d="M308 743L237 545H140L244 743H308ZM430 743L360 545H262L365 743H430Z"  />
<glyph unicode="&#x201D;" horiz-adv-x="303" d="M303 694L201 496H136L206 694H303ZM425 694L322 496H258L328 694H425Z"  />
<glyph unicode="&#x201E;" horiz-adv-x="319" d="M188 111L85 -87H20L90 111H188ZM310 111L206 -87H142L212 111H310Z"  />
<glyph unicode="&#x2020;" horiz-adv-x="463" d="M562 522L549 463H372L274 0H188L287 463H112L124 521L298 522L338 708H424L385 522H562Z"  />
<glyph unicode="&#x2021;" horiz-adv-x="501" d="M578 522L565 463H388L342 245H517L505 187L331 186L291 0H204L244 186H67L80 245H256L303 463H128L140 523L314 522L354 708H440L401 522H578Z"  />
<glyph unicode="&#x2022;" horiz-adv-x="295" d="M306 314Q306 294 298 278T277 248T246 228T209 221Q169 221 141 247T112 314Q112 333 119 350T140 379T171 399T209 406Q228 406 246 399T277 380T298 350T306 314Z"  />
<glyph unicode="&#x2026;" horiz-adv-x="675" d="M187 111L163 0H52L76 111H187ZM417 111L394 0H282L306 111H417ZM645 111L622 0H511L534 111H645Z"  />
<glyph unicode="&#x2030;" horiz-adv-x="818" d="M494 109Q494 148 480 190Q462 245 429 245Q404 245 392 211Q382 188 382 157Q382 117 396 75Q414 18 446 18Q472 18 485 52Q494 77 494 109ZM302 450Q302 491 288 533Q268 587 234 587Q209 587 197 554Q188 530 188 500Q188 459 202 417Q222 361 255 361Q302 361 302 450ZM761 108Q761 147 747 189Q729 244 696 244Q671 244 658 211Q649 187 649 156Q649 112 662 73Q680 16 713 16Q738 16 752 51Q761 76 761 108ZM559 175Q559 106 520 52Q477 -9 410 -9Q365 -9 339 20Q316 48 316 94Q316 160 357 215Q402 273 467 273Q510 273 534 247T559 175ZM583 605L155 0H91L521 605H583ZM366 516Q366 449 328 394Q284 332 220 332Q174 332 148 361Q123 389 123 436Q123 501 164 556Q207 614 271 614Q316 614 341 588T366 516ZM826 173Q826 103 786 50Q742 -10 676 -10Q632 -10 606 19Q583 45 583 91Q583 157 624 212Q668 271 733 271Q776 271 801 244T826 173Z"  />
<glyph unicode="&#x2039;" horiz-adv-x="274" d="M333 465L190 296L257 114H149L87 281L238 465H333Z"  />
<glyph unicode="&#x203A;" horiz-adv-x="272" d="M312 299L160 115H66L209 285L142 467H250L312 299Z"  />
<glyph unicode="&#x20AC;" horiz-adv-x="490" d="M162 380Q183 440 216 489T290 572T379 626T477 645Q511 645 544 633T610 590L518 500Q499 553 476 573T423 594Q403 594 383 585T342 551T304 486T271 380H469L451 335H263Q257 302 257 269H426L407 224H257Q262 147 291 104T382 60Q405 60 431 69T492 103L507 80Q462 40 418 18T315 -5Q224 -5 177 49T130 201Q130 207 130 212T131 224H63L80 269H134Q136 283 139 300T149 335H86L103 380H162Z"  />
<glyph unicode="&#x2122;" horiz-adv-x="800" d="M356 630V590H269V254H178V590H90V630H356ZM790 631V255H699V538L607 255H548L447 539V255H404V631H506L599 357L685 631H790Z"  />
<glyph unicode="&#xE300;" horiz-adv-x="400" d="M272 671H204L128 771H240L272 671Z"  />
<glyph unicode="&#xE301;" horiz-adv-x="400" d="M296 772L172 672H104L175 772H296Z"  />
<glyph unicode="&#xE302;" horiz-adv-x="400" d="M331 672H265L214 740L131 672H68L150 767H291L331 672Z"  />
<glyph unicode="&#xE303;" horiz-adv-x="400" d="M342 764L251 670H108L57 764H122L185 697L277 764H342Z"  />
<glyph unicode="&#xE304;" horiz-adv-x="400" d="M346 763Q318 712 295 692T242 672Q233 672 216 678T181 691T147 705T124 712Q98 712 75 673L53 683Q82 733 105 753T157 773Q166 773 182 767T216 754T250 740T275 734Q301 734 323 772L346 763Z"  />
<glyph unicode="&#xE305;" horiz-adv-x="400" d="M148 672H52L73 773H170L148 672ZM326 672H228L250 773H348L326 672Z"  />
<glyph unicode="&#xE308;" horiz-adv-x="400" d="M109 731Q109 755 118 774T143 807T177 828T217 836Q250 836 270 816T290 767Q290 746 282 727T259 694T224 671T180 662Q148 662 129 680T109 731ZM154 737Q154 722 161 712T187 702Q211 702 227 719T244 761Q244 776 236 786T210 796Q189 796 172 779T154 737Z"  />

</font>
</defs>
</svg>
