<?xml  version="1.0" encoding="UTF-8"?>
<!DOCTYPE svg PUBLIC "-//W3C//DTD SVG 1.0//EN" "http://www.w3.org/TR/2001/REC-SVG-20010904/DTD/svg10.dtd" >
<svg xmlns="http://www.w3.org/2000/svg" >
<metadata>
<version>1.0</version>
<id><![CDATA[Semplicita W01 Italic]]></id>
<vendor>Monotype Imaging Inc.</vendor>
<credits>
<name>Fonts.com WebFonts</name>
<URL>http://webfonts.fonts.com</URL>
<role>Home of the Web fonts</role>
</credits>
<license>
<URL>http://webfonts.fonts.com/Legal</URL>
</license>
<copyright></copyright>
<trademark></trademark>
<licensee>
<name></name>
</licensee>
</metadata>
<defs >
<font horiz-adv-x="536" id="f7da0980-08e5-48dd-980c-6d7920f82b83">
<font-face font-family="" panose-1="2 0 0 0 0 0 0 0 0 0" ascent="1020" descent="-268" units-per-em="1000" alphabetic="0">
</font-face>
<missing-glyph horiz-adv-x="0" />

<glyph unicode="&#xA;" />
<glyph unicode="&#xD;" />
<glyph unicode=" " horiz-adv-x="239" />
<glyph unicode="!" horiz-adv-x="255" d="M140 49Q140 25 122 7T79 -12Q59 -12 47 1T35 34Q35 60 53 78T96 96Q117 96 128 83T140 49ZM84 197L154 757H247L130 197H84Z"  />
<glyph unicode="&quot;" horiz-adv-x="364" d="M258 480L291 761H368L312 480H258ZM106 480L139 761H217L160 480H106Z"  />
<glyph unicode="#" horiz-adv-x="632" d="M417 448H278L235 297H376L417 448ZM291 -5L359 239H219L150 -11L93 -5L162 239H46L61 297H178L218 448H105L119 506H234L304 753L362 748L294 506H433L501 753L560 748L492 506H607L595 448H476L434 297H548L536 239H418L348 -11L291 -5Z"  />
<glyph unicode="$" horiz-adv-x="547" d="M315 676Q294 673 275 664T240 641T217 607T208 561Q208 519 228 491T279 443L315 676ZM274 60Q325 71 358 104T391 202Q391 244 375 277T318 336L274 60ZM192 -108L208 -11Q173 -10 143 -1T87 23T45 54T19 86L68 138Q76 126 89 112T120 86T162 65T218 55L266 365Q238 382 214 400T171 439T142 486T131 548Q131 589 145 623T186 682T248 722T326 742L342 845H398L382 744Q410 741 433 733T474 713T502 691T520 671L474 620Q457 640 433 657T372 678L330 416Q354 400 379 382T424 341T457 287T470 216Q470 174 456 137T414 69T349 19T263 -7L247 -110L192 -108Z"  />
<glyph unicode="%" horiz-adv-x="784" d="M550 38Q571 38 590 47T624 71T647 107T656 151Q656 186 636 210T581 235Q559 235 540 226T506 202T483 166T474 122Q474 87 494 63T550 38ZM541 -12Q514 -12 493 -2T455 25T431 65T422 116Q422 151 435 182T472 236T525 272T588 286Q615 286 637 276T675 249T700 209T709 158Q709 123 695 92T658 38T604 2T541 -12ZM227 515Q248 515 267 524T301 548T325 583T334 627Q334 662 314 686T258 711Q237 711 218 702T185 678T161 642T152 599Q152 563 172 539T227 515ZM386 633Q386 598 372 568T335 514T281 478T217 464Q190 464 169 474T131 501T107 541T98 592Q98 627 112 658T149 712T202 748T265 762Q292 762 314 752T352 725T377 684T386 633ZM160 -4L587 763L628 745L202 -22L160 -4Z"  />
<glyph unicode="&amp;" horiz-adv-x="697" d="M284 456Q277 455 261 450T225 432T183 402T143 359T114 302T102 228Q102 186 114 153T148 97T200 61T265 48Q307 48 342 64T403 101T445 144T466 177L284 456ZM581 0L498 129Q491 117 471 94T420 46T346 5T253 -13Q204 -13 164 5T96 54T52 127T36 217Q36 274 56 322T108 408T178 469T253 504Q242 522 228 551T214 619Q214 650 225 678T258 726T309 758T376 770Q404 770 425 764T462 748T488 729T506 712L456 669Q451 674 443 681T423 695T397 706T366 711Q332 711 305 689T278 621Q278 589 291 563T319 515L568 516L546 461L357 460L670 0H581Z"  />
<glyph unicode="&apos;" horiz-adv-x="213" d="M106 480L139 761H217L160 480H106Z"  />
<glyph unicode="(" horiz-adv-x="246" d="M59 -266Q54 -241 50 -207T44 -133T40 -54T38 24Q38 150 55 266T100 486T162 678T231 836L282 814Q261 768 230 691T171 514T122 294T101 43Q101 8 102 -30T104 -106T108 -179T113 -244L59 -266Z"  />
<glyph unicode=")" horiz-adv-x="247" d="M-41 -244Q-3 -151 30 -64T87 116T126 313T140 544Q140 584 139 624T136 701T132 767T127 814L183 836Q187 813 190 781T196 710T199 630T201 549Q201 433 187 322T147 107T86 -91T9 -266L-41 -244Z"  />
<glyph unicode="*" horiz-adv-x="475" d="M334 635L331 665L457 724L465 666L334 635ZM141 509L249 607L268 588L179 470L141 509ZM341 470L292 588L317 607L392 509L341 470ZM280 680L284 822H350L308 680H280ZM118 666L144 724L252 665L239 635L118 666Z"  />
<glyph unicode="+" horiz-adv-x="613" d="M344 334L308 104H242L278 334H62L72 394H288L324 624H390L354 394H570L560 334H344Z"  />
<glyph unicode="&#x2c;" horiz-adv-x="236" d="M-42 -107L60 90H134L11 -107H-42Z"  />
<glyph unicode="-" horiz-adv-x="384" d="M57 218L74 275H308L291 218H57Z"  />
<glyph unicode="." horiz-adv-x="234" d="M128 49Q128 26 111 8T68 -11Q49 -11 37 3T24 35Q24 60 43 77T85 95Q105 95 116 82T128 49Z"  />
<glyph unicode="/" horiz-adv-x="529" d="M-36 -197L513 820L563 796L13 -216L-36 -197Z"  />
<glyph unicode="0" horiz-adv-x="645" d="M285 48Q342 48 385 85T458 181T503 316T519 466Q519 509 513 551T492 626T449 679T379 700Q323 700 280 664T207 570T162 437T147 285Q147 246 152 204T172 128T214 71T285 48ZM274 -13Q212 -13 174 12T113 79T83 171T75 276Q75 369 95 457T155 612T254 721T391 762Q452 762 491 737T552 671T582 578T591 471Q591 376 571 289T510 135T411 27T274 -13Z"  />
<glyph unicode="1" horiz-adv-x="344" d="M117 -4L224 674L97 620L85 674L308 769L186 -4H117Z"  />
<glyph unicode="2" horiz-adv-x="575" d="M-18 0L-21 14Q-15 20 8 38T67 85T146 148T233 225T318 310T392 398T444 486T464 570Q464 597 457 621T435 662T399 690T351 701Q324 701 300 693T254 672T215 645T187 618L158 665Q170 677 190 693T237 725T296 751T366 762Q406 762 438 748T492 710T525 653T537 580Q537 506 501 437T406 302T273 177T125 61L481 63L471 0H-18Z"  />
<glyph unicode="3" horiz-adv-x="549" d="M38 119Q42 111 53 99T83 76T129 56T191 47Q238 47 274 63T336 105T374 163T387 230Q387 262 376 292T341 345T285 383T206 399L212 435Q261 438 299 453T365 492T406 545T420 603Q420 643 393 670T313 698Q281 698 247 687T185 657L170 707Q177 714 193 723T232 741T280 756T333 762Q372 762 401 749T450 715T480 667T490 610Q490 584 482 558T457 507T413 460T347 421V419Q403 393 430 343T458 233Q458 183 439 139T385 61T300 7T186 -13Q142 -13 110 -4T55 17T19 43T-2 65L38 119Z"  />
<glyph unicode="4" horiz-adv-x="605" d="M435 586L128 209H375L435 586ZM341 -4L365 147H6L4 166L525 775H531L442 209H538L528 147H432L408 -4H341Z"  />
<glyph unicode="5" horiz-adv-x="545" d="M36 103Q64 80 100 65T184 49Q236 49 276 68T343 118T385 187T399 264Q399 294 390 321T361 370T310 405T236 418Q211 418 184 413T121 397L269 749H533L506 689H306L216 469Q231 471 244 472T268 473Q314 473 352 459T417 419T459 357T474 274Q474 222 455 171T398 79T307 13T184 -13Q148 -13 118 -7T64 9T24 29T0 45L36 103Z"  />
<glyph unicode="6" horiz-adv-x="587" d="M262 49Q302 49 337 65T398 110T439 174T454 252Q454 283 445 311T417 360T373 393T312 406Q272 406 237 389T175 344T133 278T117 201Q117 169 127 141T156 93T202 61T262 49ZM455 721Q434 701 403 668T338 594T269 510T207 425Q230 448 264 457T329 467Q372 467 408 451T471 405T511 338T526 256Q526 203 505 154T446 68T360 8T254 -14Q204 -14 165 3T99 48T58 113T44 189Q44 238 65 293T119 405T193 515T276 617T354 703T415 766L455 721Z"  />
<glyph unicode="7" horiz-adv-x="515" d="M12 -7L451 687L109 686L119 749H568L91 -7H12Z"  />
<glyph unicode="8" horiz-adv-x="587" d="M313 408Q345 408 375 421T427 456T463 509T477 574Q477 629 444 666T356 703Q324 703 294 690T240 653T202 600T188 535Q188 509 197 486T222 446T261 418T313 408ZM254 46Q287 46 318 60T373 98T411 153T426 219Q426 246 417 270T391 312T351 340T299 351Q266 351 235 337T180 300T142 245T127 178Q127 151 136 127T162 85T202 57T254 46ZM408 378Q444 358 471 322T498 226Q498 175 477 131T420 55T339 4T246 -14Q204 -14 169 0T108 40T69 99T55 175Q55 217 69 250T105 308T153 351T205 379Q163 401 140 440T117 534Q117 588 139 631T198 703T278 747T366 763Q405 763 439 751T498 715T537 658T551 585Q551 547 539 514T507 455T461 409T408 378Z"  />
<glyph unicode="9" horiz-adv-x="587" d="M298 342Q338 342 374 359T436 404T477 470T493 547Q493 579 483 607T454 655T408 687T348 699Q308 699 274 683T213 638T172 573T157 495Q157 464 166 437T193 388T237 355T298 342ZM154 27Q175 47 206 80T271 154T340 238T402 323Q379 300 345 291T280 281Q237 281 201 297T139 343T98 411T83 494Q83 549 105 598T166 683T254 741T361 762Q412 762 450 745T513 700T552 636T565 562Q565 512 545 457T492 347T418 237T336 135T258 48T194 -18L154 27Z"  />
<glyph unicode=":" horiz-adv-x="247" d="M191 405Q191 381 173 364T130 346Q111 346 99 359T86 391Q86 417 104 434T147 451Q167 451 179 438T191 405ZM134 49Q134 26 116 8T73 -11Q54 -11 42 3T30 35Q30 60 48 78T90 96Q110 96 122 83T134 49Z"  />
<glyph unicode=";" horiz-adv-x="269" d="M-32 -107L71 90H145L21 -107H-32ZM210 406Q210 382 192 365T148 347Q130 347 118 360T106 391Q106 417 124 434T165 451Q186 451 198 439T210 406Z"  />
<glyph unicode="&lt;" horiz-adv-x="590" d="M61 350L67 390L540 659L562 603L146 370L485 118L446 64L61 350Z"  />
<glyph unicode="=" horiz-adv-x="669" d="M106 440L115 501H613L604 440H106ZM70 215L80 275H578L568 215H70Z"  />
<glyph unicode="&gt;" horiz-adv-x="590" d="M71 81L50 137L465 370L127 622L165 676L550 390L544 350L71 81Z"  />
<glyph unicode="?" horiz-adv-x="462" d="M166 -11Q146 -11 134 3T122 36Q122 60 140 77T182 95Q202 95 213 82T225 50Q225 26 207 8T166 -11ZM402 291Q393 277 374 260T328 227T271 200T208 189Q182 189 157 197T113 221T83 262T71 319Q71 363 92 395T144 453T211 500T279 544T331 591T352 651Q352 680 336 697T289 715Q272 715 256 710T225 698T200 684T183 672L162 715Q172 723 187 733T222 752T263 767T309 773Q339 773 359 764T393 738T413 702T419 660Q419 616 398 584T346 525T278 476T210 431T158 383T137 324Q137 291 159 268T221 245Q245 245 268 253T311 275T347 302T372 328L402 291Z"  />
<glyph unicode="@" horiz-adv-x="1016" d="M697 -202Q626 -231 568 -240T469 -249Q376 -249 299 -215T168 -122T83 17T52 190Q52 266 72 338T130 473T220 589T334 680T469 739T617 760Q709 760 776 731T888 654T954 543T976 415Q976 334 945 255T857 113T719 11T536 -28Q474 -28 431 -14T362 25T323 80T311 143Q311 180 325 216T367 282T433 329T524 347Q567 347 598 334T654 296L664 357Q667 378 666 396T655 429T622 451T562 459Q510 459 474 448T426 432L410 478Q439 492 477 504T573 516Q626 516 658 503T706 467T724 410T720 336L695 178H677Q666 214 648 236T607 270T563 286T523 290Q488 290 460 279T413 249T383 206T373 156Q373 132 382 110T412 69T466 40T548 29Q632 29 700 62T817 149T891 270T917 405Q917 462 898 515T839 611T741 678T603 703Q502 703 413 662T256 552T149 391T109 199Q109 120 134 49T208 -76T325 -161T484 -193Q502 -193 525 -192T574 -186T628 -173T686 -151L697 -202Z"  />
<glyph unicode="A" horiz-adv-x="668" d="M396 579Q394 587 391 601T386 624Q383 613 377 601T365 579L186 267H475L396 579ZM546 0L493 202H147L30 0H-50L413 780L624 0H546Z"  />
<glyph unicode="B" horiz-adv-x="606" d="M257 65Q307 65 344 78T406 113T443 164T456 225Q456 286 416 321T308 356H181L135 65H257ZM250 421Q295 421 332 433T396 468T438 520T453 588Q453 618 444 638T417 670T375 687T320 692H235L192 421H250ZM53 0L173 757H318Q361 757 399 750T467 726T512 679T529 606Q529 565 516 532T481 474T434 432T384 405Q407 401 433 390T482 358T518 305T533 228Q533 181 515 140T460 67T368 18T240 0H53Z"  />
<glyph unicode="C" horiz-adv-x="722" d="M645 81Q588 34 524 10T388 -14Q314 -14 254 12T151 84T85 193T62 330Q62 423 97 504T194 644T335 737T505 771Q549 771 585 763T649 742T699 710T737 673L689 621Q660 659 611 682T495 705Q423 705 358 677T244 598T167 480T138 334Q138 270 157 218T212 129T296 72T403 51Q435 51 466 57T526 73T577 98T619 129L645 81Z"  />
<glyph unicode="D" horiz-adv-x="718" d="M221 65Q300 65 369 88T490 157T570 269T600 421Q600 493 580 544T523 628T436 676T328 692H235L135 65H221ZM53 0L173 757H341Q413 757 474 737T580 677T650 575T676 429Q676 335 644 256T552 120T408 32T222 0H53Z"  />
<glyph unicode="E" horiz-adv-x="544" d="M53 1L173 756H549L538 692H234L194 438H439L429 373H184L135 65H470L460 1H53Z"  />
<glyph unicode="F" horiz-adv-x="503" d="M53 0L173 756H543L533 692H235L194 436H434L424 372H184L125 0H53Z"  />
<glyph unicode="G" horiz-adv-x="809" d="M497 296L507 361H779Q762 257 721 185T625 69T508 6T385 -14Q313 -14 254 11T152 81T86 190T62 331Q62 428 99 509T198 648T340 739T507 771Q571 771 617 756T695 721T742 685T761 665L713 612Q710 615 696 630T655 661T589 691T495 705Q418 705 353 675T240 593T165 475T138 335Q138 275 156 223T208 133T289 73T394 51Q443 51 491 67T579 115T649 192T693 296H497Z"  />
<glyph unicode="H" horiz-adv-x="738" d="M516 0L572 353H181L125 0H53L173 757H245L191 418H582L636 757H708L588 0H516Z"  />
<glyph unicode="I" horiz-adv-x="275" d="M53 0L173 757H245L125 0H53Z"  />
<glyph unicode="J" horiz-adv-x="274" d="M-125 -199Q-79 -181 -48 -162T5 -112T40 -37T65 77L173 757H244L136 72Q123 -8 106 -61T60 -152T-9 -214T-108 -263L-125 -199Z"  />
<glyph unicode="K" horiz-adv-x="624" d="M490 0L180 350L125 0H53L173 757H245L192 421L562 757H658L244 381L593 0H490Z"  />
<glyph unicode="L" horiz-adv-x="496" d="M53 1L173 757H245L135 65H441L431 1H53Z"  />
<glyph unicode="M" horiz-adv-x="933" d="M742 0L778 516Q778 520 779 532T782 548Q780 545 774 535T766 521L414 -28L231 521Q226 534 223 548Q223 541 221 532T217 516L92 0H17L220 778L430 169Q432 164 435 152T438 132Q441 140 447 152T457 169L861 778L818 0H742Z"  />
<glyph unicode="N" horiz-adv-x="822" d="M217 591L124 0H52L175 776L627 158L722 757H794L669 -26L217 591Z"  />
<glyph unicode="O" horiz-adv-x="873" d="M400 51Q468 51 532 80T647 159T727 278T758 425Q758 486 739 537T686 626T603 684T497 705Q429 705 364 677T249 599T169 482T138 338Q138 280 156 228T208 137T290 74T400 51ZM391 -14Q317 -14 257 12T153 83T85 192T61 331Q61 426 98 507T198 646T341 738T507 771Q582 771 642 746T745 675T811 568T834 430Q834 331 796 250T695 110T553 19T391 -14Z"  />
<glyph unicode="P" horiz-adv-x="550" d="M243 363Q295 363 337 377T409 416T455 477T471 555Q471 591 460 617T429 659T383 684T326 692H235L182 363H243ZM53 0L173 757H318Q361 757 403 748T477 717T529 657T549 563Q549 512 531 464T476 380T381 321T244 298H172L125 0H53Z"  />
<glyph unicode="Q" horiz-adv-x="874" d="M401 51Q469 51 533 80T648 160T729 279T760 426Q760 487 741 538T688 626T605 684T498 705Q429 705 365 677T250 599T170 482T139 338Q139 280 157 228T209 137T291 74T401 51ZM709 -95L589 40Q543 14 492 0T388 -14Q316 -14 256 12T153 84T86 194T62 332Q62 426 99 506T199 645T341 737T508 771Q583 771 643 746T746 675T812 568T835 430Q835 372 821 320T783 224T724 143T650 78L770 -40L709 -95Z"  />
<glyph unicode="R" horiz-adv-x="583" d="M238 363Q299 363 343 379T416 423T458 485T472 558Q472 629 430 660T315 692H235L182 363H238ZM456 0L220 300H173L125 0H53L173 757H314Q354 757 396 749T472 720T527 662T549 565Q549 514 532 469T482 390T405 333T303 303L553 0H456Z"  />
<glyph unicode="S" horiz-adv-x="534" d="M51 138Q59 126 73 111T107 83T155 61T217 52Q254 52 286 63T342 96T379 147T393 213Q393 258 373 287T322 339T256 380T190 423T139 482T118 568Q118 620 139 658T193 722T269 760T354 773Q392 773 421 765T470 744T504 719T524 697L477 646Q457 670 427 689T351 708Q322 708 294 699T244 674T209 632T195 576Q195 537 215 511T266 464T333 424T399 379T450 317T471 227Q471 174 451 130T395 54T312 4T210 -14Q169 -14 135 -5T74 20T29 52T1 86L51 138Z"  />
<glyph unicode="T" horiz-adv-x="530" d="M179 0L289 692H80L90 756H580L570 692H361L251 0H179Z"  />
<glyph unicode="U" horiz-adv-x="728" d="M631 757H703L596 84Q554 41 481 14T320 -14Q185 -14 126 58T90 274L166 757H239L167 304Q156 235 160 187T184 109T242 65T337 51Q395 51 444 65T528 109L631 757Z"  />
<glyph unicode="V" horiz-adv-x="620" d="M68 757H151L281 173Q283 166 282 156T280 137Q282 145 285 155T292 173L607 757H692L253 -32L68 757Z"  />
<glyph unicode="W" horiz-adv-x="975" d="M532 537Q529 551 528 559T528 581Q525 567 522 559T511 537L206 -30L78 757H157L241 194Q242 186 242 176T240 158Q242 166 245 176T252 194L559 781L685 195Q687 186 686 175T684 155Q686 164 689 175T697 195L955 757H1034L662 -31L532 537Z"  />
<glyph unicode="X" horiz-adv-x="609" d="M458 0L308 326L50 0H-36L277 393L103 757H189L328 452L569 757H656L360 388L544 0H458Z"  />
<glyph unicode="Y" horiz-adv-x="545" d="M185 0L237 327L65 757H145L280 407Q282 403 282 400T282 391Q284 397 286 400T291 407L543 757H621L309 327L257 0H185Z"  />
<glyph unicode="Z" horiz-adv-x="577" d="M-41 1L477 692H141L152 756H611L93 65H507L497 1H-41Z"  />
<glyph unicode="[" horiz-adv-x="292" d="M3 -216L167 820H335L326 763H218L72 -162H180L171 -216H3Z"  />
<glyph unicode="\" horiz-adv-x="519" d="M345 -216L117 797L174 820L401 -197L345 -216Z"  />
<glyph unicode="]" horiz-adv-x="291" d="M-44 -216L-35 -159H72L219 766H112L120 820H288L124 -216H-44Z"  />
<glyph unicode="^" horiz-adv-x="607" d="M515 410L420 737L220 410H144L401 814H463L592 410H515Z"  />
<glyph unicode="_" horiz-adv-x="588" d="M8 -29L17 28H487L478 -29H8Z"  />
<glyph unicode="`" horiz-adv-x="312" d="M306 583L180 728L247 773L349 610L306 583Z"  />
<glyph unicode="a" horiz-adv-x="497" d="M351 208Q335 228 304 246T227 265Q202 265 176 258T128 236T93 198T79 142Q79 93 111 68T198 42Q236 42 271 53T331 83L351 208ZM392 55Q354 23 299 5T186 -13Q138 -13 105 -1T50 31T19 79T9 135Q9 183 30 217T84 274T155 307T226 318Q243 318 262 315T299 306T332 289T359 264L370 331Q374 353 371 372T355 406T320 429T264 437Q241 437 220 434T181 425T150 416T131 408L114 458Q140 470 180 482T274 494Q325 494 359 481T411 444T434 387T433 313L392 55Z"  />
<glyph unicode="b" horiz-adv-x="566" d="M105 84Q120 70 153 57T227 44Q269 44 307 60T375 106T423 179T441 276Q441 352 407 394T314 436Q290 436 266 429T220 412T180 387T149 360L105 84ZM156 820H222L159 427Q169 436 186 447T226 469T276 487T334 494Q379 494 412 478T467 434T501 366T512 282Q512 208 486 153T417 61T322 6T214 -13Q166 -13 119 2T34 52L156 820Z"  />
<glyph unicode="c" horiz-adv-x="501" d="M433 68Q399 28 347 8T240 -13Q192 -13 154 3T90 47T49 116T34 207Q34 272 57 325T119 415T209 473T315 494Q351 494 378 486T424 468T456 446T473 429L431 385Q428 389 419 397T395 414T359 429T312 436Q276 436 239 422T172 379T122 308T103 212Q103 132 144 89T258 45Q309 45 346 64T408 107L433 68Z"  />
<glyph unicode="d" horiz-adv-x="564" d="M434 367Q420 398 385 417T303 436Q259 436 223 418T160 369T118 297T103 208Q103 166 115 135T148 84T197 54T257 44Q285 44 320 53T390 85L434 367ZM506 820H572L450 52Q402 19 350 3T248 -13Q205 -13 166 -1T98 37T51 104T33 202Q33 265 54 318T113 411T201 472T309 494Q357 494 390 480T446 442L506 820Z"  />
<glyph unicode="e" horiz-adv-x="532" d="M418 289Q420 317 415 344T395 391T358 424T300 437Q272 437 244 428T190 400T144 353T114 289H418ZM437 67Q424 51 404 37T357 11T300 -6T237 -13Q189 -13 151 2T86 46T46 113T32 201Q32 262 53 315T112 408T199 471T307 494Q363 494 400 473T457 418T483 341T481 254L478 236H103Q88 142 127 93T252 44Q284 44 309 50T355 66T389 87T413 107L437 67Z"  />
<glyph unicode="f" horiz-adv-x="309" d="M58 0L125 423H48L57 480H134L155 614Q163 664 176 700T215 766Q243 798 276 808T338 818Q374 818 397 808T425 792L389 736Q383 740 366 748T329 757Q305 757 287 746T257 717T236 674T223 621L200 480H315L306 423H191L124 0H58Z"  />
<glyph unicode="g" horiz-adv-x="563" d="M438 400Q433 404 423 410T398 422T364 432T322 436Q282 436 243 422T174 379T124 309T105 213Q105 177 114 147T139 94T180 59T237 46Q261 46 284 53T328 72T366 100T396 134L438 400ZM385 65Q352 30 307 9T215 -13Q180 -13 147 1T89 42T49 111T34 206Q34 277 60 331T128 421T223 475T332 494Q366 494 394 488T444 473T483 453T509 433L436 -27Q424 -103 398 -149T337 -220T264 -254T187 -263Q130 -263 85 -249T6 -207L43 -156Q70 -179 110 -192T194 -205Q218 -205 245 -199T297 -174T341 -122T370 -32L385 65Z"  />
<glyph unicode="h" horiz-adv-x="535" d="M348 0L393 284Q398 318 399 345T392 392T363 421T306 432Q252 432 217 413T152 368L94 0H28L158 820H224L162 430Q190 452 230 473T330 494Q405 494 442 451T464 315L414 0H348Z"  />
<glyph unicode="i" horiz-adv-x="226" d="M216 635Q216 611 199 594T157 577Q139 577 127 589T115 621Q115 646 133 662T174 679Q194 679 205 667T216 635ZM32 0L108 481H174L98 0H32Z"  />
<glyph unicode="j" horiz-adv-x="227" d="M157 577Q137 577 126 589T115 620Q115 646 132 662T174 679Q193 679 204 667T215 635Q215 611 198 594T157 577ZM-98 -215Q-59 -199 -38 -185T-3 -145T18 -77T38 37L108 481H175L105 41Q93 -34 82 -84T52 -169T3 -225T-79 -268L-98 -215Z"  />
<glyph unicode="k" horiz-adv-x="454" d="M330 0L134 245L94 0H28L158 820H224L140 287L345 481H431L196 266L409 0H330Z"  />
<glyph unicode="l" horiz-adv-x="231" d="M34 0L164 820H230L100 0H34Z"  />
<glyph unicode="m" horiz-adv-x="806" d="M619 0L669 314Q679 374 664 403T594 432Q567 432 544 426T503 409T470 388T445 367Q445 356 444 345T441 323L390 0H324L374 315Q385 379 367 405T298 432Q250 432 215 413T152 369L94 0H28L104 481H170L162 430Q173 439 189 450T227 470T272 487T325 494Q376 494 401 472T437 420Q451 432 470 445T513 469T564 487T620 494Q685 494 717 452T736 320L685 0H619Z"  />
<glyph unicode="n" horiz-adv-x="535" d="M348 0L393 284Q398 318 399 345T392 392T363 421T306 432Q252 432 217 413T152 368L94 0H28L104 481H170L162 430Q190 452 230 473T330 494Q405 494 442 451T464 315L414 0H348Z"  />
<glyph unicode="o" horiz-adv-x="583" d="M255 45Q295 45 332 62T397 108T441 178T458 267Q458 304 448 335T418 388T370 423T308 436Q266 436 229 419T163 371T118 299T101 212Q101 175 112 144T144 91T192 57T255 45ZM245 -13Q197 -13 158 3T92 48T49 119T33 210Q33 274 57 326T121 416T212 473T318 494Q368 494 407 477T474 430T515 360T529 272Q529 209 505 157T442 67T351 8T245 -13Z"  />
<glyph unicode="p" horiz-adv-x="564" d="M111 125Q128 92 165 69T249 45Q286 45 320 61T380 106T423 176T439 266Q439 347 397 391T285 435Q244 435 209 422T154 395L111 125ZM-15 -255L94 431Q142 463 195 478T296 494Q339 494 378 481T446 441T493 373T510 277Q510 217 490 165T435 73T352 10T249 -13Q197 -13 160 6T100 52L51 -255H-15Z"  />
<glyph unicode="q" horiz-adv-x="567" d="M441 395Q427 409 400 422T328 435Q280 435 239 417T168 368T121 295T103 205Q103 167 114 137T144 87T188 56T240 45Q262 45 285 52T329 70T368 97T399 131L441 395ZM338 -255L387 56Q358 28 312 8T216 -12Q175 -12 142 3T84 45T47 113T33 203Q33 276 60 331T132 422T230 476T338 494Q389 494 431 479T513 431L404 -255H338Z"  />
<glyph unicode="r" horiz-adv-x="332" d="M28 0L104 481H170L159 412Q163 420 173 434T199 461T232 484T270 494Q297 494 317 486T345 472L305 409Q298 414 286 421T254 429Q234 429 216 418T182 391T158 356T145 322L94 0H28Z"  />
<glyph unicode="s" horiz-adv-x="398" d="M30 103Q37 93 47 82T71 62T105 47T148 41Q176 41 196 49T231 70T252 101T259 137Q259 164 246 182T211 214T167 240T122 269T88 306T74 360Q74 390 86 414T120 457T171 485T235 495Q261 495 282 490T320 476T348 458T366 439L329 391Q326 395 319 403T299 420T269 435T231 441Q207 441 191 434T164 415T148 390T143 365Q143 344 156 330T191 304T235 279T280 249T314 208T328 148Q328 113 314 83T275 32T216 -2T142 -14Q111 -14 86 -7T43 10T11 33T-10 57L30 103Z"  />
<glyph unicode="t" horiz-adv-x="302" d="M60 0L127 423H42L51 480H136L163 652H229L202 480H313L304 423H193L126 0H60Z"  />
<glyph unicode="u" horiz-adv-x="534" d="M422 481H488L421 54Q379 19 328 3T222 -13Q178 -13 143 -2T85 31T53 89T51 172L100 481H167L120 187Q108 112 133 79T228 45Q276 45 308 57T359 83L422 481Z"  />
<glyph unicode="v" horiz-adv-x="457" d="M167 -17L36 481H108L183 179Q191 145 193 127T196 101H197Q200 109 207 127T233 178L402 481H476L187 -17H167Z"  />
<glyph unicode="w" horiz-adv-x="699" d="M431 -17L353 334L164 -17H145L39 481H111L182 128L377 494H385L462 128L646 481H716L450 -17H431Z"  />
<glyph unicode="x" horiz-adv-x="468" d="M329 0L220 206L43 0H-34L188 261L67 481H146L235 310L381 481H457L265 257L407 0H329Z"  />
<glyph unicode="y" horiz-adv-x="480" d="M-46 -259L156 53L36 481H110L205 121L424 481H501L30 -259H-46Z"  />
<glyph unicode="z" horiz-adv-x="445" d="M-33 1L318 423H80L89 480H442L95 58H366L357 1H-33Z"  />
<glyph unicode="{" horiz-adv-x="314" d="M183 -211Q141 -208 116 -193T79 -153T65 -95T70 -22L92 118Q103 183 92 228T31 305Q61 321 81 340T116 382T138 432T152 492L174 632Q180 672 192 705T224 763T274 803T347 821L351 773Q315 767 294 753T261 718T244 668T233 606L213 479Q204 422 184 383T119 305Q152 267 159 228T157 131L137 4Q132 -29 128 -57T128 -107T150 -143T203 -163L183 -211Z"  />
<glyph unicode="|" horiz-adv-x="230" d="M-5 -260L166 820H227L56 -260H-5Z"  />
<glyph unicode="}" horiz-adv-x="311" d="M-38 -163Q-1 -157 20 -143T53 -108T70 -58T80 4L101 131Q105 159 112 183T129 227T156 267T195 305Q162 343 155 382T156 479L176 606Q181 639 184 667T183 717T161 753T110 773L130 821Q172 818 197 803T234 763T248 705T243 632L221 492Q210 427 221 382T282 305Q223 273 198 228T162 118L139 -22Q133 -62 121 -95T89 -153T39 -193T-34 -211L-38 -163Z"  />
<glyph unicode="~" horiz-adv-x="554" d="M527 505Q519 498 505 488T471 469T430 453T385 446Q366 446 348 454T310 472T271 490T230 498Q215 498 199 493T166 480T136 464T112 450L88 497Q98 505 115 516T153 537T196 554T238 561Q260 561 280 553T320 535T357 517T392 508Q411 508 428 513T461 526T487 541T505 554L527 505Z"  />
<glyph unicode="&#xA0;" horiz-adv-x="239" />
<glyph unicode="&#xA1;" horiz-adv-x="255" d="M149 450Q128 450 116 463T104 497Q104 521 122 539T166 558Q185 558 197 545T209 512Q209 486 191 468T149 450ZM-3 -211L114 349H161L90 -211H-3Z"  />
<glyph unicode="&#xA2;" horiz-adv-x="547" d="M310 556Q280 550 250 533T195 489T156 423T141 335Q141 269 172 229T250 177L310 556ZM220 -13L241 119Q203 125 172 142T118 188T84 252T72 331Q72 394 92 444T146 531T225 590T321 619L342 759H391L370 621Q401 619 426 610T469 589T499 566T515 548L474 505Q470 509 460 518T436 536T402 552T360 561L299 173Q352 173 387 193T449 237L475 200Q443 162 395 141T290 118L269 -13H220Z"  />
<glyph unicode="&#xA3;" horiz-adv-x="584" d="M488 -5Q481 -7 470 -9T447 -14T422 -17T399 -19Q367 -19 343 -15T296 -4T254 6T213 11Q186 11 154 4T93 -13T43 -30T18 -40L6 14Q8 15 21 20T55 33T99 48T146 61L183 290H112L121 346H192L221 529Q231 590 246 632T283 699T336 736T407 747Q440 747 462 737T493 721L453 666Q447 670 432 677T393 685Q367 685 350 675T321 645T302 600T290 542L259 346H390L381 290H250L215 69Q243 69 264 66Q283 63 297 59T327 50T363 42T414 39Q438 39 456 44T490 54L488 -5Z"  />
<glyph unicode="&#xA4;" horiz-adv-x="680" d="M322 197Q358 197 393 213T456 256T501 319T518 394Q518 426 507 453T477 501T433 532T377 544Q342 544 308 529T245 487T200 425T182 349Q182 317 193 290T223 242T267 209T322 197ZM519 108L457 183Q425 162 389 148T312 134Q270 134 238 148T183 183L96 107L58 147L144 224Q131 247 123 277T114 340Q114 397 135 438T189 514L128 594L178 634L242 555Q274 578 309 592T387 607Q428 607 460 593T516 556L603 634L645 594L557 514Q570 494 577 466T585 405Q585 348 564 304T508 225L573 147L519 108Z"  />
<glyph unicode="&#xA5;" horiz-adv-x="660" d="M341 156L316 0H244L269 156H72L80 206H277L289 285H92L100 335H292L124 757H204L339 408Q341 404 341 401T341 390Q343 397 345 400T350 408L602 757H680L374 335H555L547 285H361L349 206H535L527 156H341Z"  />
<glyph unicode="&#xA6;" horiz-adv-x="240" d="M102 381L171 820H232L163 381H102ZM0 -260L70 179H131L61 -260H0Z"  />
<glyph unicode="&#xA7;" horiz-adv-x="541" d="M262 470Q234 470 198 454T134 416L270 109Q283 109 301 114T336 126T370 143T395 162L262 470ZM62 400Q73 421 96 442T146 480T197 509T239 525L178 665Q184 679 218 702T301 746T401 784T496 800L467 727Q444 727 410 721T343 705T283 688T249 675L468 178Q457 156 435 136T387 99T336 70T295 54L370 -117Q364 -129 345 -144T298 -176T237 -207T168 -235T100 -255T39 -263L71 -190Q93 -190 129 -182T201 -163T265 -142T299 -128L62 400Z"  />
<glyph unicode="&#xA8;" horiz-adv-x="337" d="M429 642Q429 620 413 605T373 590Q356 590 346 601T336 629Q336 650 351 666T388 682Q408 682 418 671T429 642ZM213 641Q213 620 197 605T158 590Q142 590 131 601T119 630Q119 651 136 666T173 682Q191 682 202 670T213 641Z"  />
<glyph unicode="&#xA9;" horiz-adv-x="881" d="M401 36Q473 36 540 67T660 151T743 276T775 427Q775 488 756 541T701 634T615 695T503 718Q430 718 363 687T243 603T160 480T128 329Q128 267 147 214T202 121T288 59T401 36ZM393 -17Q321 -17 262 9T160 82T95 190T71 323Q71 414 108 495T206 638T347 735T511 771Q583 771 642 745T743 673T809 566T832 433Q832 341 795 260T697 117T557 19T393 -17ZM605 192Q570 164 527 151T438 138Q387 138 347 153T278 197T235 263T220 347Q220 403 242 453T302 540T393 600T506 622Q566 622 604 603T662 563L620 517Q601 540 569 551T498 563Q451 563 413 546T347 501T305 435T290 355Q290 285 331 241T450 196Q491 196 527 207T584 236L605 192Z"  />
<glyph unicode="&#xAA;" horiz-adv-x="419" d="M326 535Q315 547 295 558T243 569Q226 569 208 565T176 551T152 528T142 494Q142 464 164 448T224 431Q250 431 273 438T314 456L326 535ZM373 432Q339 405 296 395T214 384Q177 384 151 392T109 415T86 449T78 490Q78 523 92 546T130 585T182 607T240 614Q275 614 296 606T334 584L341 626Q346 652 330 671T265 690Q232 690 205 683T167 671L153 711Q174 720 205 728T277 737Q355 737 382 702T401 608L373 432Z"  />
<glyph unicode="&#xAB;" horiz-adv-x="483" d="M319 25L226 235L381 445H448L288 235L386 25H319ZM134 25L41 235L197 445H263L104 235L201 25H134Z"  />
<glyph unicode="&#xAC;" horiz-adv-x="668" d="M481 109L517 337H85L94 394H592L547 109H481Z"  />
<glyph unicode="&#xAD;" horiz-adv-x="384" d="M57 218L74 275H308L291 218H57Z"  />
<glyph unicode="&#xAE;" horiz-adv-x="688" d="M351 504Q401 504 425 523T450 574Q450 596 433 609T383 622H343L324 504H351ZM437 344L335 468L321 485L299 344H253L303 663H381Q403 663 423 659T460 645T486 620T496 581Q496 537 467 507T380 476L499 344H437ZM338 262Q386 262 432 283T515 341T574 426T597 526Q597 567 583 604T544 668T485 712T411 728Q362 728 316 707T233 649T175 566T153 465Q153 423 167 387T205 322T264 278T338 262ZM330 215Q280 215 239 234T167 286T120 363T103 459Q103 523 129 580T200 680T301 748T419 774Q468 774 509 755T581 704T628 627T645 533Q645 469 619 411T548 310T447 241T330 215Z"  />
<glyph unicode="&#xAF;" horiz-adv-x="499" d="M170 591L179 649H526L517 591H170Z"  />
<glyph unicode="&#xB0;" horiz-adv-x="398" d="M234 524Q254 524 272 532T304 556T326 591T335 634Q335 669 316 692T264 715Q243 715 225 706T193 682T171 647T163 604Q163 570 182 547T234 524ZM397 639Q397 604 383 574T345 521T290 485T225 471Q197 471 174 481T134 508T108 548T99 599Q99 634 113 665T151 719T206 755T272 769Q328 769 362 732T397 639Z"  />
<glyph unicode="&#xB1;" horiz-adv-x="652" d="M32 1L41 60H539L530 1H32ZM370 353L333 123H267L304 353H88L97 413H313L350 643H416L379 413H595L586 353H370Z"  />
<glyph unicode="&#xB2;" horiz-adv-x="437" d="M50 347Q69 361 98 381T160 426T227 478T287 535T331 593T348 651Q348 678 330 697T283 716Q251 716 224 701T182 671L158 711Q167 718 180 727T212 746T251 761T298 767Q352 767 382 736T413 659Q413 620 391 582T336 511T263 448T187 397L389 399L381 347H50Z"  />
<glyph unicode="&#xB3;" horiz-adv-x="391" d="M292 576Q329 562 345 534T362 474Q362 448 349 424T312 380T255 349T180 337Q152 337 131 342T94 354T69 369T55 382L90 427Q97 418 122 404T188 390Q216 390 236 397T271 417T292 444T299 475Q299 510 268 533T179 556L184 590Q243 590 277 614T312 668Q312 689 296 702T249 715Q229 715 207 708T170 692L156 737Q162 741 173 746T199 757T231 765T268 768Q322 768 349 741T377 681Q377 654 359 626T292 577V576Z"  />
<glyph unicode="&#xB4;" horiz-adv-x="318" d="M197 583L162 610L317 773L369 728L197 583Z"  />
<glyph unicode="&#xB5;" horiz-adv-x="555" d="M372 0L382 63Q354 20 314 4T228 -12Q198 -12 168 -4T114 27L69 -255H3L120 481H186L123 89Q141 74 166 60T239 45Q302 45 346 80T402 186L449 481H515L438 0H372Z"  />
<glyph unicode="&#xB6;" horiz-adv-x="540" d="M283 -165L429 757H497L351 -165H283ZM294 259Q239 259 199 276T131 322T91 388T77 465Q77 515 99 566T160 659T254 727T373 754L294 259Z"  />
<glyph unicode="&#xB7;" horiz-adv-x="237" d="M181 384Q181 361 163 343T119 325Q99 325 87 338T75 370Q75 394 93 411T136 429Q156 429 168 416T181 384Z"  />
<glyph unicode="&#xB8;" horiz-adv-x="556" d="M210 -203L311 -39H385L274 -203H210Z"  />
<glyph unicode="&#xB9;" horiz-adv-x="265" d="M130 345L185 693L110 663L96 712L261 771L194 345H130Z"  />
<glyph unicode="&#xBA;" horiz-adv-x="470" d="M258 434Q286 434 310 445T354 475T384 520T395 576Q395 625 367 656T293 687Q265 687 240 676T196 644T165 598T153 542Q153 494 181 464T258 434ZM461 580Q461 537 444 501T397 439T329 399T250 384Q213 384 183 395T132 427T100 476T88 540Q88 583 106 619T153 682T221 722T300 737Q337 737 367 725T418 692T450 642T461 580Z"  />
<glyph unicode="&#xBB;" horiz-adv-x="477" d="M192 25L354 235L262 445H328L414 235L257 25H192ZM8 25L171 235L79 445H144L233 235L74 25H8Z"  />
<glyph unicode="&#xBC;" horiz-adv-x="728" d="M551 325L365 129H520L551 325ZM148 345L203 693L128 663L114 712L280 771L212 345H148ZM96 16L557 763L598 743L138 -4L96 16ZM497 -5L510 80H289L296 124L581 414H625L580 131H643L635 80H572L559 -5H497Z"  />
<glyph unicode="&#xBD;" horiz-adv-x="760" d="M323 0Q342 14 371 34T433 79T500 131T560 188T604 246T621 304Q621 331 603 350T556 369Q540 369 525 365T497 354T474 339T456 324L431 364Q440 371 453 380T485 399T524 414T570 420Q625 420 656 389T687 311Q687 272 665 235T610 164T536 101T460 50L662 52L653 0H323ZM148 345L203 693L128 663L114 712L280 771L212 345H148ZM96 16L557 763L598 743L138 -4L96 16Z"  />
<glyph unicode="&#xBE;" horiz-adv-x="829" d="M654 325L468 129H623L654 325ZM199 16L660 763L701 743L240 -4L199 16ZM299 576Q336 562 352 534T369 474Q369 448 356 424T319 380T262 349T187 337Q159 337 138 342T101 354T76 369T62 382L97 427Q104 418 129 404T195 390Q223 390 243 397T278 417T299 444T306 475Q306 510 275 533T186 556L191 590Q250 590 284 614T319 668Q319 689 303 702T256 715Q236 715 214 708T177 692L163 737Q169 741 180 746T206 757T238 765T275 768Q329 768 356 741T384 681Q384 654 366 626T299 577V576ZM600 -5L613 80H392L399 124L684 414H728L683 131H746L738 80H675L662 -5H600Z"  />
<glyph unicode="&#xBF;" horiz-adv-x="449" d="M322 491Q322 466 303 449T261 431Q241 431 230 444T218 476Q218 500 236 518T278 537Q298 537 310 523T322 491ZM281 -189Q271 -197 256 -207T222 -226T181 -241T134 -247Q105 -247 84 -238T50 -213T30 -177T24 -134Q24 -91 45 -59T97 0T165 49T233 95T286 143T307 201Q307 235 284 258T223 281Q199 281 176 273T133 251T97 224T71 198L41 235Q50 248 69 266T115 299T173 326T236 337Q262 337 286 329T330 305T360 264T372 207Q372 163 352 131T300 73T232 26T165 -18T113 -66T92 -126Q92 -154 107 -171T154 -189Q186 -189 214 -174T260 -146L281 -189Z"  />
<glyph unicode="&#xC0;" horiz-adv-x="668" d="M267 883L311 949L541 885L513 838L267 883ZM396 579Q394 587 391 601T386 624Q383 613 377 601T365 579L186 267H475L396 579ZM546 0L493 202H147L30 0H-50L413 780L624 0H546Z"  />
<glyph unicode="&#xC1;" horiz-adv-x="668" d="M271 838L257 885L507 949L530 883L271 838ZM396 579Q394 587 391 601T386 624Q383 613 377 601T365 579L186 267H475L396 579ZM546 0L493 202H147L30 0H-50L413 780L624 0H546Z"  />
<glyph unicode="&#xC2;" horiz-adv-x="668" d="M550 815L415 876L254 808L231 845L427 947L591 850L550 815ZM396 579Q394 587 391 601T386 624Q383 613 377 601T365 579L186 267H475L396 579ZM546 0L493 202H147L30 0H-50L413 780L624 0H546Z"  />
<glyph unicode="&#xC3;" horiz-adv-x="668" d="M602 897Q594 889 580 878T548 856T512 838T475 830Q460 830 447 837T420 854T393 870T363 878Q352 878 340 873T315 860T291 844T272 829L248 870Q257 879 272 890T305 912T342 930T377 938Q393 938 407 931T435 914T461 898T487 890Q500 890 514 896T540 910T562 928T577 943L602 897ZM396 579Q394 587 391 601T386 624Q383 613 377 601T365 579L186 267H475L396 579ZM546 0L493 202H147L30 0H-50L413 780L624 0H546Z"  />
<glyph unicode="&#xC4;" horiz-adv-x="668" d="M341 900Q341 879 324 863T283 847Q266 847 254 859T242 889Q242 911 260 926T298 942Q318 942 329 930T341 900ZM592 901Q592 879 576 863T534 847Q515 847 505 859T494 888Q494 910 510 926T549 942Q569 942 580 930T592 901ZM396 579Q394 587 391 601T386 624Q383 613 377 601T365 579L186 267H475L396 579ZM546 0L493 202H147L30 0H-50L413 780L624 0H546Z"  />
<glyph unicode="&#xC5;" horiz-adv-x="668" d="M424 847Q437 847 450 853T473 869T489 893T495 921Q495 944 481 960T445 977Q431 977 419 971T396 955T380 932T374 904Q374 881 387 864T424 847ZM540 925Q540 900 530 878T502 840T463 813T416 803Q375 803 351 830T326 896Q326 921 336 944T363 983T403 1010T451 1020Q490 1020 515 992T540 925ZM396 579Q394 587 391 601T386 624Q383 613 377 601T365 579L186 267H475L396 579ZM546 0L493 202H147L30 0H-50L413 780L624 0H546Z"  />
<glyph unicode="&#xC6;" horiz-adv-x="884" d="M495 644L237 281H438L495 644ZM393 1L428 218H189L29 0H-55L503 756H889L879 692H575L534 438H779L769 373H524L475 65H809L799 1H393Z"  />
<glyph unicode="&#xC7;" horiz-adv-x="722" d="M645 81Q588 34 524 10T388 -14Q314 -14 254 12T151 84T85 193T62 330Q62 423 97 504T194 644T335 737T505 771Q549 771 585 763T649 742T699 710T737 673L689 621Q660 659 611 682T495 705Q423 705 358 677T244 598T167 480T138 334Q138 270 157 218T212 129T296 72T403 51Q435 51 466 57T526 73T577 98T619 129L645 81ZM230 -231L330 -67H405L294 -231H230Z"  />
<glyph unicode="&#xC8;" horiz-adv-x="544" d="M53 1L173 756H549L538 692H234L194 438H439L429 373H184L135 65H470L460 1H53ZM243 873L287 941L519 887L492 838L243 873Z"  />
<glyph unicode="&#xC9;" horiz-adv-x="544" d="M53 1L173 756H549L538 692H234L194 438H439L429 373H184L135 65H470L460 1H53ZM256 838L242 885L493 949L516 883L256 838Z"  />
<glyph unicode="&#xCA;" horiz-adv-x="544" d="M53 1L173 756H549L538 692H234L194 438H439L429 373H184L135 65H470L460 1H53ZM519 815L383 881L222 808L200 846L395 950L559 852L519 815Z"  />
<glyph unicode="&#xCB;" horiz-adv-x="544" d="M53 1L173 756H549L538 692H234L194 438H439L429 373H184L135 65H470L460 1H53ZM552 885Q552 863 536 848T497 832Q479 832 469 843T458 871Q458 894 473 910T512 926Q530 926 541 914T552 885ZM306 884Q306 862 290 847T250 831Q233 831 223 842T212 871Q212 894 229 910T266 926Q285 926 295 914T306 884Z"  />
<glyph unicode="&#xCC;" horiz-adv-x="275" d="M53 0L173 757H245L125 0H53ZM114 871L158 939L342 884L313 835L114 871Z"  />
<glyph unicode="&#xCD;" horiz-adv-x="275" d="M53 0L173 757H245L125 0H53ZM129 835L116 884L318 939L340 871L129 835Z"  />
<glyph unicode="&#xCE;" horiz-adv-x="275" d="M311 814L228 875L120 806L97 844L239 952H240L351 850L311 814ZM53 0L173 757H245L125 0H53Z"  />
<glyph unicode="&#xCF;" horiz-adv-x="275" d="M53 0L173 757H245L125 0H53ZM346 860Q346 838 330 822T289 806Q271 806 261 817T250 846Q250 869 265 885T304 901Q324 901 335 889T346 860ZM203 859Q203 837 186 822T146 806Q129 806 118 818T107 847Q107 870 124 885T161 901Q180 901 191 889T203 859Z"  />
<glyph unicode="&#xD0;" horiz-adv-x="719" d="M222 65Q301 65 370 88T491 157T571 269T601 421Q601 493 581 544T524 628T437 676T329 692H236L190 406H383L374 348H181L136 65H222ZM54 0L109 348H35L44 406H118L174 757H342Q414 757 475 737T581 677T651 575T677 429Q677 335 645 256T553 120T409 32T223 0H54Z"  />
<glyph unicode="&#xD1;" horiz-adv-x="822" d="M217 591L124 0H52L175 776L627 158L722 757H794L669 -26L217 591ZM673 897Q665 889 651 878T620 856T583 838T546 830Q531 830 518 837T492 854T464 870T434 878Q423 878 411 873T386 860T362 844T343 829L318 870Q327 879 342 890T376 912T413 930T448 938Q465 938 479 931T507 914T533 898T559 890Q571 890 584 896T610 910T633 928T649 943L673 897Z"  />
<glyph unicode="&#xD2;" horiz-adv-x="873" d="M400 51Q468 51 532 80T647 159T727 278T758 425Q758 486 739 537T686 626T603 684T497 705Q429 705 364 677T249 599T169 482T138 338Q138 280 156 228T208 137T290 74T400 51ZM391 -14Q317 -14 257 12T153 83T85 192T61 331Q61 426 98 507T198 646T341 738T507 771Q582 771 642 746T745 675T811 568T834 430Q834 331 796 250T695 110T553 19T391 -14ZM360 883L404 949L634 885L606 838L360 883Z"  />
<glyph unicode="&#xD3;" horiz-adv-x="873" d="M400 51Q468 51 532 80T647 159T727 278T758 425Q758 486 739 537T686 626T603 684T497 705Q429 705 364 677T249 599T169 482T138 338Q138 280 156 228T208 137T290 74T400 51ZM391 -14Q317 -14 257 12T153 83T85 192T61 331Q61 426 98 507T198 646T341 738T507 771Q582 771 642 746T745 675T811 568T834 430Q834 331 796 250T695 110T553 19T391 -14ZM400 838L385 885L637 949L659 883L400 838Z"  />
<glyph unicode="&#xD4;" horiz-adv-x="873" d="M400 51Q468 51 532 80T647 159T727 278T758 425Q758 486 739 537T686 626T603 684T497 705Q429 705 364 677T249 599T169 482T138 338Q138 280 156 228T208 137T290 74T400 51ZM391 -14Q317 -14 257 12T153 83T85 192T61 331Q61 426 98 507T198 646T341 738T507 771Q582 771 642 746T745 675T811 568T834 430Q834 331 796 250T695 110T553 19T391 -14ZM656 815L522 876L361 808L338 845L533 947L697 850L656 815Z"  />
<glyph unicode="&#xD5;" horiz-adv-x="873" d="M400 51Q468 51 532 80T647 159T727 278T758 425Q758 486 739 537T686 626T603 684T497 705Q429 705 364 677T249 599T169 482T138 338Q138 280 156 228T208 137T290 74T400 51ZM391 -14Q317 -14 257 12T153 83T85 192T61 331Q61 426 98 507T198 646T341 738T507 771Q582 771 642 746T745 675T811 568T834 430Q834 331 796 250T695 110T553 19T391 -14ZM703 897Q695 889 681 878T650 856T614 838T577 830Q562 830 549 837T523 854T495 870T465 878Q454 878 442 873T417 860T393 844T375 829L348 870Q357 879 373 890T407 912T443 930T478 938Q495 938 509 931T537 914T563 898T589 890Q601 890 615 896T641 910T664 928T680 943L703 897Z"  />
<glyph unicode="&#xD6;" horiz-adv-x="873" d="M400 51Q468 51 532 80T647 159T727 278T758 425Q758 486 739 537T686 626T603 684T497 705Q429 705 364 677T249 599T169 482T138 338Q138 280 156 228T208 137T290 74T400 51ZM391 -14Q317 -14 257 12T153 83T85 192T61 331Q61 426 98 507T198 646T341 738T507 771Q582 771 642 746T745 675T811 568T834 430Q834 331 796 250T695 110T553 19T391 -14ZM767 885Q767 864 751 848T711 832Q693 832 683 843T672 872Q672 894 687 910T726 926Q746 926 756 914T767 885ZM364 885Q364 863 348 848T308 832Q291 832 280 844T269 873Q269 895 286 910T323 926Q342 926 353 914T364 885Z"  />
<glyph unicode="&#xD7;" horiz-adv-x="627" d="M474 122L316 319L97 122L54 162L281 361L120 559L173 601L331 403L550 601L589 559L368 362L527 163L474 122Z"  />
<glyph unicode="&#xD8;" horiz-adv-x="873" d="M316 64Q354 51 400 51Q468 51 532 80T647 159T727 278T758 425Q758 503 728 564T643 662L316 64ZM589 689Q568 697 545 701T497 705Q429 705 364 677T249 599T169 482T138 338Q138 260 170 194T263 89L589 689ZM145 -128L228 25Q150 67 106 147T61 331Q61 426 98 507T198 646T341 738T507 771Q539 771 568 766T624 752L696 885L752 861L679 727Q752 685 793 608T834 430Q834 331 796 250T695 110T553 19T391 -14Q362 -14 335 -10T282 2L201 -147L145 -128Z"  />
<glyph unicode="&#xD9;" horiz-adv-x="728" d="M631 757H703L596 84Q554 41 481 14T320 -14Q185 -14 126 58T90 274L166 757H239L167 304Q156 235 160 187T184 109T242 65T337 51Q395 51 444 65T528 109L631 757ZM294 883L337 949L568 885L540 838L294 883Z"  />
<glyph unicode="&#xDA;" horiz-adv-x="728" d="M631 757H703L596 84Q554 41 481 14T320 -14Q185 -14 126 58T90 274L166 757H239L167 304Q156 235 160 187T184 109T242 65T337 51Q395 51 444 65T528 109L631 757ZM338 838L324 885L575 949L597 883L338 838Z"  />
<glyph unicode="&#xDB;" horiz-adv-x="728" d="M631 757H703L596 84Q554 41 481 14T320 -14Q185 -14 126 58T90 274L166 757H239L167 304Q156 235 160 187T184 109T242 65T337 51Q395 51 444 65T528 109L631 757ZM567 815L432 876L270 808L248 845L443 947H444L608 850L567 815Z"  />
<glyph unicode="&#xDC;" horiz-adv-x="728" d="M631 757H703L596 84Q554 41 481 14T320 -14Q185 -14 126 58T90 274L166 757H239L167 304Q156 235 160 187T184 109T242 65T337 51Q395 51 444 65T528 109L631 757ZM746 887Q746 866 731 850T690 834Q673 834 662 845T651 874Q651 896 667 912T705 928Q725 928 735 916T746 887ZM280 886Q280 865 263 850T223 834Q206 834 195 846T184 875Q184 897 201 912T238 928Q257 928 268 916T280 886Z"  />
<glyph unicode="&#xDD;" horiz-adv-x="545" d="M185 0L237 327L65 757H145L280 407Q282 403 282 400T282 391Q284 397 286 400T291 407L543 757H621L309 327L257 0H185ZM323 742L289 770L443 933L496 888L323 742Z"  />
<glyph unicode="&#xDE;" horiz-adv-x="547" d="M220 215Q272 215 314 229T386 268T432 329T448 407Q448 443 437 469T406 511T360 536T302 544H211L159 215H220ZM53 0L173 757H245L221 609H294Q338 609 379 600T453 569T505 509T525 417Q525 365 507 317T450 232T353 173T216 150H149L125 0H53Z"  />
<glyph unicode="&#xDF;" horiz-adv-x="531" d="M164 -190Q198 -184 237 -165T309 -114T365 -39T387 55Q387 101 362 132T283 164Q248 164 198 150L395 423H190L123 0H57L124 423H52L61 480H133L154 614Q161 657 174 696T214 766Q243 798 275 808T334 818Q374 818 396 808T424 792L388 736Q380 741 364 749T325 757Q303 757 286 748T257 721T236 681T223 629L199 480H506L300 210Q318 213 331 213Q358 213 381 202T420 170T446 122T455 60Q455 10 439 -31T396 -105T336 -163T269 -205T205 -233T153 -246L164 -190Z"  />
<glyph unicode="&#xE0;" horiz-adv-x="497" d="M392 55Q354 23 299 5T186 -13Q138 -13 105 -1T50 31T19 79T9 135Q9 183 30 217T84 274T155 307T226 318Q243 318 262 315T299 306T332 289T359 264L370 331Q374 353 371 372T355 406T320 429T264 437Q241 437 220 434T181 425T150 416T131 408L114 458Q140 470 180 482T274 494Q325 494 359 481T411 444T434 387T433 313L392 55ZM351 208Q335 228 304 246T227 265Q202 265 176 258T128 236T93 198T79 142Q79 93 111 68T198 42Q236 42 271 53T331 83L351 208ZM313 583L187 728L254 773L357 610L313 583Z"  />
<glyph unicode="&#xE1;" horiz-adv-x="497" d="M392 55Q354 23 299 5T186 -13Q138 -13 105 -1T50 31T19 79T9 135Q9 183 30 217T84 274T155 307T226 318Q243 318 262 315T299 306T332 289T359 264L370 331Q374 353 371 372T355 406T320 429T264 437Q241 437 220 434T181 425T150 416T131 408L114 458Q140 470 180 482T274 494Q325 494 359 481T411 444T434 387T433 313L392 55ZM351 208Q335 228 304 246T227 265Q202 265 176 258T128 236T93 198T79 142Q79 93 111 68T198 42Q236 42 271 53T331 83L351 208ZM261 583L227 610L380 773L433 728L261 583Z"  />
<glyph unicode="&#xE2;" horiz-adv-x="497" d="M392 55Q354 23 299 5T186 -13Q138 -13 105 -1T50 31T19 79T9 135Q9 183 30 217T84 274T155 307T226 318Q243 318 262 315T299 306T332 289T359 264L370 331Q374 353 371 372T355 406T320 429T264 437Q241 437 220 434T181 425T150 416T131 408L114 458Q140 470 180 482T274 494Q325 494 359 481T411 444T434 387T433 313L392 55ZM351 208Q335 228 304 246T227 265Q202 265 176 258T128 236T93 198T79 142Q79 93 111 68T198 42Q236 42 271 53T331 83L351 208ZM410 574L308 670L177 574L145 610L320 744H321L453 610L410 574Z"  />
<glyph unicode="&#xE3;" horiz-adv-x="497" d="M392 55Q354 23 299 5T186 -13Q138 -13 105 -1T50 31T19 79T9 135Q9 183 30 217T84 274T155 307T226 318Q243 318 262 315T299 306T332 289T359 264L370 331Q374 353 371 372T355 406T320 429T264 437Q241 437 220 434T181 425T150 416T131 408L114 458Q140 470 180 482T274 494Q325 494 359 481T411 444T434 387T433 313L392 55ZM351 208Q335 228 304 246T227 265Q202 265 176 258T128 236T93 198T79 142Q79 93 111 68T198 42Q236 42 271 53T331 83L351 208ZM462 649Q456 643 445 632T418 611T385 593T349 585Q335 585 323 592T298 607T272 623T244 630Q233 630 221 625T197 613T176 598T159 584L136 620Q145 628 159 639T190 661T224 679T257 686Q272 686 285 679T311 663T336 647T360 640Q373 640 386 645T410 658T430 673T444 686L462 649Z"  />
<glyph unicode="&#xE4;" horiz-adv-x="497" d="M392 55Q354 23 299 5T186 -13Q138 -13 105 -1T50 31T19 79T9 135Q9 183 30 217T84 274T155 307T226 318Q243 318 262 315T299 306T332 289T359 264L370 331Q374 353 371 372T355 406T320 429T264 437Q241 437 220 434T181 425T150 416T131 408L114 458Q140 470 180 482T274 494Q325 494 359 481T411 444T434 387T433 313L392 55ZM351 208Q335 228 304 246T227 265Q202 265 176 258T128 236T93 198T79 142Q79 93 111 68T198 42Q236 42 271 53T331 83L351 208ZM452 644Q452 622 437 607T397 592Q379 592 369 603T359 631Q359 652 374 668T411 684Q431 684 441 673T452 644ZM236 643Q236 622 220 607T182 592Q165 592 154 603T142 632Q142 653 159 668T196 684Q214 684 225 672T236 643Z"  />
<glyph unicode="&#xE5;" horiz-adv-x="497" d="M392 55Q354 23 299 5T186 -13Q138 -13 105 -1T50 31T19 79T9 135Q9 183 30 217T84 274T155 307T226 318Q243 318 262 315T299 306T332 289T359 264L370 331Q374 353 371 372T355 406T320 429T264 437Q241 437 220 434T181 425T150 416T131 408L114 458Q140 470 180 482T274 494Q325 494 359 481T411 444T434 387T433 313L392 55ZM351 208Q335 228 304 246T227 265Q202 265 176 258T128 236T93 198T79 142Q79 93 111 68T198 42Q236 42 271 53T331 83L351 208ZM307 598Q320 598 333 604T356 620T372 644T378 672Q378 695 364 711T327 728Q313 728 301 722T278 706T262 683T256 655Q256 632 270 615T307 598ZM423 676Q423 651 413 629T386 591T346 564T299 554Q259 554 234 581T209 647Q209 672 219 695T247 734T286 761T333 771Q373 771 398 743T423 676Z"  />
<glyph unicode="&#xE6;" horiz-adv-x="852" d="M739 289Q740 319 734 346T714 393T676 425T619 437Q590 437 562 428T508 400T464 353T434 289H739ZM369 103Q360 123 355 149T352 208Q335 228 305 246T228 265Q203 265 177 258T130 236T94 198T80 142Q80 93 112 68T199 42Q237 42 279 56T369 103ZM758 67Q730 34 677 11T557 -13Q451 -13 396 57Q354 22 298 5T186 -13Q138 -13 105 -1T50 32T20 80T10 137Q10 184 30 218T82 275T151 307T224 318Q242 318 262 315T300 306T334 289T360 264L371 331Q375 353 372 372T356 406T321 429T265 437Q242 437 221 434T182 425T151 416T132 408L115 458Q141 470 181 482T274 494Q343 494 382 470T432 404Q447 425 469 441T517 470T572 488T630 494Q685 494 721 473T777 418T803 341T801 254L798 236H422Q407 142 448 93T574 44Q605 44 630 50T676 66T710 87T734 107L758 67Z"  />
<glyph unicode="&#xE7;" horiz-adv-x="501" d="M433 68Q399 28 347 8T240 -13Q192 -13 154 3T90 47T49 116T34 207Q34 272 57 325T119 415T209 473T315 494Q351 494 378 486T424 468T456 446T473 429L431 385Q428 389 419 397T395 414T359 429T312 436Q276 436 239 422T172 379T122 308T103 212Q103 132 144 89T258 45Q309 45 346 64T408 107L433 68ZM87 -223L188 -59H262L151 -223H87Z"  />
<glyph unicode="&#xE8;" horiz-adv-x="532" d="M418 289Q420 317 415 344T395 391T358 424T300 437Q272 437 244 428T190 400T144 353T114 289H418ZM437 67Q424 51 404 37T357 11T300 -6T237 -13Q189 -13 151 2T86 46T46 113T32 201Q32 262 53 315T112 408T199 471T307 494Q363 494 400 473T457 418T483 341T481 254L478 236H103Q88 142 127 93T252 44Q284 44 309 50T355 66T389 87T413 107L437 67ZM329 583L203 728L270 773L373 610L329 583Z"  />
<glyph unicode="&#xE9;" horiz-adv-x="532" d="M418 289Q420 317 415 344T395 391T358 424T300 437Q272 437 244 428T190 400T144 353T114 289H418ZM437 67Q424 51 404 37T357 11T300 -6T237 -13Q189 -13 151 2T86 46T46 113T32 201Q32 262 53 315T112 408T199 471T307 494Q363 494 400 473T457 418T483 341T481 254L478 236H103Q88 142 127 93T252 44Q284 44 309 50T355 66T389 87T413 107L437 67ZM290 583L255 610L410 773L463 728L290 583Z"  />
<glyph unicode="&#xEA;" horiz-adv-x="532" d="M418 289Q420 317 415 344T395 391T358 424T300 437Q272 437 244 428T190 400T144 353T114 289H418ZM437 67Q424 51 404 37T357 11T300 -6T237 -13Q189 -13 151 2T86 46T46 113T32 201Q32 262 53 315T112 408T199 471T307 494Q363 494 400 473T457 418T483 341T481 254L478 236H103Q88 142 127 93T252 44Q284 44 309 50T355 66T389 87T413 107L437 67ZM430 582L329 678L197 582L165 618L340 752H341L473 618L430 582Z"  />
<glyph unicode="&#xEB;" horiz-adv-x="532" d="M418 289Q420 317 415 344T395 391T358 424T300 437Q272 437 244 428T190 400T144 353T114 289H418ZM437 67Q424 51 404 37T357 11T300 -6T237 -13Q189 -13 151 2T86 46T46 113T32 201Q32 262 53 315T112 408T199 471T307 494Q363 494 400 473T457 418T483 341T481 254L478 236H103Q88 142 127 93T252 44Q284 44 309 50T355 66T389 87T413 107L437 67ZM478 642Q478 620 462 605T422 590Q405 590 394 601T383 629Q383 650 399 666T436 682Q456 682 467 671T478 642ZM261 641Q261 620 245 605T207 590Q190 590 179 601T167 629Q167 651 184 666T221 682Q238 682 249 670T261 641Z"  />
<glyph unicode="&#xEC;" horiz-adv-x="226" d="M32 0L108 481H174L98 0H32ZM176 578L64 714L131 759L220 604L176 578Z"  />
<glyph unicode="&#xED;" horiz-adv-x="226" d="M32 0L108 481H174L98 0H32ZM125 578L91 605L227 760L280 715L125 578Z"  />
<glyph unicode="&#xEE;" horiz-adv-x="226" d="M277 582L173 678L38 582L6 618L184 752H185L320 618L277 582ZM32 0L108 481H174L98 0H32Z"  />
<glyph unicode="&#xEF;" horiz-adv-x="226" d="M32 0L108 481H174L98 0H32ZM280 643Q280 622 265 607T226 591Q209 591 198 602T186 630Q186 652 202 667T240 683Q260 683 270 672T280 643ZM146 642Q146 621 130 606T91 591Q74 591 63 602T52 630Q52 652 68 667T105 683Q124 683 135 671T146 642Z"  />
<glyph unicode="&#xF0;" horiz-adv-x="585" d="M251 43Q289 43 326 58T392 102T438 171T456 260Q456 295 446 326T417 380T370 416T304 430Q259 430 222 411T158 361T116 291T101 210Q101 179 110 149T138 96T185 58T251 43ZM426 661Q443 625 461 580T493 486T517 387T527 292Q527 223 504 167T443 70T353 8T244 -14Q192 -14 153 3T86 51T46 120T32 204Q32 262 54 313T115 403T205 464T313 487Q346 487 382 476T447 426Q441 451 432 479T411 535T388 587T367 629L257 564L235 606L346 670Q321 719 294 759T243 820H336Q343 811 362 779T402 700L528 772L546 729L426 661Z"  />
<glyph unicode="&#xF1;" horiz-adv-x="535" d="M348 0L393 284Q398 318 399 345T392 392T363 421T306 432Q252 432 217 413T152 368L94 0H28L104 481H170L162 430Q190 452 230 473T330 494Q405 494 442 451T464 315L414 0H348ZM488 653Q483 647 472 636T445 615T412 597T376 589Q362 589 350 596T325 611T299 627T271 634Q260 634 248 629T225 617T204 602T187 588L163 624Q172 632 186 643T216 665T251 683T284 690Q299 690 312 683T338 667T363 651T388 644Q401 644 413 649T437 662T456 677T470 690L488 653Z"  />
<glyph unicode="&#xF2;" horiz-adv-x="583" d="M255 45Q295 45 332 62T397 108T441 178T458 267Q458 304 448 335T418 388T370 423T308 436Q266 436 229 419T163 371T118 299T101 212Q101 175 112 144T144 91T192 57T255 45ZM245 -13Q197 -13 158 3T92 48T49 119T33 210Q33 274 57 326T121 416T212 473T318 494Q368 494 407 477T474 430T515 360T529 272Q529 209 505 157T442 67T351 8T245 -13ZM375 583L249 728L316 773L419 610L375 583Z"  />
<glyph unicode="&#xF3;" horiz-adv-x="583" d="M255 45Q295 45 332 62T397 108T441 178T458 267Q458 304 448 335T418 388T370 423T308 436Q266 436 229 419T163 371T118 299T101 212Q101 175 112 144T144 91T192 57T255 45ZM245 -13Q197 -13 158 3T92 48T49 119T33 210Q33 274 57 326T121 416T212 473T318 494Q368 494 407 477T474 430T515 360T529 272Q529 209 505 157T442 67T351 8T245 -13ZM287 583L252 610L407 773L460 728L287 583Z"  />
<glyph unicode="&#xF4;" horiz-adv-x="583" d="M255 45Q295 45 332 62T397 108T441 178T458 267Q458 304 448 335T418 388T370 423T308 436Q266 436 229 419T163 371T118 299T101 212Q101 175 112 144T144 91T192 57T255 45ZM245 -13Q197 -13 158 3T92 48T49 119T33 210Q33 274 57 326T121 416T212 473T318 494Q368 494 407 477T474 430T515 360T529 272Q529 209 505 157T442 67T351 8T245 -13ZM462 572L360 668L229 572L197 608L372 742H373L505 608L462 572Z"  />
<glyph unicode="&#xF5;" horiz-adv-x="583" d="M255 45Q295 45 332 62T397 108T441 178T458 267Q458 304 448 335T418 388T370 423T308 436Q266 436 229 419T163 371T118 299T101 212Q101 175 112 144T144 91T192 57T255 45ZM245 -13Q197 -13 158 3T92 48T49 119T33 210Q33 274 57 326T121 416T212 473T318 494Q368 494 407 477T474 430T515 360T529 272Q529 209 505 157T442 67T351 8T245 -13ZM507 649Q501 643 490 632T463 611T430 593T394 585Q380 585 368 592T343 607T317 623T289 630Q278 630 266 625T242 613T221 598T205 584L182 620Q190 628 204 639T235 661T269 679T302 686Q317 686 330 679T357 663T382 647T406 640Q419 640 431 645T455 658T475 673T489 686L507 649Z"  />
<glyph unicode="&#xF6;" horiz-adv-x="583" d="M255 45Q295 45 332 62T397 108T441 178T458 267Q458 304 448 335T418 388T370 423T308 436Q266 436 229 419T163 371T118 299T101 212Q101 175 112 144T144 91T192 57T255 45ZM245 -13Q197 -13 158 3T92 48T49 119T33 210Q33 274 57 326T121 416T212 473T318 494Q368 494 407 477T474 430T515 360T529 272Q529 209 505 157T442 67T351 8T245 -13ZM499 644Q499 623 484 608T443 592Q426 592 416 603T406 631Q406 652 421 668T458 684Q478 684 488 673T499 644ZM283 643Q283 622 267 607T228 592Q211 592 200 603T189 632Q189 653 206 668T243 684Q261 684 272 672T283 643Z"  />
<glyph unicode="&#xF7;" horiz-adv-x="680" d="M96 334L105 393H603L594 334H96ZM427 558Q427 538 411 523T372 507Q355 507 345 518T335 546Q335 567 351 582T387 597Q406 597 416 586T427 558ZM366 174Q366 154 351 139T312 123Q295 123 285 134T274 162Q274 182 290 198T326 214Q345 214 355 203T366 174Z"  />
<glyph unicode="&#xF8;" horiz-adv-x="583" d="M202 53Q228 45 255 45Q295 45 332 62T397 108T441 178T458 267Q458 307 446 339T411 395L202 53ZM367 425Q340 436 308 436Q266 436 229 419T163 371T118 299T101 212Q101 168 116 135T158 78L367 425ZM34 -126L123 21Q80 50 57 98T33 210Q33 274 57 326T121 416T212 473T318 494Q364 494 400 479L489 626L537 603L447 454Q487 425 508 377T529 272Q529 209 505 157T442 67T351 8T245 -13Q203 -13 169 -1L81 -146L34 -126Z"  />
<glyph unicode="&#xF9;" horiz-adv-x="534" d="M422 481H488L421 54Q379 19 328 3T222 -13Q178 -13 143 -2T85 31T53 89T51 172L100 481H167L120 187Q108 112 133 79T228 45Q276 45 308 57T359 83L422 481ZM336 583L211 728L277 773L380 610L336 583Z"  />
<glyph unicode="&#xFA;" horiz-adv-x="534" d="M422 481H488L421 54Q379 19 328 3T222 -13Q178 -13 143 -2T85 31T53 89T51 172L100 481H167L120 187Q108 112 133 79T228 45Q276 45 308 57T359 83L422 481ZM276 583L241 610L396 773L449 728L276 583Z"  />
<glyph unicode="&#xFB;" horiz-adv-x="534" d="M422 481H488L421 54Q379 19 328 3T222 -13Q178 -13 143 -2T85 31T53 89T51 172L100 481H167L120 187Q108 112 133 79T228 45Q276 45 308 57T359 83L422 481ZM431 574L329 670L198 574L166 610L341 744H342L474 610L431 574Z"  />
<glyph unicode="&#xFC;" horiz-adv-x="534" d="M422 481H488L421 54Q379 19 328 3T222 -13Q178 -13 143 -2T85 31T53 89T51 172L100 481H167L120 187Q108 112 133 79T228 45Q276 45 308 57T359 83L422 481ZM474 642Q474 621 459 606T419 590Q402 590 392 601T381 629Q381 650 397 666T433 682Q453 682 463 671T474 642ZM259 641Q259 620 243 605T205 590Q188 590 176 601T164 630Q164 651 181 666T219 682Q236 682 247 670T259 641Z"  />
<glyph unicode="&#xFD;" horiz-adv-x="480" d="M-46 -259L156 53L36 481H110L205 121L424 481H501L30 -259H-46ZM264 583L230 610L383 773L436 728L264 583Z"  />
<glyph unicode="&#xFE;" horiz-adv-x="567" d="M114 125Q131 92 168 69T252 45Q289 45 323 61T383 106T426 176T442 266Q442 347 400 391T288 435Q247 435 212 422T157 395L114 125ZM-12 -255L158 820H223L166 461Q198 478 233 486T301 494Q344 494 382 481T450 440T496 373T513 277Q513 218 493 166T438 74T355 11T252 -13Q200 -13 163 6T103 52L54 -255H-12Z"  />
<glyph unicode="&#xFF;" horiz-adv-x="480" d="M-46 -259L156 53L36 481H110L205 121L424 481H501L30 -259H-46ZM442 642Q442 620 427 605T386 590Q369 590 359 601T349 629Q349 650 364 666T401 682Q421 682 431 671T442 642ZM226 641Q226 620 210 605T171 590Q155 590 144 601T132 630Q132 651 149 666T186 682Q204 682 215 670T226 641Z"  />
<glyph unicode="&#x152;" horiz-adv-x="1187" d="M392 51Q465 51 532 80T649 160T729 279T759 425Q759 486 740 537T687 626T605 684T503 705Q432 705 366 677T250 599T169 482T139 338Q139 280 157 228T209 137T289 74T392 51ZM695 1L720 156Q689 110 651 78T569 26T480 -4T389 -14Q317 -14 257 12T153 85T86 193T62 326Q62 424 99 505T199 646T343 738T513 771Q559 771 602 759T681 724T745 667T789 590L815 756H1192L1181 692H876L837 438H1081L1071 373H826L778 65H1113L1102 1H695Z"  />
<glyph unicode="&#x153;" horiz-adv-x="951" d="M837 289Q839 317 834 344T814 391T777 424T719 437Q691 437 663 428T609 400T563 353T533 289H837ZM255 45Q295 45 332 62T397 108T441 178T458 267Q458 304 448 335T418 388T370 423T308 436Q266 436 229 419T163 371T118 299T101 212Q101 175 112 144T144 91T192 57T255 45ZM856 67Q843 51 823 37T776 11T719 -6T656 -13Q586 -13 539 17T468 103Q427 49 369 18T245 -13Q197 -13 158 3T92 48T49 119T33 210Q33 274 57 326T121 416T212 473T318 494Q387 494 434 463T506 379Q544 432 600 463T726 494Q782 494 819 473T876 418T902 341T900 254L897 236H522Q507 142 546 93T671 44Q703 44 728 50T774 66T808 87T832 107L856 67Z"  />
<glyph unicode="&#x160;" horiz-adv-x="534" d="M51 138Q59 126 73 111T107 83T155 61T217 52Q254 52 286 63T342 96T379 147T393 213Q393 258 373 287T322 339T256 380T190 423T139 482T118 568Q118 620 139 658T193 722T269 760T354 773Q392 773 421 765T470 744T504 719T524 697L477 646Q457 670 427 689T351 708Q322 708 294 699T244 674T209 632T195 576Q195 537 215 511T266 464T333 424T399 379T450 317T471 227Q471 174 451 130T395 54T312 4T210 -14Q169 -14 135 -5T74 20T29 52T1 86L51 138ZM350 813L190 914L225 947L363 878L514 945L543 914L350 813Z"  />
<glyph unicode="&#x161;" horiz-adv-x="398" d="M30 103Q37 93 47 82T71 62T105 47T148 41Q176 41 196 49T231 70T252 101T259 137Q259 164 246 182T211 214T167 240T122 269T88 306T74 360Q74 390 86 414T120 457T171 485T235 495Q261 495 282 490T320 476T348 458T366 439L329 391Q326 395 319 403T299 420T269 435T231 441Q207 441 191 434T164 415T148 390T143 365Q143 344 156 330T191 304T235 279T280 249T314 208T328 148Q328 113 314 83T275 32T216 -2T142 -14Q111 -14 86 -7T43 10T11 33T-10 57L30 103ZM248 576L116 710L158 747L259 651L391 747L422 710L248 576Z"  />
<glyph unicode="&#x178;" horiz-adv-x="545" d="M185 0L237 327L65 757H145L280 407Q282 403 282 400T282 391Q284 397 286 400T291 407L543 757H621L309 327L257 0H185ZM220 886Q220 864 203 849T165 833Q148 833 138 844T127 873Q127 895 143 911T180 927Q197 927 208 915T220 886ZM603 886Q603 864 587 849T548 833Q530 833 520 844T510 872Q510 895 525 911T563 927Q582 927 592 915T603 886Z"  />
<glyph unicode="&#x17D;" horiz-adv-x="577" d="M-41 1L477 692H141L152 756H611L93 65H507L497 1H-41ZM373 813L213 914L247 947L385 878L536 945L566 914L373 813Z"  />
<glyph unicode="&#x17E;" horiz-adv-x="445" d="M-33 1L318 423H80L89 480H442L95 58H366L357 1H-33ZM277 578L145 712L187 749L288 653L420 749L451 712L277 578Z"  />
<glyph unicode="&#x192;" horiz-adv-x="286" d="M-81 -203Q-77 -205 -67 -207T-48 -209Q-26 -209 -11 -196T15 -160T33 -108T47 -46L130 429H47L56 484H140L149 550Q159 622 172 677T207 770T260 827T340 847Q344 847 351 846T365 844T379 841T387 839L376 782Q371 783 358 784T339 786Q303 786 282 762T247 696T225 600T205 484H293L284 429H196L109 -62Q101 -107 89 -144T59 -209T15 -252T-47 -267Q-62 -267 -73 -263T-90 -257L-81 -203Z"  />
<glyph unicode="&#x2C6;" horiz-adv-x="423" d="M424 582L323 678L191 582L159 618L334 752H335L467 618L424 582Z"  />
<glyph unicode="&#x2DC;" horiz-adv-x="352" d="M456 649Q450 643 439 632T412 611T379 593T343 585Q329 585 317 592T292 607T266 623T238 630Q227 630 215 625T192 613T170 598T153 584L130 620Q138 628 152 639T183 661T217 679T250 686Q265 686 278 679T305 663T330 647T354 640Q367 640 380 645T404 658T423 673T437 686L456 649Z"  />
<glyph unicode="&#x2013;" horiz-adv-x="600" d="M57 218L74 275H524L507 218H57Z"  />
<glyph unicode="&#x2014;" horiz-adv-x="847" d="M57 218L74 275H771L754 218H57Z"  />
<glyph unicode="&#x2018;" horiz-adv-x="235" d="M92 560L209 757H262L165 560H92Z"  />
<glyph unicode="&#x2019;" horiz-adv-x="232" d="M95 560L191 757H264L148 560H95Z"  />
<glyph unicode="&#x201A;" horiz-adv-x="231" d="M-29 -78L67 119H140L24 -78H-29Z"  />
<glyph unicode="&#x201C;" horiz-adv-x="384" d="M247 560L357 757H410L316 560H247ZM92 560L209 757H262L160 560H92Z"  />
<glyph unicode="&#x201D;" horiz-adv-x="381" d="M95 560L189 757H258L148 560H95ZM243 560L345 757H413L296 560H243Z"  />
<glyph unicode="&#x201E;" horiz-adv-x="385" d="M-27 -77L67 120H136L26 -77H-27ZM121 -77L223 120H291L174 -77H121Z"  />
<glyph unicode="&#x2020;" horiz-adv-x="461" d="M157 55L236 552H96L105 609H245L278 815H341L308 609H452L443 552H299L220 55H157Z"  />
<glyph unicode="&#x2021;" horiz-adv-x="480" d="M166 56L197 249H57L66 305H206L249 577H109L118 633H258L287 820H350L321 633H465L456 577H312L269 305H413L404 249H260L229 56H166Z"  />
<glyph unicode="&#x2022;" horiz-adv-x="454" d="M397 304Q397 275 385 250T353 205T306 175T253 163Q207 163 177 194T147 272Q147 300 159 326T192 371T238 402T293 414Q315 414 334 406T367 382T389 347T397 304Z"  />
<glyph unicode="&#x2026;" horiz-adv-x="661" d="M556 49Q556 26 539 8T495 -11Q477 -11 465 3T452 35Q452 60 470 77T512 95Q533 95 544 82T556 49ZM342 49Q342 26 325 8T282 -11Q263 -11 251 3T238 35Q238 60 257 77T299 95Q319 95 330 82T342 49ZM128 49Q128 26 111 8T68 -11Q49 -11 37 3T24 35Q24 60 43 77T85 95Q105 95 116 82T128 49Z"  />
<glyph unicode="&#x2030;" horiz-adv-x="1159" d="M551 38Q572 38 591 47T625 71T648 107T657 151Q657 186 637 210T582 235Q560 235 541 226T507 202T484 166T475 122Q475 87 495 63T551 38ZM542 -12Q515 -12 494 -2T456 25T432 65T423 116Q423 151 436 182T473 236T526 272T589 286Q616 286 638 276T676 249T701 209T710 158Q710 123 696 92T659 38T605 2T542 -12ZM228 515Q249 515 268 524T302 548T326 583T335 627Q335 662 315 686T259 711Q238 711 219 702T186 678T162 642T153 599Q153 563 173 539T228 515ZM387 633Q387 598 373 568T336 514T282 478T218 464Q191 464 170 474T132 501T108 541T99 592Q99 627 113 658T150 712T203 748T266 762Q293 762 315 752T353 725T378 684T387 633ZM161 -4L588 763L629 745L203 -22L161 -4ZM926 38Q947 38 966 47T1000 71T1023 107T1032 151Q1032 186 1012 210T957 235Q936 235 917 226T884 202T860 166T851 122Q851 87 871 63T926 38ZM1086 157Q1086 122 1072 92T1035 38T981 2T917 -12Q891 -12 869 -2T831 25T807 65T798 116Q798 151 812 182T849 236T902 272T964 286Q991 286 1013 276T1051 249T1077 208T1086 157Z"  />
<glyph unicode="&#x2039;" horiz-adv-x="297" d="M134 26L41 235L197 445H262L103 235L200 26H134Z"  />
<glyph unicode="&#x203A;" horiz-adv-x="298" d="M9 26L172 235L79 445H145L235 235L77 26H9Z"  />
<glyph unicode="&#x20AC;" horiz-adv-x="673" d="M567 21Q564 19 553 14T520 2T470 -8T402 -13Q360 -13 315 1T230 48T165 134T137 267H48L70 323H139Q141 350 145 376T157 430H85L106 485H174Q193 541 223 591T296 679T393 739T516 762Q575 762 614 749T676 719L636 666Q631 669 619 674T589 685T548 695T498 699Q449 699 409 682T336 636T280 568T240 485H528L506 430H222Q214 405 210 380T204 323H492L470 267H203Q206 201 228 159T281 92T347 58T412 48Q442 48 466 52T509 62T537 73T549 80L567 21Z"  />
<glyph unicode="&#x2122;" horiz-adv-x="945" d="M815 387L823 612L644 373L540 612L482 387H420L529 768L658 473L884 767L876 387H815ZM205 387L255 703Q226 703 196 703T137 702L146 757H443L434 702Q404 702 375 702T316 703L266 387H205Z"  />

</font>
</defs>
</svg>
