<svg id="Layer_1" data-name="Layer 1" xmlns="http://www.w3.org/2000/svg" viewBox="0 0 633.566 129.177"><defs><style>.cls-1{fill:#85c446;}.cls-2{fill:#6f993f;}.cls-3{fill:#fff;}</style></defs><title>logo_white</title><path d="M229.9,34.028c-5.166-6.862,151.8-14.634,158.34-24.392-6.052,8.941-164.113,16.8-158.34,24.392"/><path class="cls-1" d="M222.776,24.257l7.128,9.772c-5.773-7.6,152.291-15.451,158.34-24.393L392.9,0c-7.337,11.536-176.66,15.993-170.119,24.257"/><path d="M262.08,78.134c5.58,6.851,86.226,13.136,83.845,19.7,3.378-7.043-78.554-13.242-83.845-19.7"/><path class="cls-2" d="M352.67,83.766l-6.745,14.068c3.378-7.043-78.553-13.242-83.845-19.7L251.839,64.077c8.774,9,106.4,9.936,100.831,19.689"/><path d="M229.9,34.028c9.39,12.139,140.588,13.9,136.917,20.229C370.876,47.3,238.98,45.694,229.9,34.028"/><path class="cls-2" d="M372.46,42.511l-5.64,11.746C370.876,47.3,238.98,45.7,229.9,34.028l-7.128-9.771C228.989,31.9,375.482,36.42,372.46,42.511"/><path class="cls-3" d="M27.755,110.23c-2.7-1.717-3.833-4.229-3.854-8.088V23.53H0v78.758c-.029,15.924,12.035,24.9,35.379,26.58,2.182.146,4.367.295,6.575.3H90.7V112.794H41.517c-6.581.006-11.045-.843-13.762-2.564m165.306-8.376c-.016,4.017-1.124,6.619-3.633,8.354s-6.646,2.592-12.678,2.586H144.794c-6.031.006-10.2-.875-12.774-2.739s-3.74-4.688-3.753-9.078V23.53h-23.9v79.34c-.015,11.8,8.588,20.461,23.082,24.394a52.662,52.662,0,0,0,13.868,1.9l38.915,0a49.871,49.871,0,0,0,13.652-1.9c14.7-4.069,23.307-12.584,23.3-24.391V23.528H193.061v78.326Zm283.033,0c-.018,4.017-1.124,6.619-3.632,8.354s-6.646,2.594-12.682,2.59H427.826c-6.033,0-10.2-.881-12.776-2.741s-3.739-4.688-3.753-9.08V23.53H387.4v79.337h0c-.016,11.806,8.587,20.468,23.078,24.4a52.734,52.734,0,0,0,13.871,1.9h38.909a49.982,49.982,0,0,0,13.657-1.9c14.693-4.069,23.309-12.584,23.3-24.394V23.53H476.094v78.324Zm90.228,10.938c-6.584.01-11.049-.841-13.764-2.562-2.7-1.721-3.832-4.227-3.854-8.09V23.53H524.8v78.758c-.03,15.924,12.033,24.9,35.386,26.58,2.186.143,4.367.295,6.577.295l48.744.006V112.792ZM371.452,23.513H341.336l-39.254,36.4-39.035-36.4H232.929l54.308,50.322L227.5,129.177h30.115l44.471-41.44,45.111,41.44h29.9L316.923,73.833Z"/><path d="M299.171,128.982c-2.779-7.861,38.4-16.154,46.754-31.148-8.321,14.8-52.185,22.955-46.754,31.148"/><path class="cls-1" d="M287.03,112.35l12.141,16.633c-5.432-8.192,38.433-16.351,46.753-31.147l6.745-14.067c-5.977,9.708-70.965,21.42-65.639,28.581"/><path d="M262.08,78.134c-4.859-6.429,96.941-11.485,104.74-23.877-7.247,11.4-110.277,16.629-104.74,23.877"/><path class="cls-1" d="M251.839,64.077,262.08,78.134c-5.537-7.248,97.493-12.474,104.74-23.877l5.64-11.746C364.4,55.023,245.632,56.688,251.839,64.077"/><polygon class="cls-3" points="621.507 117.938 621.507 124.895 620.501 124.895 620.501 117.938 617.898 117.938 617.898 117.066 624.107 117.066 624.107 117.938 621.507 117.938"/><path class="cls-3" d="M632.607,124.895l-.318-3.791c-.049-.59-.1-1.3-.123-1.914h-.023c-.259.6-.65,1.387-.934,1.951l-1.889,3.8h-.381l-1.914-3.8c-.281-.553-.625-1.3-.907-1.927h-.024c-.023.638-.073,1.361-.123,1.89l-.317,3.791h-.9l.651-7.828h.64l2.108,4.209c.319.638.724,1.436,1.006,2.1h.025c.27-.662.638-1.423.979-2.109l2.1-4.195h.638l.662,7.826h-.959Z"/></svg>