<?xml version="1.0" encoding="utf-8"?>
<!-- Generator: Adobe Illustrator 15.0.0, SVG Export Plug-In  -->
<!DOCTYPE svg PUBLIC "-//W3C//DTD SVG 1.1//EN" "http://www.w3.org/Graphics/SVG/1.1/DTD/svg11.dtd" [
	<!ENTITY ns_flows "http://ns.adobe.com/Flows/1.0/">
]>
<svg version="1.1"
	 xmlns="http://www.w3.org/2000/svg" xmlns:xlink="http://www.w3.org/1999/xlink" xmlns:a="http://ns.adobe.com/AdobeSVGViewerExtensions/3.0/"
	 x="0px" y="0px" width="523px" height="523px" viewBox="0 -69.084 523 523"
	 overflow="visible" enable-background="new 0 -69.084 523 523" xml:space="preserve">
<defs>
</defs>
<path fill="#FFFFFF" d="M0.606,70.747C-20.195,45.985,500.812,34.333,523.068,0l-14.133,28.684
	C490.585,55.295,4.981,77.264,23.384,100.026L0.606,70.747 M93.483,190.066l32.732,42.119
	c-17.646-21.718,295.625-36.743,317.607-70.682l17.14-34.963C436.528,163.78,73.809,167.926,93.483,190.066 M205.953,334.711
	l38.798,49.84c-17.467-24.551,110.303-49.29,135.564-93.335l20.502-41.876C382.679,278.243,188.953,313.26,205.953,334.711
	 M76.589,85.962c-35.553,4.793-56.896,9.458-53.205,14.064c21.704,26.259,254.981,36.077,364.512,48.111
	c38.442-5.347,66.818-12.188,73.066-21.597C467.945,112.751,209.479,100.917,76.589,85.962 M203.051,212.553
	c-47.936,6.738-82.255,12.897-76.837,19.634c12.562,14.471,154.185,28.588,220.516,43.554c26.981-8.83,48.592-17.746,54.086-26.4
	C411.536,230.916,295.977,222.87,203.051,212.553"/>
</svg>
