<?xml  version="1.0" encoding="UTF-8"?>
<!DOCTYPE svg PUBLIC "-//W3C//DTD SVG 1.0//EN" "http://www.w3.org/TR/2001/REC-SVG-20010904/DTD/svg10.dtd" >
<svg xmlns="http://www.w3.org/2000/svg" >
<metadata>
<version>1.0</version>
<id><![CDATA[Semplicita W01 Semibold Ital]]></id>
<vendor>Monotype Imaging Inc.</vendor>
<credits>
<name>Fonts.com WebFonts</name>
<URL>http://webfonts.fonts.com</URL>
<role>Home of the Web fonts</role>
</credits>
<license>
<URL>http://webfonts.fonts.com/Legal</URL>
</license>
<copyright></copyright>
<trademark></trademark>
<licensee>
<name></name>
</licensee>
</metadata>
<defs >
<font horiz-adv-x="571" id="3c168838-0dd3-4c88-b979-bcd0f9f0cd9f">
<font-face font-family="" panose-1="2 0 0 0 0 0 0 0 0 0" ascent="1044" descent="-281" units-per-em="1000" alphabetic="0">
</font-face>
<missing-glyph horiz-adv-x="0" />

<glyph unicode="&#xA;" />
<glyph unicode="&#xD;" />
<glyph unicode=" " horiz-adv-x="240" />
<glyph unicode="!" horiz-adv-x="282" d="M89 -14Q61 -14 44 6T27 51Q27 68 34 83T53 109T80 128T113 135Q142 135 158 116T174 71Q174 55 167 40T149 12T122 -7T89 -14ZM78 219L144 757H278L176 219H78Z"  />
<glyph unicode="&quot;" horiz-adv-x="444" d="M293 461L322 761H456L390 461H293ZM100 461L129 761H265L198 461H100Z"  />
<glyph unicode="#" horiz-adv-x="642" d="M395 417H293L266 317H369L395 417ZM282 6L341 219H239L175 -7L80 6L139 219H41L59 317H167L194 417H95L113 514H221L281 731L378 723L321 514H423L482 731L581 723L523 514H619L603 417H495L468 317H564L547 219H440L377 -7L282 6Z"  />
<glyph unicode="$" horiz-adv-x="591" d="M360 629Q318 631 290 606T262 541Q262 515 275 499T308 469L360 629ZM272 101Q322 106 350 135T378 209Q378 238 366 258T335 295L272 101ZM111 -121L150 -5Q123 2 101 13T61 37T31 63T11 87L92 179Q107 160 131 140T187 109L263 338Q233 358 208 378T165 420T136 470T126 533Q126 582 145 621T197 688T271 731T360 746Q369 746 378 746T397 744L435 859L521 855L478 726Q497 718 511 708T536 688T553 670T562 658L485 563Q474 577 463 589T439 610L380 430Q418 404 444 380T486 332T510 281T517 224Q517 165 494 120T434 45T350 0T256 -16Q251 -16 245 -16T234 -15L196 -125L111 -121Z"  />
<glyph unicode="%" horiz-adv-x="753" d="M520 74Q550 74 572 98T594 156Q594 182 580 199T542 216Q512 216 490 192T468 134Q468 109 482 92T520 74ZM506 -11Q478 -11 455 -1T416 28T390 70T380 123Q380 160 394 192T433 249T489 288T555 303Q583 303 607 293T647 264T673 220T683 167Q683 130 669 98T629 41T572 3T506 -11ZM231 535Q246 535 259 541T283 558T300 583T306 615Q306 641 292 658T253 676Q238 676 225 670T202 652T185 625T179 594Q179 569 193 552T231 535ZM393 626Q393 590 379 558T339 501T282 463T216 449Q188 449 165 459T126 488T100 530T90 583Q90 619 104 651T143 708T199 747T266 762Q294 762 317 752T357 723T383 679T393 626ZM135 5L547 748L621 716L208 -26L135 5Z"  />
<glyph unicode="&amp;" horiz-adv-x="720" d="M273 429Q261 426 238 414T191 378T151 321T134 240Q134 204 145 176T175 128T219 98T272 87Q303 87 329 98T375 125T410 158T431 187L273 429ZM553 0L483 108Q469 91 448 70T397 31T331 1T252 -12Q201 -12 160 6T90 57T45 132T29 224Q29 276 46 321T90 402T153 464T224 505Q207 530 200 555T193 604Q193 638 206 668T244 721T302 757T375 770Q408 770 433 762T477 741T507 717T527 697L447 626Q442 632 434 640T416 655T393 668T367 673Q345 673 324 657T303 605Q303 585 310 568T331 530H588L551 435H396L694 0H553Z"  />
<glyph unicode="&apos;" horiz-adv-x="253" d="M100 461L129 761H265L198 461H100Z"  />
<glyph unicode="(" horiz-adv-x="282" d="M60 -262Q53 -232 48 -193T40 -110T34 -23T32 63Q32 181 49 290T95 498T160 681T233 836L320 798Q298 753 267 680T208 512T160 308T140 78Q140 41 141 1T144 -78T150 -155T157 -225L60 -262Z"  />
<glyph unicode=")" horiz-adv-x="281" d="M-44 -225Q-6 -137 26 -55T83 115T120 298T134 509Q134 552 133 595T129 677T124 747T117 798L216 836Q222 809 226 772T234 691T239 602T241 512Q241 399 226 294T185 92T122 -94T41 -262L-44 -225Z"  />
<glyph unicode="*" horiz-adv-x="500" d="M105 646L171 758L264 668L252 640L105 646ZM350 640L345 668L469 758L499 646L350 640ZM128 522L260 610L280 593L219 451L128 522ZM323 451L308 593L331 610L436 522L323 451ZM292 679L267 821H389L318 679H292Z"  />
<glyph unicode="+" horiz-adv-x="652" d="M386 314L353 104H235L268 314H52L68 413H284L317 624H435L402 413H617L601 314H386Z"  />
<glyph unicode="&#x2c;" horiz-adv-x="274" d="M-54 -110L63 122H188L27 -110H-54Z"  />
<glyph unicode="-" horiz-adv-x="422" d="M49 196L78 294H353L324 196H49Z"  />
<glyph unicode="." horiz-adv-x="254" d="M162 70Q162 55 155 40T137 13T110 -6T77 -14Q50 -14 33 6T15 52Q15 68 22 83T41 109T68 127T100 134Q129 134 145 116T162 70Z"  />
<glyph unicode="/" horiz-adv-x="544" d="M-41 -186L503 820L582 783L38 -216L-41 -186Z"  />
<glyph unicode="0" horiz-adv-x="667" d="M302 87Q347 87 383 119T443 205T481 325T495 460Q495 497 490 533T473 598T439 643T384 661Q339 661 304 629T244 545T206 426T193 289Q193 255 197 219T213 154T246 106T302 87ZM290 -16Q221 -16 178 9T110 75T76 169T66 279Q66 371 86 458T149 613T253 722T400 763Q467 763 510 738T578 672T613 582T623 482Q623 452 619 404T603 301T568 189T508 87T418 13T290 -16Z"  />
<glyph unicode="1" horiz-adv-x="390" d="M121 -4L220 616L100 563L70 657L368 772L245 -4H121Z"  />
<glyph unicode="2" horiz-adv-x="603" d="M-15 0L-4 72Q36 91 84 121T180 190T274 273T355 365T412 460T433 553Q433 575 428 594T411 629T382 652T340 661Q316 661 293 653T249 633T211 607T181 579L134 659Q149 672 173 690T227 724T294 752T370 763Q415 763 451 748T511 707T549 645T563 570Q563 524 547 478T502 386T437 298T360 219T280 151T204 98L516 104L500 0H-15Z"  />
<glyph unicode="3" horiz-adv-x="549" d="M378 417Q405 404 424 384T455 340T472 289T478 237Q478 184 457 138T397 57T306 4T188 -16Q140 -16 105 -6T45 17T6 44T-14 66L52 153Q58 144 71 133T103 111T148 93T203 86Q241 86 270 98T319 131T349 178T360 234Q360 264 349 290T315 336T263 367T194 378Q184 378 183 378T179 377L191 449Q195 448 203 448Q241 448 274 459T331 489T369 532T383 584Q383 616 363 636T301 657Q269 657 235 646T179 621L156 708Q167 715 186 724T228 742T279 757T335 763Q377 763 409 749T462 713T495 661T506 600Q506 580 501 557T481 510T442 462T378 418V417Z"  />
<glyph unicode="4" horiz-adv-x="637" d="M406 536L162 225H357L406 536ZM313 -5L333 122H-3L9 195L485 783H563L474 225H576L560 122H458L438 -5H313Z"  />
<glyph unicode="5" horiz-adv-x="566" d="M48 149Q71 126 107 108T192 90Q234 90 267 104T323 144T358 201T370 268Q370 293 363 316T339 357T295 385T228 396Q205 396 173 391T94 372L250 748H561L514 647H320L250 477Q264 479 275 480T296 481Q341 481 379 466T444 424T487 359T503 274Q503 223 484 172T427 78T332 10T200 -16Q159 -16 126 -9T66 9T21 30T-8 49L48 149Z"  />
<glyph unicode="6" horiz-adv-x="622" d="M277 88Q310 88 338 101T386 138T418 192T430 256Q430 281 423 303T403 343T368 370T318 381Q285 381 257 367T209 329T178 274T167 210Q167 158 195 123T277 88ZM502 693Q487 679 461 654T404 598T341 531T284 461Q329 477 371 477Q412 477 446 463T506 421T546 355T561 267Q561 203 538 151T474 62T380 5T266 -15Q217 -15 176 -1T104 40T56 107T39 201Q39 267 64 332T129 456T215 566T305 659T383 728T430 768L502 693Z"  />
<glyph unicode="7" horiz-adv-x="566" d="M-7 -9L425 642H104L121 747H629L136 -9H-7Z"  />
<glyph unicode="8" horiz-adv-x="604" d="M322 423Q347 423 370 433T411 463T439 507T450 562Q450 581 445 599T429 631T402 653T361 662Q334 662 310 651T267 621T239 578T228 527Q228 506 234 488T253 455T282 432T322 423ZM264 85Q291 85 315 97T358 128T387 173T398 227Q398 270 373 301T304 332Q279 332 255 321T213 291T183 245T172 189Q172 169 177 151T194 118T223 94T264 85ZM444 379Q474 361 499 325T525 230Q525 180 504 136T447 57T362 4T258 -16Q209 -16 170 -1T104 41T61 102T46 179Q46 217 58 248T90 305T134 348T183 378Q169 386 156 399T132 432T114 475T107 530Q107 587 131 630T193 704T278 749T373 764Q419 764 456 750T519 712T559 653T574 577Q574 509 538 455T444 379Z"  />
<glyph unicode="9" horiz-adv-x="623" d="M322 367Q355 367 383 381T432 419T464 473T476 537Q476 591 446 625T361 660Q328 660 301 647T255 610T224 557T213 493Q213 468 219 445T239 405T273 378T322 367ZM144 50Q157 63 182 89T238 147T301 216T359 287Q336 279 313 275T270 271Q229 271 195 285T135 326T96 392T82 482Q82 551 108 603T176 691T272 745T382 763Q429 763 470 750T541 711T588 646T605 553Q605 500 586 439T522 307T403 153T217 -26L144 50Z"  />
<glyph unicode=":" horiz-adv-x="280" d="M225 397Q225 381 218 366T200 339T173 320T141 313Q113 313 96 332T79 378Q79 395 86 410T105 436T132 454T164 461Q192 461 208 443T225 397ZM174 70Q174 55 167 40T149 13T122 -6T89 -14Q62 -14 45 6T27 52Q27 68 34 83T53 110T80 128T113 135Q141 135 157 116T174 70Z"  />
<glyph unicode=";" horiz-adv-x="297" d="M-51 -110L66 122H192L30 -110H-51ZM244 397Q244 382 237 367T219 340T192 321T158 313Q132 313 115 333T97 379Q97 395 104 410T123 436T150 454T181 461Q210 461 227 443T244 397Z"  />
<glyph unicode="&lt;" horiz-adv-x="627" d="M51 337L62 405L572 694L611 593L210 369L537 126L465 28L51 337Z"  />
<glyph unicode="=" horiz-adv-x="708" d="M57 190L73 292H629L613 190H57ZM90 399L106 501H662L646 399H90Z"  />
<glyph unicode="&gt;" horiz-adv-x="626" d="M73 46L35 147L434 371L109 614L178 712L595 403L584 335L73 46Z"  />
<glyph unicode="?" horiz-adv-x="472" d="M174 -14Q146 -14 130 6T113 53Q113 69 120 83T138 109T165 127T197 134Q223 134 239 116T256 71Q256 56 249 41T231 13T205 -6T174 -14ZM423 322Q411 307 390 287T342 250T282 220T215 208Q187 208 160 217T112 243T78 285T65 342Q65 380 80 408T118 457T164 493T205 521Q225 535 245 549T280 579T306 610T316 643Q316 657 307 670T274 683Q260 683 246 678T220 667T199 653T183 641L148 706Q160 715 177 727T217 749T264 767T316 774Q348 774 371 764T408 736T430 698T437 654Q437 625 427 600T396 552T348 507T283 461Q266 450 249 438T218 412T194 383T185 351Q185 331 196 316T235 300Q255 300 276 309T316 330T350 357T373 381L423 322Z"  />
<glyph unicode="@" horiz-adv-x="984" d="M684 -170Q604 -202 544 -212T439 -222Q353 -222 281 -190T156 -102T74 30T44 193Q44 266 64 335T122 464T209 575T320 660T448 716T587 736Q672 736 738 710T849 637T917 526T941 387Q941 317 912 245T827 113T693 15T517 -23Q457 -23 414 -8T342 33T300 91T286 159Q286 196 301 232T344 298T414 344T508 362Q537 362 565 352T612 323L618 358Q626 401 604 417T531 433Q481 433 448 423T402 407L380 481Q412 495 459 511T555 527Q612 527 646 511T698 468T717 405T714 330L689 170H657Q647 202 627 222T584 252T538 266T498 270Q443 270 415 241T386 176Q386 157 395 138T422 104T467 80T533 70Q602 70 659 96T758 165T822 262T845 371Q845 413 832 460T788 547T703 614T569 641Q484 641 407 606T270 511T175 371T139 201Q139 136 162 77T226 -29T325 -102T451 -129Q473 -129 496 -128T546 -123T601 -111T663 -89L684 -170Z"  />
<glyph unicode="A" horiz-adv-x="720" d="M395 528L242 264H468L395 528ZM541 0L499 148H174L87 0H-59L439 788L684 0H541Z"  />
<glyph unicode="B" horiz-adv-x="639" d="M288 116Q327 116 355 126T403 153T432 193T442 242Q442 290 411 317T319 344H220L184 116H288ZM295 454Q359 454 396 480T434 561Q434 602 411 621T337 641H268L238 454H295ZM38 0L158 757H331Q382 757 426 749T503 721T555 671T574 595Q574 554 560 523T525 470T481 433T441 411Q465 404 489 392T533 359T564 309T576 235Q576 126 494 63T247 0H38Z"  />
<glyph unicode="C" horiz-adv-x="736" d="M667 84Q610 34 542 9T396 -17Q317 -17 254 9T146 82T77 193T53 334Q53 428 88 508T184 648T327 740T503 774Q562 774 606 762T681 733T730 697T755 667L673 578Q641 617 592 637T487 658Q421 658 367 631T273 560T213 458T191 341Q191 290 206 246T252 169T325 117T423 98Q456 98 486 104T543 121T589 143T621 167L667 84Z"  />
<glyph unicode="D" horiz-adv-x="743" d="M268 116Q327 116 381 134T478 190T545 282T570 413Q570 525 516 583T367 641H268L184 116H268ZM38 0L158 757H371Q443 757 504 738T611 677T681 573T707 421Q707 318 672 240T573 108T423 27T231 0H38Z"  />
<glyph unicode="E" horiz-adv-x="578" d="M38 1L158 756H579L560 640H267L239 460H475L456 344H220L184 117H507L489 1H38Z"  />
<glyph unicode="F" horiz-adv-x="531" d="M38 0L158 756H573L554 640H267L238 456H470L452 339H220L166 0H38Z"  />
<glyph unicode="G" horiz-adv-x="822" d="M473 289L490 398H806Q786 282 745 203T648 74T527 4T394 -18Q316 -18 253 7T146 79T77 189T53 331Q53 428 90 509T189 650T334 741T508 774Q574 774 622 759T702 726T751 691T770 673L690 577Q688 580 676 593T639 620T579 646T497 658Q431 658 375 632T277 562T213 461T190 340Q190 293 204 249T245 172T312 118T406 98Q451 98 490 112T562 152T616 213T649 289H473Z"  />
<glyph unicode="H" horiz-adv-x="763" d="M500 0L552 328H218L166 0H38L158 757H286L236 444H570L620 757H747L627 0H500Z"  />
<glyph unicode="I" horiz-adv-x="302" d="M38 0L158 757H286L166 0H38Z"  />
<glyph unicode="J" horiz-adv-x="302" d="M-137 -149Q-88 -133 -56 -116T-3 -71T31 -4T54 99L158 757H286L181 94Q168 14 148 -41T95 -135T13 -202T-108 -258L-137 -149Z"  />
<glyph unicode="K" horiz-adv-x="690" d="M486 0L215 317L166 0H38L158 757H286L239 458L557 757H717L315 387L664 0H486Z"  />
<glyph unicode="L" horiz-adv-x="529" d="M38 1L158 757H286L184 117H484L466 1H38Z"  />
<glyph unicode="M" horiz-adv-x="951" d="M714 0L739 374Q740 382 740 389T742 404Q738 396 732 387T724 375L423 -29L256 376Q254 381 248 393T240 412Q240 409 239 403T237 390Q235 383 234 375L139 0H2L221 777L451 237Q458 220 458 208Q460 215 464 221T476 237L879 777L851 0H714Z"  />
<glyph unicode="N" horiz-adv-x="831" d="M239 479L165 0H37L161 778L611 260L688 757H816L691 -28L239 479Z"  />
<glyph unicode="O" horiz-adv-x="877" d="M409 98Q466 98 520 123T616 192T684 294T710 420Q710 471 694 515T649 590T580 640T492 658Q436 658 382 634T286 566T217 466T191 343Q191 295 206 251T249 172T318 118T409 98ZM847 429Q847 334 810 253T711 111T568 17T397 -17Q317 -17 254 10T146 84T77 195T53 334Q53 431 91 511T194 650T339 741T508 774Q586 774 648 748T755 676T823 567T847 429Z"  />
<glyph unicode="P" horiz-adv-x="587" d="M274 376Q318 376 351 388T406 423T440 475T451 539Q451 562 445 581T426 613T390 633T333 640H267L226 376H274ZM38 0L158 757H316Q378 757 428 747T513 712T568 648T588 549Q588 490 568 438T507 346T404 283T258 260H207L166 0H38Z"  />
<glyph unicode="Q" horiz-adv-x="877" d="M409 98Q466 98 520 123T616 192T685 294T711 420Q711 471 695 515T650 590T581 640T493 658Q436 658 382 634T286 566T218 466T192 343Q192 294 207 250T250 172T318 118T409 98ZM696 -107L584 27Q541 4 489 -6T391 -17Q316 -17 254 9T148 83T78 194T53 334Q53 431 91 511T194 650T339 741T507 774Q584 774 647 748T754 677T823 569T848 433Q848 380 836 332T801 240T749 159T684 90L803 -15L696 -107Z"  />
<glyph unicode="R" horiz-adv-x="610" d="M280 391Q323 391 355 403T408 435T440 482T451 542Q451 590 423 615T320 640H267L228 391H280ZM429 0L232 280H210L166 0H38L158 757H312Q359 757 408 750T497 721T562 661T588 560Q588 513 573 469T528 390T458 330T367 295L595 0H429Z"  />
<glyph unicode="S" horiz-adv-x="579" d="M76 182Q87 168 103 154T141 127T189 107T246 99Q310 99 345 131T380 213Q380 251 361 276T311 323T247 364T183 410T134 473T114 563Q114 619 137 659T196 724T279 762T371 774Q419 774 453 764T512 739T549 710T568 689L492 594Q469 623 438 641T368 660Q347 660 326 654T288 637T261 609T250 569Q250 538 270 517T320 477T384 439T449 392T499 325T519 226Q519 166 497 121T436 45T346 -1T239 -17Q189 -17 149 -6T78 21T26 55T-7 90L76 182Z"  />
<glyph unicode="T" horiz-adv-x="585" d="M181 0L282 640H70L88 756H639L621 640H410L309 0H181Z"  />
<glyph unicode="U" horiz-adv-x="753" d="M612 757H740L635 91Q586 46 509 15T323 -17Q182 -17 118 56T77 278L153 757H281L216 348Q204 270 204 221T222 144T273 106T362 96Q407 96 446 107T514 140L612 757Z"  />
<glyph unicode="V" horiz-adv-x="686" d="M55 757H198L329 259Q331 252 331 244T328 224Q330 235 333 244T340 259L625 757H768L287 -40L55 757Z"  />
<glyph unicode="W" horiz-adv-x="1030" d="M538 470L230 -35L63 757H205L292 304Q293 290 292 271Q294 282 296 289T304 304L591 788L719 304Q722 291 720 268Q724 290 732 304L962 757H1102L690 -37L538 470Z"  />
<glyph unicode="X" horiz-adv-x="701" d="M488 0L349 285L112 0H-48L292 395L91 757H251L381 495L599 757H759L436 385L648 0H488Z"  />
<glyph unicode="Y" horiz-adv-x="634" d="M200 0L250 313L54 757H196L325 446Q327 441 328 436T327 422Q329 431 331 435T339 446L577 757H719L378 313L328 0H200Z"  />
<glyph unicode="Z" horiz-adv-x="665" d="M-46 1L452 640H140L159 756H701L204 117H598L580 1H-46Z"  />
<glyph unicode="[" horiz-adv-x="337" d="M-6 -216L158 820H382L367 727H246L111 -126H232L218 -216H-6Z"  />
<glyph unicode="\" horiz-adv-x="538" d="M337 -217L110 784L200 820L426 -186L337 -217Z"  />
<glyph unicode="]" horiz-adv-x="336" d="M-48 -216L-33 -123H85L220 730H102L116 820H340L176 -216H-48Z"  />
<glyph unicode="^" horiz-adv-x="676" d="M531 404L442 666L271 404H134L417 814H514L669 404H531Z"  />
<glyph unicode="_" horiz-adv-x="623" d="M9 -49L25 49H518L502 -49H9Z"  />
<glyph unicode="`" horiz-adv-x="357" d="M326 583L164 746L266 814L401 628L326 583Z"  />
<glyph unicode="a" horiz-adv-x="526" d="M339 194Q325 210 297 223T233 237Q208 237 189 230T156 210T135 181T127 149Q127 123 148 101T220 79Q249 79 277 87T325 106L339 194ZM428 53Q413 39 389 27T336 6T273 -9T205 -15Q151 -15 113 -2T51 34T15 85T4 144Q4 179 18 212T59 271T126 313T217 329Q256 329 294 319T353 284L362 343Q365 361 363 375T350 400T321 415T272 421Q224 421 189 411T132 392L110 478Q145 494 192 506T300 519Q360 519 396 505T452 464T474 401T470 318L428 53Z"  />
<glyph unicode="b" horiz-adv-x="583" d="M150 107Q163 96 185 90T236 83Q277 83 310 99T366 142T401 206T413 285Q413 342 389 381T314 420Q298 420 281 416T247 405T216 389T192 371L150 107ZM145 820H263L208 474Q235 491 273 505T357 519Q403 519 437 502T494 454T528 383T539 296Q539 223 514 165T445 67T345 6T224 -15Q173 -15 119 -1T23 48L145 820Z"  />
<glyph unicode="c" horiz-adv-x="503" d="M438 58Q429 48 410 36T366 12T311 -7T248 -15Q204 -15 164 1T93 47T44 120T26 220Q26 288 52 343T122 437T219 497T329 519Q363 519 390 512T438 495T470 476T488 460L429 371Q424 376 415 384T393 401T362 414T322 420Q290 420 259 407T204 368T164 306T149 225Q149 162 181 122T274 82Q299 82 321 88T362 104T394 123T414 140L438 58Z"  />
<glyph unicode="d" horiz-adv-x="584" d="M412 376Q398 396 371 408T313 421Q278 421 249 405T198 361T164 299T152 224Q152 157 186 120T275 83Q292 83 318 88T369 109L412 376ZM482 820H600L478 48Q422 15 365 0T259 -15Q212 -15 170 -2T96 40T46 111T27 214Q27 280 50 336T113 432T207 496T322 519Q356 519 382 511T429 485L482 820Z"  />
<glyph unicode="e" horiz-adv-x="567" d="M407 303Q410 328 406 350T389 389T357 416T310 426Q286 426 263 418T219 394T185 356T163 303H407ZM473 52Q462 43 442 32T393 10T331 -8T258 -15Q150 -15 89 44T27 213Q27 279 50 335T112 432T206 496T324 519Q385 519 426 498T492 441T523 358T522 257L514 208H147Q145 185 150 163T172 123T217 94T289 83Q348 83 385 100T449 136L473 52Z"  />
<glyph unicode="f" horiz-adv-x="365" d="M58 0L123 408H42L57 504H138L154 603Q162 651 179 691T223 757Q255 789 298 803T381 817Q407 817 429 812T467 801T494 789T506 781L447 690Q439 696 420 706T371 717Q329 717 304 688T271 605L255 504H376L361 408H240L175 0H58Z"  />
<glyph unicode="g" horiz-adv-x="576" d="M408 401Q394 408 374 415T327 422Q295 422 264 409T207 372T167 311T152 226Q152 201 156 176T172 130T203 97T254 84Q291 84 321 103T367 145L408 401ZM351 45Q322 17 285 1T210 -15Q175 -15 143 -1T84 43T43 114T27 213Q27 285 53 342T123 438T226 498T349 519Q383 519 412 514T465 501T506 484T536 467L458 -24Q445 -107 417 -155T351 -230T273 -263T193 -271Q148 -271 113 -265T52 -250T7 -230T-24 -210L38 -120Q45 -128 60 -137T96 -154T142 -167T194 -173Q219 -173 242 -167T285 -146T318 -105T338 -40L351 45Z"  />
<glyph unicode="h" horiz-adv-x="562" d="M332 0L376 275Q381 305 382 331T377 375T356 404T315 415Q294 415 275 409T240 394T212 375T192 357L135 0H17L147 820H265L207 453Q220 463 237 475T275 496T321 512T376 519Q449 519 483 476T503 337L450 0H332Z"  />
<glyph unicode="i" horiz-adv-x="258" d="M174 592Q145 592 128 609T111 656Q111 694 136 719T198 744Q228 744 245 726T262 680Q262 642 236 617T174 592ZM21 0L101 505H219L139 0H21Z"  />
<glyph unicode="j" horiz-adv-x="259" d="M175 592Q147 592 129 610T111 657Q111 676 118 692T138 719T166 737T199 744Q230 744 246 726T263 680Q263 642 237 617T175 592ZM-116 -179Q-74 -167 -50 -155T-12 -121T9 -62T27 38L101 505H219L145 36Q134 -33 121 -82T84 -166T19 -225T-85 -268L-116 -179Z"  />
<glyph unicode="k" horiz-adv-x="515" d="M327 0L172 239L135 0H17L147 820H265L183 305L366 505H511L281 273L468 0H327Z"  />
<glyph unicode="l" horiz-adv-x="254" d="M19 0L149 820H267L137 0H19Z"  />
<glyph unicode="m" horiz-adv-x="845" d="M614 0L665 320Q680 415 609 415Q591 415 574 410T541 396T513 378T491 359L434 0H316L367 325Q375 373 358 394T304 415Q288 415 272 409T240 395T212 376T192 359L135 0H17L97 505H215L207 452Q216 460 232 471T269 493T315 511T368 519Q397 519 416 512T447 493T465 468T475 443Q491 455 512 468T556 492T606 511T660 519Q734 519 767 476T786 339L732 0H614Z"  />
<glyph unicode="n" horiz-adv-x="562" d="M332 0L376 275Q381 308 382 334T376 378T353 405T308 415Q291 415 274 409T240 394T212 375T192 357L135 0H17L97 505H215L207 453Q218 462 234 473T272 495T318 512T371 519Q449 519 483 476T503 337L450 0H332Z"  />
<glyph unicode="o" horiz-adv-x="598" d="M264 83Q299 83 329 97T381 138T416 201T429 281Q429 344 402 382T318 420Q284 420 253 405T199 364T162 301T148 221Q148 159 177 121T264 83ZM254 -15Q200 -15 158 3T86 52T42 125T26 218Q26 284 52 339T120 435T217 497T330 519Q383 519 424 501T495 451T539 377T554 286Q554 225 531 171T468 75T372 9T254 -15Z"  />
<glyph unicode="p" horiz-adv-x="582" d="M156 140Q168 116 198 100T260 84Q288 84 315 98T364 139T398 200T411 278Q411 341 380 380T288 420Q265 420 239 414T196 396L156 140ZM-25 -255L89 462Q145 491 203 505T309 519Q356 519 397 506T470 464T519 394T537 294Q537 237 519 182T465 83T380 12T267 -15Q219 -15 190 -1T139 34L93 -255H-25Z"  />
<glyph unicode="q" horiz-adv-x="589" d="M420 397Q407 406 385 414T335 422Q297 422 264 406T205 361T165 295T150 214Q150 152 179 118T257 83Q292 83 324 100T381 148L420 397ZM317 -255L363 34Q333 12 296 -1T221 -15Q182 -15 147 1T85 47T43 120T27 219Q27 294 55 350T130 443T235 500T355 519Q410 519 460 505T548 462L435 -255H317Z"  />
<glyph unicode="r" horiz-adv-x="383" d="M17 0L97 505H215L203 427Q208 436 219 451T246 482T281 508T322 519Q354 519 373 511T405 494L346 384Q336 392 322 400T285 408Q265 408 248 398T217 371T194 330T180 281L135 0H17Z"  />
<glyph unicode="s" horiz-adv-x="430" d="M354 382Q352 385 344 393T324 410T296 424T262 431Q233 431 212 415T191 374Q191 355 203 342T235 315T277 288T318 255T350 210T363 147Q363 72 310 29T164 -15Q95 -15 51 6T-18 51L38 135Q57 113 92 94T164 74Q199 74 220 93T241 139Q241 160 228 176T196 206T154 234T112 268T79 311T66 369Q66 400 78 427T114 476T172 509T252 521Q285 521 311 515T358 500T391 481T411 464L354 382Z"  />
<glyph unicode="t" horiz-adv-x="364" d="M64 0L129 408H38L53 504H144L172 677H290L262 504H380L365 408H247L182 0H64Z"  />
<glyph unicode="u" horiz-adv-x="562" d="M410 505H528L457 55Q408 17 353 1T230 -15Q182 -15 144 -3T81 33T46 95T43 181L94 505H212L165 210Q158 169 163 144T182 106T216 88T258 83Q290 83 313 92T348 110L410 505Z"  />
<glyph unicode="v" horiz-adv-x="507" d="M180 -23L28 505H159L218 252Q224 225 227 210T231 177H233Q237 194 244 209T267 252L412 505H541L224 -23H180Z"  />
<glyph unicode="w" horiz-adv-x="739" d="M439 -23L361 254L194 -23H147L32 505H157L214 237L216 221Q217 215 217 209T218 199Q220 207 226 220T236 239L389 489H410L483 237Q485 230 486 219T487 200Q489 209 494 218T504 238L646 505H770L487 -23H439Z"  />
<glyph unicode="x" horiz-adv-x="531" d="M338 0L249 182L98 0H-43L192 275L60 505H203L273 352L395 505H533L327 264L478 0H338Z"  />
<glyph unicode="y" horiz-adv-x="541" d="M-60 -256L158 78L29 505H160L245 199L439 505H575L74 -256H-60Z"  />
<glyph unicode="z" horiz-adv-x="503" d="M-39 1L288 408H76L92 504H504L184 97H434L419 1H-39Z"  />
<glyph unicode="{" horiz-adv-x="373" d="M236 -213Q179 -207 145 -191T93 -148T74 -82T79 7L98 128Q102 156 101 180T91 225T63 266T12 304Q49 322 74 341T116 382T140 428T154 480L173 601Q181 651 195 689T236 755T302 799T400 821L410 734Q375 729 353 720T316 693T294 651T280 588L261 468Q253 414 236 377T182 304Q208 269 212 232T209 140L190 20Q184 -17 184 -42T193 -85T221 -111T274 -126L236 -213Z"  />
<glyph unicode="|" horiz-adv-x="262" d="M-12 -260L159 820H265L94 -260H-12Z"  />
<glyph unicode="}" horiz-adv-x="372" d="M-39 -126Q-4 -121 18 -112T55 -85T77 -43T91 20L110 140Q118 194 135 231T190 304Q164 339 159 376T162 468L181 588Q187 625 187 650T178 693T150 719T97 734L135 821Q192 815 226 799T278 756T297 690T292 601L273 480Q268 452 269 428T280 383T308 342T359 304Q322 286 297 267T256 226T230 180T217 128L198 7Q190 -43 176 -81T135 -147T69 -191T-29 -213L-39 -126Z"  />
<glyph unicode="~" horiz-adv-x="539" d="M519 475Q511 468 497 458T463 439T422 423T377 416Q358 416 340 424T302 442T264 460T222 468Q207 468 191 463T158 450T128 434T105 420L78 517Q88 525 105 536T143 557T186 574T228 581Q250 581 270 573T310 555T347 537T382 528Q401 528 418 533T451 546T477 561T495 574L519 475Z"  />
<glyph unicode="&#xA0;" horiz-adv-x="240" />
<glyph unicode="&#xA1;" horiz-adv-x="264" d="M234 495Q234 478 227 463T209 437T182 418T149 411Q120 411 104 430T87 475Q87 491 94 506T112 534T139 553T172 560Q200 560 217 540T234 495ZM-17 -211L85 327H183L117 -211H-17Z"  />
<glyph unicode="&#xA2;" horiz-adv-x="568" d="M300 492Q280 484 259 470T221 435T193 384T182 318Q182 265 203 232T251 186L300 492ZM218 -26L235 85Q196 92 164 111T108 160T72 228T59 310Q59 371 81 420T140 506T223 565T316 594L340 746H420L396 596Q423 593 448 583T494 561T529 536T548 517L481 444Q476 449 465 458T440 477T411 493T381 502L330 179Q351 179 372 186T413 204T446 226T467 245L493 167Q471 141 426 117T316 87L298 -26H218Z"  />
<glyph unicode="&#xA3;" horiz-adv-x="636" d="M546 2Q533 -1 514 -4T476 -11T439 -16T411 -18Q385 -18 362 -14T318 -4T278 5T240 10Q215 10 181 2T114 -16T58 -36T30 -48L6 43Q9 45 23 51T59 66T104 83T152 97L181 280H114L128 371H194L219 526Q230 596 249 640T296 708T358 742T435 751Q456 751 474 746T507 734T531 719T548 706L485 621Q476 626 462 637T424 648Q389 648 372 623T346 546L318 371H448L434 280H304L276 109Q292 108 310 104T347 96T386 87T426 83Q458 83 484 88T550 103L546 2Z"  />
<glyph unicode="&#xA4;" horiz-adv-x="698" d="M334 224Q361 224 387 236T433 270T466 318T479 376Q479 425 450 457T376 490Q351 490 326 478T279 446T245 399T232 340Q232 316 240 295T262 258T294 233T334 224ZM503 88L445 158Q417 142 385 132T318 121Q283 121 254 131T201 158L118 87L45 155L129 228Q119 248 114 273T108 326Q108 376 125 414T168 485L108 559L203 628L263 554Q292 572 325 583T393 594Q428 594 457 583T509 555L590 626L670 559L585 484Q602 448 602 396Q602 345 587 305T542 229Q560 209 577 189T605 155L503 88Z"  />
<glyph unicode="&#xA5;" horiz-adv-x="758" d="M406 99L390 0H262L278 99H75L89 190H292L306 276H103L117 367H287L116 757H258L387 447Q389 442 389 437T389 420Q391 431 393 436T401 447L639 757H781L482 367H655L641 276H434L420 190H627L613 99H406Z"  />
<glyph unicode="&#xA6;" horiz-adv-x="267" d="M92 381L161 820H267L198 381H92ZM-10 -260L60 179H166L96 -260H-10Z"  />
<glyph unicode="&#xA7;" horiz-adv-x="569" d="M264 449Q250 449 236 445T210 435T187 423T169 413L296 126Q298 125 309 128T334 138T363 152T386 166L264 449ZM56 398Q66 419 84 439T125 477T174 510T227 538Q214 567 199 600T172 663Q176 676 197 692T247 726T312 759T380 789T440 809T480 816L489 705Q475 705 447 702T389 693T329 682T284 671Q337 547 392 424T501 180Q481 138 435 103T335 43Q349 6 369 -37T404 -115Q397 -128 376 -145T326 -181T261 -218T193 -250T130 -272T81 -281L74 -170Q89 -170 118 -166T180 -154T243 -139T290 -124L56 398Z"  />
<glyph unicode="&#xA8;" horiz-adv-x="479" d="M526 655Q526 626 504 604T446 582Q420 582 404 598T388 638Q388 668 411 689T466 711Q495 711 510 695T526 655ZM296 654Q296 639 290 626T272 604T246 588T215 582Q190 582 174 598T157 638Q157 653 163 666T181 690T206 705T235 711Q262 711 279 695T296 654Z"  />
<glyph unicode="&#xA9;" horiz-adv-x="877" d="M402 67Q467 67 527 95T635 171T710 282T739 417Q739 472 722 519T672 602T594 658T493 679Q428 679 368 652T261 577T186 466T157 330Q157 275 174 227T224 144T302 88T402 67ZM388 -25Q315 -25 255 1T152 74T86 183T62 318Q62 410 99 492T199 636T341 734T507 770Q580 770 640 744T744 671T811 562T835 428Q835 336 797 254T697 109T554 11T388 -25ZM606 204Q568 173 524 160T434 146Q383 146 343 162T274 205T230 269T215 348Q215 398 236 444T294 527T383 584T494 606Q531 606 559 598T606 580T637 559T653 542L591 471Q570 494 540 504T480 514Q442 514 413 501T364 466T334 416T323 359Q323 307 356 272T453 237Q474 237 493 241T529 250T555 261T569 270L606 204Z"  />
<glyph unicode="&#xAA;" horiz-adv-x="446" d="M308 517Q299 525 284 531T250 537Q225 537 206 524T186 486Q186 467 199 456T239 444Q255 444 270 448T299 458L308 517ZM402 416Q364 387 316 377T228 367Q184 367 154 376T106 400T79 436T70 481Q70 516 85 540T125 579T180 601T240 608Q269 608 287 603T318 592L322 617Q325 637 315 650T266 663Q235 663 207 656T164 644L143 709Q173 722 210 731T294 740Q340 740 369 730T413 702T432 656T430 593L402 416Z"  />
<glyph unicode="&#xAB;" horiz-adv-x="600" d="M388 25L279 238L452 450H577L394 238L515 25H388ZM137 25L30 238L203 450H331L148 237L267 25H137Z"  />
<glyph unicode="&#xAC;" horiz-adv-x="691" d="M451 110L482 303H63L81 414H628L579 110H451Z"  />
<glyph unicode="&#xAD;" horiz-adv-x="422" d="M49 196L78 294H353L324 196H49Z"  />
<glyph unicode="&#xAE;" horiz-adv-x="693" d="M371 510Q411 510 425 524T439 558Q439 577 428 587T390 597H368L354 510H371ZM399 337L348 471L326 337H250L301 657H389Q412 657 433 653T470 638T497 609T507 564Q507 488 421 464L481 337H399ZM344 277Q389 277 431 297T507 350T560 428T580 522Q580 560 568 593T532 652T478 691T407 706Q363 706 321 687T246 636T193 559T173 464Q173 425 185 391T220 332T274 292T344 277ZM332 200Q279 200 235 219T159 273T109 352T91 451Q91 518 119 578T192 683T297 754T418 781Q471 781 515 762T592 708T641 628T659 530Q659 463 631 403T558 298T453 227T332 200Z"  />
<glyph unicode="&#xAF;" horiz-adv-x="500" d="M139 600L155 699H567L551 600H139Z"  />
<glyph unicode="&#xB0;" horiz-adv-x="425" d="M249 553Q265 553 280 560T306 581T324 611T331 647Q331 676 316 695T275 715Q259 715 245 708T219 687T202 657T195 621Q195 592 210 573T249 553ZM431 654Q431 617 415 585T373 529T311 491T238 477Q206 477 180 487T135 516T106 560T95 614Q95 650 110 682T152 739T214 778T288 792Q319 792 345 782T391 752T420 708T431 654Z"  />
<glyph unicode="&#xB1;" horiz-adv-x="685" d="M21 1L37 100H586L570 1H21ZM412 362L379 152H261L294 362H78L94 461H310L343 672H461L428 461H643L627 362H412Z"  />
<glyph unicode="&#xB2;" horiz-adv-x="480" d="M37 330Q57 343 87 364T150 412T217 469T278 530T321 590T338 645Q338 669 323 681T288 693Q275 693 261 689T234 677T209 661T189 645L147 718Q159 727 177 738T217 760T265 777T320 784Q385 784 421 749T457 662Q457 620 435 581T381 508T317 450T264 411L442 421L428 330H37Z"  />
<glyph unicode="&#xB3;" horiz-adv-x="413" d="M104 446Q114 434 142 422T201 409Q221 409 236 415T260 431T275 452T280 476Q280 506 252 522T178 538Q173 538 169 538T160 537Q162 553 164 568T169 600Q173 600 173 600T182 599Q201 599 220 603T253 615T276 634T285 661Q285 678 274 686T244 694Q222 694 200 686T169 671L149 751Q157 757 170 763T201 773T237 781T276 784Q337 784 369 756T402 684Q402 673 400 660T389 633T366 604T327 577Q360 562 374 531T389 471Q389 440 374 412T332 363T268 330T187 318Q156 318 132 323T90 337T61 354T43 369L104 446Z"  />
<glyph unicode="&#xB4;" horiz-adv-x="357" d="M215 583L145 633L340 819L428 746L215 583Z"  />
<glyph unicode="&#xB5;" horiz-adv-x="572" d="M344 0L351 43Q323 14 293 0T232 -15Q206 -15 186 -6T153 24L109 -255H-9L111 505H229L170 128Q182 108 207 96T259 83Q278 83 296 89T331 110T360 148T377 205L425 505H542L462 0H344Z"  />
<glyph unicode="&#xB6;" horiz-adv-x="573" d="M288 259Q235 257 195 274T127 320T85 388T71 467Q71 516 93 567T154 659T248 727T367 754L288 259ZM280 -155L424 757H541L397 -155H280Z"  />
<glyph unicode="&#xB7;" horiz-adv-x="264" d="M216 371Q216 356 209 342T189 317T161 300T128 293Q100 293 82 311T63 354Q63 371 70 385T90 410T117 427T150 433Q179 433 197 416T216 371Z"  />
<glyph unicode="&#xB8;" horiz-adv-x="259" d="M-11 -244L89 -39H229L88 -244H-11Z"  />
<glyph unicode="&#xB9;" horiz-adv-x="322" d="M138 328L189 652L113 624L84 709L325 790L252 328H138Z"  />
<glyph unicode="&#xBA;" horiz-adv-x="490" d="M272 451Q315 451 341 484T368 568Q368 606 351 631T298 656Q277 656 259 647T227 621T206 583T198 537Q198 502 216 477T272 451ZM485 573Q485 532 469 495T422 429T351 384T260 367Q217 367 184 379T128 414T93 467T81 534Q81 581 100 619T151 684T223 725T308 740Q350 740 383 727T438 691T473 638T485 573Z"  />
<glyph unicode="&#xBB;" horiz-adv-x="593" d="M245 24L432 237L315 449H437L541 238L367 24H245ZM-2 24L186 236L69 449H194L300 238L123 24H-2Z"  />
<glyph unicode="&#xBC;" horiz-adv-x="882" d="M657 296L519 151H635L657 296ZM723 70L711 -5H606L618 70H389L400 139L709 451H783L737 157H807L793 70H723ZM157 328L208 652L132 624L103 709L340 790L267 328H157ZM122 6L621 771L711 726L211 -39L122 6Z"  />
<glyph unicode="&#xBD;" horiz-adv-x="943" d="M450 0Q470 13 500 34T563 81T630 138T691 200T734 260T751 315Q751 339 736 351T701 363Q688 363 674 359T647 347T622 331T602 315L560 388Q572 397 590 408T630 430T678 447T732 454Q764 454 789 445T833 419T860 380T870 332Q870 290 847 251T793 178T729 120T677 81L855 91L841 0H450ZM157 328L208 652L132 624L103 709L340 790L267 328H157ZM122 6L621 771L711 726L211 -39L122 6Z"  />
<glyph unicode="&#xBE;" horiz-adv-x="967" d="M720 151Q726 187 732 223T743 296L605 151H720ZM112 446Q122 434 150 422T209 409Q229 409 244 415T268 431T283 452T288 476Q288 506 260 522T186 538Q181 538 177 538T168 537Q170 553 172 568T177 600Q181 600 181 600T190 599Q209 599 228 603T261 615T284 634T293 661Q293 678 282 686T252 694Q230 694 208 686T177 671L157 751Q165 757 178 763T209 773T245 781T284 784Q345 784 377 756T410 684Q410 673 408 660T397 633T374 604T335 577Q368 562 382 531T397 471Q397 440 382 412T340 363T276 330T195 318Q164 318 140 323T98 337T69 354T51 369L112 446ZM209 6L708 771L798 726L297 -39L209 6ZM810 70L798 -5H692L704 70H476L487 139L796 451H870L823 157H893L880 70H810Z"  />
<glyph unicode="&#xBF;" horiz-adv-x="458" d="M339 473Q339 457 332 443T313 417T286 399T254 392Q228 392 212 410T195 455Q195 470 202 485T220 513T247 532T278 540Q305 540 322 520T339 473ZM304 -180Q292 -189 275 -201T235 -223T188 -241T135 -248Q103 -248 80 -238T43 -210T21 -172T14 -128Q14 -70 55 -26T168 65Q184 76 201 88T233 114T257 143T266 175Q266 195 255 210T216 226Q196 226 175 217T135 196T101 169T78 145L28 204Q40 219 61 239T109 276T169 306T237 318Q265 318 292 309T340 283T373 241T386 184Q386 146 371 118T333 69T287 33T246 5Q226 -9 206 -23T171 -53T145 -85T135 -117Q135 -131 144 -144T177 -157Q191 -157 205 -152T231 -141T252 -127T268 -115L304 -180Z"  />
<glyph unicode="&#xC0;" horiz-adv-x="720" d="M395 528L242 264H468L395 528ZM541 0L499 148H174L87 0H-59L439 788L684 0H541ZM283 874L348 979L629 910L585 825L283 874Z"  />
<glyph unicode="&#xC1;" horiz-adv-x="720" d="M395 528L242 264H468L395 528ZM541 0L499 148H174L87 0H-59L439 788L684 0H541ZM310 830L292 914L596 983L626 879L310 830Z"  />
<glyph unicode="&#xC2;" horiz-adv-x="720" d="M395 528L242 264H468L395 528ZM541 0L499 148H174L87 0H-59L439 788L684 0H541ZM591 808L447 871L277 800L241 872L466 981L660 876L591 808Z"  />
<glyph unicode="&#xC3;" horiz-adv-x="720" d="M395 528L242 264H468L395 528ZM541 0L499 148H174L87 0H-59L439 788L684 0H541ZM665 896Q653 887 635 874T597 850T554 831T512 823Q490 823 475 830T446 847T420 864T391 872Q367 872 340 856T288 822L246 899Q258 908 277 921T320 945T366 965T409 973Q428 973 442 965T470 948T495 930T522 922Q535 922 550 928T578 944T603 963T622 980L665 896Z"  />
<glyph unicode="&#xC4;" horiz-adv-x="720" d="M395 528L242 264H468L395 528ZM541 0L499 148H174L87 0H-59L439 788L684 0H541ZM401 921Q401 905 394 891T375 867T347 850T313 843Q285 843 267 861T248 904Q248 920 255 934T275 958T302 975T334 981Q364 981 382 964T401 921ZM652 922Q652 890 628 867T564 843Q535 843 518 861T500 904Q500 920 506 934T524 958T551 975T585 981Q617 981 634 964T652 922Z"  />
<glyph unicode="&#xC5;" horiz-adv-x="720" d="M395 528L242 264H468L395 528ZM541 0L499 148H174L87 0H-59L439 788L684 0H541ZM452 871Q462 871 472 876T490 889T504 907T509 930Q509 949 498 962T469 976Q447 976 430 958T413 916Q413 897 424 884T452 871ZM581 938Q581 911 570 886T539 843T494 813T441 802Q395 802 367 832T338 907Q338 935 350 960T381 1004T426 1033T479 1044Q501 1044 520 1036T552 1013T573 979T581 938Z"  />
<glyph unicode="&#xC6;" horiz-adv-x="973" d="M521 554L301 264H475L521 554ZM433 1L456 148H212L102 0H-65L535 756H974L955 640H662L634 460H870L851 344H615L580 117H903L884 1H433Z"  />
<glyph unicode="&#xC7;" horiz-adv-x="736" d="M667 84Q610 34 542 9T396 -17Q317 -17 254 9T146 82T77 193T53 334Q53 428 88 508T184 648T327 740T503 774Q562 774 606 762T681 733T730 697T755 667L673 578Q641 617 592 637T487 658Q421 658 367 631T273 560T213 458T191 341Q191 290 206 246T252 169T325 117T423 98Q456 98 486 104T543 121T589 143T621 167L667 84ZM217 -267L317 -62H457L315 -267H217Z"  />
<glyph unicode="&#xC8;" horiz-adv-x="578" d="M217 875L279 980L561 911L518 826L217 875ZM38 1L158 756H579L560 640H267L239 460H475L456 344H220L184 117H507L489 1H38Z"  />
<glyph unicode="&#xC9;" horiz-adv-x="578" d="M251 829L233 913L536 982L568 878L251 829ZM38 1L158 756H579L560 640H267L239 460H475L456 344H220L184 117H507L489 1H38Z"  />
<glyph unicode="&#xCA;" horiz-adv-x="578" d="M395 885L227 820L191 892L415 993L607 888L539 820L395 885ZM38 1L158 756H579L560 640H267L239 460H475L456 344H220L184 117H507L489 1H38Z"  />
<glyph unicode="&#xCB;" horiz-adv-x="578" d="M573 893Q573 864 551 842T493 820Q467 820 451 836T435 876Q435 906 458 927T513 949Q542 949 557 933T573 893ZM349 892Q349 877 342 864T324 842T299 826T268 820Q242 820 226 836T210 876Q210 907 234 928T288 949Q315 949 332 933T349 892ZM38 1L158 756H579L560 640H267L239 460H475L456 344H220L184 117H507L489 1H38Z"  />
<glyph unicode="&#xCC;" horiz-adv-x="302" d="M61 872L125 977L417 908L371 823L61 872ZM38 0L158 757H286L166 0H38Z"  />
<glyph unicode="&#xCD;" horiz-adv-x="275" d="M81 829L59 913L397 982L434 878L81 829ZM36 0L159 757H263L136 0H36Z"  />
<glyph unicode="&#xCE;" horiz-adv-x="302" d="M395 818L240 882L60 818L24 890L259 991L464 886L395 818ZM38 0L158 757H286L166 0H38Z"  />
<glyph unicode="&#xCF;" horiz-adv-x="302" d="M38 0L158 757H286L166 0H38ZM409 893Q409 864 387 842T329 820Q303 820 288 836T272 876Q272 906 294 927T349 949Q378 949 393 933T409 893ZM211 893Q211 863 187 842T131 820Q105 820 89 836T73 876Q73 907 96 928T151 949Q177 949 194 933T211 893Z"  />
<glyph unicode="&#xD0;" horiz-adv-x="758" d="M284 116Q343 116 397 134T494 190T561 282T586 413Q586 525 532 583T383 641H284L251 435H414L396 323H233L200 116H284ZM54 0L105 323H15L33 435H123L174 757H387Q459 757 520 738T627 677T697 573T723 421Q723 318 688 240T589 108T439 27T247 0H54Z"  />
<glyph unicode="&#xD1;" horiz-adv-x="831" d="M706 893Q694 884 677 871T639 847T596 828T554 820Q532 820 517 827T488 844T462 861T433 869Q409 869 382 853T330 819L288 896Q300 905 320 918T363 942T409 962T452 970Q471 970 485 962T512 945T537 927T565 919Q578 919 592 925T620 941T645 960T664 977L706 893ZM239 479L165 0H37L161 778L611 260L688 757H816L691 -28L239 479Z"  />
<glyph unicode="&#xD2;" horiz-adv-x="877" d="M409 98Q466 98 520 123T616 192T684 294T710 420Q710 471 694 515T649 590T580 640T492 658Q436 658 382 634T286 566T217 466T191 343Q191 295 206 251T249 172T318 118T409 98ZM847 429Q847 334 810 253T711 111T568 17T397 -17Q317 -17 254 10T146 84T77 195T53 334Q53 431 91 511T194 650T339 741T508 774Q586 774 648 748T755 676T823 567T847 429ZM363 878L428 983L710 914L664 829L363 878Z"  />
<glyph unicode="&#xD3;" horiz-adv-x="877" d="M409 98Q466 98 520 123T616 192T684 294T710 420Q710 471 694 515T649 590T580 640T492 658Q436 658 382 634T286 566T217 466T191 343Q191 295 206 251T249 172T318 118T409 98ZM847 429Q847 334 810 253T711 111T568 17T397 -17Q317 -17 254 10T146 84T77 195T53 334Q53 431 91 511T194 650T339 741T508 774Q586 774 648 748T755 676T823 567T847 429ZM385 830L366 914L670 983L700 879L385 830Z"  />
<glyph unicode="&#xD4;" horiz-adv-x="877" d="M409 98Q466 98 520 123T616 192T684 294T710 420Q710 471 694 515T649 590T580 640T492 658Q436 658 382 634T286 566T217 466T191 343Q191 295 206 251T249 172T318 118T409 98ZM847 429Q847 334 810 253T711 111T568 17T397 -17Q317 -17 254 10T146 84T77 195T53 334Q53 431 91 511T194 650T339 741T508 774Q586 774 648 748T755 676T823 567T847 429ZM668 808L524 870L356 808L320 880L543 981L737 876L668 808Z"  />
<glyph unicode="&#xD5;" horiz-adv-x="877" d="M409 98Q466 98 520 123T616 192T684 294T710 420Q710 471 694 515T649 590T580 640T492 658Q436 658 382 634T286 566T217 466T191 343Q191 295 206 251T249 172T318 118T409 98ZM847 429Q847 334 810 253T711 111T568 17T397 -17Q317 -17 254 10T146 84T77 195T53 334Q53 431 91 511T194 650T339 741T508 774Q586 774 648 748T755 676T823 567T847 429ZM741 896Q729 887 712 874T673 850T630 831T588 823Q566 823 551 830T522 847T496 864T467 872Q443 872 416 856T365 822L322 899Q334 908 354 921T397 945T443 965T486 973Q505 973 519 965T546 948T571 930T599 922Q612 922 626 928T654 944T679 963T698 980L741 896Z"  />
<glyph unicode="&#xD6;" horiz-adv-x="877" d="M409 98Q466 98 520 123T616 192T684 294T710 420Q710 471 694 515T649 590T580 640T492 658Q436 658 382 634T286 566T217 466T191 343Q191 295 206 251T249 172T318 118T409 98ZM847 429Q847 334 810 253T711 111T568 17T397 -17Q317 -17 254 10T146 84T77 195T53 334Q53 431 91 511T194 650T339 741T508 774Q586 774 648 748T755 676T823 567T847 429ZM808 892Q808 876 801 862T783 838T757 821T725 815Q699 815 682 832T665 874Q665 890 672 904T690 929T717 946T747 952Q774 952 791 935T808 892ZM395 892Q395 860 371 838T312 815Q286 815 270 832T253 874Q253 890 260 904T278 929T304 946T334 952Q362 952 378 935T395 892Z"  />
<glyph unicode="&#xD7;" horiz-adv-x="654" d="M474 111L323 283L119 109L42 170L261 354L103 536L196 601L346 421L550 602L621 536L411 353L568 176L474 111Z"  />
<glyph unicode="&#xD8;" horiz-adv-x="877" d="M365 102Q384 98 409 98Q466 98 520 123T616 192T684 294T710 420Q710 474 692 519T642 597L365 102ZM545 652Q519 658 492 658Q436 658 382 634T286 566T217 466T191 343Q191 286 210 237T268 152L545 652ZM122 -110L203 36Q131 83 92 160T53 334Q53 431 91 511T194 650T339 741T508 774Q559 774 606 762L674 884L779 843L708 716Q774 670 810 596T847 429Q847 334 810 253T711 111T568 17T397 -17Q349 -17 305 -6L229 -143L122 -110Z"  />
<glyph unicode="&#xD9;" horiz-adv-x="753" d="M612 757H740L635 91Q586 46 509 15T323 -17Q182 -17 118 56T77 278L153 757H281L216 348Q204 270 204 221T222 144T273 106T362 96Q407 96 446 107T514 140L612 757ZM300 873L364 978L646 909L601 824L300 873Z"  />
<glyph unicode="&#xDA;" horiz-adv-x="753" d="M612 757H740L635 91Q586 46 509 15T323 -17Q182 -17 118 56T77 278L153 757H281L216 348Q204 270 204 221T222 144T273 106T362 96Q407 96 446 107T514 140L612 757ZM327 823L308 907L612 976L642 872L327 823Z"  />
<glyph unicode="&#xDB;" horiz-adv-x="753" d="M612 757H740L635 91Q586 46 509 15T323 -17Q182 -17 118 56T77 278L153 757H281L216 348Q204 270 204 221T222 144T273 106T362 96Q407 96 446 107T514 140L612 757ZM615 819L471 883L302 819L266 891L490 992L684 887L615 819Z"  />
<glyph unicode="&#xDC;" horiz-adv-x="753" d="M612 757H740L635 91Q586 46 509 15T323 -17Q182 -17 118 56T77 278L153 757H281L216 348Q204 270 204 221T222 144T273 106T362 96Q407 96 446 107T514 140L612 757ZM763 894Q763 864 741 842T684 820Q658 820 642 836T626 876Q626 906 649 927T704 949Q733 949 748 933T763 894ZM308 893Q308 863 284 842T228 820Q202 820 186 836T170 876Q170 907 193 928T248 949Q274 949 291 933T308 893Z"  />
<glyph unicode="&#xDD;" horiz-adv-x="634" d="M200 0L250 313L54 757H196L325 446Q327 441 328 436T327 422Q329 431 331 435T339 446L577 757H719L378 313L328 0H200ZM368 738L299 788L491 974L580 901L368 738Z"  />
<glyph unicode="&#xDE;" horiz-adv-x="589" d="M253 247Q297 247 330 260T385 294T419 345T431 408Q431 456 405 483T318 511H247L205 247H253ZM38 0L158 757H286L265 628H295Q357 628 407 618T493 583T548 518T568 419Q568 360 548 308T487 216T384 154T238 131H187L166 0H38Z"  />
<glyph unicode="&#xDF;" horiz-adv-x="608" d="M230 -145Q273 -141 305 -121T360 -73T393 -11T404 52Q404 93 382 122T310 152Q276 152 239 135L415 408H240L175 0H58L123 408H42L57 504H138L154 603Q161 648 177 688T222 757Q254 789 297 803T381 817Q408 817 430 812T468 801T494 789T506 781L447 690Q439 696 420 706T371 717Q329 717 304 688T271 605L255 504H598L399 213Q412 216 425 216Q450 216 469 205T502 173T522 127T529 70Q529 23 511 -27T454 -122T356 -198T215 -242L230 -145Z"  />
<glyph unicode="&#xE0;" horiz-adv-x="526" d="M339 194Q325 210 296 223T234 237Q209 237 189 230T156 210T135 182T127 150Q127 123 148 101T220 79Q249 79 277 87T325 106L339 194ZM428 53Q413 39 389 27T336 6T273 -9T205 -15Q151 -15 113 -2T51 34T15 85T4 143Q4 179 18 212T59 272T127 313T219 329Q237 329 256 327T294 319T327 305T353 284L362 343Q365 361 363 375T350 400T321 415T271 421Q224 421 189 411T132 392L110 478Q145 494 192 506T300 519Q360 519 396 505T452 464T474 401T470 318L428 53ZM338 583L176 746L276 813L412 627L338 583Z"  />
<glyph unicode="&#xE1;" horiz-adv-x="526" d="M339 194Q325 210 297 223T233 237Q208 237 189 230T156 210T135 181T127 149Q127 123 148 101T220 79Q249 79 277 87T325 106L339 194ZM428 53Q413 39 389 27T336 6T273 -9T205 -15Q151 -15 113 -2T51 34T15 85T4 144Q4 179 18 212T59 271T126 313T217 329Q256 329 294 319T353 284L362 343Q365 361 363 375T350 400T321 415T272 421Q224 421 189 411T132 392L110 478Q145 494 192 506T300 519Q360 519 396 505T452 464T474 401T470 318L428 53ZM295 583L225 633L420 819L508 746L295 583Z"  />
<glyph unicode="&#xE2;" horiz-adv-x="526" d="M339 194Q325 210 297 223T233 237Q208 237 189 230T156 210T135 181T127 149Q127 123 148 101T220 79Q249 79 277 87T325 106L339 194ZM434 569L328 652L198 569L146 640L349 775L507 640L434 569ZM428 53Q413 39 389 27T336 6T273 -9T205 -15Q151 -15 113 -2T51 34T15 85T4 144Q4 179 18 212T59 271T126 313T217 329Q256 329 294 319T353 284L362 343Q365 361 363 375T350 400T321 415T272 421Q224 421 189 411T132 392L110 478Q145 494 192 506T300 519Q360 519 396 505T452 464T474 401T470 318L428 53Z"  />
<glyph unicode="&#xE3;" horiz-adv-x="526" d="M339 194Q325 210 297 223T233 237Q208 237 189 230T156 210T135 181T127 149Q127 123 148 101T220 79Q249 79 277 87T325 106L339 194ZM428 53Q413 39 389 27T336 6T273 -9T205 -15Q151 -15 113 -2T51 34T15 85T4 144Q4 179 18 212T59 271T126 313T217 329Q256 329 294 319T353 284L362 343Q365 361 363 375T350 400T321 415T272 421Q224 421 189 411T132 392L110 478Q145 494 192 506T300 519Q360 519 396 505T452 464T474 401T470 318L428 53ZM525 661Q510 649 493 636T456 610T416 591T375 583Q354 583 338 590T309 607T282 624T253 632Q230 632 208 616T161 582L114 655Q126 664 145 677T185 703T230 724T272 733Q291 733 306 725T333 708T358 690T386 682Q399 682 414 688T443 704T468 723T487 740L525 661Z"  />
<glyph unicode="&#xE4;" horiz-adv-x="526" d="M339 194Q325 210 297 223T233 237Q208 237 189 230T156 210T135 181T127 149Q127 123 148 101T220 79Q249 79 277 87T325 106L339 194ZM428 53Q413 39 389 27T336 6T273 -9T205 -15Q151 -15 113 -2T51 34T15 85T4 144Q4 179 18 212T59 271T126 313T217 329Q256 329 294 319T353 284L362 343Q365 361 363 375T350 400T321 415T272 421Q224 421 189 411T132 392L110 478Q145 494 192 506T300 519Q360 519 396 505T452 464T474 401T470 318L428 53ZM260 661Q260 646 254 633T236 611T210 595T181 589Q155 589 139 605T122 646Q122 661 128 674T146 697T171 712T200 718Q226 718 243 702T260 661ZM490 662Q490 633 468 611T412 589Q383 589 368 605T352 645Q352 675 375 696T431 718Q459 718 474 702T490 662Z"  />
<glyph unicode="&#xE5;" horiz-adv-x="526" d="M339 194Q325 210 297 223T233 237Q208 237 189 230T156 210T135 181T127 149Q127 123 148 101T220 79Q249 79 277 87T325 106L339 194ZM428 53Q413 39 389 27T336 6T273 -9T205 -15Q151 -15 113 -2T51 34T15 85T4 144Q4 179 18 212T59 271T126 313T217 329Q256 329 294 319T353 284L362 343Q365 361 363 375T350 400T321 415T272 421Q224 421 189 411T132 392L110 478Q145 494 192 506T300 519Q360 519 396 505T452 464T474 401T470 318L428 53ZM442 699Q442 672 431 647T400 604T355 574T302 563Q255 563 227 593T199 668Q199 696 211 721T242 765T287 794T338 805Q386 805 414 774T442 699ZM313 632Q334 632 351 650T369 691Q369 710 358 723T328 737Q307 737 291 719T274 676Q274 658 284 645T313 632Z"  />
<glyph unicode="&#xE6;" horiz-adv-x="875" d="M714 303Q717 328 713 350T697 389T665 416T618 426Q594 426 571 418T528 394T493 356T470 303H714ZM347 119Q344 132 342 145T340 173Q340 178 340 183T341 193Q336 200 325 208T300 222T269 233T234 237Q209 237 190 230T156 210T135 182T127 150Q127 123 149 101T219 79Q247 79 282 88T347 119ZM780 52Q769 43 749 32T701 10T639 -8T566 -15Q515 -15 475 -2T405 37Q370 15 316 0T205 -15Q151 -15 113 -2T51 34T15 85T4 143Q4 179 18 212T59 272T127 313T219 329Q237 329 256 327T294 319T327 305T353 284L362 343Q365 361 363 375T350 400T321 415T271 421Q224 421 189 411T132 392L110 478Q145 494 192 506T300 519Q331 519 355 516T398 504T431 482T456 445Q486 483 534 501T634 519Q693 519 734 498T800 440T832 357T831 257L823 208H455Q454 203 454 198T453 187Q453 140 486 112T599 83Q628 83 652 88T696 102T731 119T758 136L780 52Z"  />
<glyph unicode="&#xE7;" horiz-adv-x="503" d="M438 58Q429 48 410 36T366 12T311 -7T248 -15Q204 -15 164 1T93 47T44 120T26 220Q26 288 52 343T122 437T219 497T329 519Q363 519 390 512T438 495T470 476T488 460L429 371Q424 376 415 384T393 401T362 414T322 420Q290 420 259 407T204 368T164 306T149 225Q149 162 181 122T274 82Q299 82 321 88T362 104T394 123T414 140L438 58ZM81 -264L181 -59H321L180 -264H81Z"  />
<glyph unicode="&#xE8;" horiz-adv-x="567" d="M407 303Q410 328 406 350T389 389T357 416T310 426Q286 426 263 418T219 394T185 356T163 303H407ZM473 52Q462 43 442 32T393 10T331 -8T258 -15Q150 -15 89 44T27 213Q27 279 50 335T112 432T206 496T324 519Q385 519 426 498T492 441T523 358T522 257L514 208H147Q145 185 150 163T172 123T217 94T289 83Q348 83 385 100T449 136L473 52ZM365 583L203 746L304 814L441 628L365 583Z"  />
<glyph unicode="&#xE9;" horiz-adv-x="567" d="M407 303Q410 328 406 350T389 389T357 416T310 426Q286 426 263 418T219 394T185 356T163 303H407ZM473 52Q462 43 442 32T393 10T331 -8T258 -15Q150 -15 89 44T27 213Q27 279 50 335T112 432T206 496T324 519Q385 519 426 498T492 441T523 358T522 257L514 208H147Q145 185 150 163T172 123T217 94T289 83Q348 83 385 100T449 136L473 52ZM323 583L253 633L447 819L535 746L323 583Z"  />
<glyph unicode="&#xEA;" horiz-adv-x="567" d="M407 303Q410 328 406 350T389 389T357 416T310 426Q286 426 263 418T219 394T185 356T163 303H407ZM473 52Q462 43 442 32T393 10T331 -8T258 -15Q150 -15 89 44T27 213Q27 279 50 335T112 432T206 496T324 519Q385 519 426 498T492 441T523 358T522 257L514 208H147Q145 185 150 163T172 123T217 94T289 83Q348 83 385 100T449 136L473 52ZM453 572L349 665L217 572L165 643L368 779L527 643L453 572Z"  />
<glyph unicode="&#xEB;" horiz-adv-x="567" d="M407 303Q410 328 406 350T389 389T357 416T310 426Q286 426 263 418T219 394T185 356T163 303H407ZM473 52Q462 43 442 32T393 10T331 -8T258 -15Q150 -15 89 44T27 213Q27 279 50 335T112 432T206 496T324 519Q385 519 426 498T492 441T523 358T522 257L514 208H147Q145 185 150 163T172 123T217 94T289 83Q348 83 385 100T449 136L473 52ZM526 655Q526 626 504 604T446 582Q420 582 404 598T388 638Q388 668 411 689T466 711Q495 711 510 695T526 655ZM296 654Q296 625 272 604T215 582Q190 582 174 598T157 638Q157 653 163 666T181 690T206 705T235 711Q263 711 279 695T296 654Z"  />
<glyph unicode="&#xEC;" horiz-adv-x="257" d="M185 583L23 746L125 814L260 628L185 583ZM21 0L101 505H218L138 0H21Z"  />
<glyph unicode="&#xED;" horiz-adv-x="257" d="M161 583L91 633L287 819L374 746L161 583ZM21 0L101 505H218L138 0H21Z"  />
<glyph unicode="&#xEE;" horiz-adv-x="258" d="M291 572L186 665L55 572L2 643L206 779L364 643L291 572ZM21 0L101 505H219L139 0H21Z"  />
<glyph unicode="&#xEF;" horiz-adv-x="258" d="M372 655Q372 626 350 604T292 582Q266 582 250 598T233 638Q233 668 256 689T312 711Q341 711 356 695T372 655ZM134 654Q134 639 128 626T110 604T84 588T53 582Q28 582 12 598T-5 638Q-5 653 1 666T19 690T44 705T73 711Q100 711 117 695T134 654ZM21 0L101 505H219L139 0H21Z"  />
<glyph unicode="&#xF0;" horiz-adv-x="598" d="M262 83Q294 83 323 96T374 134T409 191T422 264Q422 291 415 316T394 359T358 389T306 400Q269 400 240 384T191 341T160 282T149 216Q149 191 155 167T176 125T211 95T262 83ZM461 652Q480 619 496 580T524 499T542 413T549 327Q549 251 528 188T467 80T374 10T253 -15Q196 -15 153 3T82 53T40 126T26 213Q26 280 53 333T121 422T213 478T309 498Q378 498 423 452Q418 480 403 517T362 598L279 549L240 617L319 663Q285 711 249 752T178 820H339Q360 798 379 772T418 717L539 785L569 714L461 652Z"  />
<glyph unicode="&#xF1;" horiz-adv-x="562" d="M534 661Q519 649 502 636T465 610T425 591T384 583Q363 583 347 590T318 607T291 624T262 632Q239 632 217 616T170 582L123 655Q135 664 154 677T195 703T239 724T281 733Q300 733 315 725T342 708T367 690T395 682Q408 682 423 688T452 704T477 723T496 740L534 661ZM332 0L376 275Q381 305 382 331T377 375T356 404T315 415Q294 415 275 409T240 394T212 375T192 357L135 0H17L97 505H215L207 453Q220 463 237 475T275 496T321 512T376 519Q449 519 483 476T503 337L450 0H332Z"  />
<glyph unicode="&#xF2;" horiz-adv-x="598" d="M264 83Q299 83 329 97T381 138T416 201T429 281Q429 344 402 382T318 420Q284 420 253 405T199 364T162 301T148 221Q148 159 177 121T264 83ZM254 -15Q200 -15 158 3T86 52T42 125T26 218Q26 284 52 339T120 435T217 497T330 519Q383 519 424 501T495 451T539 377T554 286Q554 225 531 171T468 75T372 9T254 -15ZM359 583L197 746L299 814L435 628L359 583Z"  />
<glyph unicode="&#xF3;" horiz-adv-x="598" d="M264 83Q299 83 329 97T381 138T416 201T429 281Q429 344 402 382T318 420Q284 420 253 405T199 364T162 301T148 221Q148 159 177 121T264 83ZM254 -15Q200 -15 158 3T86 52T42 125T26 218Q26 284 52 339T120 435T217 497T330 519Q383 519 424 501T495 451T539 377T554 286Q554 225 531 171T468 75T372 9T254 -15ZM313 583L243 633L439 819L526 746L313 583Z"  />
<glyph unicode="&#xF4;" horiz-adv-x="598" d="M264 83Q299 83 329 97T381 138T416 201T429 281Q429 344 402 382T318 420Q284 420 253 405T199 364T162 301T148 221Q148 159 177 121T264 83ZM254 -15Q200 -15 158 3T86 52T42 125T26 218Q26 284 52 339T120 435T217 497T330 519Q383 519 424 501T495 451T539 377T554 286Q554 225 531 171T468 75T372 9T254 -15ZM458 562L354 655L222 562L170 633L373 769L531 633L458 562Z"  />
<glyph unicode="&#xF5;" horiz-adv-x="598" d="M264 83Q299 83 329 97T381 138T416 201T429 281Q429 344 402 382T318 420Q284 420 253 405T199 364T162 301T148 221Q148 159 177 121T264 83ZM254 -15Q200 -15 158 3T86 52T42 125T26 218Q26 284 52 339T120 435T217 497T330 519Q383 519 424 501T495 451T539 377T554 286Q554 225 531 171T468 75T372 9T254 -15ZM560 661Q547 650 530 637T493 611T452 591T411 583Q389 583 373 590T344 607T318 624T289 632Q265 632 243 616T196 582L150 655Q161 664 180 677T221 703T265 724T307 733Q326 733 341 725T369 708T394 690T422 682Q435 682 450 688T478 704T504 723T523 740L560 661Z"  />
<glyph unicode="&#xF6;" horiz-adv-x="598" d="M264 83Q299 83 329 97T381 138T416 201T429 281Q429 344 402 382T318 420Q284 420 253 405T199 364T162 301T148 221Q148 159 177 121T264 83ZM254 -15Q200 -15 158 3T86 52T42 125T26 218Q26 284 52 339T120 435T217 497T330 519Q383 519 424 501T495 451T539 377T554 286Q554 225 531 171T468 75T372 9T254 -15ZM538 662Q538 633 516 611T458 589Q432 589 416 605T400 645Q400 675 423 696T479 718Q507 718 522 702T538 662ZM308 661Q308 632 284 611T227 589Q202 589 186 605T169 645Q169 660 176 673T194 697T219 712T248 718Q275 718 291 702T308 661Z"  />
<glyph unicode="&#xF7;" horiz-adv-x="674" d="M63 314L79 413H628L612 314H63ZM445 566Q445 537 423 516T367 494Q342 494 327 510T311 549Q311 563 317 576T333 599T358 615T387 621Q416 621 430 605T445 566ZM382 166Q382 137 360 115T303 92Q278 92 263 109T247 149Q247 164 253 177T270 199T294 215T323 221Q351 221 366 205T382 166Z"  />
<glyph unicode="&#xF8;" horiz-adv-x="598" d="M337 418Q332 419 328 419T318 420Q284 420 253 405T199 364T162 301T148 221Q148 173 165 139L337 418ZM239 85Q245 83 251 83T264 83Q299 83 329 97T381 138T416 201T429 281Q429 329 412 363L239 85ZM10 -113L102 36Q64 68 45 114T26 218Q26 284 52 339T120 435T217 497T330 519Q362 519 394 511L473 639L560 601L477 468Q515 436 534 389T554 286Q554 225 531 171T468 75T372 9T254 -15Q234 -15 217 -13T183 -5L95 -147L10 -113Z"  />
<glyph unicode="&#xF9;" horiz-adv-x="562" d="M410 505H528L457 55Q408 17 353 1T230 -15Q182 -15 144 -3T81 33T46 95T43 181L94 505H212L165 210Q158 169 163 144T182 106T216 88T258 83Q290 83 313 92T348 110L410 505ZM346 583L184 746L286 814L422 628L346 583Z"  />
<glyph unicode="&#xFA;" horiz-adv-x="562" d="M410 505H528L457 55Q408 17 353 1T230 -15Q182 -15 144 -3T81 33T46 95T43 181L94 505H212L165 210Q158 169 163 144T182 106T216 88T258 83Q290 83 313 92T348 110L410 505ZM342 583L272 633L468 819L555 746L342 583Z"  />
<glyph unicode="&#xFB;" horiz-adv-x="562" d="M410 505H528L457 55Q408 17 353 1T230 -15Q182 -15 144 -3T81 33T46 95T43 181L94 505H212L165 210Q158 169 163 144T182 106T216 88T258 83Q290 83 313 92T348 110L410 505ZM443 572L338 665L207 572L154 643L357 779L516 643L443 572Z"  />
<glyph unicode="&#xFC;" horiz-adv-x="562" d="M410 505H528L457 55Q408 17 353 1T230 -15Q182 -15 144 -3T81 33T46 95T43 181L94 505H212L165 210Q158 169 163 144T182 106T216 88T258 83Q290 83 313 92T348 110L410 505ZM520 655Q520 626 498 604T440 582Q414 582 398 598T382 638Q382 668 405 689T461 711Q489 711 504 695T520 655ZM290 654Q290 639 284 626T266 604T240 588T209 582Q184 582 168 598T152 638Q152 669 176 690T230 711Q256 711 273 695T290 654Z"  />
<glyph unicode="&#xFD;" horiz-adv-x="541" d="M-60 -256L158 78L29 505H160L245 199L439 505H575L74 -256H-60ZM319 583L249 633L444 819L532 746L319 583Z"  />
<glyph unicode="&#xFE;" horiz-adv-x="583" d="M158 140Q170 116 200 100T262 84Q290 84 317 98T366 139T400 200T413 278Q413 341 382 380T290 420Q267 420 241 414T198 396L158 140ZM-23 -255L147 820H265L216 506Q236 513 265 516T315 519Q360 519 401 505T472 463T521 393T539 294Q539 237 520 182T465 83T380 12T268 -15Q223 -15 193 -1T141 34L95 -255H-23Z"  />
<glyph unicode="&#xFF;" horiz-adv-x="541" d="M-60 -256L158 78L29 505H160L245 199L439 505H575L74 -256H-60ZM508 656Q508 626 486 604T428 582Q402 582 386 598T370 638Q370 668 393 689T448 711Q477 711 492 695T508 656ZM279 654Q279 639 272 626T254 604T229 588T198 582Q172 582 156 598T140 638Q140 669 164 690T218 711Q245 711 262 695T279 654Z"  />
<glyph unicode="&#x152;" horiz-adv-x="1187" d="M400 98Q461 98 516 123T615 191T683 293T709 418Q709 470 693 514T649 590T581 640T495 658Q436 658 382 634T284 567T216 467T190 344Q190 295 205 251T249 172T315 118T400 98ZM646 1L661 91Q628 55 594 34T524 2T455 -13T388 -17Q314 -17 253 10T147 83T77 193T52 327Q52 427 90 509T193 650T340 741T514 774Q581 774 644 745T749 649L766 756H1187L1168 640H875L847 460H1084L1066 344H829L793 117H1117L1098 1H646Z"  />
<glyph unicode="&#x153;" horiz-adv-x="962" d="M802 303Q805 328 801 350T784 389T752 416T705 426Q681 426 658 418T614 394T580 356T558 303H802ZM264 83Q299 83 329 97T381 138T416 201T429 281Q429 344 402 382T318 420Q284 420 253 405T199 364T162 301T148 221Q148 159 177 121T264 83ZM868 52Q857 43 837 32T788 10T726 -8T653 -15Q588 -15 540 6T463 70Q422 30 369 8T254 -15Q200 -15 158 3T86 52T42 125T26 218Q26 284 52 339T120 435T217 497T330 519Q390 519 435 496T509 433Q549 474 602 496T719 519Q780 519 821 498T887 441T918 358T917 257L909 208H542Q540 185 545 163T567 123T612 94T684 83Q743 83 780 100T844 136L868 52Z"  />
<glyph unicode="&#x160;" horiz-adv-x="579" d="M76 182Q87 168 103 154T141 127T189 107T246 99Q310 99 345 131T380 213Q380 251 361 276T311 323T247 364T183 410T134 473T114 563Q114 619 137 659T196 724T279 762T371 774Q419 774 453 764T512 739T549 710T568 689L492 594Q469 623 438 641T368 660Q347 660 326 654T288 637T261 609T250 569Q250 538 270 517T320 477T384 439T449 392T499 325T519 226Q519 166 497 121T436 45T346 -1T239 -17Q189 -17 149 -6T78 21T26 55T-7 90L76 182ZM380 807L188 916L246 988L395 920L560 980L607 912L380 807Z"  />
<glyph unicode="&#x161;" horiz-adv-x="430" d="M354 382Q352 385 344 393T324 410T296 424T262 431Q233 431 212 415T191 374Q191 355 203 342T235 315T277 288T318 255T350 210T363 147Q363 72 310 29T164 -15Q95 -15 51 6T-18 51L38 135Q57 113 92 94T164 74Q199 74 220 93T241 139Q241 160 228 176T196 206T154 234T112 268T79 311T66 369Q66 400 78 427T114 476T172 509T252 521Q285 521 311 515T358 500T391 481T411 464L354 382ZM261 572H262H261ZM261 572L101 708L176 779L279 686L411 779L462 708L261 572Z"  />
<glyph unicode="&#x178;" horiz-adv-x="634" d="M200 0L250 313L54 757H196L325 446Q327 441 328 436T327 422Q329 431 331 435T339 446L577 757H719L378 313L328 0H200ZM217 891Q217 876 210 863T192 841T167 825T136 819Q110 819 94 835T78 875Q78 906 102 927T156 948Q183 948 200 932T217 891ZM729 892Q729 863 707 841T649 819Q623 819 607 835T590 875Q590 905 613 926T669 948Q698 948 713 932T729 892Z"  />
<glyph unicode="&#x17D;" horiz-adv-x="665" d="M-46 1L452 640H140L159 756H701L204 117H598L580 1H-46ZM432 816L239 919L297 991L448 929L611 989L659 921L432 816Z"  />
<glyph unicode="&#x17E;" horiz-adv-x="503" d="M-39 1L288 408H76L92 504H504L184 97H434L419 1H-39ZM285 578L125 714L200 785L302 692L436 785L487 714L285 578Z"  />
<glyph unicode="&#x192;" horiz-adv-x="349" d="M-74 -150Q-64 -152 -51 -156T-25 -160Q6 -160 22 -123T50 -23L128 409H42L58 504H149L162 583Q172 641 187 690T225 775T283 831T368 851Q374 851 386 849T410 845T432 840T444 836L421 743Q413 745 398 746T372 748Q346 748 329 729T300 677T280 600T262 504H362L346 409H245L157 -70Q149 -113 132 -148T92 -209T40 -249T-20 -263Q-46 -263 -65 -255T-89 -244L-74 -150Z"  />
<glyph unicode="&#x2C6;" horiz-adv-x="457" d="M438 572L333 665L202 572L149 643L353 779L511 643L438 572Z"  />
<glyph unicode="&#x2DC;" horiz-adv-x="522" d="M568 661Q555 650 538 637T501 611T460 591T419 583Q397 583 381 590T352 607T325 624T296 632Q273 632 251 616T203 582L157 655Q169 664 188 677T228 703T273 724T315 733Q334 733 348 725T376 708T401 690T429 682Q442 682 457 688T486 704T511 723T530 740L568 661Z"  />
<glyph unicode="&#x2013;" horiz-adv-x="658" d="M49 196L80 294H588L557 196H49Z"  />
<glyph unicode="&#x2014;" horiz-adv-x="906" d="M49 196L81 294H836L805 196H49Z"  />
<glyph unicode="&#x2018;" horiz-adv-x="281" d="M75 525L235 757H316L201 525H75Z"  />
<glyph unicode="&#x2019;" horiz-adv-x="275" d="M80 525L194 757H320L161 525H80Z"  />
<glyph unicode="&#x201A;" horiz-adv-x="269" d="M-54 -113L60 119H186L27 -113H-54Z"  />
<glyph unicode="&#x201C;" horiz-adv-x="458" d="M74 525L236 757H317L185 525H74ZM275 525L410 757H491L385 525H275Z"  />
<glyph unicode="&#x201D;" horiz-adv-x="452" d="M255 525L387 757H498L336 525H255ZM81 525L187 757H297L162 525H81Z"  />
<glyph unicode="&#x201E;" horiz-adv-x="456" d="M126 -112L258 120H369L207 -112H126ZM-48 -112L58 120H168L33 -112H-48Z"  />
<glyph unicode="&#x2020;" horiz-adv-x="495" d="M148 56L223 532H83L98 629H238L268 815H385L355 629H498L483 532H340L265 56H148Z"  />
<glyph unicode="&#x2021;" horiz-adv-x="521" d="M160 57L188 233H48L63 330H203L239 555H99L114 651H254L281 820H398L371 651H514L499 555H356L320 330H463L448 233H305L277 57H160Z"  />
<glyph unicode="&#x2022;" horiz-adv-x="402" d="M226 150Q198 150 175 160T135 188T109 230T99 283Q99 318 113 349T152 405T208 443T274 457Q301 457 324 447T363 418T389 376T399 324Q399 288 385 257T346 202T291 164T226 150Z"  />
<glyph unicode="&#x2026;" horiz-adv-x="746" d="M654 70Q654 55 647 40T629 13T602 -6T568 -14Q542 -14 525 6T507 52Q507 68 514 83T533 109T560 127T591 134Q620 134 637 116T654 70ZM408 70Q408 55 401 40T383 13T356 -6T323 -14Q296 -14 279 6T261 52Q261 68 268 83T287 109T314 127T346 134Q375 134 391 116T408 70ZM162 70Q162 55 155 40T137 13T110 -6T77 -14Q50 -14 33 6T15 52Q15 68 22 83T41 109T68 127T100 134Q129 134 145 116T162 70Z"  />
<glyph unicode="&#x2030;" horiz-adv-x="1114" d="M883 74Q913 74 935 98T957 156Q957 182 943 199T905 216Q890 216 877 210T854 192T838 166T832 134Q832 109 846 92T883 74ZM869 -11Q841 -11 818 -1T779 28T753 70T743 123Q743 160 757 192T796 249T852 288T918 303Q946 303 970 293T1010 264T1036 220T1046 167Q1046 130 1032 98T993 41T936 3T869 -11ZM521 74Q551 74 573 98T595 156Q595 182 581 199T543 216Q513 216 491 192T469 134Q469 109 483 92T521 74ZM507 -11Q479 -11 456 -1T417 28T391 70T381 123Q381 160 395 192T434 249T490 288T556 303Q584 303 608 293T648 264T674 220T684 167Q684 130 670 98T630 41T573 3T507 -11ZM232 535Q247 535 260 541T284 558T301 583T307 615Q307 641 293 658T254 676Q239 676 226 670T203 652T186 625T180 594Q180 569 194 552T232 535ZM394 626Q394 590 380 558T340 501T283 463T217 449Q189 449 166 459T127 488T101 530T91 583Q91 619 105 651T144 708T200 747T267 762Q295 762 318 752T358 723T384 679T394 626ZM136 5L548 748L622 716L209 -26L136 5Z"  />
<glyph unicode="&#x2039;" horiz-adv-x="351" d="M137 26L30 238L203 450H328L144 237L264 26H137Z"  />
<glyph unicode="&#x203A;" horiz-adv-x="350" d="M-4 25L183 236L67 449H192L298 238L123 25H-4Z"  />
<glyph unicode="&#x20AC;" horiz-adv-x="700" d="M601 32Q597 29 581 22T539 6T482 -8T417 -14Q374 -14 328 -1T241 42T173 122T138 245H39L74 337H140Q141 355 144 374T152 413H76L111 504H179Q197 558 227 605T300 686T398 741T520 761Q588 761 633 743T710 704L641 618Q636 621 622 627T589 640T547 651T500 656Q476 656 449 650T394 626T343 579T300 504H562L529 413H269Q264 396 260 377T255 337H523L488 245H261Q263 212 274 184T306 134T356 101T424 89Q452 89 477 94T522 107T555 120T571 128L601 32Z"  />
<glyph unicode="&#x2122;" horiz-adv-x="1006" d="M838 370L844 536L702 355L621 535L575 370H464L592 769L731 530L945 768L950 370H838ZM204 370L249 657H125L141 758H499L483 657H359L314 370H204Z"  />

</font>
</defs>
</svg>
