<?xml  version="1.0" encoding="UTF-8"?>
<!DOCTYPE svg PUBLIC "-//W3C//DTD SVG 1.0//EN" "http://www.w3.org/TR/2001/REC-SVG-20010904/DTD/svg10.dtd" >
<svg xmlns="http://www.w3.org/2000/svg" >
<metadata>
<version>1.0</version>
<id><![CDATA[Semplicita W01 Regular]]></id>
<vendor>Monotype Imaging Inc.</vendor>
<credits>
<name>Fonts.com WebFonts</name>
<URL>http://webfonts.fonts.com</URL>
<role>Home of the Web fonts</role>
</credits>
<license>
<URL>http://webfonts.fonts.com/Legal</URL>
</license>
<copyright></copyright>
<trademark></trademark>
<licensee>
<name></name>
</licensee>
</metadata>
<defs >
<font horiz-adv-x="552" id="3d77f38f-61b8-4d9f-91de-4609e67614d7">
<font-face font-family="" panose-1="2 0 0 0 0 0 0 0 0 0" ascent="1020" descent="-268" units-per-em="1000" alphabetic="0">
</font-face>
<missing-glyph horiz-adv-x="0" />

<glyph unicode="&#xA;" />
<glyph unicode="&#xD;" />
<glyph unicode=" " horiz-adv-x="240" />
<glyph unicode="!" horiz-adv-x="255" d="M183 41Q183 20 168 4T129 -12Q107 -12 92 4T76 41Q76 64 91 80T129 96Q153 96 168 80T183 41ZM101 197L82 757H176L148 197H101Z"  />
<glyph unicode="&quot;" horiz-adv-x="369" d="M236 480L224 761H302L290 480H236ZM79 480L67 761H145L133 480H79Z"  />
<glyph unicode="#" horiz-adv-x="656" d="M412 448H263L243 297H393L412 448ZM355 -5L385 239H236L205 -11L147 -5L178 239H55L61 297H185L203 448H82L88 506H210L242 753L301 748L270 506H419L450 753L509 748L478 506H601L597 448H471L452 297H573L570 239H445L413 -11L355 -5Z"  />
<glyph unicode="$" horiz-adv-x="562" d="M264 676Q224 668 196 641T168 566Q168 519 195 492T264 443V676ZM321 60Q367 71 395 103T424 187Q424 215 416 237T394 276T361 308T321 336V60ZM265 -108V-11Q228 -10 194 -1T132 23T83 54T51 86L92 138Q102 126 118 112T155 86T204 65T265 55L264 365Q232 381 202 398T147 437T108 489T93 559Q93 599 107 631T144 686T198 723T264 742V845H321V744Q351 741 376 733T421 713T455 691T477 671L438 620Q417 640 389 657T321 678V416Q354 401 386 383T443 338T485 276T501 188Q501 155 489 123T454 65T398 19T321 -7V-110L265 -108Z"  />
<glyph unicode="%" horiz-adv-x="818" d="M620 38Q661 38 688 66T716 137Q716 178 689 206T620 235Q578 235 551 207T524 137Q524 95 551 67T620 38ZM619 -12Q588 -12 561 -1T514 31T483 79T471 137Q471 168 482 195T514 242T561 274T619 286Q650 286 677 275T724 243T756 195T768 137Q768 106 757 79T725 32T677 0T619 -12ZM198 515Q240 515 267 543T295 613Q295 654 268 682T198 711Q157 711 130 683T102 613Q102 571 129 543T198 515ZM347 613Q347 582 335 555T303 508T256 476T197 464Q166 464 139 475T92 507T61 555T49 613Q49 644 60 671T92 718T139 750T197 762Q228 762 255 751T303 719T335 671T347 613ZM217 -4L538 763L583 745L262 -22L217 -4Z"  />
<glyph unicode="&amp;" horiz-adv-x="731" d="M268 456Q259 454 234 444T181 410T133 349T112 256Q112 208 130 170T177 104T242 63T314 48Q362 48 397 64T456 102T493 145T509 177L268 456ZM659 0L551 130Q546 118 529 94T482 46T410 5T313 -13Q256 -13 207 8T123 65T67 149T46 251Q46 302 62 345T105 420T164 474T229 504Q224 510 215 521T197 548T181 582T174 622Q174 654 184 681T214 728T261 759T323 770Q353 770 375 764T413 748T439 728T457 712L414 669Q408 674 400 681T380 695T355 706T323 711Q307 711 292 707T264 692T245 666T237 626Q237 594 255 567T295 515L557 516L543 461L342 460L749 0H659Z"  />
<glyph unicode="&apos;" horiz-adv-x="212" d="M79 480L67 761H145L133 480H79Z"  />
<glyph unicode="(" horiz-adv-x="244" d="M147 -266Q108 -161 86 -22T63 276Q63 364 70 445T88 597T114 728T146 836L200 814Q189 779 176 724T151 599T131 447T123 278Q123 203 129 135T145 3T169 -122T199 -244L147 -266Z"  />
<glyph unicode=")" horiz-adv-x="244" d="M45 -244Q61 -183 75 -122T99 2T115 134T121 278Q121 365 114 447T95 599T70 724T45 814L98 836Q132 741 156 597T181 276Q181 118 159 -21T98 -266L45 -244Z"  />
<glyph unicode="*" horiz-adv-x="488" d="M294 635L285 665L409 724L426 666L294 635ZM113 509L208 607L231 588L158 470L113 509ZM330 470L257 588L280 607L375 509L330 470ZM230 680L212 822H277L259 680H230ZM62 666L79 724L203 665L194 635L62 666Z"  />
<glyph unicode="+" horiz-adv-x="635" d="M284 104V334H57V394H284V624H351V394H578V334H351V104H284Z"  />
<glyph unicode="&#x2c;" horiz-adv-x="236" d="M19 -107L93 90H168L73 -107H19Z"  />
<glyph unicode="-" horiz-adv-x="394" d="M70 218L78 275H324L316 218H70Z"  />
<glyph unicode="." horiz-adv-x="236" d="M171 41Q171 21 156 5T118 -11Q97 -11 81 5T65 41Q65 64 81 79T118 95Q141 95 156 80T171 41Z"  />
<glyph unicode="/" horiz-adv-x="539" d="M38 -197L447 820L501 796L91 -216L38 -197Z"  />
<glyph unicode="0" horiz-adv-x="656" d="M327 48Q370 48 400 64T452 108T485 169T504 240T513 312T515 374Q515 403 513 439T503 511T484 581T450 641T399 684T326 700Q264 700 228 667T172 584T147 478T141 374Q141 347 143 312T153 241T172 170T206 108T256 65T327 48ZM327 -13Q245 -13 195 24T117 119T80 245T70 374Q70 413 74 457T88 545T116 627T162 696T231 744T326 762Q409 762 460 725T539 631T576 506T586 374Q586 333 582 288T568 200T539 119T492 51T423 4T327 -13Z"  />
<glyph unicode="1" horiz-adv-x="349" d="M171 -4V674L47 620L26 674L240 769V-4H171Z"  />
<glyph unicode="2" horiz-adv-x="592" d="M23 0V19Q48 40 88 73T175 147T269 236T354 335T416 440T440 546Q440 577 430 605T400 655T354 688T295 701Q267 701 242 693T197 672T162 645T137 618L99 665Q110 677 128 693T171 725T229 751T301 762Q349 762 387 746T454 700T497 632T512 546Q512 477 477 409T389 277T275 159T159 61L536 63V0H23Z"  />
<glyph unicode="3" horiz-adv-x="556" d="M65 119Q71 111 85 99T120 76T171 56T237 47Q283 47 317 60T373 96T407 147T418 206Q418 242 404 276T361 338T291 381T198 399V435Q246 437 282 451T342 486T378 533T391 585Q391 633 358 665T259 698Q226 698 192 687T131 657L108 707Q114 714 129 723T167 741T215 756T270 762Q315 762 350 747T409 708T447 652T460 589Q460 541 432 496T339 421V419Q377 404 405 381T452 329T480 268T489 204Q489 163 473 124T425 55T346 6T238 -13Q194 -13 159 -4T99 19T57 45T34 65L65 119Z"  />
<glyph unicode="4" horiz-adv-x="622" d="M404 600L132 209H404V600ZM404 -4V147H25V166L461 775H471V209H572V147H471V-4H404Z"  />
<glyph unicode="5" horiz-adv-x="554" d="M63 103Q99 77 140 63T223 49Q274 49 311 65T373 107T410 167T422 237Q422 271 410 304T374 362T311 402T222 418Q195 418 167 413T104 397L201 749H476L459 689H248L189 469Q204 471 218 472T247 473Q299 473 344 457T423 410T476 337T495 244Q495 193 479 147T430 65T348 8T232 -13Q197 -13 166 -7T108 9T63 29T35 45L63 103Z"  />
<glyph unicode="6" horiz-adv-x="603" d="M484 222Q484 259 472 292T436 350T381 391T307 406Q268 406 235 392T179 353T143 295T130 222Q130 186 144 155T182 100T239 63T309 49Q348 49 380 63T436 101T471 156T484 222ZM401 721Q382 701 355 668T298 594T239 510T188 425Q198 437 214 445T246 458T279 465T307 467Q362 467 408 448T487 395T538 317T557 222Q557 175 538 133T486 58T408 6T309 -14Q255 -14 209 5T130 57T77 132T58 222Q58 270 75 323T119 430T179 536T246 632T307 711T354 766L401 721Z"  />
<glyph unicode="7" horiz-adv-x="524" d="M64 -7L411 687L46 686V749H515L140 -7H64Z"  />
<glyph unicode="8" horiz-adv-x="604" d="M454 550Q454 583 443 611T411 659T363 691T303 703Q271 703 243 691T194 659T161 612T149 553Q149 524 161 498T193 451T242 420T304 408Q336 408 363 419T411 450T442 495T454 550ZM459 199Q459 230 447 257T413 306T364 339T302 351Q269 351 240 339T190 306T157 258T144 199Q144 167 156 140T190 91T240 58T302 46Q335 46 363 58T413 91T446 140T459 199ZM408 378Q431 367 453 352T492 315T520 265T531 202Q531 157 513 118T463 50T390 3T302 -14Q255 -14 213 2T140 48T90 117T72 201Q72 236 84 264T114 314T154 352T198 379Q145 402 112 448T78 551Q78 601 97 640T149 707T221 748T303 763Q348 763 389 749T460 707T509 640T527 551Q527 523 518 497T492 448T455 408T408 378Z"  />
<glyph unicode="9" horiz-adv-x="602" d="M295 342Q334 342 367 356T423 395T459 453T472 526Q472 562 458 593T420 648T363 685T293 699Q254 699 222 685T166 647T131 592T118 526Q118 489 130 456T166 398T221 357T295 342ZM201 27Q220 47 247 80T304 154T362 238T414 323Q403 311 388 303T356 290T323 283T295 281Q240 281 194 300T115 353T64 431T45 526Q45 573 64 615T116 690T194 742T293 762Q347 762 393 743T472 691T525 615T544 526Q544 478 527 425T483 318T423 212T356 116T295 37T248 -18L201 27Z"  />
<glyph unicode=":" horiz-adv-x="246" d="M176 397Q176 376 161 361T122 346Q101 346 86 361T70 397Q70 421 85 436T122 451Q145 451 160 436T176 397ZM176 41Q176 21 161 5T122 -11Q101 -11 86 5T70 41Q70 64 85 80T122 96Q145 96 160 80T176 41Z"  />
<glyph unicode=";" horiz-adv-x="267" d="M29 -107L104 90H179L83 -107H29ZM195 398Q195 377 180 362T141 347Q120 347 105 362T90 398Q90 421 105 436T142 451Q165 451 180 436T195 398Z"  />
<glyph unicode="&lt;" horiz-adv-x="610" d="M51 350V390L501 659L532 603L132 370L532 118L501 64L51 350Z"  />
<glyph unicode="=" horiz-adv-x="687" d="M83 440V501H604V440H83ZM83 215V275H604V215H83Z"  />
<glyph unicode="&gt;" horiz-adv-x="609" d="M108 81L78 137L477 370L78 622L108 676L558 390V350L108 81Z"  />
<glyph unicode="?" horiz-adv-x="470" d="M270 41Q270 21 255 5T217 -11Q196 -11 181 5T165 41Q165 64 180 79T217 95Q240 95 255 80T270 41ZM416 291Q408 278 392 261T351 227T295 200T226 189Q197 189 169 199T117 227T79 273T64 333Q64 374 82 404T127 458T185 502T244 543T289 587T307 642Q307 674 286 694T232 715Q192 715 166 700T123 672L95 715Q104 723 118 733T150 752T192 767T241 773Q275 773 300 762T341 732T366 689T374 641Q374 605 356 577T311 524T252 479T193 435T147 389T129 334Q129 316 137 300T159 271T191 252T231 245Q259 245 283 254T326 276T358 303T380 328L416 291Z"  />
<glyph unicode="@" horiz-adv-x="1058" d="M812 -202Q743 -231 683 -240T574 -249Q469 -249 376 -210T214 -102T104 59T63 255Q63 359 101 451T205 611T362 720T558 760Q672 760 756 726T895 635T978 506T1006 359Q1006 286 981 217T905 93T781 5T610 -28Q541 -28 492 -11T410 33T362 96T347 167Q347 201 360 233T397 291T458 331T539 347Q584 347 619 334T685 296V357Q685 399 651 429T553 459Q504 459 468 448T421 432L397 478Q421 490 461 503T554 516Q612 516 649 503T707 465T737 408T746 336V178H728Q710 214 687 236T639 270T589 286T543 290Q510 290 485 280T443 254T416 216T407 172Q407 146 419 121T456 75T519 42T611 29Q693 29 756 57T861 131T926 237T948 360Q948 424 925 485T853 595T730 673T555 703Q462 703 383 668T245 571T153 425T120 242Q120 158 156 80T253 -59T397 -156T571 -193Q625 -193 679 -186T793 -151L812 -202Z"  />
<glyph unicode="A" horiz-adv-x="692" d="M364 579Q359 588 354 603T346 625Q344 618 339 604T328 579L190 267H502L364 579ZM620 0L531 202H161L71 0H-7L347 780L698 0H620Z"  />
<glyph unicode="B" horiz-adv-x="617" d="M302 65Q396 65 441 105T487 212Q487 243 474 269T436 315T379 345T307 356H172V65H302ZM233 421Q321 421 372 460T424 565Q424 601 412 625T379 665T328 686T263 692H172V421H233ZM100 0V757H251Q303 757 348 749T427 719T480 660T499 567Q499 539 488 513T460 466T421 429T376 405Q405 401 438 387T498 349T544 291T563 213Q563 113 496 57T295 0H100Z"  />
<glyph unicode="C" horiz-adv-x="749" d="M707 81Q655 34 591 10T452 -14Q365 -14 292 17T165 101T81 226T51 378Q51 459 80 530T163 655T289 740T449 771Q534 771 598 742T705 673L665 621Q631 656 577 680T441 705Q374 705 317 681T217 613T151 508T127 373Q127 305 153 246T223 144T327 76T453 51Q526 51 582 73T673 129L707 81Z"  />
<glyph unicode="D" horiz-adv-x="737" d="M263 65Q338 65 401 84T509 142T581 240T607 381Q607 459 581 517T508 614T401 672T269 692H172V65H263ZM100 0V757H274Q358 757 432 733T562 661T650 542T683 378Q683 290 653 220T570 101T441 26T276 0H100Z"  />
<glyph unicode="E" horiz-adv-x="561" d="M100 1V756H493V692H172V438H430V373H172V65H525V1H100Z"  />
<glyph unicode="F" horiz-adv-x="512" d="M100 0V756H486V692H172V436H425V372H172V0H100Z"  />
<glyph unicode="G" horiz-adv-x="836" d="M517 296V361H800Q799 264 769 193T689 76T576 8T445 -14Q364 -14 292 16T167 99T82 223T51 376Q51 462 82 534T167 659T293 741T450 771Q516 771 567 756T655 721T710 684T732 665L691 612Q689 614 672 629T624 661T550 691T452 705Q376 705 316 680T213 610T149 505T126 375Q126 310 150 251T218 148T319 77T446 51Q500 51 548 67T634 114T696 191T725 296H517Z"  />
<glyph unicode="H" horiz-adv-x="760" d="M588 0V353H172V0H100V757H172V418H588V757H660V0H588Z"  />
<glyph unicode="I" horiz-adv-x="272" d="M100 0V757H172V0H100Z"  />
<glyph unicode="J" horiz-adv-x="272" d="M-53 -199Q-7 -181 22 -162T69 -112T93 -37T100 77V757H172V72Q172 -8 163 -61T130 -152T69 -214T-26 -263L-53 -199Z"  />
<glyph unicode="K" horiz-adv-x="646" d="M549 0L172 338V0H100V757H172V418L508 757H605L231 381L662 0H549Z"  />
<glyph unicode="L" horiz-adv-x="515" d="M100 1V757H172V65H495V1H100Z"  />
<glyph unicode="M" horiz-adv-x="968" d="M829 0L780 524Q780 528 780 540T779 556Q777 553 773 543T767 529L484 -28L200 529Q193 541 188 557Q189 550 189 541T187 524L139 0H64L147 778L470 160Q472 155 477 143T485 123Q487 131 492 143T499 160L821 778L904 0H829Z"  />
<glyph unicode="N" horiz-adv-x="851" d="M171 591L172 0H100V776L680 158V757H752L751 -26L171 591Z"  />
<glyph unicode="O" horiz-adv-x="904" d="M777 376Q777 448 752 508T682 612T579 680T454 705Q386 705 326 681T222 613T153 511T127 382Q127 316 152 257T220 151T322 78T447 51Q517 51 577 76T682 144T751 247T777 376ZM853 375Q853 294 821 223T735 100T608 17T454 -14Q370 -14 297 16T169 100T83 225T51 378Q51 460 82 531T168 656T296 740T454 771Q538 771 610 742T737 659T822 534T853 375Z"  />
<glyph unicode="P" horiz-adv-x="560" d="M237 363Q337 363 393 408T449 537Q449 576 435 605T396 653T338 682T268 692H172V363H237ZM100 0V757H250Q301 757 350 746T437 709T500 641T524 538Q524 487 507 443T454 367T365 316T238 298H172V0H100Z"  />
<glyph unicode="Q" horiz-adv-x="904" d="M778 376Q778 448 753 508T683 612T579 680T454 705Q386 705 326 681T222 613T153 511T127 382Q127 316 152 257T220 151T322 78T447 51Q517 51 577 76T682 144T752 247T778 376ZM656 40Q612 14 561 0T454 -14Q370 -14 297 16T169 100T83 225T51 378Q51 460 82 531T168 656T296 740T454 771Q538 771 610 742T737 659T822 534T853 375Q853 284 815 208T711 78L858 -40L806 -95L656 40Z"  />
<glyph unicode="R" horiz-adv-x="598" d="M231 363Q288 363 329 376T396 413T436 468T449 537Q449 615 397 653T258 692H172V363H231ZM514 0L214 300H172V0H100V757H248Q294 757 342 747T431 713T498 646T524 538Q524 439 466 377T304 303L620 0H514Z"  />
<glyph unicode="S" horiz-adv-x="547" d="M73 138Q84 125 101 110T143 82T197 61T267 52Q301 52 329 62T379 90T412 133T424 191Q424 245 398 279T333 337T249 382T165 427T100 489T74 581Q74 628 92 664T140 724T209 760T290 773Q326 773 356 765T410 744T450 719T476 697L436 646Q412 670 377 689T291 708Q264 708 239 701T193 678T161 641T149 588Q149 543 175 515T240 465T325 423T410 374T475 302T501 192Q501 153 485 116T439 50T363 4T261 -14Q222 -14 186 -5T119 20T66 52T31 86L73 138Z"  />
<glyph unicode="T" horiz-adv-x="550" d="M239 0V692H19V756H531V692H311V0H239Z"  />
<glyph unicode="U" horiz-adv-x="750" d="M582 757H654V84Q618 43 548 15T373 -14Q242 -14 168 58T93 274V757H165V304Q165 234 178 186T220 108T292 65T396 51Q420 51 446 54T497 65T544 83T582 109V757Z"  />
<glyph unicode="V" horiz-adv-x="640" d="M-5 757H80L315 173Q318 166 319 156T321 137Q322 145 323 155T327 173L562 757H646L319 -32L-5 757Z"  />
<glyph unicode="W" horiz-adv-x="1010" d="M519 542Q513 556 510 565T505 589Q503 574 500 565T491 542L267 -30L4 757H85L269 187Q272 178 273 167T275 146Q276 155 277 166T282 187L504 781L735 187Q738 178 739 167T741 146Q742 155 743 167T747 187L926 757H1005L747 -31L519 542Z"  />
<glyph unicode="X" horiz-adv-x="625" d="M525 0L311 329L94 0H8L273 391L28 757H114L315 450L516 757H602L352 391L611 0H525Z"  />
<glyph unicode="Y" horiz-adv-x="561" d="M244 0V327L-7 757H74L277 402Q279 398 280 395T282 383Q283 391 284 394T288 402L492 757H571L316 327V0H244Z"  />
<glyph unicode="Z" horiz-adv-x="591" d="M1 1L433 692H77V756H554L122 65H561V1H1Z"  />
<glyph unicode="[" horiz-adv-x="294" d="M84 -216V820H257V763H144V-162H257V-216H84Z"  />
<glyph unicode="\" horiz-adv-x="538" d="M447 -216L38 797L92 820L500 -197L447 -216Z"  />
<glyph unicode="]" horiz-adv-x="295" d="M38 -216V-159H150V766H38V820H211V-216H38Z"  />
<glyph unicode="^" horiz-adv-x="635" d="M473 410L317 737L160 410H84L285 814H348L550 410H473Z"  />
<glyph unicode="_" horiz-adv-x="615" d="M60 -29V28H555V-29H60Z"  />
<glyph unicode="`" horiz-adv-x="329" d="M225 583L71 728L131 773L264 610L225 583Z"  />
<glyph unicode="a" horiz-adv-x="512" d="M382 208Q362 228 326 246T238 265Q215 265 191 259T146 240T114 208T101 161Q101 132 112 110T142 72T187 50T241 42Q289 42 324 53T382 83V208ZM447 55Q413 23 360 5T237 -13Q184 -13 146 1T82 40T45 95T32 161Q32 201 51 231T100 280T164 308T231 318Q250 318 271 315T312 306T350 289T382 264V331Q382 376 349 406T250 437Q226 437 204 434T165 425T135 416T116 408L91 458Q116 470 156 482T251 494Q309 494 347 481T407 444T438 387T447 313V55Z"  />
<glyph unicode="b" horiz-adv-x="582" d="M139 84Q148 77 162 70T195 57T233 48T274 44Q314 44 349 57T410 95T451 158T467 244Q467 283 456 318T424 379T372 421T298 436Q275 436 251 429T206 411T167 387T139 360V84ZM73 820H139V427Q149 437 166 448T205 470T254 487T307 494Q367 494 410 474T481 418T523 338T537 243Q537 179 515 131T456 51T372 3T274 -13Q222 -13 170 2T73 52V820Z"  />
<glyph unicode="c" horiz-adv-x="518" d="M487 68Q458 30 408 9T293 -13Q240 -13 195 6T116 59T63 139T44 239Q44 294 63 341T116 422T196 475T299 494Q333 494 361 486T412 467T448 446T468 429L433 385Q428 389 417 398T389 415T349 429T298 436Q264 436 231 424T172 388T129 326T113 239Q113 194 128 158T168 97T228 59T301 45Q361 45 396 64T455 107L487 68Z"  />
<glyph unicode="d" horiz-adv-x="580" d="M442 367Q423 397 382 416T293 436Q252 436 219 422T163 382T127 319T114 233Q114 186 129 151T171 92T233 56T307 44Q337 44 373 53T442 85V367ZM442 820H508V52Q463 19 412 3T307 -13Q257 -13 210 2T126 47T67 124T45 233Q45 292 63 340T114 423T192 475T292 494Q334 494 374 481T442 442V820Z"  />
<glyph unicode="e" horiz-adv-x="548" d="M438 289Q435 319 424 346T394 393T348 425T286 437Q254 437 226 428T174 400T135 353T114 289H438ZM492 67Q468 34 416 11T292 -13Q238 -13 193 5T114 56T63 135T44 238Q44 294 61 341T111 422T188 475T289 494Q345 494 386 474T453 420T493 343T506 254V236H111Q111 191 125 156T164 96T226 58T306 44Q337 44 362 50T406 66T439 87T461 107L492 67Z"  />
<glyph unicode="f" horiz-adv-x="312" d="M106 0V423H25V480H106V614Q106 664 114 700T144 766Q168 798 200 808T263 818Q299 818 324 808T356 792L328 736Q322 740 303 748T263 757Q212 757 192 721T172 629V480H292V423H172V0H106Z"  />
<glyph unicode="g" horiz-adv-x="578" d="M440 400Q434 404 422 410T393 422T355 432T307 436Q270 436 235 424T173 388T130 326T114 239Q114 207 124 173T155 110T210 64T291 46Q312 46 334 53T376 72T412 100T440 134V400ZM440 65Q411 30 366 9T276 -13Q233 -13 192 4T117 53T64 132T44 239Q44 302 66 349T124 429T208 477T307 494Q344 494 375 488T430 473T474 454T505 433V-27Q505 -95 485 -140T434 -213T362 -251T281 -263Q226 -263 177 -249T86 -207L116 -156Q149 -179 193 -192T283 -205Q309 -205 336 -199T387 -174T425 -121T440 -32V65Z"  />
<glyph unicode="h" horiz-adv-x="549" d="M412 0V284Q412 362 384 397T284 432Q258 432 236 425T195 409T163 388T141 368V0H75V820H141V430Q151 439 166 450T201 471T247 487T303 494Q388 494 433 452T478 315V0H412Z"  />
<glyph unicode="i" horiz-adv-x="224" d="M164 627Q164 606 150 592T113 577Q92 577 77 591T62 627Q62 650 77 664T113 679Q136 679 150 665T164 627ZM79 0V481H145V0H79Z"  />
<glyph unicode="j" horiz-adv-x="224" d="M113 577Q91 577 77 591T62 627Q62 650 76 664T113 679Q135 679 149 665T163 627Q163 606 149 592T113 577ZM-21 -215Q16 -199 36 -185T66 -145T77 -77T79 37V481H145V41Q145 -34 142 -84T126 -169T84 -225T6 -268L-21 -215Z"  />
<glyph unicode="k" horiz-adv-x="468" d="M384 0L141 239V0H75V820H141V283L331 481H414L202 266L471 0H384Z"  />
<glyph unicode="l" horiz-adv-x="228" d="M81 0V820H147V0H81Z"  />
<glyph unicode="m" horiz-adv-x="834" d="M697 0V314Q697 379 669 405T589 432Q566 432 545 425T505 409T472 388T449 367Q452 344 452 323V0H386V315Q386 380 357 406T276 432Q253 432 233 426T194 409T163 389T141 369V0H75V481H141V430Q151 439 166 450T202 470T247 487T301 494Q354 494 384 472T432 420Q445 432 464 445T506 469T555 487T610 494Q680 494 721 452T763 320V0H697Z"  />
<glyph unicode="n" horiz-adv-x="549" d="M412 0V284Q412 362 384 397T284 432Q258 432 236 425T195 409T163 388T141 368V0H75V481H141V430Q151 439 166 450T201 471T247 487T303 494Q388 494 433 452T478 315V0H412Z"  />
<glyph unicode="o" horiz-adv-x="599" d="M298 45Q340 45 374 59T434 98T472 160T486 240Q486 282 471 318T431 380T371 421T299 436Q257 436 223 421T164 380T125 317T111 237Q111 195 126 160T168 99T228 59T298 45ZM556 240Q556 187 536 141T482 61T401 7T300 -13Q246 -13 199 6T118 60T63 140T43 240Q43 294 63 340T117 420T199 474T301 494Q355 494 401 474T482 420T536 339T556 240Z"  />
<glyph unicode="p" horiz-adv-x="581" d="M139 125Q162 92 206 69T300 45Q334 45 364 58T417 96T453 157T467 238Q467 280 454 316T415 379T352 420T268 435Q250 435 231 432T194 422T163 409T139 395V125ZM73 -255V431Q118 463 170 478T275 494Q326 494 373 478T456 430T515 351T537 239Q537 189 521 144T475 63T402 8T302 -13Q278 -13 255 -8T210 7T171 27T139 52V-255H73Z"  />
<glyph unicode="q" horiz-adv-x="584" d="M445 395Q427 409 393 422T322 435Q275 435 237 420T171 378T129 315T114 236Q114 190 128 155T167 95T223 58T290 45Q337 45 379 70T445 131V395ZM445 -255V56Q432 42 414 30T373 8T327 -6T280 -12Q227 -12 184 7T109 61T62 140T45 238Q45 302 68 350T130 430T216 478T316 494Q425 494 511 431V-255H445Z"  />
<glyph unicode="r" horiz-adv-x="335" d="M75 0V481H141V412Q143 420 152 434T174 461T205 484T244 494Q272 494 294 486T325 472L294 409Q286 414 272 421T238 429Q217 429 200 419T171 393T151 360T141 327V0H75Z"  />
<glyph unicode="s" horiz-adv-x="406" d="M60 103Q69 93 81 82T110 62T147 47T194 41Q237 41 266 63T296 134Q296 161 279 179T236 212T180 240T124 270T81 310T64 366Q64 393 74 416T104 457T151 485T213 495Q260 495 298 477T354 439L325 391Q321 396 311 404T287 421T254 435T216 441Q193 441 177 435T151 418T137 396T132 371Q132 347 149 332T192 303T248 277T304 246T347 202T364 135Q364 101 352 74T317 27T263 -3T195 -14Q164 -14 138 -8T91 9T53 32T26 57L60 103Z"  />
<glyph unicode="t" horiz-adv-x="309" d="M111 0V423H22V480H111V652H177V480H294V423H177V0H111Z"  />
<glyph unicode="u" horiz-adv-x="549" d="M410 481H476V54Q439 20 390 4T274 -13Q229 -13 192 -2T128 33T86 91T71 172V481H137V187Q137 113 176 79T277 45Q328 45 360 57T410 83V481Z"  />
<glyph unicode="v" horiz-adv-x="472" d="M227 -17L7 481H80L211 174Q225 141 230 123T238 96H239Q241 104 246 122T265 173L394 481H465L246 -17H227Z"  />
<glyph unicode="w" horiz-adv-x="726" d="M504 -17L363 345L222 -17H203L9 481H81L219 121L361 494H368L509 121L647 481H717L522 -17H504Z"  />
<glyph unicode="x" horiz-adv-x="482" d="M392 0L241 208L89 0H12L203 259L38 481H118L242 308L367 481H443L278 259L471 0H392Z"  />
<glyph unicode="y" horiz-adv-x="496" d="M50 -259L206 47L7 481H81L242 112L418 481H491L120 -259H50Z"  />
<glyph unicode="z" horiz-adv-x="456" d="M12 1L316 423H60V480H428L127 58H418V1H12Z"  />
<glyph unicode="{" horiz-adv-x="316" d="M270 -211Q226 -208 198 -193T153 -153T130 -95T123 -22V118Q123 182 104 227T28 305Q84 336 103 381T123 492V632Q123 672 129 705T152 763T197 803T270 821L282 773Q246 767 227 753T198 718T188 668T186 606V479Q186 422 171 383T115 305Q156 267 171 228T186 131V4Q186 -29 187 -57T198 -107T226 -143T282 -163L270 -211Z"  />
<glyph unicode="|" horiz-adv-x="227" d="M83 -260V820H144V-260H83Z"  />
<glyph unicode="}" horiz-adv-x="316" d="M34 -163Q70 -157 89 -143T118 -108T128 -58T130 4V131Q130 188 145 227T201 305Q160 343 145 382T130 479V606Q130 639 129 667T118 717T90 753T34 773L46 821Q90 818 118 803T163 763T186 705T193 632V492Q193 427 212 382T288 305Q232 273 213 228T193 118V-22Q193 -62 187 -95T164 -153T119 -193T46 -211L34 -163Z"  />
<glyph unicode="~" horiz-adv-x="577" d="M519 505Q512 498 498 488T466 469T425 453T379 446Q359 446 338 454T296 472T252 490T207 498Q192 498 175 493T143 480T114 464T91 450L59 497Q68 505 84 516T121 537T163 554T206 561Q229 561 252 553T296 535T338 517T377 508Q397 508 414 513T446 526T471 541T488 554L519 505Z"  />
<glyph unicode="&#xA0;" horiz-adv-x="240" />
<glyph unicode="&#xA1;" horiz-adv-x="253" d="M125 450Q101 450 86 466T71 505Q71 526 86 542T125 558Q147 558 162 542T178 505Q178 482 163 466T125 450ZM78 -211L106 349H153L172 -211H78Z"  />
<glyph unicode="&#xA2;" horiz-adv-x="563" d="M277 556Q249 550 223 536T177 499T144 443T131 367Q131 327 142 295T174 239T220 199T277 177V556ZM277 -13V119Q230 125 191 146T123 200T78 276T62 369Q62 419 78 461T123 536T191 589T277 616V759H327V618Q360 617 388 608T437 588T473 566T492 548L457 505Q452 509 441 518T412 536T374 552T327 561V173Q383 173 418 193T476 237L508 200Q480 162 433 141T327 118V-13H277Z"  />
<glyph unicode="&#xA3;" horiz-adv-x="602" d="M555 -5Q548 -7 537 -9T514 -14T488 -17T465 -19Q432 -19 406 -14T356 -4T310 6T265 11Q236 11 204 4T143 -13T94 -30T70 -40L49 14Q51 15 64 20T97 33T141 48T189 61V290H114V346H189V529Q189 590 198 632T227 699T276 736T347 747Q381 747 405 737T439 721L408 666Q401 670 384 677T343 685Q316 685 299 675T273 645T260 600T256 542V346H393V290H256V69Q290 69 313 65T358 54T405 44T470 39Q496 39 513 44T548 54L555 -5Z"  />
<glyph unicode="&#xA4;" horiz-adv-x="701" d="M527 371Q527 407 513 439T474 494T417 530T349 544Q315 544 284 531T228 494T188 439T173 371Q173 335 187 304T226 249T283 211T349 197Q384 197 416 211T473 249T512 304T527 371ZM572 108L494 183Q465 162 429 148T349 134Q305 134 269 148T204 183L125 107L81 147L159 224Q136 254 121 290T106 371Q106 418 120 452T158 514L80 594L124 634L204 555Q234 578 269 592T349 607Q393 607 429 593T494 556L573 634L621 594L542 514Q565 487 579 453T593 371Q593 326 578 290T539 225L620 147L572 108Z"  />
<glyph unicode="&#xA5;" horiz-adv-x="681" d="M377 156V0H305V156H99V206H305V285H99V335H300L54 757H135L338 402Q340 398 341 395T343 384Q344 391 345 394T349 402L553 757H632L381 335H573V285H377V206H573V156H377Z"  />
<glyph unicode="&#xA6;" horiz-adv-x="237" d="M88 381V820H149V381H88ZM88 -260V179H149V-260H88Z"  />
<glyph unicode="&#xA7;" horiz-adv-x="558" d="M244 470Q213 470 177 454T115 416L310 109Q325 109 343 114T379 126T412 143T436 162L244 470ZM45 400Q53 421 74 442T121 480T171 509T211 525L123 665Q127 679 159 702T237 746T335 784T433 800L414 727Q390 727 355 721T286 705T226 688T193 675L506 178Q498 156 478 136T433 99T384 70T345 54L453 -117Q449 -129 432 -144T388 -176T329 -207T262 -235T193 -255T131 -263L152 -190Q176 -190 212 -182T285 -163T349 -142T383 -128L45 400Z"  />
<glyph unicode="&#xA8;" horiz-adv-x="355" d="M343 635Q343 616 330 603T294 590Q274 590 262 603T249 635Q249 655 261 668T294 682Q317 682 330 669T343 635ZM117 635Q117 616 103 603T69 590Q50 590 36 603T22 635Q22 655 36 668T69 682Q89 682 103 669T117 635Z"  />
<glyph unicode="&#xA9;" horiz-adv-x="913" d="M457 36Q528 36 589 62T697 135T769 244T795 377Q795 449 769 511T697 619T590 691T457 718Q385 718 324 692T217 619T145 511T119 377Q119 306 145 244T216 136T323 63T457 36ZM457 -17Q374 -17 302 14T177 98T93 224T62 377Q62 459 93 531T177 656T302 740T457 771Q539 771 611 740T736 656T820 531T851 377Q851 296 820 224T736 99T611 14T457 -17ZM647 192Q613 163 571 151T477 138Q419 138 371 156T289 207T235 283T215 375Q215 424 233 469T286 548T367 602T473 622Q534 622 577 603T645 563L611 517Q588 539 553 551T467 563Q426 563 393 549T335 511T298 452T285 376Q285 338 299 305T340 248T401 210T478 196Q528 196 563 207T619 236L647 192Z"  />
<glyph unicode="&#xAA;" horiz-adv-x="432" d="M304 535Q290 547 266 558T207 569Q190 569 174 565T143 553T121 533T112 505Q112 469 139 450T208 431Q240 431 264 438T304 456V535ZM366 432Q337 406 296 395T205 384Q164 384 135 394T86 420T58 459T48 506Q48 534 62 554T98 588T146 608T198 614Q235 614 259 606T304 584V626Q304 652 280 671T209 690Q177 690 150 683T112 671L91 711Q111 720 142 728T216 737Q261 737 290 728T336 701T359 661T366 608V432Z"  />
<glyph unicode="&#xAB;" horiz-adv-x="489" d="M372 25L240 235L368 445H434L302 235L438 25H372ZM181 25L50 235L178 445H244L113 235L248 25H181Z"  />
<glyph unicode="&#xAC;" horiz-adv-x="691" d="M538 109V337H83V394H604V109H538Z"  />
<glyph unicode="&#xAD;" horiz-adv-x="394" d="M70 218L78 275H324L316 218H70Z"  />
<glyph unicode="&#xAE;" horiz-adv-x="711" d="M328 504Q376 504 399 521T422 567Q422 592 401 607T342 622H300V504H328ZM447 344L318 468L300 485V344H253V663H334Q359 663 383 658T426 642T457 613T469 567Q469 529 442 504T365 472L511 344H447ZM356 262Q403 262 445 281T519 332T569 406T588 496Q588 543 570 585T519 659T445 709T356 728Q309 728 267 710T193 660T143 586T124 496Q124 449 142 407T192 332T266 281T356 262ZM356 215Q298 215 247 237T158 297T97 387T75 496Q75 553 97 604T157 692T247 752T356 774Q413 774 464 752T553 693T614 604T636 496Q636 438 614 387T554 298T464 237T356 215Z"  />
<glyph unicode="&#xAF;" horiz-adv-x="525" d="M81 591V649H444V591H81Z"  />
<glyph unicode="&#xB0;" horiz-adv-x="409" d="M205 524Q244 524 270 551T297 619Q297 660 271 687T205 715Q166 715 140 688T113 619Q113 579 139 552T205 524ZM358 619Q358 588 346 561T313 514T264 483T204 471Q172 471 144 482T96 514T63 561T51 619Q51 650 63 677T95 725T144 757T204 769Q236 769 264 758T313 726T346 678T358 619Z"  />
<glyph unicode="&#xB1;" horiz-adv-x="673" d="M76 1V60H597V1H76ZM303 123V353H76V413H303V643H370V413H597V353H370V123H303Z"  />
<glyph unicode="&#xB2;" horiz-adv-x="450" d="M43 347Q60 360 86 379T142 423T201 473T253 528T291 585T306 642Q306 672 283 694T225 716Q191 716 166 701T127 671L96 711Q104 718 116 727T146 746T184 761T231 767Q262 767 288 757T332 730T361 691T371 642Q371 606 352 571T302 504T237 445T172 397L387 399V347H43Z"  />
<glyph unicode="&#xB3;" horiz-adv-x="402" d="M257 576Q305 559 327 527T349 457Q349 434 338 413T306 375T253 348T181 337Q152 337 129 342T88 354T59 369T43 382L71 427Q79 418 108 404T181 390Q235 390 260 413T286 465Q286 504 249 530T145 556V590Q203 590 235 611T267 661Q267 685 247 700T191 715Q169 715 147 708T111 692L90 737Q101 746 132 757T202 768Q232 768 255 760T295 738T321 707T330 671Q330 644 315 619T257 577V576Z"  />
<glyph unicode="&#xB4;" horiz-adv-x="335" d="M109 583L71 610L204 773L264 728L109 583Z"  />
<glyph unicode="&#xB5;" horiz-adv-x="568" d="M436 0V63Q413 20 374 4T286 -12Q254 -12 220 -4T156 27V-255H90V481H156V89Q177 74 207 60T287 45Q354 45 395 80T436 186V481H502V0H436Z"  />
<glyph unicode="&#xB6;" horiz-adv-x="555" d="M373 -165V757H441V-165H373ZM314 259Q250 259 201 279T118 333T67 408T49 496Q49 542 67 588T120 671T203 731T314 754V259Z"  />
<glyph unicode="&#xB7;" horiz-adv-x="239" d="M173 377Q173 357 158 341T119 325Q97 325 82 340T66 377Q66 399 81 414T119 429Q142 429 157 414T173 377Z"  />
<glyph unicode="&#xB8;" horiz-adv-x="585" d="M257 -203L334 -39H409L321 -203H257Z"  />
<glyph unicode="&#xB9;" horiz-adv-x="269" d="M129 345V693L55 663L33 712L192 771V345H129Z"  />
<glyph unicode="&#xBA;" horiz-adv-x="483" d="M369 560Q369 587 359 610T331 651T291 677T242 687Q213 687 190 677T149 650T123 610T113 558Q113 531 123 508T151 469T192 443T240 434Q298 434 333 468T369 560ZM435 560Q435 523 420 491T379 435T318 398T242 384Q201 384 166 397T104 435T63 491T48 560Q48 597 63 629T104 686T165 723T242 737Q283 737 318 723T379 685T420 629T435 560Z"  />
<glyph unicode="&#xBB;" horiz-adv-x="485" d="M241 25L375 235L244 445H309L435 235L305 25H241ZM51 25L186 235L55 445H120L248 235L117 25H51Z"  />
<glyph unicode="&#xBC;" horiz-adv-x="753" d="M568 325L402 129H568V325ZM566 -5V80H334V124L584 414H628V131H694V80H628V-5H566ZM144 345V693L70 663L48 712L207 771V345H144ZM140 16L506 763L550 743L184 -4L140 16Z"  />
<glyph unicode="&#xBD;" horiz-adv-x="787" d="M384 0Q401 13 427 32T483 76T542 126T594 181T632 239T647 295Q647 325 624 347T566 369Q532 369 507 354T468 324L437 364Q445 371 457 380T487 399T525 414T572 420Q603 420 629 410T673 383T702 344T712 295Q712 259 693 224T643 157T578 98T513 50L728 52V0H384ZM144 345V693L70 663L48 712L207 771V345H144ZM140 16L506 763L550 743L184 -4L140 16Z"  />
<glyph unicode="&#xBE;" horiz-adv-x="863" d="M681 325L515 129H681V325ZM253 16L619 763L663 743L297 -4L253 16ZM264 576Q312 559 334 527T356 457Q356 434 345 413T313 375T260 348T188 337Q159 337 136 342T95 354T66 369T50 382L78 427Q86 418 115 404T188 390Q242 390 267 413T293 465Q293 504 256 530T152 556V590Q210 590 242 611T274 661Q274 685 254 700T198 715Q176 715 154 708T118 692L97 737Q108 746 139 757T209 768Q239 768 262 760T302 738T328 707T337 671Q337 644 322 619T264 577V576ZM679 -5V80H447V124L697 414H741V131H807V80H741V-5H679Z"  />
<glyph unicode="&#xBF;" horiz-adv-x="457" d="M248 431Q225 431 210 446T195 485Q195 505 210 521T248 537Q269 537 284 521T300 485Q300 462 285 447T248 431ZM370 -189Q361 -197 347 -207T315 -226T273 -241T224 -247Q190 -247 165 -236T124 -206T99 -163T91 -115Q91 -79 109 -51T154 2T213 47T272 91T318 137T336 192Q336 210 328 226T306 255T274 274T234 281Q206 281 182 272T139 250T107 223T85 198L49 235Q56 248 73 265T114 299T170 326T239 337Q267 337 296 327T348 299T386 253T401 193Q401 152 383 122T338 68T280 24T221 -17T176 -61T158 -116Q158 -148 179 -168T233 -189Q273 -189 299 -174T342 -146L370 -189Z"  />
<glyph unicode="&#xC0;" horiz-adv-x="692" d="M181 883L215 949L464 885L443 838L181 883ZM364 579Q359 588 354 603T346 625Q344 618 339 604T328 579L190 267H502L364 579ZM620 0L531 202H161L71 0H-7L347 780L698 0H620Z"  />
<glyph unicode="&#xC1;" horiz-adv-x="692" d="M194 838L174 885L423 949L456 883L194 838ZM364 579Q359 588 354 603T346 625Q344 618 339 604T328 579L190 267H502L364 579ZM620 0L531 202H161L71 0H-7L347 780L698 0H620Z"  />
<glyph unicode="&#xC2;" horiz-adv-x="692" d="M335 876L178 808L150 845L336 947L522 850L488 815L335 876ZM364 579Q359 588 354 603T346 625Q344 618 339 604T328 579L190 267H502L364 579ZM620 0L531 202H161L71 0H-7L347 780L698 0H620Z"  />
<glyph unicode="&#xC3;" horiz-adv-x="692" d="M526 897Q519 889 506 878T477 856T443 838T406 830Q391 830 376 837T345 854T313 870T280 878Q269 878 257 873T232 860T210 844T193 829L162 870Q170 879 184 890T215 912T250 930T284 938Q302 938 318 931T350 914T380 898T409 890Q422 890 435 896T461 910T481 928T495 943L526 897ZM364 579Q359 588 354 603T346 625Q344 618 339 604T328 579L190 267H502L364 579ZM620 0L531 202H161L71 0H-7L347 780L698 0H620Z"  />
<glyph unicode="&#xC4;" horiz-adv-x="692" d="M253 894Q253 875 239 861T202 847Q182 847 168 861T153 894Q153 914 167 928T202 942Q224 942 238 928T253 894ZM517 894Q517 875 503 861T466 847Q445 847 432 861T418 894Q418 914 431 928T466 942Q489 942 503 928T517 894ZM364 579Q359 588 354 603T346 625Q344 618 339 604T328 579L190 267H502L364 579ZM620 0L531 202H161L71 0H-7L347 780L698 0H620Z"  />
<glyph unicode="&#xC5;" horiz-adv-x="692" d="M348 847Q374 847 393 866T412 912Q412 939 393 958T348 977Q322 977 303 958T284 912Q284 886 303 867T348 847ZM457 911Q457 888 449 869T425 835T390 812T347 803Q324 803 304 811T269 834T246 868T237 911Q237 934 245 954T269 988T304 1011T347 1020Q370 1020 390 1012T425 988T448 953T457 911ZM364 579Q359 588 354 603T346 625Q344 618 339 604T328 579L190 267H502L364 579ZM620 0L531 202H161L71 0H-7L347 780L698 0H620Z"  />
<glyph unicode="&#xC6;" horiz-adv-x="912" d="M451 644L235 281H451V644ZM451 1V218H197L66 0H-14L444 756H844V692H523V438H781V373H523V65H876V1H451Z"  />
<glyph unicode="&#xC7;" horiz-adv-x="749" d="M326 -231L403 -67H478L390 -231H326ZM707 81Q655 34 591 10T452 -14Q365 -14 292 17T165 101T81 226T51 378Q51 459 80 530T163 655T289 740T449 771Q534 771 598 742T705 673L665 621Q631 656 577 680T441 705Q374 705 317 681T217 613T151 508T127 373Q127 305 153 246T223 144T327 76T453 51Q526 51 582 73T673 129L707 81Z"  />
<glyph unicode="&#xC8;" horiz-adv-x="561" d="M100 1V756H493V692H172V438H430V373H172V65H525V1H100ZM156 873L189 941L439 887L419 838L156 873Z"  />
<glyph unicode="&#xC9;" horiz-adv-x="561" d="M100 1V756H493V692H172V438H430V373H172V65H525V1H100ZM174 838L153 885L403 949L436 883L174 838Z"  />
<glyph unicode="&#xCA;" horiz-adv-x="561" d="M299 881L142 808L114 846L300 950L486 852L452 815L299 881ZM100 1V756H493V692H172V438H430V373H172V65H525V1H100Z"  />
<glyph unicode="&#xCB;" horiz-adv-x="561" d="M100 1V756H493V692H172V438H430V373H172V65H525V1H100ZM473 878Q473 859 460 846T425 832Q405 832 392 845T379 878Q379 898 392 912T425 926Q446 926 459 912T473 878ZM216 877Q216 858 202 845T167 831Q148 831 135 844T121 877Q121 898 134 912T167 926Q188 926 202 912T216 877Z"  />
<glyph unicode="&#xCC;" horiz-adv-x="272" d="M100 0V757H172V0H100ZM19 871L52 939L252 884L231 835L19 871Z"  />
<glyph unicode="&#xCD;" horiz-adv-x="272" d="M100 0V757H172V0H100ZM40 835L19 884L219 939L252 871L40 835Z"  />
<glyph unicode="&#xCE;" horiz-adv-x="272" d="M136 875L35 806L7 844L135 952H136L265 850L231 814L136 875ZM100 0V757H172V0H100Z"  />
<glyph unicode="&#xCF;" horiz-adv-x="272" d="M100 0V757H172V0H100ZM260 853Q260 833 247 820T210 806Q190 806 177 819T164 853Q164 873 177 887T210 901Q233 901 246 887T260 853ZM112 853Q112 833 98 820T62 806Q43 806 29 819T15 853Q15 873 29 887T62 901Q83 901 97 887T112 853Z"  />
<glyph unicode="&#xD0;" horiz-adv-x="739" d="M251 65Q330 65 395 84T508 142T582 240T608 381Q608 459 582 517T509 614T402 672T270 692H173V406H377V348H173V65H251ZM101 0V348H24V406H101V757H267Q354 757 430 733T562 661T651 542T684 378Q684 290 654 220T571 101T442 26T277 0H101Z"  />
<glyph unicode="&#xD1;" horiz-adv-x="851" d="M171 591L172 0H100V776L680 158V757H752L751 -26L171 591ZM603 897Q596 889 583 878T554 856T520 838T483 830Q468 830 453 837T422 854T390 870T357 878Q346 878 334 873T309 860T287 844T270 829L238 870Q246 879 260 890T291 912T326 930T361 938Q379 938 395 931T427 914T457 898T486 890Q499 890 512 896T537 910T558 928T572 943L603 897Z"  />
<glyph unicode="&#xD2;" horiz-adv-x="904" d="M777 376Q777 448 752 508T682 612T579 680T454 705Q386 705 326 681T222 613T153 511T127 382Q127 316 152 257T220 151T322 78T447 51Q517 51 577 76T682 144T751 247T777 376ZM853 375Q853 294 821 223T735 100T608 17T454 -14Q370 -14 297 16T169 100T83 225T51 378Q51 460 82 531T168 656T296 740T454 771Q538 771 610 742T737 659T822 534T853 375ZM279 883L312 949L562 885L541 838L279 883Z"  />
<glyph unicode="&#xD3;" horiz-adv-x="904" d="M777 376Q777 448 752 508T682 612T579 680T454 705Q386 705 326 681T222 613T153 511T127 382Q127 316 152 257T220 151T322 78T447 51Q517 51 577 76T682 144T751 247T777 376ZM853 375Q853 294 821 223T735 100T608 17T454 -14Q370 -14 297 16T169 100T83 225T51 378Q51 460 82 531T168 656T296 740T454 771Q538 771 610 742T737 659T822 534T853 375ZM326 838L305 885L555 949L588 883L326 838Z"  />
<glyph unicode="&#xD4;" horiz-adv-x="904" d="M447 876L290 808L262 845L447 947H448L633 850L599 815L447 876ZM777 376Q777 448 752 508T682 612T579 680T454 705Q386 705 326 681T222 613T153 511T127 382Q127 316 152 257T220 151T322 78T447 51Q517 51 577 76T682 144T751 247T777 376ZM853 375Q853 294 821 223T735 100T608 17T454 -14Q370 -14 297 16T169 100T83 225T51 378Q51 460 82 531T168 656T296 740T454 771Q538 771 610 742T737 659T822 534T853 375Z"  />
<glyph unicode="&#xD5;" horiz-adv-x="904" d="M777 376Q777 448 752 508T682 612T579 680T454 705Q386 705 326 681T222 613T153 511T127 382Q127 316 152 257T220 151T322 78T447 51Q517 51 577 76T682 144T751 247T777 376ZM853 375Q853 294 821 223T735 100T608 17T454 -14Q370 -14 297 16T169 100T83 225T51 378Q51 460 82 531T168 656T296 740T454 771Q538 771 610 742T737 659T822 534T853 375ZM633 897Q626 889 613 878T584 856T550 838T513 830Q498 830 483 837T452 854T420 870T387 878Q376 878 364 873T339 860T317 844T300 829L268 870Q276 879 290 890T321 912T356 930T391 938Q409 938 425 931T457 914T487 898T516 890Q529 890 542 896T567 910T588 928T602 943L633 897Z"  />
<glyph unicode="&#xD6;" horiz-adv-x="904" d="M777 376Q777 448 752 508T682 612T579 680T454 705Q386 705 326 681T222 613T153 511T127 382Q127 316 152 257T220 151T322 78T447 51Q517 51 577 76T682 144T751 247T777 376ZM853 375Q853 294 821 223T735 100T608 17T454 -14Q370 -14 297 16T169 100T83 225T51 378Q51 460 82 531T168 656T296 740T454 771Q538 771 610 742T737 659T822 534T853 375ZM702 878Q702 859 689 846T653 832Q633 832 620 845T607 878Q607 898 620 912T653 926Q676 926 689 912T702 878ZM279 878Q279 859 265 846T230 832Q211 832 197 845T183 878Q183 898 197 912T230 926Q251 926 265 912T279 878Z"  />
<glyph unicode="&#xD7;" horiz-adv-x="646" d="M522 122L323 319L124 122L75 162L281 361L78 559L124 601L325 403L522 601L568 559L368 362L570 163L522 122Z"  />
<glyph unicode="&#xD8;" horiz-adv-x="903" d="M365 64Q385 58 406 55T451 51Q515 51 574 74T678 139T750 242T777 376Q777 476 731 550T609 664L365 64ZM551 690Q528 697 504 701T453 705Q385 705 326 681T222 613T153 511T127 382Q127 334 140 290T177 207T234 138T307 87L551 690ZM219 -128L280 24Q229 47 187 83T115 165T68 265T51 378Q51 460 82 531T167 656T295 740T453 771Q485 771 516 766T577 752L631 885L690 861L635 729Q684 706 724 671T792 590T837 490T853 375Q853 294 822 223T736 100T609 17T454 -14Q423 -14 395 -10T339 2L278 -147L219 -128Z"  />
<glyph unicode="&#xD9;" horiz-adv-x="750" d="M582 757H654V84Q618 43 548 15T373 -14Q242 -14 168 58T93 274V757H165V304Q165 234 178 186T220 108T292 65T396 51Q420 51 446 54T497 65T544 83T582 109V757ZM208 883L241 949L491 885L470 838L208 883Z"  />
<glyph unicode="&#xDA;" horiz-adv-x="750" d="M582 757H654V84Q618 43 548 15T373 -14Q242 -14 168 58T93 274V757H165V304Q165 234 178 186T220 108T292 65T396 51Q420 51 446 54T497 65T544 83T582 109V757ZM260 838L239 885L489 949L522 883L260 838Z"  />
<glyph unicode="&#xDB;" horiz-adv-x="750" d="M354 876L196 808L168 845L354 947H355L540 850L506 815L354 876ZM582 757H654V84Q618 43 548 15T373 -14Q242 -14 168 58T93 274V757H165V304Q165 234 178 186T220 108T292 65T396 51Q420 51 446 54T497 65T544 83T582 109V757Z"  />
<glyph unicode="&#xDC;" horiz-adv-x="750" d="M582 757H654V84Q618 43 548 15T373 -14Q242 -14 168 58T93 274V757H165V304Q165 234 178 186T220 108T292 65T396 51Q420 51 446 54T497 65T544 83T582 109V757ZM676 880Q676 861 663 848T627 834Q607 834 594 847T580 880Q580 900 593 914T627 928Q650 928 663 914T676 880ZM188 880Q188 861 174 848T138 834Q119 834 105 847T91 880Q91 900 105 914T138 928Q159 928 173 914T188 880Z"  />
<glyph unicode="&#xDD;" horiz-adv-x="561" d="M263 742L226 770L359 933L419 888L263 742ZM244 0V327L-7 757H74L277 402Q279 398 280 395T282 384Q283 391 284 394T288 402L492 757H571L316 327V0H244Z"  />
<glyph unicode="&#xDE;" horiz-adv-x="558" d="M237 215Q337 215 393 260T449 389Q449 428 435 457T396 505T338 534T268 544H172V215H237ZM100 0V757H172V609H250Q301 609 350 598T437 561T500 493T524 390Q524 339 507 295T454 219T365 168T238 150H172V0H100Z"  />
<glyph unicode="&#xDF;" horiz-adv-x="544" d="M245 -190Q276 -185 311 -168T376 -122T424 -55T444 30Q444 58 436 82T412 125T371 153T313 164Q276 164 225 150L389 423H171V0H105V423H29V480H105V614Q105 657 112 696T143 766Q167 798 199 808T259 818Q299 818 324 808T355 792L327 736Q318 741 301 749T259 757Q235 757 219 748T192 721T176 681T171 629V480H492L320 210Q336 213 352 213Q386 213 415 200T465 161T499 102T511 28Q511 -38 481 -88T408 -171T319 -223T243 -246L245 -190Z"  />
<glyph unicode="&#xE0;" horiz-adv-x="512" d="M382 208Q362 228 326 246T238 265Q215 265 191 259T146 240T114 208T101 161Q101 132 112 110T142 72T187 50T241 42Q289 42 324 53T382 83V208ZM447 55Q413 23 360 5T237 -13Q184 -13 146 1T82 40T45 95T32 161Q32 201 51 231T100 280T164 308T231 318Q250 318 271 315T312 306T350 289T382 264V331Q382 376 349 406T250 437Q226 437 204 434T165 425T135 416T116 408L91 458Q116 470 156 482T251 494Q309 494 347 481T407 444T438 387T447 313V55ZM281 583L127 728L187 773L320 610L281 583Z"  />
<glyph unicode="&#xE1;" horiz-adv-x="512" d="M382 208Q362 228 326 246T238 265Q215 265 191 259T146 240T114 208T101 161Q101 132 112 110T142 72T187 50T241 42Q289 42 324 53T382 83V208ZM447 55Q413 23 360 5T237 -13Q184 -13 146 1T82 40T45 95T32 161Q32 201 51 231T100 280T164 308T231 318Q250 318 271 315T312 306T350 289T382 264V331Q382 376 349 406T250 437Q226 437 204 434T165 425T135 416T116 408L91 458Q116 470 156 482T251 494Q309 494 347 481T407 444T438 387T447 313V55ZM223 583L185 610L318 773L378 728L223 583Z"  />
<glyph unicode="&#xE2;" horiz-adv-x="512" d="M381 574L258 670L136 574L98 610L258 744H259L418 610L381 574ZM382 208Q362 228 326 246T238 265Q215 265 191 259T146 240T114 208T101 161Q101 132 112 110T142 72T187 50T241 42Q289 42 324 53T382 83V208ZM447 55Q413 23 360 5T237 -13Q184 -13 146 1T82 40T45 95T32 161Q32 201 51 231T100 280T164 308T231 318Q250 318 271 315T312 306T350 289T382 264V331Q382 376 349 406T250 437Q226 437 204 434T165 425T135 416T116 408L91 458Q116 470 156 482T251 494Q309 494 347 481T407 444T438 387T447 313V55Z"  />
<glyph unicode="&#xE3;" horiz-adv-x="512" d="M382 208Q362 228 326 246T238 265Q215 265 191 259T146 240T114 208T101 161Q101 132 112 110T142 72T187 50T241 42Q289 42 324 53T382 83V208ZM447 55Q413 23 360 5T237 -13Q184 -13 146 1T82 40T45 95T32 161Q32 201 51 231T100 280T164 308T231 318Q250 318 271 315T312 306T350 289T382 264V331Q382 376 349 406T250 437Q226 437 204 434T165 425T135 416T116 408L91 458Q116 470 156 482T251 494Q309 494 347 481T407 444T438 387T447 313V55ZM421 649Q416 643 406 632T382 611T351 593T315 585Q300 585 286 592T258 607T228 623T197 630Q185 630 174 625T151 613T131 598T116 584L87 620Q94 628 107 639T135 661T168 679T201 686Q217 686 232 679T262 663T291 647T318 640Q332 640 344 645T367 658T384 673T397 686L421 649Z"  />
<glyph unicode="&#xE4;" horiz-adv-x="512" d="M382 208Q362 228 326 246T238 265Q215 265 191 259T146 240T114 208T101 161Q101 132 112 110T142 72T187 50T241 42Q289 42 324 53T382 83V208ZM447 55Q413 23 360 5T237 -13Q184 -13 146 1T82 40T45 95T32 161Q32 201 51 231T100 280T164 308T231 318Q250 318 271 315T312 306T350 289T382 264V331Q382 376 349 406T250 437Q226 437 204 434T165 425T135 416T116 408L91 458Q116 470 156 482T251 494Q309 494 347 481T407 444T438 387T447 313V55ZM185 637Q185 618 171 605T137 592Q118 592 104 605T90 637Q90 657 104 670T137 684Q157 684 171 671T185 637ZM411 637Q411 618 398 605T362 592Q342 592 330 605T317 637Q317 657 329 670T362 684Q385 684 398 671T411 637Z"  />
<glyph unicode="&#xE5;" horiz-adv-x="512" d="M382 208Q362 228 326 246T238 265Q215 265 191 259T146 240T114 208T101 161Q101 132 112 110T142 72T187 50T241 42Q289 42 324 53T382 83V208ZM447 55Q413 23 360 5T237 -13Q184 -13 146 1T82 40T45 95T32 161Q32 201 51 231T100 280T164 308T231 318Q250 318 271 315T312 306T350 289T382 264V331Q382 376 349 406T250 437Q226 437 204 434T165 425T135 416T116 408L91 458Q116 470 156 482T251 494Q309 494 347 481T407 444T438 387T447 313V55ZM376 662Q376 639 368 620T344 586T309 563T266 554Q243 554 223 562T188 585T165 619T156 662Q156 685 164 705T188 739T223 762T266 771Q289 771 309 763T344 739T367 704T376 662ZM267 598Q293 598 312 617T331 663Q331 690 312 709T267 728Q241 728 222 709T203 663Q203 637 222 618T267 598Z"  />
<glyph unicode="&#xE6;" horiz-adv-x="885" d="M775 289Q772 319 761 346T731 393T685 425T623 437Q591 437 563 428T511 400T472 353T451 289H775ZM415 103Q404 123 395 149T382 208Q362 228 326 246T238 265Q215 265 191 259T146 240T114 208T101 161Q101 132 112 110T142 72T187 50T241 42Q289 42 333 56T415 103ZM829 67Q805 34 753 11T629 -13Q574 -13 528 5T449 57Q415 25 361 6T237 -13Q184 -13 146 1T82 40T45 95T32 161Q32 201 51 231T100 280T164 308T231 318Q250 318 271 315T312 306T350 289T382 264V331Q382 376 349 406T250 437Q226 437 204 434T165 425T135 416T116 408L91 458Q116 470 156 482T251 494Q331 494 373 470T432 404Q464 446 513 470T626 494Q682 494 723 474T790 420T830 343T843 254V236H448Q448 191 462 156T501 96T563 58T643 44Q674 44 699 50T743 66T776 87T798 107L829 67Z"  />
<glyph unicode="&#xE7;" horiz-adv-x="518" d="M487 68Q458 30 408 9T293 -13Q240 -13 195 6T116 59T63 139T44 239Q44 294 63 341T116 422T196 475T299 494Q333 494 361 486T412 467T448 446T468 429L433 385Q428 389 417 398T389 415T349 429T298 436Q264 436 231 424T172 388T129 326T113 239Q113 194 128 158T168 97T228 59T301 45Q361 45 396 64T455 107L487 68ZM176 -223L253 -59H328L240 -223H176Z"  />
<glyph unicode="&#xE8;" horiz-adv-x="548" d="M295 583L141 728L201 773L334 610L295 583ZM438 289Q435 319 424 346T394 393T348 425T286 437Q254 437 226 428T174 400T135 353T114 289H438ZM492 67Q468 34 416 11T292 -13Q238 -13 193 5T114 56T63 135T44 238Q44 294 61 341T111 422T188 475T289 494Q345 494 386 474T453 420T493 343T506 254V236H111Q111 191 125 156T164 96T226 58T306 44Q337 44 362 50T406 66T439 87T461 107L492 67Z"  />
<glyph unicode="&#xE9;" horiz-adv-x="548" d="M249 583L211 610L344 773L404 728L249 583ZM438 289Q435 319 424 346T394 393T348 425T286 437Q254 437 226 428T174 400T135 353T114 289H438ZM492 67Q468 34 416 11T292 -13Q238 -13 193 5T114 56T63 135T44 238Q44 294 61 341T111 422T188 475T289 494Q345 494 386 474T453 420T493 343T506 254V236H111Q111 191 125 156T164 96T226 58T306 44Q337 44 362 50T406 66T439 87T461 107L492 67Z"  />
<glyph unicode="&#xEA;" horiz-adv-x="548" d="M400 582L277 678L155 582L117 618L277 752H278L437 618L400 582ZM438 289Q435 319 424 346T394 393T348 425T286 437Q254 437 226 428T174 400T135 353T114 289H438ZM492 67Q468 34 416 11T292 -13Q238 -13 193 5T114 56T63 135T44 238Q44 294 61 341T111 422T188 475T289 494Q345 494 386 474T453 420T493 343T506 254V236H111Q111 191 125 156T164 96T226 58T306 44Q337 44 362 50T406 66T439 87T461 107L492 67Z"  />
<glyph unicode="&#xEB;" horiz-adv-x="548" d="M438 635Q438 616 425 603T389 590Q369 590 357 603T344 635Q344 655 356 668T389 682Q412 682 425 669T438 635ZM212 635Q212 616 198 603T164 590Q145 590 131 603T117 635Q117 655 131 668T164 682Q184 682 198 669T212 635ZM438 289Q435 319 424 346T394 393T348 425T286 437Q254 437 226 428T174 400T135 353T114 289H438ZM492 67Q468 34 416 11T292 -13Q238 -13 193 5T114 56T63 135T44 238Q44 294 61 341T111 422T188 475T289 494Q345 494 386 474T453 420T493 343T506 254V236H111Q111 191 125 156T164 96T226 58T306 44Q337 44 362 50T406 66T439 87T461 107L492 67Z"  />
<glyph unicode="&#xEC;" horiz-adv-x="224" d="M79 0V481H145V0H79ZM135 578L-5 714L55 759L174 604L135 578Z"  />
<glyph unicode="&#xED;" horiz-adv-x="224" d="M79 0V481H145V0H79ZM78 578L41 605L159 760L219 715L78 578Z"  />
<glyph unicode="&#xEE;" horiz-adv-x="224" d="M235 582L112 678L-10 582L-48 618L112 752H113L272 618L235 582ZM79 0V481H145V0H79Z"  />
<glyph unicode="&#xEF;" horiz-adv-x="224" d="M79 0V481H145V0H79ZM231 636Q231 617 219 604T183 591Q163 591 150 604T137 636Q137 656 150 669T183 683Q206 683 218 670T231 636ZM88 636Q88 617 74 604T39 591Q20 591 7 604T-7 636Q-7 656 6 669T39 683Q60 683 74 670T88 636Z"  />
<glyph unicode="&#xF0;" horiz-adv-x="605" d="M299 43Q336 43 370 56T429 93T470 154T485 235Q485 274 471 309T432 371T373 414T298 430Q253 430 218 414T160 371T124 309T111 233Q111 200 124 166T161 105T220 60T299 43ZM380 661Q409 617 439 566T495 460T537 349T554 238Q554 187 535 141T482 61T402 6T300 -14Q241 -14 194 7T113 62T61 142T43 235Q43 284 61 329T113 410T194 466T298 487Q312 487 330 485T369 475T409 457T447 426Q436 451 421 479T389 535T356 587T326 629L220 564L191 606L299 670Q265 719 230 759T168 820H261Q269 811 295 779T350 700L471 772L497 729L380 661Z"  />
<glyph unicode="&#xF1;" horiz-adv-x="549" d="M446 653Q441 647 431 636T407 615T376 597T340 589Q325 589 311 596T283 611T253 627T222 634Q210 634 199 629T176 617T156 602T141 588L112 624Q119 632 132 643T160 665T193 683T226 690Q242 690 257 683T287 667T316 651T343 644Q357 644 369 649T392 662T409 677T422 690L446 653ZM412 0V284Q412 362 384 397T284 432Q258 432 236 425T195 409T163 388T141 368V0H75V481H141V430Q151 439 166 450T201 471T247 487T303 494Q388 494 433 452T478 315V0H412Z"  />
<glyph unicode="&#xF2;" horiz-adv-x="599" d="M340 583L186 728L246 773L379 610L340 583ZM298 45Q340 45 374 59T434 98T472 160T486 240Q486 282 471 318T431 380T371 421T299 436Q257 436 223 421T164 380T125 317T111 237Q111 195 126 160T168 99T228 59T298 45ZM556 240Q556 187 536 141T482 61T401 7T300 -13Q246 -13 199 6T118 60T63 140T43 240Q43 294 63 340T117 420T199 474T301 494Q355 494 401 474T482 420T536 339T556 240Z"  />
<glyph unicode="&#xF3;" horiz-adv-x="599" d="M250 583L212 610L345 773L405 728L250 583ZM298 45Q340 45 374 59T434 98T472 160T486 240Q486 282 471 318T431 380T371 421T299 436Q257 436 223 421T164 380T125 317T111 237Q111 195 126 160T168 99T228 59T298 45ZM556 240Q556 187 536 141T482 61T401 7T300 -13Q246 -13 199 6T118 60T63 140T43 240Q43 294 63 340T117 420T199 474T301 494Q355 494 401 474T482 420T536 339T556 240Z"  />
<glyph unicode="&#xF4;" horiz-adv-x="599" d="M433 572L310 668L188 572L150 608L310 742H311L470 608L433 572ZM298 45Q340 45 374 59T434 98T472 160T486 240Q486 282 471 318T431 380T371 421T299 436Q257 436 223 421T164 380T125 317T111 237Q111 195 126 160T168 99T228 59T298 45ZM556 240Q556 187 536 141T482 61T401 7T300 -13Q246 -13 199 6T118 60T63 140T43 240Q43 294 63 340T117 420T199 474T301 494Q355 494 401 474T482 420T536 339T556 240Z"  />
<glyph unicode="&#xF5;" horiz-adv-x="599" d="M467 649Q462 643 452 632T428 611T397 593T361 585Q346 585 332 592T304 607T274 623T243 630Q231 630 220 625T197 613T177 598T162 584L133 620Q140 628 153 639T181 661T214 679T247 686Q263 686 278 679T308 663T337 647T364 640Q378 640 390 645T413 658T430 673T443 686L467 649ZM298 45Q340 45 374 59T434 98T472 160T486 240Q486 282 471 318T431 380T371 421T299 436Q257 436 223 421T164 380T125 317T111 237Q111 195 126 160T168 99T228 59T298 45ZM556 240Q556 187 536 141T482 61T401 7T300 -13Q246 -13 199 6T118 60T63 140T43 240Q43 294 63 340T117 420T199 474T301 494Q355 494 401 474T482 420T536 339T556 240Z"  />
<glyph unicode="&#xF6;" horiz-adv-x="599" d="M460 637Q460 618 447 605T411 592Q391 592 379 605T366 637Q366 657 378 670T411 684Q434 684 447 671T460 637ZM234 637Q234 618 220 605T186 592Q167 592 153 605T139 637Q139 657 153 670T186 684Q206 684 220 671T234 637ZM298 45Q340 45 374 59T434 98T472 160T486 240Q486 282 471 318T431 380T371 421T299 436Q257 436 223 421T164 380T125 317T111 237Q111 195 126 160T168 99T228 59T298 45ZM556 240Q556 187 536 141T482 61T401 7T300 -13Q246 -13 199 6T118 60T63 140T43 240Q43 294 63 340T117 420T199 474T301 494Q355 494 401 474T482 420T536 339T556 240Z"  />
<glyph unicode="&#xF7;" horiz-adv-x="703" d="M91 334V393H612V334H91ZM399 551Q399 534 386 521T351 507Q333 507 320 520T307 551Q307 571 320 584T351 597Q374 597 386 584T399 551ZM399 168Q399 150 386 137T351 123Q333 123 320 136T307 168Q307 186 320 200T351 214Q373 214 386 201T399 168Z"  />
<glyph unicode="&#xF8;" horiz-adv-x="599" d="M246 51Q270 44 298 44Q340 44 374 58T434 97T472 159T486 239Q486 290 466 330T410 397L246 51ZM361 424Q330 435 299 435Q257 435 223 420T164 379T125 316T111 236Q111 182 135 141T197 74L361 424ZM103 -126L171 18Q113 50 78 108T43 239Q43 293 63 339T117 419T199 473T301 493Q324 493 345 489T386 478L456 626L508 603L437 454Q491 420 523 364T556 239Q556 186 536 140T482 60T401 6T300 -14Q258 -14 221 -2L153 -146L103 -126Z"  />
<glyph unicode="&#xF9;" horiz-adv-x="549" d="M302 583L148 728L208 773L341 610L302 583ZM410 481H476V54Q439 20 390 4T274 -13Q229 -13 192 -2T128 33T86 91T71 172V481H137V187Q137 113 176 79T277 45Q328 45 360 57T410 83V481Z"  />
<glyph unicode="&#xFA;" horiz-adv-x="549" d="M237 583L199 610L332 773L392 728L237 583ZM410 481H476V54Q439 20 390 4T274 -13Q229 -13 192 -2T128 33T86 91T71 172V481H137V187Q137 113 176 79T277 45Q328 45 360 57T410 83V481Z"  />
<glyph unicode="&#xFB;" horiz-adv-x="549" d="M402 574L279 670L157 574L119 610L279 744H280L439 610L402 574ZM410 481H476V54Q439 20 390 4T274 -13Q229 -13 192 -2T128 33T86 91T71 172V481H137V187Q137 113 176 79T277 45Q328 45 360 57T410 83V481Z"  />
<glyph unicode="&#xFC;" horiz-adv-x="549" d="M435 635Q435 616 422 603T386 590Q366 590 354 603T341 635Q341 655 353 668T386 682Q409 682 422 669T435 635ZM209 635Q209 616 195 603T161 590Q142 590 128 603T114 635Q114 655 128 668T161 682Q181 682 195 669T209 635ZM410 481H476V54Q439 20 390 4T274 -13Q229 -13 192 -2T128 33T86 91T71 172V481H137V187Q137 113 176 79T277 45Q328 45 360 57T410 83V481Z"  />
<glyph unicode="&#xFD;" horiz-adv-x="496" d="M228 583L190 610L323 773L383 728L228 583ZM50 -259L206 47L7 481H81L242 112L418 481H491L120 -259H50Z"  />
<glyph unicode="&#xFE;" horiz-adv-x="583" d="M141 125Q164 92 208 69T302 45Q336 45 366 58T419 96T455 157T469 238Q469 280 456 316T417 379T354 420T270 435Q252 435 233 432T196 422T165 409T141 395V125ZM75 -255V820H140V461Q171 478 207 486T277 494Q328 494 375 478T458 430T517 351T539 239Q539 189 523 144T477 63T404 8T304 -13Q280 -13 257 -8T212 7T173 27T141 52V-255H75Z"  />
<glyph unicode="&#xFF;" horiz-adv-x="496" d="M402 635Q402 616 389 603T353 590Q333 590 321 603T308 635Q308 655 320 668T353 682Q376 682 389 669T402 635ZM176 635Q176 616 162 603T128 590Q109 590 95 603T81 635Q81 655 95 668T128 682Q148 682 162 669T176 635ZM50 -259L206 47L7 481H81L242 112L418 481H491L120 -259H50Z"  />
<glyph unicode="&#x152;" horiz-adv-x="1239" d="M777 376Q777 448 752 508T682 612T579 680T454 705Q386 705 326 681T222 613T153 511T127 382Q127 316 152 257T220 151T322 78T447 51Q517 51 577 76T682 144T751 247T777 376ZM778 1V168Q753 126 717 92T639 35T549 -1T454 -14Q370 -14 297 16T169 100T83 225T51 378Q51 460 82 531T168 656T296 740T454 771Q503 771 551 759T641 724T719 667T778 590V756H1171V692H850V438H1108V373H850V65H1203V1H778Z"  />
<glyph unicode="&#x153;" horiz-adv-x="990" d="M880 289Q877 319 866 346T836 393T790 425T728 437Q696 437 668 428T616 400T577 353T556 289H880ZM298 45Q340 45 374 59T434 98T472 160T486 240Q486 282 471 318T431 380T371 421T299 436Q257 436 223 421T164 380T125 317T111 237Q111 195 126 160T168 99T228 59T298 45ZM934 67Q910 34 858 11T734 -13Q662 -13 606 18T518 106Q485 52 428 20T300 -13Q246 -13 199 6T118 60T63 140T43 240Q43 294 63 340T117 420T199 474T301 494Q371 494 428 461T518 374Q548 430 602 462T731 494Q787 494 828 474T895 420T935 343T948 254V236H553Q553 191 567 156T606 96T668 58T748 44Q779 44 804 50T848 66T881 87T903 107L934 67Z"  />
<glyph unicode="&#x160;" horiz-adv-x="547" d="M277 813L94 914L123 947L280 878L427 945L461 914L277 813ZM73 138Q84 125 101 110T143 82T197 61T267 52Q301 52 329 62T379 90T412 133T424 191Q424 245 398 279T333 337T249 382T165 427T100 489T74 581Q74 628 92 664T140 724T209 760T290 773Q326 773 356 765T410 744T450 719T476 697L436 646Q412 670 377 689T291 708Q264 708 239 701T193 678T161 641T149 588Q149 543 175 515T240 465T325 423T410 374T475 302T501 192Q501 153 485 116T439 50T363 4T261 -14Q222 -14 186 -5T119 20T66 52T31 86L73 138Z"  />
<glyph unicode="&#x161;" horiz-adv-x="406" d="M210 576L50 710L87 747L209 651L332 747L369 710L210 576ZM60 103Q69 93 81 82T110 62T147 47T194 41Q237 41 266 63T296 134Q296 161 279 179T236 212T180 240T124 270T81 310T64 366Q64 393 74 416T104 457T151 485T213 495Q260 495 298 477T354 439L325 391Q321 396 311 404T287 421T254 435T216 441Q193 441 177 435T151 418T137 396T132 371Q132 347 149 332T192 303T248 277T304 246T347 202T364 135Q364 101 352 74T317 27T263 -3T195 -14Q164 -14 138 -8T91 9T53 32T26 57L60 103Z"  />
<glyph unicode="&#x178;" horiz-adv-x="561" d="M131 879Q131 860 117 847T83 833Q64 833 51 846T37 879Q37 899 50 913T83 927Q103 927 117 913T131 879ZM529 879Q529 860 516 847T481 833Q461 833 448 846T435 879Q435 899 448 913T481 927Q503 927 516 913T529 879ZM244 0V327L-7 757H74L277 402Q279 398 280 395T282 383Q283 391 284 394T288 402L492 757H571L316 327V0H244Z"  />
<glyph unicode="&#x17D;" horiz-adv-x="591" d="M298 813L115 914L144 947L301 878L448 945L482 914L298 813ZM1 1L433 692H77V756H554L122 65H561V1H1Z"  />
<glyph unicode="&#x17E;" horiz-adv-x="456" d="M239 578L79 712L116 749L238 653L361 749L398 712L239 578ZM12 1L316 423H60V480H428L127 58H418V1H12Z"  />
<glyph unicode="&#x192;" horiz-adv-x="312" d="M-89 -203Q-84 -205 -75 -207T-55 -209Q-31 -209 -15 -196T13 -160T33 -108T47 -46L134 429H46L56 484H144L155 550Q167 622 180 677T216 770T271 827T354 847Q358 847 365 846T379 844T392 841T400 839L389 782Q385 783 372 784T352 786Q313 786 291 762T254 696T230 600T210 484H302L292 429H199L110 -62Q102 -107 90 -144T58 -209T11 -252T-54 -267Q-68 -267 -80 -263T-97 -257L-89 -203Z"  />
<glyph unicode="&#x2C6;" horiz-adv-x="445" d="M349 582L226 678L104 582L66 618L226 752H227L386 618L349 582Z"  />
<glyph unicode="&#x2DC;" horiz-adv-x="371" d="M370 649Q365 643 355 632T331 611T300 593T264 585Q249 585 235 592T207 607T177 623T146 630Q134 630 123 625T100 613T80 598T65 584L36 620Q43 628 56 639T84 661T117 679T150 686Q166 686 181 679T211 663T240 647T267 640Q281 640 293 645T316 658T333 673T346 686L370 649Z"  />
<glyph unicode="&#x2013;" horiz-adv-x="619" d="M70 218L78 275H548L540 218H70Z"  />
<glyph unicode="&#x2014;" horiz-adv-x="878" d="M70 218L78 275H808L800 218H70Z"  />
<glyph unicode="&#x2018;" horiz-adv-x="235" d="M51 560L139 757H193L124 560H51Z"  />
<glyph unicode="&#x2019;" horiz-adv-x="231" d="M53 560L121 757H194L107 560H53Z"  />
<glyph unicode="&#x201A;" horiz-adv-x="230" d="M28 -78L96 119H169L82 -78H28Z"  />
<glyph unicode="&#x201C;" horiz-adv-x="389" d="M212 560L293 757H347L281 560H212ZM51 560L139 757H193L120 560H51Z"  />
<glyph unicode="&#x201D;" horiz-adv-x="386" d="M54 560L120 757H189L108 560H54ZM208 560L281 757H350L262 560H208Z"  />
<glyph unicode="&#x201E;" horiz-adv-x="391" d="M30 -77L96 120H165L84 -77H30ZM184 -77L257 120H326L238 -77H184Z"  />
<glyph unicode="&#x2020;" horiz-adv-x="469" d="M201 55V552H54V609H201V815H264V609H415V552H264V55H201Z"  />
<glyph unicode="&#x2021;" horiz-adv-x="492" d="M212 56V249H65V305H212V577H65V633H212V820H275V633H426V577H275V305H426V249H275V56H212Z"  />
<glyph unicode="&#x2022;" horiz-adv-x="481" d="M366 288Q366 262 356 240T329 200T289 173T240 163Q214 163 191 173T151 200T124 239T114 288Q114 314 124 337T151 377T191 404T240 414Q266 414 289 404T329 377T356 337T366 288Z"  />
<glyph unicode="&#x2026;" horiz-adv-x="718" d="M653 41Q653 21 638 5T600 -11Q579 -11 563 5T547 41Q547 64 563 79T600 95Q623 95 638 80T653 41ZM412 41Q412 21 397 5T359 -11Q338 -11 322 5T306 41Q306 64 322 79T359 95Q382 95 397 80T412 41ZM171 41Q171 21 156 5T118 -11Q97 -11 81 5T65 41Q65 64 81 79T118 95Q141 95 156 80T171 41Z"  />
<glyph unicode="&#x2030;" horiz-adv-x="1215" d="M621 38Q662 38 689 66T717 137Q717 178 690 206T621 235Q579 235 552 207T525 137Q525 95 552 67T621 38ZM620 -12Q589 -12 562 -1T515 31T484 79T472 137Q472 168 483 195T515 242T562 274T620 286Q651 286 678 275T725 243T757 195T769 137Q769 106 758 79T726 32T678 0T620 -12ZM199 515Q241 515 268 543T296 613Q296 654 269 682T199 711Q158 711 131 683T103 613Q103 571 130 543T199 515ZM348 613Q348 582 336 555T304 508T257 476T198 464Q167 464 140 475T93 507T62 555T50 613Q50 644 61 671T93 718T140 750T198 762Q229 762 256 751T304 719T336 671T348 613ZM218 -4L539 763L584 745L263 -22L218 -4ZM1017 38Q1059 38 1086 66T1113 137Q1113 178 1086 206T1017 235Q976 235 949 207T921 137Q921 95 948 67T1017 38ZM1166 137Q1166 106 1154 79T1122 32T1075 0T1016 -12Q985 -12 958 -1T911 31T880 79T868 137Q868 168 879 195T911 242T958 274T1016 286Q1047 286 1074 275T1122 243T1154 195T1166 137Z"  />
<glyph unicode="&#x2039;" horiz-adv-x="298" d="M181 26L50 235L178 445H243L112 235L247 26H181Z"  />
<glyph unicode="&#x203A;" horiz-adv-x="299" d="M51 26L186 235L55 445H121L249 235L118 26H51Z"  />
<glyph unicode="&#x20AC;" horiz-adv-x="698" d="M638 21Q635 19 624 14T592 2T541 -8T471 -13Q424 -13 374 1T277 48T196 134T146 267H53L66 323H139Q138 334 138 346T137 371Q137 400 140 430H64L77 485H148Q159 541 183 591T245 679T337 739T462 762Q525 762 568 749T635 719L604 666Q599 669 586 674T553 685T508 695T454 699Q403 699 363 682T294 636T245 568T215 485H519L506 430H206Q203 401 203 374Q203 360 203 348T205 323H508L495 267H213Q227 201 256 159T322 92T398 58T472 48Q504 48 529 52T571 62T599 73T611 80L638 21Z"  />
<glyph unicode="&#x2122;" horiz-adv-x="977" d="M835 387L805 622L657 373L508 622L483 387H421L472 768L659 470L843 767L896 387H835ZM198 387V703L74 702V757H382V702L259 703V387H198Z"  />

</font>
</defs>
</svg>
