<?xml  version="1.0" encoding="UTF-8"?>
<!DOCTYPE svg PUBLIC "-//W3C//DTD SVG 1.0//EN" "http://www.w3.org/TR/2001/REC-SVG-20010904/DTD/svg10.dtd" >
<svg xmlns="http://www.w3.org/2000/svg" >
<metadata>
<version>1.0</version>
<id><![CDATA[Nautilus LT W01 Italic]]></id>
<vendor>Monotype Imaging Inc.</vendor>
<credits>
<name>Fonts.com WebFonts</name>
<URL>http://webfonts.fonts.com</URL>
<role>Home of the Web fonts</role>
</credits>
<license>
<URL>http://webfonts.fonts.com/Legal</URL>
</license>
<copyright><![CDATA[Copyright © 2003 - 2008 Linotype GmbH, www.linotype.com. All rights reserved. This font software may not be reproduced, modified, disclosed or transferred without the express written approval of Linotype GmbH. Linotype Nautilus is a trademark of Linotype GmbH and may be registered in certain jurisdictions. This typeface is original artwork of Hellmut G. Bomm. The design may be protected in certain jurisdictions.]]></copyright>
<trademark><![CDATA[Linotype Nautilus is a trademark of Linotype GmbH and may be registered in certain jurisdictions.]]></trademark>
<licensee>
<name></name>
</licensee>
</metadata>
<defs >
<font horiz-adv-x="429" id="922e3b39-bf5f-4c7d-ab0c-4039f6d6d8ae">
<font-face font-family="" panose-1="2 11 5 6 8 0 0 9 0 4" ascent="856" descent="-242" units-per-em="1000" alphabetic="0">
</font-face>
<missing-glyph horiz-adv-x="0" />

<glyph unicode="&#xA;" />
<glyph unicode="&#xD;" horiz-adv-x="0" />
<glyph unicode=" " horiz-adv-x="245" />
<glyph unicode="!" horiz-adv-x="252" d="M198 102L175 0H96L118 102H198ZM321 697L213 207H144L242 697H321Z"  />
<glyph unicode="&quot;" horiz-adv-x="320" d="M292 694L218 496H174L215 694H292ZM405 694L331 496H287L328 694H405Z"  />
<glyph unicode="#" horiz-adv-x="673" d="M500 422H371L325 289H453L500 422ZM743 482L722 422H570L524 289H685L664 229H502L421 0H350L432 229H303L221 0H151L232 229H76L97 289H253L300 422H133L154 482H322L404 712H475L394 482H521L603 712H673L593 482H743Z"  />
<glyph unicode="$" horiz-adv-x="490" d="M381 138Q381 191 304 256L257 35H269Q305 35 343 68Q381 103 381 138ZM354 601Q264 587 264 506Q264 467 314 411L354 601ZM483 549Q448 602 378 602L334 394L419 315Q463 265 463 213Q463 133 394 64Q330 -1 248 -15L235 -75H212L224 -18Q204 -21 190 -21Q101 -21 61 39L127 86Q167 39 235 35L285 272L213 344Q177 387 177 435Q177 516 230 572Q279 624 362 641L373 695H398L387 645Q397 647 405 648T422 649Q485 649 538 605L483 549Z"  />
<glyph unicode="%" horiz-adv-x="529" d="M470 140Q470 247 421 247Q394 247 380 200Q370 167 370 128Q370 12 418 12Q446 12 460 63Q470 96 470 140ZM303 483Q303 590 255 590Q228 590 214 543Q204 512 204 471Q204 355 252 355Q280 355 294 406Q303 440 303 483ZM527 175Q527 111 493 56Q454 -9 395 -9Q313 -9 313 88Q313 150 348 208Q387 272 447 272Q527 272 527 175ZM581 605L153 0H89L519 605H581ZM360 518Q360 456 327 399Q288 334 229 334Q147 334 147 431Q147 495 181 550Q222 615 280 615Q360 615 360 518Z"  />
<glyph unicode="&amp;" horiz-adv-x="500" d="M244 294Q151 229 151 140Q151 45 242 45Q286 45 354 87L244 294ZM412 511Q412 581 350 581Q316 581 293 552Q273 526 273 490Q273 436 308 372Q412 431 412 511ZM542 293Q542 207 444 112L504 0H398L370 54Q341 35 320 23T284 4Q236 -18 188 -18Q132 -18 95 13Q55 46 55 101Q55 215 171 293Q181 298 195 307T226 330Q193 388 193 447Q193 521 251 576Q310 629 383 629Q433 629 461 604Q492 579 492 531Q492 469 434 417Q400 384 324 341L427 145Q480 203 480 253Q480 300 426 336H533Q542 310 542 293Z"  />
<glyph unicode="&apos;" horiz-adv-x="212" d="M318 696L206 498H162L242 696H318Z"  />
<glyph unicode="(" horiz-adv-x="274" d="M401 737Q369 698 344 662T300 592Q283 560 266 520T233 429Q168 226 168 43Q168 -57 201 -168L124 -169Q77 -49 77 70Q77 231 148 426Q209 594 340 737H401Z"  />
<glyph unicode=")" horiz-adv-x="299" d="M329 503Q329 342 258 147Q197 -21 66 -164H5Q37 -124 62 -88T105 -20Q142 46 173 144Q238 347 238 530Q238 630 205 741L282 742Q329 622 329 503Z"  />
<glyph unicode="*" horiz-adv-x="411" d="M520 540L511 498H346L397 358L356 337L305 475L194 336L162 357L275 498H113L122 540H281L229 681L271 703L323 560L434 702L466 681L357 540H520Z"  />
<glyph unicode="+" horiz-adv-x="490" d="M338 251V80H270V251H101V313H270V483H338V313H508V251H338Z"  />
<glyph unicode="&#x2c;" horiz-adv-x="195" d="M175 111L53 -94H7L96 111H175Z"  />
<glyph unicode="-" horiz-adv-x="333" d="M331 328L316 272H133L148 328H331Z"  />
<glyph unicode="." horiz-adv-x="179" d="M162 102L139 0H60L82 102H162Z"  />
<glyph unicode="/" horiz-adv-x="359" d="M505 695L49 -25H-8L454 695H505Z"  />
<glyph unicode="0" horiz-adv-x="490" d="M439 401Q439 460 421 507Q397 571 347 571Q271 571 228 426Q196 318 196 220Q196 38 286 38Q361 38 405 187Q439 298 439 401ZM527 431Q527 282 465 153Q389 -7 255 -7Q103 -7 103 185Q103 338 167 462Q245 616 382 616Q527 616 527 431Z"  />
<glyph unicode="1" horiz-adv-x="490" d="M465 619L335 0L252 1L363 515L174 407L160 435L465 619Z"  />
<glyph unicode="2" horiz-adv-x="490" d="M518 491Q518 393 382 253Q284 152 160 67L438 68L423 0H46L54 39Q174 114 278 224Q413 365 413 464Q413 550 331 550Q291 550 251 528Q227 515 183 478L160 497Q284 616 388 616Q449 616 483 584T518 491Z"  />
<glyph unicode="3" horiz-adv-x="490" d="M487 518Q487 460 434 410Q391 369 328 347Q471 345 471 241Q471 152 371 73Q307 23 227 -4Q166 -24 67 -40L68 -12Q114 -1 145 8T196 25Q269 53 308 95Q371 161 371 242Q371 293 325 306Q305 313 238 313L243 339Q304 349 344 380Q391 418 391 475Q391 559 312 559Q270 559 235 540Q224 533 208 521T171 492L154 509Q257 621 364 621Q416 621 450 596Q487 568 487 518Z"  />
<glyph unicode="4" horiz-adv-x="490" d="M393 511L140 221H330L393 511ZM502 223L488 157L395 158L362 0H282L316 158H64L72 200L417 604H490L410 223H502Z"  />
<glyph unicode="5" horiz-adv-x="490" d="M520 605L506 541H284L226 375Q284 402 337 402Q402 402 439 370Q479 336 479 272Q479 202 420 128Q371 67 298 26Q262 6 210 -12T89 -44V-19Q200 3 284 71Q383 150 383 253Q383 298 355 326T282 355Q233 355 166 319L262 605H520Z"  />
<glyph unicode="6" horiz-adv-x="490" d="M408 208Q408 253 389 287Q366 329 325 329Q265 329 229 274Q198 227 198 163Q198 117 219 81Q245 37 287 37Q344 37 379 97Q408 147 408 208ZM540 599Q453 579 379 526T257 396Q231 353 207 280Q270 382 369 382Q427 382 461 342Q492 305 492 245Q492 153 415 71Q338 -10 245 -10Q174 -10 137 42Q104 88 104 162Q104 328 238 468Q370 603 536 628L540 599Z"  />
<glyph unicode="7" horiz-adv-x="490" d="M557 605L544 545L166 0H102L477 530H189L206 605H557Z"  />
<glyph unicode="8" horiz-adv-x="490" d="M391 168Q391 254 297 294Q242 282 210 243T177 146Q177 99 201 68Q226 34 272 34Q321 34 357 77Q391 117 391 168ZM444 493Q444 533 420 559T356 585Q307 585 277 547Q248 510 248 461Q248 427 282 394Q309 366 347 350Q444 396 444 493ZM524 505Q524 447 481 400Q442 356 384 337Q434 304 452 282Q480 248 480 201Q480 116 402 52Q328 -8 241 -8Q177 -8 137 22Q90 57 90 116Q90 247 258 309Q170 352 170 424Q170 510 233 566Q294 619 380 619Q440 619 479 592Q524 562 524 505Z"  />
<glyph unicode="9" horiz-adv-x="490" d="M416 441Q416 492 394 526Q368 567 322 567Q268 567 234 506Q206 456 206 397Q206 352 225 318Q247 276 289 276Q348 276 384 331Q416 380 416 441ZM510 442Q510 271 378 138Q256 16 83 -24L74 6Q203 34 302 138Q366 205 407 324Q342 223 244 223Q186 223 153 263Q122 300 122 359Q122 454 198 533Q274 614 369 614Q440 614 477 562Q510 515 510 442Z"  />
<glyph unicode=":" horiz-adv-x="163" d="M156 102L133 0H54L76 102H156ZM231 466L209 364H130L152 466H231Z"  />
<glyph unicode=";" horiz-adv-x="224" d="M184 112L62 -93H16L105 112H184ZM256 466L234 364H155L177 466H256Z"  />
<glyph unicode="&lt;" horiz-adv-x="490" d="M101 248V314L508 474V405L184 281L508 158V88L101 248Z"  />
<glyph unicode="=" horiz-adv-x="490" d="M101 331V393H508V331H101ZM101 169V231H508V169H101Z"  />
<glyph unicode="&gt;" horiz-adv-x="490" d="M101 88V158L425 281L101 405V474L508 314V248L101 88Z"  />
<glyph unicode="?" horiz-adv-x="383" d="M258 102L236 -1L155 1L177 101L258 102ZM486 578Q486 440 229 215L199 238Q390 443 390 552Q390 586 373 609Q354 634 319 634Q261 634 181 561L161 581Q191 612 214 632T253 664Q308 700 369 700Q486 700 486 578Z"  />
<glyph unicode="@" horiz-adv-x="856" d="M709 467L627 174Q619 146 612 119T604 69Q604 55 611 47T631 39Q673 39 708 68T767 142T806 241T820 346Q820 411 799 456T744 530T664 571T570 584Q513 584 449 561T326 492T223 378T158 221Q152 193 150 168T147 119Q147 51 168 3T226 -77T311 -123T414 -138Q440 -138 466 -134T516 -124T560 -110T595 -94L610 -124Q568 -150 512 -168T392 -186Q332 -186 274 -171T171 -121T98 -32T70 103Q70 143 82 199Q106 312 163 393T293 527T446 604T597 629Q651 629 704 616T799 573T866 492T892 368Q892 322 880 265Q869 214 844 167T784 82T705 23T613 0Q524 0 524 73Q524 90 528 112T538 150L565 243Q528 184 490 138T416 58T347 8T286 -10Q260 -10 248 7T236 50Q236 95 267 160T357 296Q433 388 494 427T612 467H709ZM514 219Q566 292 589 338T612 407Q612 421 605 427T585 434Q565 434 541 419T492 382T444 333T405 282Q371 233 354 190T336 112Q336 81 359 81Q416 81 514 219Z"  />
<glyph unicode="A" horiz-adv-x="446" d="M335 219L309 511L168 220L335 219ZM446 0H356L339 177H146L58 0H6L327 631H382L446 0Z"  />
<glyph unicode="B" horiz-adv-x="458" d="M366 199Q366 252 329 280Q294 306 240 306Q235 306 229 306T218 305L161 33Q189 30 207 30Q278 30 323 80Q366 126 366 199ZM409 506Q409 595 320 595Q301 595 276 592L227 351H238Q409 351 409 506ZM495 527Q495 455 444 403Q397 353 324 337Q458 320 458 221Q458 203 454 183T442 143T424 105T401 74Q370 40 316 19Q264 -1 216 -1L66 0L197 627H331Q406 627 441 612Q495 589 495 527Z"  />
<glyph unicode="C" horiz-adv-x="485" d="M477 501Q444 595 368 595Q275 595 223 465Q181 364 181 254Q181 40 321 40Q369 40 439 89L454 71Q362 -10 266 -10Q87 -10 87 197Q87 351 166 484Q257 640 400 640Q485 640 546 549L477 501Z"  />
<glyph unicode="D" horiz-adv-x="501" d="M445 441Q445 509 413 550Q377 594 310 594H261L148 37H196Q288 37 340 104Q384 160 415 265Q445 365 445 441ZM535 453Q535 354 499 260Q461 162 394 95Q345 45 297 23Q245 0 178 0H50L181 630L334 629Q434 627 481 591Q535 547 535 453Z"  />
<glyph unicode="E" horiz-adv-x="404" d="M495 629L485 582H279L231 349H427L418 300L219 301L169 45H393L383 0H68L200 629H495Z"  />
<glyph unicode="F" horiz-adv-x="402" d="M509 629L499 582H279L232 349H432L423 300L220 301L158 0H69L201 629H509Z"  />
<glyph unicode="G" horiz-adv-x="527" d="M524 538Q486 600 405 600Q291 600 231 476Q185 380 185 250Q185 168 217 110Q257 41 334 41Q378 41 402 68L453 307H336L341 351L544 350L491 86Q454 44 399 18T287 -8Q194 -8 144 51Q96 106 96 201Q96 369 180 497Q275 643 434 643Q494 643 577 599L524 538Z"  />
<glyph unicode="H" horiz-adv-x="531" d="M594 629L463 0H378L439 306H221L160 0H75L206 629H291L232 350H450L509 629H594Z"  />
<glyph unicode="I" horiz-adv-x="225" d="M292 629L160 0H75L207 629H292Z"  />
<glyph unicode="J" horiz-adv-x="345" d="M413 631L328 216Q321 182 313 156T294 110Q268 60 219 30Q164 -4 107 -4Q47 -4 10 31L60 67Q72 35 118 35Q179 35 209 100Q215 113 223 142T241 218L330 631H413Z"  />
<glyph unicode="K" horiz-adv-x="414" d="M563 629L302 352L456 1L348 0L219 298L158 0H73L202 629H287L226 335L504 629H563Z"  />
<glyph unicode="L" horiz-adv-x="385" d="M392 41L383 0H76L208 629H292L170 41H392Z"  />
<glyph unicode="M" horiz-adv-x="664" d="M729 629L597 0H513L628 560L608 511L349 0L294 -1L239 554L120 0H72L208 630L320 631L366 125L613 630L729 629Z"  />
<glyph unicode="N" horiz-adv-x="513" d="M575 628L443 0H375L212 460L118 0H70L200 627H250L426 130L530 628H575Z"  />
<glyph unicode="O" horiz-adv-x="548" d="M498 367Q498 453 472 513Q437 593 362 593Q280 593 227 471Q184 373 184 275Q184 188 209 125Q243 35 316 35Q403 35 456 163Q498 263 498 367ZM592 429Q592 271 511 141Q418 -10 271 -10Q186 -10 136 49Q89 105 89 191Q89 395 189 519Q288 641 410 641Q501 641 549 579Q592 524 592 429Z"  />
<glyph unicode="P" horiz-adv-x="431" d="M429 473Q429 590 326 590H281L228 323Q261 314 277 314Q341 314 385 361Q429 408 429 473ZM511 504Q511 381 397 314Q332 276 217 274L160 0H76L205 632H364Q430 632 469 602Q511 567 511 504Z"  />
<glyph unicode="Q" horiz-adv-x="583" d="M509 368Q509 455 483 515Q448 596 372 596Q290 596 237 474Q195 375 195 278Q195 190 220 127Q254 37 328 37Q415 37 467 164Q509 264 509 368ZM606 429Q606 329 570 232Q529 120 461 67L554 -56H444L394 16Q362 -9 288 -9Q198 -9 148 53Q103 110 103 203Q103 364 181 493Q272 644 424 644Q515 644 563 581Q606 523 606 429Z"  />
<glyph unicode="R" horiz-adv-x="461" d="M438 478Q438 597 314 597H288L231 326Q254 324 268 323T286 322Q320 322 348 333T396 365T427 414T438 478ZM522 506Q522 363 362 299L476 0H381L278 282L221 281L163 0H75L207 633H287Q402 633 441 622Q522 596 522 506Z"  />
<glyph unicode="S" horiz-adv-x="421" d="M442 535Q409 595 328 595Q286 595 255 572Q223 546 223 505Q223 456 274 404L371 313Q422 257 422 202Q422 116 344 49Q271 -15 182 -15Q86 -15 27 35L86 93Q128 35 210 35Q257 35 295 60Q339 89 339 132Q339 176 286 229Q261 253 237 277T188 324Q136 382 136 438Q136 528 205 585Q270 638 362 638Q416 638 496 596L442 535Z"  />
<glyph unicode="T" horiz-adv-x="351" d="M501 629L492 581H351L229 0H144L266 581H124L134 629H501Z"  />
<glyph unicode="U" horiz-adv-x="510" d="M580 629L485 184Q466 97 398 44Q334 -5 241 -5Q173 -5 126 32Q74 72 74 137Q74 171 84 215L173 630H264L176 217Q167 175 167 149Q167 100 198 70T279 39Q341 39 388 83Q430 125 443 188L537 630L580 629Z"  />
<glyph unicode="V" horiz-adv-x="459" d="M583 631L261 1L206 -1L143 631H233L278 125L531 631H583Z"  />
<glyph unicode="W" horiz-adv-x="687" d="M825 631L535 1H478L449 487L214 1L156 -1L131 631H221L230 125L467 631L519 630L550 132L773 631H825Z"  />
<glyph unicode="X" horiz-adv-x="421" d="M509 629L312 338L393 0H297L242 253L70 0H25L228 309L151 629H247L301 385L465 629H509Z"  />
<glyph unicode="Y" horiz-adv-x="414" d="M540 631L394 378Q381 359 363 328T321 252L271 0H180L229 245L148 631H238L304 305L492 631H540Z"  />
<glyph unicode="Z" horiz-adv-x="428" d="M508 630L495 572L154 78H401L377 0H52L62 43L426 551L156 552L178 630H508Z"  />
<glyph unicode="[" horiz-adv-x="247" d="M360 749L348 704H251L88 -112H182L170 -156H16L203 749H360Z"  />
<glyph unicode="\" horiz-adv-x="371" d="M328 -19L271 -18L200 701H252L328 -19Z"  />
<glyph unicode="]" horiz-adv-x="255" d="M364 749L177 -154H23L35 -110H129L292 704H195L207 749H364Z"  />
<glyph unicode="^" horiz-adv-x="490" d="M403 313L302 567L205 313H136L274 650H334L473 313H403Z"  />
<glyph unicode="_" horiz-adv-x="500" d="M0 -125V-75H500V-125H0Z"  />
<glyph unicode="`" horiz-adv-x="400" d="M262 600H216L137 695H226L262 600Z"  />
<glyph unicode="a" horiz-adv-x="449" d="M393 407Q393 434 360 434Q324 434 267 373Q228 331 195 280Q136 188 136 120Q136 81 161 81Q217 81 307 219Q393 350 393 407ZM484 467L387 0H304L357 252Q331 206 304 166T248 91Q161 -10 95 -10Q69 -10 54 13Q41 32 41 60Q41 146 145 286Q196 353 241 395T329 456Q356 467 394 467H484Z"  />
<glyph unicode="b" horiz-adv-x="489" d="M425 307Q425 400 362 400Q300 400 250 299Q209 212 209 142Q209 49 274 49Q346 49 390 147Q425 226 425 307ZM511 369Q511 242 432 124Q343 -8 223 -8Q118 -8 118 105Q118 135 141 248L234 694L315 693L243 339Q319 474 422 474Q511 474 511 369Z"  />
<glyph unicode="c" horiz-adv-x="375" d="M360 347Q346 440 292 440Q232 440 197 324Q172 240 172 156Q172 40 269 40Q330 40 393 88L411 69Q310 -14 213 -14Q146 -14 112 25Q78 62 78 130Q78 252 144 359Q221 481 337 481Q423 481 447 383L360 347Z"  />
<glyph unicode="d" horiz-adv-x="444" d="M401 407Q401 433 369 433Q332 433 275 372Q236 330 203 279Q144 187 144 120Q144 81 169 81Q225 81 315 219Q401 350 401 407ZM538 694L395 0L313 1L365 252Q339 206 312 166T256 91Q169 -10 103 -10Q77 -10 62 13Q49 32 49 60Q49 146 153 286Q253 418 337 456Q364 467 410 467L457 694H538Z"  />
<glyph unicode="e" horiz-adv-x="410" d="M364 393Q364 446 325 446Q263 446 229 380Q207 341 191 261Q282 271 312 288Q364 316 364 393ZM447 377Q447 342 404 262L185 226Q179 184 179 151Q179 39 276 39Q335 39 400 86L418 67Q318 -15 221 -15Q85 -15 85 133Q85 250 151 357Q228 479 337 479Q385 479 416 453Q447 425 447 377Z"  />
<glyph unicode="f" horiz-adv-x="239" d="M401 606Q395 666 352 666Q289 666 255 467H392L380 422L246 423L156 0H75L165 425H112L124 467H175L181 500Q196 582 249 640Q307 704 387 704Q454 704 484 648L401 606Z"  />
<glyph unicode="g" horiz-adv-x="447" d="M383 404Q383 435 361 435Q324 435 270 380Q244 354 222 323T180 255Q137 173 137 109Q137 65 167 65Q220 65 304 206Q383 340 383 404ZM483 467L387 0Q375 -60 360 -91Q340 -133 304 -166Q231 -231 126 -231Q55 -231 0 -197L57 -137Q95 -187 149 -187Q223 -187 262 -126Q290 -86 307 0L351 222L255 79Q184 -16 122 -16Q57 -16 57 59Q57 140 140 265Q163 300 187 330T238 388Q314 467 365 467H483Z"  />
<glyph unicode="h" horiz-adv-x="481" d="M493 427Q493 397 484 354L411 0H329L401 342Q404 355 404 365Q404 388 384 388Q342 388 270 283Q189 166 167 60L154 0H72L217 694H299L199 213Q336 479 448 479Q469 479 481 464T493 427Z"  />
<glyph unicode="i" horiz-adv-x="227" d="M253 467L156 -1L75 1L173 467H253ZM303 694L278 578H194L219 694H303Z"  />
<glyph unicode="j" horiz-adv-x="229" d="M253 467L155 -2Q105 -241 -97 -242V-207Q-27 -206 14 -156Q47 -117 66 -45L92 80L173 467H253ZM303 694L278 578H195L219 694H303Z"  />
<glyph unicode="k" horiz-adv-x="445" d="M489 404Q489 291 323 224L449 0H352L236 221Q304 234 355 277Q411 325 411 392Q411 426 383 426Q333 426 272 335Q252 304 234 271T202 200Q188 165 177 129T158 55L146 0H64L208 696H290L197 256Q313 474 425 474Q489 474 489 404Z"  />
<glyph unicode="l" horiz-adv-x="227" d="M303 694L160 0H78L222 694H303Z"  />
<glyph unicode="m" horiz-adv-x="736" d="M750 423Q750 398 741 355L668 1H586L658 343Q660 355 661 361T663 368Q663 389 640 389Q613 389 563 330Q452 198 415 1H333L404 343Q406 355 407 361T409 369Q409 389 388 389Q360 389 310 330Q202 203 159 1H78L174 467H254L203 214Q347 480 452 480Q497 480 497 422Q497 382 481 317L456 214Q593 480 705 480Q750 480 750 423Z"  />
<glyph unicode="n" horiz-adv-x="479" d="M492 423Q492 397 483 354L410 0H328L400 342Q403 355 403 366Q403 389 383 389Q339 389 269 284Q188 165 166 60L153 0H71L167 467H249L198 214Q335 480 447 480Q492 480 492 423Z"  />
<glyph unicode="o" horiz-adv-x="463" d="M386 298Q386 345 368 386Q346 438 303 438Q268 438 232 393Q172 318 172 184Q172 35 253 35Q320 35 358 139Q386 216 386 298ZM475 332Q475 211 409 108Q333 -10 220 -10Q146 -10 113 26Q82 61 82 136Q82 258 151 362Q229 478 345 478Q475 478 475 332Z"  />
<glyph unicode="p" horiz-adv-x="497" d="M507 394Q507 337 485 262Q465 190 437 136Q370 7 235 -11L231 18Q317 32 356 107Q378 149 399 234Q420 319 420 367Q420 415 399 415Q361 415 292 306Q213 182 175 52Q168 29 153 -40T114 -227H30L174 467L257 468L196 189Q330 470 456 470Q507 470 507 394Z"  />
<glyph unicode="q" horiz-adv-x="449" d="M405 407Q405 434 373 434Q334 434 279 373Q240 331 207 280Q148 188 148 120Q148 81 173 81Q229 81 319 219Q405 350 405 407ZM496 467L350 -224H268L369 252Q343 206 316 166T260 91Q173 -10 107 -10Q81 -10 66 13Q53 32 53 60Q53 146 157 286Q208 353 253 395T341 456Q368 467 406 467H496Z"  />
<glyph unicode="r" horiz-adv-x="323" d="M408 367L389 381Q378 389 368 389Q327 389 263 277Q199 165 166 32L158 0H76L172 467H254L203 214Q232 274 252 313T286 372Q353 477 411 477Q430 477 462 460L408 367Z"  />
<glyph unicode="s" horiz-adv-x="350" d="M344 391Q290 439 255 439Q230 439 210 423T190 382Q190 349 230 312Q249 295 268 279T306 245Q346 201 346 149Q346 70 281 26Q225 -12 142 -12Q83 -12 37 13L97 76Q136 30 193 30Q225 30 249 50T273 101Q273 138 233 175L161 242Q121 285 121 333Q121 399 171 441Q217 480 286 480Q334 480 400 452L344 391Z"  />
<glyph unicode="t" horiz-adv-x="319" d="M403 467L392 426H248L199 187Q186 126 186 103Q186 76 208 60Q227 45 256 45Q283 45 314 64L328 47Q266 -6 200 -6Q157 -6 131 19T104 88Q104 111 123 205L167 426H107L117 463Q199 470 242 572H278L256 467H403Z"  />
<glyph unicode="u" horiz-adv-x="477" d="M504 467L409 0H328L379 254Q235 -12 130 -12Q88 -12 88 40Q88 66 98 113L171 467H253L182 125Q180 113 179 106T177 97Q177 79 196 79Q222 79 272 138Q377 264 424 467H504Z"  />
<glyph unicode="v" horiz-adv-x="413" d="M504 467Q468 388 430 318T350 184Q221 -12 132 -12Q91 -12 91 37Q91 58 102 113L175 467H256L185 125Q179 96 179 93Q179 77 194 77Q253 77 340 232Q421 377 421 447V467H504Z"  />
<glyph unicode="w" horiz-adv-x="662" d="M758 467Q722 388 684 318T604 184Q475 -12 386 -12Q341 -12 341 45Q341 83 356 151L380 254Q236 -12 131 -12Q89 -12 89 41Q89 66 99 113L172 467H254L183 125Q181 113 180 106T178 97Q178 79 197 79Q223 79 273 138Q377 262 425 467H507L435 126Q432 112 432 95Q432 77 449 77Q507 77 593 232Q673 378 673 448V467H758Z"  />
<glyph unicode="x" horiz-adv-x="352" d="M445 467L268 247L324 0H237L198 188L49 0H5L188 228L134 467H223L258 291L401 467H445Z"  />
<glyph unicode="y" horiz-adv-x="477" d="M504 467L409 0Q397 -60 382 -91Q362 -132 325 -166Q251 -231 147 -231Q76 -231 21 -197L78 -137Q116 -187 170 -187Q244 -187 284 -126Q312 -83 328 0L378 253Q239 -12 129 -12Q87 -12 87 40Q87 66 97 113L170 467H253L181 125Q179 113 178 106T176 97Q176 79 195 79Q227 79 276 143Q309 183 337 233Q389 326 409 407L423 467H504Z"  />
<glyph unicode="z" horiz-adv-x="398" d="M460 467L450 424L135 78L381 79L365 0H37L45 40L364 389L119 388L136 467H460Z"  />
<glyph unicode="{" horiz-adv-x="313" d="M303 -196H236Q188 -196 160 -154Q134 -116 134 -67V104Q134 236 53 245V286Q134 295 134 421V593Q134 642 160 680Q188 722 236 722H303V681H259Q213 681 213 599V405Q213 361 190 321Q164 278 125 265V263Q168 246 190 205Q213 167 213 120V-74Q213 -156 259 -156H303V-196Z"  />
<glyph unicode="|" horiz-adv-x="222" d="M76 -144V856H145V-144H76Z"  />
<glyph unicode="}" horiz-adv-x="333" d="M375 245Q294 236 294 104V-67Q294 -117 269 -154Q240 -196 192 -196H125V-156H169Q215 -156 215 -74V120Q215 167 238 205Q261 246 303 263V265Q264 278 238 321Q215 361 215 405V599Q215 681 169 681H125V722H192Q239 722 269 680Q294 643 294 593V421Q294 295 375 286V245Z"  />
<glyph unicode="~" horiz-adv-x="490" d="M517 343Q515 320 508 298T488 260T456 233T411 223Q386 223 357 231T299 250T243 270T195 279Q170 279 156 261T137 219H93Q96 241 103 263T122 302T154 329T199 340Q224 340 252 331T309 312T365 293T415 284Q441 284 455 301T474 343H517H517Z"  />
<glyph unicode="&#xA0;" horiz-adv-x="245" />
<glyph unicode="&#xA1;" horiz-adv-x="251" d="M229 333L132 -158H53L160 333H229ZM278 540L256 438H176L198 540H278Z"  />
<glyph unicode="&#xA2;" horiz-adv-x="490" d="M354 436Q348 439 338 439Q274 439 240 325Q214 239 214 159Q214 96 241 66L354 436ZM403 347Q397 388 375 423L261 52Q284 39 316 39Q367 39 438 87L453 69Q343 -14 267 -14Q260 -14 254 -14T241 -12L227 -57H204L219 -9Q121 14 121 136Q121 250 187 354Q259 469 367 480L383 531H407L392 480Q461 485 490 382L403 347Z"  />
<glyph unicode="&#xA3;" horiz-adv-x="490" d="M469 512Q455 554 436 572Q413 593 373 593Q318 593 280 559Q240 523 240 470Q240 440 251 388Q256 368 260 347T270 306H421L413 267H275Q274 207 255 167Q235 125 189 89Q241 89 273 76L330 48Q367 31 388 31Q422 31 474 83L494 69Q426 -17 348 -17Q309 -17 254 10Q199 38 169 38Q134 38 108 24Q89 13 61 -18L43 -6Q63 32 83 48L140 84Q199 122 199 219Q199 229 198 241T195 267H93L102 306H183Q167 361 167 397Q167 498 235 566Q305 634 407 634Q464 634 492 615Q519 598 545 545L469 512Z"  />
<glyph unicode="&#xA4;" horiz-adv-x="490" d="M300 414Q276 414 255 405T219 380T195 343T186 298Q186 273 195 252T219 216T256 191T300 182Q324 182 345 191T381 217T405 254T414 298Q414 321 405 342T381 379T345 404T300 414ZM109 147L161 199Q144 224 137 248T129 298Q129 324 136 348T161 397L109 449L148 488L200 436Q228 455 251 461T300 468Q351 468 399 436L451 488L489 449L438 397Q470 355 470 297Q470 273 463 250T438 199L490 147L451 108L398 160Q372 142 348 135T300 128Q245 128 201 160L149 108L109 147Z"  />
<glyph unicode="&#xA5;" horiz-adv-x="490" d="M560 631L369 297H463L455 257H344Q343 256 325 179H437L429 139H316L287 0H198L226 139H103L112 180H235L250 245L248 256H129L138 298H241L168 631H257L325 305L512 631H560Z"  />
<glyph unicode="&#xA6;" horiz-adv-x="222" d="M76 481V731H145V481H76ZM76 -19V231H145V-19H76Z"  />
<glyph unicode="&#xA7;" horiz-adv-x="390" d="M346 309Q346 340 312 380Q307 386 293 400T254 437Q187 397 187 357Q187 329 223 289L279 231Q346 270 346 309ZM413 631Q363 675 316 675Q288 675 265 658Q241 640 241 612Q241 581 288 539Q310 520 331 501T374 462Q420 413 420 362Q420 312 386 272Q365 248 311 207Q369 158 369 108Q369 41 304 -7Q245 -51 175 -51Q111 -51 54 -21L101 27Q127 -14 187 -14Q226 -14 258 4Q294 25 294 62Q294 91 248 131L161 208Q114 257 114 300Q114 400 226 461Q171 509 171 555Q171 624 225 668Q274 707 347 707Q403 707 453 679L413 631Z"  />
<glyph unicode="&#xA8;" horiz-adv-x="400" d="M147 591H81L104 696H170L147 591ZM296 591H230L253 696H319L296 591Z"  />
<glyph unicode="&#xA9;" horiz-adv-x="747" d="M602 164Q567 136 532 123T456 109Q361 109 308 165T254 319Q254 366 267 405T306 473T367 518T446 534Q486 534 521 520T592 474L533 434Q507 466 485 482T434 498Q392 498 366 463T339 355Q339 313 349 276T378 210T424 166T484 149Q505 149 528 156T578 183L602 164ZM118 318Q118 385 143 444T213 548T316 618T443 644Q510 644 569 619T673 549T743 445T769 318Q769 250 744 191T674 88T570 19T443 -7Q375 -7 316 18T213 88T144 191T118 318ZM158 317Q158 257 180 204T240 112T331 49T443 26Q503 26 555 49T646 111T707 204T729 317Q729 377 707 430T646 523T555 586T443 609Q383 609 331 586T241 523T180 430T158 317Z"  />
<glyph unicode="&#xAA;" horiz-adv-x="318" d="M348 584Q348 603 325 603Q279 603 208 493Q166 428 166 378Q166 350 184 350Q222 350 287 448Q348 542 348 584ZM412 628L344 292H285L322 473Q289 408 246 358Q186 285 139 285Q99 285 99 335Q99 402 182 508Q227 565 253 587Q299 625 349 627L412 628Z"  />
<glyph unicode="&#xAB;" horiz-adv-x="398" d="M320 467L171 298L231 116H145L89 283L247 467H320ZM472 467L322 298L383 116H296L240 283L398 467H472Z"  />
<glyph unicode="&#xAC;" horiz-adv-x="490" d="M445 169V331H101V394H508V169H445Z"  />
<glyph unicode="&#xAD;" horiz-adv-x="333" d="M331 328L316 272H133L148 328H331Z"  />
<glyph unicode="&#xAE;" horiz-adv-x="518" d="M378 498Q378 527 362 538T315 550H306V451H322Q350 451 364 464T378 498ZM443 328H386L323 431H306V328H256V569H331Q426 569 426 502Q426 453 373 438L443 328ZM172 443Q172 408 185 378T221 324T274 288T339 274Q373 274 403 287T457 324T493 377T506 443Q506 478 493 508T457 562T404 598T339 612Q304 612 274 599T221 562T185 509T172 443ZM138 443Q138 485 154 521T197 585T260 628T339 644Q381 644 417 628T481 585T524 522T540 443Q540 401 524 365T481 301T418 258T339 242Q297 242 261 258T197 301T154 364T138 443Z"  />
<glyph unicode="&#xAF;" horiz-adv-x="400" d="M319 621H71L80 666H328L319 621Z"  />
<glyph unicode="&#xB0;" horiz-adv-x="245" d="M348 506Q348 480 338 458T311 418T272 391T223 381Q197 381 175 391T135 418T108 457T98 506Q98 532 108 554T135 594T174 620T223 630Q249 630 271 621T311 594T338 555T348 506ZM293 506Q293 535 273 556T223 577Q194 577 174 556T153 506Q153 477 173 456T223 434Q252 434 272 455T293 506Z"  />
<glyph unicode="&#xB1;" horiz-adv-x="490" d="M338 296V163H270V296H101V358H270V493H338V358H508V296H338ZM101 70V131H508V70H101Z"  />
<glyph unicode="&#xB2;" horiz-adv-x="438" d="M311 563Q311 479 136 353H271L263 314H72L76 336Q108 356 136 378T188 426Q251 493 251 547Q251 589 213 589Q185 589 140 553L129 562Q193 622 245 622Q311 622 311 563Z"  />
<glyph unicode="&#xB3;" horiz-adv-x="460" d="M295 560Q295 499 213 474Q286 470 286 422Q286 360 210 320Q155 289 82 279L80 293Q149 310 180 331Q228 362 228 420Q228 457 165 456L164 470Q239 480 239 541Q239 579 200 579Q172 579 132 545L124 555Q182 611 232 611Q258 611 275 599Q295 584 295 560Z"  />
<glyph unicode="&#xB4;" horiz-adv-x="400" d="M280 694L168 600H119L185 694H280Z"  />
<glyph unicode="&#xB5;" horiz-adv-x="533" d="M393 0L408 67Q376 32 342 14T264 -5Q226 -5 204 8T166 51L116 -184H44L183 468H255L205 235Q199 205 195 174T195 116T220 73T279 56Q318 56 345 73T391 116T421 174T439 237L488 468H560L460 0H393Z"  />
<glyph unicode="&#xB6;" horiz-adv-x="489" d="M247 -123H205L290 277Q217 283 178 321T138 420Q138 469 156 508T204 574T274 615T357 629H539L379 -123H294L449 607H402L247 -123Z"  />
<glyph unicode="&#xB7;" horiz-adv-x="168" d="M203 323Q203 300 186 283Q170 267 146 267Q123 267 106 284Q90 300 90 323Q90 346 107 363Q124 380 147 380Q169 380 186 363Q203 346 203 323Z"  />
<glyph unicode="&#xB8;" horiz-adv-x="400" d="M304 -89Q304 -119 290 -140T253 -176T201 -196T142 -203Q131 -203 118 -201T96 -196L109 -163Q114 -165 123 -167T145 -169Q162 -169 179 -165T210 -154T232 -136T241 -112Q241 -99 231 -91T207 -83Q186 -83 156 -96L141 -82L213 26H248L203 -50Q233 -40 250 -40Q275 -40 289 -54T304 -89Z"  />
<glyph unicode="&#xB9;" horiz-adv-x="419" d="M272 625L207 315H156L210 569L117 518L110 534L272 625Z"  />
<glyph unicode="&#xBA;" horiz-adv-x="356" d="M358 503Q358 540 346 569Q329 607 297 607Q251 607 226 535Q205 479 205 425Q205 318 263 318Q310 318 337 391Q358 446 358 503ZM422 531Q422 446 374 371Q320 286 239 286Q140 286 140 391Q140 479 190 553Q246 636 329 636Q422 636 422 531Z"  />
<glyph unicode="&#xBB;" horiz-adv-x="392" d="M281 299L123 115H50L199 285L139 467H225L281 299ZM433 299L275 115H201L351 285L290 467H377L433 299Z"  />
<glyph unicode="&#xBC;" horiz-adv-x="572" d="M491 252L367 107H459L491 252ZM555 108L547 75H502L485 -3H436L453 75H328L333 97L503 298H549L509 108H555ZM564 604L136 -1H72L502 604H564ZM272 625L207 315H156L210 569L117 518L110 534L272 625Z"  />
<glyph unicode="&#xBD;" horiz-adv-x="572" d="M560 248Q560 164 385 38H521L512 -1H321L325 21Q357 41 385 63T437 111Q500 178 500 232Q500 274 463 274Q434 274 389 238L378 248Q443 307 494 307Q560 307 560 248ZM564 604L136 -1H72L502 604H564ZM272 625L207 315H156L210 569L117 518L110 534L272 625Z"  />
<glyph unicode="&#xBE;" horiz-adv-x="581" d="M491 252L367 107H459L491 252ZM555 108L547 75H502L485 -3H436L453 75H328L333 97L503 298H549L509 108H555ZM295 560Q295 499 213 474Q286 470 286 422Q286 360 210 320Q155 289 82 279L80 293Q149 310 180 331Q228 362 228 420Q228 457 165 456L164 470Q239 480 239 541Q239 579 200 579Q172 579 132 545L124 555Q182 611 232 611Q258 611 275 599Q295 584 295 560ZM586 605L158 0H94L524 605H586Z"  />
<glyph unicode="&#xBF;" horiz-adv-x="385" d="M352 -39Q323 -69 300 -90T260 -122Q204 -158 144 -158Q26 -158 26 -36Q26 100 283 327L313 304Q122 96 122 -10Q122 -46 140 -68Q159 -92 194 -92Q249 -92 332 -20L352 -39ZM358 541L336 440H255L276 542L358 541Z"  />
<glyph unicode="&#xC0;" horiz-adv-x="446" d="M335 219L309 511L168 220L335 219ZM446 0H356L339 177H146L58 0H6L327 631H382L446 0ZM393 671H347L268 766H357L393 671Z"  />
<glyph unicode="&#xC1;" horiz-adv-x="446" d="M335 219L309 511L168 220L335 219ZM446 0H356L339 177H146L58 0H6L327 631H382L446 0ZM466 769L354 675H305L371 769H466Z"  />
<glyph unicode="&#xC2;" horiz-adv-x="446" d="M335 219L309 511L168 220L335 219ZM446 0H356L339 177H146L58 0H6L327 631H382L446 0ZM477 674H423L376 749Q367 741 356 730Q346 720 332 707T297 674H250L330 769H440L477 674Z"  />
<glyph unicode="&#xC3;" horiz-adv-x="446" d="M335 219L309 511L168 220L335 219ZM446 0H356L339 177H146L58 0H6L327 631H382L446 0ZM507 758Q468 674 408 674Q399 674 382 679T347 692T312 704T289 710Q262 710 240 670L220 676Q261 759 319 759Q329 759 345 754T379 742T412 731T437 725Q466 725 488 763L507 758Z"  />
<glyph unicode="&#xC4;" horiz-adv-x="446" d="M335 219L309 511L168 220L335 219ZM446 0H356L339 177H146L58 0H6L327 631H382L446 0ZM302 673H236L259 778H325L302 673ZM469 673H403L426 778H492L469 673Z"  />
<glyph unicode="&#xC5;" horiz-adv-x="446" d="M335 219L309 511L168 220L335 219ZM446 0H356L339 177H146L58 0H6L327 631H382L446 0ZM283 723Q283 742 290 759T310 790T340 810T376 818Q408 818 426 800T444 755Q444 717 418 690T349 662Q319 662 301 679T283 723ZM371 784Q351 784 335 769T319 730Q319 715 328 706T354 696Q377 696 392 712T408 750Q408 764 398 774T371 784Z"  />
<glyph unicode="&#xC6;" horiz-adv-x="649" d="M413 550L276 336H384L413 550ZM731 630L720 582H501L470 336H672L662 288H464L434 45H637L627 0H337L377 288H246L59 0H1L412 630H731Z"  />
<glyph unicode="&#xC7;" horiz-adv-x="485" d="M329 -89Q329 -119 315 -140T279 -176T228 -196T169 -203Q158 -203 146 -201T125 -197L138 -164Q143 -166 151 -167T172 -169Q189 -169 206 -165T236 -154T258 -136T266 -112Q266 -99 256 -91T232 -83Q211 -83 181 -96L166 -82L212 -4Q87 23 87 197Q87 351 166 484Q257 640 400 640Q485 640 546 549L477 501Q444 595 368 595Q275 595 223 465Q181 364 181 254Q181 40 321 40Q369 40 439 89L454 71Q362 -10 266 -10Q260 -10 254 -10T243 -9L222 -50Q256 -40 275 -40Q300 -40 314 -54T329 -89Z"  />
<glyph unicode="&#xC8;" horiz-adv-x="404" d="M495 629L485 582H279L231 349H427L418 300L219 301L169 45H393L383 0H68L200 629H495ZM392 671H346L267 766H356L392 671Z"  />
<glyph unicode="&#xC9;" horiz-adv-x="404" d="M495 629L485 582H279L231 349H427L418 300L219 301L169 45H393L383 0H68L200 629H495ZM446 769L334 675H285L351 769H446Z"  />
<glyph unicode="&#xCA;" horiz-adv-x="404" d="M495 629L485 582H279L231 349H427L418 300L219 301L169 45H393L383 0H68L200 629H495ZM466 674H412L365 749Q356 741 345 730Q335 720 321 707T286 674H239L319 769H429L466 674Z"  />
<glyph unicode="&#xCB;" horiz-adv-x="404" d="M495 629L485 582H279L231 349H427L418 300L219 301L169 45H393L383 0H68L200 629H495ZM301 673H235L258 778H324L301 673ZM468 673H402L425 778H491L468 673Z"  />
<glyph unicode="&#xCC;" horiz-adv-x="225" d="M292 629L160 0H75L207 629H292ZM306 671H260L181 766H270L306 671Z"  />
<glyph unicode="&#xCD;" horiz-adv-x="225" d="M292 629L160 0H75L207 629H292ZM360 769L248 675H199L265 769H360Z"  />
<glyph unicode="&#xCE;" horiz-adv-x="225" d="M292 629L160 0H75L207 629H292ZM371 674H317L270 749Q261 741 250 730Q240 720 226 707T191 674H144L224 769H334L371 674Z"  />
<glyph unicode="&#xCF;" horiz-adv-x="225" d="M292 629L160 0H75L207 629H292ZM196 673H130L153 778H219L196 673ZM363 673H297L320 778H386L363 673Z"  />
<glyph unicode="&#xD0;" horiz-adv-x="508" d="M441 429Q441 594 311 594H257L222 423H359L347 366H210L138 37H197Q293 37 339 89Q384 138 414 250Q441 347 441 429ZM535 428Q535 328 494 229Q451 128 375 65Q352 46 330 33T285 13Q246 0 181 0H46L125 366H39L51 423H137L180 630H226Q242 631 253 631T271 631Q400 631 455 600Q535 555 535 428Z"  />
<glyph unicode="&#xD1;" horiz-adv-x="513" d="M575 628L443 0H375L212 460L118 0H70L200 627H250L426 130L530 628H575ZM550 758Q511 674 451 674Q442 674 425 679T390 692T355 704T332 710Q305 710 283 670L263 676Q304 759 362 759Q372 759 388 754T422 742T455 731T480 725Q509 725 531 763L550 758Z"  />
<glyph unicode="&#xD2;" horiz-adv-x="548" d="M498 367Q498 453 472 513Q437 593 362 593Q280 593 227 471Q184 373 184 275Q184 188 209 125Q243 35 316 35Q403 35 456 163Q498 263 498 367ZM592 429Q592 271 511 141Q418 -10 271 -10Q186 -10 136 49Q89 105 89 191Q89 395 189 519Q288 641 410 641Q501 641 549 579Q592 524 592 429ZM441 671H395L316 766H405L441 671Z"  />
<glyph unicode="&#xD3;" horiz-adv-x="548" d="M498 367Q498 453 472 513Q437 593 362 593Q280 593 227 471Q184 373 184 275Q184 188 209 125Q243 35 316 35Q403 35 456 163Q498 263 498 367ZM592 429Q592 271 511 141Q418 -10 271 -10Q186 -10 136 49Q89 105 89 191Q89 395 189 519Q288 641 410 641Q501 641 549 579Q592 524 592 429ZM523 769L411 675H362L428 769H523Z"  />
<glyph unicode="&#xD4;" horiz-adv-x="548" d="M498 367Q498 453 472 513Q437 593 362 593Q280 593 227 471Q184 373 184 275Q184 188 209 125Q243 35 316 35Q403 35 456 163Q498 263 498 367ZM592 429Q592 271 511 141Q418 -10 271 -10Q186 -10 136 49Q89 105 89 191Q89 395 189 519Q288 641 410 641Q501 641 549 579Q592 524 592 429ZM525 674H471L424 749Q415 741 404 730Q394 720 380 707T345 674H298L378 769H488L525 674Z"  />
<glyph unicode="&#xD5;" horiz-adv-x="548" d="M498 367Q498 453 472 513Q437 593 362 593Q280 593 227 471Q184 373 184 275Q184 188 209 125Q243 35 316 35Q403 35 456 163Q498 263 498 367ZM592 429Q592 271 511 141Q418 -10 271 -10Q186 -10 136 49Q89 105 89 191Q89 395 189 519Q288 641 410 641Q501 641 549 579Q592 524 592 429ZM555 758Q516 674 456 674Q447 674 430 679T395 692T360 704T337 710Q310 710 288 670L268 676Q309 759 367 759Q377 759 393 754T427 742T460 731T485 725Q514 725 536 763L555 758Z"  />
<glyph unicode="&#xD6;" horiz-adv-x="548" d="M498 367Q498 453 472 513Q437 593 362 593Q280 593 227 471Q184 373 184 275Q184 188 209 125Q243 35 316 35Q403 35 456 163Q498 263 498 367ZM592 429Q592 271 511 141Q418 -10 271 -10Q186 -10 136 49Q89 105 89 191Q89 395 189 519Q288 641 410 641Q501 641 549 579Q592 524 592 429ZM350 673H284L307 778H373L350 673ZM517 673H451L474 778H540L517 673Z"  />
<glyph unicode="&#xD7;" horiz-adv-x="490" d="M453 87L304 235L155 87L110 132L258 281L110 430L155 476L304 327L453 476L499 430L350 281L499 132L453 87Z"  />
<glyph unicode="&#xD8;" horiz-adv-x="545" d="M501 368Q501 411 491 458L212 123Q252 38 318 38Q406 38 458 165Q501 264 501 368ZM478 515Q431 596 368 596Q279 596 227 469Q184 370 184 265Q184 217 195 173L478 515ZM637 639L569 553Q595 490 595 429Q595 273 514 143Q419 -7 273 -7Q230 -7 206 1Q178 11 148 40L113 0H50L119 81Q91 141 91 207Q91 362 171 493Q264 644 410 644Q494 644 542 591L580 640L637 639Z"  />
<glyph unicode="&#xD9;" horiz-adv-x="510" d="M580 629L485 184Q466 97 398 44Q334 -5 241 -5Q173 -5 126 32Q74 72 74 137Q74 171 84 215L173 630H264L176 217Q167 175 167 149Q167 100 198 70T279 39Q341 39 388 83Q430 125 443 188L537 630L580 629ZM442 671H396L317 766H406L442 671Z"  />
<glyph unicode="&#xDA;" horiz-adv-x="510" d="M580 629L485 184Q466 97 398 44Q334 -5 241 -5Q173 -5 126 32Q74 72 74 137Q74 171 84 215L173 630H264L176 217Q167 175 167 149Q167 100 198 70T279 39Q341 39 388 83Q430 125 443 188L537 630L580 629ZM523 769L411 675H362L428 769H523Z"  />
<glyph unicode="&#xDB;" horiz-adv-x="510" d="M580 629L485 184Q466 97 398 44Q334 -5 241 -5Q173 -5 126 32Q74 72 74 137Q74 171 84 215L173 630H264L176 217Q167 175 167 149Q167 100 198 70T279 39Q341 39 388 83Q430 125 443 188L537 630L580 629ZM516 674H462L415 749Q406 741 395 730Q385 720 371 707T336 674H289L369 769H479L516 674Z"  />
<glyph unicode="&#xDC;" horiz-adv-x="510" d="M580 629L485 184Q466 97 398 44Q334 -5 241 -5Q173 -5 126 32Q74 72 74 137Q74 171 84 215L173 630H264L176 217Q167 175 167 149Q167 100 198 70T279 39Q341 39 388 83Q430 125 443 188L537 630L580 629ZM341 673H275L298 778H364L341 673ZM508 673H442L465 778H531L508 673Z"  />
<glyph unicode="&#xDD;" horiz-adv-x="414" d="M540 631L394 378Q381 359 363 328T321 252L271 0H180L229 245L148 631H238L304 305L492 631H540ZM489 769L377 675H328L394 769H489Z"  />
<glyph unicode="&#xDE;" horiz-adv-x="431" d="M429 473Q429 590 326 590H281L228 323Q261 314 277 314Q341 314 385 361Q429 408 429 473ZM511 504Q511 381 397 314Q333 276 217 274L160 0H76Q99 117 134 289T219 694H300L287 632H364Q431 632 469 602Q511 567 511 504Z"  />
<glyph unicode="&#xDF;" horiz-adv-x="519" d="M555 598Q555 538 508 467Q467 459 443 454T411 447Q350 425 350 384Q350 353 391 315L467 247Q508 201 508 151Q508 77 445 32Q387 -9 311 -9Q241 -9 200 20L254 75Q288 29 340 29Q376 29 403 50Q433 72 433 108Q433 143 394 181Q375 197 357 213T320 246Q281 289 281 338Q281 432 387 469Q437 487 453 501Q476 524 476 571Q476 614 456 643Q434 677 392 677Q346 677 310 647T265 570L149 0H66L162 465Q184 575 244 641Q311 716 418 716Q476 716 514 687Q555 655 555 598Z"  />
<glyph unicode="&#xE0;" horiz-adv-x="449" d="M393 407Q393 434 360 434Q324 434 267 373Q228 331 195 280Q136 188 136 120Q136 81 161 81Q217 81 307 219Q393 350 393 407ZM484 467L387 0H304L357 252Q331 206 304 166T248 91Q161 -10 95 -10Q69 -10 54 13Q41 32 41 60Q41 146 145 286Q196 353 241 395T329 456Q356 467 394 467H484ZM421 600H375L296 695H385L421 600Z"  />
<glyph unicode="&#xE1;" horiz-adv-x="449" d="M393 407Q393 434 360 434Q324 434 267 373Q228 331 195 280Q136 188 136 120Q136 81 161 81Q217 81 307 219Q393 350 393 407ZM484 467L387 0H304L357 252Q331 206 304 166T248 91Q161 -10 95 -10Q69 -10 54 13Q41 32 41 60Q41 146 145 286Q196 353 241 395T329 456Q356 467 394 467H484ZM494 694L382 600H333L399 694H494Z"  />
<glyph unicode="&#xE2;" horiz-adv-x="449" d="M393 407Q393 434 360 434Q324 434 267 373Q228 331 195 280Q136 188 136 120Q136 81 161 81Q217 81 307 219Q393 350 393 407ZM484 467L387 0H304L357 252Q331 206 304 166T248 91Q161 -10 95 -10Q69 -10 54 13Q41 32 41 60Q41 146 145 286Q196 353 241 395T329 456Q356 467 394 467H484ZM489 598H437L389 673L310 598H258L336 693H453L489 598Z"  />
<glyph unicode="&#xE3;" horiz-adv-x="449" d="M393 407Q393 434 360 434Q324 434 267 373Q228 331 195 280Q136 188 136 120Q136 81 161 81Q217 81 307 219Q393 350 393 407ZM484 467L387 0H304L357 252Q331 206 304 166T248 91Q161 -10 95 -10Q69 -10 54 13Q41 32 41 60Q41 146 145 286Q196 353 241 395T329 456Q356 467 394 467H484ZM521 690Q474 603 419 603Q410 603 393 609T358 621T323 634T300 640Q272 640 250 600L227 601Q273 689 330 689Q340 689 356 684T389 672T423 660T448 654Q476 654 498 692L521 690Z"  />
<glyph unicode="&#xE4;" horiz-adv-x="449" d="M393 407Q393 434 360 434Q324 434 267 373Q228 331 195 280Q136 188 136 120Q136 81 161 81Q217 81 307 219Q393 350 393 407ZM484 467L387 0H304L357 252Q331 206 304 166T248 91Q161 -10 95 -10Q69 -10 54 13Q41 32 41 60Q41 146 145 286Q196 353 241 395T329 456Q356 467 394 467H484ZM321 591H255L278 696H344L321 591ZM470 591H404L427 696H493L470 591Z"  />
<glyph unicode="&#xE5;" horiz-adv-x="449" d="M393 407Q393 434 360 434Q324 434 267 373Q228 331 195 280Q136 188 136 120Q136 81 161 81Q217 81 307 219Q393 350 393 407ZM484 467L387 0H304L357 252Q331 206 304 166T248 91Q161 -10 95 -10Q69 -10 54 13Q41 32 41 60Q41 146 145 286Q196 353 241 395T329 456Q356 467 394 467H484ZM303 633Q303 652 310 669T330 700T360 720T396 728Q428 728 446 710T464 665Q464 627 438 600T369 572Q339 572 321 589T303 633ZM391 694Q371 694 355 679T339 640Q339 625 348 616T374 606Q397 606 412 622T428 660Q428 674 418 684T391 694Z"  />
<glyph unicode="&#xE6;" horiz-adv-x="669" d="M321 213Q239 200 208 184Q150 156 150 93Q150 52 188 52Q230 52 272 113Q303 157 321 213ZM594 396Q594 448 555 448Q496 448 460 381Q441 347 421 263Q522 279 542 290Q594 315 594 396ZM677 384Q677 356 663 322L634 264L415 228Q409 184 409 153Q409 41 506 41Q567 41 630 89L648 70Q547 -13 450 -13Q324 -13 316 130Q229 -12 131 -12Q96 -12 73 7T50 62Q50 130 112 178Q165 219 237 232L329 248Q350 324 350 357Q350 428 285 428Q234 428 157 376L146 395Q200 437 236 455Q287 478 341 478Q424 478 427 416Q444 433 459 444T488 463Q521 481 562 481Q611 481 643 458Q677 433 677 384Z"  />
<glyph unicode="&#xE7;" horiz-adv-x="375" d="M292 -89Q292 -119 278 -140T241 -176T189 -196T130 -203Q119 -203 106 -201T84 -196L97 -163Q102 -165 111 -167T133 -169Q150 -169 167 -165T198 -154T220 -136T229 -112Q229 -99 219 -91T195 -83Q174 -83 144 -96L129 -82L176 -10Q135 -2 112 25Q78 62 78 130Q78 252 144 359Q221 481 337 481Q423 481 447 383L360 347Q346 440 292 440Q232 440 197 324Q172 240 172 156Q172 40 269 40Q330 40 393 88L411 69Q310 -14 213 -14H212L191 -50Q221 -40 238 -40Q263 -40 277 -54T292 -89Z"  />
<glyph unicode="&#xE8;" horiz-adv-x="410" d="M364 393Q364 446 325 446Q263 446 229 380Q207 341 191 261Q282 271 312 288Q364 316 364 393ZM447 377Q447 342 404 262L185 226Q179 184 179 151Q179 39 276 39Q335 39 400 86L418 67Q318 -15 221 -15Q85 -15 85 133Q85 250 151 357Q228 479 337 479Q385 479 416 453Q447 425 447 377ZM398 600H352L273 695H362L398 600Z"  />
<glyph unicode="&#xE9;" horiz-adv-x="410" d="M364 393Q364 446 325 446Q263 446 229 380Q207 341 191 261Q282 271 312 288Q364 316 364 393ZM447 377Q447 342 404 262L185 226Q179 184 179 151Q179 39 276 39Q335 39 400 86L418 67Q318 -15 221 -15Q85 -15 85 133Q85 250 151 357Q228 479 337 479Q385 479 416 453Q447 425 447 377ZM456 694L344 600H295L361 694H456Z"  />
<glyph unicode="&#xEA;" horiz-adv-x="410" d="M364 393Q364 446 325 446Q263 446 229 380Q207 341 191 261Q282 271 312 288Q364 316 364 393ZM447 377Q447 342 404 262L185 226Q179 184 179 151Q179 39 276 39Q335 39 400 86L418 67Q318 -15 221 -15Q85 -15 85 133Q85 250 151 357Q228 479 337 479Q385 479 416 453Q447 425 447 377ZM461 598H409L361 673L282 598H230L308 693H425L461 598Z"  />
<glyph unicode="&#xEB;" horiz-adv-x="410" d="M364 393Q364 446 325 446Q263 446 229 380Q207 341 191 261Q282 271 312 288Q364 316 364 393ZM447 377Q447 342 404 262L185 226Q179 184 179 151Q179 39 276 39Q335 39 400 86L418 67Q318 -15 221 -15Q85 -15 85 133Q85 250 151 357Q228 479 337 479Q385 479 416 453Q447 425 447 377ZM293 591H227L250 696H316L293 591ZM442 591H376L399 696H465L442 591Z"  />
<glyph unicode="&#xEC;" horiz-adv-x="227" d="M253 467L156 -1L75 1L173 467H253ZM293 600H247L168 695H257L293 600Z"  />
<glyph unicode="&#xED;" horiz-adv-x="227" d="M253 467L156 -1L75 1L173 467H253ZM337 694L225 600H176L242 694H337Z"  />
<glyph unicode="&#xEE;" horiz-adv-x="227" d="M253 467L156 -1L75 1L173 467H253ZM351 598H299L251 673L172 598H120L198 693H315L351 598Z"  />
<glyph unicode="&#xEF;" horiz-adv-x="227" d="M253 467L156 -1L75 1L173 467H253ZM181 591H115L138 696H204L181 591ZM330 591H264L287 696H353L330 591Z"  />
<glyph unicode="&#xF0;" horiz-adv-x="446" d="M547 614L539 573H443Q482 502 482 407Q482 323 452 241Q417 144 355 75Q277 -12 191 -12Q74 -12 74 111Q74 192 131 296Q199 421 336 484L342 463L326 455Q254 417 209 326Q167 240 167 155Q167 44 240 44Q290 44 338 118Q352 140 363 167T385 230Q403 296 403 351Q403 478 328 573H132L141 614H291Q266 639 182 692H328Q359 669 381 650T416 614H547Z"  />
<glyph unicode="&#xF1;" horiz-adv-x="479" d="M492 423Q492 397 483 354L410 0H328L400 342Q403 355 403 366Q403 389 383 389Q339 389 269 284Q188 165 166 60L153 0H71L167 467H249L198 214Q335 480 447 480Q492 480 492 423ZM505 690Q458 603 403 603Q394 603 377 609T342 621T307 634T284 640Q256 640 234 600L211 601Q257 689 314 689Q324 689 340 684T373 672T407 660T432 654Q460 654 482 692L505 690Z"  />
<glyph unicode="&#xF2;" horiz-adv-x="463" d="M386 298Q386 345 368 386Q346 438 303 438Q268 438 232 393Q172 318 172 184Q172 35 253 35Q320 35 358 139Q386 216 386 298ZM475 332Q475 211 409 108Q333 -10 220 -10Q146 -10 113 26Q82 61 82 136Q82 258 151 362Q229 478 345 478Q475 478 475 332ZM401 600H355L276 695H365L401 600Z"  />
<glyph unicode="&#xF3;" horiz-adv-x="463" d="M386 298Q386 345 368 386Q346 438 303 438Q268 438 232 393Q172 318 172 184Q172 35 253 35Q320 35 358 139Q386 216 386 298ZM475 332Q475 211 409 108Q333 -10 220 -10Q146 -10 113 26Q82 61 82 136Q82 258 151 362Q229 478 345 478Q475 478 475 332ZM465 694L353 600H304L370 694H465Z"  />
<glyph unicode="&#xF4;" horiz-adv-x="463" d="M386 298Q386 345 368 386Q346 438 303 438Q268 438 232 393Q172 318 172 184Q172 35 253 35Q320 35 358 139Q386 216 386 298ZM475 332Q475 211 409 108Q333 -10 220 -10Q146 -10 113 26Q82 61 82 136Q82 258 151 362Q229 478 345 478Q475 478 475 332ZM469 598H417L369 673L290 598H238L316 693H433L469 598Z"  />
<glyph unicode="&#xF5;" horiz-adv-x="463" d="M386 298Q386 345 368 386Q346 438 303 438Q268 438 232 393Q172 318 172 184Q172 35 253 35Q320 35 358 139Q386 216 386 298ZM475 332Q475 211 409 108Q333 -10 220 -10Q146 -10 113 26Q82 61 82 136Q82 258 151 362Q229 478 345 478Q475 478 475 332ZM499 690Q452 603 397 603Q388 603 371 609T336 621T301 634T278 640Q250 640 228 600L205 601Q251 689 308 689Q318 689 334 684T367 672T401 660T426 654Q454 654 476 692L499 690Z"  />
<glyph unicode="&#xF6;" horiz-adv-x="463" d="M386 298Q386 345 368 386Q346 438 303 438Q268 438 232 393Q172 318 172 184Q172 35 253 35Q320 35 358 139Q386 216 386 298ZM475 332Q475 211 409 108Q333 -10 220 -10Q146 -10 113 26Q82 61 82 136Q82 258 151 362Q229 478 345 478Q475 478 475 332ZM299 591H233L256 696H322L299 591ZM448 591H382L405 696H471L448 591Z"  />
<glyph unicode="&#xF7;" horiz-adv-x="490" d="M354 427Q354 407 339 393T304 378Q283 378 269 392T254 427Q254 448 268 462T304 476Q325 476 339 462T354 427ZM101 250V312H508V250H101ZM354 135Q354 114 339 100T304 86Q284 86 269 100T254 135Q254 155 269 169T304 184Q325 184 339 170T354 135Z"  />
<glyph unicode="&#xF8;" horiz-adv-x="463" d="M183 118Q193 34 257 34Q331 34 372 165Q388 219 390 302Q390 310 391 313L183 118ZM384 347Q379 380 365 405Q345 437 316 437Q278 437 245 401Q219 373 202 331Q177 266 177 155V154L384 347ZM535 453Q524 443 508 428T470 393Q478 364 478 333Q478 197 402 88Q364 35 326 13Q285 -10 223 -10Q134 -10 105 46L42 -11L21 9L95 72Q84 105 84 134Q84 257 155 361Q235 477 352 477Q436 477 462 418L515 470L535 453Z"  />
<glyph unicode="&#xF9;" horiz-adv-x="477" d="M504 467L409 0H328L379 254Q235 -12 130 -12Q88 -12 88 40Q88 66 98 113L171 467H253L182 125Q180 113 179 106T177 97Q177 79 196 79Q222 79 272 138Q377 264 424 467H504ZM399 600H353L274 695H363L399 600Z"  />
<glyph unicode="&#xFA;" horiz-adv-x="477" d="M504 467L409 0H328L379 254Q235 -12 130 -12Q88 -12 88 40Q88 66 98 113L171 467H253L182 125Q180 113 179 106T177 97Q177 79 196 79Q222 79 272 138Q377 264 424 467H504ZM481 694L369 600H320L386 694H481Z"  />
<glyph unicode="&#xFB;" horiz-adv-x="477" d="M504 467L409 0H328L379 254Q235 -12 130 -12Q88 -12 88 40Q88 66 98 113L171 467H253L182 125Q180 113 179 106T177 97Q177 79 196 79Q222 79 272 138Q377 264 424 467H504ZM475 598H423L375 673L296 598H244L322 693H439L475 598Z"  />
<glyph unicode="&#xFC;" horiz-adv-x="477" d="M504 467L409 0H328L379 254Q235 -12 130 -12Q88 -12 88 40Q88 66 98 113L171 467H253L182 125Q180 113 179 106T177 97Q177 79 196 79Q222 79 272 138Q377 264 424 467H504ZM317 591H251L274 696H340L317 591ZM466 591H400L423 696H489L466 591Z"  />
<glyph unicode="&#xFD;" horiz-adv-x="477" d="M504 467L409 0Q397 -60 382 -91Q362 -132 325 -166Q251 -231 147 -231Q76 -231 21 -197L78 -137Q116 -187 170 -187Q244 -187 284 -126Q312 -83 328 0L378 253Q239 -12 129 -12Q87 -12 87 40Q87 66 97 113L170 467H253L181 125Q179 113 178 106T176 97Q176 79 195 79Q227 79 276 143Q309 183 337 233Q389 326 409 407L423 467H504ZM470 694L358 600H309L375 694H470Z"  />
<glyph unicode="&#xFE;" horiz-adv-x="497" d="M507 394Q507 337 485 262Q465 190 437 136Q370 6 235 -11L231 18Q316 31 356 107Q378 148 399 234Q420 319 420 367Q420 415 399 415Q361 415 292 306Q212 181 175 52Q168 29 153 -40T114 -227H30L220 695L303 696Q268 529 242 403T196 189Q330 470 456 470Q507 470 507 394Z"  />
<glyph unicode="&#xFF;" horiz-adv-x="477" d="M504 467L409 0Q397 -60 382 -91Q362 -132 325 -166Q251 -231 147 -231Q76 -231 21 -197L78 -137Q116 -187 170 -187Q244 -187 284 -126Q312 -83 328 0L378 253Q239 -12 129 -12Q87 -12 87 40Q87 66 97 113L170 467H253L181 125Q179 113 178 106T176 97Q176 79 195 79Q227 79 276 143Q309 183 337 233Q389 326 409 407L423 467H504ZM307 591H241L264 696H330L307 591ZM456 591H390L413 696H479L456 591Z"  />
<glyph unicode="&#x131;" horiz-adv-x="227" d="M253 467L156 -1L75 1L173 467H253Z"  />
<glyph unicode="&#x152;" horiz-adv-x="760" d="M502 369Q502 455 476 515Q441 596 365 596Q283 596 230 474Q188 376 188 279Q188 191 213 128Q249 38 321 38Q408 38 460 165Q502 265 502 369ZM857 629L847 582H636L586 349H786L775 300L577 301L523 45H746L736 0H428L439 51Q392 18 363 7Q324 -7 276 -7Q185 -7 137 56Q93 112 93 206Q93 363 172 493Q265 644 412 644Q459 644 490 630Q519 617 552 581L562 629H857Z"  />
<glyph unicode="&#x153;" horiz-adv-x="710" d="M383 298Q383 345 365 386Q343 438 300 438Q265 438 228 392Q169 318 169 184Q169 35 250 35Q317 35 355 139Q383 216 383 298ZM659 395Q659 448 620 448Q558 448 524 382Q504 344 487 262Q576 272 608 290Q659 318 659 395ZM742 383Q742 347 700 263L481 227Q475 185 475 152Q475 40 572 40Q633 40 696 88L714 69Q613 -14 516 -14Q418 -14 393 59Q392 63 390 67T386 79Q321 -10 219 -10Q144 -10 112 26T79 137Q79 258 148 362Q228 478 342 478Q369 478 388 474T422 459T447 432T467 389Q542 481 632 481Q678 481 709 456Q742 427 742 383Z"  />
<glyph unicode="&#x160;" horiz-adv-x="421" d="M442 535Q409 595 328 595Q286 595 255 572Q223 546 223 505Q223 456 274 404L371 313Q422 257 422 202Q422 116 344 49Q271 -15 182 -15Q86 -15 27 35L86 93Q128 35 210 35Q257 35 295 60Q339 89 339 132Q339 176 286 229Q261 253 237 277T188 324Q136 382 136 438Q136 528 205 585Q270 638 362 638Q416 638 496 596L442 535ZM509 761L403 667H286L218 761H269L349 688L456 761H509Z"  />
<glyph unicode="&#x161;" horiz-adv-x="350" d="M344 391Q290 439 255 439Q230 439 210 423T190 382Q190 349 230 312Q249 295 268 279T306 245Q346 201 346 149Q346 70 281 26Q225 -12 142 -12Q83 -12 37 13L97 76Q136 30 193 30Q225 30 249 50T273 101Q273 138 233 175L161 242Q121 285 121 333Q121 399 171 441Q217 480 286 480Q334 480 400 452L344 391ZM445 691L339 597H222L154 691H205L285 618L392 691H445Z"  />
<glyph unicode="&#x178;" horiz-adv-x="414" d="M540 631L394 378Q381 359 363 328T321 252L271 0H180L229 245L148 631H238L304 305L492 631H540ZM297 673H231L254 778H320L297 673ZM464 673H398L421 778H487L464 673Z"  />
<glyph unicode="&#x17D;" horiz-adv-x="428" d="M508 630L495 572L154 78H401L377 0H52L62 43L426 551L156 552L178 630H508ZM504 761L398 667H281L213 761H264L344 688L451 761H504Z"  />
<glyph unicode="&#x17E;" horiz-adv-x="398" d="M460 467L450 424L135 78L381 79L365 0H37L45 40L364 389L119 388L136 467H460ZM465 691L359 597H242L174 691H225L305 618L412 691H465Z"  />
<glyph unicode="&#x192;" horiz-adv-x="490" d="M500 642Q480 668 446 668Q395 668 374 620Q358 585 339 467H477L468 423H333L270 0Q256 -91 213 -143Q164 -204 78 -204Q22 -204 -6 -179L37 -144Q57 -170 91 -170Q145 -170 169 -108Q179 -84 191 1L252 425H180L189 467H262Q281 579 313 629Q359 702 458 702Q514 702 542 677L500 642Z"  />
<glyph unicode="&#x2C6;" horiz-adv-x="400" d="M315 598H263L215 673L136 598H84L162 693H279L315 598Z"  />
<glyph unicode="&#x2C7;" horiz-adv-x="400" d="M345 691L239 597H122L54 691H105L185 618L292 691H345Z"  />
<glyph unicode="&#x2DA;" horiz-adv-x="400" d="M119 633Q119 652 126 669T146 700T176 720T212 728Q244 728 262 710T280 665Q280 627 254 600T185 572Q155 572 137 589T119 633ZM207 694Q187 694 171 679T155 640Q155 625 164 616T190 606Q213 606 228 622T244 660Q244 674 234 684T207 694Z"  />
<glyph unicode="&#x2DC;" horiz-adv-x="400" d="M347 690Q300 603 245 603Q236 603 219 609T184 621T149 634T126 640Q98 640 76 600L53 601Q99 689 156 689Q166 689 182 684T215 672T249 660T274 654Q302 654 324 692L347 690Z"  />
<glyph unicode="&#x2013;" horiz-adv-x="500" d="M560 271H48L60 328H573L560 271Z"  />
<glyph unicode="&#x2014;" horiz-adv-x="1000" d="M876 271H210L223 328H889L876 271Z"  />
<glyph unicode="&#x2018;" horiz-adv-x="152" d="M293 743L214 545H134L247 743H293Z"  />
<glyph unicode="&#x2019;" horiz-adv-x="166" d="M280 697L206 499H162L203 697H280Z"  />
<glyph unicode="&#x201A;" horiz-adv-x="193" d="M182 111L69 -87H23L103 111H182Z"  />
<glyph unicode="&#x201C;" horiz-adv-x="249" d="M289 743L210 545H130L243 743H289ZM394 743L316 545H236L346 743H394Z"  />
<glyph unicode="&#x201D;" horiz-adv-x="249" d="M277 694L167 496H119L197 694H277ZM383 694L270 496H224L303 694H383Z"  />
<glyph unicode="&#x201E;" horiz-adv-x="326" d="M199 111L89 -87H41L119 111H199ZM305 111L192 -87H146L225 111H305Z"  />
<glyph unicode="&#x2020;" horiz-adv-x="423" d="M531 522L520 470H343L243 0H181L281 470H106L117 521L291 522L331 708H394L354 522H531Z"  />
<glyph unicode="&#x2021;" horiz-adv-x="483" d="M561 522L550 470H373L324 238H499L488 186H314L274 0H211L251 186H74L85 238H261L311 470H136L147 522H321L361 708H424L384 522H561Z"  />
<glyph unicode="&#x2022;" horiz-adv-x="295" d="M309 314Q309 275 280 248Q251 221 212 221Q172 221 144 248Q115 275 115 314Q115 353 144 379Q172 406 212 406Q251 406 280 379Q309 353 309 314Z"  />
<glyph unicode="&#x2026;" horiz-adv-x="600" d="M161 102L138 0H59L81 102H161ZM362 102L340 0H261L283 102H362ZM559 102L537 0H457L479 102H559Z"  />
<glyph unicode="&#x2030;" horiz-adv-x="720" d="M444 140Q444 247 395 247Q368 247 354 200Q344 167 344 128Q344 12 392 12Q421 12 435 63Q444 97 444 140ZM279 483Q279 590 231 590Q202 590 189 542Q180 509 180 470Q180 355 228 355Q256 355 270 406Q279 440 279 483ZM671 139Q671 246 622 246Q595 246 581 199Q571 166 571 127Q571 11 619 11Q648 11 662 62Q671 96 671 139ZM501 176Q501 112 468 57Q429 -9 370 -9Q289 -9 289 93Q289 156 323 209Q362 272 421 272Q501 272 501 176ZM554 605L126 0H62L492 605H554ZM336 518Q336 455 302 399Q264 334 205 334Q123 334 123 431Q123 495 157 550Q198 615 256 615Q336 615 336 518ZM729 173Q729 109 695 54Q656 -11 597 -11Q515 -11 515 86Q515 150 549 206Q589 270 649 270Q729 270 729 173Z"  />
<glyph unicode="&#x2039;" horiz-adv-x="252" d="M320 465L171 296L231 114H145L89 281L247 465H320Z"  />
<glyph unicode="&#x203A;" horiz-adv-x="247" d="M291 299L133 115H60L209 285L149 467H235L291 299Z"  />
<glyph unicode="&#x20AC;" horiz-adv-x="490" d="M174 380Q193 439 221 487T284 571T359 625T443 645Q479 645 514 626T584 554L515 507Q498 554 472 577T416 600Q363 600 322 547T253 380H458L440 336H244Q240 318 239 302T236 269H415L396 225H233Q233 140 264 95T356 49Q382 49 408 60T468 95L485 74Q438 33 396 14T306 -5Q225 -5 184 49T143 196Q143 203 143 210T144 225H68L85 269H150Q151 277 153 293T162 336H91L108 380H174Z"  />
<glyph unicode="&#x2122;" horiz-adv-x="800" d="M358 630V597H262V254H199V597H102V630H358ZM794 630V254H731V578L621 254H577L458 574V254H422V630H503L610 329L709 630H794Z"  />
<glyph unicode="&#xE300;" horiz-adv-x="400" d="M262 671H216L137 766H226L262 671Z"  />
<glyph unicode="&#xE301;" horiz-adv-x="400" d="M280 769L168 675H119L185 769H280Z"  />
<glyph unicode="&#xE302;" horiz-adv-x="400" d="M313 674H259L212 749Q203 741 192 730Q182 720 168 707T133 674H86L166 769H276L313 674Z"  />
<glyph unicode="&#xE303;" horiz-adv-x="400" d="M345 761L239 667H122L54 761H105L185 688L292 761H345Z"  />
<glyph unicode="&#xE304;" horiz-adv-x="400" d="M343 758Q304 674 244 674Q235 674 218 679T183 692T148 704T125 710Q98 710 76 670L56 676Q97 759 155 759Q165 759 181 754T215 742T248 731T273 725Q302 725 324 763L343 758Z"  />
<glyph unicode="&#xE305;" horiz-adv-x="400" d="M138 673H72L95 778H161L138 673ZM305 673H239L262 778H328L305 673Z"  />
<glyph unicode="&#xE308;" horiz-adv-x="400" d="M119 723Q119 742 126 759T146 790T176 810T212 818Q244 818 262 800T280 755Q280 717 254 690T185 662Q155 662 137 679T119 723ZM207 784Q187 784 171 769T155 730Q155 715 164 706T190 696Q213 696 228 712T244 750Q244 764 234 774T207 784Z"  />


</font>
</defs>
</svg>
