<?xml  version="1.0" encoding="UTF-8"?>
<!DOCTYPE svg PUBLIC "-//W3C//DTD SVG 1.0//EN" "http://www.w3.org/TR/2001/REC-SVG-20010904/DTD/svg10.dtd" >
<svg xmlns="http://www.w3.org/2000/svg" >
<metadata>
<version>1.0</version>
<id><![CDATA[Passage W01 Decor]]></id>
<vendor>Monotype Imaging Inc.</vendor>
<credits>
<name>Fonts.com WebFonts</name>
<URL>http://webfonts.fonts.com</URL>
<role>Home of the Web fonts</role>
</credits>
<license>
<URL>http://webfonts.fonts.com/Legal</URL>
</license>
<copyright><![CDATA[Copyright (c) 2010 by Tour de Force Font Foundy & Dusan Jelesijevic. All rights reserved.]]></copyright>
<trademark><![CDATA[Passage Decor is a trademark of Tour de Force Font Foundy & Dusan Jelesijevic.]]></trademark>
<licensee>
<name></name>
</licensee>
</metadata>
<defs >
<font horiz-adv-x="327" id="9638c2eb-225a-45bf-8fc0-b908feff05a2">
<font-face font-family="" panose-1="2 0 0 0 0 0 0 0 0 0" ascent="750" descent="-250" units-per-em="1000" alphabetic="0">
</font-face>
<missing-glyph horiz-adv-x="170" />

<glyph unicode="&#xA;" />
<glyph unicode="&#xD;" horiz-adv-x="254" />
<glyph unicode=" " horiz-adv-x="170" />
<glyph unicode="!" horiz-adv-x="218" d="M168 0H50V118H168V0ZM165 174H119V501H100V174H54V716H165V174Z"  />
<glyph unicode="&quot;" horiz-adv-x="192" d="M30 716H72V570H30V716ZM120 716H162V570H120V716Z"  />
<glyph unicode="#" d="M104 429L140 716H182L146 429H202L238 716H280L244 429H302L296 387H239L231 329H287L281 287H226L191 0H148L184 287H128L93 0H50L86 287H25L31 329H91L99 387H40L46 429H104ZM133 329H189L197 387H141L133 329Z"  />
<glyph unicode="$" horiz-adv-x="266" d="M31 119Q56 117 70 122V-56H31V119ZM235 602Q224 602 214 602T195 599V773H235V602ZM172 392Q187 375 202 355T230 310T250 255T255 187Q250 129 218 84T134 18V-56H90V125Q144 143 147 194Q153 236 136 266T92 326Q77 343 62 362T35 406T16 458T11 522Q14 582 47 630T133 697V773H176V593Q150 582 135 562T119 516Q114 478 131 450T172 392Z"  />
<glyph unicode="%" horiz-adv-x="475" d="M179 -7H149L297 545H278L130 -7H101L296 723H373L179 -7ZM122 723Q163 723 186 679T210 561Q210 542 207 515T195 461T168 417T121 398Q81 398 58 443T35 561Q35 580 38 608T50 661T76 705T122 723ZM81 561Q81 511 92 478T122 445Q140 445 151 478T162 561Q162 612 151 644T122 676Q103 676 92 644T81 561ZM121 415Q127 415 139 419T162 437T182 481T191 562Q191 610 183 638T164 681T141 700T121 705V696Q128 696 138 692T158 675T175 634T182 562Q182 514 175 487T157 445T137 428T121 424V415ZM352 -4Q323 -4 306 14T280 57T268 110T265 158Q265 231 288 276T351 321Q380 321 397 303T424 258T437 205T440 158Q440 84 417 40T352 -4ZM311 158Q311 107 322 75T352 43Q370 43 381 75T392 158Q392 208 381 241T352 274Q333 274 322 241T311 158ZM351 295Q357 295 367 292T387 274T404 233T412 157Q412 112 405 85T389 45T369 27T351 23V14Q359 14 371 18T394 37T413 80T421 157Q421 208 413 237T393 281T369 300T351 304V295Z"  />
<glyph unicode="&amp;" horiz-adv-x="483" d="M473 549V444H418V0H234Q193 0 157 16T93 59T51 122T35 199Q35 244 51 281T100 346Q69 374 52 419T35 509Q35 551 53 589T103 657T177 705T268 723V618Q241 618 218 610T178 588T150 553T140 509Q140 471 163 439T221 396V297Q186 286 163 258T140 199Q140 160 167 133T234 105H312V444H257V549H473ZM99 205Q99 241 114 265T147 305T180 328T198 336V354Q196 355 181 363T147 391T115 440T100 516H81Q81 479 91 451T115 402T145 367T173 346Q161 340 145 329T115 300T90 259T80 205H99ZM378 444H359V105H378V444Z"  />
<glyph unicode="&apos;" horiz-adv-x="122" d="M40 716H82V570H40V716Z"  />
<glyph unicode="(" horiz-adv-x="233" d="M50 276Q50 348 54 419T79 550T140 654T253 716V611Q221 600 202 571T172 498T159 397T156 274V200Q156 132 159 74T171 -29T200 -103T253 -145V-250Q179 -231 138 -186T78 -78T54 58T50 205V276ZM93 140H113V322H93V140Z"  />
<glyph unicode=")" horiz-adv-x="233" d="M183 205Q183 131 179 58T156 -77T95 -185T-20 -250V-145Q13 -133 32 -104T61 -29T74 74T77 200V274Q77 340 74 397T61 497T32 570T-20 611V716Q52 698 92 654T153 550T178 419T183 276V205ZM140 322H120V140H140V322Z"  />
<glyph unicode="*" horiz-adv-x="352" d="M155 609V716H197V609L291 664L312 628L217 573L312 519L291 483L197 537V427H155V537L61 483L40 519L134 573L40 628L61 664L155 609Z"  />
<glyph unicode="+" horiz-adv-x="318" d="M40 352V395H106V462H149V395H168V462H211V395H278V352H211V333H278V290H211V224H168V291H149V224H106V290H40V333H106V352H40Z"  />
<glyph unicode="&#x2c;" horiz-adv-x="143" d="M56 -9Q62 2 64 17T62 52H102Q107 5 88 -29Q77 -48 56 -62T9 -84L0 -47Q21 -40 34 -32T56 -9Z"  />
<glyph unicode="-" horiz-adv-x="275" d="M235 334V291H40V334H106V353H40V396H235V353H168V334H235Z"  />
<glyph unicode="." horiz-adv-x="137" d="M97 0H40V57H97V0Z"  />
<glyph unicode="/" horiz-adv-x="228" d="M110 0H79L148 545H129L60 0H30L121 716H198L110 0Z"  />
<glyph unicode="0" horiz-adv-x="462" d="M231 723Q276 723 312 697T373 624T413 509T427 360Q427 332 425 294T415 215T393 134T357 63T304 13T229 -7Q184 -7 148 19T87 94T49 210T35 360Q35 389 37 427T47 506T67 585T103 654T156 704T231 723ZM139 360Q139 304 145 256T164 173T192 118T230 98Q251 98 267 118T296 173T314 256T321 360Q321 417 315 464T296 546T268 599T230 618Q209 618 193 599T164 546T146 465T139 360ZM229 31Q238 31 253 34T286 48T321 81T353 139T376 230T385 361Q385 469 367 533T325 630T274 672T229 682V662Q244 662 267 653T312 614T349 523T365 361Q365 253 349 191T310 98T264 59T229 51V31Z"  />
<glyph unicode="1" horiz-adv-x="274" d="M209 0H165V581L147 569V0H104V542L62 513L0 597L209 750V0Z"  />
<glyph unicode="2" horiz-adv-x="319" d="M147 42H302V0H0Q24 38 59 94T126 217T181 353T204 490Q204 554 165 586T30 618V663Q159 662 211 605Q256 557 248 465L267 463Q276 562 225 618Q196 650 148 665T30 682V723Q176 723 242 667T309 490Q309 445 297 393T265 289T222 189T179 105H302V61H157L147 42Z"  />
<glyph unicode="3" horiz-adv-x="324" d="M180 425Q204 420 224 405T261 366T286 307T295 229Q295 175 275 133T219 61T129 16T10 0V42Q86 43 133 62T208 110T245 174T255 242H236Q236 67 10 62V105Q57 105 91 115T147 142T179 182T190 229Q190 285 164 312T89 345L268 716H314L180 425ZM247 716L69 346H24L145 611H10V716H247Z"  />
<glyph unicode="4" horiz-adv-x="341" d="M291 0H248V210H229V0H185V210H0L82 716H125L62 315H81L145 716H188L125 315H185V439H291V0Z"  />
<glyph unicode="5" horiz-adv-x="356" d="M156 611V473Q194 468 226 450T281 401T318 330T331 237Q331 178 311 133T254 57T166 9T50 -7V33Q166 35 227 91T289 253Q289 297 276 329T242 382T199 413T155 424V404Q172 404 192 395T229 368T257 321T269 253Q269 192 249 153T198 92T127 62T50 53V99Q131 99 178 134T226 237Q226 276 214 302T181 344T136 366T84 373H50V716H308V677H156V658H308V611H156Z"  />
<glyph unicode="6" horiz-adv-x="365" d="M196 514Q268 514 304 447T340 253Q340 219 334 175T311 90T265 21T187 -7Q158 -7 132 4T84 49T50 142T35 299Q35 410 54 490T111 622T200 698T318 723V686Q193 681 134 586T74 292Q74 201 89 143T132 56Q148 39 163 36T185 33H187V54H186Q181 54 170 56T145 70Q136 79 127 94T111 136T99 200T94 292Q94 386 107 455T148 571T218 640T318 666V621Q282 621 254 610T205 581T171 540T152 492Q159 502 171 508T196 514ZM186 93Q200 93 210 109T226 149T235 201T238 253Q238 277 235 304T226 356T210 396T186 412Q172 411 163 395T147 355T139 304T136 253Q136 229 138 202T147 151T162 111T186 93Z"  />
<glyph unicode="7" horiz-adv-x="255" d="M255 716L153 0H106L140 233H121L86 0H44L78 233H8V338H93L133 611H5V716H255ZM155 339L195 611H175L136 339H155Z"  />
<glyph unicode="8" horiz-adv-x="402" d="M339 377Q355 346 363 310T372 233Q372 183 359 139T323 63T268 12T201 -7Q165 -7 134 11T80 62T43 138T30 233Q30 273 37 309T62 377Q52 400 47 437T41 506Q41 548 52 587T85 656T135 704T201 723Q235 723 264 707T314 661T348 593T361 506Q361 475 355 438T339 377ZM132 233Q132 205 137 180T152 136T174 106T201 95Q215 95 227 106T249 136T264 180T270 233Q270 254 266 278T252 322T230 356T201 370Q185 370 173 357T151 323T137 278T132 233ZM258 460Q264 476 264 503T259 557T238 602T201 621Q178 621 164 604T144 561T138 508T145 460Q158 467 171 469T200 473Q229 473 258 460ZM276 63Q302 89 316 133T331 229Q331 265 323 300T299 364T259 411T200 429V410Q228 410 249 394T283 352T304 294T311 229Q311 181 298 141T262 77Q237 51 200 51V30Q244 30 276 63ZM105 430Q100 450 98 475T98 526T107 576T126 621Q153 662 203 662V682Q145 682 109 631Q94 608 87 580T78 522T79 464T90 414L105 430Z"  />
<glyph unicode="9" horiz-adv-x="360" d="M169 202Q97 202 61 269T25 463Q25 497 31 541T54 626T100 695T178 723Q206 723 233 712T281 667T315 574T330 417Q330 306 310 226T254 94T165 18T47 -7V30Q172 35 231 130T291 424Q291 515 276 573T233 660Q217 677 202 680T180 683H178V662H179Q184 662 195 660T220 646Q229 637 238 622T254 580T266 516T271 424Q271 235 217 145T47 50V95Q83 95 111 106T160 135T194 176T213 224Q206 214 194 208T169 202ZM179 623Q165 623 155 607T139 567T130 515T127 463Q127 439 130 412T139 360T155 320T179 304Q192 305 201 321T217 361T226 412T229 463Q229 487 226 514T217 565T202 605T179 623Z"  />
<glyph unicode=":" horiz-adv-x="137" d="M97 0H40V57H97V0ZM97 444H40V501H97V444Z"  />
<glyph unicode=";" horiz-adv-x="170" d="M76 -9Q82 2 84 17T82 52H122Q127 5 108 -29Q97 -48 76 -62T29 -84L20 -47Q41 -40 54 -32T76 -9ZM130 444H73V501H130V444Z"  />
<glyph unicode="&lt;" horiz-adv-x="261" d="M248 112H202L87 345L65 346L180 112H133L20 346L133 576H251L136 343L248 112Z"  />
<glyph unicode="=" horiz-adv-x="328" d="M278 372H40V415H106V434H40V477H278V372ZM50 314H288V271H212V252H288V209H50V314Z"  />
<glyph unicode="&gt;" horiz-adv-x="276" d="M18 576H64L179 343L201 342L86 576H133L246 342L133 112H15L130 345L18 576Z"  />
<glyph unicode="?" horiz-adv-x="355" d="M52 723Q115 723 166 708T253 662T309 587T329 484Q329 441 317 403T281 334T227 282T157 252V174H115V286Q124 288 140 292T175 305T214 328T250 362T277 412T287 479H266Q266 440 255 412T226 364T188 333T149 315T119 307T104 304H96V174H52V351H104Q129 351 151 361T189 390T214 432T223 484Q223 551 177 584T52 618V723ZM45 118H163V0H45V118Z"  />
<glyph unicode="@" horiz-adv-x="746" d="M147 249Q147 183 157 119T192 0Q220 -63 267 -103T384 -143H592V-187H369V-206H592V-250H384Q298 -250 234 -207T126 -94T62 66T40 249Q40 342 63 427T130 578T232 683T363 723Q434 723 496 685T605 584T679 436T706 260Q706 231 703 198T693 130T678 62T656 0H427L391 137H334L300 0H192L242 176H424L461 40H625L628 45Q629 47 637 69T652 129T663 222T656 343Q640 446 602 512T518 616T431 668T365 682V662Q387 662 426 649T508 600T586 502T637 340Q645 284 644 237T637 153T624 92T613 59H476L438 196H248L368 612L506 105H583Q592 137 596 180T600 260Q600 327 583 391T534 505T461 585T368 618Q315 619 274 588T204 504T162 385T147 249ZM391 239L364 361L338 239H391Z"  />
<glyph unicode="A" horiz-adv-x="404" d="M287 221L348 0H304L256 182H152L101 0H0L207 751L226 680L103 221H287ZM404 0H368L302 241H128L235 642L404 0ZM230 280L205 385L178 280H230Z"  />
<glyph unicode="B" horiz-adv-x="402" d="M330 383Q354 354 365 317T377 239Q377 190 358 147T307 72T232 20T139 0H65V716H139Q185 716 225 698T295 650T342 580T360 494Q360 464 352 436T330 383ZM267 239Q267 274 251 304Q234 293 215 287T176 277V115Q215 127 241 161T267 239ZM176 390Q184 388 196 394T220 413T240 446T249 494Q249 531 229 559T176 599V390ZM174 49Q208 49 237 66T288 112T321 175T330 245H309Q312 215 302 184T273 127T228 86T174 70V49ZM174 328Q207 328 233 343T277 384T304 441T311 505H290Q292 476 285 449T262 399T225 363T174 349V328Z"  />
<glyph unicode="C" horiz-adv-x="379" d="M35 359Q35 432 56 497T120 612T227 692T379 723V679H371Q310 679 257 655T163 589T100 491T77 371H97Q97 431 118 483T177 575T264 636T371 659H379V612Q315 612 271 590T198 531T158 450T145 359Q145 312 157 267T198 185T270 127T379 105V-7Q289 -4 224 27T117 109T55 225T35 359Z"  />
<glyph unicode="D" horiz-adv-x="475" d="M138 716Q214 715 271 686T365 607T421 494T440 357Q440 288 423 225T368 112T274 33T138 0H65V716H109V36H121Q185 36 235 58T321 124T375 228T394 367H375Q375 295 358 238T310 141T233 79T129 56V716H138ZM174 112Q217 119 247 143T295 201T322 275T330 357Q330 398 322 438T295 513T247 571T174 603V112Z"  />
<glyph unicode="E" horiz-adv-x="347" d="M176 606V313H303V203H176V109H347V63H176V44H347V0H65V716H347V671H176V651H347V606H176Z"  />
<glyph unicode="F" horiz-adv-x="347" d="M176 651H347V606H176V313H303V203H176V0H130V201H111V0H65V716H347V671H176V651Z"  />
<glyph unicode="G" horiz-adv-x="434" d="M399 434V0H343Q263 0 205 31T109 114T53 230T35 363Q35 438 55 503T118 617T226 694T379 723V612Q315 612 271 591T198 534T158 454T145 363Q145 325 154 287T181 216T226 156T288 118V434H335V61Q285 63 242 87T167 152T116 245T97 358H77Q77 293 98 235T155 134T241 65T345 40H354V434H399Z"  />
<glyph unicode="H" horiz-adv-x="506" d="M130 202H111V0H65V716H174V312H331V716H377V312H396V716H441V0H331V202H174V0H130V202Z"  />
<glyph unicode="I" horiz-adv-x="241" d="M176 0H65V716H111V312H130V716H176V0Z"  />
<glyph unicode="J" horiz-adv-x="291" d="M231 716V358Q231 285 225 220T193 106T117 29T-20 0V43Q19 43 56 51T122 87T168 170T186 318V465H165V318Q165 231 150 181T110 104T51 70T-20 62V109Q21 109 48 121T92 162T114 238T121 358V716H231Z"  />
<glyph unicode="K" horiz-adv-x="394" d="M110 222V0H65V716H175V487L273 716H321L110 222ZM414 0H293L192 269L175 232V0H129V219L342 716H390L256 406L414 0Z"  />
<glyph unicode="L" horiz-adv-x="347" d="M176 109H347V63H176V44H347V0H65V716H111V312H130V716H176V109Z"  />
<glyph unicode="M" horiz-adv-x="560" d="M515 0H403L369 392L283 236L257 281L465 643L515 0ZM463 675L247 299L191 398L157 0H112L163 652L281 454L457 754L463 675ZM147 680L94 0H45L105 752L147 680Z"  />
<glyph unicode="N" horiz-adv-x="521" d="M456 716V-36L175 386V0H129V456L109 485V0H65L66 753L346 330V716H394V255L413 226V716H456Z"  />
<glyph unicode="O" horiz-adv-x="555" d="M145 357Q145 311 152 266T174 184T215 126T279 103Q315 103 339 125T379 184T401 265T408 357Q408 404 402 450T380 532T340 591T279 614Q241 614 216 591T175 532T152 450T145 357ZM277 32Q315 32 351 51T415 109T461 208T478 352Q478 439 461 501T416 605T351 665T277 685V664Q317 664 350 642T407 578T444 480T457 352Q457 284 444 229T408 135T351 75T277 53V32ZM279 723Q334 723 379 698T455 626T503 511T520 357Q520 320 516 280T502 199T473 123T428 58T364 12T277 -7Q221 -7 176 18T100 90T52 204T35 357Q35 413 45 477T82 596T156 687T279 723Z"  />
<glyph unicode="P" horiz-adv-x="370" d="M139 716Q185 716 225 697T296 643T343 564T360 468Q360 422 346 381T306 308T248 253T175 222V0H130V258Q139 259 156 262T194 274T235 298T273 336T301 391T312 469H293Q293 423 281 391T250 337T209 303T168 285T136 278T120 276H110V0H65V716H139ZM175 336Q191 340 205 352T230 383T246 423T252 468Q252 514 231 551T175 599V336Z"  />
<glyph unicode="Q" horiz-adv-x="555" d="M467 -155H422Q384 -155 352 -144T293 -113T250 -64T225 -3Q136 20 86 113T35 357Q35 413 45 477T81 596T155 687T278 723Q334 723 378 698T454 626T503 511T520 357Q520 307 512 252T484 146T429 56T338 1Q342 -17 364 -31T422 -45H466L467 -155ZM278 101Q314 101 339 124T379 183T402 264T409 357Q409 404 402 450T380 532T339 591T278 614Q241 614 216 591T175 532T152 450T145 357Q145 310 152 265T174 183T215 124T278 101ZM278 32Q316 32 352 51T416 109T462 208T479 352Q479 439 462 501T417 605T352 665T278 685V664Q318 664 351 642T408 578T445 480T458 352Q458 284 445 229T409 135T352 75T278 53V32Z"  />
<glyph unicode="R" horiz-adv-x="387" d="M387 0H275L191 234Q181 232 175 232V0H130V264Q139 264 153 266T185 274T221 290T257 317Q312 372 312 469H293Q293 382 244 331Q225 313 204 303T164 289T133 284T120 283H110V0H65V716H139Q185 716 225 697T295 643T342 564T359 468Q359 447 355 423T341 373T318 325T285 283L387 0ZM175 336Q191 342 205 354T228 385T243 424T249 468Q249 490 244 511T230 550T206 580T175 599V336Z"  />
<glyph unicode="S" horiz-adv-x="278" d="M180 392Q195 374 211 357T240 317T261 267T267 200Q265 160 246 122T195 54T121 8T31 -6V105Q85 102 118 129T155 196Q157 218 153 235T141 266T121 294T97 322Q80 340 64 361T36 406T17 460T11 526Q14 572 33 609T84 671T158 709T248 723V613Q197 613 162 590T121 527Q116 489 135 455T180 392ZM222 199Q222 226 216 248T198 290T174 327T146 362Q118 396 97 430T75 512H55Q55 486 61 464T79 422T103 385T131 350Q144 333 157 317T180 282T196 244T202 199H222Z"  />
<glyph unicode="T" horiz-adv-x="322" d="M322 606H216V0H170V606H151V0H105V606H0V716H322V606Z"  />
<glyph unicode="U" horiz-adv-x="499" d="M439 716V166Q439 123 424 91T384 37T324 4T250 -7Q210 -7 176 4T116 36T75 90T60 166V716H170V166Q170 145 176 133T193 115T218 106T250 104Q266 104 280 106T306 114T323 133T330 166V716H377V162Q377 154 375 137T361 102Q331 59 251 59V38Q341 38 378 91Q392 111 394 131T396 162V716H439Z"  />
<glyph unicode="V" horiz-adv-x="453" d="M388 716L196 54L0 716H114L225 281L340 716H388ZM223 -37L206 22L405 716H453L223 -37Z"  />
<glyph unicode="W" horiz-adv-x="498" d="M435 716L324 51L249 196L176 55L66 716H112L179 268L249 447L318 268L385 716H435ZM48 716L162 28L127 -38L0 716H48ZM370 -36L338 24L453 716H498L370 -36Z"  />
<glyph unicode="X" horiz-adv-x="314" d="M314 0H202L157 270L112 0H63L136 336L124 373L43 0H0L101 447L17 716H126L158 543L191 716H238L176 501L186 465L259 716H299L212 447L314 0Z"  />
<glyph unicode="Y" horiz-adv-x="367" d="M175 166V0H129V203L0 716H114L183 366L253 716H300L175 166ZM367 716L238 203V0H194V163L320 716H367Z"  />
<glyph unicode="Z" horiz-adv-x="285" d="M169 452H285V404H207L153 110H285V0H85L169 452ZM153 472H31V514H116L134 607H0V716H198L153 472ZM150 452L65 0H22L96 404H31V452H150ZM173 472L218 716H263L227 514H285V472H173Z"  />
<glyph unicode="[" horiz-adv-x="249" d="M269 716V611H171V-144H269V-250H65V716H269ZM109 -144H128V611H109V-144Z"  />
<glyph unicode="\" horiz-adv-x="168" d="M0 716H77L168 0H138L69 545H50L119 0H88L0 716Z"  />
<glyph unicode="]" horiz-adv-x="269" d="M204 716V-250H0V-144H98V611H0V716H204ZM160 611H141V-144H160V611Z"  />
<glyph unicode="^" horiz-adv-x="500" d="M20 418L249 715L480 418H357L249 560L142 418H20Z"  />
<glyph unicode="_" horiz-adv-x="264" d="M264 -172V-215H0V-172H66V-153H0V-110H264V-153H197V-172H264Z"  />
<glyph unicode="`" horiz-adv-x="154" d="M30 650L56 676L124 602L99 577L30 650Z"  />
<glyph unicode="a" horiz-adv-x="289" d="M206 159L251 0H219L184 131H110L73 0H0L149 538L163 487L74 159H206ZM289 0H265L217 173H92L169 459L289 0ZM166 201L148 274L128 201H166Z"  />
<glyph unicode="b" horiz-adv-x="289" d="M231 267Q248 247 256 222T264 167Q264 133 251 103T215 50T162 14T97 0H45V501H97Q129 501 157 489T206 455T239 405T252 345Q252 324 247 304T231 267ZM123 272Q129 271 137 275T154 288T168 311T174 345Q174 371 160 391T123 419V272ZM121 230Q144 230 162 241T193 269T212 308T217 353H203Q204 333 199 314T183 279T156 255T121 245V230ZM187 167Q187 180 184 191T175 213Q163 205 150 201T123 194V81Q150 89 168 113T187 167ZM121 34Q145 34 165 46T201 78T225 123T231 172H216Q218 151 211 129T191 89T159 60T121 49V34Z"  />
<glyph unicode="c" horiz-adv-x="266" d="M25 251Q25 302 40 347T85 428T160 483T266 505V474H260Q218 474 181 457T115 411T71 343T55 259H69Q69 301 84 337T125 401T186 444T260 460H266V427Q221 427 190 412T139 371T111 315T102 251Q102 218 110 187T138 130T189 89T266 73V-5Q203 -3 158 19T83 76T39 156T25 251Z"  />
<glyph unicode="d" horiz-adv-x="334" d="M96 501Q150 500 190 480T256 426T296 346T309 250Q309 202 297 158T258 79T192 23T96 0H45V501H76V25H85Q175 25 225 86T275 258H262Q262 155 217 98T90 39V501H96ZM122 78Q152 83 173 100T206 140T225 192T231 250Q231 279 225 307T206 359T173 400T122 422V78Z"  />
<glyph unicode="e" horiz-adv-x="252" d="M123 424V218H212V142H123V76H242V44H123V31H242V0H45V501H242V469H123V455H242V424H123Z"  />
<glyph unicode="f" horiz-adv-x="243" d="M123 455H243V424H123V219H212V142H123V0H91V141H78V0H45V501H243V469H123V455Z"  />
<glyph unicode="g" horiz-adv-x="302" d="M277 300V0H239Q183 0 143 22T77 79T38 159T25 251Q25 303 39 348T83 427T157 480T264 501V424Q219 424 188 409T138 370T110 314T101 251Q101 225 107 199T126 149T157 108T201 81V300H233V42Q198 43 168 60T116 105T81 170T68 248H54Q54 203 68 163T108 93T168 46T240 28H246V300H277Z"  />
<glyph unicode="h" horiz-adv-x="354" d="M91 141H77V0H45V501H121V218H232V501H263V218H277V501H309V0H232V141H121V0H91V141Z"  />
<glyph unicode="i" horiz-adv-x="168" d="M123 0H45V501H77V218H91V501H123V0Z"  />
<glyph unicode="j" horiz-adv-x="206" d="M166 501V249Q166 197 162 151T139 71T86 16T-10 -4V26Q18 26 44 31T90 57T123 115T135 220V325H120V220Q120 159 110 123T81 69T40 45T-10 40V73Q19 73 38 81T68 110T84 164T89 249V501H166Z"  />
<glyph unicode="k" horiz-adv-x="289" d="M76 155V0H45V501H122V341L191 501H224L76 155ZM289 0H205L134 188L122 162V0H90V153L239 501H272L179 284L289 0Z"  />
<glyph unicode="l" horiz-adv-x="243" d="M123 76H243V44H123V31H243V0H45V501H78V218H91V501H123V76Z"  />
<glyph unicode="m" horiz-adv-x="395" d="M328 480L174 213L135 283L110 0H78L114 464L199 323L324 537L328 480ZM103 484L66 0H30L73 535L103 484ZM365 0H285L261 279L200 168L182 200L329 458L365 0Z"  />
<glyph unicode="n" horiz-adv-x="364" d="M319 501V-25L122 270V0H90V319L76 339V0H45L46 527L242 231V501H276V178L289 158V501H319Z"  />
<glyph unicode="o" horiz-adv-x="390" d="M197 505Q275 504 320 437T366 249Q366 210 359 166T332 83T280 19T196 -6Q117 -5 72 62T26 249Q26 288 33 332T59 415T111 479T197 505ZM103 249Q103 217 108 185T125 128T155 87T197 71Q223 71 240 86T267 127T282 185T287 249Q287 282 282 314T266 371T238 413T197 429Q170 429 152 413T123 372T108 314T103 249ZM196 21Q222 21 247 34T292 74T324 144T336 245Q336 306 324 350T293 422T248 464T196 478V464Q224 464 247 448T287 404T313 335T322 245Q322 150 288 93T196 36V21Z"  />
<glyph unicode="p" horiz-adv-x="262" d="M97 501Q130 501 158 487T207 450T240 395T252 327Q252 295 242 266T215 215T173 177T122 155V0H91V181Q101 182 122 187T164 208T202 252T218 328H205Q205 279 187 252T147 212T105 196T84 193H77V0H45V501H97ZM122 235Q134 238 143 246T160 268T172 296T176 327Q176 359 162 385T122 419V235Z"  />
<glyph unicode="q" horiz-adv-x="390" d="M328 -109H296Q243 -109 206 -80T158 -3Q96 13 61 78T25 249Q25 288 32 332T58 414T110 477T196 505Q274 504 319 437T365 249Q365 214 360 175T340 101T301 38T237 0Q240 -13 256 -22T296 -32H327L328 -109ZM196 70Q221 70 238 85T266 126T282 184T287 249Q287 282 282 314T267 371T239 413T196 429Q170 429 152 413T123 372T107 314T102 249Q102 216 107 184T123 127T152 86T196 70ZM196 21Q222 21 247 34T292 74T324 144T336 245Q336 306 324 350T293 422T248 464T196 478V464Q224 464 247 448T286 404T312 335T321 245Q321 150 287 93T196 36V21Z"  />
<glyph unicode="r" horiz-adv-x="271" d="M271 0H192L134 164Q126 162 122 162V0H91V185Q103 185 129 192T180 222Q218 260 218 328H205Q205 268 171 232Q158 219 143 212T115 202T93 199T84 198H77V0H45V501H97Q129 501 157 487T206 450T239 395T251 327Q251 298 239 261T199 198L271 0ZM122 235Q145 243 159 269T174 327Q174 359 161 385T122 419V235Z"  />
<glyph unicode="s" horiz-adv-x="201" d="M129 274Q139 262 150 250T171 222T186 187T190 140Q189 112 176 85T140 38T88 6T25 -4V73Q63 71 86 90T112 137Q115 168 102 186T71 225Q60 238 49 253T29 285T15 322T11 368Q15 434 62 470T177 506V429Q141 429 117 413T88 369Q84 343 98 319T129 274ZM159 139Q159 177 143 203T106 253Q86 277 71 300T56 358H42Q42 321 58 295T95 245Q114 221 129 197T145 139H159Z"  />
<glyph unicode="t" horiz-adv-x="226" d="M226 424H152V0H119V424H106V0H74V424H0V501H226V424Z"  />
<glyph unicode="u" horiz-adv-x="356" d="M311 501V116Q311 86 301 64T272 26T230 3T178 -5Q150 -5 126 2T84 25T56 63T45 116V501H122V116Q122 87 138 80T178 73Q201 73 217 80T234 116V501H267V113Q267 108 266 96T256 71Q235 41 179 41V27Q242 27 268 64Q278 78 279 92T281 113V501H311Z"  />
<glyph unicode="v" horiz-adv-x="317" d="M157 -26L145 15L284 501H317L157 -26ZM272 501L138 38L0 501H80L158 197L238 501H272Z"  />
<glyph unicode="w" horiz-adv-x="359" d="M39 501L119 20L94 -27L5 501H39ZM310 501L232 36L180 137L129 38L52 501H84L131 188L180 313L228 188L275 501H310ZM264 -25L242 17L322 501H354L264 -25Z"  />
<glyph unicode="x" horiz-adv-x="240" d="M230 0H152L120 189L89 0H55L106 235L97 261L41 0H10L81 313L22 501H99L121 380L144 501H177L134 351L141 325L192 501H220L159 313L230 0Z"  />
<glyph unicode="y" horiz-adv-x="257" d="M123 116V0H91V142L0 501H80L129 256L178 501H210L123 116ZM257 501L167 142V0H136V114L224 501H257Z"  />
<glyph unicode="z" horiz-adv-x="220" d="M118 330H32V360H92L104 425H10V501H149L118 330ZM129 316H210V283H155L118 77H210V0H70L129 316ZM115 316L56 0H26L78 283H32V316H115ZM132 330L163 501H195L169 360H210V330H132Z"  />
<glyph unicode="{" horiz-adv-x="283" d="M140 483Q140 524 147 555T176 609T234 642T333 656V613Q302 613 275 608T228 591T196 556T184 500V244H131Q123 244 120 236T117 217Q117 207 120 199T131 191H184V-35Q184 -69 195 -90T227 -123T275 -139T333 -144V-250Q280 -250 234 -240T154 -206T99 -139T79 -33V97Q47 111 29 142T10 217Q10 260 28 291T79 337V499Q79 563 99 605T153 671T234 706T333 716V675Q267 673 226 660T162 621T130 561T121 483V301Q111 299 99 295T77 281T60 257T53 221H72Q72 243 81 255T101 274T121 281T132 283H140V483H140Z"  />
<glyph unicode="|" horiz-adv-x="231" d="M171 -250H60V716H106V0H125V716H171V-250Z"  />
<glyph unicode="}" horiz-adv-x="283" d="M143 -17Q143 -58 136 -89T107 -143T49 -177T-50 -190V-147Q-19 -147 8 -142T55 -125T87 -90T99 -34V222H152Q160 222 163 230T166 249Q166 259 163 267T152 275H99V501Q99 535 88 556T56 589T8 605T-50 610V716Q3 716 49 706T129 671T184 605T204 499V369Q236 355 254 324T273 249Q273 206 255 175T204 129V-33Q204 -97 184 -139T130 -205T49 -240T-50 -250V-209Q16 -208 57 -194T121 -155T153 -96T162 -17V165Q172 166 184 171T206 185T223 209T230 245H211Q211 223 202 211T182 192T162 185T151 183H143V-17Z"  />
<glyph unicode="~" horiz-adv-x="272" d="M180 631Q167 631 156 639T133 656T112 672T92 678Q79 675 73 661T71 631H32Q29 646 32 661T45 688T66 708T92 716Q104 716 116 708T140 690T162 673T180 669Q192 672 199 686T201 716H240Q243 701 240 686T227 659T206 639T180 631Z"  />
<glyph unicode="&#xA0;" horiz-adv-x="170" />
<glyph unicode="&#xA1;" horiz-adv-x="228" d="M173 348H55V466H173V348ZM170 -250H59V292H105V-35H124V292H170V-250Z"  />
<glyph unicode="&#xA2;" horiz-adv-x="276" d="M217 -101H177V5Q137 18 109 42T62 98T34 170T25 251Q25 293 33 332T60 403T108 458T177 495V602H217V495H236V602H276V410Q190 410 155 367T120 251Q120 178 155 135T276 92V-101H236V5H217V-101Z"  />
<glyph unicode="&#xA3;" horiz-adv-x="311" d="M71 447V558Q71 599 87 630T132 681T199 712T281 722V623Q234 623 202 602T169 538V447H274V348H169V98H274V0H40V98H71V348H40V447H71ZM110 447H129V538H110V447ZM110 98H129V348H110V98Z"  />
<glyph unicode="&#xA4;" horiz-adv-x="456" d="M364 513Q381 481 390 439T400 346Q400 307 393 261T365 177L416 126L346 56L296 106Q282 98 265 95T228 91T191 94T159 106L110 56L40 126L89 176Q54 239 54 346Q54 386 61 430T90 514L40 565L110 635L159 585Q172 593 190 596T226 600T263 596T296 584L346 635L416 565L364 513ZM227 187Q248 187 263 200T287 236T301 287T305 346Q305 376 301 404T288 455T263 491T227 505Q206 505 192 492T168 456T154 405T150 346Q150 316 154 288T167 237T191 201T227 187ZM225 133Q251 133 275 144T317 181T347 248T358 347Q358 408 347 448T318 513T275 548T225 559V545Q282 545 313 496T344 347Q344 252 313 200T225 148V133Z"  />
<glyph unicode="&#xA5;" horiz-adv-x="367" d="M175 166V0H129V71H64V176H129V203L121 234H64V277H110L105 296H64V339H94L0 716H114L183 366L253 716H300L175 166ZM367 716L272 339H302V234H246L238 203V176H302V133H238V114H302V71H238V0H194V163L320 716H367Z"  />
<glyph unicode="&#xA6;" horiz-adv-x="231" d="M171 290H60V716H106V552H125V716H171V290ZM171 -250H125V-86H106V-250H60V176H171V-250Z"  />
<glyph unicode="&#xA7;" horiz-adv-x="312" d="M291 205Q286 131 216 65Q236 36 247 1T259 -79Q259 -115 242 -147T195 -203T125 -240T40 -250V-151Q94 -154 127 -134T162 -74Q163 -31 145 -2T102 56Q87 75 72 94T44 137T26 187T21 250Q23 285 42 321T93 391Q73 420 61 455T51 539Q53 579 71 613T119 673T188 711T273 723V625Q222 627 187 601T150 533Q148 492 166 464T208 406Q224 387 239 367T267 324T286 271T291 205ZM220 -71Q220 -18 198 19T147 91Q134 107 122 123T100 158T84 196T78 240H59Q59 213 65 191T82 150T106 114T132 79Q159 46 180 12T201 -71H220ZM120 244Q118 212 129 189T159 144Q173 160 182 177T192 211Q193 245 182 269T153 315Q120 279 120 244ZM169 353Q182 337 195 321T218 287T234 249T240 205H259Q259 232 253 254T235 295T211 332T184 366Q171 382 159 398T137 433T121 471T115 514H94Q94 488 100 466T117 425T141 388T169 353Z"  />
<glyph unicode="&#xA8;" horiz-adv-x="207" d="M77 599H30V646H77V599ZM177 599H130V646H177V599Z"  />
<glyph unicode="&#xA9;" horiz-adv-x="683" d="M340 -4Q277 -4 223 24T128 101T64 216T40 357Q40 431 63 497T127 614T222 693T340 723Q404 723 459 694T555 614T619 498T643 357Q643 282 620 216T555 102T459 25T340 -4ZM340 682Q287 682 240 656T157 585T101 481T80 357Q80 291 100 233T156 131T239 63T340 38Q394 38 442 63T525 131T580 232T601 357Q601 422 581 481T525 584T442 655T340 682ZM155 361Q155 412 170 457T215 538T290 593T396 615V584H390Q348 584 311 567T245 521T201 453T185 369H199Q199 411 214 447T255 511T316 554T390 570H396V537Q351 537 320 522T269 481T241 425T232 361Q232 328 240 297T268 240T319 199T396 183V105Q333 107 288 129T213 186T169 266T155 361Z"  />
<glyph unicode="&#xAA;" horiz-adv-x="258" d="M167 493L195 395H175L153 475H108L85 395H40L132 726L140 695L86 493H167ZM218 395H203L174 501H97L144 677L218 395ZM142 518L131 563L119 518H142Z"  />
<glyph unicode="&#xAB;" horiz-adv-x="355" d="M261 340L335 112H226L152 340L224 570H269L196 340H216L289 570H333L261 340ZM201 112H157L84 342H64L137 112H92L20 342L94 570H203L129 342L201 112Z"  />
<glyph unicode="&#xAC;" horiz-adv-x="369" d="M329 254H224V332H40V375H224V394H40V437H329V254Z"  />
<glyph unicode="&#xAD;" horiz-adv-x="275" d="M235 334V291H40V334H106V353H40V396H235V353H168V334H235Z"  />
<glyph unicode="&#xAE;" horiz-adv-x="683" d="M340 -4Q277 -4 223 24T128 101T64 216T40 357Q40 431 63 497T127 614T222 693T340 723Q404 723 459 694T555 614T619 498T643 357Q643 282 620 216T555 102T459 25T340 -4ZM340 682Q287 682 240 656T157 585T101 481T80 357Q80 291 100 233T156 131T239 63T340 38Q394 38 442 63T525 131T580 232T601 357Q601 422 581 481T525 584T442 655T340 682ZM464 110H385L327 274Q319 272 315 272V110H284V295Q296 295 322 302T373 332Q411 370 411 438H398Q398 378 364 342Q351 329 336 322T308 312T286 309T277 308H270V110H238V611H290Q322 611 350 597T399 560T432 505T444 437Q444 408 432 371T392 308L464 110ZM315 345Q338 353 352 379T367 437Q367 469 354 495T315 529V345Z"  />
<glyph unicode="&#xAF;" horiz-adv-x="286" d="M256 677V635H30V677H256Z"  />
<glyph unicode="&#xB0;" horiz-adv-x="237" d="M119 573Q82 573 56 599T30 662Q30 699 56 724T119 750Q156 750 181 725T207 662Q207 625 182 599T119 573ZM119 717Q96 717 80 701T64 662Q64 639 80 623T119 607Q142 607 158 623T174 662Q174 685 158 701T119 717Z"  />
<glyph unicode="&#xB1;" horiz-adv-x="318" d="M278 105V62H40V105H106V124H40V167H278V124H211V105H278ZM278 321V278H211V212H168V279H149V212H106V278H40V321H106V340H40V383H106V450H149V383H168V450H211V383H278V340H211V321H278Z"  />
<glyph unicode="&#xB2;" horiz-adv-x="178" d="M66 412H135V393H0Q11 410 26 435T56 489T81 550T91 612Q91 641 74 655T14 669V689Q71 689 95 663Q114 640 110 601L119 600Q121 623 117 639T101 669Q75 698 14 698V716Q80 716 109 691T138 612Q138 592 133 569T118 523T99 478T80 440H135V421H70L66 412Z"  />
<glyph unicode="&#xB3;" horiz-adv-x="185" d="M96 587Q116 582 131 560T147 500Q147 452 113 425T20 398V417Q54 417 75 425T108 446T124 474T129 505H120Q120 427 20 426V445Q62 445 81 461T100 500Q100 548 55 551L135 716H155L96 587ZM125 716L46 552H26L80 669H20V716H125Z"  />
<glyph unicode="&#xB4;" horiz-adv-x="154" d="M55 577L30 602L98 676L124 650L55 577Z"  />
<glyph unicode="&#xB5;" horiz-adv-x="356" d="M311 501V116Q311 86 301 64T272 26T230 3T178 -5Q147 -5 122 4V-249H45V501H122V116Q122 87 138 80T178 73Q201 73 217 80T234 116V501H267V113Q267 108 266 96T256 71Q235 41 179 41V27Q242 27 268 64Q278 78 279 92T281 113V501H311Z"  />
<glyph unicode="&#xB6;" horiz-adv-x="367" d="M114 280Q71 312 46 364T20 478Q20 527 36 570T81 646T148 697T231 716H237V353H256V716H302V-250H215V247H196V-250H114V280ZM196 603Q164 589 144 556T124 478Q124 435 144 401T196 352V603Z"  />
<glyph unicode="&#xB7;" horiz-adv-x="137" d="M97 330H40V387H97V330Z"  />
<glyph unicode="&#xB8;" horiz-adv-x="179" d="M40 -126Q81 -126 98 -106Q106 -96 108 -85T111 -65H42V19H69V-37H135L137 -49Q137 -49 138 -56T138 -75T133 -98T119 -123Q94 -154 40 -154V-126Z"  />
<glyph unicode="&#xB9;" horiz-adv-x="146" d="M106 398H87V650L79 645V398H60V633L42 620L15 657L106 723V398Z"  />
<glyph unicode="&#xBA;" horiz-adv-x="293" d="M147 717Q197 716 225 674T253 556Q253 532 249 504T232 452T200 412T147 396Q97 397 69 439T40 556Q40 581 44 609T60 661T93 701T147 717ZM88 556Q88 536 91 516T102 480T121 455T147 445Q163 445 174 454T192 480T201 516T204 556Q204 577 201 597T191 633T173 659T147 669Q130 669 119 659T101 633T91 597T88 556ZM147 413Q163 413 179 421T207 447T227 491T235 554Q235 592 228 619T208 665T179 691T147 700V691Q182 691 204 654T226 554Q226 494 204 459T147 423V413Z"  />
<glyph unicode="&#xBB;" horiz-adv-x="355" d="M22 570H66L139 340H159L86 570H131L203 340L129 112H20L94 340L22 570ZM226 342L152 570H261L335 342L263 112H218L291 342H271L198 112H154L226 342Z"  />
<glyph unicode="&#xBC;" horiz-adv-x="416" d="M351 319H386V0H351V102H260L297 319H333L301 138H351V319ZM189 0H158L227 545H208L139 0H109L200 716H277L189 0ZM101 398H82V650L74 645V398H55V633L37 620L10 657L101 723V398Z"  />
<glyph unicode="&#xBD;" horiz-adv-x="456" d="M193 0H162L231 545H212L143 0H113L204 716H281L193 0ZM101 398H82V650L74 645V398H55V633L37 620L10 657L101 723V398ZM339 19H408V0H273Q284 17 299 42T329 96T354 157T364 219Q364 248 347 262T287 276V296Q344 296 368 270Q387 247 383 208L392 207Q394 230 390 246T374 276Q348 305 287 305V323Q353 323 382 298T411 219Q411 199 406 176T391 130T372 85T353 47H408V28H343L339 19Z"  />
<glyph unicode="&#xBE;" horiz-adv-x="454" d="M215 0H184L253 545H234L165 0H135L226 716H303L215 0ZM96 587Q116 582 131 560T147 500Q147 452 113 425T20 398V417Q54 417 75 425T108 446T124 474T129 505H120Q120 427 20 426V445Q62 445 81 461T100 500Q100 548 55 551L135 716H155L96 587ZM125 716L46 552H26L80 669H20V716H125ZM414 0H395V94H386V0H367V94H284L321 319H340L312 140H320L349 319H368L340 140H367V196H414V0Z"  />
<glyph unicode="&#xBF;" horiz-adv-x="359" d="M309 348H191V466H309V348ZM302 -250Q239 -250 188 -235T101 -189T45 -114T25 -11Q25 32 37 70T73 139T127 191T197 221V292H239V187Q225 184 197 175T140 145T89 88T67 -6H88Q88 33 99 61T128 109T166 140T205 158T235 166T250 169H258V292H302V122H250Q225 122 203 112T165 83T140 41T131 -11Q131 -78 177 -111T302 -145V-250Z"  />
<glyph unicode="&#xC0;" horiz-adv-x="404" d="M287 221L348 0H304L256 182H152L101 0H0L207 751L226 680L103 221H287ZM404 0H368L302 241H128L235 642L404 0ZM230 280L205 385L178 280H230ZM140 865L166 891L234 817L209 792L140 865Z"  />
<glyph unicode="&#xC1;" horiz-adv-x="404" d="M287 221L348 0H304L256 182H152L101 0H0L207 751L226 680L103 221H287ZM404 0H368L302 241H128L235 642L404 0ZM230 280L205 385L178 280H230ZM206 792L181 817L249 891L275 865L206 792Z"  />
<glyph unicode="&#xC2;" horiz-adv-x="404" d="M287 221L348 0H304L256 182H152L101 0H0L207 751L226 680L103 221H287ZM404 0H368L302 241H128L235 642L404 0ZM230 280L205 385L178 280H230ZM271 838L244 820L207 880L170 820L143 838L207 931L271 838Z"  />
<glyph unicode="&#xC3;" horiz-adv-x="404" d="M287 221L348 0H304L256 182H152L101 0H0L207 751L226 680L103 221H287ZM404 0H368L302 241H128L235 642L404 0ZM230 280L205 385L178 280H230ZM238 832Q229 832 221 837T205 848T190 858T176 862Q167 860 164 851T163 832H134Q132 842 134 853T143 872T158 885T176 891Q184 891 192 886T209 874T225 864T238 861Q246 863 250 871T250 891H280Q284 870 271 851T238 832Z"  />
<glyph unicode="&#xC4;" horiz-adv-x="404" d="M287 221L348 0H304L256 182H152L101 0H0L207 751L226 680L103 221H287ZM404 0H368L302 241H128L235 642L404 0ZM230 280L205 385L178 280H230ZM177 814H130V861H177V814ZM277 814H230V861H277V814Z"  />
<glyph unicode="&#xC5;" horiz-adv-x="404" d="M287 221L348 0H304L256 182H152L101 0H0L207 751L226 680L103 221H287ZM404 0H368L302 241H128L235 642L404 0ZM230 280L205 385L178 280H230ZM207 815Q181 815 163 833T145 877Q145 903 163 920T207 938Q233 938 250 921T268 877Q268 851 251 833T207 815ZM207 913Q192 913 181 903T170 877Q170 862 181 851T207 840Q222 840 232 851T243 877Q243 892 233 902T207 913Z"  />
<glyph unicode="&#xC6;" horiz-adv-x="572" d="M291 267H100L304 716H572V671H401V651H572V606H401V313H528V203H401V109H572V63H401V44H572V0H291V207H192L98 0H-20L92 248H291V267ZM291 317V428L241 317H291Z"  />
<glyph unicode="&#xC7;" horiz-adv-x="379" d="M274 -126Q315 -126 332 -106Q340 -96 342 -85T345 -65H276V8Q213 26 168 61T93 142T49 244T35 359Q35 432 56 497T120 612T227 692T379 723V679H371Q310 679 257 655T163 589T100 491T77 371H97Q97 431 118 483T177 575T264 636T371 659H379V612Q315 612 271 590T198 531T158 450T145 359Q145 312 157 267T198 185T270 127T379 105V-7Q359 -6 340 -4T303 1V-37H369Q370 -42 371 -51T372 -73T367 -98T353 -123Q328 -154 274 -154V-126Z"  />
<glyph unicode="&#xC8;" horiz-adv-x="347" d="M176 606V313H303V203H176V109H347V63H176V44H347V0H65V716H347V671H176V651H347V606H176ZM147 865L173 891L241 817L216 792L147 865Z"  />
<glyph unicode="&#xC9;" horiz-adv-x="347" d="M176 606V313H303V203H176V109H347V63H176V44H347V0H65V716H347V671H176V651H347V606H176ZM207 792L182 817L250 891L276 865L207 792Z"  />
<glyph unicode="&#xCA;" horiz-adv-x="347" d="M176 606V313H303V203H176V109H347V63H176V44H347V0H65V716H347V671H176V651H347V606H176ZM274 838L247 820L210 880L173 820L146 838L210 931L274 838Z"  />
<glyph unicode="&#xCB;" horiz-adv-x="347" d="M176 606V313H303V203H176V109H347V63H176V44H347V0H65V716H347V671H176V651H347V606H176ZM188 814H141V861H188V814ZM288 814H241V861H288V814Z"  />
<glyph unicode="&#xCC;" horiz-adv-x="282" d="M176 0H65V716H111V312H130V716H176V0ZM85 865L111 891L179 817L154 792L85 865Z"  />
<glyph unicode="&#xCD;" horiz-adv-x="241" d="M176 0H65V716H111V312H130V716H176V0ZM117 792L92 817L160 891L186 865L117 792Z"  />
<glyph unicode="&#xCE;" horiz-adv-x="218" d="M176 0H65V716H111V312H130V716H176V0ZM173 838L146 820L109 880L72 820L45 838L109 931L173 838Z"  />
<glyph unicode="&#xCF;" horiz-adv-x="227" d="M176 0H65V716H111V312H130V716H176V0ZM87 814H40V861H87V814ZM187 814H140V861H187V814Z"  />
<glyph unicode="&#xD0;" horiz-adv-x="479" d="M142 716Q218 715 275 686T369 607T425 494T444 357Q444 288 427 225T372 112T278 33T142 0H69V213H35V256H69V275H35V318H69V716H113V318H133V716H142ZM178 112Q221 119 251 143T299 201T326 275T334 357Q334 398 326 438T299 513T251 571T178 603V318H230V275H178V256H230V213H178V112ZM379 367Q379 295 362 238T314 141T237 79T133 56V213H113V36H125Q189 36 239 58T325 124T379 228T398 367H379Z"  />
<glyph unicode="&#xD1;" horiz-adv-x="521" d="M456 716V-36L175 386V0H129V456L109 485V0H65L66 753L346 330V716H394V255L413 226V716H456ZM281 832Q272 832 264 837T248 848T233 858T219 862Q210 860 207 851T206 832H177Q175 842 177 853T186 872T201 885T219 891Q227 891 235 886T252 874T268 864T281 861Q289 863 293 871T293 891H323Q327 870 314 851T281 832Z"  />
<glyph unicode="&#xD2;" horiz-adv-x="555" d="M145 357Q145 311 152 266T174 184T215 126T279 103Q315 103 339 125T379 184T401 265T408 357Q408 404 402 450T380 532T340 591T279 614Q241 614 216 591T175 532T152 450T145 357ZM277 32Q315 32 351 51T415 109T461 208T478 352Q478 439 461 501T416 605T351 665T277 685V664Q317 664 350 642T407 578T444 480T457 352Q457 284 444 229T408 135T351 75T277 53V32ZM279 723Q334 723 379 698T455 626T503 511T520 357Q520 320 516 280T502 199T473 123T428 58T364 12T277 -7Q221 -7 176 18T100 90T52 204T35 357Q35 413 45 477T82 596T156 687T279 723ZM197 865L223 891L291 817L266 792L197 865Z"  />
<glyph unicode="&#xD3;" horiz-adv-x="555" d="M145 357Q145 311 152 266T174 184T215 126T279 103Q315 103 339 125T379 184T401 265T408 357Q408 404 402 450T380 532T340 591T279 614Q241 614 216 591T175 532T152 450T145 357ZM277 32Q315 32 351 51T415 109T461 208T478 352Q478 439 461 501T416 605T351 665T277 685V664Q317 664 350 642T407 578T444 480T457 352Q457 284 444 229T408 135T351 75T277 53V32ZM279 723Q334 723 379 698T455 626T503 511T520 357Q520 320 516 280T502 199T473 123T428 58T364 12T277 -7Q221 -7 176 18T100 90T52 204T35 357Q35 413 45 477T82 596T156 687T279 723ZM271 792L246 817L314 891L340 865L271 792Z"  />
<glyph unicode="&#xD4;" horiz-adv-x="555" d="M145 357Q145 311 152 266T174 184T215 126T279 103Q315 103 339 125T379 184T401 265T408 357Q408 404 402 450T380 532T340 591T279 614Q241 614 216 591T175 532T152 450T145 357ZM277 32Q315 32 351 51T415 109T461 208T478 352Q478 439 461 501T416 605T351 665T277 685V664Q317 664 350 642T407 578T444 480T457 352Q457 284 444 229T408 135T351 75T277 53V32ZM279 723Q334 723 379 698T455 626T503 511T520 357Q520 320 516 280T502 199T473 123T428 58T364 12T277 -7Q221 -7 176 18T100 90T52 204T35 357Q35 413 45 477T82 596T156 687T279 723ZM341 838L314 820L277 880L240 820L213 838L277 931L341 838Z"  />
<glyph unicode="&#xD5;" horiz-adv-x="555" d="M145 357Q145 311 152 266T174 184T215 126T279 103Q315 103 339 125T379 184T401 265T408 357Q408 404 402 450T380 532T340 591T279 614Q241 614 216 591T175 532T152 450T145 357ZM277 32Q315 32 351 51T415 109T461 208T478 352Q478 439 461 501T416 605T351 665T277 685V664Q317 664 350 642T407 578T444 480T457 352Q457 284 444 229T408 135T351 75T277 53V32ZM279 723Q334 723 379 698T455 626T503 511T520 357Q520 320 516 280T502 199T473 123T428 58T364 12T277 -7Q221 -7 176 18T100 90T52 204T35 357Q35 413 45 477T82 596T156 687T279 723ZM298 832Q289 832 281 837T265 848T250 858T236 862Q227 860 224 851T223 832H194Q192 842 194 853T203 872T218 885T236 891Q244 891 252 886T269 874T285 864T298 861Q306 863 310 871T310 891H340Q344 870 331 851T298 832Z"  />
<glyph unicode="&#xD6;" horiz-adv-x="555" d="M145 357Q145 311 152 266T174 184T215 126T279 103Q315 103 339 125T379 184T401 265T408 357Q408 404 402 450T380 532T340 591T279 614Q241 614 216 591T175 532T152 450T145 357ZM277 32Q315 32 351 51T415 109T461 208T478 352Q478 439 461 501T416 605T351 665T277 685V664Q317 664 350 642T407 578T444 480T457 352Q457 284 444 229T408 135T351 75T277 53V32ZM279 723Q334 723 379 698T455 626T503 511T520 357Q520 320 516 280T502 199T473 123T428 58T364 12T277 -7Q221 -7 176 18T100 90T52 204T35 357Q35 413 45 477T82 596T156 687T279 723ZM241 814H194V861H241V814ZM341 814H294V861H341V814Z"  />
<glyph unicode="&#xD7;" horiz-adv-x="324" d="M253 420L284 390L236 342L283 296L253 265L205 313L192 299L239 252L209 221L162 268L115 221L85 252L132 298L118 312L71 265L41 296L88 342L40 390L71 420L118 373L132 386L84 434L115 464L162 417L209 464L240 434L192 386L206 373L253 420Z"  />
<glyph unicode="&#xD8;" horiz-adv-x="555" d="M343 713Q426 687 473 595T520 357Q520 320 516 280T502 199T473 123T428 58T364 12T277 -7Q271 -7 266 -7T254 -6L251 -34H220L224 0Q219 1 215 2T206 5L201 -34H171L177 17Q109 54 72 141T35 357Q35 412 45 474T80 589T151 680T267 722L271 750H348L343 713ZM408 357Q408 394 404 431T391 501T366 559T329 599L268 103H279Q315 103 339 125T379 184T401 265T408 357ZM145 357Q145 298 156 242T194 149L253 610Q223 602 203 578T169 518T151 441T145 357ZM277 32Q315 32 351 51T415 109T461 208T478 352Q478 421 467 474T437 567T393 632T338 671L336 650Q392 621 424 543T457 352Q457 284 444 229T408 135T351 75T277 53V32ZM220 122Q225 119 229 116T238 111L293 545H274L220 122Z"  />
<glyph unicode="&#xD9;" horiz-adv-x="499" d="M439 716V166Q439 123 424 91T384 37T324 4T250 -7Q210 -7 176 4T116 36T75 90T60 166V716H170V166Q170 145 176 133T193 115T218 106T250 104Q266 104 280 106T306 114T323 133T330 166V716H377V162Q377 154 375 137T361 102Q331 59 251 59V38Q341 38 378 91Q392 111 394 131T396 162V716H439ZM172 865L198 891L266 817L241 792L172 865Z"  />
<glyph unicode="&#xDA;" horiz-adv-x="499" d="M439 716V166Q439 123 424 91T384 37T324 4T250 -7Q210 -7 176 4T116 36T75 90T60 166V716H170V166Q170 145 176 133T193 115T218 106T250 104Q266 104 280 106T306 114T323 133T330 166V716H377V162Q377 154 375 137T361 102Q331 59 251 59V38Q341 38 378 91Q392 111 394 131T396 162V716H439ZM254 792L229 817L297 891L323 865L254 792Z"  />
<glyph unicode="&#xDB;" horiz-adv-x="499" d="M439 716V166Q439 123 424 91T384 37T324 4T250 -7Q210 -7 176 4T116 36T75 90T60 166V716H170V166Q170 145 176 133T193 115T218 106T250 104Q266 104 280 106T306 114T323 133T330 166V716H377V162Q377 154 375 137T361 102Q331 59 251 59V38Q341 38 378 91Q392 111 394 131T396 162V716H439ZM312 838L285 820L248 880L211 820L184 838L248 931L312 838Z"  />
<glyph unicode="&#xDC;" horiz-adv-x="499" d="M439 716V166Q439 123 424 91T384 37T324 4T250 -7Q210 -7 176 4T116 36T75 90T60 166V716H170V166Q170 145 176 133T193 115T218 106T250 104Q266 104 280 106T306 114T323 133T330 166V716H377V162Q377 154 375 137T361 102Q331 59 251 59V38Q341 38 378 91Q392 111 394 131T396 162V716H439ZM227 814H180V861H227V814ZM327 814H280V861H327V814Z"  />
<glyph unicode="&#xDD;" horiz-adv-x="367" d="M175 166V0H129V203L0 716H114L183 366L253 716H300L175 166ZM367 716L238 203V0H194V163L320 716H367ZM193 792L168 817L236 891L262 865L193 792Z"  />
<glyph unicode="&#xDE;" horiz-adv-x="371" d="M176 603Q216 596 250 575T308 521T347 446T361 358Q361 312 347 271T307 198T249 143T176 112V0H130V227H111V0H65V716H111V488H130V716H176V603ZM176 227Q208 241 230 276T252 358Q252 404 231 439T176 488V227Z"  />
<glyph unicode="&#xDF;" horiz-adv-x="395" d="M370 511Q370 463 357 418T318 346Q343 319 356 280T370 193Q370 102 315 49T166 -5V93Q203 93 224 105T256 133T269 167T272 193Q272 203 271 220T262 254T240 283T200 297H177V393H200Q225 394 239 409T261 443T270 482T272 511Q272 527 268 545T255 579T231 606T194 622L79 -11L38 -5L166 671Q178 670 202 665T252 642T295 592T314 505Q314 466 304 437T277 390T240 362T199 353V335Q224 335 248 345T291 376T322 429T334 505Q334 541 326 568T305 614T276 647T245 668Q229 676 214 680T186 687T166 690T158 691H150L19 -2L-20 4L113 723H154Q199 723 238 709T307 668T353 602T370 511Z"  />
<glyph unicode="&#xE0;" horiz-adv-x="289" d="M206 159L251 0H219L184 131H110L73 0H0L149 538L163 487L74 159H206ZM289 0H265L217 173H92L169 459L289 0ZM166 201L148 274L128 201H166ZM88 650L114 676L182 602L157 577L88 650Z"  />
<glyph unicode="&#xE1;" horiz-adv-x="289" d="M206 159L251 0H219L184 131H110L73 0H0L149 538L163 487L74 159H206ZM289 0H265L217 173H92L169 459L289 0ZM166 201L148 274L128 201H166ZM159 577L134 602L202 676L228 650L159 577Z"  />
<glyph unicode="&#xE2;" horiz-adv-x="289" d="M206 159L251 0H219L184 131H110L73 0H0L149 538L163 487L74 159H206ZM289 0H265L217 173H92L169 459L289 0ZM166 201L148 274L128 201H166ZM215 623L188 605L151 665L114 605L87 623L151 716L215 623Z"  />
<glyph unicode="&#xE3;" horiz-adv-x="289" d="M206 159L251 0H219L184 131H110L73 0H0L149 538L163 487L74 159H206ZM289 0H265L217 173H92L169 459L289 0ZM166 201L148 274L128 201H166ZM187 617Q178 617 170 622T154 633T139 643T125 647Q116 645 113 636T112 617H83Q81 627 83 638T92 657T107 670T125 676Q133 676 141 671T158 659T174 649T187 646Q195 648 199 656T199 676H229Q233 655 220 636T187 617Z"  />
<glyph unicode="&#xE4;" horiz-adv-x="289" d="M206 159L251 0H219L184 131H110L73 0H0L149 538L163 487L74 159H206ZM289 0H265L217 173H92L169 459L289 0ZM166 201L148 274L128 201H166ZM120 599H73V646H120V599ZM220 599H173V646H220V599Z"  />
<glyph unicode="&#xE5;" horiz-adv-x="289" d="M206 159L251 0H219L184 131H110L73 0H0L149 538L163 487L74 159H206ZM289 0H265L217 173H92L169 459L289 0ZM166 201L148 274L128 201H166ZM151 600Q125 600 107 618T89 662Q89 688 107 705T151 723Q177 723 194 706T212 662Q212 636 195 618T151 600ZM151 698Q136 698 125 688T114 662Q114 647 125 636T151 625Q166 625 176 636T187 662Q187 677 177 687T151 698Z"  />
<glyph unicode="&#xE6;" horiz-adv-x="405" d="M198 187H55L185 501H395V469H276V455H395V424H276V218H365V142H276V76H395V44H276V31H395V0H198V136H135L81 0H-22L50 174H198V187ZM198 327L158 218H198V327Z"  />
<glyph unicode="&#xE7;" horiz-adv-x="273" d="M174 -126Q215 -126 232 -106Q240 -96 242 -85T245 -65H176V11Q137 25 109 50T62 106T34 175T25 251Q25 302 40 347T85 428T160 483T266 505V474H260Q218 474 181 457T115 411T71 343T55 259H69Q69 301 84 337T125 401T186 444T260 460H266V427Q221 427 190 412T139 371T111 315T102 251Q102 218 110 187T138 130T189 89T266 73V-5Q234 -4 203 3V-37H269L271 -49Q271 -49 272 -56T272 -75T267 -98T253 -123Q228 -154 174 -154V-126Z"  />
<glyph unicode="&#xE8;" horiz-adv-x="252" d="M123 424V218H212V142H123V76H242V44H123V31H242V0H45V501H242V469H123V455H242V424H123ZM83 650L109 676L177 602L152 577L83 650Z"  />
<glyph unicode="&#xE9;" horiz-adv-x="252" d="M123 424V218H212V142H123V76H242V44H123V31H242V0H45V501H242V469H123V455H242V424H123ZM131 577L106 602L174 676L200 650L131 577Z"  />
<glyph unicode="&#xEA;" horiz-adv-x="242" d="M123 424V218H212V142H123V76H242V44H123V31H242V0H45V501H242V469H123V455H242V424H123ZM208 623L181 605L144 665L107 605L80 623L144 716L208 623Z"  />
<glyph unicode="&#xEB;" horiz-adv-x="242" d="M123 424V218H212V142H123V76H242V44H123V31H242V0H45V501H242V469H123V455H242V424H123ZM116 599H69V646H116V599ZM216 599H169V646H216V599Z"  />
<glyph unicode="&#xEC;" horiz-adv-x="192" d="M135 0H103V283H89V0H57V425H-20V501H135V0ZM43 650L69 676L137 602L112 577L43 650Z"  />
<glyph unicode="&#xED;" horiz-adv-x="189" d="M135 0H103V283H89V0H57V425H-20V501H135V0ZM100 577L75 602L143 676L169 650L100 577Z"  />
<glyph unicode="&#xEE;" horiz-adv-x="183" d="M135 0H103V283H89V0H57V425H-20V501H135V0ZM157 623L130 605L93 665L56 605L29 623L93 716L157 623Z"  />
<glyph unicode="&#xEF;" horiz-adv-x="191" d="M135 0H103V283H89V0H57V425H-20V501H135V0ZM72 599H25V646H72V599ZM172 599H125V646H172V599Z"  />
<glyph unicode="&#xF0;" horiz-adv-x="368" d="M115 659Q103 665 84 667T48 667V750Q97 750 134 741T198 716L261 762L312 695L259 656Q286 616 302 571T326 476T336 375T337 270Q336 235 330 188T308 98T261 25T180 -5Q130 -5 100 21T53 85T31 167T25 246Q25 303 35 349T66 428T114 479T179 497Q212 497 234 483Q226 515 215 550T188 606L107 549L57 617L115 659ZM179 79Q198 79 211 95T232 135T244 188T248 246Q248 274 244 303T232 357T211 397T179 413Q160 413 147 397T126 357T113 304T109 246Q109 218 113 189T125 135T147 95T179 79ZM180 46Q131 46 103 98T75 245Q75 344 103 395T180 447V461Q157 461 136 450T98 414T71 347T60 245Q60 187 70 146T97 80T135 43T180 31V46Z"  />
<glyph unicode="&#xF1;" horiz-adv-x="364" d="M319 501V-25L122 270V0H90V319L76 339V0H45L46 527L242 231V501H276V178L289 158V501H319ZM209 617Q200 617 192 622T176 633T161 643T147 647Q138 645 135 636T134 617H105Q103 627 105 638T114 657T129 670T147 676Q155 676 163 671T180 659T196 649T209 646Q217 648 221 656T221 676H251Q255 655 242 636T209 617Z"  />
<glyph unicode="&#xF2;" horiz-adv-x="390" d="M197 505Q275 504 320 437T366 249Q366 210 359 166T332 83T280 19T196 -6Q117 -5 72 62T26 249Q26 288 33 332T59 415T111 479T197 505ZM103 249Q103 217 108 185T125 128T155 87T197 71Q223 71 240 86T267 127T282 185T287 249Q287 282 282 314T266 371T238 413T197 429Q170 429 152 413T123 372T108 314T103 249ZM196 21Q222 21 247 34T292 74T324 144T336 245Q336 306 324 350T293 422T248 464T196 478V464Q224 464 247 448T287 404T313 335T322 245Q322 150 288 93T196 36V21ZM126 650L152 676L220 602L195 577L126 650Z"  />
<glyph unicode="&#xF3;" horiz-adv-x="390" d="M197 505Q275 504 320 437T366 249Q366 210 359 166T332 83T280 19T196 -6Q117 -5 72 62T26 249Q26 288 33 332T59 415T111 479T197 505ZM103 249Q103 217 108 185T125 128T155 87T197 71Q223 71 240 86T267 127T282 185T287 249Q287 282 282 314T266 371T238 413T197 429Q170 429 152 413T123 372T108 314T103 249ZM196 21Q222 21 247 34T292 74T324 144T336 245Q336 306 324 350T293 422T248 464T196 478V464Q224 464 247 448T287 404T313 335T322 245Q322 150 288 93T196 36V21ZM195 577L170 602L238 676L264 650L195 577Z"  />
<glyph unicode="&#xF4;" horiz-adv-x="390" d="M197 505Q275 504 320 437T366 249Q366 210 359 166T332 83T280 19T196 -6Q117 -5 72 62T26 249Q26 288 33 332T59 415T111 479T197 505ZM103 249Q103 217 108 185T125 128T155 87T197 71Q223 71 240 86T267 127T282 185T287 249Q287 282 282 314T266 371T238 413T197 429Q170 429 152 413T123 372T108 314T103 249ZM196 21Q222 21 247 34T292 74T324 144T336 245Q336 306 324 350T293 422T248 464T196 478V464Q224 464 247 448T287 404T313 335T322 245Q322 150 288 93T196 36V21ZM263 623L236 605L199 665L162 605L135 623L199 716L263 623Z"  />
<glyph unicode="&#xF5;" horiz-adv-x="390" d="M197 505Q275 504 320 437T366 249Q366 210 359 166T332 83T280 19T196 -6Q117 -5 72 62T26 249Q26 288 33 332T59 415T111 479T197 505ZM103 249Q103 217 108 185T125 128T155 87T197 71Q223 71 240 86T267 127T282 185T287 249Q287 282 282 314T266 371T238 413T197 429Q170 429 152 413T123 372T108 314T103 249ZM196 21Q222 21 247 34T292 74T324 144T336 245Q336 306 324 350T293 422T248 464T196 478V464Q224 464 247 448T287 404T313 335T322 245Q322 150 288 93T196 36V21ZM226 617Q217 617 209 622T193 633T178 643T164 647Q155 645 152 636T151 617H122Q120 627 122 638T131 657T146 670T164 676Q172 676 180 671T197 659T213 649T226 646Q234 648 238 656T238 676H268Q272 655 259 636T226 617Z"  />
<glyph unicode="&#xF6;" horiz-adv-x="390" d="M197 505Q275 504 320 437T366 249Q366 210 359 166T332 83T280 19T196 -6Q117 -5 72 62T26 249Q26 288 33 332T59 415T111 479T197 505ZM103 249Q103 217 108 185T125 128T155 87T197 71Q223 71 240 86T267 127T282 185T287 249Q287 282 282 314T266 371T238 413T197 429Q170 429 152 413T123 372T108 314T103 249ZM196 21Q222 21 247 34T292 74T324 144T336 245Q336 306 324 350T293 422T248 464T196 478V464Q224 464 247 448T287 404T313 335T322 245Q322 150 288 93T196 36V21ZM170 599H123V646H170V599ZM270 599H223V646H270V599Z"  />
<glyph unicode="&#xF7;" horiz-adv-x="318" d="M211 470H96V584H211V470ZM211 170H96V283H211V170ZM278 367V324H40V367H106V386H40V429H278V386H211V367H278Z"  />
<glyph unicode="&#xF8;" horiz-adv-x="416" d="M215 505Q267 503 304 474L320 501L383 469L351 415Q384 352 384 249Q384 210 377 166T350 83T298 19T214 -6Q187 -5 164 2T121 27L105 0L79 15L99 49Q97 51 96 53T92 59L69 21L44 35L75 87Q44 149 44 249Q44 288 51 332T77 415T129 479T215 505ZM305 249Q305 269 304 288T298 325L162 97Q185 71 215 71Q241 71 258 86T285 127T300 185T305 249ZM121 249Q121 231 122 213T128 177L263 405Q242 429 215 429Q188 429 170 413T141 372T126 314T121 249ZM214 21Q240 21 265 34T310 74T342 144T354 245Q354 287 348 321T331 382L322 366Q330 340 335 310T340 245Q340 150 306 93T214 36V21ZM139 137L145 124L282 348L271 355L139 137ZM214 464Q252 464 281 435L288 447Q254 478 214 478V464Z"  />
<glyph unicode="&#xF9;" horiz-adv-x="356" d="M311 501V116Q311 86 301 64T272 26T230 3T178 -5Q150 -5 126 2T84 25T56 63T45 116V501H122V116Q122 87 138 80T178 73Q201 73 217 80T234 116V501H267V113Q267 108 266 96T256 71Q235 41 179 41V27Q242 27 268 64Q278 78 279 92T281 113V501H311ZM109 650L135 676L203 602L178 577L109 650Z"  />
<glyph unicode="&#xFA;" horiz-adv-x="356" d="M311 501V116Q311 86 301 64T272 26T230 3T178 -5Q150 -5 126 2T84 25T56 63T45 116V501H122V116Q122 87 138 80T178 73Q201 73 217 80T234 116V501H267V113Q267 108 266 96T256 71Q235 41 179 41V27Q242 27 268 64Q278 78 279 92T281 113V501H311ZM179 577L154 602L222 676L248 650L179 577Z"  />
<glyph unicode="&#xFB;" horiz-adv-x="356" d="M311 501V116Q311 86 301 64T272 26T230 3T178 -5Q150 -5 126 2T84 25T56 63T45 116V501H122V116Q122 87 138 80T178 73Q201 73 217 80T234 116V501H267V113Q267 108 266 96T256 71Q235 41 179 41V27Q242 27 268 64Q278 78 279 92T281 113V501H311ZM243 623L216 605L179 665L142 605L115 623L179 716L243 623Z"  />
<glyph unicode="&#xFC;" horiz-adv-x="356" d="M311 501V116Q311 86 301 64T272 26T230 3T178 -5Q150 -5 126 2T84 25T56 63T45 116V501H122V116Q122 87 138 80T178 73Q201 73 217 80T234 116V501H267V113Q267 108 266 96T256 71Q235 41 179 41V27Q242 27 268 64Q278 78 279 92T281 113V501H311ZM138 599H91V646H138V599ZM238 599H191V646H238V599Z"  />
<glyph unicode="&#xFD;" horiz-adv-x="257" d="M123 116V0H91V142L0 501H80L129 256L178 501H210L123 116ZM257 501L167 142V0H136V114L224 501H257ZM125 577L100 602L168 676L194 650L125 577Z"  />
<glyph unicode="&#xFE;" horiz-adv-x="358" d="M156 484Q194 478 226 457T282 405T319 334T333 249Q333 205 319 166T281 96T225 43T156 14V-250H110V124H91V-250H45V716H91V372H110V716H156V484ZM156 124Q187 138 207 171T228 249Q228 294 208 327T156 374V124Z"  />
<glyph unicode="&#xFF;" horiz-adv-x="257" d="M123 116V0H91V142L0 501H80L129 256L178 501H210L123 116ZM257 501L167 142V0H136V114L224 501H257ZM112 599H65V646H112V599ZM212 599H165V646H212V599Z"  />
<glyph unicode="&#x131;" horiz-adv-x="180" d="M135 0H103V283H89V0H57V425H-20V501H135V0Z"  />
<glyph unicode="&#x152;" horiz-adv-x="676" d="M505 606V313H632V203H505V109H676V63H505V44H676V0H394V28Q346 -5 278 -7Q228 -6 191 11T127 57T82 122T54 199T39 279T35 357Q35 443 52 511T100 626T175 698T276 723Q312 721 341 712T394 687V716H676V671H505V651H676V606H505ZM276 103Q316 104 346 128T394 193V523Q377 563 347 588T276 614Q240 614 216 591T176 532T154 450T147 357Q147 311 153 266T175 184T215 126T276 103ZM278 53Q237 53 204 74T148 135T111 229T98 352Q98 422 111 479T147 578T204 641T278 664V685Q240 685 204 666T140 605T94 502T77 352Q77 269 94 209T139 109T204 51T278 32V53Z"  />
<glyph unicode="&#x153;" horiz-adv-x="485" d="M356 424V218H445V142H356V76H475V44H356V31H475V0H278V19Q243 -4 195 -6Q143 -5 110 21T58 84T32 166T25 249Q25 370 70 437T194 505Q220 504 240 497T278 478V501H475V469H356V455H475V424H356ZM194 71Q228 72 248 97T278 161V339Q268 377 248 402T194 429Q169 429 152 413T124 372T109 314T104 249Q104 217 108 185T123 128T151 87T194 71ZM195 36Q138 36 104 93T69 245Q69 294 78 334T103 403T143 448T195 464V478Q169 478 144 465T99 423T67 350T55 245Q55 187 67 145T98 75T143 34T195 21V36Z"  />
<glyph unicode="&#x160;" horiz-adv-x="278" d="M180 392Q195 374 211 357T240 317T261 267T267 200Q265 160 246 122T195 54T121 8T31 -6V105Q85 102 118 129T155 196Q157 218 153 235T141 266T121 294T97 322Q80 340 64 361T36 406T17 460T11 526Q14 572 33 609T84 671T158 709T248 723V613Q197 613 162 590T121 527Q116 489 135 455T180 392ZM222 199Q222 226 216 248T198 290T174 327T146 362Q118 396 97 430T75 512H55Q55 486 61 464T79 422T103 385T131 350Q144 333 157 317T180 282T196 244T202 199H222ZM170 781L106 874L133 892L170 832L207 892L234 874L170 781Z"  />
<glyph unicode="&#x161;" horiz-adv-x="201" d="M129 274Q139 262 150 250T171 222T186 187T190 140Q189 112 176 85T140 38T88 6T25 -4V73Q63 71 86 90T112 137Q115 168 102 186T71 225Q60 238 49 253T29 285T15 322T11 368Q15 434 62 470T177 506V429Q141 429 117 413T88 369Q84 343 98 319T129 274ZM159 139Q159 177 143 203T106 253Q86 277 71 300T56 358H42Q42 321 58 295T95 245Q114 221 129 197T145 139H159ZM120 566L56 659L83 677L120 617L157 677L184 659L120 566Z"  />
<glyph unicode="&#x178;" horiz-adv-x="368" d="M175 166V0H129V203L0 716H114L183 366L253 716H300L175 166ZM367 716L238 203V0H194V163L320 716H367ZM158 814H111V861H158V814ZM258 814H211V861H258V814Z"  />
<glyph unicode="&#x17D;" horiz-adv-x="285" d="M169 452H285V404H207L153 110H285V0H85L169 452ZM153 472H31V514H116L134 607H0V716H198L153 472ZM150 452L65 0H22L96 404H31V452H150ZM173 472L218 716H263L227 514H285V472H173ZM152 781L88 874L115 892L152 832L189 892L216 874L152 781Z"  />
<glyph unicode="&#x17E;" horiz-adv-x="220" d="M118 330H32V360H92L104 425H10V501H149L118 330ZM129 316H210V283H155L118 77H210V0H70L129 316ZM115 316L56 0H26L78 283H32V316H115ZM132 330L163 501H195L169 360H210V330H132ZM114 566L50 659L77 677L114 617L151 677L178 659L114 566Z"  />
<glyph unicode="&#x192;" horiz-adv-x="251" d="M336 618Q213 618 196 502L165 299H262L256 256H99L98 247Q97 247 93 220T82 152T70 68T58 -12Q52 -48 43 -80T13 -136T-41 -175T-132 -191L-125 -145Q-3 -145 13 -29L91 510Q105 614 172 668T351 723L336 618ZM77 -15Q82 15 88 53T99 128T109 193T116 236H254L247 194H151L118 -37Q104 -141 37 -195T-140 -250L-135 -210Q-72 -209 -34 -192T27 -148T60 -86T77 -15Z"  />
<glyph unicode="&#x2C6;" horiz-adv-x="188" d="M158 584L131 566L94 626L57 566L30 584L94 677L158 584Z"  />
<glyph unicode="&#x2C7;" horiz-adv-x="188" d="M94 566L30 659L57 677L94 617L131 677L158 659L94 566Z"  />
<glyph unicode="&#x2DA;" horiz-adv-x="183" d="M92 600Q66 600 48 618T30 662Q30 688 48 705T92 723Q118 723 135 706T153 662Q153 636 136 618T92 600ZM92 698Q77 698 66 688T55 662Q55 647 66 636T92 625Q107 625 117 636T128 662Q128 677 118 687T92 698Z"  />
<glyph unicode="&#x2DC;" horiz-adv-x="208" d="M135 617Q126 617 118 622T102 633T87 643T73 647Q64 645 61 636T60 617H31Q29 627 31 638T40 657T55 670T73 676Q81 676 89 671T106 659T122 649T135 646Q143 648 147 656T147 676H177Q181 655 168 636T135 617Z"  />
<glyph unicode="&#x3BC;" horiz-adv-x="356" d="M311 501V116Q311 86 301 64T272 26T230 3T178 -5Q147 -5 122 4V-249H45V501H122V116Q122 87 138 80T178 73Q201 73 217 80T234 116V501H267V113Q267 108 266 96T256 71Q235 41 179 41V27Q242 27 268 64Q278 78 279 92T281 113V501H311Z"  />
<glyph unicode="&#x2013;" horiz-adv-x="304" d="M304 334V291H40V334H106V353H40V396H304V353H237V334H304Z"  />
<glyph unicode="&#x2014;" horiz-adv-x="405" d="M365 334V291H40V334H106V353H40V396H365V353H298V334H365Z"  />
<glyph unicode="&#x2018;" horiz-adv-x="153" d="M77 707Q71 696 69 681T71 646H31Q26 693 45 727Q56 746 77 760T124 782L133 745Q112 738 99 730T77 707Z"  />
<glyph unicode="&#x2019;" horiz-adv-x="163" d="M76 721Q82 732 84 747T82 782H122Q127 735 108 701Q97 682 76 668T29 646L20 683Q41 690 54 698T76 721Z"  />
<glyph unicode="&#x201A;" horiz-adv-x="163" d="M76 -9Q82 2 84 17T82 52H122Q127 5 108 -29Q97 -48 76 -62T29 -84L20 -47Q41 -40 54 -32T76 -9Z"  />
<glyph unicode="&#x201C;" horiz-adv-x="212" d="M40 716H82V570H40V716ZM130 716H172V570H130V716Z"  />
<glyph unicode="&#x201D;" horiz-adv-x="212" d="M40 716H82V570H40V716ZM130 716H172V570H130V716Z"  />
<glyph unicode="&#x201E;" horiz-adv-x="263" d="M76 -9Q82 2 84 17T82 52H122Q127 5 108 -29Q97 -48 76 -62T29 -84L20 -47Q41 -40 54 -32T76 -9ZM176 -9Q182 2 184 17T182 52H222Q227 5 208 -29Q197 -48 176 -62T129 -84L120 -47Q141 -40 154 -32T176 -9Z"  />
<glyph unicode="&#x2020;" horiz-adv-x="264" d="M254 396H187V-250H141V-86H122V-250H76V396H10V439H254V396ZM254 458H10V501H76V716H122V552H141V716H187V501H254V458Z"  />
<glyph unicode="&#x2021;" horiz-adv-x="264" d="M254 0H187V-250H141V-86H122V-250H76V0H10V43H254V0ZM254 458H10V501H76V716H122V642H141V716H187V501H254V458ZM254 62H10V105H76V396H10V439H254V396H187V105H254V62Z"  />
<glyph unicode="&#x2022;" horiz-adv-x="232" d="M40 346Q40 377 62 399T116 422Q148 422 170 400T192 346Q192 314 170 292T116 270Q85 270 63 292T40 346Z"  />
<glyph unicode="&#x2026;" horiz-adv-x="381" d="M97 0H40V57H97V0ZM219 0H162V57H219V0ZM341 0H284V57H341V0Z"  />
<glyph unicode="&#x2030;" horiz-adv-x="635" d="M159 -7H129L277 545H258L110 -7H81L276 723H353L159 -7ZM102 723Q143 723 166 679T190 561Q190 542 187 515T175 461T148 417T101 398Q61 398 38 443T15 561Q15 580 18 608T30 661T56 705T102 723ZM61 561Q61 511 72 478T102 445Q120 445 131 478T142 561Q142 612 131 644T102 676Q83 676 72 644T61 561ZM101 415Q107 415 119 419T142 437T162 481T171 562Q171 610 163 638T144 681T121 700T101 705V696Q108 696 118 692T138 675T155 634T162 562Q162 514 155 487T137 445T117 428T101 424V415ZM332 -4Q303 -4 286 14T260 57T248 110T245 158Q245 231 268 276T331 321Q360 321 377 303T404 258T417 205T420 158Q420 84 397 40T332 -4ZM291 158Q291 107 302 75T332 43Q350 43 361 75T372 158Q372 208 361 241T332 274Q313 274 302 241T291 158ZM331 295Q337 295 347 292T367 274T384 233T392 157Q392 112 385 85T369 45T349 27T331 23V14Q339 14 351 18T374 37T393 80T401 157Q401 208 393 237T373 281T349 300T331 304V295ZM532 -4Q503 -4 486 14T460 57T448 110T445 158Q445 231 468 276T531 321Q560 321 577 303T604 258T617 205T620 158Q620 84 597 40T532 -4ZM491 158Q491 107 502 75T532 43Q550 43 561 75T572 158Q572 208 561 241T532 274Q513 274 502 241T491 158ZM531 295Q537 295 547 292T567 274T584 233T592 157Q592 112 585 85T569 45T549 27T531 23V14Q539 14 551 18T574 37T593 80T601 157Q601 208 593 237T573 281T549 300T531 304V295Z"  />
<glyph unicode="&#x2039;" horiz-adv-x="223" d="M201 112H157L84 342H64L137 112H92L20 342L94 570H203L129 342L201 112Z"  />
<glyph unicode="&#x203A;" horiz-adv-x="223" d="M22 570H66L139 340H159L86 570H131L203 340L129 112H20L94 340L22 570Z"  />
<glyph unicode="&#x20AC;" horiz-adv-x="363" d="M363 632Q318 632 284 620T223 586T179 537T150 477H312V385H132Q131 378 131 372T131 360Q131 346 132 334T135 308H312V218H159Q184 162 233 125T363 87V46Q309 46 269 61T198 101T148 157T116 220H102Q108 201 118 181T142 141Q180 87 235 60T363 32V-5Q240 -3 164 56T59 218H0V308H42Q40 321 40 333T40 360Q40 366 40 372T41 385H0V477H56Q68 530 95 574T161 651T251 702T363 723V686Q291 686 237 659T144 577Q126 551 115 526T96 477H112Q122 511 140 546T188 608T261 654T363 672V632H363Z"  />
<glyph unicode="&#x2122;" horiz-adv-x="367" d="M299 714L223 584L204 617L193 479H177L195 706L236 637L297 742L299 714ZM189 716L171 479H153L174 741L189 716ZM317 479H278L266 615L236 561L227 577L299 703L317 479ZM137 680H102V479H86V680H80V479H65V680H30V716H137V680Z"  />

</font>
</defs>
</svg>
