<?xml version="1.0" encoding="utf-8"?>
<!-- Generator: Adobe Illustrator 15.0.0, SVG Export Plug-In . SVG Version: 6.00 Build 0)  -->
<!DOCTYPE svg PUBLIC "-//W3C//DTD SVG 1.1//EN" "http://www.w3.org/Graphics/SVG/1.1/DTD/svg11.dtd">
<svg version="1.1" id="Layer_1" xmlns="http://www.w3.org/2000/svg" xmlns:xlink="http://www.w3.org/1999/xlink" x="0px" y="0px"
	 width="276.668px" height="54.125px" viewBox="0 0 276.668 54.125" enable-background="new 0 0 276.668 54.125"
	 xml:space="preserve">
<g>
	<path fill="#BCBCBC" d="M17.492,1.995l4.3,51.67h-6.468l-0.542-6.468H9.94l-0.542,6.468H2.931l4.3-51.67H17.492z M10.482,40.765
		h3.758l-1.879-22.475L10.482,40.765z"/>
	<path fill="#BCBCBC" d="M31.15,1.995v45.202h9.684v6.468H24.683V1.995H31.15z"/>
	<path fill="#BCBCBC" d="M50.192,1.995v45.202h9.684v6.468H43.725V1.995H50.192z"/>
</g>
<g>
	<path fill="#BCBCBC" d="M84.695,1.995v6.468h-9.684V23.53h5.384v6.468h-5.384v17.199h9.684v6.468H68.544V1.995H84.695z"/>
	<path fill="#BCBCBC" d="M106.447,1.995l-4.3,51.67H91.886l-4.3-51.67h6.468l2.963,35.41l2.963-35.41H106.447z"/>
	<path fill="#BCBCBC" d="M125.489,1.995v6.468h-9.684V23.53h5.384v6.468h-5.384v17.199h9.684v6.468h-16.151V1.995H125.489z"/>
	<path fill="#BCBCBC" d="M146.663,1.995v51.67h-6.287l-5.528-23.703v23.703h-6.468V1.995h6.54l5.312,22.619V1.995H146.663z"/>
	<path fill="#BCBCBC" d="M166.789,1.995v6.468h-5.384v45.202h-6.468V8.462h-5.384V1.995H166.789z"/>
	<path fill="#BCBCBC" d="M181.531,1.995c1.469,0,2.734,0.53,3.794,1.59c1.06,1.061,1.59,2.325,1.59,3.794V19.23h-6.468V9.546
		c0-0.723-0.361-1.084-1.084-1.084h-2.168c-0.699,0-1.048,0.361-1.048,1.084v9.286c0,0.241,0.072,0.458,0.217,0.65l8.961,11.671
		c1.06,1.35,1.59,2.879,1.59,4.589v12.538c0,1.494-0.53,2.759-1.59,3.794c-1.06,1.061-2.325,1.59-3.794,1.59h-6.468
		c-1.493,0-2.759-0.529-3.794-1.59c-1.061-1.035-1.59-2.3-1.59-3.794V36.429h6.468v9.72c0,0.699,0.349,1.048,1.048,1.048h2.168
		c0.723,0,1.084-0.349,1.084-1.048V35.743c0-0.24-0.072-0.457-0.217-0.65l-8.997-11.671c-1.036-1.349-1.554-2.878-1.554-4.589V7.378
		c0-1.469,0.529-2.733,1.59-3.794c1.035-1.06,2.301-1.59,3.794-1.59H181.531z"/>
</g>
<g>
	<path fill="#CCCCCC" d="M199.469,53.665h-7.2v-7.2h7.2V53.665z"/>
</g>
<text transform="matrix(1 0 0 1 204.5088 53.6646)" fill="#CCCCCC" font-family="'BahnPro'" font-size="2"> </text>
<g>
	<path fill="#CCCCCC" d="M225.609,1.915V53.25v0.414h-6.9l-6.9-25.393v25.393h-6.9V2.397V1.915h6.9l6.9,25.461V1.915H225.609z"/>
	<path fill="#CCCCCC" d="M251.139,1.915V27.72v3.45c0,1.932-1.518,3.45-3.45,3.45h-3.45v19.044h-6.9V34.621h-3.449
		c-1.932,0-3.45-1.519-3.45-3.45v-3.45V1.915h6.899V27.72h6.9V1.915H251.139z"/>
	<path fill="#CCCCCC" d="M269.768,1.915h6.9v6.899v12.145h-6.9V8.814h-6.9v37.95h6.9V34.621h6.9v12.144v6.9h-6.9h-6.9h-6.899v-6.9
		V8.814V1.915H269.768z"/>
</g>
<g>
	<path fill="#FFFF37" d="M14.562,0l4.3,51.67h-6.468l-0.542-6.468H7.01L6.468,51.67H0L4.3,0H14.562z M7.552,38.771h3.758
		L9.431,16.296L7.552,38.771z"/>
	<path fill="#FFFF37" d="M28.22,0v45.202h9.684v6.468H21.752V0H28.22z"/>
	<path fill="#FFFF37" d="M47.262,0v45.202h9.684v6.468H40.794V0H47.262z"/>
</g>
<g>
	<path fill="#FFFF37" d="M81.765,0v6.468h-9.684v15.067h5.384v6.468h-5.384v17.199h9.684v6.468H65.613V0H81.765z"/>
	<path fill="#FFFF37" d="M103.517,0l-4.3,51.67H88.955L84.655,0h6.468l2.963,35.41L97.049,0H103.517z"/>
	<path fill="#FFFF37" d="M122.559,0v6.468h-9.684v15.067h5.384v6.468h-5.384v17.199h9.684v6.468h-16.151V0H122.559z"/>
	<path fill="#FFFF37" d="M143.732,0v51.67h-6.287l-5.528-23.703V51.67h-6.468V0h6.54l5.312,22.619V0H143.732z"/>
	<path fill="#FFFF37" d="M163.858,0v6.468h-5.384V51.67h-6.468V6.468h-5.384V0H163.858z"/>
	<path fill="#FFFF37" d="M178.601,0c1.47,0,2.733,0.53,3.794,1.59c1.06,1.061,1.59,2.325,1.59,3.794v11.852h-6.468V7.552
		c0-0.723-0.361-1.084-1.084-1.084h-2.168c-0.698,0-1.048,0.361-1.048,1.084v9.286c0,0.241,0.072,0.458,0.217,0.65l8.961,11.671
		c1.06,1.35,1.59,2.879,1.59,4.589v12.538c0,1.494-0.53,2.759-1.59,3.794c-1.061,1.061-2.324,1.59-3.794,1.59h-6.468
		c-1.494,0-2.758-0.529-3.794-1.59c-1.06-1.035-1.59-2.3-1.59-3.794V34.435h6.468v9.72c0,0.699,0.35,1.048,1.048,1.048h2.168
		c0.723,0,1.084-0.349,1.084-1.048V33.748c0-0.24-0.072-0.457-0.217-0.65l-8.997-11.671c-1.036-1.349-1.554-2.878-1.554-4.589V5.384
		c0-1.469,0.53-2.733,1.59-3.794c1.036-1.06,2.3-1.59,3.794-1.59H178.601z"/>
</g>
</svg>
