<?xml version="1.0" encoding="utf-8"?>
<!-- Generator: Adobe Illustrator 15.0.0, SVG Export Plug-In . SVG Version: 6.00 Build 0)  -->
<!DOCTYPE svg PUBLIC "-//W3C//DTD SVG 1.1//EN" "http://www.w3.org/Graphics/SVG/1.1/DTD/svg11.dtd">
<svg version="1.1" id="Layer_1" xmlns="http://www.w3.org/2000/svg" xmlns:xlink="http://www.w3.org/1999/xlink" x="0px" y="0px"
	 width="346.004px" height="53.665px" viewBox="0 0 346.004 53.665" enable-background="new 0 0 346.004 53.665"
	 xml:space="preserve">
<g>
	<path fill="#BCBCBC" d="M86.829,1.995l4.3,51.67h-6.468l-0.542-6.468h-4.842l-0.542,6.468h-6.468l4.3-51.67H86.829z M79.819,40.765
		h3.758l-1.879-22.475L79.819,40.765z"/>
	<path fill="#BCBCBC" d="M100.487,1.995v45.202h9.684v6.468H94.019V1.995H100.487z"/>
	<path fill="#BCBCBC" d="M119.529,1.995v45.202h9.684v6.468h-16.151V1.995H119.529z"/>
</g>
<g>
	<path fill="#BCBCBC" d="M154.032,1.995v6.468h-9.684V23.53h5.384v6.468h-5.384v17.199h9.684v6.468H137.88V1.995H154.032z"/>
	<path fill="#BCBCBC" d="M175.784,1.995l-4.3,51.67h-10.262l-4.3-51.67h6.468l2.963,35.41l2.963-35.41H175.784z"/>
	<path fill="#BCBCBC" d="M194.826,1.995v6.468h-9.684V23.53h5.384v6.468h-5.384v17.199h9.684v6.468h-16.151V1.995H194.826z"/>
	<path fill="#BCBCBC" d="M216,1.995v51.67h-6.287l-5.528-23.703v23.703h-6.468V1.995h6.54l5.312,22.619V1.995H216z"/>
	<path fill="#BCBCBC" d="M236.125,1.995v6.468h-5.384v45.202h-6.468V8.462h-5.384V1.995H236.125z"/>
	<path fill="#BCBCBC" d="M250.868,1.995c1.469,0,2.734,0.53,3.794,1.59c1.06,1.061,1.59,2.325,1.59,3.794V19.23h-6.468V9.546
		c0-0.723-0.361-1.084-1.084-1.084h-2.168c-0.699,0-1.048,0.361-1.048,1.084v9.286c0,0.241,0.072,0.458,0.217,0.65l8.961,11.671
		c1.06,1.35,1.59,2.879,1.59,4.589v12.538c0,1.494-0.53,2.759-1.59,3.794c-1.06,1.061-2.325,1.59-3.794,1.59H244.4
		c-1.493,0-2.759-0.529-3.794-1.59c-1.061-1.035-1.59-2.3-1.59-3.794V36.429h6.468v9.72c0,0.699,0.349,1.048,1.048,1.048h2.168
		c0.723,0,1.084-0.349,1.084-1.048V35.743c0-0.24-0.072-0.457-0.217-0.65l-8.997-11.671c-1.036-1.349-1.554-2.878-1.554-4.589V7.378
		c0-1.469,0.529-2.733,1.59-3.794c1.035-1.06,2.301-1.59,3.794-1.59H250.868z"/>
</g>
<g>
	<path fill="#CCCCCC" d="M268.805,53.665h-7.2v-7.2h7.2V53.665z"/>
</g>
<text transform="matrix(1 0 0 1 273.8452 53.6646)" fill="#CCCCCC" font-family="'BahnPro'" font-size="2"> </text>
<g>
	<path fill="#CCCCCC" d="M294.946,1.915V53.25v0.414h-6.9l-6.9-25.393v25.393h-6.9V2.397V1.915h6.9l6.9,25.461V1.915H294.946z"/>
	<path fill="#CCCCCC" d="M320.475,1.915V27.72v3.45c0,1.932-1.518,3.45-3.45,3.45h-3.45v19.044h-6.9V34.621h-3.449
		c-1.932,0-3.45-1.519-3.45-3.45v-3.45V1.915h6.899V27.72h6.9V1.915H320.475z"/>
	<path fill="#CCCCCC" d="M339.104,1.915h6.9v6.899v12.145h-6.9V8.814h-6.9v37.95h6.9V34.621h6.9v12.144v6.9h-6.9h-6.9h-6.899v-6.9
		V8.814V1.915H339.104z"/>
</g>
<g>
	<path fill="#F7EC23" d="M83.898,0l4.3,51.67H81.73l-0.542-6.468h-4.842l-0.542,6.468h-6.468L73.636,0H83.898z M76.888,38.771h3.758
		l-1.879-22.475L76.888,38.771z"/>
	<path fill="#F7EC23" d="M97.556,0v45.202h9.684v6.468H91.088V0H97.556z"/>
	<path fill="#F7EC23" d="M116.598,0v45.202h9.684v6.468H110.13V0H116.598z"/>
</g>
<g>
	<path fill="#F7EC23" d="M151.101,0v6.468h-9.684v15.067h5.384v6.468h-5.384v17.199h9.684v6.468H134.95V0H151.101z"/>
	<path fill="#F7EC23" d="M172.853,0l-4.3,51.67h-10.262L153.992,0h6.468l2.963,35.41L166.385,0H172.853z"/>
	<path fill="#F7EC23" d="M191.895,0v6.468h-9.684v15.067h5.384v6.468h-5.384v17.199h9.684v6.468h-16.151V0H191.895z"/>
	<path fill="#F7EC23" d="M213.069,0v51.67h-6.287l-5.528-23.703V51.67h-6.468V0h6.54l5.312,22.619V0H213.069z"/>
	<path fill="#F7EC23" d="M233.195,0v6.468h-5.384V51.67h-6.468V6.468h-5.384V0H233.195z"/>
	<path fill="#F7EC23" d="M247.937,0c1.47,0,2.733,0.53,3.794,1.59c1.06,1.061,1.59,2.325,1.59,3.794v11.852h-6.468V7.552
		c0-0.723-0.361-1.084-1.084-1.084h-2.168c-0.698,0-1.048,0.361-1.048,1.084v9.286c0,0.241,0.072,0.458,0.217,0.65l8.961,11.671
		c1.06,1.35,1.59,2.879,1.59,4.589v12.538c0,1.494-0.53,2.759-1.59,3.794c-1.061,1.061-2.324,1.59-3.794,1.59h-6.468
		c-1.494,0-2.758-0.529-3.794-1.59c-1.06-1.035-1.59-2.3-1.59-3.794V34.435h6.468v9.72c0,0.699,0.35,1.048,1.048,1.048h2.168
		c0.723,0,1.084-0.349,1.084-1.048V33.748c0-0.24-0.072-0.457-0.217-0.65l-8.997-11.671c-1.036-1.349-1.554-2.878-1.554-4.589V5.384
		c0-1.469,0.53-2.733,1.59-3.794c1.036-1.06,2.3-1.59,3.794-1.59H247.937z"/>
</g>
<g>
	<rect y="1.899" fill-rule="evenodd" clip-rule="evenodd" fill="#CCCCCC" width="55.231" height="9.564"/>
	<rect y="21.998" fill-rule="evenodd" clip-rule="evenodd" fill="#CCCCCC" width="55.231" height="9.564"/>
	<rect y="42.097" fill-rule="evenodd" clip-rule="evenodd" fill="#CCCCCC" width="55.231" height="9.564"/>
</g>
</svg>
