<?xml  version="1.0" encoding="UTF-8"?>
<!DOCTYPE svg PUBLIC "-//W3C//DTD SVG 1.0//EN" "http://www.w3.org/TR/2001/REC-SVG-20010904/DTD/svg10.dtd" >
<svg xmlns="http://www.w3.org/2000/svg" >
<metadata>
<version>1.0</version>
<id><![CDATA[Cimiez W01 Bold Italic]]></id>
<vendor>Monotype Imaging Inc.</vendor>
<credits>
<name>Fonts.com WebFonts</name>
<URL>http://webfonts.fonts.com</URL>
<role>Home of the Web fonts</role>
</credits>
<license>
<URL>http://webfonts.fonts.com/Legal</URL>
</license>
<copyright></copyright>
<trademark></trademark>
<licensee>
<name></name>
</licensee>
</metadata>
<defs >
<font horiz-adv-x="489" id="2debe66c-ca35-4d30-b20e-738574e381ec">
<font-face font-family="" panose-1="2 0 6 3 4 0 0 9 0 3" ascent="742" descent="-258" units-per-em="1000" alphabetic="0">
</font-face>
<missing-glyph horiz-adv-x="0" />

<glyph unicode="&#xA;" horiz-adv-x="0" />
<glyph unicode="&#xD;" />
<glyph unicode=" " horiz-adv-x="250" />
<glyph unicode="!" horiz-adv-x="220" d="M186 50Q181 23 158 4T108 -16Q81 -16 65 3T54 50Q59 77 81 96T131 116Q158 116 174 97T186 50ZM280 617Q251 514 224 411T171 205H121Q132 309 141 411T158 617H280Z"  />
<glyph unicode="&quot;" horiz-adv-x="404" d="M289 687Q271 631 257 582T229 476L196 477Q203 533 209 589T219 702L289 687ZM448 687Q430 631 416 582T388 476L355 477Q362 533 368 589T378 702L448 687Z"  />
<glyph unicode="#" horiz-adv-x="500" d="M549 400H459L386 238H473L450 188H364L280 0H217L300 188H205L121 0H59L142 188H43L66 238H163L235 400H135L160 450H257L332 621H399L323 450H415L490 621H558L482 450H571L549 400ZM300 400L227 238H321L393 400H300Z"  />
<glyph unicode="$" horiz-adv-x="460" d="M449 550Q419 575 382 585L325 389L350 371Q383 347 403 323T433 274T444 222T440 167Q433 126 411 93T358 36T287 -1T206 -14H204L182 -94L127 -88L150 -12Q124 -9 104 -4T67 10Q59 14 49 16T30 21L88 129Q102 108 124 93T174 70L238 287L204 312Q156 347 136 392T126 501Q133 540 153 572T203 627T271 663T353 676L368 729L422 722L407 672Q423 670 433 668T457 661Q470 658 481 657T503 654L449 550ZM327 591Q283 588 257 567T225 508Q221 488 237 465T277 422L327 591ZM336 153Q341 182 325 209T285 253H284L230 66Q274 70 302 95T336 153Z"  />
<glyph unicode="%" horiz-adv-x="844" d="M818 182Q810 137 795 101T758 40T711 1T657 -13Q624 -13 604 3T573 44Q560 73 559 108T564 182Q572 226 587 262T624 323T671 363T725 377Q754 377 775 362T808 321T822 260T818 182ZM750 182Q764 260 755 293T717 327Q702 327 691 319T669 295Q655 272 647 243T632 182Q625 143 626 111T633 62Q642 33 665 33Q681 33 692 42T713 66Q727 89 736 119T750 182ZM234 -40L184 -18L706 652L760 635L234 -40ZM384 444Q376 399 361 363T324 302T277 263T223 249Q190 249 170 265T139 306Q127 335 125 370T130 444Q138 488 154 524T191 585T238 625T292 639Q321 639 341 624T374 583T388 522T384 444ZM316 444Q330 522 321 555T283 589Q268 589 257 581T235 557Q221 534 213 505T198 444Q191 405 192 373T199 324Q208 295 231 295Q247 295 258 304T279 328Q293 351 302 381T316 444Z"  />
<glyph unicode="&amp;" horiz-adv-x="818" d="M807 54Q775 22 733 4T631 -15Q605 -15 578 -7T534 22Q524 31 511 53T489 91Q431 38 376 12T265 -15Q216 -15 181 0T126 41T98 100T97 170Q102 198 113 225T144 279T195 330T269 381Q241 407 236 435T235 492Q240 520 255 546T294 591T346 623T407 635Q440 635 464 624T502 596T521 555T522 508Q515 470 493 439T427 380Q466 349 491 316T539 239Q571 275 604 320T665 407H748Q736 388 716 360T671 299T620 235T571 175Q576 164 578 159L589 138Q611 91 636 76T700 60Q746 60 781 90L807 54ZM462 159Q439 216 404 258T328 331Q266 300 237 263T200 185Q195 160 201 139T221 103T257 79T306 70Q341 70 377 90T462 159ZM432 499Q438 527 425 543T390 560Q367 560 349 544T327 508Q322 483 331 466T367 432Q398 446 413 463T432 499Z"  />
<glyph unicode="&apos;" horiz-adv-x="235" d="M273 687Q255 631 241 582T213 476L180 477Q187 533 193 589T203 702L273 687Z"  />
<glyph unicode="(" horiz-adv-x="320" d="M433 688Q345 610 287 508T206 270Q182 134 203 32T286 -148L257 -163Q216 -133 187 -88T140 14T119 135T128 270Q140 340 166 405T230 526T313 627T410 703L433 688Z"  />
<glyph unicode=")" horiz-adv-x="320" d="M288 270Q276 200 250 135T186 14T103 -87T5 -163L-18 -148Q70 -70 128 32T210 270Q233 406 212 508T129 688L158 703Q199 673 229 628T276 526T296 405T288 270Z"  />
<glyph unicode="*" horiz-adv-x="394" d="M355 508L435 444L401 400L311 451L286 349H234L244 451L136 400L116 444L221 508L138 573L173 616L264 566L290 669H342L331 566L440 616L459 573L355 508Z"  />
<glyph unicode="+" horiz-adv-x="500" d="M471 158H320L292 0H209L237 158H86L99 231H250L278 394H361L333 231H484L471 158Z"  />
<glyph unicode="&#x2c;" horiz-adv-x="250" d="M199 40Q193 4 178 -22T141 -68T94 -100T41 -121L38 -86Q50 -82 64 -76T90 -62T110 -46T121 -30Q123 -19 121 -15T112 -8T98 -3T80 7Q72 13 68 24T65 47Q68 63 76 76T95 98T118 112T143 117Q169 117 187 98T199 40Z"  />
<glyph unicode="-" horiz-adv-x="320" d="M309 165Q192 169 73 165L85 233Q204 228 321 233L309 165Z"  />
<glyph unicode="." horiz-adv-x="250" d="M200 50Q195 23 172 4T122 -16Q95 -16 79 3T68 50Q73 77 95 96T145 116Q172 116 188 97T200 50Z"  />
<glyph unicode="/" horiz-adv-x="327" d="M418 686Q247 335 85 -16H27Q199 336 360 686H418Z"  />
<glyph unicode="0" horiz-adv-x="500" d="M516 312Q503 238 477 178T415 76T337 10T248 -13Q193 -13 159 14T107 82Q87 130 85 189T94 312Q107 385 133 445T194 547T272 613T362 637Q410 637 445 612T500 544T524 441T516 312ZM403 312Q425 440 410 497T348 554Q323 554 304 540T268 501Q244 463 231 415T207 312Q196 246 197 194T208 112Q224 64 261 64Q287 64 306 79T341 119Q366 158 379 208T403 312Z"  />
<glyph unicode="1" horiz-adv-x="248" d="M290 640Q287 627 283 607T275 563T266 515T258 469L203 158Q200 139 197 122T190 85T184 45T177 -1Q169 -1 154 -1T121 0H69L76 24Q79 35 81 44T85 64T89 86Q93 104 96 122T102 157L157 468Q159 481 161 492T165 518Q148 510 128 506T92 504L106 585Q150 590 180 608T224 640Q242 639 260 639T290 640Z"  />
<glyph unicode="2" horiz-adv-x="430" d="M488 466Q482 433 472 410T442 355Q421 323 399 298T355 252Q312 210 286 185T241 142T208 111T174 80H333Q353 80 362 81T386 84Q407 86 413 87T431 93L381 0Q208 3 36 0L27 57Q72 99 123 149T232 258Q260 286 273 301T299 329Q324 354 341 374T368 410T384 442T392 473Q400 515 376 536T306 557Q271 557 246 548T193 526L175 620Q190 621 196 622T215 626Q248 635 271 637T320 639Q363 639 397 627T453 593T485 538T488 466Z"  />
<glyph unicode="3" horiz-adv-x="472" d="M479 197Q468 140 439 98T370 26Q347 9 321 -5T268 -28T218 -43T175 -48Q146 -48 128 -47T96 -45T73 -40T51 -33L37 78Q63 58 79 50T106 39Q126 33 147 33T180 32Q212 32 244 46T299 84Q322 107 334 133T352 195Q363 262 342 293T272 324Q251 324 221 312L209 368Q286 399 325 433T368 488Q374 522 354 539T298 556Q281 556 263 554T228 547T197 538T172 526L156 620Q164 621 169 622T187 626Q209 631 244 635T318 639Q358 639 388 628T437 599T464 558T468 509Q461 471 440 444T377 391Q405 382 426 364T461 319T480 262T479 197Z"  />
<glyph unicode="4" horiz-adv-x="508" d="M584 695Q538 644 505 607T441 537T379 468T305 386Q299 378 291 369T269 344T238 309T193 258Q210 257 241 257T335 260L340 289Q343 306 345 319T349 343Q350 349 350 353T352 363T353 376T355 395Q365 395 380 403T413 423T449 452T481 486L475 459Q471 441 466 418T455 370T446 323L435 262Q442 262 448 262T466 263Q482 264 496 264T538 265L495 177Q470 177 454 177T420 177L417 159Q414 140 411 123T405 86T399 46T392 -1Q384 0 368 0T336 1T305 1T284 0L291 24Q294 35 296 45T299 64T304 87Q307 104 311 122T317 158L320 178Q263 179 227 179T167 180T123 178T79 176L86 260Q158 339 213 399T313 510T396 605T472 694L584 695Z"  />
<glyph unicode="5" horiz-adv-x="500" d="M499 559L304 563Q301 535 295 501T280 431Q332 431 373 416T440 373T476 303T478 212Q467 149 428 94T328 0Q266 -39 198 -54T54 -64L75 -1Q96 -4 121 -1T173 11T226 32T274 60Q311 86 336 122T371 210Q377 247 362 277T317 327T244 355T153 354Q159 379 163 396T173 436Q178 459 179 470T186 501Q194 535 198 569T207 638H247Q258 638 274 638T319 639T393 639T506 641L499 559Z"  />
<glyph unicode="6" horiz-adv-x="500" d="M581 629Q551 621 534 617T506 609T483 601T451 587Q416 571 391 554T345 518Q277 458 241 388T191 240Q176 155 197 108T278 64Q329 66 355 91T391 173Q404 245 381 281T314 318Q303 318 290 315T270 307L275 366Q302 376 322 379T372 383Q416 383 444 366T488 323Q502 300 506 266T505 198Q496 146 471 106T411 39T335 -1T252 -15Q198 -15 161 4T102 58T75 138T78 237Q86 286 103 326T142 404Q165 445 197 480T263 545Q334 605 415 640T582 689L581 629Z"  />
<glyph unicode="7" horiz-adv-x="500" d="M586 598Q561 561 541 531T499 470T455 403T400 322T329 216L235 75Q220 52 213 42T203 27T197 17T189 4T170 -24T135 -76L52 -36Q98 30 129 75T188 160T243 242T313 344Q319 352 323 359T339 384T374 439T442 541Q386 542 348 542T280 542T225 540T173 538L160 627Q169 626 200 625T284 624H511Q535 624 546 624T561 625T569 627L586 598Z"  />
<glyph unicode="8" horiz-adv-x="492" d="M515 486Q507 439 476 403T392 337Q416 320 433 302T461 263T474 217T471 160Q462 109 436 77T378 24Q343 1 310 -6T240 -14Q198 -14 164 -3T108 30T77 83T75 154Q84 207 119 247T216 325Q172 354 159 388Q149 411 148 429T151 471Q157 508 176 539T224 592T290 626T370 639Q451 639 488 596T515 486ZM422 484Q427 513 405 535T349 557Q329 557 312 551T282 534T261 510T250 484Q248 472 249 462T258 441T282 415T326 381Q376 409 396 432T422 484ZM372 157Q378 191 352 221T280 282Q233 259 206 226T174 166Q169 140 174 121T192 90T220 71T255 65Q307 65 336 91T372 157Z"  />
<glyph unicode="9" horiz-adv-x="500" d="M537 387Q529 338 512 298T473 220Q450 179 418 144T352 79Q281 19 200 -16T33 -65L34 -5Q64 3 81 7T110 15T133 23T165 37Q200 52 224 70T270 106Q338 166 374 236T424 384Q439 469 418 516T337 560Q286 558 261 533T225 451Q212 379 235 343T301 306Q312 306 325 309T345 317L340 258Q313 248 293 245T243 241Q199 241 171 258T127 301Q113 324 109 358T110 426Q119 478 144 518T204 585T280 625T363 639Q417 639 454 620T513 566T540 486T537 387Z"  />
<glyph unicode=":" horiz-adv-x="250" d="M199 50Q194 23 171 4T121 -16Q94 -16 78 3T67 50Q72 77 94 96T144 116Q171 116 187 97T199 50ZM248 328Q243 301 220 282T170 262Q143 262 127 281T116 328Q121 355 143 374T193 394Q220 394 236 375T248 328Z"  />
<glyph unicode=";" horiz-adv-x="250" d="M199 40Q193 4 178 -22T141 -68T94 -100T41 -121L38 -86Q50 -82 64 -76T90 -62T110 -46T121 -30Q123 -19 121 -15T112 -8T98 -3T80 7Q72 13 68 24T65 47Q68 63 76 76T95 98T118 112T143 117Q169 117 187 98T199 40ZM248 328Q243 301 220 282T170 262Q143 262 127 281T116 328Q121 355 143 374T193 394Q220 394 236 375T248 328Z"  />
<glyph unicode="&lt;" horiz-adv-x="500" d="M510 367Q424 332 339 295T167 219L166 217Q239 177 311 140T457 68L445 -1Q355 48 267 93T88 183L100 252Q206 297 311 343T522 437L510 367Z"  />
<glyph unicode="=" horiz-adv-x="500" d="M462 106Q269 111 77 106L87 167Q280 163 472 167L462 106ZM488 256Q297 261 103 256L114 317Q306 313 499 317L488 256Z"  />
<glyph unicode="&gt;" horiz-adv-x="500" d="M476 183Q370 139 266 93T55 -1L67 68Q237 138 410 217L411 219Q338 259 266 295T120 367L132 437Q222 388 310 343T488 252L476 183Z"  />
<glyph unicode="?" horiz-adv-x="321" d="M201 50Q196 23 173 4T123 -16Q96 -16 80 3T69 50Q74 77 96 96T146 116Q173 116 189 97T201 50ZM400 545Q396 521 383 500T352 462T311 429T264 402Q236 388 214 372T187 327Q184 314 185 299T191 268T202 238T217 215L127 199Q117 214 109 234T95 275T87 315T86 348Q92 379 107 400T142 437T185 464T229 488Q242 495 254 500T275 510T290 524T299 545Q303 568 291 576T255 584Q235 584 216 579T169 560L159 641Q174 652 204 663T274 675Q313 675 339 665T381 638T400 596T400 545Z"  />
<glyph unicode="@" horiz-adv-x="765" d="M813 409Q805 364 778 321T704 243T593 190T445 176Q446 185 448 197T454 223T462 250T471 274L495 336Q476 336 455 334T414 324T378 304T353 269Q344 246 353 230T383 213Q403 213 421 218T457 238L411 173Q401 170 383 168T350 165Q298 165 279 193T277 269Q288 297 311 318T366 353T434 375T509 383Q529 420 528 442T488 464Q462 464 438 454T377 421V485Q393 493 411 499T446 508T477 514T500 516Q524 516 545 510T582 491T602 462T600 421L549 282Q541 261 539 253T531 233Q569 233 605 243T672 275T724 331T754 412Q761 451 749 487T709 550T638 594T540 611Q477 611 415 588T302 522T215 421T166 294Q158 250 164 206T199 126T280 69T420 47Q474 47 507 57T567 79L581 35Q530 6 476 -5T379 -16Q317 -16 260 2T162 59T102 156T97 293Q113 381 158 452T266 572T406 649T559 676Q631 676 682 652T766 589T809 503T813 409Z"  />
<glyph unicode="A" horiz-adv-x="559" d="M555 0Q529 1 511 1H479Q470 1 457 1T427 0Q430 33 427 60T421 101L401 235H232L175 132Q145 78 134 49T115 0Q107 0 98 0T76 1H40Q20 1 3 0Q13 12 22 26T40 54T53 77T61 90L374 660H445L524 142L531 96Q534 77 537 61T545 30T555 0ZM370 464Q368 473 367 481Q367 488 368 494Q363 479 355 464L273 311H391L370 464Z"  />
<glyph unicode="B" horiz-adv-x="536" d="M559 496Q551 449 519 419T449 369Q475 361 497 347T534 312T555 262T555 197Q546 144 519 107T454 45T369 10T272 -1H232Q216 -1 202 -1T172 0T136 1H108Q91 1 76 0Q79 8 80 13T85 33T93 75T108 158L172 520Q178 553 183 587T191 659Q209 659 225 659T257 660T294 661T340 662Q463 664 517 618T559 496ZM436 195Q447 259 406 286T283 313H242L215 159Q213 145 211 136T207 117L203 100Q201 92 199 80Q216 79 234 78T273 77Q348 77 387 110T436 195ZM445 499Q453 542 425 563T343 585H289Q287 566 285 553T279 522L256 393H291Q331 393 358 399T403 419T430 452T445 499Z"  />
<glyph unicode="C" horiz-adv-x="672" d="M750 647Q747 620 744 586T740 513Q708 541 682 557T629 582T577 593T521 596Q454 596 403 578T314 526T254 445T221 340Q208 267 220 215T261 129T335 80T433 64Q471 64 505 71T571 91T633 118T694 148Q677 116 661 84T630 19Q610 17 598 14T574 7Q556 1 536 -3T497 -10T460 -14T429 -15Q348 -15 281 7T168 75T103 187T99 345Q114 433 158 495T262 598T390 656T520 674Q586 674 629 669T711 652Q722 649 734 648T750 647Z"  />
<glyph unicode="D" horiz-adv-x="708" d="M747 328Q735 260 702 200T614 94T487 23T324 -4Q307 -4 276 -3T215 -2T162 0T141 1H113Q97 1 79 0Q83 14 85 21T91 41T99 80T113 158L177 521Q182 551 185 571T190 606T193 633T195 660Q218 659 243 659T291 660Q307 660 318 660T340 661T361 661T389 662Q474 665 546 647T669 589T741 484T747 328ZM626 347Q635 399 623 442T579 516T500 565T389 582Q372 582 361 582T339 581T317 581T291 580Q290 564 288 551T283 522L219 159Q216 145 214 136T211 118T207 101T203 80Q229 79 258 77T326 75Q451 75 526 143T626 347Z"  />
<glyph unicode="E" horiz-adv-x="513" d="M567 580L287 585Q285 566 283 553T277 522L254 394H468L454 313H240L213 160Q210 146 209 136T205 118T202 101T197 80H258Q264 80 291 80T356 82T439 84T526 87L484 -2Q421 -2 382 -2T315 -1T268 -1T224 0Q200 0 186 0T163 1H134Q123 1 108 1T74 0Q75 6 77 12T82 33T91 78T106 159L170 520Q180 577 183 609T188 660H235Q249 660 270 660T329 661T425 661T570 663L567 580Z"  />
<glyph unicode="F" horiz-adv-x="465" d="M565 580L285 585Q283 566 281 553T275 522L252 394H475L461 313H238L211 160Q208 146 205 124T198 79T192 34T189 0H176Q171 0 166 0T152 1H132Q121 1 106 1T72 0Q73 6 75 12T80 33T89 78T104 159L168 520Q178 577 181 609T186 660H233Q247 660 268 660T327 661T423 661T568 663L565 580Z"  />
<glyph unicode="G" horiz-adv-x="696" d="M756 648Q752 616 750 583T745 517Q715 542 690 558T639 583T586 595T526 598Q460 598 409 579T320 526T260 444T227 339Q219 292 221 243T247 154T317 89T446 63Q474 63 500 66T552 77L560 125Q565 154 568 176T575 216T580 251T583 284Q592 284 607 284T640 283T674 283T700 284Q690 249 682 210T666 126L647 18Q630 16 618 15T599 10Q585 5 564 1T520 -7T478 -12T449 -14Q341 -14 269 15T155 93T103 207T103 343Q113 402 146 461T232 567T358 645T525 675Q591 675 636 669T721 651Q732 648 742 648H756Z"  />
<glyph unicode="H" horiz-adv-x="697" d="M735 660Q723 612 717 575T703 500L643 158Q637 122 631 85T619 0Q608 0 593 0T563 1T532 1T505 0Q509 17 513 40T522 85T531 127T537 159L565 316H244L216 159Q214 147 211 128T204 86T198 40T192 0Q180 0 165 0T135 1T104 1T78 0Q90 48 97 85T110 158L170 500Q177 538 183 575T194 660Q205 660 220 660T250 659T281 659T308 660Q304 643 300 620T291 575T282 533T276 501L258 395H579L597 501Q599 513 602 532T608 574T615 620T620 660Q632 660 647 660T678 659T709 659T735 660Z"  />
<glyph unicode="I" horiz-adv-x="248" d="M303 660Q299 648 294 630T284 589T275 544T266 500L206 160Q199 122 193 86T182 1Q172 1 157 1T125 2T93 2T68 1Q80 41 87 84T100 159L160 499Q167 531 172 561Q177 587 180 614T182 660Q189 660 205 660T240 659H275Q293 659 303 660Z"  />
<glyph unicode="J" horiz-adv-x="249" d="M296 660Q292 648 288 631T279 593T270 550T261 508L200 163Q186 85 167 27T121 -74T57 -142T-32 -182Q-49 -187 -58 -192T-76 -209Q-94 -185 -113 -163T-154 -120Q-107 -126 -68 -121T2 -86T58 1T100 162L160 507Q161 514 165 533T173 576T179 622T181 660Q188 660 203 660T236 659H269Q286 659 296 660Z"  />
<glyph unicode="K" horiz-adv-x="612" d="M711 660Q682 639 657 619T605 578L386 399Q364 381 352 375Q357 370 361 364T373 346L563 82Q583 55 603 34T638 0Q598 0 558 0T477 0L268 295Q263 300 257 305T246 318L218 159Q211 121 206 85T195 0Q185 0 169 0T136 1T103 1T79 0Q81 6 82 10T87 28T95 71T111 158L171 500Q175 521 179 544T186 588T191 628T195 660Q204 660 219 660T252 659T286 659T313 660Q310 649 306 631T296 591T287 546T278 501L255 371L267 380L520 594Q540 611 557 627T589 660Q656 658 711 660Z"  />
<glyph unicode="L" horiz-adv-x="496" d="M469 -2Q412 -2 376 -2T314 -1T268 -1T224 0Q200 0 186 0T163 1H134Q123 1 108 1T74 0Q75 6 77 12T82 33T91 78T106 159L170 520Q180 577 183 609T188 660Q247 657 307 660Q302 640 298 621T289 582Q285 562 283 550T277 522L213 160Q210 146 209 136T205 118T202 101T197 80H258Q264 80 291 80T355 82T433 84T511 87L469 -2Z"  />
<glyph unicode="M" horiz-adv-x="831" d="M870 660Q868 651 864 633T856 592T847 545T838 499L778 159Q771 121 766 86T754 0Q745 0 729 0T696 1T662 1T639 0Q652 51 659 86T673 159L720 423Q703 395 692 378T666 339L552 170Q528 134 511 109T481 64L458 30Q448 15 439 0H383Q382 7 377 26T360 88T327 201T273 382Q265 408 262 428T257 471L202 159Q195 121 190 86T179 0Q157 1 130 1T80 0Q84 15 87 26T94 54T102 94T114 158L174 498Q183 550 189 593T199 660Q206 660 221 660T253 659T287 659T314 660Q317 640 322 617T332 571T342 528T352 494L418 276Q430 237 436 211T451 156Q471 186 490 217T527 275L661 471Q684 505 700 531T729 580T750 621T767 660Q773 660 786 660T814 659T845 659T870 660Z"  />
<glyph unicode="N" horiz-adv-x="725" d="M765 660Q760 642 757 631T751 604T744 566T733 502L672 160Q667 132 664 112T658 75T653 41T648 0Q633 1 619 1T584 0Q574 18 561 39T533 81T505 120T483 151L310 394Q299 410 284 434T256 481L199 159Q196 140 193 123T188 86T183 46T177 0Q154 1 129 1T80 0Q84 13 87 25T93 54T100 95T112 158L172 500Q174 514 175 522T178 536T181 549T184 570T189 604T197 660Q212 659 237 659T282 660Q285 650 291 638T307 608T332 567T370 512L541 269Q554 250 566 234T591 194L645 501Q649 523 652 547T658 592T663 632T666 660Q689 659 715 659T765 660Z"  />
<glyph unicode="O" horiz-adv-x="780" d="M798 320Q784 243 741 178T643 71Q591 31 531 9T404 -14Q322 -14 259 11T155 81T98 190T96 328Q109 401 146 464T236 573T355 647T493 674Q574 674 637 648T740 574T796 462T798 320ZM681 321Q691 379 682 429T647 516T582 573T491 594Q442 594 397 575T314 520T251 434T214 324Q203 265 215 217T254 135T322 81T407 62Q453 62 498 81T580 136T644 218T681 321Z"  />
<glyph unicode="P" horiz-adv-x="488" d="M558 470Q551 431 531 397T482 336T417 295T343 280Q295 280 275 299T250 342Q289 337 322 346T381 372T422 415T443 468Q454 533 423 559T329 585H285Q283 567 281 553T276 522L212 159Q201 96 197 59T191 0Q182 0 166 0T131 1T97 1T72 0Q78 22 85 57T105 158L169 521Q177 569 182 603T189 659Q207 659 223 659T255 660T291 661T337 662Q403 663 448 649T521 610T556 548T558 470Z"  />
<glyph unicode="Q" horiz-adv-x="795" d="M809 319Q798 255 769 204T705 114Q665 70 618 42T522 -1Q538 -18 556 -33T594 -62T630 -86T659 -100Q706 -115 736 -113T782 -104Q756 -142 719 -155T645 -167T574 -156T521 -135Q477 -113 444 -85T372 -15Q298 -12 243 16T154 91T107 197T106 321Q119 396 156 460T248 571T368 644T506 671Q593 671 656 643T757 566T808 453T809 319ZM686 322Q698 389 686 439T647 522T582 571T504 588Q454 588 409 569T328 516T267 432T231 322Q224 282 229 236T254 151T311 87T408 61Q458 61 504 81T587 136T650 218T686 322Z"  />
<glyph unicode="R" horiz-adv-x="593" d="M618 25Q582 -4 550 -6T489 4T440 41T407 90Q394 116 381 145T353 201T326 248T300 277Q281 289 271 308T262 341Q348 341 393 376T449 469Q460 534 429 560T335 586H290Q288 568 286 554T281 523L217 159Q211 128 208 107T202 68T198 36T197 0Q188 0 171 0T136 1T101 1T76 0Q83 21 87 35T94 64T101 101T111 158L175 522Q179 542 181 559T186 593T190 625T194 660Q213 660 228 660T260 661T296 661T342 662Q408 663 453 649T526 610T562 549T564 471Q554 415 519 373T439 307Q434 305 424 303T408 302Q421 296 433 281Q445 266 450 257Q484 192 509 139T566 45Q574 34 589 29T618 25Z"  />
<glyph unicode="S" horiz-adv-x="449" d="M449 550Q424 572 395 581T345 591Q239 591 224 501Q221 486 238 462T283 418L350 371Q383 348 403 324T433 273T443 217T438 154Q432 117 410 87T358 34T290 -1T216 -14Q186 -14 163 -12T123 -7T93 0T67 10Q59 14 49 16T30 21L88 129Q108 100 140 83T215 65Q239 65 260 72T297 92T323 120T336 153Q341 182 324 209T284 253L204 312Q156 347 136 392T126 501Q133 541 153 573T203 627T269 662T344 674Q371 674 388 673T416 671T437 667T457 661Q470 658 481 657T503 654L449 550Z"  />
<glyph unicode="T" horiz-adv-x="569" d="M662 579L436 583Q430 555 427 538T419 500L359 159Q356 140 353 123T347 86T342 46T336 0Q327 0 311 0T277 1T243 1T220 0Q234 49 240 85T253 158L313 499Q317 522 319 540T327 583L108 579L135 660Q178 660 212 660T277 659H521Q552 659 586 659T663 660L662 579Z"  />
<glyph unicode="U" horiz-adv-x="699" d="M744 660L738 633Q734 615 730 594T720 548T711 502L671 291Q655 206 623 148T549 54T462 2T373 -14Q286 -14 233 6T154 67T125 164T135 297L171 501Q175 522 179 546T186 592T191 633T194 660Q201 660 217 660T251 659T286 659T312 660Q309 651 305 633T297 594T288 548T279 502L242 295Q231 232 234 188T254 117T300 78T372 65Q420 65 456 80T518 125T560 197T586 294L622 501Q630 546 637 590T645 660Q654 660 668 660T698 659T726 659T744 660Z"  />
<glyph unicode="V" horiz-adv-x="608" d="M731 660Q717 643 701 618T670 569L322 -16H267L148 518Q137 570 128 602T109 660Q132 659 149 659T181 658Q192 658 205 658T239 660Q239 637 243 613T254 560L337 190Q341 173 341 152Q348 174 358 190L557 529Q571 553 581 570T598 602T611 630T623 660Q649 659 678 659T731 660Z"  />
<glyph unicode="W" horiz-adv-x="901" d="M1016 660Q1003 643 987 618T956 569L609 -16H552L492 255L330 -16H275L156 518Q151 540 148 555T142 584T132 616T115 660Q137 660 156 660T190 658Q200 658 213 658T248 660Q247 639 251 614T262 560Q283 470 297 405T320 296T335 225T344 186Q346 177 347 171T348 160V152Q349 153 351 161T363 186L468 361L434 517Q433 523 429 540T419 579T406 623T389 660Q412 659 431 659T464 658Q476 658 490 658T521 660Q522 649 523 635T529 604Q531 591 534 577T543 537Q545 530 546 515T551 485Q555 496 560 506T572 528L600 576Q604 584 613 602T643 661Q668 660 696 660T749 661Q719 621 701 593T681 561L579 389L624 186Q626 181 626 170V154Q628 159 633 170T641 186L842 529Q856 553 866 570T883 602T897 630T909 660Q935 659 964 659T1016 660Z"  />
<glyph unicode="X" horiz-adv-x="579" d="M683 660Q678 655 667 643T642 618T619 592T604 576L399 348L502 152Q513 131 525 109T550 65T573 27T591 0Q516 2 442 0Q437 21 428 44T407 91L321 258L196 116Q181 99 169 85T147 58T128 32T106 0Q78 2 44 2T-16 0Q-6 7 6 19T31 43T53 67T69 84L285 328L192 506Q181 527 169 550T144 594T122 632T104 660Q142 658 180 658T253 660Q258 639 267 615T287 569L364 418L473 544Q507 583 528 611T564 660Q594 659 625 659T683 660Z"  />
<glyph unicode="Y" horiz-adv-x="571" d="M685 660Q680 655 671 644T651 620T630 593T614 570L382 236L368 159Q361 121 356 85T346 0Q337 0 321 0T288 1T254 1T230 0Q233 12 235 19T240 40T248 81T262 158L274 227L175 516Q173 522 168 538T154 575T136 618T114 660Q137 658 158 658T193 657Q204 657 216 658T251 660Q258 631 263 610T278 561L355 347Q357 340 359 333T360 318Q362 325 366 333T374 347L499 532Q522 566 534 586T553 620T563 641T571 660Q598 659 629 659T685 660Z"  />
<glyph unicode="Z" horiz-adv-x="567" d="M208 81Q295 81 353 82T451 85T520 90T575 98L520 0H7L472 580Q373 579 316 578T224 575T171 571T130 567L191 660H674L208 81Z"  />
<glyph unicode="[" horiz-adv-x="320" d="M425 644L321 636Q312 635 312 635T305 630Q302 627 299 615T291 584T281 539T271 485L194 51Q186 4 182 -24T177 -67T175 -87T177 -94L182 -99L191 -100L292 -109L279 -164H246Q231 -164 213 -165Q196 -165 186 -165T157 -165L72 -162L227 702L310 701H336Q348 701 365 700Q383 699 397 699T435 696L425 644Z"  />
<glyph unicode="\" horiz-adv-x="309" d="M206 -16L139 686H221L288 -16H206Z"  />
<glyph unicode="]" horiz-adv-x="320" d="M195 -162L110 -165Q91 -166 81 -166T54 -165Q36 -164 20 -164H-12L-4 -109L98 -100Q112 -98 112 -98T119 -94Q120 -93 123 -88T130 -67T140 -24T154 51L231 485Q236 514 240 539T246 583T249 615T247 630Q242 635 242 635T228 636L129 644L137 696Q160 698 174 699T207 701Q226 702 238 702T264 701L347 702L195 -162Z"  />
<glyph unicode="^" horiz-adv-x="500" d="M431 244Q412 322 392 399T348 555Q297 477 249 400T155 244H80Q145 341 205 435T324 626H396Q422 530 449 435T505 244H431Z"  />
<glyph unicode="_" horiz-adv-x="500" d="M0 -137V-63H501V-137H0Z"  />
<glyph unicode="`" horiz-adv-x="360" d="M333 463Q285 489 245 510T157 553L190 637Q229 602 268 570T350 505L333 463Z"  />
<glyph unicode="a" horiz-adv-x="412" d="M363 119Q360 99 358 84T356 56T355 29T358 0Q352 0 338 0T308 1T278 1T260 0Q257 8 257 25T257 61T259 99T263 127L274 186Q217 184 188 167T154 121Q150 98 161 84T183 70Q220 70 235 77Q249 83 257 93L204 -13Q199 -14 192 -14T179 -15Q142 -15 116 -5T74 25T53 68T52 122Q63 186 125 223T289 264Q296 306 285 316T250 327Q217 327 194 318T144 292L121 370Q136 378 154 385T191 397T226 405T253 408Q331 408 366 373T392 282L363 119Z"  />
<glyph unicode="b" horiz-adv-x="508" d="M516 216Q511 174 493 134T445 63T371 11T273 -14Q247 -16 230 -12T202 0T186 17T177 37Q173 26 169 19T159 0Q152 0 139 0T111 1T84 1T65 0Q68 6 78 44T103 158L172 550Q175 565 178 580T184 615T191 659T198 716Q204 716 218 716T249 715T282 715T306 716Q303 704 299 685T291 643T282 597T273 551Q254 445 236 340T199 129Q204 97 224 79T280 63Q337 66 365 99T402 194Q407 233 402 259T386 300T360 322T328 328Q289 326 267 316T229 285L289 403Q298 405 310 406T333 408Q380 411 416 398T477 358T511 296T516 216Z"  />
<glyph unicode="c" horiz-adv-x="394" d="M374 281Q355 309 338 317T289 325Q260 325 233 307T193 263Q172 219 170 182T176 117T204 75T243 60Q284 60 309 74T352 109L404 75Q387 51 366 34T322 5T279 -11T242 -16Q188 -16 151 0T91 46T63 115T65 202Q72 242 95 279T150 345T220 391T298 408Q340 408 371 398T428 369L374 281Z"  />
<glyph unicode="d" horiz-adv-x="507" d="M557 702Q556 692 553 673T544 624T530 550L461 158Q460 153 459 149T457 138Q449 94 446 62T443 0Q437 0 425 0T398 1T370 1T349 0Q347 11 346 18T345 37Q331 17 308 2T241 -14Q200 -14 164 1T103 46T68 118T67 214Q75 258 98 293T153 354T223 394T300 409Q325 409 338 407T361 403L379 285Q371 305 353 317T302 328Q283 328 264 322T229 301T199 263T177 204Q161 135 177 101T250 63Q286 61 312 79T355 129Q374 235 392 340T429 551Q433 573 436 596T443 642T449 684T454 716Q462 716 477 716T508 715T538 715T560 716Q559 712 557 702ZM562 716Q561 714 561 716H560Q562 721 562 720T561 716H562Z"  />
<glyph unicode="e" horiz-adv-x="417" d="M227 193L214 264H349Q351 299 338 313T293 328Q249 328 221 301T180 232Q168 193 168 162T179 108T208 73T251 61Q282 61 307 74T352 111L401 80Q367 32 325 8T248 -16Q210 -16 173 -5T109 32T70 104T69 217Q76 257 99 292T155 352T224 393T294 408Q325 408 356 402T408 373T437 309T428 193H227Z"  />
<glyph unicode="f" horiz-adv-x="290" d="M444 580Q427 608 414 616T391 624Q353 624 330 607T293 563Q288 553 276 514T250 394H350L309 322H238L209 159Q206 140 203 123T197 86T192 46T186 -1Q181 -1 167 -1T135 0H78Q79 1 81 8T87 34T97 81T111 158L140 322H107L97 373L151 391Q158 427 165 453T179 500T195 537T213 568Q235 604 259 628T308 668T354 691T393 698Q441 698 464 691T499 666L444 580Z"  />
<glyph unicode="g" horiz-adv-x="505" d="M514 394Q508 377 503 361T494 327T485 286T475 237L444 65Q430 -10 411 -63T362 -149T290 -198T191 -214Q143 -214 102 -200T26 -169L75 -93Q97 -107 115 -115T148 -128T176 -134T205 -135Q236 -135 259 -122T300 -87T328 -33T345 37Q334 20 321 10T295 -5T270 -13T249 -15Q200 -16 163 2T101 51T67 125T66 216Q75 267 102 303T165 363T238 398T306 409Q325 409 338 408T361 404L380 276Q370 309 350 321T297 331Q250 328 217 295T175 211Q168 173 170 146T181 100T204 74T235 65Q286 65 312 76T352 105L381 273Q387 308 396 342T415 394Q420 394 434 394T464 393T494 393T514 394Z"  />
<glyph unicode="h" horiz-adv-x="502" d="M309 715Q306 705 302 688T292 648T283 603T274 557L204 158Q201 139 198 122T192 85T187 45T182 -1Q174 -1 158 -1T124 0H71Q74 10 78 27T86 65T94 111T103 159L173 556Q174 563 178 581T186 621T193 668T197 714Q204 714 219 714T252 713T285 713T309 715ZM459 158Q456 139 453 122T446 85T440 45T433 -1Q425 -1 409 -1T376 0H324Q328 13 330 20T336 42T344 82T358 159L372 237Q378 268 378 285T376 312T366 323T347 326Q303 326 274 310T227 274L286 393Q308 401 325 404T367 408Q437 408 463 373T480 280L459 158Z"  />
<glyph unicode="i" horiz-adv-x="243" d="M248 395Q245 385 241 368T231 328T222 283T213 237L199 158Q196 139 193 122T187 85T182 45T177 -1Q169 -1 153 -1T119 0H66Q69 10 72 27T80 65T89 111T98 159L112 236Q114 248 118 270T125 315T132 360T135 394Q142 394 157 394T190 393T223 393T248 395ZM294 611Q289 582 267 565T219 548Q190 548 176 565T166 609Q169 624 176 636T195 656T218 669T244 674Q272 674 285 656T294 611Z"  />
<glyph unicode="j" horiz-adv-x="241" d="M247 395Q244 385 240 367T230 325T220 277T211 230L179 50Q172 12 165 -13T152 -57T138 -88T125 -112Q85 -180 40 -217T-61 -276L-75 -233Q-48 -221 -30 -207T2 -176T25 -140T44 -99Q57 -66 63 -35T76 31L112 232Q112 231 113 241T117 267T122 303T127 341T132 373T134 394Q141 394 156 394T189 393T222 393T247 395ZM291 611Q286 582 264 565T216 548Q187 548 173 565T163 609Q166 624 173 636T192 656T215 669T241 674Q269 674 282 656T291 611Z"  />
<glyph unicode="k" horiz-adv-x="490" d="M334 229L500 0Q428 3 356 0L213 199L199 118Q196 97 193 75T186 32T182 -1Q174 -1 158 -1T124 0H71Q74 10 78 27T86 65T94 111T103 159L173 556Q174 563 178 581T186 621T193 668T197 714Q204 714 219 714T252 713T285 714T309 716Q305 704 301 683T292 640T283 597T277 564L217 223Q240 238 288 278T415 394Q473 391 528 394L334 229Z"  />
<glyph unicode="l" horiz-adv-x="250" d="M309 715Q306 705 302 688T292 648T283 603T274 557L204 158Q201 139 198 122T192 85T187 45T182 -1Q174 -1 158 -1T124 0H71Q74 10 78 27T86 65T94 111T103 159L173 556Q174 563 178 581T186 621T193 668T197 714Q204 714 219 714T252 713T285 713T309 715Z"  />
<glyph unicode="m" horiz-adv-x="757" d="M226 394Q231 378 229 349T220 275L279 393Q302 401 327 404T375 408Q438 408 464 373T479 281L457 160Q450 122 444 85T433 0Q424 1 408 1H346Q332 1 325 0Q332 21 339 61T357 161L371 237Q377 268 377 286T373 313T358 324T330 326Q298 326 269 311T220 275Q218 266 217 257T213 237L199 160Q192 122 186 87T175 1H118Q101 1 86 1T65 0Q69 9 71 19T77 47T85 91T98 161L112 237Q117 265 120 286T125 326T127 360T127 395Q132 395 146 395T176 394H226ZM712 160Q705 122 699 85T688 0Q679 1 663 1H601Q587 1 580 0Q584 11 586 23T592 52T600 95T612 161L626 237Q632 268 632 286T628 313T613 324T585 326Q553 326 526 310T478 274L538 393Q561 401 584 404T630 408Q693 408 719 373T734 281L712 160Z"  />
<glyph unicode="n" horiz-adv-x="498" d="M227 394Q232 378 230 349T221 275L280 393Q303 401 326 404T372 408Q435 408 461 373T476 281L454 160Q447 122 441 85T430 0Q421 1 405 1H343Q329 1 322 0Q325 8 327 18T333 45T341 90T354 161L368 237Q374 268 374 286T370 313T355 324T327 326Q295 326 268 311T221 275Q219 266 218 257T214 237L200 160Q193 122 187 87T176 1H119Q102 1 87 1T66 0Q69 8 71 18T77 45T86 90T99 161L113 237Q118 265 121 286T126 326T128 360T128 395Q133 395 147 395T177 394H227Z"  />
<glyph unicode="o" horiz-adv-x="486" d="M487 187Q483 154 466 118T420 53T349 4T255 -15Q149 -14 101 42T63 196Q67 230 85 267T132 336T203 387T295 408Q342 408 380 395T445 355T482 286T487 187ZM377 189Q382 228 377 254T360 296T331 319T292 326Q192 326 175 195Q166 126 190 94T256 62Q313 62 341 95T377 189Z"  />
<glyph unicode="p" horiz-adv-x="510" d="M512 192Q501 145 477 107T421 41T351 -1T272 -16Q213 -16 176 12L158 -88Q155 -104 146 -149T131 -255Q126 -255 111 -255T79 -254T47 -254T25 -255Q42 -194 48 -155T60 -87L117 237Q127 292 130 326T132 394Q138 394 152 394T182 393T212 393T231 394Q233 385 233 372T232 342T229 308T223 273L194 105Q201 88 221 77T280 66Q297 66 315 72T349 94T380 133T402 193Q416 254 400 292T336 331Q305 332 276 321T226 276L289 404Q300 407 312 407T339 408Q381 408 417 394T479 353T514 285T512 192Z"  />
<glyph unicode="q" horiz-adv-x="504" d="M515 394Q509 377 504 361T495 327T486 286T476 237L419 -87Q415 -110 411 -133T404 -179T398 -220T394 -255Q388 -254 372 -254H305Q290 -254 285 -255Q297 -203 304 -166T319 -88L339 18Q316 0 291 -8T244 -16Q197 -16 161 -2T102 40T68 104T63 188Q69 240 93 281T151 350T225 394T307 409Q326 409 339 408T362 404L381 276Q371 309 351 320T301 331Q278 331 257 321T219 292T190 247T174 189Q170 155 175 132T190 94T215 73T245 66Q289 66 314 77T353 105L382 273Q388 308 397 342T416 394Q421 394 435 394T465 393T495 393T515 394Z"  />
<glyph unicode="r" horiz-adv-x="329" d="M226 394Q232 375 227 336T211 237L197 160Q190 122 185 87T175 1H118Q101 1 86 1T65 0Q80 50 85 86T98 161L112 237Q117 265 120 286T125 326T126 360T122 395Q149 393 175 393T226 394ZM343 305Q331 321 314 322T279 317T245 297T219 274L279 393Q286 396 294 399T316 406T350 410T400 408L343 305Z"  />
<glyph unicode="s" horiz-adv-x="333" d="M291 315Q270 336 244 334Q217 332 200 323T181 301Q179 289 196 276T236 247Q260 230 276 216T303 186T315 149T311 99Q306 72 290 51T253 14T208 -8T160 -16Q133 -16 114 -14T81 -7T58 4T40 18L91 98Q103 78 121 72T159 65Q188 64 201 74T217 97Q220 112 210 121T174 147Q151 161 133 175T103 205T87 241T89 288Q100 342 143 375T245 409Q288 409 309 402T339 386L291 315Z"  />
<glyph unicode="t" horiz-adv-x="309" d="M236 327Q233 313 232 306T229 292T226 277T222 254L202 144Q198 121 199 106T205 82T216 68T229 64Q257 64 268 66T288 73L306 9Q269 -7 247 -12T215 -18Q176 -18 151 -8T113 21T96 63T98 114L123 255Q126 269 127 277T128 291T130 305T133 327H100L93 374Q111 377 126 380T156 393T185 424T214 483H264L245 394H334L350 327H236Z"  />
<glyph unicode="u" horiz-adv-x="496" d="M285 2Q262 -6 240 -9T194 -13Q131 -13 106 22T90 114L111 235Q118 273 124 310T136 395Q145 394 160 394T191 393T221 393T244 395Q240 380 237 366T230 334T222 292T211 234L198 158Q193 127 192 109T195 82T210 71T238 69Q270 69 297 85T345 121L285 2ZM500 395Q497 384 494 373T487 345T478 301T466 234L453 158Q448 129 445 108T440 68T438 34T438 0Q432 0 418 0T388 1H338Q333 20 337 59T352 158L365 235Q372 273 378 308T389 394H446Q464 394 479 394T500 395Z"  />
<glyph unicode="v" horiz-adv-x="417" d="M477 394Q454 363 435 330T398 269L230 0Q219 2 202 2T173 0L109 280Q101 315 92 343T74 394Q80 394 95 394T129 393T163 393T187 394Q192 367 199 340T212 284L237 166Q240 148 239 134Q241 141 245 149T253 166L321 288Q333 309 341 324T355 351T365 373T374 394Q381 394 394 394T424 393T454 393T477 394Z"  />
<glyph unicode="w" horiz-adv-x="663" d="M720 395Q712 386 703 371T682 338T660 302T640 269L469 -1Q445 2 421 -1L368 226L233 -1Q210 2 187 -1L112 280Q95 347 78 395H191Q198 339 215 284L247 175Q249 170 249 164V155L253 165Q255 170 257 173L325 288Q337 309 346 324T361 351T373 373T383 395Q405 392 428 395Q430 369 436 343T451 291L483 175Q485 170 485 165T484 155Q488 166 493 173L561 288Q573 309 581 324T596 351T607 373T617 395Q623 395 637 395T666 394T696 394T720 395Z"  />
<glyph unicode="x" horiz-adv-x="405" d="M287 207L394 -1Q365 1 336 1T281 0L214 131L98 0Q73 1 48 1T4 0L179 196L76 394Q130 392 192 394L252 272L356 394H404Q426 394 450 395L287 207Z"  />
<glyph unicode="y" horiz-adv-x="396" d="M460 394Q450 380 441 365T424 337L234 45Q221 25 211 11T190 -16T168 -41T141 -69Q94 -114 39 -134T-61 -151L-50 -90Q-24 -92 -11 -90T14 -83Q33 -75 49 -66T80 -43T109 -11T142 33L85 336Q83 348 80 364T72 394Q96 393 126 393T180 393Q180 379 180 369T183 348L219 150L347 353Q349 357 351 360T356 368Q360 373 364 380T370 394Q390 392 416 392T460 394Z"  />
<glyph unicode="z" horiz-adv-x="370" d="M168 69Q221 69 252 69T304 71T337 73T365 78L321 0H10L264 326Q248 326 241 326T226 325H186Q166 325 153 325T128 324T106 322T80 319L126 394H423L168 69Z"  />
<glyph unicode="{" horiz-adv-x="320" d="M412 674Q383 669 365 659T336 636T319 608T311 578Q306 554 305 529T303 478Q302 452 301 427T294 375Q286 332 264 306T201 270L200 266Q238 256 251 230T256 161Q251 135 244 110T229 58Q221 32 214 8T202 -42Q199 -57 199 -72T205 -100T227 -123T269 -138L253 -158Q235 -158 211 -155T167 -139T136 -101T133 -32Q138 -6 145 21T160 75Q168 101 174 126T185 174Q187 187 187 200T182 226T159 246T112 257L116 279Q147 281 166 289T196 310T211 335T218 362Q222 385 223 410T228 462Q230 488 232 515T239 568Q247 612 266 637T310 675T360 691T403 694L412 674Z"  />
<glyph unicode="|" horiz-adv-x="239" d="M282 686Q249 509 218 335T158 -16H87Q121 161 151 335T211 686H282Z"  />
<glyph unicode="}" horiz-adv-x="320" d="M298 257Q266 255 248 247T219 226T204 201T197 174Q192 151 190 126T186 75L182 21Q180 -6 175 -32Q167 -76 148 -101T104 -139T54 -155T11 -158L3 -138Q31 -134 49 -124T79 -100T96 -72T104 -42Q108 -17 108 7T111 58Q113 84 114 109T120 161Q135 247 214 266L215 270Q177 280 164 306T158 375Q163 401 170 426T185 478Q193 504 200 529T213 578Q216 593 216 608T210 636T188 659T146 674L161 694Q179 694 203 691T247 675T278 637T281 568Q276 542 269 515T254 462Q246 435 240 410T230 362Q228 349 228 336T233 310T255 290T302 279L298 257Z"  />
<glyph unicode="~" horiz-adv-x="500" d="M471 269Q468 263 462 253T448 230T430 206T411 187Q396 176 383 172T352 168H228Q208 168 195 165T171 155T150 135T127 103L99 129Q102 135 108 145T123 167T140 190T158 209Q173 222 188 226T219 230H343Q362 230 375 233T399 243T420 263T443 295L471 269Z"  />
<glyph unicode="&#xA0;" horiz-adv-x="500" />
<glyph unicode="&#xA1;" horiz-adv-x="220" d="M166 175Q155 72 146 -31T129 -237H7Q36 -134 63 -32T116 175H166ZM235 330Q230 303 208 284T158 264Q131 264 115 283T103 330Q108 357 131 376T181 396Q208 396 224 377T235 330Z"  />
<glyph unicode="&#xA2;" horiz-adv-x="415" d="M373 281Q362 298 353 307T330 320L234 62Q239 61 242 61T250 60Q285 60 309 74T351 109L403 75Q368 26 318 5T218 -16H204L166 -119L119 -109L157 -6Q132 1 113 17T81 53Q66 79 60 109T61 179Q70 228 93 269T150 342T225 390T311 408H312L349 507L397 497L361 401Q396 392 427 369L373 281ZM281 325Q267 323 253 318T226 303T203 283T187 260Q173 231 169 206T166 159T175 120T193 89L281 325Z"  />
<glyph unicode="&#xA3;" horiz-adv-x="439" d="M435 522Q418 550 404 558T373 566Q342 566 321 549T285 505Q280 496 269 461T249 375L241 328H323L294 269H230L211 159Q208 145 207 135T203 117T200 101T195 80Q202 80 211 80T237 78Q283 76 316 77T371 81T407 88T427 98L374 0Q326 1 267 1T132 2H104Q87 2 69 1Q76 24 80 44T90 87Q95 112 97 126T104 158L127 269H60L90 328H140Q148 365 155 393T171 442T187 480T205 511Q249 582 303 611T412 640Q467 640 490 609L435 522Z"  />
<glyph unicode="&#xA4;" horiz-adv-x="672" d="M750 647Q747 620 744 586T740 513Q708 541 682 557T629 582T577 593T521 596Q421 596 355 556T254 445Q308 445 360 445T459 447L448 386Q399 388 344 388H232Q229 377 226 365T221 340Q216 316 215 295H327Q383 295 432 297L422 236Q375 237 323 237T216 238Q221 192 239 159T287 105T353 74T433 64Q471 64 505 71T571 91T633 118T694 148Q677 116 661 84T630 19Q610 17 598 14T574 7Q556 1 536 -3T497 -10T460 -14T429 -15Q361 -15 303 1T200 48T128 127T94 238Q68 237 44 237T-3 236L7 297Q27 296 48 296H93Q95 320 99 345Q101 356 103 366T109 387H64Q43 387 23 386L34 447Q57 446 81 446T130 445Q158 506 203 549T301 620T410 661T520 674Q586 674 629 669T711 652Q722 649 734 648T750 647Z"  />
<glyph unicode="&#xA5;" horiz-adv-x="573" d="M685 660Q680 655 671 644T651 620T630 593T614 570L465 355H532L522 303H428L384 240H511L502 188H373L368 159Q361 121 356 85T346 0Q337 0 321 0T288 1T254 1T230 0Q237 26 240 43T249 87Q252 104 255 122T262 158L267 188H100L109 240H269L247 303H120L130 355H230L175 516Q172 525 171 530T165 545Q151 585 136 617T114 660Q137 658 158 658T193 657Q204 657 216 658T251 660Q258 631 263 610T278 561L355 347Q357 340 359 333T360 318Q362 325 366 333T374 347L499 532Q522 566 534 586T553 620T563 641T571 660Q598 659 629 659T685 660Z"  />
<glyph unicode="&#xA6;" horiz-adv-x="239" d="M158 -16H75L127 278H210L158 -16ZM230 392H147L199 686H282L230 392Z"  />
<glyph unicode="&#xA7;" horiz-adv-x="506" d="M465 598Q451 614 423 626T362 635Q337 632 319 617T292 575Q286 556 290 539T307 500T344 452T401 388Q454 330 474 276T483 155Q475 109 446 60T374 -30T277 -97T163 -124Q145 -124 133 -122T111 -114T92 -102T73 -87L133 -38Q138 -44 148 -51T171 -66T201 -77T236 -82Q247 -82 260 -78T284 -66T303 -47T315 -20Q319 2 310 27T284 77T247 126T210 172Q188 198 170 224T138 280T121 342T123 414Q131 459 160 505T233 590T328 652T435 676Q477 676 498 669T531 648L465 598ZM415 128Q420 159 418 185T405 236T379 283T341 332Q311 366 289 391T253 437T235 479T235 528Q226 515 219 506T207 488T199 468T192 440Q189 425 189 406T194 361T218 303T269 230Q296 196 317 172T351 125T370 82T370 33Q380 49 387 60T400 82T408 103T415 128Z"  />
<glyph unicode="&#xA8;" horiz-adv-x="360" d="M253 545Q248 516 226 499T178 482Q149 482 135 499T126 543Q131 572 154 590T203 608Q231 608 244 590T253 545ZM431 545Q426 516 404 499T356 482Q327 482 313 499T304 543Q309 572 332 590T381 608Q409 608 422 590T431 545Z"  />
<glyph unicode="&#xA9;" horiz-adv-x="790" d="M637 521Q635 505 633 485T631 441Q612 458 596 468T565 483T534 489T500 491Q419 491 375 449T319 337Q311 293 318 262T343 210T390 181T451 171Q494 171 530 187T603 222Q583 184 564 144Q553 143 546 141T531 137Q510 130 485 127T439 124Q392 124 353 137T286 177T248 243T245 335Q255 390 282 428T346 491T427 526T515 537Q570 537 613 524Q620 522 627 522T637 521ZM746 331Q757 395 745 451T700 548T619 613T507 637Q445 637 387 614T283 549T204 451T160 331Q148 266 160 210T205 113T287 47T399 23Q461 23 519 47T623 112T702 210T746 331ZM803 330Q791 258 754 195T661 85T536 11T392 -16Q317 -16 258 11T160 85T106 195T103 330Q116 402 153 465T246 575T370 649T514 676Q589 676 648 649T746 575T800 465T803 330Z"  />
<glyph unicode="&#xAA;" horiz-adv-x="332" d="M331 342Q326 314 326 298T328 259Q324 259 314 259T293 260T272 260T259 259Q257 265 257 277T257 302T259 328T261 348L269 389Q229 387 209 376T185 344Q182 327 189 318T205 308Q231 308 241 313Q251 317 257 324L220 250Q216 249 211 249H202Q150 249 128 276T113 344Q121 389 164 415T279 444Q284 473 277 480T252 488Q229 488 213 482T178 463L162 518Q172 524 185 528T210 537T234 543T254 545Q309 545 333 520T351 456L331 342Z"  />
<glyph unicode="&#xAB;" horiz-adv-x="378" d="M161 207L209 52L178 39Q155 77 133 114T86 190L91 221Q129 259 165 296T236 371L263 358L161 207ZM304 207L352 52L321 39Q298 77 276 114T229 190L234 221Q272 259 308 296T379 371L406 358L304 207Z"  />
<glyph unicode="&#xAC;" horiz-adv-x="500" d="M476 50H393L425 232H74L87 305H521L476 50Z"  />
<glyph unicode="&#xAD;" horiz-adv-x="320" d="M309 165Q192 169 73 165L85 233Q204 228 321 233L309 165Z"  />
<glyph unicode="&#xAE;" horiz-adv-x="790" d="M803 330Q791 258 754 195T661 85T536 11T392 -16Q317 -16 258 11T160 85T106 195T103 330Q116 402 153 465T246 575T370 649T514 676Q589 676 648 649T746 575T800 465T803 330ZM746 331Q757 395 745 451T700 548T619 613T507 637Q445 637 387 614T283 549T204 451T160 331Q148 266 160 210T205 113T287 47T399 23Q461 23 519 47T623 112T702 210T746 331ZM608 139Q564 104 531 119T470 194Q470 195 465 205T454 229T443 252T437 265Q432 274 427 281T417 290Q403 295 398 307T394 328Q446 328 473 349T506 405Q514 444 495 459T438 475H411Q409 464 408 456T405 438L367 219Q364 200 362 188T358 165T356 146T355 124H283Q287 136 289 144T293 162T298 185T304 219L342 437Q347 461 349 479T354 520H393Q411 520 442 521Q521 522 553 490T576 406Q569 370 545 343T491 304Q496 296 501 290T509 278Q529 239 546 208T582 151Q592 138 608 139Z"  />
<glyph unicode="&#xAF;" horiz-adv-x="360" d="M390 512Q271 516 150 512L161 575Q282 570 401 575L390 512Z"  />
<glyph unicode="&#xB0;" horiz-adv-x="348" d="M398 511Q393 480 378 456T342 416T294 391T241 382Q214 382 191 390T153 415T132 456T130 511Q135 540 150 564T186 605T234 631T287 640Q314 640 337 631T375 605T396 564T398 511ZM332 511Q338 546 323 571T279 596Q265 596 251 590T226 572T207 545T196 511Q190 476 205 451T249 426Q263 426 276 432T301 450T321 477T332 511Z"  />
<glyph unicode="&#xB1;" horiz-adv-x="500" d="M443 0H58L71 73H456L443 0ZM485 239H334L309 96H226L251 239H100L113 312H264L288 448H371L347 312H498L485 239Z"  />
<glyph unicode="&#xB2;" horiz-adv-x="360" d="M379 527Q375 507 369 493T351 460Q338 440 325 426T299 398Q273 373 257 358T230 332T211 313T190 295H285Q297 295 303 295T317 297Q330 299 333 300L344 303L315 247Q211 248 108 247L103 281Q130 307 160 337T226 402Q243 419 250 428T265 444Q296 475 307 493T322 531Q327 556 312 568T269 581Q249 581 234 576T201 563L191 619Q200 620 203 620T215 623Q235 628 249 629T278 630Q329 630 358 603T379 527Z"  />
<glyph unicode="&#xB3;" horiz-adv-x="360" d="M364 374Q358 340 340 315T299 272Q271 252 238 240T181 227Q164 227 153 228T135 230T121 232T108 236L98 303Q115 291 124 286T140 279Q151 276 163 276T184 275Q203 275 222 283T256 306Q270 320 277 336T288 373Q295 413 282 431T240 450Q227 450 209 443L202 477Q248 495 272 516T298 549Q302 569 289 579T256 590Q236 590 214 585T180 572L171 628L178 629Q181 630 189 632Q202 635 223 637T268 639Q316 639 339 616T357 561Q353 538 341 522T303 491Q336 480 353 448T364 374Z"  />
<glyph unicode="&#xB4;" horiz-adv-x="360" d="M394 553Q338 531 290 510T186 463L181 493Q233 525 284 557T387 625L394 553Z"  />
<glyph unicode="&#xB5;" horiz-adv-x="512" d="M287 2Q264 -6 242 -9T196 -13Q177 -13 162 -10Q156 -45 150 -79T140 -147T134 -209T131 -262L33 -219L113 235Q120 273 126 310T138 395Q147 394 162 394T193 393T223 393T246 395Q238 370 235 352T226 308Q222 290 219 271T213 234L200 158Q195 127 194 109T197 82T212 71T240 69Q272 69 299 85T347 121L287 2ZM502 395Q493 367 489 350T481 308Q477 290 474 271T468 234L455 158Q450 129 447 108T442 68T440 34T440 0Q434 0 420 0T390 1H340Q335 20 339 59T354 158L367 235Q374 273 380 308T391 394H448Q466 394 481 394T502 395Z"  />
<glyph unicode="&#xB6;" horiz-adv-x="500" d="M558 602H472L383 97Q377 64 368 30T342 -31T298 -77T231 -95Q216 -95 200 -91T170 -79T149 -56T144 -22Q146 -11 149 -4T157 10T171 21T190 34L240 0Q223 -11 219 -22T216 -43T224 -59T236 -65Q244 -65 253 -60T270 -41T286 -2T301 62L332 240Q291 240 253 255T186 297T144 363T138 446Q157 553 240 606T453 660H568L558 602Z"  />
<glyph unicode="&#xB7;" horiz-adv-x="250" d="M217 203Q212 179 195 164T151 148Q129 148 115 162T105 203Q110 229 128 245T171 262Q197 262 209 245T217 203Z"  />
<glyph unicode="&#xB8;" horiz-adv-x="360" d="M190 -53Q204 -59 214 -72T227 -101T227 -135T209 -169Q176 -207 133 -207T45 -171L69 -143Q110 -171 133 -175T165 -168Q169 -162 170 -154T165 -137T145 -117T105 -97L186 0H234L190 -53Z"  />
<glyph unicode="&#xB9;" horiz-adv-x="360" d="M326 630Q324 622 322 610T317 584T312 555T307 527L274 341Q270 318 266 297T258 245Q253 245 244 245T225 246H193Q198 263 200 273T206 298Q208 309 209 319T213 340L246 527Q248 535 248 542T251 557Q240 552 228 550T208 548L216 597Q242 600 260 611T287 630Q298 629 309 629T326 630Z"  />
<glyph unicode="&#xBA;" horiz-adv-x="387" d="M416 404Q411 360 393 332T351 285Q327 265 302 257T247 246Q212 244 186 254T144 282T120 326T116 382Q121 417 137 446T178 497Q204 520 230 530T286 542Q316 543 341 534T385 508T411 464T416 404ZM338 390Q341 417 338 435T326 465T306 481T281 485Q237 483 219 462T194 395Q187 345 205 322T251 301Q291 303 311 325T338 390Z"  />
<glyph unicode="&#xBB;" horiz-adv-x="378" d="M223 190Q185 152 149 115T77 39L50 52L152 207L104 358L135 371Q158 333 180 296T228 221L223 190ZM366 190Q328 152 292 115T220 39L193 52L295 207L247 358L278 371Q301 333 323 296T371 221L366 190Z"  />
<glyph unicode="&#xBC;" horiz-adv-x="780" d="M720 631Q578 462 440 296T162 -40L116 -14Q256 154 394 320T669 654L720 631ZM770 417Q742 386 722 364T684 322T647 281T603 231Q595 222 581 206T535 155Q545 154 564 154T621 156L624 173Q626 183 627 191T629 206Q630 213 630 218T632 237Q638 237 647 241T667 253T688 270T707 291Q706 286 704 275T698 251T692 222T687 194L681 157H688Q692 157 699 158Q710 158 717 158T742 159L717 106Q702 106 692 106T672 106L670 95Q666 72 663 52T655 -1Q650 -1 641 -1T621 0H590Q595 17 597 27L602 52Q604 63 606 73T610 95L612 107Q577 108 556 108T519 108T493 107T467 105L471 156Q514 203 547 239T607 306T656 362T702 416L770 417ZM292 630Q290 622 288 610T283 584T278 555T273 527L240 341Q236 318 232 297T224 245Q219 245 210 245T191 246H159Q164 263 166 273T172 298Q174 309 175 319T179 340L212 527Q214 535 214 542T217 557Q206 552 194 550T174 548L182 597Q208 600 226 611T253 630Q264 629 275 629T292 630Z"  />
<glyph unicode="&#xBD;" horiz-adv-x="780" d="M720 631Q578 462 440 296T162 -40L116 -14Q256 154 394 320T669 654L720 631ZM773 280Q769 260 762 246T742 213Q729 193 716 179T690 151Q664 126 648 111T621 85T601 66T580 48H676Q688 48 693 48T708 50Q720 52 723 53T735 56L705 0Q601 1 498 0L493 34Q520 60 550 90T616 155Q633 172 640 181T656 197Q687 228 698 246T712 284Q717 309 703 321T660 334Q640 334 625 329T592 316L582 372Q591 373 594 373T605 376Q626 382 642 382T673 383Q724 383 752 356T773 280ZM292 630Q290 622 288 610T283 584T278 555T273 527L240 341Q236 318 232 297T224 245Q219 245 210 245T191 246H159Q164 263 166 273T172 298Q174 309 175 319T179 340L212 527Q214 535 214 542T217 557Q206 552 194 550T174 548L182 597Q208 600 226 611T253 630Q264 629 275 629T292 630Z"  />
<glyph unicode="&#xBE;" horiz-adv-x="780" d="M740 631Q598 462 460 296T182 -40L136 -14Q276 154 414 320T689 654L740 631ZM770 418Q742 387 722 365T684 323T647 282T603 232Q595 223 582 207T536 156Q545 155 564 155T621 157L624 174Q626 184 627 192T629 207Q630 214 630 219T632 238Q638 238 647 242T667 254T688 271T707 292Q706 287 704 276T698 252T692 223T687 195L681 158H688Q692 158 699 159Q710 159 717 159T742 160L717 107Q702 107 692 107T672 107L670 96Q666 73 663 53T655 0Q650 0 641 0T621 1H590Q595 18 597 28L602 53Q604 64 606 74T610 96L612 108Q577 109 556 109T519 109T493 108T467 106L471 157Q514 204 547 240T608 307T657 363T703 417L770 418ZM349 370Q343 336 325 311T284 268Q256 248 223 236T166 223Q149 223 138 224T120 226T106 228T93 232L84 299Q100 287 109 282T125 275Q137 272 149 272T170 271Q189 271 208 279T241 302Q255 316 262 332T273 369Q280 409 268 427T226 446Q212 446 194 439L187 473Q234 491 257 512T283 545Q287 565 274 575T241 586Q221 586 199 581T165 568L156 624Q161 625 164 625T175 628Q187 631 208 633T253 635Q301 635 324 612T342 557Q338 534 326 518T288 487Q321 476 339 444T349 370Z"  />
<glyph unicode="&#xBF;" horiz-adv-x="321" d="M303 45Q297 14 283 -7T248 -44T205 -71T160 -95Q147 -102 135 -107T114 -117T99 -131T90 -152Q86 -175 98 -183T134 -191Q154 -191 173 -186T221 -167L230 -248Q215 -259 185 -270T115 -282Q76 -282 50 -272T8 -245T-11 -203T-11 -152Q-7 -128 6 -107T37 -69T78 -36T125 -9Q154 5 176 21T203 66Q205 79 204 94T198 125T186 155T172 178L262 194Q272 179 280 159T294 118T302 78T303 45ZM318 328Q313 301 290 282T240 262Q213 262 197 281T186 328Q191 355 213 374T263 394Q290 394 306 375T318 328Z"  />
<glyph unicode="&#xC0;" horiz-adv-x="558" d="M555 0Q529 1 511 1H479Q470 1 457 1T427 0Q430 33 427 60T421 101L401 235H232L175 132Q145 78 134 49T115 0Q107 0 98 0T76 1H40Q20 1 3 0Q13 12 22 26T40 54T53 77T61 90L374 660H445L524 142L531 96Q534 77 537 61T545 30T555 0ZM502 681Q455 706 415 727T326 771L358 843Q436 774 517 711L502 681ZM370 464Q368 473 367 481Q367 488 368 494Q363 479 355 464L273 311H391L370 464Z"  />
<glyph unicode="&#xC1;" horiz-adv-x="562" d="M555 0Q529 1 511 1H479Q470 1 457 1T427 0Q430 33 427 60T421 101L401 235H232L175 132Q145 78 134 49T115 0Q107 0 98 0T76 1H40Q20 1 3 0Q13 12 22 26T40 54T53 77T61 90L374 660H445L524 142L531 96Q534 77 537 61T545 30T555 0ZM530 771Q502 760 477 750T426 728T376 706T322 681L317 711Q422 774 524 843L530 771ZM370 464Q368 473 367 481Q367 488 368 494Q363 479 355 464L273 311H391L370 464Z"  />
<glyph unicode="&#xC2;" horiz-adv-x="562" d="M555 0Q529 1 511 1H479Q470 1 457 1T427 0Q430 33 427 60T421 101L401 235H232L175 132Q145 78 134 49T115 0Q107 0 98 0T76 1H40Q20 1 3 0Q13 12 22 26T40 54T53 77T61 90L374 660H445L524 142L531 96Q534 77 537 61T545 30T555 0ZM554 690L430 767L283 690L273 717L422 839H465L570 717L554 690ZM370 464Q368 473 367 481Q367 488 368 494Q363 479 355 464L273 311H391L370 464Z"  />
<glyph unicode="&#xC3;" horiz-adv-x="560" d="M555 0Q529 1 511 1H479Q470 1 457 1T427 0Q430 33 427 60T421 101L401 235H232L175 132Q145 78 134 49T115 0Q107 0 98 0T76 1H40Q20 1 3 0Q13 12 22 26T40 54T53 77T61 90L374 660H445L524 142L531 96Q534 77 537 61T545 30T555 0ZM591 834Q583 816 567 794T538 760Q526 749 514 746T485 742H378Q355 742 342 738T314 723Q306 716 297 706T280 685L267 698Q270 705 275 716T288 739T304 763T320 781Q334 794 347 797T380 801H489Q506 801 521 804T548 817Q558 826 564 833T576 846L591 834ZM370 464Q368 473 367 481Q367 488 368 494Q363 479 355 464L273 311H391L370 464Z"  />
<glyph unicode="&#xC4;" horiz-adv-x="556" d="M555 0Q529 1 511 1H479Q470 1 457 1T427 0Q430 33 427 60T421 101L401 235H232L175 132Q145 78 134 49T115 0Q107 0 98 0T76 1H40Q20 1 3 0Q13 12 22 26T40 54T53 77T61 90L374 660H445L524 142L531 96Q534 77 537 61T545 30T555 0ZM590 761Q585 732 563 715T515 698Q486 698 472 715T463 759Q468 788 491 806T540 824Q568 824 581 806T590 761ZM393 761Q388 732 366 715T318 698Q289 698 275 715T266 759Q271 788 294 806T343 824Q371 824 384 806T393 761ZM370 464Q368 473 367 481Q367 488 368 494Q363 479 355 464L273 311H391L370 464Z"  />
<glyph unicode="&#xC5;" horiz-adv-x="560" d="M555 0Q529 1 511 1H479Q470 1 457 1T427 0Q427 4 427 11T428 26T429 42T428 56Q426 72 425 79T421 101L401 235H232L175 132Q145 78 134 49T115 0Q107 0 98 0T76 1H40Q20 1 3 0Q13 12 22 26T40 54T53 77T61 90L364 652Q341 664 330 687T323 738Q326 757 336 774T362 804T398 825T440 833Q485 833 507 805T522 738Q517 711 498 688T451 653L524 142L531 96Q534 77 537 61T545 30T555 0ZM370 464Q368 473 367 481Q367 488 368 494Q363 479 355 464L273 311H391L370 464ZM470 738Q475 761 464 778T433 795Q413 795 397 778T376 738Q372 715 382 698T413 681Q433 681 449 698T470 738Z"  />
<glyph unicode="&#xC6;" horiz-adv-x="761" d="M811 580L454 585L484 394H712L698 313H497L524 142L529 109Q532 94 534 81Q553 81 580 81T639 83T704 85T770 87L727 -3Q652 0 578 0T427 0Q427 4 427 11T428 26T429 42T428 56Q426 72 425 79T421 101L401 235H232L175 132Q145 78 134 49T115 0Q107 0 98 0T76 1H40Q20 1 3 0Q13 12 22 26T40 54T53 77T61 90L370 664Q384 663 399 663T434 662T483 661H557Q602 661 664 661T814 663L811 580ZM370 464Q368 473 367 481Q367 488 368 494Q363 479 355 464L273 311H391L370 464Z"  />
<glyph unicode="&#xC7;" horiz-adv-x="676" d="M750 647Q747 620 744 586T740 513Q708 541 682 557T629 582T577 593T521 596Q454 596 403 578T314 526T254 445T221 340Q208 267 220 215T262 129T338 80T440 64Q476 64 508 71T572 91T633 118T694 148Q677 116 661 84T630 19Q610 17 598 14T574 7Q546 -2 515 -7T454 -14L422 -51Q436 -57 445 -69T458 -98T458 -132T442 -167Q413 -207 368 -207T277 -169L301 -141Q343 -169 366 -170T400 -154Q406 -143 397 -127T344 -95L406 -14Q331 -12 268 11T162 79T101 187T97 337Q113 428 158 492T265 597T401 655T547 674Q593 674 633 669T711 652Q722 649 734 648T750 647Z"  />
<glyph unicode="&#xC8;" horiz-adv-x="510" d="M567 580L287 585Q285 566 283 553T277 522L254 394H468L454 313H240L213 160Q210 146 209 136T205 118T202 101T197 80H258Q264 80 291 80T356 82T439 84T526 87L484 -2Q421 -2 382 -2T315 -1T268 -1T224 0Q200 0 186 0T163 1H134Q123 1 108 1T74 0Q75 6 77 12T82 33T91 78T106 159L170 520Q180 577 183 609T188 660H235Q249 660 270 660T329 661T425 661T570 663L567 580ZM504 681Q457 706 417 727T328 771L360 843Q438 774 519 711L504 681Z"  />
<glyph unicode="&#xC9;" horiz-adv-x="513" d="M567 580L287 585Q285 566 283 553T277 522L254 394H468L454 313H240L213 160Q210 146 209 136T205 118T202 101T197 80H258Q264 80 291 80T356 82T439 84T526 87L484 -2Q421 -2 382 -2T315 -1T268 -1T224 0Q200 0 186 0T163 1H134Q123 1 108 1T74 0Q82 26 85 44T93 87Q97 105 100 123T106 159L170 520Q173 537 175 549T180 582Q183 602 185 621T188 660H235Q249 660 270 660T329 661T425 661T570 663L567 580ZM512 769Q456 747 408 726T304 679L299 709Q351 741 402 773T505 841L512 769Z"  />
<glyph unicode="&#xCA;" horiz-adv-x="510" d="M567 580L287 585Q285 566 283 553T277 522L254 394H468L454 313H240L213 160Q210 146 209 136T205 118T202 101T197 80H258Q264 80 291 80T356 82T439 84T526 87L484 -2Q421 -2 382 -2T315 -1T268 -1T224 0Q200 0 186 0T163 1H134Q123 1 108 1T74 0Q75 6 77 12T82 33T91 78T106 159L170 520Q180 577 183 609T188 660H235Q249 660 270 660T329 661T425 661T570 663L567 580ZM521 690L397 767L250 690L240 717L389 839H432L537 717L521 690Z"  />
<glyph unicode="&#xCB;" horiz-adv-x="510" d="M567 580L287 585Q285 566 283 553T277 522L254 394H468L454 313H240L213 160Q210 146 209 136T205 118T202 101T197 80H258Q264 80 291 80T356 82T439 84T526 87L484 -2Q421 -2 382 -2T314 -1T264 -1T215 0Q191 0 177 0T154 1H125Q114 1 99 1T65 0Q66 6 68 12T73 33T82 78T97 159L161 520H170Q180 577 183 609T188 660H235Q249 660 270 660T329 661T425 661T570 663L567 580ZM564 769Q559 740 537 723T488 706Q459 706 445 723T436 767Q439 782 446 794T465 814T488 827T514 832Q542 832 555 814T564 769ZM386 769Q381 740 359 723T310 706Q281 706 267 723T258 767Q261 782 268 794T287 814T310 827T336 832Q364 832 377 814T386 769Z"  />
<glyph unicode="&#xCC;" horiz-adv-x="338" d="M347 660Q343 648 338 630T328 589T319 544T310 500L250 160Q243 122 237 86T226 1Q216 1 201 1T169 2T137 2T112 1Q124 41 131 84T144 159L204 499Q211 531 216 561Q221 587 224 614T226 660Q233 660 249 660T284 659H319Q337 659 347 660ZM386 681Q339 706 299 727T210 771L242 843Q320 774 401 711L386 681Z"  />
<glyph unicode="&#xCD;" horiz-adv-x="338" d="M347 660Q343 648 338 630T328 589T319 544T310 500L250 160Q243 122 237 86T226 1Q216 1 201 1T169 2T137 2T112 1Q124 41 131 84T144 159L204 499Q211 531 216 561Q221 587 224 614T226 660Q233 660 249 660T284 659H319Q337 659 347 660ZM416 771Q388 760 363 750T312 728T262 706T208 681L203 711Q308 774 410 843L416 771Z"  />
<glyph unicode="&#xCE;" horiz-adv-x="338" d="M343 660Q339 648 334 630T324 589T315 544T306 500L246 160Q239 122 233 86T222 1Q212 1 197 1T165 2T133 2T108 1Q120 41 127 84T140 159L200 499Q207 531 212 561Q217 587 220 614T222 660Q229 660 245 660T280 659H315Q333 659 343 660ZM429 690L305 767L158 690L148 717L297 839H340L445 717L429 690Z"  />
<glyph unicode="&#xCF;" horiz-adv-x="338" d="M348 660Q344 648 339 630T329 589T320 544T311 500L251 160Q244 122 238 86T227 1Q217 1 202 1T170 2T138 2T113 1Q125 41 132 84T145 159L205 499Q212 531 217 561Q222 587 225 614T227 660Q234 660 250 660T285 659H320Q338 659 348 660ZM459 769Q454 740 432 723T383 706Q354 706 340 723T331 767Q334 782 341 794T360 814T383 827T409 832Q437 832 450 814T459 769ZM281 769Q276 740 254 723T205 706Q176 706 162 723T153 767Q156 782 163 794T182 814T205 827T231 832Q259 832 272 814T281 769Z"  />
<glyph unicode="&#xD0;" horiz-adv-x="749" d="M786 345Q775 270 740 207T646 97T508 24T331 -3Q327 -3 314 -3T284 -2T247 -1T212 0T186 1T177 2H149Q133 2 115 1Q123 27 127 45T137 88Q141 106 143 124T149 159L176 314H87L98 374H187L213 522Q218 552 221 572T227 607T230 634T232 661Q254 660 280 660T328 661Q344 661 355 661T375 662T395 662T419 663Q506 666 578 648T701 589T774 488T786 345ZM662 347Q672 401 660 445T616 519T536 566T425 582Q408 582 397 582T375 581T353 581T327 580Q326 564 324 551T319 522L293 373H418L407 313H282L255 159Q253 145 251 136T247 117L243 100Q241 92 239 80Q265 79 294 77T362 75Q487 75 562 143T662 347Z"  />
<glyph unicode="&#xD1;" horiz-adv-x="766" d="M777 660Q772 642 769 631T763 604T756 566T745 502L684 160Q679 132 676 112T670 75T665 41T660 0Q645 1 631 1T596 0Q586 18 573 39T545 81T517 120T495 151L322 394Q311 410 296 434T268 481L211 159Q208 140 205 123T200 86T195 46T189 0Q166 1 141 1T92 0Q96 13 99 25T105 54T112 95T124 158L184 500Q186 514 187 522T190 536T193 549T196 570T201 604T209 660Q224 659 249 659T294 660Q297 650 303 638T319 608T344 567T382 512L553 269Q566 250 578 234T603 194L657 501Q661 523 664 547T670 592T675 632T678 660Q701 659 727 659T777 660ZM707 822Q699 804 683 782T654 748Q642 737 630 734T601 730H494Q471 730 458 726T430 711Q422 704 413 694T396 673L384 690Q387 697 392 708T405 731T420 755T436 773Q450 786 464 789T497 793H606Q623 793 638 796T665 809Q675 818 681 825T693 838L707 822Z"  />
<glyph unicode="&#xD2;" horiz-adv-x="795" d="M596 681Q549 706 509 727T420 771L452 843Q530 774 611 711L596 681ZM798 320Q784 243 741 178T643 71Q591 31 531 9T404 -14Q322 -14 259 11T155 81T98 190T96 328Q109 401 146 464T236 573T355 647T493 674Q574 674 637 648T740 574T796 462T798 320ZM681 321Q691 379 682 429T647 516T582 573T491 594Q442 594 397 575T314 520T251 434T214 324Q203 265 215 217T254 135T322 81T407 62Q453 62 498 81T580 136T644 218T681 321Z"  />
<glyph unicode="&#xD3;" horiz-adv-x="795" d="M626 771Q598 760 573 750T522 728T472 706T418 681L413 711Q518 774 620 843L626 771ZM798 320Q784 243 741 178T643 71Q591 31 531 9T404 -14Q322 -14 259 11T155 81T98 190T96 328Q109 401 146 464T236 573T355 647T493 674Q574 674 637 648T740 574T796 462T798 320ZM681 321Q691 379 682 429T647 516T582 573T491 594Q442 594 397 575T314 520T251 434T214 324Q203 265 215 217T254 135T322 81T407 62Q453 62 498 81T580 136T644 218T681 321Z"  />
<glyph unicode="&#xD4;" horiz-adv-x="795" d="M658 690L534 767L387 690L377 717L526 839H569L674 717L658 690ZM798 320Q784 243 741 178T643 71Q591 31 531 9T404 -14Q322 -14 259 11T155 81T98 190T96 328Q109 401 146 464T236 573T355 647T493 674Q574 674 637 648T740 574T796 462T798 320ZM681 321Q691 379 682 429T647 516T582 573T491 594Q442 594 397 575T314 520T251 434T214 324Q203 265 215 217T254 135T322 81T407 62Q453 62 498 81T580 136T644 218T681 321Z"  />
<glyph unicode="&#xD5;" horiz-adv-x="795" d="M695 834Q687 816 671 794T642 760Q630 749 618 746T589 742H482Q459 742 446 738T418 723Q410 716 401 706T384 685L372 702Q375 709 380 720T393 744T408 767T424 785Q439 799 452 802T485 805H594Q611 805 626 808T653 821Q663 830 669 837T681 850L695 834ZM798 320Q784 243 741 178T643 71Q591 31 531 9T404 -14Q322 -14 259 11T155 81T98 190T96 328Q109 401 146 464T236 573T355 647T493 674Q574 674 637 648T740 574T796 462T798 320ZM681 321Q691 379 682 429T647 516T582 573T491 594Q442 594 397 575T314 520T251 434T214 324Q203 265 215 217T254 135T322 81T407 62Q453 62 498 81T580 136T644 218T681 321Z"  />
<glyph unicode="&#xD6;" horiz-adv-x="795" d="M687 769Q682 740 660 723T611 706Q582 706 568 723T559 767Q562 782 569 794T588 814T611 827T637 832Q665 832 678 814T687 769ZM509 769Q504 740 482 723T433 706Q404 706 390 723T381 767Q384 782 391 794T410 814T433 827T459 832Q487 832 500 814T509 769ZM798 320Q784 243 741 178T643 71Q591 31 531 9T404 -14Q322 -14 259 11T155 81T98 190T96 328Q109 401 146 464T236 573T355 647T493 674Q574 674 637 648T740 574T796 462T798 320ZM681 321Q691 379 682 429T647 516T582 573T491 594Q442 594 397 575T314 520T251 434T214 324Q203 265 215 217T254 135T322 81T407 62Q453 62 498 81T580 136T644 218T681 321Z"  />
<glyph unicode="&#xD7;" horiz-adv-x="500" d="M343 208L458 68L393 13L278 153L114 13L69 69L233 208L117 349L181 404L297 263L464 404L510 349L343 208Z"  />
<glyph unicode="&#xD8;" horiz-adv-x="795" d="M741 588Q786 540 804 473T809 323Q802 284 787 247T751 178T705 119T653 71Q601 31 539 9T400 -14Q343 -14 294 0T207 41L126 -43L90 -10L171 72Q127 117 109 181T105 323Q118 398 155 462T248 573T372 647T518 674Q573 674 619 660T703 620L783 702L819 669L741 588ZM629 543Q576 591 496 591Q449 591 406 572T327 518T266 434T230 324Q222 275 228 233T254 158L629 543ZM685 321Q695 376 688 422T659 505L284 118Q310 93 344 79T417 65Q463 65 507 84T588 137T650 218T685 321Z"  />
<glyph unicode="&#xD9;" horiz-adv-x="702" d="M744 660L738 633Q734 615 730 594T720 548T711 502L671 291Q655 206 623 148T549 54T462 2T373 -14Q286 -14 233 6T154 67T125 164T135 297L171 501Q175 522 179 546T186 592T191 633T194 660Q201 660 217 660T251 659T286 659T312 660Q309 651 305 633T297 594T288 548T279 502L242 295Q231 232 234 188T254 117T300 78T372 65Q420 65 456 80T518 125T560 197T586 294L622 501Q630 546 637 590T645 660Q654 660 668 660T698 659T726 659T744 660ZM572 681Q525 706 485 727T396 771L428 843Q506 774 587 711L572 681Z"  />
<glyph unicode="&#xDA;" horiz-adv-x="698" d="M744 660L738 633Q734 615 730 594T720 548T711 502L671 291Q655 206 623 148T549 54T462 2T373 -14Q286 -14 233 6T154 67T125 164T135 297L171 501Q175 522 179 546T186 592T191 633T194 660Q201 660 217 660T251 659T286 659T312 660Q309 651 305 633T297 594T288 548T279 502L242 295Q231 232 234 188T254 117T300 78T372 65Q420 65 456 80T518 125T560 197T586 294L622 501Q630 546 637 590T645 660Q654 660 668 660T698 659T726 659T744 660ZM620 771Q592 760 567 750T516 728T466 706T412 681L407 711Q512 774 614 843L620 771Z"  />
<glyph unicode="&#xDB;" horiz-adv-x="706" d="M744 660L738 633Q734 615 730 594T720 548T711 502L671 291Q655 206 623 148T549 54T462 2T373 -14Q286 -14 233 6T154 67T125 164T135 297L171 501Q175 522 179 546T186 592T191 633T194 660Q201 660 217 660T251 659T286 659T312 660Q309 651 305 633T297 594T288 548T279 502L242 295Q231 232 234 188T254 117T300 78T372 65Q420 65 456 80T518 125T560 197T586 294L622 501Q630 546 637 590T645 660Q654 660 668 660T698 659T726 659T744 660ZM620 690L496 767L349 690L339 717L488 839H531L636 717L620 690Z"  />
<glyph unicode="&#xDC;" horiz-adv-x="746" d="M766 660L760 633Q756 615 752 594T742 548T733 502L694 296Q677 209 645 150T569 55T474 2T369 -14Q292 -14 245 6T173 64T146 155T154 276L193 501Q197 522 201 546T208 592T213 633T216 660Q223 660 239 660T273 659T308 659T334 660Q331 651 327 633T319 594T310 548T301 502L264 295Q253 232 256 188T277 117T325 78T401 65Q447 65 481 80T541 125T582 197T608 294L644 501Q652 546 659 590T667 660Q676 660 690 660T720 659T748 659T766 660ZM670 769Q665 740 643 723T594 706Q565 706 551 723T542 767Q545 782 552 794T571 814T594 827T620 832Q648 832 661 814T670 769ZM492 769Q487 740 465 723T416 706Q387 706 373 723T364 767Q367 782 374 794T393 814T416 827T442 832Q470 832 483 814T492 769Z"  />
<glyph unicode="&#xDD;" horiz-adv-x="554" d="M673 660Q668 655 659 644T639 620T618 593T602 570L370 236L356 159Q349 121 344 85T334 0Q325 0 309 0T276 1T242 1T218 0Q225 26 228 43T237 87Q240 104 243 122T250 158L262 227L163 516Q160 525 159 530T153 545Q139 585 124 617T102 660Q125 658 146 658T181 657Q192 657 204 658T239 660Q246 631 251 610T266 561L343 347Q345 340 347 333T348 318Q350 325 354 333T362 347L487 532Q510 566 522 586T541 620T551 641T559 660Q586 659 617 659T673 660ZM533 781Q505 770 480 760T429 738T379 716T325 691L320 721Q373 753 424 785T526 853L533 781Z"  />
<glyph unicode="&#xDE;" horiz-adv-x="487" d="M535 339Q528 300 508 266T459 205T394 164T320 149Q272 149 252 168T227 211Q266 206 299 215T357 241T398 284T419 337Q431 401 400 427T306 454H262Q260 436 258 422T253 391L189 28Q178 -35 174 -72T168 -131Q159 -131 143 -131T108 -130T74 -130T49 -131Q55 -109 62 -74T82 27L146 390Q158 457 166 502T178 578T185 626T189 659Q197 659 210 659T240 658T272 658T304 659Q296 617 290 587T278 531Q281 532 292 532T314 531Q380 532 425 518T498 479T533 417T535 339Z"  />
<glyph unicode="&#xDF;" horiz-adv-x="523" d="M521 123Q515 92 498 66T456 20T402 -10T344 -21Q325 -21 312 -20T289 -16T271 -8T253 6L303 92Q315 72 330 66T368 59Q394 59 407 70T422 93Q426 117 418 141T390 182Q361 206 344 226T317 266T307 306T309 349Q314 378 339 407T405 472Q409 476 414 478T423 486Q447 508 458 541T458 597Q444 627 428 634T395 641Q364 641 343 624T307 580Q304 575 300 561T290 527L279 483Q273 459 269 434L220 159Q217 140 214 123T208 86T203 46T197 -1Q192 -1 177 -1T145 0H89Q93 14 96 25T101 45T105 65T109 87Q113 105 116 123T122 158L151 322H108L98 373L163 396Q177 468 192 511T227 585Q271 657 325 686T434 715Q490 715 513 683Q541 654 550 622T553 557T525 494T472 435Q450 417 437 404T416 381T405 364T401 350Q398 336 409 322T447 284Q451 281 452 279L457 275Q484 252 497 235T518 193Q526 171 525 155T521 123Z"  />
<glyph unicode="&#xE0;" horiz-adv-x="385" d="M363 119Q360 99 358 84T356 56T355 29T358 0Q352 0 338 0T308 1T278 1T260 0Q257 8 257 25T257 61T259 99T263 127L274 186Q217 184 188 167T154 121Q150 98 161 84T183 70Q220 70 235 77Q249 83 257 93L204 -13Q199 -14 192 -14T179 -15Q142 -15 116 -5T74 25T53 68T52 122Q63 186 125 223T289 264Q296 306 285 316T250 327Q217 327 194 318T144 292L121 370Q136 378 154 385T191 397T226 405T253 408Q331 408 366 373T392 282L363 119ZM360 462Q313 487 273 508T184 552L216 625Q255 590 294 558T376 493L360 462Z"  />
<glyph unicode="&#xE1;" horiz-adv-x="384" d="M363 119Q360 99 358 84T356 56T355 29T358 0Q352 0 338 0T308 1T278 1T260 0Q257 8 257 25T257 61T259 99T263 127L274 186Q217 184 188 167T154 121Q150 98 161 84T183 70Q220 70 235 77Q249 83 257 93L204 -13Q199 -14 192 -14T179 -15Q142 -15 116 -5T74 25T53 68T52 122Q63 186 125 223T289 264Q296 306 285 316T250 327Q217 327 194 318T144 292L121 370Q136 378 154 385T191 397T226 405T253 408Q331 408 366 373T392 282L363 119ZM399 553Q343 531 295 510T191 463L186 493Q238 525 289 557T392 625L399 553Z"  />
<glyph unicode="&#xE2;" horiz-adv-x="404" d="M363 119Q360 99 358 84T356 56T355 29T358 0Q352 0 338 0T308 1T278 1T260 0Q257 8 257 25T257 61T259 99T263 127L274 186Q217 184 188 167T154 121Q150 98 161 84T183 70Q220 70 235 77Q249 83 257 93L204 -13Q199 -14 192 -14T179 -15Q142 -15 116 -5T74 25T53 68T52 122Q63 186 125 223T289 264Q296 306 285 316T250 327Q217 327 194 318T144 292L121 370Q136 378 154 385T191 397T226 405T253 408Q331 408 366 373T392 282L363 119ZM376 436Q359 465 339 494T297 551H286Q255 523 224 494T167 436L155 459Q192 505 225 550T289 640H326Q342 595 359 550T396 459L376 436Z"  />
<glyph unicode="&#xE3;" horiz-adv-x="404" d="M363 119Q360 99 358 84T356 56T355 29T358 0Q352 0 338 0T308 1T278 1T260 0Q257 8 257 25T257 61T259 99T263 127L274 186Q217 184 188 167T154 121Q150 98 161 84T183 70Q220 70 235 77Q249 83 257 93L204 -13Q199 -14 192 -14T179 -15Q142 -15 116 -5T74 25T53 68T52 122Q63 186 125 223T289 264Q296 306 285 316T250 327Q217 327 194 318T144 292L121 370Q136 378 154 385T191 397T226 405T253 408Q331 408 366 373T392 282L363 119ZM446 592Q438 574 423 552T394 518Q382 507 370 504T340 500H233Q198 500 178 486T137 443L123 460Q126 467 131 478T144 501T160 525T176 543Q190 556 203 559T236 563H343Q359 563 370 565T391 572T410 585T431 608L446 592Z"  />
<glyph unicode="&#xE4;" horiz-adv-x="404" d="M363 119Q360 99 358 84T356 56T355 29T358 0Q352 0 338 0T308 1T278 1T260 0Q257 8 257 25T257 61T259 99T263 127L274 186Q217 184 188 167T154 121Q150 98 161 84T183 70Q220 70 235 77Q249 83 257 93L204 -13Q199 -14 192 -14T179 -15Q142 -15 116 -5T74 25T53 68T52 122Q63 186 125 223T289 264Q296 306 285 316T250 327Q217 327 194 318T144 292L121 370Q136 378 154 385T191 397T226 405T253 408Q331 408 366 373T392 282L363 119ZM440 545Q435 516 413 499T365 482Q336 482 322 499T313 543Q318 572 341 590T390 608Q418 608 431 590T440 545ZM262 545Q257 516 235 499T187 482Q158 482 144 499T135 543Q140 572 163 590T212 608Q240 608 253 590T262 545Z"  />
<glyph unicode="&#xE5;" horiz-adv-x="404" d="M363 119Q360 99 358 84T356 56T355 29T358 0Q352 0 338 0T308 1T278 1T260 0Q257 8 257 25T257 61T259 99T263 127L274 186Q217 184 188 167T154 121Q150 98 161 84T183 70Q220 70 235 77Q249 83 257 93L204 -13Q199 -14 192 -14T179 -15Q142 -15 116 -5T74 25T53 68T52 122Q63 186 125 223T289 264Q296 306 285 316T250 327Q217 327 194 318T144 292L121 370Q136 378 154 385T191 397T226 405T253 408Q331 408 366 373T392 282L363 119ZM400 556Q397 537 387 520T361 490T325 469T283 461Q238 461 216 489T200 556Q203 575 213 592T239 622T275 643T317 651Q362 651 384 623T400 556ZM345 556Q350 579 340 595T310 612Q291 612 276 596T255 556Q251 533 261 517T290 500Q309 500 325 516T345 556Z"  />
<glyph unicode="&#xE6;" horiz-adv-x="591" d="M414 190L400 261H535Q536 300 525 314T483 328Q439 328 411 302T370 232Q358 193 358 162T369 108T398 73T441 61Q472 61 497 74T542 111L591 80Q557 32 513 8T421 -16Q364 -16 330 2T283 44Q279 52 274 63T265 91T260 131T264 186Q207 184 178 167T144 121Q140 98 152 84T182 70Q197 70 208 72T227 77T243 84T260 94L206 -13Q192 -14 183 -14T165 -15Q129 -15 104 -5T63 25T43 68T42 122Q53 186 115 223T279 264V268Q286 307 275 317T237 327Q206 327 184 318T134 292L111 370Q126 378 144 385T182 397T221 405T256 408Q295 408 322 396T366 363Q431 408 507 408Q550 408 574 391T612 351Q626 323 625 285T615 190H414Z"  />
<glyph unicode="&#xE7;" horiz-adv-x="401" d="M373 281Q354 309 337 317T288 325Q259 325 232 307T192 263Q171 219 169 182T176 117T207 75T250 60Q285 60 309 74T351 109L403 75Q377 39 343 18T270 -11L235 -53Q249 -59 258 -71T271 -100T270 -134T254 -169Q241 -187 222 -196T182 -206T136 -198T90 -171L114 -143Q155 -171 178 -172T212 -156Q220 -142 210 -127T157 -97L218 -16Q166 -16 132 4T81 53Q66 79 60 109T61 179Q70 228 93 269T150 342T225 390T311 408Q374 408 427 369L373 281Z"  />
<glyph unicode="&#xE8;" horiz-adv-x="396" d="M227 193L214 264H349Q351 299 338 313T293 328Q249 328 221 301T180 232Q168 193 168 162T179 108T208 73T251 61Q282 61 307 74T352 111L401 80Q367 32 325 8T248 -16Q210 -16 173 -5T109 32T70 104T69 217Q76 257 99 292T155 352T224 393T294 408Q325 408 356 402T408 373T437 309T428 193H227ZM397 463Q349 489 309 510T221 553L252 625Q291 590 330 558T412 493L397 463Z"  />
<glyph unicode="&#xE9;" horiz-adv-x="396" d="M227 193L214 264H349Q351 299 338 313T293 328Q249 328 221 301T180 232Q168 193 168 162T179 108T208 73T251 61Q282 61 307 74T352 111L401 80Q367 32 325 8T248 -16Q210 -16 173 -5T109 32T70 104T69 217Q76 257 99 292T155 352T224 393T294 408Q325 408 356 402T408 373T437 309T428 193H227ZM435 553Q379 531 331 510T227 463L222 493Q274 525 325 557T428 625L435 553Z"  />
<glyph unicode="&#xEA;" horiz-adv-x="396" d="M227 193L214 264H349Q351 299 338 313T293 328Q249 328 221 301T180 232Q168 193 168 162T179 108T208 73T251 61Q282 61 307 74T352 111L401 80Q367 32 325 8T248 -16Q210 -16 173 -5T109 32T70 104T69 217Q76 257 99 292T155 352T224 393T294 408Q325 408 356 402T408 373T437 309T428 193H227ZM402 436Q385 465 365 494T323 551H312Q281 523 250 494T193 436L181 459Q218 505 251 550T315 640H352Q368 595 385 550T422 459L402 436Z"  />
<glyph unicode="&#xEB;" horiz-adv-x="396" d="M227 193L214 264H349Q351 299 338 313T293 328Q249 328 221 301T180 232Q168 193 168 162T179 108T208 73T251 61Q282 61 307 74T352 111L401 80Q367 32 325 8T248 -16Q210 -16 173 -5T109 32T70 104T69 217Q76 257 99 292T155 352T224 393T294 408Q325 408 356 402T408 373T437 309T428 193H227ZM293 545Q288 516 266 499T218 482Q189 482 175 499T166 543Q171 572 194 590T243 608Q271 608 284 590T293 545ZM471 545Q466 516 444 499T396 482Q367 482 353 499T344 543Q349 572 372 590T421 608Q449 608 462 590T471 545Z"  />
<glyph unicode="&#xEC;" horiz-adv-x="257" d="M257 395Q254 385 250 368T240 328T231 283T222 237L208 158Q205 139 202 122T196 85T191 45T186 -1Q178 -1 162 -1T128 0H75Q79 14 81 24T86 44T90 64T94 86Q98 104 101 122T107 159L121 236Q125 255 127 273T133 309Q138 338 140 355T144 394Q151 394 166 394T199 393T232 393T257 395ZM300 463Q252 489 212 510T124 553L155 625Q194 590 233 558T315 493L300 463Z"  />
<glyph unicode="&#xED;" horiz-adv-x="257" d="M257 395Q254 385 250 368T240 328T231 283T222 237L208 158Q205 139 202 122T196 85T191 45T186 -1Q178 -1 162 -1T128 0H75Q79 14 81 24T86 44T90 64T94 86Q98 104 101 122T107 159L121 236Q125 255 127 273T133 309Q138 338 140 355T144 394Q151 394 166 394T199 393T232 393T257 395ZM333 553Q277 531 229 510T125 463L120 493Q172 525 223 557T326 625L333 553Z"  />
<glyph unicode="&#xEE;" horiz-adv-x="257" d="M257 395Q254 385 250 368T240 328T231 283T222 237L208 158Q205 139 202 122T196 85T191 45T186 -1Q178 -1 162 -1T128 0H75Q79 14 81 24T86 44T90 64T94 86Q98 104 101 122T107 159L121 236Q125 255 127 273T133 309Q138 338 140 355T144 394Q151 394 166 394T199 393T232 393T257 395ZM309 436Q292 465 272 494T230 551H219Q188 523 157 494T100 436L88 459Q125 505 158 550T222 640H259Q275 595 292 550T329 459L309 436Z"  />
<glyph unicode="&#xEF;" horiz-adv-x="257" d="M257 395Q254 385 250 368T240 328T231 283T222 237L208 158Q205 139 202 122T196 85T191 45T186 -1Q178 -1 162 -1T128 0H75Q79 14 81 24T86 44T90 64T94 86Q98 104 101 122T107 159L121 236Q125 255 127 273T133 309Q138 338 140 355T144 394Q151 394 166 394T199 393T232 393T257 395ZM377 545Q372 516 350 499T302 482Q273 482 259 499T250 543Q255 572 278 590T327 608Q355 608 368 590T377 545ZM199 545Q194 516 172 499T124 482Q95 482 81 499T72 543Q77 572 100 590T149 608Q177 608 190 590T199 545Z"  />
<glyph unicode="&#xF0;" horiz-adv-x="484" d="M420 562Q424 557 427 554T435 545Q458 516 477 481T506 404Q514 367 517 327T512 237Q503 184 481 138T425 58T347 5T248 -15Q207 -15 171 -2T109 39T73 106T71 198Q77 232 93 266T132 323Q157 349 191 366T270 383Q299 383 318 380T361 366L344 307Q339 312 327 315T304 318Q261 318 226 282T177 173Q167 116 184 91T250 64Q310 61 347 108T399 240Q413 318 402 388T343 518L337 527L224 481L210 530L297 566Q289 571 281 576T263 587Q246 596 236 600T216 609T190 617T147 629L166 689Q227 678 280 657T379 600L504 653L517 603L420 562Z"  />
<glyph unicode="&#xF1;" horiz-adv-x="525" d="M227 394Q232 378 230 349T221 275L280 393Q303 401 326 404T372 408Q435 408 461 373T476 281L454 160Q447 122 441 85T430 0Q421 1 405 1H343Q329 1 322 0Q325 8 327 18T333 45T341 90T354 161L368 237Q374 268 374 286T370 313T355 324T327 326Q295 326 268 311T221 275Q219 266 218 257T214 237L200 160Q193 122 187 87T176 1H119Q102 1 87 1T66 0Q69 8 71 18T77 45T86 90T99 161L113 237Q118 265 121 286T126 326T128 360T128 395Q133 395 147 395T177 394H227ZM521 592Q513 574 498 552T469 518Q457 507 445 504T415 500H308Q273 500 253 486T212 443L198 460Q201 467 206 478T219 501T235 525T251 543Q265 556 278 559T311 563H418Q434 563 445 565T466 572T485 585T506 608L521 592Z"  />
<glyph unicode="&#xF2;" horiz-adv-x="486" d="M425 463Q377 489 337 510T249 553L280 625Q319 590 358 558T440 493L425 463ZM487 187Q483 154 466 118T420 53T349 4T255 -15Q149 -14 101 42T63 196Q67 230 85 267T132 336T203 387T295 408Q342 408 380 395T445 355T482 286T487 187ZM377 189Q382 228 377 254T360 296T331 319T292 326Q192 326 175 195Q166 126 190 94T256 62Q313 62 341 95T377 189Z"  />
<glyph unicode="&#xF3;" horiz-adv-x="486" d="M453 553Q397 531 349 510T245 463L240 493Q292 525 343 557T446 625L453 553ZM487 187Q483 154 466 118T420 53T349 4T255 -15Q149 -14 101 42T63 196Q67 230 85 267T132 336T203 387T295 408Q342 408 380 395T445 355T482 286T487 187ZM377 189Q382 228 377 254T360 296T331 319T292 326Q192 326 175 195Q166 126 190 94T256 62Q313 62 341 95T377 189Z"  />
<glyph unicode="&#xF4;" horiz-adv-x="486" d="M423 436Q406 465 386 494T344 551H333Q302 523 271 494T214 436L202 459Q239 505 272 550T336 640H373Q389 595 406 550T443 459L423 436ZM487 187Q483 154 466 118T420 53T349 4T255 -15Q149 -14 101 42T63 196Q67 230 85 267T132 336T203 387T295 408Q342 408 380 395T445 355T482 286T487 187ZM377 189Q382 228 377 254T360 296T331 319T292 326Q192 326 175 195Q166 126 190 94T256 62Q313 62 341 95T377 189Z"  />
<glyph unicode="&#xF5;" horiz-adv-x="486" d="M497 592Q489 574 474 552T445 518Q433 507 421 504T391 500H284Q249 500 229 486T188 443L174 460Q177 467 182 478T195 501T211 525T227 543Q241 556 254 559T287 563H394Q410 563 421 565T442 572T461 585T482 608L497 592ZM487 187Q483 154 466 118T420 53T349 4T255 -15Q149 -14 101 42T63 196Q67 230 85 267T132 336T203 387T295 408Q342 408 380 395T445 355T482 286T487 187ZM377 189Q382 228 377 254T360 296T331 319T292 326Q192 326 175 195Q166 126 190 94T256 62Q313 62 341 95T377 189Z"  />
<glyph unicode="&#xF6;" horiz-adv-x="486" d="M490 545Q485 516 463 499T415 482Q386 482 372 499T363 543Q368 572 391 590T440 608Q468 608 481 590T490 545ZM312 545Q307 516 285 499T237 482Q208 482 194 499T185 543Q190 572 213 590T262 608Q290 608 303 590T312 545ZM487 187Q483 154 466 118T420 53T349 4T255 -15Q149 -14 101 42T63 196Q67 230 85 267T132 336T203 387T295 408Q342 408 380 395T445 355T482 286T487 187ZM377 189Q382 228 377 254T360 296T331 319T292 326Q192 326 175 195Q166 126 190 94T256 62Q313 62 341 95T377 189Z"  />
<glyph unicode="&#xF7;" horiz-adv-x="500" d="M324 64Q319 37 297 18T247 -2Q220 -2 204 17T192 64Q197 91 220 110T270 130Q297 130 313 111T324 64ZM473 169Q280 174 88 169L101 242Q293 238 486 242L473 169ZM374 345Q369 318 346 299T296 279Q269 279 253 298T242 345Q247 372 269 391T319 411Q346 411 362 392T374 345Z"  />
<glyph unicode="&#xF8;" horiz-adv-x="486" d="M447 360Q473 334 485 297T492 210Q484 147 458 107T399 40Q364 11 329 -1T249 -16Q217 -18 189 -12T139 6L94 -46L57 -18L102 35Q77 61 68 98T64 179Q71 230 94 272T150 343Q188 377 227 391T308 408Q367 410 409 387L457 442L493 413L447 360ZM345 314Q325 328 298 326Q238 323 211 292T176 198Q170 153 179 123L345 314ZM378 189Q385 243 373 275L203 80Q225 60 257 62Q314 65 342 97T378 189Z"  />
<glyph unicode="&#xF9;" horiz-adv-x="512" d="M285 2Q262 -6 240 -9T194 -13Q131 -13 106 22T90 114L111 235Q118 273 124 310T136 395Q145 394 160 394T191 393T221 393T244 395Q240 380 237 366T230 334T222 292T211 234L198 158Q193 127 192 109T195 82T210 71T238 69Q270 69 297 85T345 121L285 2ZM500 395Q497 384 494 373T487 345T478 301T466 234L453 158Q448 129 445 108T440 68T438 34T438 0Q432 0 418 0T388 1H338Q333 20 337 59T352 158L365 235Q372 273 378 308T389 394H446Q464 394 479 394T500 395ZM421 463Q373 489 333 510T245 553L276 625Q315 590 354 558T436 493L421 463Z"  />
<glyph unicode="&#xFA;" horiz-adv-x="512" d="M285 2Q262 -6 240 -9T194 -13Q131 -13 106 22T90 114L111 235Q118 273 124 310T136 395Q145 394 160 394T191 393T221 393T244 395Q240 380 237 366T230 334T222 292T211 234L198 158Q193 127 192 109T195 82T210 71T238 69Q270 69 297 85T345 121L285 2ZM500 395Q497 384 494 373T487 345T478 301T466 234L453 158Q448 129 445 108T440 68T438 34T438 0Q432 0 418 0T388 1H338Q333 20 337 59T352 158L365 235Q372 273 378 308T389 394H446Q464 394 479 394T500 395ZM462 553Q406 531 358 510T254 463L249 493Q301 525 352 557T455 625L462 553Z"  />
<glyph unicode="&#xFB;" horiz-adv-x="512" d="M285 2Q262 -6 240 -9T194 -13Q131 -13 106 22T90 114L111 235Q118 273 124 310T136 395Q145 394 160 394T191 393T221 393T244 395Q240 380 237 366T230 334T222 292T211 234L198 158Q193 127 192 109T195 82T210 71T238 69Q270 69 297 85T345 121L285 2ZM500 395Q497 384 494 373T487 345T478 301T466 234L453 158Q448 129 445 108T440 68T438 34T438 0Q432 0 418 0T388 1H338Q333 20 337 59T352 158L365 235Q372 273 378 308T389 394H446Q464 394 479 394T500 395ZM432 436Q415 465 395 494T353 551H342Q311 523 280 494T223 436L211 459Q248 505 281 550T345 640H382Q398 595 415 550T452 459L432 436Z"  />
<glyph unicode="&#xFC;" horiz-adv-x="512" d="M285 2Q262 -6 240 -9T194 -13Q131 -13 106 22T90 114L111 235Q118 273 124 310T136 395Q145 394 160 394T191 393T221 393T244 395Q240 380 237 366T230 334T222 292T211 234L198 158Q193 127 192 109T195 82T210 71T238 69Q270 69 297 85T345 121L285 2ZM500 395Q497 384 494 373T487 345T478 301T466 234L453 158Q448 129 445 108T440 68T438 34T438 0Q432 0 418 0T388 1H338Q333 20 337 59T352 158L365 235Q372 273 378 308T389 394H446Q464 394 479 394T500 395ZM324 545Q319 516 297 499T249 482Q220 482 206 499T197 543Q202 572 225 590T274 608Q302 608 315 590T324 545ZM502 545Q497 516 475 499T427 482Q398 482 384 499T375 543Q380 572 403 590T452 608Q480 608 493 590T502 545Z"  />
<glyph unicode="&#xFD;" horiz-adv-x="396" d="M460 394Q450 380 441 365T424 337L234 45Q221 25 211 11T190 -16T168 -41T141 -69Q94 -114 39 -134T-61 -151L-50 -90Q-24 -92 -11 -90T14 -83Q33 -75 49 -66T80 -43T109 -11T142 33L85 336Q83 348 80 364T72 394Q96 393 126 393T180 393Q180 379 180 369T183 348L219 150L347 353Q349 357 351 360T356 368Q360 373 364 380T370 394Q390 392 416 392T460 394ZM385 553Q329 531 281 510T177 463L172 493Q224 525 275 557T378 625L385 553Z"  />
<glyph unicode="&#xFE;" horiz-adv-x="499" d="M504 210Q498 163 478 123T426 53T353 5T264 -16Q231 -18 200 -9T149 32L146 -16L131 -103L125 -136Q122 -157 119 -179T112 -222T108 -255Q102 -255 90 -255T64 -254T40 -254T24 -255Q35 -217 41 -179T55 -102L165 524Q172 563 178 601T188 677Q192 677 203 677T228 676T253 676T272 677Q269 665 265 644T257 601T248 558T242 525Q235 483 226 431T207 324T188 217T171 122Q177 78 202 56T269 36Q307 38 333 51T376 86T402 133T414 189Q418 221 415 251T401 303T370 339T318 351Q283 349 255 337T205 299L251 391Q271 399 291 402T337 407Q375 409 408 396T464 357T498 294T504 210Z"  />
<glyph unicode="&#xFF;" horiz-adv-x="385" d="M472 394Q462 380 453 365T436 337L246 45Q233 25 223 11T202 -16T180 -41T153 -69Q106 -114 51 -134T-49 -151L-38 -90Q-12 -92 1 -90T26 -83Q45 -75 61 -66T92 -43T121 -11T154 33L97 336Q95 348 92 364T84 394Q108 393 138 393T192 393Q192 379 192 369T195 348L231 150L359 353Q361 357 363 360T368 368Q372 373 376 380T382 394Q402 392 428 392T472 394ZM248 532Q244 510 229 497T193 483Q173 483 162 494T154 529Q157 549 173 563T210 577Q230 577 240 563T248 532ZM435 532Q431 510 416 497T381 483Q361 483 350 494T341 529Q344 549 360 563T398 577Q418 577 428 563T435 532Z"  />
<glyph unicode="&#x152;" horiz-adv-x="1012" d="M1047 580L767 585Q765 566 763 553T757 522L734 394H948L934 313H720L693 160Q690 146 689 136T685 118T682 101T677 80H738Q744 80 771 80T836 82T919 84T1006 87L964 -2Q901 -2 862 -2T795 -1T748 -1T704 0Q680 0 666 0T643 1H614Q603 1 588 1T554 0Q556 6 557 11T560 21Q484 -14 390 -14Q313 -14 253 11T153 81T98 187T95 323Q108 398 145 462T238 573T362 647T508 674Q600 674 666 637Q668 642 668 648V660H715Q729 660 750 660T809 661T905 661T1050 663L1047 580ZM648 511Q622 549 582 571T487 593Q440 593 395 574T314 519T251 434T214 324Q203 265 215 217T254 135T322 81T407 62Q455 62 500 82T584 139L648 511Z"  />
<glyph unicode="&#x153;" horiz-adv-x="729" d="M546 192L532 263H667Q671 300 657 314T610 328Q566 328 538 301T497 232Q485 193 485 162T496 108T525 73T568 61Q599 61 624 74T669 111L718 80Q684 32 640 8T548 -16Q494 -16 459 6T408 52Q401 44 390 34T361 13T316 -6T249 -16Q199 -19 162 -5T102 36T69 100T64 179Q70 230 94 272T150 343Q188 377 227 391T308 408Q358 410 398 391T463 336Q481 352 501 366T544 390T588 405T634 408Q666 405 691 393T732 356T752 292T747 192H546ZM378 189Q383 228 378 254T362 297T334 320T298 326Q238 323 211 292T176 198Q167 126 191 93T257 62Q314 65 342 97T378 189Z"  />
<glyph unicode="&#x160;" horiz-adv-x="460" d="M449 550Q424 572 394 581T340 591Q289 591 261 569T225 508Q221 488 238 463T283 418L350 371Q383 348 403 324T433 275T444 222T440 167Q432 125 410 92T356 35T284 -1T201 -14Q151 -14 121 -8T67 10Q59 14 49 16T30 21L88 129Q108 100 140 83T215 65Q239 65 260 72T297 92T323 120T336 153Q341 182 324 209T284 253L204 312Q156 347 136 392T126 501Q133 541 153 573T204 627T274 662T356 674Q378 674 393 673T418 671T437 667T457 661Q470 658 481 657T503 654L449 550ZM526 836Q490 808 453 778T378 715H335Q309 748 283 778T229 836L248 863Q276 842 304 822T361 784H376Q411 801 447 821T519 863L526 836Z"  />
<glyph unicode="&#x161;" horiz-adv-x="323" d="M307 336Q293 350 277 355T241 360Q217 360 196 346T169 309Q167 296 172 286T188 269T210 254T233 240Q251 228 267 217T295 190T312 153T311 100Q306 71 290 50T252 15T202 -7T147 -14Q79 -14 48 16L87 80Q111 40 166 40Q190 40 213 52T241 91Q244 106 239 116T224 136T202 152L178 166Q158 178 142 190T116 218T101 251T102 294Q107 321 121 342T156 378T203 400T258 408Q290 408 312 402T341 390L307 336ZM410 653Q375 608 342 563T276 472H239Q224 518 207 563T169 653L187 664Q207 633 227 603T270 541Q339 604 396 664L410 653Z"  />
<glyph unicode="&#x178;" horiz-adv-x="571" d="M685 660Q680 655 671 644T651 620T630 593T614 570L382 236L368 159Q361 121 356 85T346 0Q337 0 321 0T288 1T254 1T230 0Q233 12 235 19T240 40T248 81T262 158L274 227L175 516Q173 522 168 538T154 575T136 618T114 660Q137 658 158 658T193 657Q204 657 216 658T251 660Q258 631 263 610T278 561L355 347Q357 340 359 333T360 318Q362 325 366 333T374 347L499 532Q522 566 534 586T553 620T563 641T571 660Q598 659 629 659T685 660ZM384 759Q380 736 364 722T326 707Q304 707 292 719T284 756Q287 778 304 793T344 809Q366 809 376 794T384 759ZM581 759Q577 736 562 722T524 707Q502 707 490 719T481 756Q485 778 502 793T542 809Q564 809 574 794T581 759Z"  />
<glyph unicode="&#x17D;" horiz-adv-x="566" d="M210 81Q297 81 355 82T453 85T522 90T577 98L522 0H7L472 580Q397 579 347 578T264 575T211 573T178 571T155 569T130 567L191 660H676L210 81ZM595 836Q559 808 522 778T447 715H404Q378 748 352 778T298 836L317 863Q345 842 373 822T430 784H445Q480 801 516 821T588 863L595 836Z"  />
<glyph unicode="&#x17E;" horiz-adv-x="363" d="M176 69Q229 69 260 69T312 71T345 73T373 78L329 0H18L272 326Q256 326 249 326T234 325H194Q174 325 161 325T136 324T114 322T88 319L134 394H431L176 69ZM430 641Q394 596 361 551T296 460H259Q244 506 227 551T189 641L209 664Q229 633 249 603T292 541Q361 604 418 664L430 641Z"  />
<glyph unicode="&#x192;" horiz-adv-x="477" d="M528 555Q523 572 519 582T510 598T499 606T486 611Q457 617 434 605T389 567Q384 561 378 545T363 505T344 453T320 395H410L370 327H294L221 143Q200 89 181 55T142 -2Q98 -50 50 -84T-64 -129L-69 -77Q-55 -74 -46 -71T-30 -65T-18 -59T-5 -50Q34 -24 63 27T121 150L190 327H148L139 375L219 398Q231 425 243 453T267 508T292 556T316 591Q370 651 428 670T539 678Q564 673 577 662T599 634L528 555Z"  />
<glyph unicode="&#x2C6;" horiz-adv-x="360" d="M364 448Q347 477 327 506T285 563H274Q243 535 213 506T155 448L143 471Q180 517 213 562T277 652H314Q330 607 347 562T384 471L364 448Z"  />
<glyph unicode="&#x2DC;" horiz-adv-x="360" d="M437 604Q428 586 413 564T384 530Q372 519 360 516T330 512H223Q188 512 168 498T127 455L113 472Q116 479 121 490T134 513T150 537T166 555Q180 568 193 571T226 575H333Q349 575 360 577T381 584T400 597T421 620L437 604Z"  />
<glyph unicode="&#x2013;" horiz-adv-x="500" d="M528 157H28L41 230H541L528 157Z"  />
<glyph unicode="&#x2014;" horiz-adv-x="1000" d="M1028 157H28L41 230H1041L1028 157Z"  />
<glyph unicode="&#x2018;" horiz-adv-x="235" d="M314 676Q302 672 288 666T262 652T241 636T231 620Q229 609 231 605T240 598T254 593T272 583Q280 577 284 566T287 543Q284 527 276 514T257 492T234 478T209 473Q183 473 165 492T153 550Q159 586 174 612T211 658T258 690T311 711L314 676Z"  />
<glyph unicode="&#x2019;" horiz-adv-x="235" d="M308 634Q302 598 287 572T250 526T203 494T149 473L147 508Q159 512 172 518T198 532T218 548T229 564Q231 575 229 579T221 586T207 591T189 601Q181 607 177 618T174 641Q180 673 203 692T251 711Q277 711 296 692T308 634Z"  />
<glyph unicode="&#x201A;" horiz-adv-x="215" d="M187 40Q181 4 166 -22T129 -68T82 -100T29 -121L26 -86Q38 -82 52 -76T78 -62T98 -46T109 -30Q111 -19 109 -15T100 -8T86 -3T68 7Q60 13 56 24T53 47Q56 63 64 76T83 98T106 112T131 117Q157 117 175 98T187 40Z"  />
<glyph unicode="&#x201C;" horiz-adv-x="404" d="M314 676Q302 672 288 666T262 652T241 636T231 620Q229 609 231 605T240 598T254 593T272 583Q280 577 284 566T287 543Q284 527 276 514T257 492T234 478T209 473Q183 473 165 492T153 550Q159 586 174 612T211 658T258 690T311 711L314 676ZM482 676Q470 672 456 666T430 652T409 636T399 620Q397 609 399 605T408 598T422 593T440 583Q448 577 452 566T455 543Q452 527 444 514T425 492T402 478T377 473Q351 473 333 492T321 550Q327 586 342 612T379 658T426 690T479 711L482 676Z"  />
<glyph unicode="&#x201D;" horiz-adv-x="404" d="M308 634Q302 598 287 572T250 526T203 494T149 473L147 508Q159 512 172 518T198 532T218 548T229 564Q231 575 229 579T221 586T207 591T189 601Q181 607 177 618T174 641Q180 673 203 692T251 711Q277 711 296 692T308 634ZM476 634Q470 598 455 572T418 526T371 494T317 473L315 508Q327 512 340 518T366 532T386 548T397 564Q399 575 397 579T389 586T375 591T357 601Q349 607 345 618T342 641Q348 673 371 692T419 711Q445 711 464 692T476 634Z"  />
<glyph unicode="&#x201E;" horiz-adv-x="384" d="M187 40Q181 4 166 -22T129 -68T82 -100T29 -121L26 -86Q38 -82 52 -76T78 -62T98 -46T109 -30Q111 -19 109 -15T100 -8T86 -3T68 7Q60 13 56 24T53 47Q56 63 64 76T83 98T106 112T131 117Q157 117 175 98T187 40ZM355 40Q349 4 334 -22T297 -68T250 -100T197 -121L194 -86Q206 -82 220 -76T246 -62T266 -46T277 -30Q279 -19 277 -15T268 -8T254 -3T236 7Q228 13 224 24T221 47Q224 63 232 76T251 98T274 112T299 117Q325 117 343 98T355 40Z"  />
<glyph unicode="&#x2020;" horiz-adv-x="480" d="M491 382Q468 382 450 387T415 397T380 408T338 413Q327 353 327 316T345 250Q333 225 322 199T301 142T282 77T266 -2L244 -127H188L210 -2Q217 41 220 76T225 142T224 198T219 250Q233 264 243 280T260 316T273 359T284 413Q261 413 241 408T202 398T162 387T120 382L140 493Q162 493 180 489T215 478T251 468T293 463Q300 505 300 532T298 579T294 617T296 656H412Q408 634 400 617T383 580T364 532T347 463Q370 463 390 467T429 478T468 488T511 493L491 382Z"  />
<glyph unicode="&#x2021;" horiz-adv-x="480" d="M505 381Q482 381 464 386T429 396T394 407T352 412Q347 387 343 364T338 321T341 286T360 262Q328 241 317 202T298 111Q321 111 341 116T380 126T419 137T462 142L442 31Q419 31 401 35T366 46T331 56T289 61Q281 19 281 -8T283 -55T288 -93T286 -132H170Q174 -110 181 -93T198 -56T217 -8T235 61Q212 61 192 57T153 46T113 36T71 31L91 142Q113 142 131 137T166 127T202 116T244 111Q248 136 251 158T255 200T251 235T234 262Q250 271 260 286T278 320T289 363T298 412Q275 412 255 407T216 397T176 386T134 381L154 492Q176 492 194 488T229 477T264 467T306 462Q313 504 313 531T311 578T307 616T309 655H425Q421 633 414 616T397 579T377 531T360 462Q383 462 403 466T442 477T482 487T525 492L505 381Z"  />
<glyph unicode="&#x2022;" horiz-adv-x="388" d="M405 336Q400 305 383 278T342 230T289 198T228 186Q197 186 172 198T129 230T105 277T103 336Q109 367 125 394T166 442T220 474T281 486Q312 486 337 474T380 442T404 395T405 336Z"  />
<glyph unicode="&#x2026;" horiz-adv-x="1000" d="M242 50Q237 23 214 4T164 -16Q137 -16 121 3T110 50Q115 77 137 96T187 116Q214 116 230 97T242 50ZM575 50Q570 23 547 4T497 -16Q470 -16 454 3T443 50Q448 77 470 96T520 116Q547 116 563 97T575 50ZM907 50Q902 23 879 4T829 -16Q802 -16 786 3T775 50Q780 77 802 96T852 116Q879 116 895 97T907 50Z"  />
<glyph unicode="&#x2030;" horiz-adv-x="1144" d="M1136 182Q1128 137 1113 101T1076 40T1029 1T975 -13Q942 -13 922 3T891 44Q878 73 877 108T882 182Q890 226 905 262T942 323T989 363T1043 377Q1072 377 1093 362T1126 321T1140 260T1136 182ZM1068 182Q1082 260 1073 293T1035 327Q1020 327 1009 319T987 295Q973 272 965 243T950 182Q943 143 944 111T951 62Q960 33 983 33Q999 33 1010 42T1031 66Q1045 89 1054 119T1068 182ZM818 182Q810 137 795 101T758 40T711 1T657 -13Q624 -13 604 3T573 44Q560 73 559 108T564 182Q572 226 587 262T624 323T671 363T725 377Q754 377 775 362T808 321T822 260T818 182ZM750 182Q764 260 755 293T717 327Q702 327 691 319T669 295Q655 272 647 243T632 182Q625 143 626 111T633 62Q642 33 665 33Q681 33 692 42T713 66Q727 89 736 119T750 182ZM234 -40L184 -18L706 652L760 635L234 -40ZM384 444Q376 399 361 363T324 302T277 263T223 249Q190 249 170 265T139 306Q127 335 125 370T130 444Q138 488 154 524T191 585T238 625T292 639Q321 639 341 624T374 583T388 522T384 444ZM316 444Q330 522 321 555T283 589Q268 589 257 581T235 557Q221 534 213 505T198 444Q191 405 192 373T199 324Q208 295 231 295Q247 295 258 304T279 328Q293 351 302 381T316 444Z"  />
<glyph unicode="&#x2039;" horiz-adv-x="233" d="M161 207L209 52L178 39Q155 77 133 114T86 190L91 221Q129 259 165 296T236 371L263 358L161 207Z"  />
<glyph unicode="&#x203A;" horiz-adv-x="233" d="M222 190Q184 152 148 115T76 39L49 52L151 207L103 358L134 371Q157 333 179 296T227 221L222 190Z"  />
<glyph unicode="&#x20AC;" horiz-adv-x="672" d="M750 647Q747 620 744 586T740 513Q708 541 682 557T629 582T577 593T521 596Q421 596 355 556T254 445Q308 445 360 445T459 447L448 386Q399 388 344 388H232Q229 377 226 365T221 340Q216 316 215 295H327Q383 295 432 297L422 236Q375 237 323 237T216 238Q221 192 239 159T287 105T353 74T433 64Q471 64 505 71T571 91T633 118T694 148Q677 116 661 84T630 19Q610 17 598 14T574 7Q556 1 536 -3T497 -10T460 -14T429 -15Q361 -15 303 1T200 48T128 127T94 238Q68 237 44 237T-3 236L7 297Q27 296 48 296H93Q95 320 99 345Q101 356 103 366T109 387H64Q43 387 23 386L34 447Q57 446 81 446T130 445Q158 506 203 549T301 620T410 661T520 674Q586 674 629 669T711 652Q722 649 734 648T750 647Z"  />
<glyph unicode="&#x2122;" horiz-adv-x="954" d="M969 660Q968 654 966 643T961 619T955 591T950 563L914 359Q910 336 907 316T900 264Q895 264 885 264T865 265T845 265T831 264Q839 295 843 315T851 359L879 518Q868 501 862 491T846 467L779 366Q765 344 755 329T737 303T723 282L711 264H678Q675 276 671 289T660 323Q653 345 650 361T644 383L611 493Q606 509 605 521T601 547L568 359Q564 336 562 316T555 264Q542 265 526 265T496 264Q500 281 502 291T508 316Q510 327 511 337T515 359L551 563Q553 574 555 583T559 606Q561 620 562 631T567 660Q571 660 580 660T599 659T620 659T636 660Q640 636 647 607T659 560L698 430Q706 406 709 391T718 358Q729 376 741 395T764 429L844 547Q872 587 885 612T907 660Q911 660 919 660T936 659T954 659T969 660ZM398 614Q394 597 392 587T388 564L352 359Q348 336 345 316T339 264Q333 264 323 264T303 265T283 265T269 264Q277 293 280 314T288 359L324 563Q326 577 328 588T333 614L202 611L218 660Q244 660 264 660T303 659H449Q468 659 488 659T534 660V611L398 614Z"  />


</font>
</defs>
</svg>
