<?xml  version="1.0" encoding="UTF-8"?>
<!DOCTYPE svg PUBLIC "-//W3C//DTD SVG 1.0//EN" "http://www.w3.org/TR/2001/REC-SVG-20010904/DTD/svg10.dtd" >
<svg xmlns="http://www.w3.org/2000/svg" >
<metadata>
<version>1.0</version>
<id><![CDATA[Nautilus LT W01 Black]]></id>
<vendor>Monotype Imaging Inc.</vendor>
<credits>
<name>Fonts.com WebFonts</name>
<URL>http://webfonts.fonts.com</URL>
<role>Home of the Web fonts</role>
</credits>
<license>
<URL>http://webfonts.fonts.com/Legal</URL>
</license>
<copyright><![CDATA[Copyright © 2003 - 2008 Linotype GmbH, www.linotype.com. All rights reserved. This font software may not be reproduced, modified, disclosed or transferred without the express written approval of Linotype GmbH. Linotype Nautilus is a trademark of Linotype GmbH and may be registered in certain jurisdictions. This typeface is original artwork of Hellmut G. Bomm. The design may be protected in certain jurisdictions.]]></copyright>
<trademark><![CDATA[Linotype Nautilus is a trademark of Linotype GmbH and may be registered in certain jurisdictions.]]></trademark>
<licensee>
<name></name>
</licensee>
</metadata>
<defs >
<font horiz-adv-x="462" id="54c1c5eb-92dd-448b-8c8c-71f27958d51f">
<font-face font-family="" panose-1="2 11 10 6 8 0 0 2 0 4" ascent="856" descent="-250" units-per-em="1000" alphabetic="0">
</font-face>
<missing-glyph horiz-adv-x="0" />

<glyph unicode="&#xA;" />
<glyph unicode="&#xD;" horiz-adv-x="0" />
<glyph unicode=" " horiz-adv-x="245" />
<glyph unicode="!" horiz-adv-x="257" d="M197 0H70V116H197V0ZM202 693L185 207H83L63 693H202Z"  />
<glyph unicode="&quot;" horiz-adv-x="442" d="M198 695L178 497H81L63 695H198ZM372 695L352 497H255L236 695H372Z"  />
<glyph unicode="#" horiz-adv-x="707" d="M441 421H312L266 288H394L441 421ZM684 481L663 421H511L465 288H626L605 228H443L362 0H291L373 228H244L162 0H92L173 228H17L38 288H194L241 421H74L95 481H263L345 711H416L335 481H462L544 711H614L534 481H684Z"  />
<glyph unicode="$" horiz-adv-x="451" d="M321 102Q321 144 229 216V32H241Q270 32 295 52Q321 73 321 102ZM202 585Q192 588 184 590T168 592Q145 592 130 579T115 542Q115 518 150 485L202 440V585ZM405 180Q405 101 356 49Q307 0 229 -13V-74H202V-16Q188 -17 180 -17T168 -17Q66 -17 16 23L103 136Q133 91 145 79Q170 51 202 38V239L121 310Q70 355 56 376Q32 412 32 463Q32 539 78 590Q124 639 202 639V684H229V641Q308 641 382 613L308 496Q263 553 229 576V417Q334 327 345 316Q405 250 405 180Z"  />
<glyph unicode="%" horiz-adv-x="571" d="M496 64Q496 109 463 172Q427 244 388 244Q355 244 355 201Q355 157 388 93Q425 21 463 21Q496 21 496 64ZM219 404Q219 450 186 515Q148 586 107 586Q74 586 74 541Q74 496 108 434Q147 364 186 364Q201 364 210 376T219 404ZM550 132Q550 74 518 33Q483 -9 425 -9Q366 -9 333 33Q300 73 300 132Q300 191 333 230Q366 273 425 273Q483 273 518 231Q550 191 550 132ZM464 605L165 0H100L402 605H464ZM270 471Q270 414 240 375Q207 331 152 331Q92 331 56 375Q21 415 21 476Q21 534 52 572Q87 613 142 613Q202 613 237 571Q270 532 270 471Z"  />
<glyph unicode="&amp;" horiz-adv-x="547" d="M168 279Q137 247 137 192Q137 141 173 101Q211 57 259 57Q289 57 323 76L168 279ZM298 486Q298 504 294 520T282 554Q262 593 229 593Q209 593 196 579T183 544Q183 511 208 470L254 404Q298 431 298 486ZM557 0H382L349 42Q266 -18 185 -18Q110 -18 64 19Q14 58 14 131Q14 190 51 240Q76 274 135 323Q83 387 83 470Q83 547 133 591Q182 632 260 632Q322 632 364 608Q416 580 416 522Q416 473 370 430Q361 420 340 404T284 365L424 177Q442 201 450 226L481 211Q475 195 467 179T447 145L557 0Z"  />
<glyph unicode="&apos;" horiz-adv-x="222" d="M178 696L158 498H61L43 696H178Z"  />
<glyph unicode="(" horiz-adv-x="378" d="M198 -164Q136 -54 111 42Q98 90 92 145T86 264Q86 409 113 514Q142 630 217 743H291Q234 644 215 559Q187 435 187 311Q187 185 224 65Q239 15 263 -42T321 -164H198Z"  />
<glyph unicode=")" horiz-adv-x="382" d="M297 315Q297 169 270 64Q240 -50 166 -164H92Q150 -61 168 20Q196 144 196 268Q196 396 159 514Q129 614 62 743H184Q247 634 272 537Q285 489 291 434T297 315Z"  />
<glyph unicode="*" horiz-adv-x="411" d="M403 458L255 482L349 370L253 313L201 451L151 310L54 367L154 483L5 453V569L149 540L47 653L149 713L202 569L252 712L350 656L255 541L403 565V458Z"  />
<glyph unicode="+" horiz-adv-x="490" d="M284 245V80H204V245H41V319H204V483H284V319H448V245H284Z"  />
<glyph unicode="&#x2c;" horiz-adv-x="236" d="M201 112L103 -110H30L73 111L201 112Z"  />
<glyph unicode="-" horiz-adv-x="342" d="M259 270H76V332H259V270Z"  />
<glyph unicode="." horiz-adv-x="223" d="M174 0H47V116L174 115V0Z"  />
<glyph unicode="/" horiz-adv-x="360" d="M351 695L87 -25H30L299 695H351Z"  />
<glyph unicode="0" horiz-adv-x="490" d="M366 162Q366 232 354 303Q346 345 334 384T304 458Q255 561 193 561Q152 561 133 513Q119 476 119 430Q119 326 160 200Q212 38 293 38Q366 38 366 162ZM470 299Q470 175 421 93Q362 -9 248 -9Q131 -9 68 97Q16 186 16 310Q16 427 67 513Q128 615 238 615Q357 615 418 511Q470 426 470 299Z"  />
<glyph unicode="1" horiz-adv-x="490" d="M351 0H213V493L48 404L29 440L351 619V0Z"  />
<glyph unicode="2" horiz-adv-x="490" d="M422 0H28V53Q88 95 131 134T202 209Q280 308 280 425Q280 472 260 507Q236 550 193 550Q158 550 123 527Q102 513 65 478L39 497Q87 554 131 582Q187 617 250 617Q324 617 369 578Q416 536 416 463Q416 369 328 260Q304 231 264 191T166 98H422V0Z"  />
<glyph unicode="3" horiz-adv-x="490" d="M442 215Q442 112 331 40Q242 -16 125 -35L71 -44L65 -13Q178 6 229 44Q297 94 297 196Q297 260 271 286Q247 313 184 313L164 310L163 347Q268 350 268 463Q268 560 187 560Q129 560 66 493L43 515Q98 575 135 596Q184 627 251 627Q312 627 356 594Q405 557 405 498Q405 395 263 351Q348 347 389 323Q442 291 442 215Z"  />
<glyph unicode="4" horiz-adv-x="490" d="M242 513L64 223L240 224L242 513ZM465 158H379V0H240L241 158H-1V204L247 604H380V223H465V158Z"  />
<glyph unicode="5" horiz-adv-x="490" d="M408 257Q408 139 292 48Q190 -32 64 -48L57 -18Q270 25 270 224Q270 351 173 351Q128 351 58 313L99 605H389V506H132L112 373Q170 404 237 404Q315 404 358 370Q408 332 408 257Z"  />
<glyph unicode="6" horiz-adv-x="490" d="M349 122Q349 181 321 246Q287 328 237 328Q209 328 192 293Q179 264 179 234Q179 177 212 114Q249 42 302 42Q327 42 339 71Q349 92 349 122ZM457 213Q457 122 394 55Q330 -13 240 -13Q142 -13 90 54Q41 115 41 215Q41 375 144 490Q243 601 401 633L410 603Q181 539 163 311Q191 352 218 371Q251 392 296 392Q368 392 414 337Q457 285 457 213Z"  />
<glyph unicode="7" horiz-adv-x="490" d="M425 514L159 0H90L355 505H67L68 605H424L425 514Z"  />
<glyph unicode="8" horiz-adv-x="490" d="M356 101Q356 155 197 272Q165 238 165 198Q165 143 203 96Q241 46 296 46Q320 46 337 62Q356 80 356 101ZM317 443Q317 488 282 535Q245 584 199 584Q182 584 167 573Q151 561 151 546Q151 481 283 385Q317 410 317 443ZM449 180Q449 93 383 39Q322 -10 232 -10Q150 -10 101 24Q44 64 44 142Q44 236 155 301Q61 364 61 457Q61 538 117 586Q169 631 253 631Q329 631 376 601Q430 565 430 492Q430 445 397 411Q376 389 323 359Q388 318 414 287Q449 243 449 180Z"  />
<glyph unicode="9" horiz-adv-x="490" d="M313 371Q313 424 281 491Q242 567 194 567Q143 567 143 487Q143 428 171 362Q205 280 255 280Q282 280 299 313Q313 340 313 371ZM452 394Q452 232 350 120Q255 14 92 -25L82 6Q188 29 258 109Q326 191 329 298Q287 217 196 217Q124 217 79 271Q36 321 36 396Q36 486 99 554Q164 622 253 622Q349 622 403 555Q452 494 452 394Z"  />
<glyph unicode=":" horiz-adv-x="214" d="M169 0H42V116L169 115V0ZM169 350H42V467L169 466V350Z"  />
<glyph unicode=";" horiz-adv-x="207" d="M168 112L70 -110H-3L40 111L168 112ZM166 350H39V467L166 466V350Z"  />
<glyph unicode="&lt;" horiz-adv-x="490" d="M41 245V317L448 477V395L150 281L448 168V85L41 245Z"  />
<glyph unicode="=" horiz-adv-x="490" d="M41 321V396H448V321H41ZM41 166V241H448V166H41Z"  />
<glyph unicode="&gt;" horiz-adv-x="490" d="M41 85V168L339 281L41 395V477L448 317V245L41 85Z"  />
<glyph unicode="?" horiz-adv-x="418" d="M245 0H118V116L245 115V0ZM392 555Q392 416 163 205L132 230Q198 313 224 365Q262 441 262 522Q262 640 171 640Q104 640 53 566L26 586Q99 707 222 707Q297 707 342 668Q392 627 392 555Z"  />
<glyph unicode="@" horiz-adv-x="856" d="M505 254Q457 115 403 53T282 -10Q233 -10 209 23T184 102Q184 144 204 199T269 315Q328 395 383 431T498 467H645L625 172Q623 147 623 129T622 102Q622 64 654 64Q669 64 685 77T713 114T734 173T743 251Q743 339 718 400T652 501T557 557T445 575Q387 575 328 555T220 490T142 376T111 211Q111 121 139 56T214 -51T320 -113T441 -133Q493 -133 538 -120T608 -89L632 -123Q595 -149 542 -167T417 -186Q350 -186 281 -166T154 -100T61 19T25 199Q25 314 68 396T176 530T319 606T466 630Q529 630 593 612T710 550T795 437T828 265Q828 214 813 167T769 82T700 23T610 0Q555 0 525 29T494 112Q494 127 495 141T498 172L505 254ZM511 396Q511 407 505 421T482 435Q466 435 447 421T409 384T372 332T341 270T319 207T310 149Q310 126 318 108T348 89Q369 89 400 124T460 229Q486 289 498 329T511 396Z"  />
<glyph unicode="A" horiz-adv-x="522" d="M292 219L204 502L125 219H292ZM517 0H360L305 177H112L62 0H10L195 631H318L517 0Z"  />
<glyph unicode="B" horiz-adv-x="532" d="M358 156Q358 309 199 309V34Q215 32 226 31T243 30Q300 30 330 65Q358 97 358 156ZM334 460Q334 516 312 553Q283 598 233 598Q228 598 220 598T199 596V354H211Q275 354 302 375Q334 399 334 460ZM504 176Q504 73 425 31Q367 -1 290 -1L58 0L57 630H266Q360 630 406 605Q469 572 469 488Q469 371 337 340Q504 320 504 176Z"  />
<glyph unicode="C" horiz-adv-x="535" d="M530 75Q475 28 430 8Q380 -13 312 -13Q177 -13 102 77Q31 160 31 299Q31 450 105 544Q188 645 334 645Q418 645 505 609L433 491Q352 599 271 599Q155 599 155 419Q155 288 208 182Q272 46 389 46Q445 46 512 98L530 75Z"  />
<glyph unicode="D" horiz-adv-x="599" d="M425 304Q425 417 393 492Q348 594 249 594H196L195 37H252Q339 37 377 91Q425 160 425 304ZM567 333Q567 188 496 97Q418 0 276 0H55V630L312 629Q442 629 507 543Q567 466 567 333Z"  />
<glyph unicode="E" horiz-adv-x="452" d="M421 45L420 0H59V629H408V582H199V349H396V300L199 301L200 45H421Z"  />
<glyph unicode="F" horiz-adv-x="420" d="M405 582H198V349H393V300L198 301L199 0H56L57 629H405V582Z"  />
<glyph unicode="G" horiz-adv-x="590" d="M549 68Q474 27 433 11Q369 -12 306 -12Q173 -12 98 80Q28 163 28 301Q28 453 105 547Q188 648 337 648Q421 648 508 612L436 494Q355 603 276 603Q208 603 176 532Q153 478 153 401Q153 319 182 235Q214 146 270 93Q326 38 371 38Q389 38 415 51V307H299V350H549V68Z"  />
<glyph unicode="H" horiz-adv-x="601" d="M533 0H392V306H197V0H56V629H197V350H392V629H533V0Z"  />
<glyph unicode="I" horiz-adv-x="262" d="M197 629L196 0H55V629H197Z"  />
<glyph unicode="J" horiz-adv-x="364" d="M316 216Q316 100 270 48Q220 -8 106 -8Q28 -8 -19 29L33 68Q52 35 94 35Q175 35 175 164Q175 169 175 176T174 192V218V631H316V216Z"  />
<glyph unicode="K" horiz-adv-x="535" d="M538 1L359 0L194 294V0H53V629H194L195 331L445 629H504L306 382L538 1Z"  />
<glyph unicode="L" horiz-adv-x="424" d="M418 41L417 0H57V629H197L198 41H418Z"  />
<glyph unicode="M" horiz-adv-x="775" d="M715 0H576V539Q574 533 571 524T564 501L389 0H289L104 532V0H56V630L214 631L388 140L559 630L715 629V0Z"  />
<glyph unicode="N" horiz-adv-x="559" d="M508 0H371L108 460V0H60V627H179L463 130V628H508V0Z"  />
<glyph unicode="O" horiz-adv-x="613" d="M445 234Q445 267 442 299T431 364Q421 404 408 439T374 507Q321 593 258 593Q159 593 159 402Q159 297 204 188Q258 52 346 41H352Q445 38 445 234ZM570 317Q570 178 507 90Q435 -9 302 -9Q166 -9 94 95Q32 186 32 327Q32 458 100 546Q173 642 303 642Q432 642 505 542Q570 451 570 317Z"  />
<glyph unicode="P" horiz-adv-x="505" d="M361 434Q361 497 332 541Q297 590 237 590H199V324Q240 313 248 313Q298 313 331 349Q361 383 361 434ZM495 463Q495 367 418 314Q359 275 236 275H217Q211 276 207 276T198 276L199 0H59L58 633H294Q495 633 495 463Z"  />
<glyph unicode="Q" horiz-adv-x="613" d="M446 233Q446 298 431 363Q413 441 373 506Q319 592 254 592Q152 592 152 401Q152 293 198 186Q254 51 344 40H350Q446 37 446 233ZM587 -70H432L375 -1Q349 -5 328 -7T290 -9Q184 -9 107 76Q29 163 29 327Q29 461 97 547Q170 643 300 643Q431 643 503 542Q567 451 567 315Q567 165 478 58L587 -70Z"  />
<glyph unicode="R" horiz-adv-x="537" d="M352 441Q352 511 316 553Q279 597 209 597H186V326Q209 324 221 323T238 322Q292 322 322 354T352 441ZM535 0H376L223 284H185L186 0H47L48 633H306Q390 633 438 592Q490 549 490 467Q490 340 363 307L535 0Z"  />
<glyph unicode="S" horiz-adv-x="452" d="M420 183Q420 92 351 38Q288 -13 195 -13Q88 -13 31 26L117 140Q198 36 251 36Q283 36 309 54Q336 73 336 106Q336 140 265 202L136 314Q111 336 95 352T71 379Q46 414 46 466Q46 556 104 602Q157 645 250 645Q318 645 397 616L323 499Q239 597 184 597Q162 597 146 582Q130 567 130 546Q130 525 153 500L194 465L338 340Q420 268 420 183Z"  />
<glyph unicode="T" horiz-adv-x="399" d="M411 581H271L270 0H129L130 581H-11V629H411V581Z"  />
<glyph unicode="U" horiz-adv-x="579" d="M529 184Q529 89 461 38Q401 -7 302 -7Q179 -7 121 42Q58 96 58 215V630H198V217Q198 158 206 131Q218 92 260 65Q298 40 342 40Q405 40 446 79Q486 116 486 181V630L529 629V184Z"  />
<glyph unicode="V" horiz-adv-x="532" d="M519 631L334 1L211 -1L12 631H169L324 125L468 631H519Z"  />
<glyph unicode="W" horiz-adv-x="834" d="M836 630L683 1L553 -1L419 487L288 0H160L-1 630H160L278 125L406 630H532L670 132L784 630H836Z"  />
<glyph unicode="X" horiz-adv-x="483" d="M469 0H307L207 228L79 0H30L184 279L25 629H187L281 413L405 629H451L303 366L469 0Z"  />
<glyph unicode="Y" horiz-adv-x="485" d="M474 631L331 247L332 0H191V207L8 631H171L308 305L426 631H474Z"  />
<glyph unicode="Z" horiz-adv-x="489" d="M450 46L449 0H38V43L289 580L48 581V630H444V572L203 46H450Z"  />
<glyph unicode="[" horiz-adv-x="297" d="M251 704H154V-112H248V-156H60V749H251V704Z"  />
<glyph unicode="\" horiz-adv-x="413" d="M382 -20L289 -21L25 698H115L382 -20Z"  />
<glyph unicode="]" horiz-adv-x="301" d="M237 -156H49V-112H143V704H46V749H237V-156Z"  />
<glyph unicode="^" horiz-adv-x="490" d="M334 312L242 542L154 312H71L210 651H278L418 312H334Z"  />
<glyph unicode="_" horiz-adv-x="500" d="M0 -125V-75H500V-125H0Z"  />
<glyph unicode="`" horiz-adv-x="400" d="M280 592H207L113 695H218L280 592Z"  />
<glyph unicode="a" horiz-adv-x="469" d="M268 270Q206 247 183 223Q153 191 153 131Q153 54 193 54Q234 54 254 134Q262 161 265 189T268 246V270ZM271 0L269 96Q229 -7 132 -7Q83 -7 51 22Q18 52 18 100Q18 182 107 236Q124 247 164 262T268 301V323Q268 426 200 426Q149 426 55 362L38 387Q102 432 145 452Q205 479 266 479Q352 479 384 427Q407 386 407 292Q407 181 409 108T414 0H271Z"  />
<glyph unicode="b" horiz-adv-x="519" d="M367 212Q367 271 352 319Q328 388 282 388Q234 388 210 319Q195 272 195 210Q195 149 211 102Q233 31 281 31Q328 31 352 103Q367 151 367 212ZM494 267Q494 146 426 68Q354 -17 238 -17Q112 -17 74 90Q54 147 54 304V695H193V354Q244 482 340 482Q420 482 461 411Q494 354 494 267Z"  />
<glyph unicode="c" horiz-adv-x="410" d="M420 48Q371 14 344 3Q306 -13 257 -13Q146 -13 83 57Q25 124 25 237Q25 339 80 407Q138 480 238 480Q294 480 331 457Q367 434 393 384L270 324Q261 376 253 396Q235 440 201 440Q153 440 153 353Q153 48 337 48Q367 48 407 71L420 48Z"  />
<glyph unicode="d" horiz-adv-x="551" d="M339 196Q339 269 311 343Q273 439 213 439Q156 439 156 333Q156 255 180 173Q211 58 270 58Q306 58 325 113Q339 155 339 196ZM478 0H337V67Q284 -14 213 -14Q124 -14 75 65Q34 132 34 226Q34 323 78 394Q130 478 221 478Q263 478 292 458Q314 442 342 404V694H478V0Z"  />
<glyph unicode="e" horiz-adv-x="455" d="M268 283V295Q268 440 201 440Q152 440 152 337Q152 320 155 283H268ZM419 48Q396 31 377 20T343 2Q304 -13 256 -13Q144 -13 83 57Q24 123 24 237Q24 339 79 407Q137 480 237 480Q323 480 368 423Q409 373 409 283Q409 280 409 272T407 250H159Q170 164 208 111Q256 48 335 48Q369 48 406 71L419 48Z"  />
<glyph unicode="f" horiz-adv-x="309" d="M315 601Q278 660 238 660Q186 660 186 559Q186 563 189 467H340V423H190V0H51L52 423H0V467H53V512Q53 604 104 655Q156 706 248 706Q311 706 381 671L315 601Z"  />
<glyph unicode="g" horiz-adv-x="549" d="M337 196Q337 267 308 343Q270 439 210 439Q153 439 153 333Q153 257 176 173Q209 58 267 58Q303 58 323 112Q337 154 337 196ZM476 24Q476 -114 423 -165Q354 -231 202 -231Q102 -231 26 -196L110 -90Q178 -182 245 -182Q304 -182 324 -125Q330 -109 332 -83T335 -19V68Q280 -17 203 -17Q118 -17 70 65Q30 132 30 224Q30 321 75 392Q126 476 218 476Q263 476 289 459Q311 445 340 405V467H476V24Z"  />
<glyph unicode="h" horiz-adv-x="550" d="M483 0H343L344 316Q344 383 313 383Q263 383 224 276Q201 211 195 140Q194 124 194 89T193 0H54V692H193V266Q215 348 266 410Q326 482 403 482Q484 482 484 352Q484 347 484 339T483 321V294V0Z"  />
<glyph unicode="i" horiz-adv-x="263" d="M196 0H57L58 467H196V0ZM192 578L62 577V694H192V578Z"  />
<glyph unicode="j" horiz-adv-x="266" d="M205 -1Q205 -34 204 -57T201 -95Q193 -149 167 -181T92 -232Q48 -250 3 -250Q-43 -250 -104 -231L-77 -188Q-51 -204 -34 -204Q24 -204 50 -154Q65 -126 67 -80Q66 -104 66 -85T66 -2L67 467H205V-1ZM200 578L70 577V694H200V578Z"  />
<glyph unicode="k" horiz-adv-x="485" d="M480 0H316L202 199L201 0H65L66 694H201V261L400 467L462 465L300 292L480 0Z"  />
<glyph unicode="l" horiz-adv-x="263" d="M197 -1L59 0L60 694H196L197 -1Z"  />
<glyph unicode="m" horiz-adv-x="843" d="M776 0H636L637 316Q637 382 607 382Q557 382 518 275Q506 243 499 209T489 139Q486 106 486 0H346V316Q346 382 316 382Q266 382 227 275Q204 210 198 139Q197 123 197 89T196 0H57V467H196V266Q207 308 225 343T269 409Q329 481 405 481Q461 481 479 435Q488 409 488 338Q488 327 488 310T486 266Q497 308 515 343T559 409Q619 481 695 481Q777 481 777 352Q777 346 777 339T776 322V295V0Z"  />
<glyph unicode="n" horiz-adv-x="555" d="M486 0H346L347 316Q347 383 316 383Q266 383 227 276Q204 211 198 140Q197 124 197 89T196 0H57V467H196V266Q218 348 269 410Q330 482 406 482Q487 482 487 352Q487 347 487 339T486 321V294V0Z"  />
<glyph unicode="o" horiz-adv-x="493" d="M339 122Q339 201 302 309Q257 444 200 444Q152 444 152 354Q152 277 188 166Q233 30 291 30Q339 30 339 122ZM462 226Q462 123 408 59Q351 -10 250 -10Q146 -10 84 64Q27 133 27 240Q27 344 78 407Q133 477 234 477Q357 477 417 388Q462 320 462 226Z"  />
<glyph unicode="p" horiz-adv-x="549" d="M388 134Q388 210 365 294Q332 409 274 409Q238 409 219 354Q205 312 205 271Q205 197 233 125Q270 28 331 28Q388 28 388 134ZM510 241Q510 144 466 73Q413 -11 323 -11Q281 -11 252 9Q230 25 202 63V-228H66V467H207V400Q259 481 331 481Q420 481 469 402Q510 334 510 241Z"  />
<glyph unicode="q" horiz-adv-x="526" d="M325 256Q325 316 309 364Q287 434 239 434Q192 434 168 363Q153 315 153 254Q153 195 168 147Q192 79 238 79Q286 79 310 148Q325 194 325 256ZM466 -230H327V112Q276 -16 180 -16Q99 -16 59 54Q26 112 26 198Q26 319 94 397Q166 482 282 482Q408 482 446 375Q466 318 466 162V-230Z"  />
<glyph unicode="r" horiz-adv-x="371" d="M333 338Q313 354 295 354Q195 354 195 62Q195 64 195 48T196 0H56V467H196L195 269Q216 363 234 401Q271 479 335 479Q366 479 403 453L333 338Z"  />
<glyph unicode="s" horiz-adv-x="370" d="M349 139Q349 66 284 23Q228 -16 152 -16Q78 -16 15 8L73 97Q149 28 196 28Q216 28 231 40Q248 51 248 71Q248 101 191 143Q142 178 116 198T85 222Q28 276 28 332Q28 403 82 444Q129 481 205 481Q279 481 328 456L274 367Q194 436 151 436Q114 436 114 408Q114 379 175 333L288 247Q349 190 349 139Z"  />
<glyph unicode="t" horiz-adv-x="341" d="M376 52Q310 -14 225 -14Q159 -14 117 23Q75 62 75 129V422H19V467L27 466L61 475Q140 496 156 573H214V467H363V423H214V191Q214 125 225 94Q243 43 300 43Q332 43 358 69L376 52Z"  />
<glyph unicode="u" horiz-adv-x="551" d="M483 -1H344V200Q322 118 271 56Q211 -16 134 -16Q53 -16 53 114Q53 119 53 126T54 144V171V466H194L193 150Q193 83 224 83Q274 83 313 190Q336 253 342 326Q343 343 343 377T344 466H483V-1Z"  />
<glyph unicode="v" horiz-adv-x="413" d="M410 467L268 0H147L5 467L158 468L258 131L358 467H410Z"  />
<glyph unicode="w" horiz-adv-x="681" d="M681 466L553 0H439L348 305L252 0H133L6 467H158L244 132L340 466L451 468L544 144L629 466H681Z"  />
<glyph unicode="x" horiz-adv-x="418" d="M418 0H261L171 167L60 0H1L145 212L2 467H159L234 329L328 467H387L260 281L418 0Z"  />
<glyph unicode="y" horiz-adv-x="430" d="M430 466L161 -227H109L197 1L3 467H157L268 187L376 466H430Z"  />
<glyph unicode="z" horiz-adv-x="442" d="M408 0H26V40L242 422L35 421V467H405V423L193 46L407 47L408 0Z"  />
<glyph unicode="{" horiz-adv-x="362" d="M325 -196H215Q167 -196 139 -154Q113 -116 113 -67V104Q113 236 32 245V286Q113 295 113 421V593Q113 642 139 680Q167 722 215 722H325V681H281Q235 681 235 599V405Q235 361 212 321Q188 279 147 265V263Q188 247 213 206Q235 168 235 120V-74Q235 -156 281 -156H325V-196Z"  />
<glyph unicode="|" horiz-adv-x="222" d="M56 -144V856H165V-144H56Z"  />
<glyph unicode="}" horiz-adv-x="384" d="M339 245Q258 236 258 104V-67Q258 -118 232 -154Q203 -196 156 -196H46V-156H90Q136 -156 136 -74V120Q136 144 141 165T158 206Q182 245 224 263V265Q183 279 159 321Q136 361 136 405V599Q136 681 90 681H46V722H156Q203 722 232 680Q258 644 258 593V421Q258 295 339 286V245Z"  />
<glyph unicode="~" horiz-adv-x="490" d="M457 348Q452 287 426 252T346 217Q319 217 292 225T238 244T186 262T139 271Q119 271 108 254T92 214H33Q36 243 43 267T64 309T96 336T142 346Q169 346 196 338T249 319T301 301T351 292Q372 292 383 308T398 348H457H457Z"  />
<glyph unicode="&#xA0;" horiz-adv-x="245" />
<glyph unicode="&#xA1;" horiz-adv-x="257" d="M200 -146H61L78 341H180L200 -146ZM193 432H66V548H193V432Z"  />
<glyph unicode="&#xA2;" horiz-adv-x="490" d="M240 438Q235 439 233 439T229 440Q181 440 181 327Q181 259 193 214Q205 164 240 111V438ZM449 48Q402 14 373 2Q335 -13 286 -13Q284 -13 282 -13T275 -12H263V-60L240 -59V-9Q54 36 54 237Q54 330 99 395Q149 464 236 477L240 478V521H263V479Q271 480 277 480T288 481Q369 481 423 383L299 324Q295 347 293 360T288 379Q278 413 263 427V85Q304 48 366 48Q398 48 436 71L449 48Z"  />
<glyph unicode="&#xA3;" horiz-adv-x="490" d="M497 110Q462 50 441 26Q400 -19 356 -19Q320 -19 250 10Q184 40 146 40Q96 40 58 -15L37 -4Q43 40 74 80Q90 100 108 113T147 133Q152 156 152 162Q152 211 115 286H30V327H98Q66 405 66 450Q66 537 125 598Q186 658 273 658Q390 658 444 561L333 505Q283 606 219 606Q155 606 155 546Q155 509 187 434Q189 429 201 403T237 328H387V286H249Q252 269 252 266Q252 232 232 199Q227 191 217 177T191 142Q233 142 307 115Q380 89 423 89Q443 89 469 124L497 110Z"  />
<glyph unicode="&#xA4;" horiz-adv-x="490" d="M245 400Q224 400 206 392T174 370T153 338T145 298Q145 276 153 258T174 226T206 204T245 196Q266 196 284 204T316 227T337 259T345 298Q345 319 337 337T316 370T284 392T245 400ZM34 147L88 201Q73 225 67 249T60 298Q60 323 66 347T88 395L34 449L93 508L146 455Q172 472 195 477T245 482Q271 482 294 476T342 454L396 508L453 448L401 395Q429 350 429 297Q429 272 423 250T401 201L455 147L396 88L341 142Q315 126 292 120T245 114Q218 114 195 120T148 142L94 88L34 147Z"  />
<glyph unicode="&#xA5;" horiz-adv-x="490" d="M471 631L350 303H446V257H333Q329 251 329 183H446V136H330V0H190L189 137H47V184H189V205L167 256H47V302H147L6 631H169L305 305L424 631H471Z"  />
<glyph unicode="&#xA6;" horiz-adv-x="222" d="M56 481V731H165V481H56ZM56 -19V231H165V-19H56Z"  />
<glyph unicode="&#xA7;" horiz-adv-x="408" d="M272 296Q272 320 234 350L146 419Q116 396 116 378Q116 354 174 308Q191 294 208 281T243 255Q272 278 272 296ZM372 97Q372 26 308 -16Q252 -52 178 -52Q145 -52 112 -45T43 -24L97 59Q166 -10 219 -10Q239 -10 256 0Q275 12 275 32Q275 61 212 106Q158 147 129 168T96 193Q33 248 33 302Q33 338 51 374Q70 412 99 430L115 442Q113 447 110 448Q90 466 78 479T60 500Q39 530 39 568Q39 635 91 676Q140 711 209 711Q254 711 329 681L280 599Q200 668 157 668Q122 668 122 641Q122 613 186 563L305 471Q369 413 369 362Q369 318 343 284Q335 273 319 260T279 229Q305 206 320 192T340 171Q372 133 372 97Z"  />
<glyph unicode="&#xA8;" horiz-adv-x="400" d="M164 592H51V696H164V592ZM349 592H236V696H349V592Z"  />
<glyph unicode="&#xA9;" horiz-adv-x="750" d="M539 170Q506 141 471 124T385 106Q340 106 303 120T238 162T196 229T181 317Q181 366 198 405T245 473T314 516T397 531Q431 531 463 520T530 484L451 417Q428 458 410 471T371 484Q345 484 326 459T306 370Q306 273 338 218T428 162Q449 162 467 171T506 198L539 170ZM47 315Q47 383 72 443T142 547T247 618T375 644Q443 644 503 618T607 548T677 443T703 315Q703 247 678 187T608 83T503 13T375 -13Q307 -13 247 12T143 82T73 187T47 315ZM116 314Q116 259 136 211T191 127T273 70T375 49Q430 49 477 70T559 127T614 211T634 314Q634 369 614 417T559 502T477 559T375 580Q320 580 273 559T191 502T136 418T116 314Z"  />
<glyph unicode="&#xAA;" horiz-adv-x="335" d="M199 480Q156 464 140 446Q119 423 119 382Q119 328 147 328Q174 328 189 383Q199 420 199 463V480ZM201 290V357Q172 285 104 285Q69 285 47 306Q24 326 24 360Q24 417 87 455Q98 462 126 473T200 501V516Q200 588 152 588Q115 588 51 543L38 561Q127 625 199 625Q260 625 281 588Q297 562 297 495Q297 418 298 367T302 290H201Z"  />
<glyph unicode="&#xAB;" horiz-adv-x="457" d="M242 116H124L23 283L132 467H237L133 298L242 116ZM424 116H306L205 283L314 467H419L315 298L424 116Z"  />
<glyph unicode="&#xAC;" horiz-adv-x="490" d="M370 156V321H41V397H448V156H370Z"  />
<glyph unicode="&#xAD;" horiz-adv-x="342" d="M259 270H76V332H259V270Z"  />
<glyph unicode="&#xAE;" horiz-adv-x="500" d="M285 489Q285 512 274 523T235 535H222V451H236Q261 451 273 462T285 489ZM349 328H272L232 423H222V328H159V561H256Q275 561 291 558T320 548T340 527T347 492Q347 469 335 453T295 429L349 328ZM47 442Q47 484 62 521T105 585T170 628T250 644Q293 644 330 628T394 585T437 521T453 442Q453 400 438 364T395 300T330 257T250 241Q207 241 170 257T106 300T63 363T47 442ZM96 442Q96 410 107 382T140 332T189 299T250 286Q283 286 311 298T360 332T392 381T404 442Q404 474 393 502T361 552T312 585T250 598Q217 598 189 586T140 552T108 503T96 442Z"  />
<glyph unicode="&#xAF;" horiz-adv-x="400" d="M332 605H68V679H332V605Z"  />
<glyph unicode="&#xB0;" horiz-adv-x="245" d="M251 503Q251 477 241 454T214 413T173 385T123 375Q97 375 74 385T33 412T5 453T-5 503Q-5 529 5 552T32 592T73 620T123 630Q149 630 172 620T213 593T241 552T251 503ZM183 503Q183 528 166 545T123 563Q98 563 81 546T63 503Q63 477 80 460T123 442Q148 442 165 459T183 503Z"  />
<glyph unicode="&#xB1;" horiz-adv-x="490" d="M284 288V160H204V288H41V363H204V492H284V363H448V288H284ZM41 61V135H448V61H41Z"  />
<glyph unicode="&#xB2;" horiz-adv-x="292" d="M224 315H27V342Q87 384 114 420Q153 469 153 528Q153 551 144 569Q130 590 110 590Q82 590 46 555L33 564Q84 624 138 624Q176 624 198 604T221 547Q221 499 177 445Q153 415 96 365H224V315Z"  />
<glyph unicode="&#xB3;" horiz-adv-x="316" d="M223 416Q223 316 37 286L34 302Q89 311 116 330Q150 355 150 406Q150 465 101 465Q97 465 93 465T83 463V482Q136 484 136 540Q136 588 95 588Q66 588 35 555L23 566Q74 622 127 622Q157 622 180 605Q204 587 204 557Q204 507 133 484Q175 481 196 470Q223 453 223 416Z"  />
<glyph unicode="&#xB4;" horiz-adv-x="400" d="M287 695L193 592H120L182 695H287Z"  />
<glyph unicode="&#xB5;" horiz-adv-x="533" d="M358 0V34Q338 14 317 5T269 -5Q241 -5 220 3T180 33V-170H66V468H180V206Q180 156 201 124T268 91Q310 91 331 122T353 206V468H467V0H358Z"  />
<glyph unicode="&#xB6;" horiz-adv-x="528" d="M273 -123H211V275Q124 282 74 332T24 461Q24 501 37 532T74 585T131 618T203 630H460V-123H320V590H273V-123Z"  />
<glyph unicode="&#xB7;" horiz-adv-x="168" d="M140 323Q140 300 123 283Q107 267 83 267Q60 267 43 284Q27 300 27 323Q27 346 44 363Q61 380 84 380Q106 380 123 363Q140 346 140 323Z"  />
<glyph unicode="&#xB8;" horiz-adv-x="400" d="M294 -107Q294 -153 257 -178T154 -203Q128 -203 106 -198L114 -157Q119 -159 129 -160T148 -161Q178 -161 198 -149T219 -120Q219 -106 210 -99T187 -91Q169 -91 147 -102L123 -82L159 12H197L177 -50Q190 -45 202 -43T223 -40Q256 -40 275 -58T294 -107Z"  />
<glyph unicode="&#xB9;" horiz-adv-x="243" d="M170 315H101V562L19 518L9 536L170 625V315Z"  />
<glyph unicode="&#xBA;" horiz-adv-x="370" d="M251 383Q251 436 225 514Q194 608 153 608Q119 608 119 545Q119 492 146 414Q178 319 218 319Q251 319 251 383ZM338 456Q338 385 300 339Q259 291 189 291Q116 291 73 342Q33 391 33 465Q33 537 69 582Q108 631 178 631Q254 631 298 582Q338 535 338 456Z"  />
<glyph unicode="&#xBB;" horiz-adv-x="456" d="M249 299L141 115H35L139 285L30 467H149L249 299ZM431 299L322 115H217L321 285L212 467H330L431 299Z"  />
<glyph unicode="&#xBC;" horiz-adv-x="561" d="M432 258L343 113H431L432 258ZM170 315H101V562L19 518L9 536L170 625V315ZM458 605L158 0H93L396 605H458ZM543 80H500V1H431L432 80H311V103L435 303H501V113H543V80Z"  />
<glyph unicode="&#xBD;" horiz-adv-x="561" d="M170 315H101V562L19 518L9 536L170 625V315ZM453 605L154 0H89L391 605H453ZM533 1H336V27Q396 70 423 105Q462 156 462 213Q462 237 453 254Q440 276 419 276Q391 276 354 240L342 250Q393 310 447 310Q484 310 507 290Q530 269 530 232Q530 184 486 131Q474 117 454 97T405 50H533V1Z"  />
<glyph unicode="&#xBE;" horiz-adv-x="561" d="M432 258L343 113H431L432 258ZM223 416Q223 316 37 286L34 302Q89 311 116 330Q150 355 150 406Q150 465 101 465Q97 465 93 465T83 463V482Q136 484 136 540Q136 588 95 588Q66 588 35 555L23 566Q74 622 127 622Q157 622 180 605Q204 587 204 557Q204 507 133 484Q175 481 196 470Q223 453 223 416ZM543 80H500V1H431L432 80H311V103L435 303H501V113H543V80ZM466 605L167 0H103L404 605H466Z"  />
<glyph unicode="&#xBF;" horiz-adv-x="417" d="M385 -42Q310 -163 189 -163Q116 -163 69 -125Q19 -83 19 -11Q19 127 248 338L280 314Q215 233 187 179Q149 101 149 22Q149 -96 240 -96Q305 -96 359 -23L385 -42ZM295 429H168V545H295V429Z"  />
<glyph unicode="&#xC0;" horiz-adv-x="522" d="M292 219L204 502L125 219H292ZM517 0H360L305 177H112L62 0H10L195 631H318L517 0ZM323 671H250L156 774H261L323 671Z"  />
<glyph unicode="&#xC1;" horiz-adv-x="522" d="M292 219L204 502L125 219H292ZM517 0H360L305 177H112L62 0H10L195 631H318L517 0ZM351 774L257 671H184L246 774H351Z"  />
<glyph unicode="&#xC2;" horiz-adv-x="522" d="M292 219L204 502L125 219H292ZM517 0H360L305 177H112L62 0H10L195 631H318L517 0ZM397 671H325L256 746L187 671H115L178 766H334L397 671Z"  />
<glyph unicode="&#xC3;" horiz-adv-x="522" d="M292 219L204 502L125 219H292ZM517 0H360L305 177H112L62 0H10L195 631H318L517 0ZM396 766Q386 738 377 720T357 691T336 676T309 671Q300 671 282 677T244 692T207 706T182 713Q158 713 142 674L116 687Q126 714 136 732T156 760T177 775T203 780Q212 780 230 774T267 760T303 746T330 739Q354 739 369 777L396 766Z"  />
<glyph unicode="&#xC4;" horiz-adv-x="522" d="M292 219L204 502L125 219H292ZM517 0H360L305 177H112L62 0H10L195 631H318L517 0ZM223 671H110V775H223V671ZM408 671H295V775H408V671Z"  />
<glyph unicode="&#xC5;" horiz-adv-x="522" d="M292 219L204 502L125 219H292ZM517 0H360L305 177H112L62 0H10L195 631H318L517 0ZM174 740Q174 772 198 795T254 818Q286 818 310 795T334 740Q334 708 310 685T254 662Q222 662 198 685T174 740ZM209 740Q209 721 222 708T254 695Q273 695 286 708T300 740Q300 759 287 772T254 786Q235 786 222 773T209 740Z"  />
<glyph unicode="&#xC6;" horiz-adv-x="740" d="M337 336L321 550L230 336H337ZM709 0H363L341 288H210L84 0H26L303 630H679V582H460L481 336H683V288H485L506 45H709V0Z"  />
<glyph unicode="&#xC7;" horiz-adv-x="535" d="M397 -107Q397 -153 360 -178T257 -203Q231 -203 209 -198L217 -157Q222 -159 232 -160T251 -161Q281 -161 301 -149T322 -120Q322 -106 313 -99T290 -91Q272 -91 250 -102L226 -82L254 -8Q158 7 102 77Q31 160 31 299Q31 450 105 544Q188 645 334 645Q418 645 505 609L433 491Q352 599 271 599Q155 599 155 419Q155 288 208 182Q272 46 389 46Q445 46 512 98L530 75Q475 28 430 8Q380 -13 312 -13Q307 -13 302 -13T292 -12L280 -50Q293 -45 305 -43T326 -40Q359 -40 378 -58T397 -107Z"  />
<glyph unicode="&#xC8;" horiz-adv-x="452" d="M421 45L420 0H59V629H408V582H199V349H396V300L199 301L200 45H421ZM309 671H236L142 774H247L309 671Z"  />
<glyph unicode="&#xC9;" horiz-adv-x="452" d="M421 45L420 0H59V629H408V582H199V349H396V300L199 301L200 45H421ZM340 774L246 671H173L235 774H340Z"  />
<glyph unicode="&#xCA;" horiz-adv-x="452" d="M421 45L420 0H59V629H408V582H199V349H396V300L199 301L200 45H421ZM380 671H308L239 746L170 671H98L161 766H317L380 671Z"  />
<glyph unicode="&#xCB;" horiz-adv-x="452" d="M421 45L420 0H59V629H408V582H199V349H396V300L199 301L200 45H421ZM202 671H89V775H202V671ZM387 671H274V775H387V671Z"  />
<glyph unicode="&#xCC;" horiz-adv-x="262" d="M197 629L196 0H55V629H197ZM190 671H117L23 774H128L190 671Z"  />
<glyph unicode="&#xCD;" horiz-adv-x="262" d="M197 629L196 0H55V629H197ZM230 774L136 671H63L125 774H230Z"  />
<glyph unicode="&#xCE;" horiz-adv-x="262" d="M197 629L196 0H55V629H197ZM270 671H198L129 746L60 671H-12L51 766H207L270 671Z"  />
<glyph unicode="&#xCF;" horiz-adv-x="262" d="M197 629L196 0H55V629H197ZM92 671H-21V775H92V671ZM277 671H164V775H277V671Z"  />
<glyph unicode="&#xD0;" horiz-adv-x="599" d="M425 304Q425 417 393 492Q348 594 249 594H196V414H354V366H196L195 37H252Q339 37 377 91Q425 160 425 304ZM567 333Q567 188 496 97Q418 0 276 0H55V366H-35V414H55V630L312 629Q442 629 507 543Q567 466 567 333Z"  />
<glyph unicode="&#xD1;" horiz-adv-x="559" d="M508 0H371L108 460V0H60V627H179L463 130V628H508V0ZM434 766Q424 738 415 720T395 691T374 676T347 671Q338 671 320 677T282 692T245 706T220 713Q196 713 180 674L154 687Q164 714 174 732T194 760T215 775T241 780Q250 780 268 774T305 760T341 746T368 739Q392 739 407 777L434 766Z"  />
<glyph unicode="&#xD2;" horiz-adv-x="613" d="M445 234Q445 267 442 299T431 364Q421 404 408 439T374 507Q321 593 258 593Q159 593 159 402Q159 297 204 188Q258 52 346 41H352Q445 38 445 234ZM570 317Q570 178 507 90Q435 -9 302 -9Q166 -9 94 95Q32 186 32 327Q32 458 100 546Q173 642 303 642Q432 642 505 542Q570 451 570 317ZM351 671H278L184 774H289L351 671Z"  />
<glyph unicode="&#xD3;" horiz-adv-x="613" d="M445 234Q445 267 442 299T431 364Q421 404 408 439T374 507Q321 593 258 593Q159 593 159 402Q159 297 204 188Q258 52 346 41H352Q445 38 445 234ZM570 317Q570 178 507 90Q435 -9 302 -9Q166 -9 94 95Q32 186 32 327Q32 458 100 546Q173 642 303 642Q432 642 505 542Q570 451 570 317ZM403 774L309 671H236L298 774H403Z"  />
<glyph unicode="&#xD4;" horiz-adv-x="613" d="M445 234Q445 267 442 299T431 364Q421 404 408 439T374 507Q321 593 258 593Q159 593 159 402Q159 297 204 188Q258 52 346 41H352Q445 38 445 234ZM570 317Q570 178 507 90Q435 -9 302 -9Q166 -9 94 95Q32 186 32 327Q32 458 100 546Q173 642 303 642Q432 642 505 542Q570 451 570 317ZM445 671H373L304 746L235 671H163L226 766H382L445 671Z"  />
<glyph unicode="&#xD5;" horiz-adv-x="613" d="M445 234Q445 267 442 299T431 364Q421 404 408 439T374 507Q321 593 258 593Q159 593 159 402Q159 297 204 188Q258 52 346 41H352Q445 38 445 234ZM570 317Q570 178 507 90Q435 -9 302 -9Q166 -9 94 95Q32 186 32 327Q32 458 100 546Q173 642 303 642Q432 642 505 542Q570 451 570 317ZM445 766Q435 738 426 720T406 691T385 676T358 671Q349 671 331 677T293 692T256 706T231 713Q207 713 191 674L165 687Q175 714 185 732T205 760T226 775T252 780Q261 780 279 774T316 760T352 746T379 739Q403 739 418 777L445 766Z"  />
<glyph unicode="&#xD6;" horiz-adv-x="613" d="M445 234Q445 267 442 299T431 364Q421 404 408 439T374 507Q321 593 258 593Q159 593 159 402Q159 297 204 188Q258 52 346 41H352Q445 38 445 234ZM570 317Q570 178 507 90Q435 -9 302 -9Q166 -9 94 95Q32 186 32 327Q32 458 100 546Q173 642 303 642Q432 642 505 542Q570 451 570 317ZM267 671H154V775H267V671ZM452 671H339V775H452V671Z"  />
<glyph unicode="&#xD7;" horiz-adv-x="490" d="M387 83L244 225L101 83L46 138L188 281L46 424L101 480L244 337L387 480L443 424L300 281L443 138L387 83Z"  />
<glyph unicode="&#xD8;" horiz-adv-x="613" d="M442 231Q442 354 408 432L222 146Q273 41 349 41Q442 41 442 231ZM385 485Q326 593 252 593Q156 593 156 402Q156 317 197 198L385 485ZM568 319Q568 178 505 91Q435 -9 300 -9Q214 -9 151 36L127 0H68L114 69Q30 165 30 326Q30 461 97 547Q170 643 301 643Q398 643 454 592L480 633H537L490 558Q568 484 568 319Z"  />
<glyph unicode="&#xD9;" horiz-adv-x="579" d="M529 184Q529 89 461 38Q401 -7 302 -7Q179 -7 121 42Q58 96 58 215V630H198V217Q198 158 206 131Q218 92 260 65Q298 40 342 40Q405 40 446 79Q486 116 486 181V630L529 629V184ZM391 671H318L224 774H329L391 671Z"  />
<glyph unicode="&#xDA;" horiz-adv-x="579" d="M529 184Q529 89 461 38Q401 -7 302 -7Q179 -7 121 42Q58 96 58 215V630H198V217Q198 158 206 131Q218 92 260 65Q298 40 342 40Q405 40 446 79Q486 116 486 181V630L529 629V184ZM423 774L329 671H256L318 774H423Z"  />
<glyph unicode="&#xDB;" horiz-adv-x="579" d="M529 184Q529 89 461 38Q401 -7 302 -7Q179 -7 121 42Q58 96 58 215V630H198V217Q198 158 206 131Q218 92 260 65Q298 40 342 40Q405 40 446 79Q486 116 486 181V630L529 629V184ZM460 671H388L319 746L250 671H178L241 766H397L460 671Z"  />
<glyph unicode="&#xDC;" horiz-adv-x="579" d="M529 184Q529 89 461 38Q401 -7 302 -7Q179 -7 121 42Q58 96 58 215V630H198V217Q198 158 206 131Q218 92 260 65Q298 40 342 40Q405 40 446 79Q486 116 486 181V630L529 629V184ZM275 671H162V775H275V671ZM460 671H347V775H460V671Z"  />
<glyph unicode="&#xDD;" horiz-adv-x="485" d="M474 631L331 247L332 0H191V207L8 631H171L308 305L426 631H474ZM382 774L288 671H215L277 774H382Z"  />
<glyph unicode="&#xDE;" horiz-adv-x="505" d="M361 434Q361 497 332 541Q297 590 237 590H199V324Q240 313 248 313Q298 313 331 349Q361 383 361 434ZM495 463Q495 275 236 275H217Q211 276 207 276T198 276L199 0H59V689H199V633Q344 633 395 616Q495 583 495 463Z"  />
<glyph unicode="&#xDF;" horiz-adv-x="588" d="M552 145Q552 71 491 27Q438 -10 359 -10Q264 -10 218 11L276 100Q351 31 399 31Q418 31 435 43Q451 55 451 74Q451 98 411 129L306 210Q267 239 251 263Q231 294 231 335Q231 441 348 482Q371 490 377 506Q379 512 380 522T381 546Q381 596 353 636Q322 679 273 679Q236 679 210 647Q187 616 187 578V0H49V465Q49 569 72 615Q126 721 278 721Q371 721 429 681Q498 634 498 547Q498 512 475 466Q440 462 418 460T384 454Q322 439 322 401Q322 379 369 344L476 261Q495 246 508 234T529 212Q552 181 552 145Z"  />
<glyph unicode="&#xE0;" horiz-adv-x="469" d="M268 270Q206 247 183 223Q153 191 153 131Q153 54 193 54Q234 54 254 134Q262 161 265 189T268 246V270ZM271 0L269 96Q229 -7 132 -7Q83 -7 51 22Q18 52 18 100Q18 182 107 236Q124 247 164 262T268 301V323Q268 426 200 426Q149 426 55 362L38 387Q102 432 145 452Q205 479 266 479Q352 479 384 427Q407 386 407 292Q407 181 409 108T414 0H271ZM320 592H247L153 695H258L320 592Z"  />
<glyph unicode="&#xE1;" horiz-adv-x="469" d="M268 270Q206 247 183 223Q153 191 153 131Q153 54 193 54Q234 54 254 134Q262 161 265 189T268 246V270ZM271 0L269 96Q229 -7 132 -7Q83 -7 51 22Q18 52 18 100Q18 182 107 236Q124 247 164 262T268 301V323Q268 426 200 426Q149 426 55 362L38 387Q102 432 145 452Q205 479 266 479Q352 479 384 427Q407 386 407 292Q407 181 409 108T414 0H271ZM351 695L257 592H184L246 695H351Z"  />
<glyph unicode="&#xE2;" horiz-adv-x="469" d="M268 270Q206 247 183 223Q153 191 153 131Q153 54 193 54Q234 54 254 134Q262 161 265 189T268 246V270ZM271 0L269 96Q229 -7 132 -7Q83 -7 51 22Q18 52 18 100Q18 182 107 236Q124 247 164 262T268 301V323Q268 426 200 426Q149 426 55 362L38 387Q102 432 145 452Q205 479 266 479Q352 479 384 427Q407 386 407 292Q407 181 409 108T414 0H271ZM371 592H299L230 667L161 592H89L152 687H308L371 592Z"  />
<glyph unicode="&#xE3;" horiz-adv-x="469" d="M268 270Q206 247 183 223Q153 191 153 131Q153 54 193 54Q234 54 254 134Q262 161 265 189T268 246V270ZM271 0L269 96Q229 -7 132 -7Q83 -7 51 22Q18 52 18 100Q18 182 107 236Q124 247 164 262T268 301V323Q268 426 200 426Q149 426 55 362L38 387Q102 432 145 452Q205 479 266 479Q352 479 384 427Q407 386 407 292Q407 181 409 108T414 0H271ZM370 687Q359 659 350 641T331 612T310 597T283 592Q274 592 256 598T218 613T181 627T156 634Q132 634 116 595L90 608Q100 635 110 653T130 681T151 696T177 701Q186 701 204 695T241 681T277 667T304 660Q328 660 343 698L370 687Z"  />
<glyph unicode="&#xE4;" horiz-adv-x="469" d="M268 270Q206 247 183 223Q153 191 153 131Q153 54 193 54Q234 54 254 134Q262 161 265 189T268 246V270ZM271 0L269 96Q229 -7 132 -7Q83 -7 51 22Q18 52 18 100Q18 182 107 236Q124 247 164 262T268 301V323Q268 426 200 426Q149 426 55 362L38 387Q102 432 145 452Q205 479 266 479Q352 479 384 427Q407 386 407 292Q407 181 409 108T414 0H271ZM198 592H85V696H198V592ZM383 592H270V696H383V592Z"  />
<glyph unicode="&#xE5;" horiz-adv-x="469" d="M268 270Q206 247 183 223Q153 191 153 131Q153 54 193 54Q234 54 254 134Q262 161 265 189T268 246V270ZM271 0L269 96Q229 -7 132 -7Q83 -7 51 22Q18 52 18 100Q18 182 107 236Q124 247 164 262T268 301V323Q268 426 200 426Q149 426 55 362L38 387Q102 432 145 452Q205 479 266 479Q352 479 384 427Q407 386 407 292Q407 181 409 108T414 0H271ZM159 650Q159 682 183 705T239 728Q271 728 295 705T319 650Q319 618 295 595T239 572Q207 572 183 595T159 650ZM194 650Q194 631 207 618T239 605Q258 605 271 618T285 650Q285 669 272 682T239 696Q220 696 207 683T194 650Z"  />
<glyph unicode="&#xE6;" horiz-adv-x="704" d="M270 222Q214 209 189 190Q155 164 155 114Q155 88 165 71Q175 47 198 47Q246 47 263 116Q270 147 270 222ZM516 319Q511 441 450 441Q402 441 402 359V289L516 319ZM669 50Q620 16 593 5Q555 -11 506 -11Q379 -11 317 81Q290 38 241 12Q192 -13 140 -13Q19 -13 19 86Q19 164 111 208Q147 224 270 256V323Q270 426 202 426Q153 426 57 362L40 387Q72 410 98 426T147 452Q207 479 268 479Q342 479 366 443Q429 482 486 482Q639 482 656 321L409 257Q417 170 457 115Q504 50 585 50Q619 50 656 72L669 50Z"  />
<glyph unicode="&#xE7;" horiz-adv-x="410" d="M356 -107Q356 -153 319 -178T216 -203Q190 -203 168 -198L176 -157Q181 -159 191 -160T210 -161Q240 -161 260 -149T281 -120Q281 -106 272 -99T249 -91Q231 -91 209 -102L185 -82L212 -10Q132 2 83 57Q25 124 25 237Q25 339 80 407Q138 480 238 480Q294 480 331 457Q367 434 393 384L270 324Q261 376 253 396Q235 440 201 440Q153 440 153 353Q153 48 337 48Q367 48 407 71L420 48Q371 14 344 3Q306 -13 257 -13H251L239 -50Q252 -45 264 -43T285 -40Q318 -40 337 -58T356 -107Z"  />
<glyph unicode="&#xE8;" horiz-adv-x="455" d="M268 283V295Q268 440 201 440Q152 440 152 337Q152 320 155 283H268ZM419 48Q396 31 377 20T343 2Q304 -13 256 -13Q144 -13 83 57Q24 123 24 237Q24 339 79 407Q137 480 237 480Q323 480 368 423Q409 373 409 283Q409 280 409 272T407 250H159Q170 164 208 111Q256 48 335 48Q369 48 406 71L419 48ZM302 592H229L135 695H240L302 592Z"  />
<glyph unicode="&#xE9;" horiz-adv-x="455" d="M268 283V295Q268 440 201 440Q152 440 152 337Q152 320 155 283H268ZM419 48Q396 31 377 20T343 2Q304 -13 256 -13Q144 -13 83 57Q24 123 24 237Q24 339 79 407Q137 480 237 480Q323 480 368 423Q409 373 409 283Q409 280 409 272T407 250H159Q170 164 208 111Q256 48 335 48Q369 48 406 71L419 48ZM335 695L241 592H168L230 695H335Z"  />
<glyph unicode="&#xEA;" horiz-adv-x="455" d="M268 283V295Q268 440 201 440Q152 440 152 337Q152 320 155 283H268ZM419 48Q396 31 377 20T343 2Q304 -13 256 -13Q144 -13 83 57Q24 123 24 237Q24 339 79 407Q137 480 237 480Q323 480 368 423Q409 373 409 283Q409 280 409 272T407 250H159Q170 164 208 111Q256 48 335 48Q369 48 406 71L419 48ZM377 592H305L236 667L167 592H95L158 687H314L377 592Z"  />
<glyph unicode="&#xEB;" horiz-adv-x="455" d="M268 283V295Q268 440 201 440Q152 440 152 337Q152 320 155 283H268ZM419 48Q396 31 377 20T343 2Q304 -13 256 -13Q144 -13 83 57Q24 123 24 237Q24 339 79 407Q137 480 237 480Q323 480 368 423Q409 373 409 283Q409 280 409 272T407 250H159Q170 164 208 111Q256 48 335 48Q369 48 406 71L419 48ZM200 592H87V696H200V592ZM385 592H272V696H385V592Z"  />
<glyph unicode="&#xEC;" horiz-adv-x="263" d="M196 0H57L58 467H196V0ZM201 592H128L34 695H139L201 592Z"  />
<glyph unicode="&#xED;" horiz-adv-x="263" d="M196 0H57L58 467H196V0ZM235 695L141 592H68L130 695H235Z"  />
<glyph unicode="&#xEE;" horiz-adv-x="263" d="M196 0H57L58 467H196V0ZM270 592H198L129 667L60 592H-12L51 687H207L270 592Z"  />
<glyph unicode="&#xEF;" horiz-adv-x="263" d="M196 0H57L58 467H196V0ZM93 592H-20V696H93V592ZM278 592H165V696H278V592Z"  />
<glyph unicode="&#xF0;" horiz-adv-x="568" d="M558 567H450Q532 461 532 313Q532 182 459 91Q381 -8 253 -8Q179 -8 134 56Q94 112 94 190Q94 279 137 349Q154 376 182 406T249 472L276 449Q222 389 222 307Q222 239 250 152Q286 39 338 44L344 45Q376 51 403 100Q422 134 422 204Q422 302 383 400Q343 498 273 567H45V615H217L93 699H295Q333 675 361 654T408 615H558V567Z"  />
<glyph unicode="&#xF1;" horiz-adv-x="555" d="M486 0H346L347 316Q347 383 316 383Q266 383 227 276Q204 211 198 140Q197 124 197 89T196 0H57V467H196V266Q218 348 269 410Q330 482 406 482Q487 482 487 352Q487 347 487 339T486 321V294V0ZM418 687Q407 659 398 641T379 612T358 597T331 592Q322 592 304 598T266 613T229 627T204 634Q180 634 164 595L138 608Q148 635 158 653T178 681T199 696T225 701Q234 701 252 695T289 681T325 667T352 660Q376 660 391 698L418 687Z"  />
<glyph unicode="&#xF2;" horiz-adv-x="493" d="M339 122Q339 201 302 309Q257 444 200 444Q152 444 152 354Q152 277 188 166Q233 30 291 30Q339 30 339 122ZM462 226Q462 123 408 59Q351 -10 250 -10Q146 -10 84 64Q27 133 27 240Q27 344 78 407Q133 477 234 477Q357 477 417 388Q462 320 462 226ZM293 592H220L126 695H231L293 592Z"  />
<glyph unicode="&#xF3;" horiz-adv-x="493" d="M339 122Q339 201 302 309Q257 444 200 444Q152 444 152 354Q152 277 188 166Q233 30 291 30Q339 30 339 122ZM462 226Q462 123 408 59Q351 -10 250 -10Q146 -10 84 64Q27 133 27 240Q27 344 78 407Q133 477 234 477Q357 477 417 388Q462 320 462 226ZM351 695L257 592H184L246 695H351Z"  />
<glyph unicode="&#xF4;" horiz-adv-x="493" d="M339 122Q339 201 302 309Q257 444 200 444Q152 444 152 354Q152 277 188 166Q233 30 291 30Q339 30 339 122ZM462 226Q462 123 408 59Q351 -10 250 -10Q146 -10 84 64Q27 133 27 240Q27 344 78 407Q133 477 234 477Q357 477 417 388Q462 320 462 226ZM385 592H313L244 667L175 592H103L166 687H322L385 592Z"  />
<glyph unicode="&#xF5;" horiz-adv-x="493" d="M339 122Q339 201 302 309Q257 444 200 444Q152 444 152 354Q152 277 188 166Q233 30 291 30Q339 30 339 122ZM462 226Q462 123 408 59Q351 -10 250 -10Q146 -10 84 64Q27 133 27 240Q27 344 78 407Q133 477 234 477Q357 477 417 388Q462 320 462 226ZM384 687Q373 659 364 641T345 612T324 597T297 592Q288 592 270 598T232 613T195 627T170 634Q146 634 130 595L104 608Q114 635 124 653T144 681T165 696T191 701Q200 701 218 695T255 681T291 667T318 660Q342 660 357 698L384 687Z"  />
<glyph unicode="&#xF6;" horiz-adv-x="493" d="M339 122Q339 201 302 309Q257 444 200 444Q152 444 152 354Q152 277 188 166Q233 30 291 30Q339 30 339 122ZM462 226Q462 123 408 59Q351 -10 250 -10Q146 -10 84 64Q27 133 27 240Q27 344 78 407Q133 477 234 477Q357 477 417 388Q462 320 462 226ZM208 592H95V696H208V592ZM393 592H280V696H393V592Z"  />
<glyph unicode="&#xF7;" horiz-adv-x="490" d="M300 421Q300 398 284 382T244 366Q221 366 205 381T188 421Q188 445 204 460T244 476Q267 476 283 461T300 421ZM41 244V318H448V244H41ZM300 141Q300 117 284 102T244 86Q221 86 205 101T188 141Q188 164 204 180T244 196Q267 196 283 181T300 141Z"  />
<glyph unicode="&#xF8;" horiz-adv-x="495" d="M340 122Q340 190 315 274L200 138Q239 30 290 30Q340 30 340 122ZM304 311L301 318Q274 379 265 396Q235 444 201 444Q153 444 153 355Q153 273 187 174L304 311ZM468 455L415 392Q463 309 463 227Q463 125 409 59Q352 -10 251 -10Q183 -10 116 34L112 36L73 -10L48 11L89 59Q28 132 28 243Q28 348 81 410Q136 477 239 477Q277 477 324 463Q379 446 395 418L445 475L468 455Z"  />
<glyph unicode="&#xF9;" horiz-adv-x="551" d="M483 -1H344V200Q322 118 271 56Q211 -16 134 -16Q53 -16 53 114Q53 119 53 126T54 144V171V466H194L193 150Q193 83 224 83Q274 83 313 190Q336 253 342 326Q343 343 343 377T344 466H483V-1ZM337 592H264L170 695H275L337 592Z"  />
<glyph unicode="&#xFA;" horiz-adv-x="551" d="M483 -1H344V200Q322 118 271 56Q211 -16 134 -16Q53 -16 53 114Q53 119 53 126T54 144V171V466H194L193 150Q193 83 224 83Q274 83 313 190Q336 253 342 326Q343 343 343 377T344 466H483V-1ZM380 695L286 592H213L275 695H380Z"  />
<glyph unicode="&#xFB;" horiz-adv-x="551" d="M483 -1H344V200Q322 118 271 56Q211 -16 134 -16Q53 -16 53 114Q53 119 53 126T54 144V171V466H194L193 150Q193 83 224 83Q274 83 313 190Q336 253 342 326Q343 343 343 377T344 466H483V-1ZM420 592H348L279 667L210 592H138L201 687H357L420 592Z"  />
<glyph unicode="&#xFC;" horiz-adv-x="551" d="M483 -1H344V200Q322 118 271 56Q211 -16 134 -16Q53 -16 53 114Q53 119 53 126T54 144V171V466H194L193 150Q193 83 224 83Q274 83 313 190Q336 253 342 326Q343 343 343 377T344 466H483V-1ZM243 592H130V696H243V592ZM428 592H315V696H428V592Z"  />
<glyph unicode="&#xFD;" horiz-adv-x="430" d="M430 466L161 -227H109L197 1L3 467H157L268 187L376 466H430ZM343 695L249 592H176L238 695H343Z"  />
<glyph unicode="&#xFE;" horiz-adv-x="549" d="M388 134Q388 210 365 294Q332 409 274 409Q238 409 219 354Q205 312 205 271Q205 197 233 125Q270 28 331 28Q388 28 388 134ZM510 241Q510 144 466 73Q413 -11 323 -11Q281 -11 252 9Q230 25 202 63V-228H66V694H208L207 400Q259 481 331 481Q420 481 469 402Q510 334 510 241Z"  />
<glyph unicode="&#xFF;" horiz-adv-x="430" d="M430 466L161 -227H109L197 1L3 467H157L268 187L376 466H430ZM192 592H79V696H192V592ZM377 592H264V696H377V592Z"  />
<glyph unicode="&#x131;" horiz-adv-x="263" d="M196 0H57L58 467H196V0Z"  />
<glyph unicode="&#x152;" horiz-adv-x="838" d="M447 233Q447 298 432 363Q423 403 409 439T374 507Q320 592 254 592Q152 592 152 401Q152 289 198 181Q253 43 345 40H351Q447 37 447 233ZM806 45L805 0H444L445 30Q371 -9 300 -9Q167 -9 94 91Q30 180 30 319Q30 465 104 553Q180 643 299 643Q391 643 445 598V629H793V582H582V349H781V300L582 301L583 45H806Z"  />
<glyph unicode="&#x153;" horiz-adv-x="760" d="M343 122Q343 199 306 309Q261 443 204 443Q155 443 155 353Q155 275 192 165Q237 30 295 30Q343 30 343 122ZM573 283V295Q573 346 561 384Q544 440 505 440Q456 440 456 337Q456 326 457 313T460 283H573ZM724 48Q676 15 647 2Q611 -13 561 -13Q460 -13 399 45Q348 -9 248 -9Q146 -9 85 66Q30 136 30 241Q30 349 82 410Q137 478 242 478Q327 478 399 420Q448 480 542 480Q628 480 672 423Q713 370 713 283Q713 274 713 266T712 250H464Q473 164 513 111Q561 48 640 48Q674 48 711 71L724 48Z"  />
<glyph unicode="&#x160;" horiz-adv-x="452" d="M420 183Q420 92 351 38Q288 -13 195 -13Q88 -13 31 26L117 140Q198 36 251 36Q283 36 309 54Q336 73 336 106Q336 140 265 202L136 314Q111 336 95 352T71 379Q46 414 46 466Q46 556 104 602Q157 645 250 645Q318 645 397 616L323 499Q239 597 184 597Q162 597 146 582Q130 567 130 546Q130 525 153 500L194 465L338 340Q420 268 420 183ZM374 766L311 671H155L92 766H164L234 691L302 766H374Z"  />
<glyph unicode="&#x161;" horiz-adv-x="370" d="M349 139Q349 66 284 23Q228 -16 152 -16Q78 -16 15 8L73 97Q149 28 196 28Q216 28 231 40Q248 51 248 71Q248 101 191 143Q142 178 116 198T85 222Q28 276 28 332Q28 403 82 444Q129 481 205 481Q279 481 328 456L274 367Q194 436 151 436Q114 436 114 408Q114 379 175 333L288 247Q349 190 349 139ZM331 687L268 592H112L49 687H121L191 612L259 687H331Z"  />
<glyph unicode="&#x178;" horiz-adv-x="485" d="M474 631L331 247L332 0H191V207L8 631H171L308 305L426 631H474ZM226 671H113V775H226V671ZM411 671H298V775H411V671Z"  />
<glyph unicode="&#x17D;" horiz-adv-x="489" d="M450 46L449 0H38V43L289 580L48 581V630H444V572L203 46H450ZM391 766L328 671H172L109 766H181L251 691L319 766H391Z"  />
<glyph unicode="&#x17E;" horiz-adv-x="442" d="M408 0H26V40L242 422L35 421V467H405V423L193 46L407 47L408 0ZM365 687L302 592H146L83 687H155L225 612L293 687H365Z"  />
<glyph unicode="&#x192;" horiz-adv-x="490" d="M465 634Q460 640 455 645T445 657Q435 667 417 667Q366 667 342 588Q335 569 319 468H445L435 423H312L250 0Q220 -209 22 -209Q-38 -209 -89 -179L-32 -136Q-11 -169 16 -169Q62 -169 88 -104Q99 -73 110 1L171 425H107L116 468H181Q203 593 242 642Q294 707 411 707Q471 707 522 677L465 634Z"  />
<glyph unicode="&#x2C6;" horiz-adv-x="400" d="M341 592H269L200 667L131 592H59L122 687H278L341 592Z"  />
<glyph unicode="&#x2C7;" horiz-adv-x="400" d="M341 687L278 592H122L59 687H131L201 612L269 687H341Z"  />
<glyph unicode="&#x2DA;" horiz-adv-x="400" d="M120 650Q120 682 144 705T200 728Q232 728 256 705T280 650Q280 618 256 595T200 572Q168 572 144 595T120 650ZM155 650Q155 631 168 618T200 605Q219 605 232 618T246 650Q246 669 233 682T200 696Q181 696 168 683T155 650Z"  />
<glyph unicode="&#x2DC;" horiz-adv-x="400" d="M340 687Q329 659 320 641T301 612T280 597T253 592Q244 592 226 598T188 613T151 627T126 634Q102 634 86 595L60 608Q70 635 80 653T100 681T121 696T147 701Q156 701 174 695T211 681T247 667T274 660Q298 660 313 698L340 687Z"  />
<glyph unicode="&#x2013;" horiz-adv-x="500" d="M500 271H0V328H500V271Z"  />
<glyph unicode="&#x2014;" horiz-adv-x="1000" d="M833 271H167V328H833V271Z"  />
<glyph unicode="&#x2018;" horiz-adv-x="185" d="M155 743L131 545H25L82 743H155Z"  />
<glyph unicode="&#x2019;" horiz-adv-x="182" d="M164 695L107 497H34L58 694L164 695Z"  />
<glyph unicode="&#x201A;" horiz-adv-x="192" d="M161 110L104 -87H31L55 111L161 110Z"  />
<glyph unicode="&#x201C;" horiz-adv-x="317" d="M159 743L135 545H29L86 743H159ZM289 743L265 545H159L216 743H289Z"  />
<glyph unicode="&#x201D;" horiz-adv-x="329" d="M168 694L111 496H38L62 694H168ZM298 694L241 496H168L192 694H298Z"  />
<glyph unicode="&#x201E;" horiz-adv-x="316" d="M158 111L101 -87H28L52 111H158ZM288 111L231 -87H158L182 111H288Z"  />
<glyph unicode="&#x2020;" horiz-adv-x="482" d="M466 459H289V0H192V459H17V521L191 522V708H289V522H466V459Z"  />
<glyph unicode="&#x2021;" horiz-adv-x="510" d="M475 459H298L299 249H474V187L300 186V0H202V186H25V249H202L201 459H26V523L200 522V708H298V522H475V459Z"  />
<glyph unicode="&#x2022;" horiz-adv-x="295" d="M246 314Q246 275 217 248Q188 221 149 221Q109 221 81 248Q52 275 52 314Q52 353 81 379Q109 406 149 406Q188 406 217 379Q246 353 246 314Z"  />
<glyph unicode="&#x2026;" horiz-adv-x="713" d="M175 0H48V116L175 115V0ZM419 0H292V116L419 115V0ZM664 0H537V116L664 115V0Z"  />
<glyph unicode="&#x2030;" horiz-adv-x="864" d="M501 64Q501 109 468 172Q432 244 393 244Q360 244 360 201Q360 157 393 93Q429 21 468 21Q501 21 501 64ZM224 404Q224 450 191 515Q153 586 112 586Q79 586 79 541Q79 498 114 434Q151 364 191 364Q205 364 214 376T224 404ZM788 63Q788 108 755 171Q719 243 680 243Q647 243 647 200Q647 155 680 91Q716 19 755 19Q788 19 788 63ZM555 132Q555 73 522 33Q489 -9 430 -9Q371 -9 337 33Q305 74 305 132Q305 190 337 230Q373 273 430 273Q489 273 522 231Q555 192 555 132ZM469 605L170 0H105L407 605H469ZM275 471Q275 414 245 375Q212 331 157 331Q97 331 61 375Q26 415 26 476Q26 532 58 572Q91 613 147 613Q207 613 242 571Q275 532 275 471ZM842 131Q842 73 810 32Q775 -10 717 -10Q658 -10 625 32Q592 72 592 131Q592 190 625 229Q658 272 717 272Q775 272 810 230Q842 190 842 131Z"  />
<glyph unicode="&#x2039;" horiz-adv-x="285" d="M245 114H127L26 281L135 465H240L136 296L245 114Z"  />
<glyph unicode="&#x203A;" horiz-adv-x="283" d="M258 299L150 115H44L148 285L39 467H158L258 299Z"  />
<glyph unicode="&#x20AC;" horiz-adv-x="490" d="M76 380Q85 440 110 489T172 572T258 626T363 645Q399 645 434 637T505 609L428 501Q397 556 369 577T305 599Q287 599 268 590T233 558T207 492T196 384V380H404L395 335H198Q200 318 202 302T207 269H384L375 224H219Q229 191 244 163T279 113T325 79T382 67Q411 67 436 76T492 110L512 83Q470 42 428 19T322 -5Q222 -5 159 54T78 224H12L20 269H72Q71 279 71 289T71 311V335H12L20 380H76Z"  />
<glyph unicode="&#x2122;" horiz-adv-x="800" d="M303 630V587H221V254H115V587H32V630H303ZM736 631V255H630V517L548 255H481L389 521V255H342V631H456L541 371L621 631H736Z"  />
<glyph unicode="&#xE300;" horiz-adv-x="400" d="M280 671H207L113 774H218L280 671Z"  />
<glyph unicode="&#xE301;" horiz-adv-x="400" d="M287 774L193 671H120L182 774H287Z"  />
<glyph unicode="&#xE302;" horiz-adv-x="400" d="M341 671H269L200 746L131 671H59L122 766H278L341 671Z"  />
<glyph unicode="&#xE303;" horiz-adv-x="400" d="M341 766L278 671H122L59 766H131L201 691L269 766H341Z"  />
<glyph unicode="&#xE304;" horiz-adv-x="400" d="M340 766Q330 738 321 720T301 691T280 676T253 671Q244 671 226 677T188 692T151 706T126 713Q102 713 86 674L60 687Q70 714 80 732T100 760T121 775T147 780Q156 780 174 774T211 760T247 746T274 739Q298 739 313 777L340 766Z"  />
<glyph unicode="&#xE305;" horiz-adv-x="400" d="M164 671H51V775H164V671ZM349 671H236V775H349V671Z"  />
<glyph unicode="&#xE308;" horiz-adv-x="400" d="M120 740Q120 772 144 795T200 818Q232 818 256 795T280 740Q280 708 256 685T200 662Q168 662 144 685T120 740ZM155 740Q155 721 168 708T200 695Q219 695 232 708T246 740Q246 759 233 772T200 786Q181 786 168 773T155 740Z"  />

</font>
</defs>
</svg>
