<?xml  version="1.0" encoding="UTF-8"?>
<!DOCTYPE svg PUBLIC "-//W3C//DTD SVG 1.0//EN" "http://www.w3.org/TR/2001/REC-SVG-20010904/DTD/svg10.dtd" >
<svg xmlns="http://www.w3.org/2000/svg" >
<metadata>
<version>1.0</version>
<id><![CDATA[Nautilus LT W01 Bold]]></id>
<vendor>Monotype Imaging Inc.</vendor>
<credits>
<name>Fonts.com WebFonts</name>
<URL>http://webfonts.fonts.com</URL>
<role>Home of the Web fonts</role>
</credits>
<license>
<URL>http://webfonts.fonts.com/Legal</URL>
</license>
<copyright><![CDATA[Copyright © 2003 - 2008 Linotype GmbH, www.linotype.com. All rights reserved. This font software may not be reproduced, modified, disclosed or transferred without the express written approval of Linotype GmbH. Linotype Nautilus is a trademark of Linotype GmbH and may be registered in certain jurisdictions. This typeface is original artwork of Hellmut G. Bomm. The design may be protected in certain jurisdictions.]]></copyright>
<trademark><![CDATA[Linotype Nautilus is a trademark of Linotype GmbH and may be registered in certain jurisdictions.]]></trademark>
<licensee>
<name></name>
</licensee>
</metadata>
<defs >
<font horiz-adv-x="450" id="6eeb473c-da1a-43c5-8a8a-b3260ccf3b27">
<font-face font-family="" panose-1="2 11 8 6 7 0 0 2 0 4" ascent="856" descent="-248" units-per-em="1000" alphabetic="0">
</font-face>
<missing-glyph horiz-adv-x="0" />

<glyph unicode="&#xA;" />
<glyph unicode="&#xD;" horiz-adv-x="0" />
<glyph unicode=" " horiz-adv-x="245" />
<glyph unicode="!" horiz-adv-x="253" d="M183 0H72V111H183V0ZM187 694L174 207H83L68 694H187Z"  />
<glyph unicode="&quot;" horiz-adv-x="402" d="M180 695L160 497H80L64 695H180ZM334 695L313 497H234L217 695H334Z"  />
<glyph unicode="#" horiz-adv-x="707" d="M441 421H312L266 288H394L441 421ZM684 481L663 421H511L465 288H626L605 228H443L362 0H291L373 228H244L162 0H92L173 228H17L38 288H194L241 421H74L95 481H263L345 711H416L335 481H462L544 711H614L534 481H684Z"  />
<glyph unicode="$" horiz-adv-x="490" d="M346 106Q346 151 250 228V32H262Q293 32 318 54Q346 76 346 106ZM225 589Q222 589 214 590T202 591Q177 591 160 576T142 535Q142 506 173 475L225 428V589ZM426 175Q426 99 376 47Q328 -1 251 -14V-74H225V-17Q162 -17 130 -10Q82 1 44 30L119 121Q172 49 225 37V249L161 304Q104 354 90 374Q62 411 62 467Q62 611 224 637V684H251V639Q258 640 263 640T273 641Q342 641 407 604L343 508Q305 560 251 581V407L365 308Q426 246 426 175Z"  />
<glyph unicode="%" horiz-adv-x="549" d="M473 65Q473 112 445 172Q414 245 375 245Q342 245 342 196Q342 150 370 90Q401 18 440 18Q473 18 473 65ZM208 406Q208 455 180 515Q148 587 108 587Q75 587 75 537Q75 495 104 432Q137 361 175 361Q208 361 208 406ZM525 131Q525 74 496 34Q465 -9 408 -9Q351 -9 318 35Q289 75 289 133Q289 189 318 229Q351 273 406 273Q463 273 496 229Q525 189 525 131ZM453 605L154 0H89L391 605H453ZM258 472Q258 416 231 376Q199 332 146 332Q88 332 55 377Q24 417 24 477Q24 533 53 571Q84 614 138 614Q195 614 229 571Q258 530 258 472Z"  />
<glyph unicode="&amp;" horiz-adv-x="530" d="M166 284Q123 242 123 187Q123 136 157 96Q193 53 243 53Q273 53 320 80L166 284ZM295 486Q295 522 278 554Q257 590 223 590Q201 590 187 574T172 536Q172 504 196 461L240 394Q271 415 282 432Q295 451 295 486ZM533 0H382L346 47Q264 -17 181 -17Q108 -17 61 21Q12 61 12 135Q12 194 50 244Q76 278 135 325Q80 402 80 474Q80 546 128 590Q175 631 249 631Q309 631 350 605Q398 573 398 517Q398 468 353 423Q342 412 321 396T267 357L407 167Q426 195 438 223L468 208Q451 169 429 137L533 0Z"  />
<glyph unicode="&apos;" horiz-adv-x="219" d="M166 696L146 498H66L50 696H166Z"  />
<glyph unicode="(" horiz-adv-x="354" d="M189 -164Q124 -45 102 42Q77 132 77 264Q77 411 104 515Q134 628 208 743H277Q249 692 231 651T204 574Q173 447 173 310Q173 181 206 64Q234 -40 299 -164H189Z"  />
<glyph unicode=")" horiz-adv-x="356" d="M280 298Q280 158 254 57Q225 -52 154 -164H77Q131 -64 149 4Q183 133 183 282Q183 407 151 521Q122 624 60 743H161Q228 627 254 530Q280 432 280 298Z"  />
<glyph unicode="*" horiz-adv-x="415" d="M406 471L252 487L342 366L265 321L204 459L143 319L67 364L161 488L8 468V559L157 540L61 662L142 710L204 566L265 709L342 664L253 541L406 557V471Z"  />
<glyph unicode="+" horiz-adv-x="490" d="M282 247V80H206V247H41V317H206V483H282V317H448V247H282Z"  />
<glyph unicode="&#x2c;" horiz-adv-x="218" d="M184 112L96 -105H32L72 111L184 112Z"  />
<glyph unicode="-" horiz-adv-x="343" d="M260 271H77V331H260V271Z"  />
<glyph unicode="." horiz-adv-x="208" d="M158 0H47V111L158 110V0Z"  />
<glyph unicode="/" horiz-adv-x="360" d="M351 695L87 -25H30L299 695H351Z"  />
<glyph unicode="0" horiz-adv-x="490" d="M367 195Q367 268 353 341Q345 379 334 413T306 477Q261 564 204 564Q158 564 137 505Q123 463 123 408Q123 310 161 190Q211 38 286 38Q367 38 367 195ZM463 297Q463 174 418 93Q362 -8 249 -8Q135 -8 75 100Q27 187 27 311Q27 431 74 514Q133 615 244 615Q358 615 417 508Q463 423 463 297Z"  />
<glyph unicode="1" horiz-adv-x="490" d="M357 0L236 1L237 500L71 405L52 438L356 619L357 0Z"  />
<glyph unicode="2" horiz-adv-x="490" d="M425 0H37V48Q295 235 295 426Q295 474 274 509Q248 550 203 550Q165 550 131 528Q121 521 107 509T73 478L47 497Q150 617 256 617Q329 617 373 576Q419 534 419 462Q419 309 162 88L425 89V0Z"  />
<glyph unicode="3" horiz-adv-x="490" d="M435 214Q435 21 72 -43L66 -13Q177 6 232 46Q305 98 305 199Q305 271 271 293Q246 312 173 312V346Q221 346 250 378Q276 410 276 459Q276 502 255 531Q231 560 188 560Q149 560 120 541Q99 527 66 493L44 513Q93 570 131 595Q180 625 244 625Q304 625 348 592Q396 556 396 497Q396 393 260 350Q344 345 383 321Q435 290 435 214Z"  />
<glyph unicode="4" horiz-adv-x="490" d="M260 512L78 222H258L260 512ZM465 158H377V0H259V158H13L12 200L265 604H377L378 223H465V158Z"  />
<glyph unicode="5" horiz-adv-x="490" d="M412 252Q412 114 256 20Q219 -2 174 -19T74 -47L67 -18Q167 2 225 60Q289 124 289 221Q289 277 265 312Q237 352 182 352Q134 352 70 315L109 605H388V518H142L122 374Q182 403 241 403Q316 403 362 366Q412 325 412 252Z"  />
<glyph unicode="6" horiz-adv-x="490" d="M352 131Q352 189 325 251Q292 328 240 328Q205 328 185 293Q169 265 169 226Q169 168 201 109Q238 40 291 40Q321 40 338 72Q352 98 352 131ZM449 210Q449 120 389 56Q327 -12 239 -12Q144 -12 92 61Q45 126 45 223Q45 378 145 491Q244 605 398 631L408 602Q187 542 154 301Q209 389 290 389Q361 389 407 334Q449 283 449 210Z"  />
<glyph unicode="7" horiz-adv-x="490" d="M427 524L162 0H95L359 513H71L72 605H426L427 524Z"  />
<glyph unicode="8" horiz-adv-x="490" d="M357 114Q357 188 210 280Q158 247 158 193Q158 138 194 92Q232 42 286 42Q300 42 313 48T335 63T351 86T357 114ZM326 450Q326 497 292 540Q256 585 210 585Q186 585 168 569T150 528Q150 486 196 437Q233 398 280 374Q307 393 315 405Q326 422 326 450ZM446 177Q446 92 382 40Q323 -9 236 -9Q155 -9 106 27Q50 68 50 145Q50 251 167 304Q66 363 66 459Q66 537 120 584Q170 627 252 627Q326 627 373 595Q427 557 427 488Q427 439 395 404Q374 380 319 352Q382 316 410 283Q446 239 446 177Z"  />
<glyph unicode="9" horiz-adv-x="490" d="M324 378Q324 434 292 496Q256 567 204 567Q170 567 153 535Q140 510 140 472Q140 413 168 354Q202 279 253 279Q286 279 307 313Q324 344 324 378ZM449 385Q449 240 349 125Q251 12 109 -22L97 -25L85 6Q213 33 284 156Q332 240 338 307Q293 219 202 219Q129 219 86 273Q44 325 44 398Q44 487 105 552Q166 619 254 619Q348 619 401 547Q449 482 449 385Z"  />
<glyph unicode=":" horiz-adv-x="197" d="M153 0H42V114H153V0ZM153 351H42V467L153 466V351Z"  />
<glyph unicode=";" horiz-adv-x="197" d="M162 112L73 -105H9L50 111L162 112ZM160 351H49V467L160 466V351Z"  />
<glyph unicode="&lt;" horiz-adv-x="490" d="M41 246V316L448 476V398L141 281L448 165V86L41 246Z"  />
<glyph unicode="=" horiz-adv-x="490" d="M41 324V395H448V324H41ZM41 167V238H448V167H41Z"  />
<glyph unicode="&gt;" horiz-adv-x="490" d="M41 86V165L348 281L41 398V476L448 316V246L41 86Z"  />
<glyph unicode="?" horiz-adv-x="408" d="M238 0H127V109H238V0ZM381 552Q381 422 167 208L135 233Q167 276 189 310T225 369Q264 445 264 525Q264 572 243 604Q218 638 172 638Q132 638 104 617Q84 603 53 564L27 584Q71 647 107 671Q153 705 218 705Q254 705 283 694T335 663T369 615T381 552Z"  />
<glyph unicode="@" horiz-adv-x="856" d="M631 467L612 172Q610 147 609 128T608 96Q608 74 617 64T643 54Q664 54 682 69T715 110T737 171T746 248Q746 338 721 401T653 503T556 560T443 578Q386 578 327 557T219 492T140 379T109 214Q109 122 137 57T212 -52T318 -115T441 -135Q493 -135 538 -121T609 -90L632 -123Q595 -149 542 -167T417 -186Q351 -186 282 -166T156 -100T64 19T28 199Q28 313 70 395T178 529T320 605T466 630Q528 630 592 612T707 551T792 438T825 265Q825 214 810 167T767 82T699 23T610 0Q555 0 526 28T496 109Q496 135 499 164L506 253Q458 121 402 56T283 -10Q239 -10 217 20T195 94Q195 136 215 190T277 305Q335 389 389 428T501 467H631ZM515 395Q515 409 508 421T483 434Q466 434 447 419T408 381T371 329T341 273Q325 238 317 206T308 145Q308 120 316 103T344 86Q367 86 398 121T461 225Q490 287 502 328T515 395Z"  />
<glyph unicode="A" horiz-adv-x="503" d="M292 219L204 505L125 219H292ZM495 0H360L305 177H112L62 0H10L195 631H296L495 0Z"  />
<glyph unicode="B" horiz-adv-x="513" d="M353 156Q353 229 314 269T202 309H185V34Q202 32 214 31T232 30Q292 30 322 63T353 156ZM327 460Q327 598 204 598L185 596V354H198Q263 354 292 374Q327 398 327 460ZM479 176Q479 84 416 39Q360 0 265 0H62L61 630Q136 631 173 631T213 631Q319 631 369 610Q444 578 444 488Q444 378 313 340Q479 318 479 176Z"  />
<glyph unicode="C" horiz-adv-x="518" d="M504 75Q476 52 453 36T412 11Q365 -10 302 -10Q170 -10 100 84Q36 169 36 305Q36 448 102 540Q175 645 313 645Q363 645 403 631Q413 627 433 617T484 591L416 496Q344 599 265 599Q146 599 146 403Q146 278 194 176Q255 46 368 46Q420 46 486 97L504 75Z"  />
<glyph unicode="D" horiz-adv-x="569" d="M411 299Q411 418 380 490Q336 594 235 594H181L180 37H238Q296 37 328 56Q365 77 384 128Q411 197 411 299ZM537 331Q537 186 468 98Q393 0 252 0H59V630L282 629Q410 629 478 542Q537 463 537 331Z"  />
<glyph unicode="E" horiz-adv-x="437" d="M406 45L405 0H61L62 629H393V582H183V349H381V300L183 301L184 45H406Z"  />
<glyph unicode="F" horiz-adv-x="407" d="M392 582H183V349H380V300L183 301L184 0H60L61 629H392V582Z"  />
<glyph unicode="G" horiz-adv-x="570" d="M525 74Q401 -11 301 -11Q169 -11 97 85Q33 170 33 308Q33 455 104 546Q180 646 324 646Q421 646 492 601L428 509Q354 602 277 602Q143 602 143 391Q143 330 160 265Q181 184 227 120Q285 39 356 39Q375 39 407 57V307H290V350H525V74Z"  />
<glyph unicode="H" horiz-adv-x="579" d="M509 0H386V306H184V0H61V629H184V350H386V629H509V0Z"  />
<glyph unicode="I" horiz-adv-x="248" d="M182 629L181 0H59V629H182Z"  />
<glyph unicode="J" horiz-adv-x="353" d="M299 216Q299 105 256 53Q208 -7 101 -7Q34 -7 -18 30L31 68Q50 35 94 35Q176 35 176 164Q176 174 176 192T175 218V631H299V216Z"  />
<glyph unicode="K" horiz-adv-x="507" d="M509 1L353 0L181 296V0H58V629H181V332L421 629H480L279 372L509 1Z"  />
<glyph unicode="L" horiz-adv-x="409" d="M403 0H60V629H182V41H403V0Z"  />
<glyph unicode="M" horiz-adv-x="736" d="M672 0H551V546L538 504L372 0H286L105 539V0H57V630L200 631L368 135L529 630L672 629V0Z"  />
<glyph unicode="N" horiz-adv-x="535" d="M482 0H368L105 460V0H57V627H154L437 130V628H482V0Z"  />
<glyph unicode="O" horiz-adv-x="597" d="M443 236Q443 307 428 373Q408 453 371 513Q318 594 253 594Q147 594 147 392Q147 327 164 261Q183 184 224 122Q278 40 342 40Q399 40 425 114Q443 165 443 236ZM554 324Q554 184 496 96Q427 -8 295 -8Q163 -8 94 97Q35 188 35 327Q35 458 98 545Q169 643 296 643Q420 643 491 542Q554 453 554 324Z"  />
<glyph unicode="P" horiz-adv-x="478" d="M350 434Q350 498 319 541Q285 590 223 590H183V324Q227 313 234 313Q286 313 318 347T350 434ZM465 463Q465 367 394 317Q332 275 231 275Q228 275 216 275T182 276V0H62L61 633H289Q370 633 417 588T465 463Z"  />
<glyph unicode="Q" horiz-adv-x="602" d="M444 235Q444 305 429 373Q410 451 372 513Q319 593 253 593Q143 593 143 392Q143 329 160 261Q179 183 222 121Q277 39 342 39Q400 39 426 113Q444 165 444 235ZM580 -65H440L380 5Q333 -9 291 -9Q162 -9 93 99Q35 190 35 327Q35 458 98 545Q169 643 296 643Q423 643 493 540Q553 451 553 317Q553 153 467 61L580 -65Z"  />
<glyph unicode="R" horiz-adv-x="509" d="M346 441Q346 513 309 554Q269 597 199 597H176V326Q199 324 212 323T229 322Q284 322 315 354T346 441ZM509 0H371L219 283H175L176 0H55V633H215Q344 633 394 600Q464 554 464 473Q464 418 429 369Q395 324 341 301L509 0Z"  />
<glyph unicode="S" horiz-adv-x="449" d="M413 179Q413 93 347 38Q285 -13 197 -13Q90 -13 32 31L105 126Q129 90 165 65Q208 36 243 36Q276 36 304 56Q333 79 333 111Q333 151 256 217L149 308Q93 354 77 377Q48 418 48 470Q48 555 106 601Q158 643 246 643Q304 643 392 611L329 512Q253 597 193 597Q167 597 148 581T129 539Q129 501 203 439Q332 334 339 325Q413 251 413 179Z"  />
<glyph unicode="T" horiz-adv-x="383" d="M393 581H253L252 0H130V581H-11V629H393V581Z"  />
<glyph unicode="U" horiz-adv-x="551" d="M502 184Q502 93 439 42Q380 -6 288 -6Q62 -6 62 215V630H186V217Q186 137 211 102Q255 40 325 40Q383 40 421 82Q457 121 457 181V630L502 629V184Z"  />
<glyph unicode="V" horiz-adv-x="510" d="M486 631L301 1L200 0L1 631H136L291 125L435 631H486Z"  />
<glyph unicode="W" horiz-adv-x="792" d="M792 630L639 1L533 -1L399 487L268 0H163L2 630H140L258 125L386 630H487L626 132L740 630H792Z"  />
<glyph unicode="X" horiz-adv-x="462" d="M447 0H307L203 236L79 0H31L180 289L25 629H165L263 404L383 629H428L285 357L447 0Z"  />
<glyph unicode="Y" horiz-adv-x="462" d="M451 631L310 249V0H186V220L9 631H148L285 305L403 631H451Z"  />
<glyph unicode="Z" horiz-adv-x="470" d="M428 46L427 0H38V43L289 580L48 581V630H422V572L181 46H428Z"  />
<glyph unicode="[" horiz-adv-x="281" d="M240 704H143V-112H237V-156H60V749H240V704Z"  />
<glyph unicode="\" horiz-adv-x="401" d="M374 -20L289 -21L25 698H107L374 -20Z"  />
<glyph unicode="]" horiz-adv-x="286" d="M222 -155H45V-111H139V705H42V750H222V-155Z"  />
<glyph unicode="^" horiz-adv-x="490" d="M337 312L242 550L151 312H73L211 651H277L416 312H337Z"  />
<glyph unicode="_" horiz-adv-x="500" d="M0 -125V-75H500V-125H0Z"  />
<glyph unicode="`" horiz-adv-x="400" d="M276 595H208L124 690H219L276 595Z"  />
<glyph unicode="a" horiz-adv-x="454" d="M269 264Q202 235 181 217Q145 185 145 127Q145 54 190 54Q230 54 253 129Q269 180 269 236V264ZM272 0L269 98Q247 46 220 22Q186 -7 137 -7Q89 -7 58 21T26 98Q26 177 114 229Q130 239 168 256T269 296V324Q269 428 193 428Q145 428 59 367L43 390Q74 413 98 429T140 454Q191 479 252 479Q336 479 367 427Q389 389 389 295Q389 58 395 0H272Z"  />
<glyph unicode="b" horiz-adv-x="503" d="M358 213Q358 275 343 322Q321 392 271 392Q221 392 197 322Q181 275 181 212Q181 152 198 104Q222 37 272 37Q320 37 343 105Q358 151 358 213ZM469 266Q469 152 407 72Q339 -14 228 -14Q114 -14 78 85Q57 142 57 280V695H177V349Q222 480 322 480Q399 480 438 408Q469 350 469 266Z"  />
<glyph unicode="c" horiz-adv-x="409" d="M412 46Q389 30 371 19T339 3Q303 -11 257 -11Q147 -11 89 61Q34 126 34 238Q34 336 86 403Q143 477 238 477Q293 477 328 454Q359 432 387 381L279 329Q253 437 202 437Q146 437 146 316Q146 207 183 137Q229 46 328 46Q359 46 400 68L412 46Z"  />
<glyph unicode="d" horiz-adv-x="526" d="M332 197Q332 267 306 340Q272 434 212 434Q147 434 147 314Q147 238 171 162Q204 57 262 57Q299 57 318 112Q332 154 332 197ZM454 0H332V74Q328 53 289 17Q258 -11 212 -11Q125 -11 79 67Q38 134 38 224Q38 317 82 391Q134 476 223 476Q291 476 336 405V694H454V0Z"  />
<glyph unicode="e" horiz-adv-x="445" d="M274 283V295Q274 347 260 384Q240 437 199 437Q142 437 142 320Q142 318 142 313T143 301V283H274ZM409 46Q365 15 336 3Q299 -11 253 -11Q144 -11 86 61Q31 126 31 238Q31 336 83 403Q139 477 234 477Q312 477 357 424Q399 374 399 295Q399 297 399 286T397 251H147Q175 46 323 46Q358 46 396 68L409 46Z"  />
<glyph unicode="f" horiz-adv-x="287" d="M302 615Q263 663 231 663Q192 663 179 623Q171 597 171 549Q171 539 171 519T173 467H320V423H174V0H55V424H3V467H56V512Q56 602 103 652Q151 705 240 705Q299 705 358 673L302 615Z"  />
<glyph unicode="g" horiz-adv-x="521" d="M330 202Q330 274 303 343Q268 432 206 432Q141 432 141 318Q141 242 166 164Q200 56 259 56Q297 56 316 114Q330 158 330 202ZM450 14Q450 -117 391 -174T199 -232Q112 -232 36 -197L106 -106Q169 -184 231 -184Q294 -184 315 -129Q328 -97 328 -21V67Q274 -13 205 -13Q122 -13 74 66Q34 133 34 222Q34 319 78 390Q130 474 221 474Q261 474 287 456Q309 441 332 404V467H450V14Z"  />
<glyph unicode="h" horiz-adv-x="519" d="M454 0H332V317Q332 387 300 387Q254 387 215 297Q187 233 179 151Q176 113 176 0H56V692H176V263Q194 343 244 405Q303 479 376 479Q433 479 448 420Q454 396 454 314V0Z"  />
<glyph unicode="i" horiz-adv-x="248" d="M181 0H61L62 467H181V0ZM178 578L64 577V694H178V578Z"  />
<glyph unicode="j" horiz-adv-x="250" d="M188 -1Q188 -137 150 -181Q92 -248 -6 -248Q-45 -248 -102 -231L-75 -188Q-50 -204 -32 -204Q9 -204 39 -171Q68 -139 68 -98V-2L69 467H188V-1ZM185 578L70 577V694H185V578Z"  />
<glyph unicode="k" horiz-adv-x="468" d="M466 0H322L185 208V0H66L67 694H184V262L382 466L444 467L272 283L466 0Z"  />
<glyph unicode="l" horiz-adv-x="249" d="M181 -1L62 0L63 694H180L181 -1Z"  />
<glyph unicode="m" horiz-adv-x="803" d="M738 0H616L617 317Q617 386 586 386Q541 386 501 296Q472 231 464 151Q461 116 461 0H339V317Q339 386 308 386Q263 386 223 296Q195 233 187 150Q185 130 184 93T183 0H63V467H183V264Q253 478 383 478Q436 478 453 431Q461 404 461 337Q461 332 461 314T460 264Q530 478 659 478Q716 478 732 420Q738 396 738 315V0Z"  />
<glyph unicode="n" horiz-adv-x="529" d="M461 0H339V317Q339 387 307 387Q262 387 222 297Q208 265 200 229T187 151Q185 132 184 95T183 0H63V467H183V264Q204 344 251 405Q310 479 383 479Q438 479 455 420Q461 396 461 314V0Z"  />
<glyph unicode="o" horiz-adv-x="493" d="M343 139Q343 216 310 317Q268 442 207 442Q147 442 147 340Q147 260 181 159Q223 32 284 32Q343 32 343 139ZM454 230Q454 127 404 62Q350 -10 250 -10Q147 -10 89 65Q36 135 36 240Q36 343 87 408Q142 478 243 478Q343 478 401 402Q454 332 454 230Z"  />
<glyph unicode="p" horiz-adv-x="526" d="M375 162Q375 232 350 307Q315 408 262 408Q224 408 205 354Q190 313 190 270Q190 199 216 127Q250 34 311 34Q375 34 375 162ZM484 243Q484 147 439 75Q386 -9 297 -9Q259 -9 233 8Q223 15 212 27T187 57V-228H69V467H191L190 394Q220 439 238 454Q266 478 310 478Q396 478 444 400Q484 336 484 243Z"  />
<glyph unicode="q" horiz-adv-x="506" d="M321 253Q321 313 304 361Q279 428 229 428Q181 428 158 360Q143 313 143 253Q143 190 158 144Q180 74 230 74Q280 74 304 143Q321 192 321 253ZM445 -229L325 -228V116Q277 -14 179 -14Q103 -14 64 59Q33 115 33 200Q33 315 94 394Q162 480 273 480Q386 480 424 381Q445 322 445 186V-229Z"  />
<glyph unicode="r" horiz-adv-x="357" d="M316 349Q297 365 279 365Q223 365 196 250Q179 174 179 94Q179 91 179 68T180 0H60V467H180L179 269Q198 357 217 398Q253 476 313 476Q343 476 378 449L316 349Z"  />
<glyph unicode="s" horiz-adv-x="366" d="M339 136Q339 65 279 23Q226 -14 151 -14Q83 -14 21 11L73 88Q140 28 187 28Q209 28 229 42Q250 57 250 78Q250 109 194 151Q97 223 91 229Q35 280 35 336Q35 404 83 443Q128 479 198 479Q269 479 321 453L275 376Q204 437 158 437Q113 437 113 401Q113 370 171 325L280 241Q339 188 339 136Z"  />
<glyph unicode="t" horiz-adv-x="338" d="M361 51Q342 34 327 22T297 2Q265 -13 219 -13Q156 -13 116 25T76 127V424H20V465Q29 465 40 469Q90 486 110 504Q135 526 147 573H197V467H351V425H197V203Q197 126 206 99Q224 43 284 43Q315 43 343 68L361 51Z"  />
<glyph unicode="u" horiz-adv-x="524" d="M458 0H338V204Q319 125 270 62Q212 -11 138 -11Q80 -11 65 46Q60 69 60 153V467H181V150Q181 81 213 81Q257 81 298 170Q327 235 334 316Q336 336 337 373T338 467H458V0Z"  />
<glyph unicode="v" horiz-adv-x="406" d="M394 467L252 0H155L12 467L142 468L244 125L346 467H394Z"  />
<glyph unicode="w" horiz-adv-x="652" d="M645 467L518 0H424L333 305L238 0H141L14 467H143L231 125L329 466L416 468L511 134L598 467H645Z"  />
<glyph unicode="x" horiz-adv-x="402" d="M393 0H260L170 176L63 0H10L146 219L11 467H145L223 318L317 467H371L248 271L393 0Z"  />
<glyph unicode="y" horiz-adv-x="414" d="M410 467L158 -229H107L189 1L6 467H137L250 166L359 467H410Z"  />
<glyph unicode="z" horiz-adv-x="429" d="M391 423L176 46L382 47V0H29V40L249 421H39V467H391V423Z"  />
<glyph unicode="{" horiz-adv-x="346" d="M309 -196H213Q164 -196 136 -154Q111 -117 111 -67V104Q111 163 98 192Q81 234 30 245V286Q111 302 111 421V593Q111 642 137 680Q165 722 213 722H309V681H265Q219 681 219 599V405Q219 302 131 265V263Q219 221 219 120V-74Q219 -156 265 -156H309V-196Z"  />
<glyph unicode="|" horiz-adv-x="222" d="M63 -144V856H158V-144H63Z"  />
<glyph unicode="}" horiz-adv-x="367" d="M324 245Q273 234 256 192Q243 163 243 104V-67Q243 -117 218 -154Q189 -196 141 -196H46V-156H90Q136 -156 136 -74V120Q136 221 224 263V265Q136 302 136 405V599Q136 681 90 681H46V722H141Q188 722 217 680Q243 642 243 593V421Q243 302 324 286V245Z"  />
<glyph unicode="~" horiz-adv-x="490" d="M457 346Q452 290 427 255T348 219Q321 219 293 227T238 246T185 265T138 274Q116 274 104 257T87 216H33Q36 243 43 266T64 307T96 334T141 344Q168 344 195 336T249 317T302 298T352 289Q375 289 387 306T403 346H457H457Z"  />
<glyph unicode="&#xA0;" horiz-adv-x="245" />
<glyph unicode="&#xA1;" horiz-adv-x="253" d="M186 -150H67L80 338H171L186 -150ZM181 433H70V545H181V433Z"  />
<glyph unicode="&#xA2;" horiz-adv-x="490" d="M233 435Q223 436 220 436T218 437Q167 437 167 316Q167 243 179 201Q192 156 233 99V435ZM434 46Q354 -11 293 -11Q291 -11 287 -11T275 -10H257V-60L234 -59V-7Q56 36 56 238Q56 328 100 392Q146 458 233 475V521H257V476Q273 479 280 479Q325 479 358 449Q382 428 409 380L301 329Q296 350 293 363T287 381Q277 411 257 425V77Q294 47 352 47Q384 47 422 68L434 46Z"  />
<glyph unicode="&#xA3;" horiz-adv-x="490" d="M494 97Q430 -18 358 -18Q321 -18 254 11Q188 40 154 40Q101 40 64 -15L43 -4Q53 75 142 117Q158 146 158 165Q158 205 126 280H36V320H108Q73 404 73 450Q73 538 131 593Q189 650 276 650Q387 650 442 556L345 508Q322 551 301 572Q272 602 232 602Q197 602 175 583Q152 563 152 530Q152 488 182 424Q194 398 203 379T218 347Q225 332 230 321H380V280H242Q244 263 245 253T247 241Q247 192 187 125Q237 125 266 113Q367 70 413 70Q436 70 468 111L494 97Z"  />
<glyph unicode="&#xA4;" horiz-adv-x="490" d="M245 405Q223 405 204 397T171 374T148 340T140 298Q140 275 148 256T171 222T204 199T245 191Q267 191 286 200T320 223T342 257T350 298Q350 319 342 338T319 373T286 396T245 405ZM41 147L94 200Q78 225 72 249T65 298Q65 323 71 347T94 396L41 449L93 501L146 449Q172 466 195 471T245 477Q271 477 294 471T343 448L396 501L447 448L395 396Q424 352 424 297Q424 272 418 250T395 200L448 147L396 95L342 148Q316 131 292 125T245 119Q218 119 194 125T147 148L94 95L41 147Z"  />
<glyph unicode="&#xA5;" horiz-adv-x="490" d="M458 631L337 301H432V257H320L319 255Q317 239 317 221T317 182H432V137H317V0H193V138H57V183H193V218L177 256H57V301H158L16 631H155L291 305L410 631H458Z"  />
<glyph unicode="&#xA6;" horiz-adv-x="222" d="M63 481V731H158V481H63ZM63 -19V231H158V-19H63Z"  />
<glyph unicode="&#xA7;" horiz-adv-x="401" d="M274 297Q274 325 224 366L150 425Q112 395 112 375Q112 348 154 314L237 247Q274 272 274 297ZM362 93Q362 25 303 -16Q250 -52 179 -52Q114 -52 47 -23L95 48Q154 -11 208 -11Q232 -11 252 0Q276 13 276 37Q276 67 214 114Q158 156 129 177T98 200Q36 256 36 312Q36 393 118 448L113 454Q97 471 81 491T46 537Q41 559 41 573Q41 640 90 677Q133 710 203 710Q247 710 321 680L278 610Q207 670 161 670Q117 670 117 636Q117 609 156 575Q171 563 186 551T216 528L267 487Q315 448 331 430Q360 395 360 353Q360 282 274 222Q325 175 333 166Q362 129 362 93Z"  />
<glyph unicode="&#xA8;" horiz-adv-x="400" d="M162 592H65V696H162V592ZM335 592H237V696H335V592Z"  />
<glyph unicode="&#xA9;" horiz-adv-x="749" d="M537 168Q503 139 468 123T385 107Q339 107 302 121T238 163T197 230T182 318Q182 366 198 405T242 473T308 516T390 532Q426 532 459 520T527 481L455 423Q431 461 412 475T369 489Q337 489 315 461T293 365Q293 319 302 281T328 216T369 173T423 158Q463 158 507 193L537 168ZM47 316Q47 384 72 443T142 547T246 618T374 644Q442 644 502 618T606 548T676 444T702 316Q702 248 677 189T607 85T502 15T374 -11Q306 -11 247 14T143 84T73 188T47 316ZM106 315Q106 258 127 209T184 122T269 63T374 41Q431 41 480 62T565 121T621 208T642 315Q642 372 622 422T565 509T480 568T374 590Q318 590 269 569T184 510T127 422T106 315Z"  />
<glyph unicode="&#xAA;" horiz-adv-x="329" d="M203 477Q157 456 142 442Q116 419 116 379Q116 328 148 328Q177 328 192 381Q203 420 203 457V477ZM205 290L204 359Q169 285 110 285Q76 285 54 305T32 359Q32 413 95 451Q113 462 204 499V518Q204 591 150 591Q115 591 56 548L44 565Q89 598 113 609Q150 627 192 627Q252 627 272 588Q287 562 287 498Q287 416 288 365T292 290H205Z"  />
<glyph unicode="&#xAB;" horiz-adv-x="438" d="M232 116H125L24 283L133 467H227L123 298L232 116ZM405 116H297L196 283L305 467H399L295 298L405 116Z"  />
<glyph unicode="&#xAC;" horiz-adv-x="490" d="M374 160V324H41V396H448V160H374Z"  />
<glyph unicode="&#xAD;" horiz-adv-x="343" d="M260 271H77V331H260V271Z"  />
<glyph unicode="&#xAE;" horiz-adv-x="506" d="M289 492Q289 517 277 528T235 540H223V451H238Q264 451 276 463T289 492ZM354 328H284L236 426H223V328H165V564H254Q295 564 321 550T347 495Q347 446 294 432L354 328ZM51 442Q51 484 66 521T109 585T174 628T253 644Q296 644 333 628T397 585T439 521T455 442Q455 400 440 364T397 300T333 257T253 241Q211 241 174 257T110 300T67 363T51 442ZM95 442Q95 409 107 380T140 329T191 295T253 282Q287 282 316 294T366 329T399 380T411 442Q411 475 399 504T366 555T316 590T253 603Q220 603 191 590T141 556T107 505T95 442Z"  />
<glyph unicode="&#xAF;" horiz-adv-x="400" d="M329 610H71V675H329V610Z"  />
<glyph unicode="&#xB0;" horiz-adv-x="245" d="M250 504Q250 478 240 455T213 414T172 387T123 377Q97 377 74 387T33 414T6 454T-4 504Q-4 530 6 553T33 593T73 620T123 630Q149 630 172 620T212 593T240 553T250 504ZM186 504Q186 530 168 549T123 568Q97 568 79 549T60 504Q60 477 78 458T123 439Q149 439 167 458T186 504Z"  />
<glyph unicode="&#xB1;" horiz-adv-x="490" d="M282 291V161H206V291H41V361H206V492H282V361H448V291H282ZM41 64V134H448V64H41Z"  />
<glyph unicode="&#xB2;" horiz-adv-x="292" d="M224 315H27V342Q85 384 114 420Q153 469 153 528Q153 551 144 569Q130 590 110 590Q84 590 46 555L33 564Q84 624 138 624Q176 624 198 604T221 547Q221 501 177 445Q166 431 146 411T96 365H224V315Z"  />
<glyph unicode="&#xB3;" horiz-adv-x="316" d="M223 416Q223 316 37 286L34 302Q92 313 116 330Q150 355 150 406Q150 465 101 465Q97 465 93 465T83 463V482Q136 484 136 540Q136 588 95 588Q66 588 35 555L23 566Q74 622 127 622Q157 622 180 605Q204 587 204 557Q204 507 133 484Q175 481 196 470Q223 453 223 416Z"  />
<glyph unicode="&#xB4;" horiz-adv-x="400" d="M276 689L192 595H124L181 689H276Z"  />
<glyph unicode="&#xB5;" horiz-adv-x="533" d="M370 0V45Q349 20 325 8T268 -5Q237 -5 215 5T172 39V-175H72V468H172V216Q172 189 176 165T191 121T220 91T268 79Q295 79 313 90T343 120T360 164T365 217V468H465V0H370Z"  />
<glyph unicode="&#xB6;" horiz-adv-x="515" d="M274 -123H219V276Q132 283 82 333T32 462Q32 502 45 533T82 586T139 619T211 631H443V-123H321V597H274V-123Z"  />
<glyph unicode="&#xB7;" horiz-adv-x="168" d="M140 323Q140 299 123 283T83 267Q60 267 44 283T27 323Q27 346 44 363T84 380Q106 380 123 363T140 323Z"  />
<glyph unicode="&#xB8;" horiz-adv-x="400" d="M293 -107Q293 -153 256 -178T153 -203Q129 -203 107 -198L114 -160Q119 -162 128 -163T148 -164Q180 -164 201 -152T223 -120Q223 -106 213 -97T188 -88Q171 -88 146 -100L124 -82L160 12H196L176 -50Q190 -45 202 -43T224 -40Q256 -40 274 -59T293 -107Z"  />
<glyph unicode="&#xB9;" horiz-adv-x="243" d="M170 315H101V562L19 518L9 536L170 625V315Z"  />
<glyph unicode="&#xBA;" horiz-adv-x="365" d="M252 413Q252 467 235 526Q211 606 168 606Q141 606 128 566Q119 537 119 505Q119 454 137 396Q161 320 201 320Q252 320 252 413ZM330 459Q330 387 295 340Q256 290 186 290Q113 290 73 342Q35 391 35 464Q35 535 70 582Q109 632 178 632Q250 632 292 581Q330 532 330 459Z"  />
<glyph unicode="&#xBB;" horiz-adv-x="435" d="M237 299L129 115H34L138 285L29 467H137L237 299ZM410 299L301 115H206L310 285L201 467H309L410 299Z"  />
<glyph unicode="&#xBC;" horiz-adv-x="561" d="M432 258L343 113H431L432 258ZM170 315H101V562L19 518L9 536L170 625V315ZM458 605L158 0H93L396 605H458ZM543 80H500V1H431L432 80H311V103L435 303H501V113H543V80Z"  />
<glyph unicode="&#xBD;" horiz-adv-x="561" d="M170 315H101V562L19 518L9 536L170 625V315ZM453 605L154 0H89L391 605H453ZM533 1H336V27Q396 70 423 105Q462 154 462 213Q462 237 453 254Q440 276 419 276Q391 276 354 240L342 250Q394 310 447 310Q484 310 507 290Q530 269 530 232Q530 187 486 131Q462 102 405 50H533V1Z"  />
<glyph unicode="&#xBE;" horiz-adv-x="561" d="M432 258L343 113H431L432 258ZM223 416Q223 316 37 286L34 302Q92 313 116 330Q150 355 150 406Q150 465 101 465Q97 465 93 465T83 463V482Q136 484 136 540Q136 588 95 588Q66 588 35 555L23 566Q74 622 127 622Q157 622 180 605Q204 587 204 557Q204 507 133 484Q175 481 196 470Q223 453 223 416ZM543 80H500V1H431L432 80H311V103L435 303H501V113H543V80ZM466 605L167 0H103L404 605H466Z"  />
<glyph unicode="&#xBF;" horiz-adv-x="404" d="M377 -40Q291 -160 184 -160Q116 -160 70 -120Q23 -78 23 -11Q23 76 98 180Q141 240 239 336L272 313Q205 225 181 177Q140 98 140 21Q140 -27 161 -58Q187 -93 232 -93Q271 -93 300 -72Q310 -65 322 -52T351 -20L377 -40ZM279 434H167V543H279V434Z"  />
<glyph unicode="&#xC0;" horiz-adv-x="503" d="M292 219L204 505L125 219H292ZM495 0H360L305 177H112L62 0H10L195 631H296L495 0ZM305 671H237L153 766H248L305 671Z"  />
<glyph unicode="&#xC1;" horiz-adv-x="503" d="M292 219L204 505L125 219H292ZM495 0H360L305 177H112L62 0H10L195 631H296L495 0ZM331 767L247 672H179L236 767H331Z"  />
<glyph unicode="&#xC2;" horiz-adv-x="503" d="M292 219L204 505L125 219H292ZM495 0H360L305 177H112L62 0H10L195 631H296L495 0ZM375 672H309L242 747L175 672H112L173 767H314L375 672Z"  />
<glyph unicode="&#xC3;" horiz-adv-x="503" d="M292 219L204 505L125 219H292ZM495 0H360L305 177H112L62 0H10L195 631H296L495 0ZM381 763Q364 712 345 692T296 672Q287 672 269 678T231 691T194 705T169 712Q145 712 129 673L105 683Q122 733 141 753T190 773Q199 773 217 767T254 754T290 740T316 734Q342 734 357 772L381 763Z"  />
<glyph unicode="&#xC4;" horiz-adv-x="503" d="M292 219L204 505L125 219H292ZM495 0H360L305 177H112L62 0H10L195 631H296L495 0ZM209 672H112V773H209V672ZM373 672H276V773H373V672Z"  />
<glyph unicode="&#xC5;" horiz-adv-x="503" d="M292 219L204 505L125 219H292ZM495 0H360L305 177H112L62 0H10L195 631H296L495 0ZM163 740Q163 772 187 795T243 818Q275 818 299 795T323 740Q323 708 299 685T243 662Q211 662 187 685T163 740ZM198 740Q198 721 211 708T243 695Q262 695 275 708T289 740Q289 759 276 772T243 786Q224 786 211 773T198 740Z"  />
<glyph unicode="&#xC6;" horiz-adv-x="714" d="M328 336L312 550L221 336H328ZM681 0H354L332 288H201L75 0H17L294 630H651V582H432L453 336H655V288H457L478 45H681V0Z"  />
<glyph unicode="&#xC7;" horiz-adv-x="518" d="M384 -107Q384 -153 347 -178T244 -203Q220 -203 198 -198L205 -160Q210 -162 219 -163T239 -164Q271 -164 292 -152T314 -120Q314 -106 304 -97T279 -88Q262 -88 237 -100L215 -82L244 -5Q153 12 100 84Q36 169 36 305Q36 448 102 540Q175 645 313 645Q363 645 403 631Q413 627 433 617T484 591L416 496Q344 599 265 599Q146 599 146 403Q146 278 194 176Q255 46 368 46Q420 46 486 97L504 75Q476 52 453 36T412 11Q365 -10 302 -10Q296 -10 291 -10T280 -9L267 -50Q281 -45 293 -43T315 -40Q347 -40 365 -59T384 -107Z"  />
<glyph unicode="&#xC8;" horiz-adv-x="437" d="M406 45L405 0H61L62 629H393V582H183V349H381V300L183 301L184 45H406ZM298 671H230L146 766H241L298 671Z"  />
<glyph unicode="&#xC9;" horiz-adv-x="437" d="M406 45L405 0H61L62 629H393V582H183V349H381V300L183 301L184 45H406ZM321 767L237 672H169L226 767H321Z"  />
<glyph unicode="&#xCA;" horiz-adv-x="437" d="M406 45L405 0H61L62 629H393V582H183V349H381V300L183 301L184 45H406ZM364 672H298L231 747L164 672H101L162 767H303L364 672Z"  />
<glyph unicode="&#xCB;" horiz-adv-x="437" d="M406 45L405 0H61L62 629H393V582H183V349H381V300L183 301L184 45H406ZM198 672H101V773H198V672ZM362 672H265V773H362V672Z"  />
<glyph unicode="&#xCC;" horiz-adv-x="248" d="M182 629L181 0H59V629H182ZM180 671H112L28 766H123L180 671Z"  />
<glyph unicode="&#xCD;" horiz-adv-x="248" d="M182 629L181 0H59V629H182ZM211 767L127 672H59L116 767H211Z"  />
<glyph unicode="&#xCE;" horiz-adv-x="248" d="M182 629L181 0H59V629H182ZM254 672H188L121 747L54 672H-9L52 767H193L254 672Z"  />
<glyph unicode="&#xCF;" horiz-adv-x="248" d="M182 629L181 0H59V629H182ZM88 672H-9V773H88V672ZM252 672H155V773H252V672Z"  />
<glyph unicode="&#xD0;" horiz-adv-x="569" d="M411 299Q411 415 379 490Q335 594 235 594H182V414H324V369H181V37H238Q327 37 365 90Q411 155 411 299ZM537 331Q537 185 468 97Q393 0 251 0H59L60 369H-30V415H60L59 630L282 629Q412 628 478 542Q537 465 537 331Z"  />
<glyph unicode="&#xD1;" horiz-adv-x="535" d="M482 0H368L105 460V0H57V627H154L437 130V628H482V0ZM412 763Q395 712 376 692T327 672Q318 672 300 678T262 691T225 705T200 712Q176 712 160 673L136 683Q153 733 172 753T221 773Q230 773 248 767T285 754T321 740T347 734Q373 734 388 772L412 763Z"  />
<glyph unicode="&#xD2;" horiz-adv-x="597" d="M443 236Q443 307 428 373Q408 453 371 513Q318 594 253 594Q147 594 147 392Q147 327 164 261Q183 184 224 122Q278 40 342 40Q399 40 425 114Q443 165 443 236ZM554 324Q554 184 496 96Q427 -8 295 -8Q163 -8 94 97Q35 188 35 327Q35 458 98 545Q169 643 296 643Q420 643 491 542Q554 453 554 324ZM340 671H272L188 766H283L340 671Z"  />
<glyph unicode="&#xD3;" horiz-adv-x="597" d="M443 236Q443 307 428 373Q408 453 371 513Q318 594 253 594Q147 594 147 392Q147 327 164 261Q183 184 224 122Q278 40 342 40Q399 40 425 114Q443 165 443 236ZM554 324Q554 184 496 96Q427 -8 295 -8Q163 -8 94 97Q35 188 35 327Q35 458 98 545Q169 643 296 643Q420 643 491 542Q554 453 554 324ZM384 767L300 672H232L289 767H384Z"  />
<glyph unicode="&#xD4;" horiz-adv-x="597" d="M443 236Q443 307 428 373Q408 453 371 513Q318 594 253 594Q147 594 147 392Q147 327 164 261Q183 184 224 122Q278 40 342 40Q399 40 425 114Q443 165 443 236ZM554 324Q554 184 496 96Q427 -8 295 -8Q163 -8 94 97Q35 188 35 327Q35 458 98 545Q169 643 296 643Q420 643 491 542Q554 453 554 324ZM429 672H363L296 747L229 672H166L227 767H368L429 672Z"  />
<glyph unicode="&#xD5;" horiz-adv-x="597" d="M443 236Q443 307 428 373Q408 453 371 513Q318 594 253 594Q147 594 147 392Q147 327 164 261Q183 184 224 122Q278 40 342 40Q399 40 425 114Q443 165 443 236ZM554 324Q554 184 496 96Q427 -8 295 -8Q163 -8 94 97Q35 188 35 327Q35 458 98 545Q169 643 296 643Q420 643 491 542Q554 453 554 324ZM436 763Q419 712 400 692T351 672Q342 672 324 678T286 691T249 705T224 712Q200 712 184 673L160 683Q177 733 196 753T245 773Q254 773 272 767T309 754T345 740T371 734Q397 734 412 772L436 763Z"  />
<glyph unicode="&#xD6;" horiz-adv-x="597" d="M443 236Q443 307 428 373Q408 453 371 513Q318 594 253 594Q147 594 147 392Q147 327 164 261Q183 184 224 122Q278 40 342 40Q399 40 425 114Q443 165 443 236ZM554 324Q554 184 496 96Q427 -8 295 -8Q163 -8 94 97Q35 188 35 327Q35 458 98 545Q169 643 296 643Q420 643 491 542Q554 453 554 324ZM263 672H166V773H263V672ZM427 672H330V773H427V672Z"  />
<glyph unicode="&#xD7;" horiz-adv-x="490" d="M389 84L244 228L99 84L47 136L191 281L47 426L99 479L244 334L389 479L442 426L297 281L442 136L389 84Z"  />
<glyph unicode="&#xD8;" horiz-adv-x="598" d="M441 245Q441 355 405 441L212 139Q243 88 262 70Q293 40 338 40Q441 40 441 245ZM381 495Q319 594 249 594Q188 594 163 518Q145 467 145 392Q145 313 186 190L381 495ZM552 320Q552 183 493 94Q425 -8 294 -8Q215 -8 149 37L124 0H64L112 73Q71 144 54 193Q34 255 34 325Q34 457 97 544Q167 643 295 643Q345 643 376 632Q387 627 404 618T443 592L469 635H526L479 556Q552 471 552 320Z"  />
<glyph unicode="&#xD9;" horiz-adv-x="551" d="M502 184Q502 93 439 42Q380 -6 288 -6Q62 -6 62 215V630H186V217Q186 137 211 102Q255 40 325 40Q383 40 421 82Q457 121 457 181V630L502 629V184ZM372 671H304L220 766H315L372 671Z"  />
<glyph unicode="&#xDA;" horiz-adv-x="551" d="M502 184Q502 93 439 42Q380 -6 288 -6Q62 -6 62 215V630H186V217Q186 137 211 102Q255 40 325 40Q383 40 421 82Q457 121 457 181V630L502 629V184ZM396 767L312 672H244L301 767H396Z"  />
<glyph unicode="&#xDB;" horiz-adv-x="551" d="M502 184Q502 93 439 42Q380 -6 288 -6Q62 -6 62 215V630H186V217Q186 137 211 102Q255 40 325 40Q383 40 421 82Q457 121 457 181V630L502 629V184ZM429 672H363L296 747L229 672H166L227 767H368L429 672Z"  />
<glyph unicode="&#xDC;" horiz-adv-x="551" d="M502 184Q502 93 439 42Q380 -6 288 -6Q62 -6 62 215V630H186V217Q186 137 211 102Q255 40 325 40Q383 40 421 82Q457 121 457 181V630L502 629V184ZM263 672H166V773H263V672ZM427 672H330V773H427V672Z"  />
<glyph unicode="&#xDD;" horiz-adv-x="462" d="M451 631L310 249V0H186V220L9 631H148L285 305L403 631H451ZM348 767L264 672H196L253 767H348Z"  />
<glyph unicode="&#xDE;" horiz-adv-x="478" d="M350 435Q350 499 319 542Q284 590 224 590H183V324Q225 313 234 313Q286 313 318 348T350 435ZM465 463Q465 275 218 275Q212 275 200 275T183 276V0H62L61 690H183V633H267Q357 633 408 594Q465 550 465 463Z"  />
<glyph unicode="&#xDF;" horiz-adv-x="574" d="M537 138Q537 66 475 25Q422 -9 345 -9Q266 -9 208 25L267 100Q333 33 382 33Q406 33 423 46Q443 61 443 83Q443 108 388 151L292 225Q226 276 226 339Q226 441 339 479Q361 486 369 504Q372 514 372 545Q372 596 343 636Q312 679 261 679Q224 679 198 647Q176 619 176 578V0H57V465Q57 584 88 631Q147 720 270 720Q356 720 414 679Q476 632 476 548Q476 513 450 459Q383 453 364 447Q309 432 309 394Q309 376 360 336L468 251Q537 197 537 138Z"  />
<glyph unicode="&#xE0;" horiz-adv-x="454" d="M269 264Q202 235 181 217Q145 185 145 127Q145 54 190 54Q230 54 253 129Q269 180 269 236V264ZM272 0L269 98Q247 46 220 22Q186 -7 137 -7Q89 -7 58 21T26 98Q26 177 114 229Q130 239 168 256T269 296V324Q269 428 193 428Q145 428 59 367L43 390Q74 413 98 429T140 454Q191 479 252 479Q336 479 367 427Q389 389 389 295Q389 58 395 0H272ZM299 595H231L147 690H242L299 595Z"  />
<glyph unicode="&#xE1;" horiz-adv-x="454" d="M269 264Q202 235 181 217Q145 185 145 127Q145 54 190 54Q230 54 253 129Q269 180 269 236V264ZM272 0L269 98Q247 46 220 22Q186 -7 137 -7Q89 -7 58 21T26 98Q26 177 114 229Q130 239 168 256T269 296V324Q269 428 193 428Q145 428 59 367L43 390Q74 413 98 429T140 454Q191 479 252 479Q336 479 367 427Q389 389 389 295Q389 58 395 0H272ZM322 689L238 595H170L227 689H322Z"  />
<glyph unicode="&#xE2;" horiz-adv-x="454" d="M269 264Q202 235 181 217Q145 185 145 127Q145 54 190 54Q230 54 253 129Q269 180 269 236V264ZM272 0L269 98Q247 46 220 22Q186 -7 137 -7Q89 -7 58 21T26 98Q26 177 114 229Q130 239 168 256T269 296V324Q269 428 193 428Q145 428 59 367L43 390Q74 413 98 429T140 454Q191 479 252 479Q336 479 367 427Q389 389 389 295Q389 58 395 0H272ZM356 594H291L224 669Q224 669 216 660T196 638T173 613T157 594H91L152 689H295L356 594Z"  />
<glyph unicode="&#xE3;" horiz-adv-x="454" d="M269 264Q202 235 181 217Q145 185 145 127Q145 54 190 54Q230 54 253 129Q269 180 269 236V264ZM272 0L269 98Q247 46 220 22Q186 -7 137 -7Q89 -7 58 21T26 98Q26 177 114 229Q130 239 168 256T269 296V324Q269 428 193 428Q145 428 59 367L43 390Q74 413 98 429T140 454Q191 479 252 479Q336 479 367 427Q389 389 389 295Q389 58 395 0H272ZM362 688Q343 636 324 616T276 596Q267 596 249 602T211 615T174 629T149 636Q123 636 109 597L84 606Q102 657 121 677T170 697Q179 697 196 691T233 678T269 664T296 658Q321 658 336 696L362 688Z"  />
<glyph unicode="&#xE4;" horiz-adv-x="454" d="M269 264Q202 235 181 217Q145 185 145 127Q145 54 190 54Q230 54 253 129Q269 180 269 236V264ZM272 0L269 98Q247 46 220 22Q186 -7 137 -7Q89 -7 58 21T26 98Q26 177 114 229Q130 239 168 256T269 296V324Q269 428 193 428Q145 428 59 367L43 390Q74 413 98 429T140 454Q191 479 252 479Q336 479 367 427Q389 389 389 295Q389 58 395 0H272ZM185 592H88V696H185V592ZM358 592H260V696H358V592Z"  />
<glyph unicode="&#xE5;" horiz-adv-x="454" d="M269 264Q202 235 181 217Q145 185 145 127Q145 54 190 54Q230 54 253 129Q269 180 269 236V264ZM272 0L269 98Q247 46 220 22Q186 -7 137 -7Q89 -7 58 21T26 98Q26 177 114 229Q130 239 168 256T269 296V324Q269 428 193 428Q145 428 59 367L43 390Q74 413 98 429T140 454Q191 479 252 479Q336 479 367 427Q389 389 389 295Q389 58 395 0H272ZM148 648Q148 680 172 703T228 726Q260 726 284 703T308 648Q308 616 284 593T228 570Q196 570 172 593T148 648ZM183 648Q183 629 196 616T228 603Q247 603 260 616T274 648Q274 667 261 680T228 694Q209 694 196 681T183 648Z"  />
<glyph unicode="&#xE6;" horiz-adv-x="699" d="M281 219Q217 203 196 190Q157 167 157 115Q157 90 167 71Q180 49 204 49Q276 49 281 219ZM526 317Q512 437 450 437Q421 437 406 403Q394 377 394 344Q394 339 394 332T395 313V282L526 317ZM661 46Q638 30 620 19T588 3Q555 -10 505 -10Q375 -10 317 95Q248 -11 146 -11Q99 -11 67 15Q35 42 35 89Q35 155 100 193Q116 201 146 212T223 236L281 252Q276 355 275 362Q261 427 204 427Q154 427 69 367L53 390Q84 413 108 429T150 454Q202 478 263 478Q342 478 364 429Q425 479 486 479Q625 479 648 318L400 251Q409 161 448 109Q494 46 577 46Q608 46 648 68L661 46Z"  />
<glyph unicode="&#xE7;" horiz-adv-x="409" d="M347 -107Q347 -153 310 -178T207 -203Q183 -203 161 -198L168 -160Q173 -162 182 -163T202 -164Q234 -164 255 -152T277 -120Q277 -106 267 -97T242 -88Q225 -88 200 -100L178 -82L207 -7Q131 7 89 61Q34 126 34 238Q34 336 86 403Q143 477 238 477Q293 477 328 454Q359 432 387 381L279 329Q253 437 202 437Q146 437 146 316Q146 207 183 137Q229 46 328 46Q359 46 400 68L412 46Q389 30 371 19T339 3Q303 -11 257 -11H242L230 -50Q244 -45 256 -43T278 -40Q310 -40 328 -59T347 -107Z"  />
<glyph unicode="&#xE8;" horiz-adv-x="445" d="M274 283V295Q274 347 260 384Q240 437 199 437Q142 437 142 320Q142 318 142 313T143 301V283H274ZM409 46Q365 15 336 3Q299 -11 253 -11Q144 -11 86 61Q31 126 31 238Q31 336 83 403Q139 477 234 477Q312 477 357 424Q399 374 399 295Q399 297 399 286T397 251H147Q175 46 323 46Q358 46 396 68L409 46ZM294 595H226L142 690H237L294 595Z"  />
<glyph unicode="&#xE9;" horiz-adv-x="445" d="M274 283V295Q274 347 260 384Q240 437 199 437Q142 437 142 320Q142 318 142 313T143 301V283H274ZM409 46Q365 15 336 3Q299 -11 253 -11Q144 -11 86 61Q31 126 31 238Q31 336 83 403Q139 477 234 477Q312 477 357 424Q399 374 399 295Q399 297 399 286T397 251H147Q175 46 323 46Q358 46 396 68L409 46ZM319 689L235 595H167L224 689H319Z"  />
<glyph unicode="&#xEA;" horiz-adv-x="445" d="M274 283V295Q274 347 260 384Q240 437 199 437Q142 437 142 320Q142 318 142 313T143 301V283H274ZM409 46Q365 15 336 3Q299 -11 253 -11Q144 -11 86 61Q31 126 31 238Q31 336 83 403Q139 477 234 477Q312 477 357 424Q399 374 399 295Q399 297 399 286T397 251H147Q175 46 323 46Q358 46 396 68L409 46ZM364 594H299L232 669Q232 669 224 660T204 638T181 613T165 594H99L160 689H303L364 594Z"  />
<glyph unicode="&#xEB;" horiz-adv-x="445" d="M274 283V295Q274 347 260 384Q240 437 199 437Q142 437 142 320Q142 318 142 313T143 301V283H274ZM409 46Q365 15 336 3Q299 -11 253 -11Q144 -11 86 61Q31 126 31 238Q31 336 83 403Q139 477 234 477Q312 477 357 424Q399 374 399 295Q399 297 399 286T397 251H147Q175 46 323 46Q358 46 396 68L409 46ZM193 592H96V696H193V592ZM366 592H268V696H366V592Z"  />
<glyph unicode="&#xEC;" horiz-adv-x="248" d="M181 0H61L62 467H181V0ZM180 595H112L28 690H123L180 595Z"  />
<glyph unicode="&#xED;" horiz-adv-x="248" d="M181 0H61L62 467H181V0ZM222 689L138 595H70L127 689H222Z"  />
<glyph unicode="&#xEE;" horiz-adv-x="248" d="M181 0H61L62 467H181V0ZM258 594H193L126 669Q126 669 118 660T98 638T75 613T59 594H-7L54 689H197L258 594Z"  />
<glyph unicode="&#xEF;" horiz-adv-x="248" d="M181 0H61L62 467H181V0ZM86 592H-11V696H86V592ZM259 592H161V696H259V592Z"  />
<glyph unicode="&#xF0;" horiz-adv-x="528" d="M514 569H410Q493 459 493 312Q493 186 428 94Q355 -9 234 -9Q161 -9 118 51Q81 103 81 181Q81 352 243 474L253 470L269 454Q193 391 193 279Q193 215 219 139Q252 43 304 44L309 45Q345 46 376 106Q397 146 397 224Q397 272 387 319T359 411T314 496T254 569H37V614H201Q193 621 162 641T76 696H260Q297 673 324 652T370 614H514V569Z"  />
<glyph unicode="&#xF1;" horiz-adv-x="529" d="M461 0H339V317Q339 387 307 387Q262 387 222 297Q208 265 200 229T187 151Q185 132 184 95T183 0H63V467H183V264Q204 344 251 405Q310 479 383 479Q438 479 455 420Q461 396 461 314V0ZM401 688Q382 636 363 616T315 596Q306 596 288 602T250 615T213 629T188 636Q162 636 148 597L123 606Q141 657 160 677T209 697Q218 697 235 691T272 678T308 664T335 658Q360 658 375 696L401 688Z"  />
<glyph unicode="&#xF2;" horiz-adv-x="493" d="M343 139Q343 216 310 317Q268 442 207 442Q147 442 147 340Q147 260 181 159Q223 32 284 32Q343 32 343 139ZM454 230Q454 127 404 62Q350 -10 250 -10Q147 -10 89 65Q36 135 36 240Q36 343 87 408Q142 478 243 478Q343 478 401 402Q454 332 454 230ZM289 595H221L137 690H232L289 595Z"  />
<glyph unicode="&#xF3;" horiz-adv-x="493" d="M343 139Q343 216 310 317Q268 442 207 442Q147 442 147 340Q147 260 181 159Q223 32 284 32Q343 32 343 139ZM454 230Q454 127 404 62Q350 -10 250 -10Q147 -10 89 65Q36 135 36 240Q36 343 87 408Q142 478 243 478Q343 478 401 402Q454 332 454 230ZM340 689L256 595H188L245 689H340Z"  />
<glyph unicode="&#xF4;" horiz-adv-x="493" d="M343 139Q343 216 310 317Q268 442 207 442Q147 442 147 340Q147 260 181 159Q223 32 284 32Q343 32 343 139ZM454 230Q454 127 404 62Q350 -10 250 -10Q147 -10 89 65Q36 135 36 240Q36 343 87 408Q142 478 243 478Q343 478 401 402Q454 332 454 230ZM377 594H312L245 669Q245 669 237 660T217 638T194 613T178 594H112L173 689H316L377 594Z"  />
<glyph unicode="&#xF5;" horiz-adv-x="493" d="M343 139Q343 216 310 317Q268 442 207 442Q147 442 147 340Q147 260 181 159Q223 32 284 32Q343 32 343 139ZM454 230Q454 127 404 62Q350 -10 250 -10Q147 -10 89 65Q36 135 36 240Q36 343 87 408Q142 478 243 478Q343 478 401 402Q454 332 454 230ZM383 688Q364 636 345 616T297 596Q288 596 270 602T232 615T195 629T170 636Q144 636 130 597L105 606Q123 657 142 677T191 697Q200 697 217 691T254 678T290 664T317 658Q342 658 357 696L383 688Z"  />
<glyph unicode="&#xF6;" horiz-adv-x="493" d="M343 139Q343 216 310 317Q268 442 207 442Q147 442 147 340Q147 260 181 159Q223 32 284 32Q343 32 343 139ZM454 230Q454 127 404 62Q350 -10 250 -10Q147 -10 89 65Q36 135 36 240Q36 343 87 408Q142 478 243 478Q343 478 401 402Q454 332 454 230ZM206 592H109V696H206V592ZM379 592H281V696H379V592Z"  />
<glyph unicode="&#xF7;" horiz-adv-x="490" d="M298 423Q298 401 282 386T244 370Q221 370 206 385T190 423Q190 446 205 461T244 476Q267 476 282 461T298 423ZM41 246V316H448V246H41ZM298 139Q298 116 282 101T244 86Q222 86 206 101T190 139Q190 161 206 176T244 192Q267 192 282 177T298 139Z"  />
<glyph unicode="&#xF8;" horiz-adv-x="494" d="M343 135Q343 206 320 287L190 133Q240 32 282 32Q343 32 343 135ZM309 321Q285 379 272 397Q244 443 208 443Q147 443 147 337Q147 257 178 167L309 321ZM462 455Q452 445 439 430T409 392Q454 315 454 227Q454 125 403 61Q348 -9 249 -9Q190 -9 150 13L112 41L67 -10L42 11L91 65Q36 130 36 241Q36 343 86 408Q141 478 241 478Q282 478 323 463Q371 446 390 417L439 474L462 455Z"  />
<glyph unicode="&#xF9;" horiz-adv-x="524" d="M458 0H338V204Q319 125 270 62Q212 -11 138 -11Q80 -11 65 46Q60 69 60 153V467H181V150Q181 81 213 81Q257 81 298 170Q327 235 334 316Q336 336 337 373T338 467H458V0ZM321 595H253L169 690H264L321 595Z"  />
<glyph unicode="&#xFA;" horiz-adv-x="524" d="M458 0H338V204Q319 125 270 62Q212 -11 138 -11Q80 -11 65 46Q60 69 60 153V467H181V150Q181 81 213 81Q257 81 298 170Q327 235 334 316Q336 336 337 373T338 467H458V0ZM355 689L271 595H203L260 689H355Z"  />
<glyph unicode="&#xFB;" horiz-adv-x="524" d="M458 0H338V204Q319 125 270 62Q212 -11 138 -11Q80 -11 65 46Q60 69 60 153V467H181V150Q181 81 213 81Q257 81 298 170Q327 235 334 316Q336 336 337 373T338 467H458V0ZM399 594H334L267 669Q267 669 259 660T239 638T216 613T200 594H134L195 689H338L399 594Z"  />
<glyph unicode="&#xFC;" horiz-adv-x="524" d="M458 0H338V204Q319 125 270 62Q212 -11 138 -11Q80 -11 65 46Q60 69 60 153V467H181V150Q181 81 213 81Q257 81 298 170Q327 235 334 316Q336 336 337 373T338 467H458V0ZM228 592H131V696H228V592ZM401 592H303V696H401V592Z"  />
<glyph unicode="&#xFD;" horiz-adv-x="414" d="M410 467L158 -229H107L189 1L6 467H137L250 166L359 467H410ZM313 689L229 595H161L218 689H313Z"  />
<glyph unicode="&#xFE;" horiz-adv-x="526" d="M375 151Q375 223 352 303Q319 408 262 408Q224 408 205 354Q190 313 190 270Q190 200 216 127Q250 34 311 34Q347 34 363 77Q375 108 375 151ZM484 243Q484 151 440 77Q389 -9 301 -9Q260 -9 235 7Q213 20 187 57V-228H69V694H191L190 394Q232 478 310 478Q396 478 444 400Q484 336 484 243Z"  />
<glyph unicode="&#xFF;" horiz-adv-x="414" d="M410 467L158 -229H107L189 1L6 467H137L250 166L359 467H410ZM175 592H78V696H175V592ZM348 592H250V696H348V592Z"  />
<glyph unicode="&#x131;" horiz-adv-x="248" d="M181 0H61L62 467H181V0Z"  />
<glyph unicode="&#x152;" horiz-adv-x="816" d="M443 235Q443 306 428 372Q408 454 370 512Q317 593 251 593Q141 593 141 392Q141 329 158 261Q177 183 220 121Q275 39 341 39Q399 39 425 113Q443 165 443 235ZM784 45L783 0H439L440 37Q398 10 371 2Q341 -8 293 -8Q161 -8 92 97Q33 188 33 327Q33 458 96 545Q167 643 293 643Q386 643 440 592V629H771V582H560V349H759V300L560 301L561 45H784Z"  />
<glyph unicode="&#x153;" horiz-adv-x="744" d="M340 137Q340 218 307 317Q266 442 203 442Q170 442 154 405Q142 376 142 339Q142 262 177 159Q220 33 280 33Q340 33 340 137ZM573 284Q568 336 555 377Q534 438 498 438Q441 438 441 320Q441 313 441 304T443 284H573ZM708 47Q685 31 667 20T635 4Q599 -10 552 -10Q447 -10 392 54Q332 -8 243 -8Q142 -8 84 68Q32 136 32 241Q32 343 82 408Q138 479 237 479Q328 479 389 409Q440 478 533 478Q615 478 659 421Q697 369 697 284Q697 273 697 265T696 251H446Q476 47 623 47Q658 47 695 69L708 47Z"  />
<glyph unicode="&#x160;" horiz-adv-x="449" d="M413 179Q413 93 347 38Q285 -13 197 -13Q90 -13 32 31L105 126Q129 90 165 65Q208 36 243 36Q276 36 304 56Q333 79 333 111Q333 151 256 217L149 308Q93 354 77 377Q48 418 48 470Q48 555 106 601Q158 643 246 643Q304 643 392 611L329 512Q253 597 193 597Q167 597 148 581T129 539Q129 501 203 439Q332 334 339 325Q413 251 413 179ZM375 764L304 670H161L90 764H155L234 690L310 764H375Z"  />
<glyph unicode="&#x161;" horiz-adv-x="366" d="M339 136Q339 65 279 23Q226 -14 151 -14Q83 -14 21 11L73 88Q140 28 187 28Q209 28 229 42Q250 57 250 78Q250 109 194 151Q97 223 91 229Q35 280 35 336Q35 404 83 443Q128 479 198 479Q269 479 321 453L275 376Q204 437 158 437Q113 437 113 401Q113 370 171 325L280 241Q339 188 339 136ZM330 688L259 594H116L45 688H110L189 614L265 688H330Z"  />
<glyph unicode="&#x178;" horiz-adv-x="462" d="M451 631L310 249V0H186V220L9 631H148L285 305L403 631H451ZM213 672H116V773H213V672ZM377 672H280V773H377V672Z"  />
<glyph unicode="&#x17D;" horiz-adv-x="470" d="M428 46L427 0H38V43L289 580L48 581V630H422V572L181 46H428ZM380 764L309 670H166L95 764H160L239 690L315 764H380Z"  />
<glyph unicode="&#x17E;" horiz-adv-x="429" d="M391 423L176 46L382 47V0H29V40L249 421H39V467H391V423ZM361 688L290 594H147L76 688H141L220 614L296 688H361Z"  />
<glyph unicode="&#x192;" horiz-adv-x="490" d="M455 637Q431 667 405 667Q380 667 361 652T331 604Q327 593 322 564T311 495L307 467H445L435 423H300L238 0Q223 -104 169 -155T22 -207Q-36 -207 -80 -179L-28 -139Q-7 -169 22 -169Q41 -169 56 -161T82 -133T102 -81T118 1L179 425H107L116 467H189Q200 528 212 570T244 638Q293 705 405 705Q461 705 507 677L455 637Z"  />
<glyph unicode="&#x2C6;" horiz-adv-x="400" d="M332 594H267L200 669Q200 669 192 660T172 638T149 613T133 594H67L128 689H271L332 594Z"  />
<glyph unicode="&#x2C7;" horiz-adv-x="400" d="M342 688L271 594H128L57 688H122L201 614L277 688H342Z"  />
<glyph unicode="&#x2DA;" horiz-adv-x="400" d="M120 648Q120 680 144 703T200 726Q232 726 256 703T280 648Q280 616 256 593T200 570Q168 570 144 593T120 648ZM155 648Q155 629 168 616T200 603Q219 603 232 616T246 648Q246 667 233 680T200 694Q181 694 168 681T155 648Z"  />
<glyph unicode="&#x2DC;" horiz-adv-x="400" d="M339 688Q320 636 301 616T253 596Q244 596 226 602T188 615T151 629T126 636Q100 636 86 597L61 606Q79 657 98 677T147 697Q156 697 173 691T210 678T246 664T273 658Q298 658 313 696L339 688Z"  />
<glyph unicode="&#x2013;" horiz-adv-x="500" d="M501 271H0V328H501V271Z"  />
<glyph unicode="&#x2014;" horiz-adv-x="1000" d="M833 271H167V328H833V271Z"  />
<glyph unicode="&#x2018;" horiz-adv-x="174" d="M147 743L122 545H25L83 743H147Z"  />
<glyph unicode="&#x2019;" horiz-adv-x="176" d="M159 695L101 497H37L62 694L159 695Z"  />
<glyph unicode="&#x201A;" horiz-adv-x="192" d="M156 110L98 -87H34L59 111L156 110Z"  />
<glyph unicode="&#x201C;" horiz-adv-x="295" d="M148 743L123 545H26L84 743H148ZM270 743L245 545H148L205 743H270Z"  />
<glyph unicode="&#x201D;" horiz-adv-x="319" d="M163 694L106 496H41L65 694H163ZM285 694L227 496H163L188 694H285Z"  />
<glyph unicode="&#x201E;" horiz-adv-x="306" d="M152 111L95 -87H30L55 111H152ZM274 111L216 -87H152L177 111H274Z"  />
<glyph unicode="&#x2020;" horiz-adv-x="470" d="M454 463H277V0H192V463H17V521L191 522V708H277V522H454V463Z"  />
<glyph unicode="&#x2021;" horiz-adv-x="489" d="M460 463H283L284 245H459V187L285 186V0H198V186H21V245H198V463H23V523L197 522V708H283V522H460V463Z"  />
<glyph unicode="&#x2022;" horiz-adv-x="295" d="M246 314Q246 294 238 278T217 248T186 228T149 221Q109 221 81 247T52 314Q52 333 59 350T80 379T111 399T149 406Q168 406 186 399T217 380T238 350T246 314Z"  />
<glyph unicode="&#x2026;" horiz-adv-x="676" d="M163 0H52V111L163 110V0ZM393 0H282V111L393 110V0ZM622 0H511V111L622 110V0Z"  />
<glyph unicode="&#x2030;" horiz-adv-x="828" d="M477 65Q477 112 449 172Q418 245 379 245Q346 245 346 196Q346 154 375 90Q406 18 444 18Q477 18 477 65ZM212 406Q212 452 185 514Q154 587 112 587Q79 587 79 537Q79 494 108 431Q142 361 180 361Q212 361 212 406ZM750 65Q750 111 723 173Q691 245 652 245Q619 245 619 196Q619 149 647 89Q678 17 717 17Q750 17 750 65ZM529 131Q529 74 500 34Q469 -9 412 -9Q356 -9 323 35Q294 76 294 133Q294 189 323 229Q355 273 410 273Q467 273 500 229Q529 189 529 131ZM457 605L158 0H93L395 605H457ZM262 472Q262 416 235 376Q203 332 150 332Q92 332 59 377Q28 417 28 477Q28 533 57 571Q88 614 142 614Q201 614 232 571Q262 530 262 472ZM801 131Q801 74 772 34Q741 -9 684 -9Q628 -9 595 35Q566 76 566 133Q566 190 596 229Q628 273 683 273Q739 273 772 229Q801 188 801 131Z"  />
<glyph unicode="&#x2039;" horiz-adv-x="274" d="M235 115H127L26 282L135 467H230L126 298L235 115Z"  />
<glyph unicode="&#x203A;" horiz-adv-x="271" d="M246 299L138 115H42L146 285L37 467H146L246 299Z"  />
<glyph unicode="&#x20AC;" horiz-adv-x="490" d="M77 380Q85 438 107 487T162 570T238 624T331 644Q369 644 407 633T487 590L416 503Q387 555 357 577T294 599Q274 599 255 589T219 554T193 487T183 380H390L381 335H184Q186 318 188 302T192 269H370L361 224H203Q222 152 262 106T365 60Q392 60 417 70T472 104L492 80Q451 39 411 17T312 -5Q216 -5 156 55T79 224H9L17 269H74Q73 278 73 287T73 308V335H9L17 380H77Z"  />
<glyph unicode="&#x2122;" horiz-adv-x="800" d="M299 631V591H212V255H121V591H33V631H299ZM733 631V255H642V538L550 255H491L390 539V255H347V631H450L542 357L628 631H733Z"  />
<glyph unicode="&#xE300;" horiz-adv-x="400" d="M276 671H208L124 766H219L276 671Z"  />
<glyph unicode="&#xE301;" horiz-adv-x="400" d="M276 767L192 672H124L181 767H276Z"  />
<glyph unicode="&#xE302;" horiz-adv-x="400" d="M331 672H265L198 747L131 672H68L129 767H270L331 672Z"  />
<glyph unicode="&#xE303;" horiz-adv-x="400" d="M342 764L271 670H128L57 764H122L201 690L277 764H342Z"  />
<glyph unicode="&#xE304;" horiz-adv-x="400" d="M338 763Q321 712 302 692T253 672Q244 672 226 678T188 691T151 705T126 712Q102 712 86 673L62 683Q79 733 98 753T147 773Q156 773 174 767T211 754T247 740T273 734Q299 734 314 772L338 763Z"  />
<glyph unicode="&#xE305;" horiz-adv-x="400" d="M166 672H69V773H166V672ZM330 672H233V773H330V672Z"  />
<glyph unicode="&#xE308;" horiz-adv-x="400" d="M120 740Q120 772 144 795T200 818Q232 818 256 795T280 740Q280 708 256 685T200 662Q168 662 144 685T120 740ZM155 740Q155 721 168 708T200 695Q219 695 232 708T246 740Q246 759 233 772T200 786Q181 786 168 773T155 740Z"  />

</font>
</defs>
</svg>
