<?xml  version="1.0" encoding="UTF-8"?>
<!DOCTYPE svg PUBLIC "-//W3C//DTD SVG 1.0//EN" "http://www.w3.org/TR/2001/REC-SVG-20010904/DTD/svg10.dtd" >
<svg xmlns="http://www.w3.org/2000/svg" >
<metadata>
<version>1.0</version>
<id><![CDATA[Linotype Nautilus W01 Rm SC]]></id>
<vendor>Monotype Imaging Inc.</vendor>
<credits>
<name>Fonts.com WebFonts</name>
<URL>http://webfonts.fonts.com</URL>
<role>Home of the Web fonts</role>
</credits>
<license>
<URL>http://webfonts.fonts.com/Legal</URL>
</license>
<copyright><![CDATA[Copyright © 2002 - 2005 Linotype GmbH, www.linotype.com. All rights reserved. This font software may not be reproduced, modified, disclosed or transferred without the express written approval of Linotype GmbH. Linotype Nautilus is a trademark of Heidelberger Druckmaschinen AG which may be registered in certain jurisdictions, exclusively licensed through Linotype GmbH. This typeface is original artwork of Hellmut G. Bomm. The design may be protected in certain jurisdictions.]]></copyright>
<trademark><![CDATA[Linotype Nautilus is a trademark of Heidelberger Druckmaschinen AG which may be registered in certain jurisdictions, exclusively licensed through Linotype GmbH.]]></trademark>
<licensee>
<name></name>
</licensee>
</metadata>
<defs >
<font horiz-adv-x="881" id="bf3e8ab6-b4b5-4c57-9f08-e9a18b37cda2">
<font-face font-family="" panose-1="2 0 5 6 0 0 0 2 0 4" ascent="1675" descent="-461" units-per-em="2048" alphabetic="0">
</font-face>
<missing-glyph horiz-adv-x="0" />

<glyph unicode="&#xA;" />
<glyph unicode="&#xD;" horiz-adv-x="0" />
<glyph unicode=" " horiz-adv-x="502" />
<glyph unicode="!" horiz-adv-x="500" d="M319 1423L309 424H168L158 1423H319ZM319 0H158V209H319V0Z"  />
<glyph unicode="&quot;" horiz-adv-x="655" d="M524 1421L479 1016H391L367 1421H524ZM293 1421L250 1016H160L135 1421H293Z"  />
<glyph unicode="#" horiz-adv-x="1448" d="M1401 985L1358 862H1047L952 590H1282L1239 467H907L741 0H596L764 467H500L332 0H188L354 467H35L78 590H397L494 862H152L195 985H539L707 1456H852L686 985H946L1114 1456H1257L1094 985H1401ZM903 862H639L545 590H807L903 862Z"  />
<glyph unicode="$" horiz-adv-x="915" d="M836 338Q836 190 731 85Q632 -13 481 -35V-152H432V-39Q425 -38 367 -35Q287 -31 210 -2Q117 33 84 88L186 186Q285 85 432 70V549Q245 708 228 727Q129 836 129 971Q129 1222 430 1294V1401H481V1298Q501 1305 518 1305Q685 1305 813 1200L723 1090Q680 1151 617 1178Q575 1197 481 1212V791Q597 695 713 600Q836 483 836 338ZM432 829L430 1212Q281 1186 281 1067Q281 1004 330 933Q372 871 432 829ZM692 236Q692 346 479 514V68H502Q568 68 630 119T692 236Z"  />
<glyph unicode="%" horiz-adv-x="1034" d="M477 969Q477 855 432 778Q378 684 272 684Q165 684 107 782Q59 864 59 979Q59 1088 107 1167Q164 1260 266 1260Q373 1260 430 1163Q477 1083 477 969ZM883 1239L268 0H137L756 1239H883ZM969 266Q969 153 924 76Q869 -18 764 -18Q655 -18 597 79Q549 160 549 276Q549 388 598 466Q655 557 761 557Q864 557 921 459Q969 377 969 266ZM381 842Q381 944 346 1058Q300 1208 223 1208Q156 1208 156 1083Q156 990 194 874Q243 727 315 727Q381 727 381 842ZM872 137Q872 240 837 355Q790 506 713 506Q645 506 645 381Q645 287 684 170Q732 23 805 23Q872 23 872 137Z"  />
<glyph unicode="&amp;" horiz-adv-x="1016" d="M991 0H782L696 119Q535 -31 354 -31Q205 -31 111 57Q14 147 14 295Q14 436 127 553Q179 592 279 676Q150 858 150 989Q150 1116 245 1203Q337 1288 465 1288Q578 1288 656 1222Q737 1152 737 1040Q737 933 651 838Q595 777 473 698L760 301Q807 365 848 446L907 416Q859 319 803 248L991 0ZM592 997Q592 1077 552 1133Q507 1196 430 1196Q375 1196 340 1158T305 1063Q305 943 434 768Q592 863 592 997ZM645 180L330 602Q193 490 193 362Q193 253 258 175Q327 92 434 92Q519 92 645 180Z"  />
<glyph unicode="&apos;" horiz-adv-x="436" d="M291 1425L248 1020H158L133 1425H291Z"  />
<glyph unicode="(" horiz-adv-x="623" d="M520 -336H350Q224 -114 172 86Q121 283 121 541Q121 835 177 1053Q239 1295 389 1522H508Q388 1310 341 1092Q299 902 299 633Q299 78 520 -336Z"  />
<glyph unicode=")" horiz-adv-x="621" d="M500 541Q500 282 448 85Q396 -115 268 -336H98Q322 87 322 633Q322 902 280 1092Q232 1310 113 1522H231Q382 1294 444 1053Q500 837 500 541Z"  />
<glyph unicode="*" horiz-adv-x="868" d="M842 1020H504L670 733L594 690L428 973L262 688L188 731L358 1020H27V1106H352L184 1395L260 1440L428 1147L594 1438L670 1395L508 1106H842V1020Z"  />
<glyph unicode="+" horiz-adv-x="1149" d="M1038 406H655V0H500V406H100V549H504V956H653V549H1038V406Z"  />
<glyph unicode="&#x2c;" horiz-adv-x="369" d="M307 227L166 -195H72L145 227H307Z"  />
<glyph unicode="-" horiz-adv-x="705" d="M535 557H160V672H535V557Z"  />
<glyph unicode="." horiz-adv-x="367" d="M256 0H94V205H256V0Z"  />
<glyph unicode="/" horiz-adv-x="737" d="M719 1423L178 -51H61L612 1423H719Z"  />
<glyph unicode="0" horiz-adv-x="981" d="M918 463Q918 262 809 127Q691 -18 496 -18Q302 -18 182 141Q72 286 72 485Q72 695 180 831Q298 979 502 979Q705 979 818 817Q918 676 918 463ZM760 424Q760 591 699 722Q621 891 473 891Q345 891 284 758Q238 658 238 514Q238 358 303 228Q385 68 526 68Q652 68 713 190Q760 284 760 424Z"  />
<glyph unicode="1" horiz-adv-x="684" d="M539 0L369 2L371 805L78 610L45 672L537 1018L539 0Z"  />
<glyph unicode="2" horiz-adv-x="864" d="M788 0H104V80Q219 171 339 277T507 445Q592 554 592 662Q592 748 533 808T387 868Q271 868 158 741L109 780Q274 1004 471 1004Q606 1004 686 928T766 719Q766 594 695 495Q655 439 526 322Q408 214 317 137L788 139V0Z"  />
<glyph unicode="3" horiz-adv-x="817" d="M752 150Q752 -9 608 -143Q508 -237 347 -289Q251 -320 51 -354L43 -295Q275 -258 396 -173Q555 -62 555 145Q555 288 474 329Q435 348 266 362L268 416Q512 450 512 649Q512 743 459 803Q403 866 311 866Q239 866 179 828Q138 803 74 735L35 772Q194 973 391 973Q510 973 594 910Q686 840 686 725Q686 619 608 534Q537 457 430 426Q752 410 752 150Z"  />
<glyph unicode="4" horiz-adv-x="895" d="M836 2L698 0V-324L535 -322L537 0L66 2L63 86L549 954H696L698 133H836V2ZM539 764L195 129H537L539 764Z"  />
<glyph unicode="5" horiz-adv-x="819" d="M686 236Q686 120 605 -5Q533 -115 428 -190Q265 -307 59 -375L39 -326Q266 -225 366 -141Q526 -5 526 184Q526 342 383 431Q266 504 96 510L158 956H670V825H229L211 670Q324 646 375 630Q470 601 526 559Q686 440 686 236Z"  />
<glyph unicode="6" horiz-adv-x="952" d="M868 465Q868 274 766 137Q653 -14 469 -14Q286 -14 180 136Q86 270 86 461Q86 860 440 1147Q542 1229 760 1331L788 1278Q564 1162 445 1021Q311 863 272 633Q369 844 561 844Q708 844 793 724Q868 618 868 465ZM717 381Q717 490 662 588Q596 705 496 705Q388 705 332 614Q285 538 285 424Q285 303 340 204Q406 86 518 86Q620 86 674 188Q717 269 717 381Z"  />
<glyph unicode="7" horiz-adv-x="856" d="M764 834L209 -317L115 -283L639 803H100L102 956H764V834Z"  />
<glyph unicode="8" horiz-adv-x="918" d="M821 344Q821 190 707 83Q596 -20 440 -20Q294 -20 194 66Q90 157 90 301Q90 517 342 631Q228 684 176 750Q117 825 117 942Q117 1091 209 1178T451 1266Q588 1266 681 1191Q782 1110 782 977Q782 879 725 801T573 688Q695 613 748 549Q821 462 821 344ZM633 944Q633 1043 576 1116Q514 1196 418 1196Q339 1196 294 1138Q254 1085 254 1004Q254 825 498 715Q633 788 633 944ZM662 279Q662 481 424 598Q248 559 248 367Q248 254 305 166Q370 66 477 66Q560 66 613 132Q662 193 662 279Z"  />
<glyph unicode="9" horiz-adv-x="930" d="M850 504Q850 104 496 -180Q390 -265 176 -367L150 -313Q373 -196 492 -56Q627 103 664 332Q568 121 375 121Q229 121 144 241Q70 348 70 500Q70 690 172 828Q285 979 469 979Q651 979 757 828Q850 694 850 504ZM651 539Q651 659 597 759Q531 879 420 879Q318 879 264 776Q221 694 221 582Q221 474 276 375Q340 258 440 258Q547 258 604 349Q651 425 651 539Z"  />
<glyph unicode=":" horiz-adv-x="334" d="M246 725H84V954H246V725ZM246 0H84V227L246 229V0Z"  />
<glyph unicode=";" horiz-adv-x="362" d="M305 725H143V954H305V725ZM305 227L164 -195H70L143 227H305Z"  />
<glyph unicode="&lt;" horiz-adv-x="1180" d="M1104 -16L-59 530L1104 1053V924L317 569L1104 190V-16Z"  />
<glyph unicode="=" horiz-adv-x="918" d="M805 719H100V827H805V719ZM805 465H100V573H805V465Z"  />
<glyph unicode="&gt;" horiz-adv-x="1178" d="M1229 504L66 -18V113L852 465L66 844V1051L1229 504Z"  />
<glyph unicode="?" horiz-adv-x="793" d="M733 1116Q733 845 360 440L289 487Q547 848 547 1085Q547 1169 495 1232Q440 1298 358 1298Q239 1298 109 1149L59 1190Q152 1312 215 1361Q310 1434 430 1434Q564 1434 650 1341Q733 1251 733 1116ZM457 0H295V199H457V0Z"  />
<glyph unicode="@" horiz-adv-x="1632" d="M1481 778Q1481 537 1315 373Q1174 233 1030 233Q915 233 911 352Q865 315 819 278Q761 233 680 233Q559 233 480 325Q403 412 403 535Q403 732 521 887Q648 1055 840 1055Q982 1055 1055 907L1094 1024H1221Q1173 865 1125 705Q1053 458 1053 412Q1053 356 1092 356Q1204 356 1287 509Q1358 640 1358 764Q1358 982 1203 1119Q1055 1249 834 1249Q583 1249 419 1071Q260 898 260 645Q260 397 428 227T846 57Q1108 57 1305 272L1401 229Q1195 -59 842 -59Q540 -59 332 148T123 657Q123 950 332 1158T834 1366Q1094 1366 1283 1205Q1481 1035 1481 778ZM997 745Q997 812 954 864Q909 920 844 920Q723 920 637 792Q559 677 559 551Q559 475 599 424Q642 369 717 369Q832 369 919 503Q997 624 997 745Z"  />
<glyph unicode="A" horiz-adv-x="950" d="M922 0H737L625 362H229L127 0H20L399 1292H512L922 0ZM598 449L416 1047L254 451L598 449Z"  />
<glyph unicode="B" horiz-adv-x="971" d="M879 360Q879 176 750 82Q636 -2 442 -2Q436 -2 143 0V1286Q400 1290 413 1290Q807 1290 807 999Q807 762 539 696Q879 656 879 360ZM641 942Q641 1063 584 1139Q520 1225 403 1225Q365 1225 319 1219V725H350Q492 725 556 762Q641 811 641 942ZM702 319Q702 473 608 555Q519 633 362 633H322V70Q395 61 428 61Q555 61 628 127T702 319Z"  />
<glyph unicode="C" horiz-adv-x="991" d="M924 156Q771 -10 575 -10Q325 -10 197 203Q92 379 92 647Q92 903 194 1090Q320 1321 555 1321Q739 1321 901 1135L780 1038Q674 1229 516 1229Q260 1229 260 756Q260 521 346 333Q457 92 664 92Q768 92 885 193L924 156Z"  />
<glyph unicode="D" horiz-adv-x="1040" d="M973 670Q973 322 782 133Q702 53 612 24Q538 0 414 0H137V1290Q242 1290 453 1288Q721 1285 855 1107Q973 948 973 670ZM784 592Q784 1217 422 1217H311L309 76H430Q621 76 698 182Q784 301 784 592Z"  />
<glyph unicode="E" horiz-adv-x="831" d="M768 92L766 0H135L137 1288H741V1192H309V715H717V614L309 616L311 92H768Z"  />
<glyph unicode="F" horiz-adv-x="778" d="M748 1192H315V715H723V614L315 616L317 0H141L143 1288H748V1192Z"  />
<glyph unicode="G" horiz-adv-x="1081" d="M977 717L975 176Q916 87 810 34Q708 -16 598 -16Q334 -16 201 198Q90 377 90 657Q90 939 205 1112Q341 1317 608 1317Q752 1317 924 1223L842 1102Q743 1229 573 1229Q250 1229 250 758Q250 520 341 328Q457 84 668 84Q742 84 801 139V629H559V715L977 717Z"  />
<glyph unicode="H" horiz-adv-x="1092" d="M942 0H768V627H322V0H147V1288H322V717H768V1288H942V0Z"  />
<glyph unicode="I" horiz-adv-x="449" d="M311 1288L309 0H135V1288H311Z"  />
<glyph unicode="J" horiz-adv-x="678" d="M539 442Q539 304 517 231Q487 126 397 61Q301 -8 184 -8Q58 -8 -31 63L57 137Q97 70 190 70Q362 70 362 335Q362 356 361 393T360 446V1292H539V442Z"  />
<glyph unicode="K" horiz-adv-x="922" d="M920 2L700 0L315 614V0H141V1288H315V686L762 1288H883L461 721L920 2Z"  />
<glyph unicode="L" horiz-adv-x="774" d="M762 0H133V1288H307V84H762V0Z"  />
<glyph unicode="M" horiz-adv-x="1343" d="M1198 1288L1196 0H1022L1024 1147Q1005 1088 688 0L575 -2L219 1135V0H121V1290L350 1292L668 256L961 1290L1198 1288Z"  />
<glyph unicode="N" horiz-adv-x="993" d="M881 0H741L205 942V0H106V1284H209L788 266V1286H881V0Z"  />
<glyph unicode="O" horiz-adv-x="1159" d="M1065 653Q1065 382 958 203Q829 -14 575 -14Q319 -14 190 212Q84 396 84 672Q84 930 199 1109Q333 1319 578 1319Q825 1319 956 1100Q1065 918 1065 653ZM897 547Q897 769 806 969Q692 1221 498 1221Q361 1221 296 1050Q250 929 250 764Q250 547 347 337Q466 77 656 77Q793 77 855 255Q897 376 897 547Z"  />
<glyph unicode="P" horiz-adv-x="868" d="M827 948Q827 758 686 654Q561 563 368 563Q339 563 309 565V0H137L135 1294L460 1295Q625 1295 724 1205Q827 1111 827 948ZM672 891Q672 1023 604 1111Q530 1208 401 1208H309V664Q389 643 422 643Q530 643 601 713T672 891Z"  />
<glyph unicode="Q" horiz-adv-x="1186" d="M1157 -115H932L797 33Q737 -18 602 -18Q340 -18 206 204Q96 387 96 668Q96 934 207 1110Q339 1319 590 1319Q835 1319 966 1100Q1075 918 1075 655Q1075 290 913 137L1157 -115ZM903 547Q903 769 812 969Q698 1221 504 1221Q368 1221 304 1050Q258 928 258 764Q258 548 355 337Q474 77 662 77Q799 77 861 255Q903 376 903 547Z"  />
<glyph unicode="R" horiz-adv-x="924" d="M934 0H739L432 578H317V0H145L143 1296L430 1297Q615 1297 700 1239Q842 1144 842 965Q842 722 598 612L934 0ZM684 903Q684 1051 600 1137T369 1223H317V668Q410 660 432 660Q547 660 615 724T684 903Z"  />
<glyph unicode="S" horiz-adv-x="905" d="M817 338Q817 180 692 69Q572 -37 412 -37Q214 -37 74 68L168 186Q284 66 451 66Q537 66 601 107Q674 155 674 238Q674 321 552 437Q516 470 358 594Q230 694 185 752Q111 848 111 971Q111 1129 225 1218Q329 1300 492 1300Q607 1300 786 1214L702 1090Q611 1212 442 1212Q368 1212 319 1178Q262 1138 262 1067Q262 952 406 831Q540 726 673 621Q817 487 817 338Z"  />
<glyph unicode="T" horiz-adv-x="715" d="M731 1190H442V0H268V1190H-23V1288H729L731 1190Z"  />
<glyph unicode="U" horiz-adv-x="1075" d="M975 377Q975 195 855 90Q741 -10 557 -10Q335 -10 215 143Q139 240 139 440V1290H328V444Q328 330 352 268Q385 185 458 133T618 80Q744 80 813 164Q877 243 877 371V1290L975 1288V377Z"  />
<glyph unicode="V" horiz-adv-x="952" d="M926 1292L545 2H432L25 1292H209L524 256L819 1292H926Z"  />
<glyph unicode="W" horiz-adv-x="1450" d="M1440 1292L1124 2L1010 -2L733 997L465 2H348L18 1292H203L444 256L707 1292L813 1290L1098 270L1333 1292H1440Z"  />
<glyph unicode="X" horiz-adv-x="860" d="M823 0H629L401 518L162 0H70L350 633L51 1288H248L465 788L692 1288H782L508 692L823 0Z"  />
<glyph unicode="Y" horiz-adv-x="848" d="M825 1292L638 775Q600 691 545 516Q544 510 544 386L545 0H358V502L23 1292H207L485 625L727 1292H825Z"  />
<glyph unicode="Z" horiz-adv-x="883" d="M786 94L784 0H78V88L594 1188L98 1190V1290H774V1171L281 94H786Z"  />
<glyph unicode="[" horiz-adv-x="506" d="M444 1442H246V-229H438V-319H123V1534H444V1442Z"  />
<glyph unicode="\" horiz-adv-x="772" d="M733 -41L592 -43L51 1430H184L733 -41Z"  />
<glyph unicode="]" horiz-adv-x="522" d="M391 -315H76V-225H268V1446H70V1538H391V-315Z"  />
<glyph unicode="^" horiz-adv-x="1180" d="M1141 479L899 481L565 1137L197 481H39L584 1477L1141 479Z"  />
<glyph unicode="_" horiz-adv-x="1139" d="M1139 -242H0V-154H1139V-242Z"  />
<glyph unicode="`" horiz-adv-x="913" d="M578 1231L471 1229L299 1421L461 1423L578 1231Z"  />
<glyph unicode="a" horiz-adv-x="903" d="M864 0H664L567 293H225L137 0H45L373 1047H510L864 0ZM545 365L387 842L246 365H545Z"  />
<glyph unicode="b" horiz-adv-x="913" d="M829 291Q829 138 712 62Q614 -2 451 -2H141L143 1047L408 1049Q768 1049 768 809Q768 627 535 563Q829 531 829 291ZM592 762Q592 861 544 923Q491 991 395 991Q378 991 328 987V586H352Q466 586 519 614Q592 654 592 762ZM641 258Q641 512 360 512H328V55Q397 49 416 49Q519 49 580 102T641 258Z"  />
<glyph unicode="c" horiz-adv-x="893" d="M868 115Q734 -25 541 -25Q321 -25 202 133Q94 275 94 502Q94 728 203 883Q326 1059 543 1059Q633 1059 703 1028Q758 1004 842 940L729 821Q622 985 481 985Q268 985 268 629Q268 425 350 264Q452 63 637 63Q732 63 836 145L868 115Z"  />
<glyph unicode="d" horiz-adv-x="993" d="M928 545Q928 300 804 155Q673 0 434 0H143V1044L477 1042Q703 1041 819 904Q928 775 928 545ZM735 487Q735 985 424 985H328L326 61H428Q612 61 682 189Q735 285 735 487Z"  />
<glyph unicode="e" horiz-adv-x="768" d="M717 74L715 0H139V1042H694V965H322V578H674V496L322 498L324 74H717Z"  />
<glyph unicode="f" horiz-adv-x="711" d="M698 965H326V578H678V496L326 498V0H143V1042H698V965Z"  />
<glyph unicode="g" horiz-adv-x="973" d="M897 123Q722 -25 537 -25Q310 -25 189 134Q80 278 80 512Q80 764 198 906Q325 1059 571 1059Q707 1059 846 981L752 856Q651 985 502 985Q246 985 246 621Q246 428 334 261Q441 57 616 57Q680 57 715 94L717 500H510V573L897 571V123Z"  />
<glyph unicode="h" horiz-adv-x="1010" d="M885 0H700V506H330V0H145V1042H330V580H700V1042H885V0Z"  />
<glyph unicode="i" horiz-adv-x="467" d="M328 0H141V1042H328V0Z"  />
<glyph unicode="j" horiz-adv-x="606" d="M485 358Q485 -8 156 -8Q41 -8 -41 49L41 111Q77 57 152 57Q298 57 298 269Q298 285 298 316Q297 347 297 360V1047H485V358Z"  />
<glyph unicode="k" horiz-adv-x="907" d="M877 2L645 0L326 494V0H141V1042H326V553L731 1042H836L475 600L877 2Z"  />
<glyph unicode="l" horiz-adv-x="702" d="M719 68L717 0H141V1042H326V68H719Z"  />
<glyph unicode="m" horiz-adv-x="1292" d="M1167 0H983L985 918Q973 881 680 0L557 -2L242 907V0H158V1044L383 1047L668 215L940 1044L1167 1042V0Z"  />
<glyph unicode="n" horiz-adv-x="981" d="M854 0H690L227 762V0H143V1038H272L774 215V1040H854V0Z"  />
<glyph unicode="o" horiz-adv-x="1065" d="M979 532Q979 298 878 152Q762 -16 539 -16Q315 -16 198 156Q96 306 96 541Q96 760 207 904Q328 1063 541 1063Q751 1063 871 898Q979 750 979 532ZM807 406Q807 595 731 766Q634 983 467 983Q355 983 304 855Q268 765 268 633Q268 456 353 278Q456 61 614 61Q722 61 771 188Q807 279 807 406Z"  />
<glyph unicode="p" horiz-adv-x="856" d="M801 766Q801 455 356 455Q341 455 326 457V0H143L141 1047H517Q513 1047 526 1044Q801 1002 801 766ZM631 721Q631 830 571 901Q508 977 401 977H326V537Q383 520 420 520Q511 520 571 575T631 721Z"  />
<glyph unicode="q" horiz-adv-x="1071" d="M1030 -109H809L696 10Q626 -23 537 -23Q313 -23 194 150Q90 300 90 535Q90 759 198 903Q318 1063 535 1063Q749 1063 867 894Q971 746 971 522Q971 219 825 100L1030 -109ZM801 401Q801 593 723 764Q624 981 455 981Q344 981 293 851Q256 759 256 629Q256 451 341 273Q445 57 604 57Q713 57 764 183Q801 274 801 401Z"  />
<glyph unicode="r" horiz-adv-x="887" d="M887 0H680L412 469H324L326 0H143V1049H375Q578 1049 674 1000Q809 931 809 748Q809 655 744 586Q684 523 590 500L887 0ZM635 731Q635 853 563 921T369 989H326V541Q411 533 426 533Q521 533 578 585T635 731Z"  />
<glyph unicode="s" horiz-adv-x="776" d="M717 289Q717 143 595 55Q486 -23 334 -23Q184 -23 53 57L166 186Q281 59 406 59Q473 59 524 91Q584 129 584 193Q584 268 455 368Q336 459 217 550Q88 668 88 786Q88 925 192 999Q283 1065 428 1065Q539 1065 700 995L592 866Q484 991 360 991Q307 991 269 966Q225 938 225 887Q225 805 353 705Q471 614 589 524Q717 408 717 289Z"  />
<glyph unicode="t" horiz-adv-x="723" d="M705 961L457 963L455 0H270L272 963L20 961V1042H705V961Z"  />
<glyph unicode="u" horiz-adv-x="1018" d="M895 301Q895 147 782 62Q680 -14 520 -14Q135 -14 135 352V1040H326V356Q326 259 344 213Q371 145 439 102Q504 61 580 61Q688 61 750 125T813 297V1040L895 1042V301Z"  />
<glyph unicode="v" d="M854 1047L524 0H387L35 1047H236L508 207L762 1047H854Z"  />
<glyph unicode="w" horiz-adv-x="1333" d="M1323 1047L1053 0H905L670 807L438 0H295L10 1047H211L420 207L647 1047L784 1044L1030 217L1231 1047H1323Z"  />
<glyph unicode="x" horiz-adv-x="780" d="M756 0H547L356 403L143 0H61L313 496L47 1042H256L436 655L641 1042H719L475 578L756 0Z"  />
<glyph unicode="y" horiz-adv-x="809" d="M782 1047L537 414V0H346V385L45 1047H248L489 506L698 1047H782Z"  />
<glyph unicode="z" horiz-adv-x="879" d="M768 0H117V72L563 963L135 961V1044H758V948L332 76H768V0Z"  />
<glyph unicode="{" horiz-adv-x="643" d="M567 -401H430Q333 -401 274 -315Q221 -239 221 -137V213Q221 484 55 502V586Q221 604 221 862V1214Q221 1316 274 1392Q333 1479 430 1479H567V1395H477Q383 1395 383 1227V829Q383 738 336 658Q285 572 203 543V539Q287 505 337 420Q383 341 383 246V-152Q383 -319 477 -319H567V-401Z"  />
<glyph unicode="|" horiz-adv-x="481" d="M315 -39H166V1509H315V-39Z"  />
<glyph unicode="}" horiz-adv-x="682" d="M604 502Q438 484 438 213V-137Q438 -239 386 -315Q327 -401 229 -401H92V-319H182Q276 -319 276 -152V246Q276 341 323 420Q372 505 457 539V543Q374 572 324 658Q276 738 276 829V1227Q276 1395 182 1395H92V1479H229Q326 1479 386 1392Q438 1316 438 1214V862Q438 604 604 586V502Z"  />
<glyph unicode="~" horiz-adv-x="995" d="M801 588Q739 401 616 401Q568 401 479 440T342 479Q282 479 252 395L201 397Q258 584 385 584Q434 584 522 547T659 510Q718 510 750 592L801 588Z"  />
<glyph unicode="&#xA0;" horiz-adv-x="502" />
<glyph unicode="&#xA1;" horiz-adv-x="500" d="M319 891H158V1102H319V891ZM322 -322H160L170 678H311L322 -322Z"  />
<glyph unicode="&#xA2;" horiz-adv-x="854" d="M813 88Q728 20 659 2Q610 -11 485 -12V-121L436 -119V-6Q272 32 185 179Q109 309 109 489Q109 660 188 786Q276 923 434 961V1067H485V965H487Q603 949 661 908T766 764L608 692Q553 827 485 864V125Q541 90 645 90Q712 90 791 129L813 88ZM434 156V879Q429 878 421 880T407 882Q333 882 296 774Q270 698 270 604Q270 299 434 156Z"  />
<glyph unicode="&#xA3;" horiz-adv-x="920" d="M918 143Q815 -33 655 -33Q580 -33 455 23T266 80Q195 80 151 53Q115 30 70 -33L29 -10Q55 81 167 163Q262 233 262 348Q262 436 219 549H12V629H178Q94 801 94 924Q94 1096 209 1200Q320 1300 494 1300Q613 1300 682 1259Q744 1222 815 1118L674 1051Q629 1135 584 1171Q528 1217 442 1217Q350 1217 286 1164Q217 1108 217 1018Q217 953 271 823Q314 726 356 629H666V549H385Q397 472 397 440Q397 288 285 184Q395 184 532 125T717 66Q782 66 870 172L918 143Z"  />
<glyph unicode="&#xA4;" horiz-adv-x="1252" d="M139 344L272 477Q237 526 219 573Q189 650 189 731Q189 814 221 895Q238 938 271 985L138 1118L238 1219L371 1086Q425 1122 470 1139Q545 1167 627 1167Q753 1167 881 1085L1013 1218L1113 1118L981 985Q1063 871 1063 730Q1063 652 1033 575Q1016 531 980 478L1114 344L1013 243L879 377Q833 345 789 327Q706 294 627 294Q488 294 373 377L239 244L139 344ZM626 1016Q516 1016 435 943Q341 858 341 731Q341 621 414 540Q499 446 626 446Q710 446 781 492T887 615Q911 670 911 731Q911 858 817 943Q736 1016 626 1016Z"  />
<glyph unicode="&#xA5;" horiz-adv-x="848" d="M829 1292L584 608H776V526H551L547 516L545 367H774V285H543L545 0H360L358 285H106V369H358L360 502L352 524H109V610H319L25 1292H207L487 625L731 1292H829Z"  />
<glyph unicode="&#xA6;" horiz-adv-x="455" d="M143 -183V329H313V-183H143ZM143 841V1353H313V841H143Z"  />
<glyph unicode="&#xA7;" horiz-adv-x="791" d="M702 176Q702 49 599 -31Q503 -104 373 -104Q242 -104 111 -43L186 55Q258 -29 379 -29Q444 -29 500 0Q567 35 567 94Q567 175 443 269Q327 354 211 439Q86 552 86 678Q86 842 254 944Q174 1003 140 1049Q94 1112 94 1194Q94 1323 182 1389Q260 1448 393 1448Q509 1448 623 1391L561 1292Q449 1382 344 1382Q295 1382 258 1356Q217 1327 217 1280Q217 1203 342 1107Q458 1019 574 931Q698 815 698 688Q698 557 604 479Q581 462 539 424Q702 299 702 176ZM567 614Q567 680 472 771Q440 803 322 895Q215 821 215 754Q215 691 313 599Q388 536 463 473Q567 544 567 614Z"  />
<glyph unicode="&#xA8;" horiz-adv-x="608" d="M522 1210H383V1425H522V1210ZM217 1210H78V1425H217V1210Z"  />
<glyph unicode="&#xA9;" horiz-adv-x="1532" d="M1448 612Q1448 329 1247 128T762 -74Q485 -74 281 125T76 600Q76 891 274 1094T762 1298Q1045 1298 1246 1097T1448 612ZM1343 610Q1343 851 1176 1026Q1006 1202 766 1202Q531 1202 359 1029T186 621Q186 371 351 196Q518 16 766 16Q1007 16 1176 194Q1343 368 1343 610ZM1087 291Q947 182 788 182Q594 182 483 301Q375 417 375 612Q375 801 478 923Q587 1053 772 1053Q916 1053 1069 932L965 868Q865 991 737 991Q620 991 563 892Q518 813 518 686Q518 521 600 395Q694 250 850 250Q947 250 1053 315L1087 291Z"  />
<glyph unicode="&#xAA;" horiz-adv-x="651" d="M557 594H434L430 741Q363 584 250 584Q185 584 142 624T98 729Q98 833 220 911Q262 938 432 1012V1069Q432 1221 299 1221Q230 1221 137 1145L115 1171Q246 1292 365 1292Q482 1292 522 1215Q549 1162 549 1032Q549 996 548 924T547 816Q547 685 557 594ZM432 909V963Q316 904 298 891Q225 838 225 766Q225 672 305 672Q365 672 402 765Q432 838 432 909Z"  />
<glyph unicode="&#xAB;" horiz-adv-x="815" d="M748 238H569L362 580L586 956H735L522 610L748 238ZM436 238H260L53 580L276 956H426L213 610L436 238Z"  />
<glyph unicode="&#xAC;" horiz-adv-x="1198" d="M1065 354H903V600H94V760H1065V354Z"  />
<glyph unicode="&#xAE;" horiz-adv-x="1487" d="M1421 633Q1421 342 1223 138T735 -66Q451 -66 250 134T49 618Q49 903 250 1105T735 1307Q1011 1307 1216 1108T1421 633ZM1317 614Q1317 856 1149 1031T739 1206Q504 1206 332 1033T160 625Q160 376 324 201Q492 23 739 23Q980 23 1148 198T1317 614ZM1126 229H965L713 594L618 596V227L477 229L475 1051H733Q1051 1051 1051 821Q1051 652 850 616L1126 229ZM920 807Q920 1004 662 1004H618V651Q691 649 704 649Q920 649 920 807Z"  />
<glyph unicode="&#xAF;" horiz-adv-x="608" d="M586 1456H78V1548H586V1456Z"  />
<glyph unicode="&#xB0;" horiz-adv-x="723" d="M653 1067Q653 941 567 853T354 764Q231 764 143 851T55 1061Q55 1182 144 1270T354 1358Q480 1358 566 1275T653 1067ZM573 1055Q573 1147 509 1213T352 1280Q263 1280 199 1215T135 1061Q135 972 200 908T354 844Q439 844 506 907T573 1055Z"  />
<glyph unicode="&#xB1;" horiz-adv-x="879" d="M817 532H510V190H373V532H53V651H375V956H508V651H817V532ZM817 0H53V119H817V0Z"  />
<glyph unicode="&#xB2;" horiz-adv-x="657" d="M457 622H63V667Q336 865 336 1064Q336 1113 310 1147Q282 1185 235 1185Q175 1185 100 1111L74 1131Q179 1253 285 1253Q357 1253 404 1209T451 1094Q451 924 179 702L456 703L457 622Z"  />
<glyph unicode="&#xB3;" horiz-adv-x="663" d="M473 822Q473 706 343 634Q249 582 109 562L104 592Q225 619 277 655Q355 709 355 814Q355 885 315 908Q286 924 210 924V955Q324 964 324 1071Q324 1177 228 1177Q167 1177 101 1108L79 1128Q174 1242 278 1242Q339 1242 383 1208Q430 1171 430 1111Q430 1005 296 961Q473 953 473 822Z"  />
<glyph unicode="&#xB4;" horiz-adv-x="682" d="M510 1421L338 1225L231 1229L348 1423L510 1421Z"  />
<glyph unicode="&#xB5;" horiz-adv-x="958" d="M823 0H655V426Q618 231 477 78Q412 7 303 -10V-461H135V956H309V303Q309 150 381 150Q497 150 586 379Q637 511 649 664Q655 735 655 956H823V0Z"  />
<glyph unicode="&#xB6;" horiz-adv-x="860" d="M797 1221H698V0H608V1221H465V0H375V727Q74 751 74 1008Q74 1141 168 1218Q255 1290 391 1290H797V1221Z"  />
<glyph unicode="&#xB7;" horiz-adv-x="344" d="M287 662Q287 614 253 581T170 547Q124 547 90 581T55 662Q55 709 90 743T172 778Q218 778 252 743T287 662Z"  />
<glyph unicode="&#xB8;" horiz-adv-x="600" d="M508 -238Q508 -341 411 -393Q334 -434 221 -434Q199 -434 135 -426L147 -358Q169 -365 217 -365Q277 -365 324 -343Q385 -315 385 -262Q385 -230 361 -209T304 -188Q262 -188 205 -215L168 -186L242 6L305 -8Q300 -19 268 -121Q335 -100 373 -100Q430 -100 469 -140T508 -238Z"  />
<glyph unicode="&#xB9;" horiz-adv-x="473" d="M331 619L227 620L229 1139L59 1035L38 1067L330 1253L331 619Z"  />
<glyph unicode="&#xBA;" horiz-adv-x="729" d="M641 930Q641 789 576 695Q502 588 367 588Q226 588 149 701Q82 799 82 946Q82 1087 150 1185Q228 1296 362 1296Q500 1296 576 1177Q641 1075 641 930ZM516 844Q516 962 474 1082Q418 1239 324 1239Q259 1239 227 1164Q203 1107 203 1032Q203 922 248 804Q305 653 395 653Q516 653 516 844Z"  />
<glyph unicode="&#xBB;" horiz-adv-x="801" d="M750 612L526 236H377L590 584L365 956H543L750 612ZM438 612L217 236H66L279 584L55 956H233L438 612Z"  />
<glyph unicode="&#xBC;" horiz-adv-x="1051" d="M883 1239L268 0H137L756 1239H883ZM331 619L227 620L229 1139L59 1035L38 1067L330 1253L331 619ZM997 159L904 160L905 -1H803V160H548L547 203L809 617H904L905 227H997V159ZM805 523L613 226H803L805 523Z"  />
<glyph unicode="&#xBD;" horiz-adv-x="1051" d="M883 1239L268 0H137L756 1239H883ZM331 619L227 620L229 1139L59 1035L38 1067L330 1253L331 619ZM1003 -2H610V43Q882 241 882 440Q882 489 857 523Q829 561 782 561Q722 561 647 487L620 507Q726 629 831 629Q903 629 950 585T997 470Q997 300 726 78L1002 79L1003 -2Z"  />
<glyph unicode="&#xBE;" horiz-adv-x="1051" d="M899 1236L284 -3H153L772 1236H899ZM423 823Q423 707 293 635Q199 583 59 563L54 593Q175 620 227 656Q304 710 304 815Q304 886 265 909Q236 925 160 925V955Q274 965 274 1072Q274 1177 177 1177Q116 1177 50 1109L29 1128Q124 1243 228 1243Q289 1243 333 1209Q380 1172 380 1112Q380 1005 246 961Q423 953 423 823ZM997 159L904 160L905 -1H803V160H548L547 203L809 617H904L905 227H997V159ZM805 523L613 226H803L805 523Z"  />
<glyph unicode="&#xBF;" horiz-adv-x="776" d="M502 907H340V1106H502V907ZM737 -72Q556 -315 358 -315Q229 -315 145 -221Q63 -131 63 0Q63 279 453 680L524 635Q397 464 340 357Q250 185 250 41Q250 -48 300 -111Q354 -180 440 -180Q557 -180 688 -31L737 -72Z"  />
<glyph unicode="&#xC0;" horiz-adv-x="950" d="M567 1376L461 1374L289 1567L451 1569L567 1376ZM922 0H737L625 362H229L127 0H20L399 1292H512L922 0ZM598 449L416 1047L254 451L598 449Z"  />
<glyph unicode="&#xC1;" horiz-adv-x="950" d="M625 1575L453 1378L346 1382L463 1577L625 1575ZM924 0H739L627 362H231L129 0H23L401 1292H514L924 0ZM600 449L418 1047L256 451L600 449Z"  />
<glyph unicode="&#xC2;" horiz-adv-x="950" d="M692 1380H582L453 1534Q422 1508 385 1460Q354 1420 324 1380H227L348 1575H573L692 1380ZM922 0H737L625 362H229L127 0H20L399 1292H512L922 0ZM598 449L416 1047L254 451L598 449Z"  />
<glyph unicode="&#xC3;" horiz-adv-x="952" d="M748 1556Q700 1376 569 1376Q520 1376 429 1415T293 1454Q235 1454 205 1368L158 1380Q207 1559 336 1559Q385 1559 473 1522T610 1485Q671 1485 702 1567L748 1556ZM918 0H733L621 362H225L123 0H16L395 1292H508L918 0ZM594 449L412 1047L250 451L594 449Z"  />
<glyph unicode="&#xC4;" horiz-adv-x="956" d="M735 1380H596V1573H735V1380ZM324 1380H184V1573H324V1380ZM928 0H743L637 338H227L133 0H27L406 1292H518L928 0ZM610 424L420 1047L252 426L610 424Z"  />
<glyph unicode="&#xC5;" horiz-adv-x="946" d="M610 1518Q610 1449 564 1403T449 1356Q382 1356 336 1402T289 1516Q289 1583 337 1629T453 1675Q523 1675 566 1632T610 1518ZM915 0H731L618 362H223L121 0H14L393 1292H506L915 0ZM543 1520Q543 1559 517 1585T451 1612Q411 1612 384 1585T356 1518Q356 1479 384 1450T451 1421Q543 1421 543 1520ZM592 449L410 1047L248 451L592 449Z"  />
<glyph unicode="&#xC6;" horiz-adv-x="1352" d="M1280 0H688L643 590H375L117 0H-2L565 1290H1219V1192H770L813 688H1227V590H821L864 92H1280V0ZM637 688L604 1126L416 688H637Z"  />
<glyph unicode="&#xC7;" horiz-adv-x="991" d="M928 156Q768 -16 592 -16Q562 -16 524 -10L489 -109Q597 -90 594 -90Q653 -90 691 -130T729 -229Q729 -326 638 -379Q562 -424 459 -424Q445 -424 407 -418Q375 -413 356 -416L369 -348Q416 -354 440 -354Q500 -354 546 -332Q606 -304 606 -252Q606 -178 514 -178Q478 -178 426 -205L389 -176L459 4Q268 52 173 258Q96 424 96 647Q96 903 198 1090Q324 1321 559 1321Q742 1321 905 1135L784 1038Q677 1229 520 1229Q264 1229 264 756Q264 521 350 333Q461 92 668 92Q771 92 889 193L928 156Z"  />
<glyph unicode="&#xC8;" horiz-adv-x="831" d="M541 1384L434 1382L262 1575L424 1577L541 1384ZM766 92L764 0H133L135 1288H739V1192H307V715H715V614L307 616L309 92H766Z"  />
<glyph unicode="&#xC9;" horiz-adv-x="827" d="M625 1575L453 1378L346 1382L463 1577L625 1575ZM766 92L764 0H133L135 1288H739V1192H307V715H715V614L307 616L309 92H766Z"  />
<glyph unicode="&#xCA;" horiz-adv-x="831" d="M670 1380H563L432 1534Q402 1508 365 1460Q334 1420 303 1380H197L313 1575H553L670 1380ZM768 92L766 0H135L137 1288H741V1192H309V715H717V614L309 616L311 92H768Z"  />
<glyph unicode="&#xCB;" horiz-adv-x="831" d="M674 1376H535V1569H674V1376ZM369 1376H229V1569H369V1376ZM770 92L768 0H137L139 1288H743V1192H311V715H719V614L311 616L313 92H770Z"  />
<glyph unicode="&#xCC;" horiz-adv-x="449" d="M313 1401L203 1399L49 1573L213 1571L313 1401ZM305 1288L303 0H129L131 1288H305Z"  />
<glyph unicode="&#xCD;" horiz-adv-x="446" d="M381 1573L225 1397H117L219 1573H381ZM307 1288L305 0H131L133 1288H307Z"  />
<glyph unicode="&#xCE;" horiz-adv-x="444" d="M438 1417H332L219 1544Q217 1542 106 1417H0L100 1585H340L438 1417ZM311 1288L309 0H135L137 1288H311Z"  />
<glyph unicode="&#xCF;" horiz-adv-x="449" d="M424 1386H285V1579H424V1386ZM162 1386H23V1579H162V1386ZM309 1288L307 0H133V1288H309Z"  />
<glyph unicode="&#xD0;" horiz-adv-x="1040" d="M973 670Q973 322 782 133Q702 53 612 24Q538 0 414 0H137L139 750H-78V867H139L137 1290Q242 1290 453 1288Q721 1285 855 1107Q973 948 973 670ZM784 592Q784 1217 422 1217H311L312 867H524V750H312L309 76H430Q621 76 698 182Q784 301 784 592Z"  />
<glyph unicode="&#xD1;" horiz-adv-x="993" d="M803 1567Q741 1380 621 1380Q571 1380 478 1420T344 1460Q285 1460 254 1374L203 1376Q260 1565 387 1565Q436 1565 525 1527T662 1489Q723 1489 752 1571L803 1567ZM881 0H741L205 942V0H106V1284H209L788 266V1286H881V0Z"  />
<glyph unicode="&#xD2;" horiz-adv-x="1161" d="M614 1411L508 1407L346 1581H508L614 1411ZM1069 653Q1069 382 963 203Q833 -14 580 -14Q323 -14 194 212Q88 396 88 672Q88 930 203 1109Q337 1319 582 1319Q829 1319 960 1100Q1069 918 1069 653ZM901 547Q901 769 810 969Q696 1221 502 1221Q365 1221 300 1050Q254 929 254 764Q254 547 351 337Q470 77 660 77Q797 77 859 255Q901 376 901 547Z"  />
<glyph unicode="&#xD3;" horiz-adv-x="1157" d="M741 1581L580 1409H473L580 1581H741ZM1063 653Q1063 382 956 203Q827 -14 573 -14Q317 -14 187 212Q82 396 82 672Q82 930 197 1109Q331 1319 575 1319Q823 1319 954 1100Q1063 918 1063 653ZM895 547Q895 769 804 969Q690 1221 496 1221Q359 1221 294 1050Q248 929 248 764Q248 547 345 337Q464 77 654 77Q791 77 853 255Q895 376 895 547Z"  />
<glyph unicode="&#xD4;" horiz-adv-x="1245" d="M844 1397H737L606 1550Q576 1525 539 1476Q508 1437 477 1397H371L487 1591H727L844 1397ZM1116 653Q1116 382 1010 203Q880 -14 627 -14Q371 -14 241 212Q135 396 135 672Q135 930 250 1109Q384 1319 629 1319Q876 1319 1007 1100Q1116 918 1116 653ZM948 547Q948 769 857 969Q743 1221 549 1221Q412 1221 347 1050Q301 929 301 764Q301 547 398 337Q517 77 707 77Q844 77 906 255Q948 376 948 547Z"  />
<glyph unicode="&#xD5;" horiz-adv-x="1157" d="M850 1569Q802 1386 672 1386Q623 1386 531 1426T395 1466Q334 1466 307 1380L260 1391Q309 1571 438 1571Q487 1571 576 1533T713 1495Q774 1495 803 1577L850 1569ZM1071 653Q1071 382 965 203Q835 -14 582 -14Q326 -14 196 212Q90 396 90 672Q90 930 205 1109Q339 1319 584 1319Q831 1319 962 1100Q1071 918 1071 653ZM903 547Q903 769 812 969Q698 1221 504 1221Q367 1221 302 1050Q256 929 256 764Q256 547 353 337Q472 77 662 77Q799 77 861 255Q903 376 903 547Z"  />
<glyph unicode="&#xD6;" horiz-adv-x="1149" d="M852 1378H713V1571H852V1378ZM438 1378H299V1571H438V1378ZM1063 655Q1063 384 956 205Q827 -12 573 -12Q317 -12 187 214Q82 398 82 674Q82 932 197 1111Q331 1321 575 1321Q823 1321 954 1102Q1063 920 1063 655ZM895 551Q895 774 804 974Q689 1225 494 1225Q358 1225 294 1054Q248 932 248 768Q248 551 345 341Q464 81 654 81Q791 81 853 259Q895 380 895 551Z"  />
<glyph unicode="&#xD7;" horiz-adv-x="1214" d="M106 134L487 514L106 895L224 1013L604 632L985 1013L1103 895L723 515L1103 134L985 16L605 397L224 16L106 134Z"  />
<glyph unicode="&#xD8;" horiz-adv-x="1161" d="M1063 662Q1063 387 959 207Q831 -14 575 -14Q439 -14 295 80L244 0H115L221 168Q140 300 112 402T84 662Q84 959 219 1135Q361 1319 578 1319Q735 1319 862 1210L918 1311L1034 1309L934 1133Q1063 928 1063 662ZM764 1055Q636 1221 500 1221Q359 1221 295 1050Q250 931 250 760Q250 547 338 358L764 1055ZM897 557Q897 759 819 942L395 256Q506 78 645 78Q897 78 897 557Z"  />
<glyph unicode="&#xD9;" horiz-adv-x="1075" d="M686 1384L580 1382L408 1575L569 1577L686 1384ZM975 377Q975 195 855 90Q741 -10 557 -10Q335 -10 215 143Q139 240 139 440V1290H328V444Q328 330 352 268Q385 185 458 133T618 80Q744 80 813 164Q877 243 877 371V1290L975 1288V377Z"  />
<glyph unicode="&#xDA;" horiz-adv-x="1073" d="M768 1577L596 1380L489 1384L606 1579L768 1577ZM973 377Q973 195 853 90Q739 -10 555 -10Q333 -10 213 143Q137 240 137 440V1290H326V444Q326 330 350 268Q383 185 456 133T616 80Q742 80 811 164Q874 243 874 371V1290L973 1288V377Z"  />
<glyph unicode="&#xDB;" horiz-adv-x="1069" d="M827 1386H721L590 1540Q560 1515 522 1466Q492 1426 461 1386H354L471 1581H711L827 1386ZM973 377Q973 195 853 90Q739 -10 555 -10Q333 -10 213 143Q137 240 137 440V1290H326V444Q326 330 350 268Q383 185 456 133T616 80Q742 80 811 164Q874 243 874 371V1290L973 1288V377Z"  />
<glyph unicode="&#xDC;" horiz-adv-x="1077" d="M854 1386H715V1579H854V1386ZM440 1386H301V1579H440V1386ZM975 377Q975 195 855 90Q741 -10 557 -10Q335 -10 215 143Q139 240 139 440V1290H328V444Q328 330 352 268Q385 185 458 133T618 80Q744 80 813 164Q877 243 877 371V1290L975 1288V377Z"  />
<glyph unicode="&#xDD;" horiz-adv-x="848" d="M602 1572L447 1396H338L441 1572H602ZM825 1292L638 775Q600 691 545 516Q544 510 544 386L545 0H358V502L23 1292H207L485 625L727 1292H825Z"  />
<glyph unicode="&#xDE;" horiz-adv-x="868" d="M827 948Q827 758 686 654Q561 563 368 563Q339 563 309 565V0H135V1417H309V1294L460 1295Q625 1295 724 1205Q827 1111 827 948ZM672 891Q672 1023 604 1111Q530 1208 401 1208H309V664Q389 643 422 643Q530 643 601 713T672 891Z"  />
<glyph unicode="&#xDF;" horiz-adv-x="1489" d="M1430 287Q1430 141 1307 53Q1199 -25 1047 -25Q896 -25 766 55L879 182Q991 57 1118 57Q1186 57 1237 89Q1296 127 1296 190Q1296 266 1168 366Q1049 457 929 548Q801 666 801 784Q801 922 905 996Q997 1061 1141 1061Q1257 1061 1413 993L1305 864Q1199 987 1073 987Q1020 987 982 962Q938 933 938 883Q938 803 1065 703Q1184 612 1302 522Q1430 406 1430 287ZM717 289Q717 143 595 55Q486 -23 334 -23Q184 -23 53 57L166 186Q281 59 406 59Q473 59 524 91Q584 129 584 193Q584 268 455 368Q336 459 217 550Q88 668 88 786Q88 925 192 999Q283 1065 428 1065Q539 1065 700 995L592 866Q484 991 360 991Q307 991 269 966Q225 938 225 887Q225 805 353 705Q471 614 589 524Q717 408 717 289Z"  />
<glyph unicode="&#xE0;" horiz-adv-x="903" d="M545 1235L438 1233L266 1425L428 1427L545 1235ZM862 0H662L565 293H223L135 0H43L371 1047H508L862 0ZM543 365L385 842L244 365H543Z"  />
<glyph unicode="&#xE1;" horiz-adv-x="903" d="M578 1423L406 1227L299 1231L416 1425L578 1423ZM862 0H662L565 293H223L135 0H43L371 1047H508L862 0ZM543 365L385 842L244 365H543Z"  />
<glyph unicode="&#xE2;" horiz-adv-x="899" d="M668 1231H561L430 1384Q429 1384 301 1231H195L311 1425H551L668 1231ZM864 0H664L567 293H225L137 0H45L373 1047H510L864 0ZM545 365L387 842L246 365H545Z"  />
<glyph unicode="&#xE3;" horiz-adv-x="899" d="M743 1403Q696 1221 565 1221Q517 1221 423 1260T289 1300Q231 1300 201 1214L154 1225Q202 1405 332 1405Q381 1405 471 1367T606 1329Q666 1329 696 1411L743 1403ZM864 0H664L567 293H225L137 0H45L373 1047H510L864 0ZM545 365L387 842L246 365H545Z"  />
<glyph unicode="&#xE4;" horiz-adv-x="903" d="M657 1210H518V1425H657V1210ZM352 1210H213V1425H352V1210ZM864 0H664L567 293H225L137 0H45L373 1047H510L864 0ZM545 365L387 842L246 365H545Z"  />
<glyph unicode="&#xE5;" horiz-adv-x="901" d="M606 1323Q606 1243 551 1189T416 1135Q339 1135 284 1189T229 1319Q229 1401 284 1455T422 1509Q504 1509 555 1458T606 1323ZM858 0H657L561 293H219L131 0H39L367 1047H504L858 0ZM526 1325Q526 1373 496 1403T418 1434Q373 1434 341 1402T309 1325Q309 1281 341 1247T418 1212Q526 1212 526 1325ZM539 365L381 842L240 365H539Z"  />
<glyph unicode="&#xE6;" horiz-adv-x="1282" d="M1196 0H649L610 477H379L156 0H53L543 1044H1143V965H756L793 557H1151V477H799L838 74H1196V0ZM604 557L578 911L414 557H604Z"  />
<glyph unicode="&#xE7;" horiz-adv-x="893" d="M879 121Q738 -23 563 -23Q546 -23 506 -16L477 -94Q559 -78 567 -78Q616 -78 650 -110T684 -190Q684 -270 603 -313Q537 -348 451 -348Q438 -348 406 -344Q378 -341 362 -342L373 -287Q419 -293 442 -293Q489 -293 528 -274Q578 -250 578 -209Q578 -150 502 -150Q472 -150 424 -172L391 -147L449 -8Q104 74 104 510Q104 737 212 890Q334 1065 551 1065Q695 1065 852 946L737 827Q624 991 489 991Q274 991 274 635Q274 433 358 271Q461 70 645 70Q713 70 846 152L879 121Z"  />
<glyph unicode="&#xE8;" horiz-adv-x="768" d="M522 1231L416 1229L244 1421L406 1423L522 1231ZM721 74L719 0H143V1042H698V965H326V578H678V496L326 498L328 74H721Z"  />
<glyph unicode="&#xE9;" horiz-adv-x="766" d="M606 1425L434 1229L328 1233L444 1427L606 1425ZM719 74L717 0H141V1042H696V965H324V578H676V496L324 498L326 74H719Z"  />
<glyph unicode="&#xEA;" horiz-adv-x="772" d="M653 1229H547L416 1382Q415 1381 287 1229H180L297 1423H537L653 1229ZM721 74L719 0H143V1042H698V965H326V578H678V496L326 498L328 74H721Z"  />
<glyph unicode="&#xEB;" horiz-adv-x="768" d="M676 1210H537V1425H676V1210ZM371 1210H231V1425H371V1210ZM723 74L721 0H145V1042H700V965H328V578H680V496L328 498L330 74H723Z"  />
<glyph unicode="&#xEC;" horiz-adv-x="471" d="M317 1231L211 1229L39 1421L201 1423L317 1231ZM330 1042L328 0H143V1042H330Z"  />
<glyph unicode="&#xED;" horiz-adv-x="467" d="M418 1421L246 1229L139 1231L256 1423L418 1421ZM326 1042L324 0H139V1042H326Z"  />
<glyph unicode="&#xEE;" horiz-adv-x="469" d="M471 1231H362L231 1384Q230 1384 102 1231H-4L113 1425H352L471 1231ZM324 0H137V1042H324V0Z"  />
<glyph unicode="&#xEF;" horiz-adv-x="465" d="M455 1210H315V1425H455V1210ZM150 1210H10V1425H150V1210ZM328 0H141V1042H328V0Z"  />
<glyph unicode="&#xF0;" horiz-adv-x="993" d="M943 546Q943 263 763 109Q686 43 599 19Q530 1 415 1H153V612L-50 611V706L153 707V1051L451 1050Q691 1048 817 918T943 546ZM765 483Q765 991 422 991H318V706H519V611L317 612L316 63H430Q628 63 704 177Q765 270 765 483Z"  />
<glyph unicode="&#xF1;" horiz-adv-x="979" d="M799 1415Q751 1235 621 1235Q572 1235 478 1274T344 1313Q288 1313 254 1227L209 1239Q258 1417 385 1417Q434 1417 524 1380T662 1343Q722 1343 752 1425L799 1415ZM852 0H688L225 762V0H141V1038H270L772 215V1040H852V0Z"  />
<glyph unicode="&#xF2;" horiz-adv-x="1063" d="M610 1231L504 1229L332 1421L494 1423L610 1231ZM977 532Q977 298 876 152Q760 -16 537 -16Q313 -16 195 156Q94 306 94 541Q94 760 204 904Q326 1063 539 1063Q749 1063 869 898Q977 750 977 532ZM805 406Q805 595 729 766Q632 983 465 983Q353 983 302 855Q266 765 266 633Q266 456 351 278Q454 61 612 61Q719 61 769 188Q805 279 805 406Z"  />
<glyph unicode="&#xF3;" horiz-adv-x="1065" d="M725 1425L553 1229L446 1233L563 1427L725 1425ZM979 528Q979 294 878 148Q762 -20 539 -20Q315 -20 198 152Q96 302 96 537Q96 756 207 900Q328 1059 541 1059Q751 1059 871 894Q979 746 979 528ZM807 401Q807 591 731 762Q634 979 467 979Q355 979 304 851Q268 760 268 629Q268 452 353 274Q456 57 614 57Q722 57 771 184Q807 275 807 401Z"  />
<glyph unicode="&#xF4;" horiz-adv-x="1059" d="M768 1231H662L530 1384Q529 1384 401 1231H295L412 1425H651L768 1231ZM977 532Q977 298 876 152Q760 -16 537 -16Q313 -16 195 156Q94 306 94 541Q94 760 204 904Q326 1063 539 1063Q749 1063 869 898Q977 750 977 532ZM805 406Q805 595 729 766Q632 983 465 983Q353 983 302 855Q266 765 266 633Q266 456 351 278Q454 61 612 61Q719 61 769 188Q805 279 805 406Z"  />
<glyph unicode="&#xF5;" horiz-adv-x="1065" d="M817 1415Q769 1235 641 1235Q593 1235 498 1274T365 1313Q305 1313 274 1227L229 1239Q278 1417 406 1417Q454 1417 544 1380T682 1343Q742 1343 772 1425L817 1415ZM979 532Q979 298 878 152Q762 -16 539 -16Q315 -16 198 156Q96 306 96 541Q96 760 207 904Q328 1063 541 1063Q751 1063 871 898Q979 750 979 532ZM807 406Q807 595 731 766Q634 983 467 983Q355 983 304 855Q268 765 268 633Q268 456 353 278Q456 61 614 61Q722 61 771 188Q807 279 807 406Z"  />
<glyph unicode="&#xF6;" horiz-adv-x="1061" d="M754 1210H614V1425H754V1210ZM449 1210H309V1425H449V1210ZM975 532Q975 298 874 152Q758 -16 535 -16Q311 -16 193 156Q92 306 92 541Q92 760 202 904Q324 1063 537 1063Q747 1063 867 898Q975 750 975 532ZM803 406Q803 595 726 766Q630 983 463 983Q351 983 300 855Q264 765 264 633Q264 456 349 278Q452 61 610 61Q717 61 767 188Q803 279 803 406Z"  />
<glyph unicode="&#xF7;" horiz-adv-x="1176" d="M692 813Q692 767 660 735T582 702Q538 702 505 734T471 809Q471 856 503 890T582 924Q627 924 659 892T692 813ZM1083 487H80V582H1083V487ZM692 258Q692 212 660 180T582 147Q538 147 505 179T471 254Q471 301 503 335T582 369Q627 369 659 337T692 258Z"  />
<glyph unicode="&#xF8;" horiz-adv-x="1008" d="M913 496Q913 279 820 144Q712 -12 506 -12Q390 -12 274 59L236 0H133L215 121Q96 299 96 500Q96 707 196 841Q308 991 508 991Q668 991 743 909L788 983L881 981L803 854Q870 743 889 685Q913 612 913 496ZM653 778Q566 915 440 915Q256 915 256 588Q256 413 324 283L653 778ZM754 397Q754 581 696 692L369 203Q451 59 571 59Q754 59 754 397Z"  />
<glyph unicode="&#xF9;" horiz-adv-x="1014" d="M657 1231L551 1229L379 1421L541 1423L657 1231ZM895 301Q895 147 782 62Q680 -14 520 -14Q135 -14 135 352V1040H326V356Q326 259 344 213Q371 145 439 102Q504 61 580 61Q688 61 750 125T813 297V1040L895 1042V301Z"  />
<glyph unicode="&#xFA;" horiz-adv-x="1012" d="M731 1425L559 1229L453 1233L569 1427L731 1425ZM893 301Q893 147 780 62Q678 -14 518 -14Q133 -14 133 352V1040H324V356Q324 259 342 213Q369 145 437 102Q502 61 578 61Q686 61 748 125T811 297V1040L893 1042V301Z"  />
<glyph unicode="&#xFB;" horiz-adv-x="1014" d="M764 1233H657L526 1386Q525 1386 397 1233H291L408 1427H647L764 1233ZM889 301Q889 147 776 62Q674 -14 514 -14Q129 -14 129 352V1040H319V356Q319 259 338 213Q365 145 433 102Q498 61 573 61Q681 61 744 125T807 297V1040L889 1042V301Z"  />
<glyph unicode="&#xFC;" horiz-adv-x="1018" d="M791 1214H651V1430H791V1214ZM485 1214H346V1430H485V1214ZM897 301Q897 147 784 62Q682 -14 522 -14Q137 -14 137 352V1040H328V356Q328 259 346 213Q373 145 441 102Q506 61 582 61Q690 61 752 125T815 297V1040L897 1042V301Z"  />
<glyph unicode="&#xFD;" horiz-adv-x="809" d="M595 1433L423 1236L316 1240L433 1435L595 1433ZM782 1047L537 414V0H346V385L45 1047H248L489 506L698 1047H782Z"  />
<glyph unicode="&#xFE;" horiz-adv-x="856" d="M801 766Q801 455 356 455Q341 455 326 457V0H143L141 1290H323V1047H495Q628 1047 712 974Q801 897 801 766ZM631 721Q631 830 571 901Q508 977 401 977H326V537Q383 520 420 520Q511 520 571 575T631 721Z"  />
<glyph unicode="&#xFF;" horiz-adv-x="809" d="M668 1214H528V1430H668V1214ZM362 1214H223V1430H362V1214ZM782 1047L537 414V0H346V385L45 1047H248L489 506L698 1047H782Z"  />
<glyph unicode="&#x152;" horiz-adv-x="1579" d="M1511 92L1509 0H879L881 104Q801 38 738 13Q670 -14 571 -14Q321 -14 189 205Q80 387 80 655Q80 960 215 1137Q354 1319 578 1319Q671 1319 742 1286Q800 1259 881 1190V1288H1485V1192H1053V715H1460V614L1053 616L1055 92H1511ZM893 547Q893 769 802 969Q688 1221 494 1221Q357 1221 292 1050Q246 929 246 764Q246 547 343 337Q462 77 652 77Q789 77 851 255Q893 376 893 547Z"  />
<glyph unicode="&#x153;" horiz-adv-x="1303" d="M1241 0H735L737 84Q621 -12 489 -12Q289 -12 184 164Q96 309 96 524Q96 769 205 911Q317 1059 494 1059Q615 1059 737 954V1034H1221V956H874V573H1200V494H874L877 74H1241V0ZM745 438Q745 615 674 775Q582 977 426 977Q317 977 265 840Q229 744 229 612Q229 441 306 272Q401 63 553 63Q663 63 712 206Q745 302 745 438Z"  />
<glyph unicode="&#x160;" horiz-adv-x="905" d="M753 1559L575 1367H335L157 1559H262L456 1410L645 1559H753ZM817 338Q817 180 692 69Q572 -37 412 -37Q214 -37 74 68L168 186Q284 66 451 66Q537 66 601 107Q674 155 674 238Q674 321 552 437Q516 470 358 594Q230 694 185 752Q111 848 111 971Q111 1129 225 1218Q329 1300 492 1300Q607 1300 786 1214L702 1090Q611 1212 442 1212Q368 1212 319 1178Q262 1138 262 1067Q262 952 406 831Q540 726 673 621Q817 487 817 338Z"  />
<glyph unicode="&#x161;" horiz-adv-x="776" d="M684 1426L506 1233H267L89 1426H193L388 1276L576 1426H684ZM717 289Q717 143 595 55Q486 -23 334 -23Q184 -23 53 57L166 186Q281 59 406 59Q473 59 524 91Q584 129 584 193Q584 268 455 368Q336 459 217 550Q88 668 88 786Q88 925 192 999Q283 1065 428 1065Q539 1065 700 995L592 866Q484 991 360 991Q307 991 269 966Q225 938 225 887Q225 805 353 705Q471 614 589 524Q717 408 717 289Z"  />
<glyph unicode="&#x178;" horiz-adv-x="846" d="M680 1380H541V1573H680V1380ZM381 1380H242V1573H381V1380ZM827 1292L640 775Q603 691 547 516Q546 510 546 386L547 0H360V502L25 1292H209L487 625L729 1292H827Z"  />
<glyph unicode="&#x17D;" horiz-adv-x="863" d="M741 1561L563 1368H323L145 1561H249L444 1411L632 1561H741ZM786 94L784 0H78V88L594 1188L100 1186L98 1290H774V1171L281 94H786Z"  />
<glyph unicode="&#x17E;" horiz-adv-x="879" d="M753 1426L575 1233H335L157 1426H262L456 1276L645 1426H753ZM768 0H117V72L563 963L135 961V1044H758V948L332 76H768V0Z"  />
<glyph unicode="&#x192;" horiz-adv-x="788" d="M965 1386L879 1315Q841 1368 768 1368Q646 1368 596 1213Q589 1192 549 956H831L813 864L537 866L408 0Q380 -183 291 -291Q187 -418 14 -418Q-97 -418 -158 -367L-70 -295Q-30 -348 41 -348Q153 -348 202 -220Q221 -169 246 2L371 870H264L283 956H391Q431 1187 496 1288Q592 1438 793 1438Q904 1438 965 1386Z"  />
<glyph unicode="&#x2C6;" horiz-adv-x="559" d="M514 1389H408L276 1542Q246 1517 209 1468Q178 1428 147 1389H41L158 1583H397L514 1389Z"  />
<glyph unicode="&#x2DC;" horiz-adv-x="834" d="M721 1581Q659 1395 539 1395Q489 1395 396 1435T262 1475Q203 1475 172 1389L121 1391Q178 1579 305 1579Q354 1579 443 1541T580 1503Q641 1503 670 1585L721 1581Z"  />
<glyph unicode="&#x3BC;" horiz-adv-x="958" d="M823 0H655V426Q618 231 477 78Q412 7 303 -10V-461H135V956H309V303Q309 150 381 150Q497 150 586 379Q637 511 649 664Q655 735 655 956H823V0Z"  />
<glyph unicode="&#x2013;" horiz-adv-x="862" d="M774 555H80V672H774V555Z"  />
<glyph unicode="&#x2014;" horiz-adv-x="1397" d="M1305 555H94V672H1305V555Z"  />
<glyph unicode="&#x2018;" horiz-adv-x="311" d="M268 1522L213 1116H51L174 1522H268Z"  />
<glyph unicode="&#x2019;" horiz-adv-x="338" d="M305 1421L182 1016H88L143 1421H305Z"  />
<glyph unicode="&#x201A;" horiz-adv-x="395" d="M301 227L178 -178H84L139 227H301Z"  />
<glyph unicode="&#x201C;" horiz-adv-x="514" d="M471 1522L420 1116H256L373 1522H471ZM256 1522L201 1116H39L162 1522H256Z"  />
<glyph unicode="&#x201D;" horiz-adv-x="610" d="M528 1421L406 1016H311L367 1421H528ZM311 1421L195 1016H96L147 1421H311Z"  />
<glyph unicode="&#x201E;" horiz-adv-x="586" d="M504 227L381 -178H287L342 227H504ZM287 227L170 -178H72L123 227H287Z"  />
<glyph unicode="&#x2020;" horiz-adv-x="915" d="M883 963H520V0H393V963H35V1067L391 1069V1450H520V1069H883V963Z"  />
<glyph unicode="&#x2021;" horiz-adv-x="915" d="M881 963H518V487H877V381H520V0H391V381H29V487H389L391 963H33V1069H389V1450H518V1069H881V963Z"  />
<glyph unicode="&#x2022;" horiz-adv-x="604" d="M504 643Q504 564 445 509T305 453Q224 453 165 508T106 643Q106 723 165 777T305 831Q386 831 445 777T504 643Z"  />
<glyph unicode="&#x2026;" horiz-adv-x="1229" d="M1100 0H938V205H1100V0ZM698 0H537V205H698V0ZM285 0H123V205H285V0Z"  />
<glyph unicode="&#x2030;" horiz-adv-x="1544" d="M1470 270Q1470 157 1426 80Q1371 -14 1266 -14Q1158 -14 1100 84Q1053 165 1053 281Q1053 392 1102 470Q1159 561 1265 561Q1367 561 1423 463Q1470 381 1470 270ZM483 969Q483 855 439 778Q384 684 279 684Q172 684 114 782Q66 864 66 979Q66 1088 113 1167Q170 1260 272 1260Q379 1260 436 1163Q483 1083 483 969ZM889 1239L274 0H143L762 1239H889ZM975 266Q975 153 930 76Q875 -18 770 -18Q661 -18 603 79Q555 160 555 276Q555 388 604 466Q662 557 767 557Q870 557 927 459Q975 377 975 266ZM1376 143Q1376 246 1341 361Q1294 512 1217 512Q1149 512 1149 387Q1149 293 1187 176Q1236 29 1309 29Q1376 29 1376 143ZM387 842Q387 944 352 1058Q306 1208 229 1208Q162 1208 162 1083Q162 990 200 874Q249 727 322 727Q387 727 387 842ZM879 137Q879 240 843 355Q796 506 719 506Q651 506 651 381Q651 287 690 170Q738 23 811 23Q879 23 879 137Z"  />
<glyph unicode="&#x2039;" horiz-adv-x="514" d="M438 238H262L55 580L279 956H428L215 610L438 238Z"  />
<glyph unicode="&#x203A;" horiz-adv-x="504" d="M453 612L231 236H80L293 584L70 956H248L453 612Z"  />
<glyph unicode="&#x20AC;" horiz-adv-x="1280" d="M1253 1083L1221 969Q1070 1155 825 1155Q462 1155 330 778H1145L1102 670H313Q311 658 311 608Q311 579 317 561H1061L1016 457H334Q376 291 512 189T821 86Q1089 86 1227 283V129Q1016 -20 834 -20Q378 -20 211 461H23L68 565H195Q195 601 193 674H20L61 778H211Q273 996 435 1126Q601 1262 823 1262Q1095 1262 1253 1083Z"  />
<glyph unicode="&#x2122;" horiz-adv-x="1806" d="M1645 1339L1642 571L1522 569L1524 1260Q1501 1200 1288 569H1214L963 1251V567L897 569V1339H1055L1274 723L1477 1337L1645 1339ZM723 1337L721 1278H520V567H401L399 1278H197V1337H723Z"  />

</font>
</defs>
</svg>
