<svg id="Layer_1" data-name="Layer 1" xmlns="http://www.w3.org/2000/svg" viewBox="0 0 514.43 73.86"><defs><style>.cls-1{fill:#fff;}</style></defs><title>Artboard 3</title><polygon class="cls-1" points="285.34 16.44 285.34 27.73 297.25 27.73 297.25 57.26 308.08 57.26 308.08 16.44 285.34 16.44"/><rect class="cls-1" x="281.27" y="12.86" width="2.61" height="14.87"/><polygon class="cls-1" points="291.72 57.28 291.72 45.99 279.81 45.99 279.81 16.45 268.98 16.45 268.98 57.28 291.72 57.28"/><rect class="cls-1" x="293.18" y="45.98" width="2.63" height="14.87"/><rect class="cls-1" x="322.2" y="15.28" width="9.6" height="44.06"/><path class="cls-1" d="M399.57,27.1V59.35h10.29V42.9c.08-8.06,9.15-8.58,9.15-8.58V26.55c-5,0-9.18,3.86-9.18,3.86V27.1Z"/><path class="cls-1" d="M442.09,27.1V59.35H452v-19c0-4.6,7.33-4.91,7.33,0v19H469V35.21c0-4.85-6.37-12-17-5.07v-3Z"/><path class="cls-1" d="M509.35,15.28a5.07,5.07,0,1,0,5.07,5.07A5.07,5.07,0,0,0,509.35,15.28Zm0,9.42a4.35,4.35,0,1,1,4.34-4.35A4.35,4.35,0,0,1,509.35,24.7Z"/><path class="cls-1" d="M508.05,22.95h-.72V17.63h2.46c.87,0,1.75.3,1.75,1.42a1.32,1.32,0,0,1-.74,1.28c.3.13.61.26.64,1l0,1c0,.3,0,.41.27.53v.12h-.88a6.46,6.46,0,0,1-.13-1.34c0-.44-.09-.95-.94-.95h-1.73Zm0-2.9h1.66c.52,0,1.08-.13,1.08-.92s-.6-.88-1-.88h-1.78Z"/><path class="cls-1" d="M422.37,47.49a4.14,4.14,0,1,1,4.14,4.15A4.14,4.14,0,0,1,422.37,47.49Zm-1-13.42A21.48,21.48,0,0,1,426,34c4.72.17,4.14,4,4.14,4a12.15,12.15,0,0,0-5.58-1.43c-3.63-.06-10.89,2.17-10.89,11.74,0,8.47,6.76,10.91,10.79,10.91a10.07,10.07,0,0,0,6.11-1.87v2h9.33v-22c0-4.29-.78-5.44-2.73-7.59-2.72-3-9.16-3.25-9.16-3.25h-6.61Z"/><path class="cls-1" d="M485.55,28.12c-10.31-.25-14.71,8.46-14.7,15.29-.07,8.94,5.83,16.26,14.62,15.57a10.44,10.44,0,0,0,5.5-2.37v2.74h10V15.28H491V29.9A12.62,12.62,0,0,0,485.55,28.12Zm-.13,21.64a6.22,6.22,0,1,1,6.22-6.21A6.22,6.22,0,0,1,485.41,49.76Z"/><path class="cls-1" d="M382.21,64.5c-4.57-.2-5.53-3.13-5.53-3.13H365.15c2.4,16.1,30.67,16.74,32,1.31V27.08h-9.64v3.36c-6.61-6.7-22.09-1.85-21.56,13.26.5,14.12,15.47,18.38,21.56,12.9v3.8C387.48,64.67,382.21,64.5,382.21,64.5Zm-.7-15a6.23,6.23,0,1,1,6.24-6.22A6.24,6.24,0,0,1,381.51,49.49Z"/><path class="cls-1" d="M349,25.91c-7.86,0-15.55,6.44-15.54,16.61,0,11.44,7.16,18.07,16.58,17.78,7.22-.22,12.23-4.78,14-11.2h-9.85c-.51,1-1.91,2.22-4.81,2.22a5.31,5.31,0,0,1-5.59-5.41h20.82C365.86,34,358.2,25.91,349,25.91ZM343.7,39.14a5.36,5.36,0,0,1,10.65,0Z"/><path class="cls-1" d="M28.27,57.42l-4.06-9.7H9.64l-4.06,9.7H0l16-38H18l16,38ZM18.57,34A45.89,45.89,0,0,1,17,29.44h-.12A34.67,34.67,0,0,1,15.28,34l-3.7,9.17h10.7Z"/><path class="cls-1" d="M61.54,58.07a17.69,17.69,0,0,1-9.29-2.47v-40H57.6V31a11,11,0,0,1,4.64-.88c7.58,0,14.52,5.41,14.52,13.75C76.76,52.72,70.53,58.07,61.54,58.07Zm.71-23.22A9.2,9.2,0,0,0,57.6,36V52.66a9.55,9.55,0,0,0,3.94.71c6.17,0,9.82-3.76,9.82-9.46A9.05,9.05,0,0,0,62.24,34.85Z"/><path class="cls-1" d="M97.45,35C93.16,35,88,37.26,88,44.84V57.42H82.64V30.79H87.7L87.93,35C89.34,31.68,93,30.44,97,30.44L98,35Z"/><path class="cls-1" d="M119.67,58.07a5.43,5.43,0,0,1-3.88-3.41,8.93,8.93,0,0,1-7.46,3.41,8.18,8.18,0,0,1-8.58-8.17c0-5.17,4.23-8.11,8.76-8.52l6.23-.59v-1.7c0-2.41-1.41-4.35-5.17-4.35a13.81,13.81,0,0,0-7.35,2.12l-1.06-4.41a15.77,15.77,0,0,1,8.7-2.29c5.94,0,10.23,3.35,10.23,9.64V50.54c0,2.41,1.29,3.82,3,4.11Zm-4.94-12.87-5.29.47c-3.17.29-4.58,2.35-4.58,4.29a3.66,3.66,0,0,0,3.7,3.59c2.82,0,6.17-2.65,6.17-6Z"/><path class="cls-1" d="M145.65,57.42V40.32c0-2.76-1.7-5.58-6.17-5.58-4.29,0-6.41,2.82-6.41,5.58v17.1h-5.35V30.79h4.7l.23,2.65c2.06-2.23,4.06-3.29,8.23-3.29,5.82,0,10.11,3.7,10.11,9.64V57.42Z"/><path class="cls-1" d="M177.74,57.42l-.18-2.12c-1.65,1.76-4.58,2.76-8.23,2.76a13.46,13.46,0,0,1-13-13.93c0-8.23,6.11-14,14-14A12.66,12.66,0,0,1,177,31.91V15.57h5.35V57.42ZM177,37.32a9.77,9.77,0,0,0-6.64-2.47c-4.76,0-8.64,3.7-8.64,9.29s3.88,9.23,8.64,9.23a8.8,8.8,0,0,0,6.64-2.7Z"/><path class="cls-1" d="M215.59,58.07c-7.94,0-14.17-5.7-14.17-13.93s6.23-14,14.17-14,14.11,5.7,14.11,14S223.53,58.07,215.59,58.07Zm0-23.22c-4.7,0-8.76,3.7-8.76,9.29s4.06,9.23,8.76,9.23,8.7-3.7,8.7-9.23S220.24,34.85,215.59,34.85Z"/><path class="cls-1" d="M252.39,20.74a10.86,10.86,0,0,0-4.58-.94c-3.64,0-5.58,3.35-5.58,6.88v4.11h7.7L249,35.08h-6.82V57.42h-5.35V35.08h-4.53V30.79h4.53V28.32c0-8.7,4.23-13,11.93-13a11.72,11.72,0,0,1,4.53.88Z"/></svg>