<?xml version="1.0" encoding="utf-8"?>
<!-- Generator: Adobe Illustrator 15.0.0, SVG Export Plug-In  -->
<!DOCTYPE svg PUBLIC "-//W3C//DTD SVG 1.1//EN" "http://www.w3.org/Graphics/SVG/1.1/DTD/svg11.dtd" [
	<!ENTITY ns_flows "http://ns.adobe.com/Flows/1.0/">
]>
<svg version="1.1"
	 xmlns="http://www.w3.org/2000/svg" xmlns:xlink="http://www.w3.org/1999/xlink" xmlns:a="http://ns.adobe.com/AdobeSVGViewerExtensions/3.0/"
	 x="0px" y="0px" width="617px" height="200px" viewBox="0 -1.001 617 200"
	 overflow="visible" enable-background="new 0 -1.001 617 200" xml:space="preserve">
<defs>
</defs>
<path d="M262.08,78.134c5.58,6.85,86.226,13.136,83.845,19.7C349.303,90.791,267.371,84.592,262.08,78.134"/>
<path fill="#6F993F" d="M352.67,83.766l-6.745,14.068c3.378-7.043-78.553-13.242-83.845-19.7l-10.241-14.057
	C260.613,73.081,358.235,74.013,352.67,83.766"/>
<path d="M229.904,34.028c9.39,12.139,140.588,13.902,136.916,20.229C370.876,47.303,238.98,45.694,229.904,34.028"/>
<path fill="#6F993F" d="M372.46,42.511l-5.64,11.746c4.056-6.953-127.84-8.562-136.917-20.229l-7.128-9.771
	C228.989,31.902,375.482,36.42,372.46,42.511"/>
<path fill="#FFFFFF" d="M27.755,110.231c-2.699-1.717-3.833-4.229-3.854-8.088V23.53H0v78.758
	c-0.029,15.924,12.035,24.906,35.379,26.58c2.182,0.146,4.367,0.295,6.575,0.297h48.744v-16.371H41.517
	C34.936,112.8,30.472,111.951,27.755,110.231 M193.061,101.854c-0.016,4.016-1.124,6.619-3.633,8.354
	c-2.522,1.743-6.647,2.592-12.678,2.586h-31.956c-6.031,0.006-10.198-0.875-12.774-2.74c-2.565-1.855-3.74-4.687-3.753-9.078V23.53
	h-23.9v79.34c-0.015,11.803,8.588,20.461,23.082,24.393c4.838,1.316,9.46,1.902,13.868,1.902l38.915-0.002
	c4.409,0,9.026-0.584,13.652-1.902c14.704-4.07,23.307-12.584,23.296-24.391V23.528h-24.119V101.854z M476.094,101.854
	c-0.018,4.016-1.124,6.619-3.632,8.354c-2.521,1.743-6.646,2.594-12.682,2.59h-31.954c-6.033,0.002-10.202-0.881-12.776-2.742
	c-2.565-1.857-3.739-4.688-3.753-9.08V23.53h-23.899v79.337h0.002c-0.015,11.806,8.587,20.468,23.079,24.396
	c4.846,1.316,9.462,1.902,13.871,1.902h38.909c4.408-0.002,9.033-0.586,13.657-1.904c14.693-4.07,23.309-12.584,23.297-24.394V23.53
	h-24.119V101.854z M566.322,112.792c-6.584,0.01-11.049-0.841-13.763-2.561c-2.698-1.721-3.832-4.227-3.855-8.09V23.53h-23.905
	v78.758c-0.03,15.924,12.033,24.906,35.386,26.58c2.185,0.143,4.367,0.295,6.577,0.295l48.744,0.006v-16.377H566.322z
	 M371.452,23.513h-30.116l-39.254,36.404l-39.035-36.404h-30.118l54.308,50.322l-59.739,55.342h30.115l44.471-41.441l45.111,41.441
	h29.901l-60.172-55.344L371.452,23.513z"/>
<path d="M299.171,128.982c-2.779-7.861,38.405-16.154,46.754-31.148C337.604,112.629,293.74,120.789,299.171,128.982"/>
<path fill="#85C446" d="M287.03,112.35l12.141,16.633c-5.432-8.193,38.432-16.351,46.753-31.148l6.745-14.068
	C346.692,93.477,281.704,105.19,287.03,112.35"/>
<path d="M229.904,34.028c-5.166-6.862,151.8-14.634,158.34-24.392C382.192,18.577,224.131,26.431,229.904,34.028"/>
<path fill="#85C446" d="M222.776,24.257l7.128,9.772c-5.773-7.597,152.29-15.451,158.34-24.392L392.895,0
	C385.558,11.536,216.235,15.993,222.776,24.257"/>
<path d="M262.08,78.134c-4.859-6.429,96.942-11.485,104.74-23.877C359.573,65.66,256.543,70.886,262.08,78.134"/>
<path fill="#85C446" d="M251.839,64.077l10.241,14.057c-5.537-7.248,97.493-12.474,104.74-23.877l5.64-11.746
	C364.404,55.023,245.632,56.688,251.839,64.077"/>
<text transform="matrix(1 0 0 1 189.4971 180.5742)"><tspan x="0" y="0" fill="#999999" font-family="'Avenir-MediumOblique'" font-size="51.986">Si</tspan><tspan x="41.38" y="0" fill="#999999" font-family="'Avenir-MediumOblique'" font-size="51.986">mp</tspan><tspan x="116.395" y="0" fill="#999999" font-family="'Avenir-MediumOblique'" font-size="51.986">ly </tspan><tspan x="169.316" y="0" fill="#999999" font-family="'Avenir-MediumOblique'" font-size="51.986" letter-spacing="-1">Co</tspan><tspan x="234.714" y="0" fill="#999999" font-family="'Avenir-MediumOblique'" font-size="51.986">n</tspan><tspan x="263.618" y="0" fill="#999999" font-family="'Avenir-MediumOblique'" font-size="51.986" letter-spacing="-1">n</tspan><tspan x="291.482" y="0" fill="#999999" font-family="'Avenir-MediumOblique'" font-size="51.986">e</tspan><tspan x="320.387" y="0" fill="#999999" font-family="'Avenir-MediumOblique'" font-size="51.986" letter-spacing="1">c</tspan><tspan x="347.004" y="0" fill="#999999" font-family="'Avenir-MediumOblique'" font-size="51.986" letter-spacing="-1">t</tspan><tspan x="364.938" y="0" fill="#999999" font-family="'Avenir-MediumOblique'" font-size="51.986">ed</tspan></text>
</svg>
