<svg id="Layer_1" data-name="Layer 1" xmlns="http://www.w3.org/2000/svg" viewBox="0 0 514.426 73.861"><defs><style>.cls-1{fill:#3c3c3c;}</style></defs><title>Artboard 3</title><polygon class="cls-1" points="285.343 16.442 285.343 27.728 297.253 27.728 297.253 57.264 308.077 57.264 308.077 16.442 285.343 16.442"/><rect class="cls-1" x="281.266" y="12.859" width="2.612" height="14.869"/><polygon class="cls-1" points="291.716 57.276 291.716 45.988 279.81 45.988 279.81 16.455 268.984 16.455 268.984 57.276 291.716 57.276"/><rect class="cls-1" x="293.182" y="45.985" width="2.625" height="14.87"/><rect class="cls-1" x="322.202" y="15.285" width="9.601" height="44.062"/><path class="cls-1" d="M399.572,27.1V59.35h10.29V42.9c.077-8.057,9.15-8.578,9.15-8.578V26.547c-5.046,0-9.179,3.863-9.179,3.863V27.1Z"/><path class="cls-1" d="M442.094,27.1V59.35h9.884V40.335c0-4.6,7.332-4.907,7.332,0V59.35h9.713V35.205c0-4.849-6.366-12.009-17.045-5.074V27.1Z"/><path class="cls-1" d="M509.352,15.283a5.071,5.071,0,1,0,5.073,5.069A5.074,5.074,0,0,0,509.352,15.283Zm0,9.418a4.345,4.345,0,1,1,4.343-4.348A4.348,4.348,0,0,1,509.352,24.7Z"/><path class="cls-1" d="M508.05,22.949h-.724V17.629h2.457c.868,0,1.745.3,1.745,1.422a1.321,1.321,0,0,1-.74,1.28c.3.125.606.259.635,1l.045.965c.01.3.045.41.268.534v.12h-.881a6.458,6.458,0,0,1-.128-1.335c0-.438-.089-.949-.944-.949H508.05Zm0-2.9h1.659c.523,0,1.078-.133,1.078-.919,0-.814-.6-.884-.957-.884H508.05Z"/><path class="cls-1" d="M422.368,47.485a4.137,4.137,0,1,1,4.143,4.149A4.138,4.138,0,0,1,422.368,47.485Zm-.983-13.423a21.483,21.483,0,0,1,4.6-.1c4.723.171,4.143,4.009,4.143,4.009a12.146,12.146,0,0,0-5.582-1.434c-3.63-.064-10.894,2.173-10.894,11.745,0,8.47,6.764,10.906,10.794,10.906a10.068,10.068,0,0,0,6.113-1.867v2.025h9.326V37.4c0-4.292-.782-5.438-2.731-7.593-2.719-3.012-9.159-3.252-9.159-3.252h-6.607Z"/><path class="cls-1" d="M485.548,28.117c-10.31-.252-14.706,8.459-14.7,15.294-.07,8.942,5.834,16.263,14.617,15.567a10.442,10.442,0,0,0,5.5-2.366V59.35h9.975V15.28h-9.975V29.9A12.619,12.619,0,0,0,485.548,28.117Zm-.134,21.64a6.218,6.218,0,1,1,6.224-6.208A6.225,6.225,0,0,1,485.414,49.757Z"/><path class="cls-1" d="M382.21,64.5c-4.57-.2-5.534-3.129-5.534-3.129H365.154c2.4,16.1,30.673,16.744,32,1.306V27.081h-9.642v3.357c-6.613-6.7-22.089-1.852-21.556,13.26.5,14.123,15.466,18.381,21.556,12.9v3.8C387.481,64.667,382.21,64.5,382.21,64.5Zm-.7-15.012a6.233,6.233,0,1,1,6.241-6.224A6.237,6.237,0,0,1,381.51,49.486Z"/><path class="cls-1" d="M349.019,25.908c-7.863,0-15.551,6.442-15.544,16.61.008,11.436,7.156,18.067,16.584,17.775,7.223-.225,12.233-4.775,14.048-11.2h-9.85c-.506,1.032-1.91,2.217-4.808,2.217a5.311,5.311,0,0,1-5.59-5.41l20.824-.008C365.859,34,358.2,25.908,349.019,25.908ZM343.7,39.139a5.359,5.359,0,0,1,10.647,0Z"/><path class="cls-1" d="M28.271,57.419l-4.056-9.7H9.639l-4.056,9.7H0L15.987,19.39h2.057L34.032,57.419Zm-9.7-23.393a45.886,45.886,0,0,1-1.587-4.584h-.118a34.675,34.675,0,0,1-1.587,4.584l-3.7,9.169h10.7Z"/><path class="cls-1" d="M61.54,58.066A17.69,17.69,0,0,1,52.253,55.6V15.57H57.6V31.029a11.024,11.024,0,0,1,4.643-.882c7.583,0,14.518,5.407,14.518,13.754C76.763,52.717,70.532,58.066,61.54,58.066Zm.705-23.217A9.2,9.2,0,0,0,57.6,36.025V52.658a9.549,9.549,0,0,0,3.938.705c6.171,0,9.815-3.762,9.815-9.463A9.055,9.055,0,0,0,62.245,34.849Z"/><path class="cls-1" d="M97.452,34.967c-4.291,0-9.463,2.292-9.463,9.875V57.419H82.64V30.793H87.7l.235,4.173c1.411-3.292,5.055-4.526,9.052-4.526l1,4.526Z"/><path class="cls-1" d="M119.668,58.066a5.43,5.43,0,0,1-3.879-3.409,8.934,8.934,0,0,1-7.464,3.409,8.179,8.179,0,0,1-8.582-8.17c0-5.173,4.232-8.111,8.758-8.522l6.23-.588v-1.7c0-2.41-1.411-4.35-5.172-4.35a13.806,13.806,0,0,0-7.347,2.116l-1.058-4.408a15.773,15.773,0,0,1,8.7-2.292c5.936,0,10.227,3.35,10.227,9.64V50.542c0,2.41,1.293,3.82,3,4.114Zm-4.937-12.872-5.29.471c-3.174.293-4.584,2.351-4.584,4.29a3.664,3.664,0,0,0,3.7,3.586c2.821,0,6.172-2.646,6.172-6Z"/><path class="cls-1" d="M145.648,57.419v-17.1c0-2.763-1.7-5.584-6.171-5.584-4.291,0-6.407,2.821-6.407,5.584v17.1h-5.349V30.793h4.7l.235,2.645c2.057-2.233,4.056-3.292,8.229-3.292,5.819,0,10.109,3.7,10.109,9.64V57.419Z"/><path class="cls-1" d="M177.741,57.419l-.176-2.116c-1.646,1.764-4.584,2.763-8.229,2.763a13.46,13.46,0,0,1-13.048-13.93c0-8.229,6.113-13.989,14.048-13.989a12.659,12.659,0,0,1,6.642,1.763V15.57h5.349V57.419Zm-.764-20.1a9.773,9.773,0,0,0-6.642-2.469c-4.761,0-8.64,3.7-8.64,9.287,0,5.524,3.879,9.228,8.64,9.228a8.8,8.8,0,0,0,6.642-2.7Z"/><path class="cls-1" d="M215.594,58.066c-7.935,0-14.166-5.7-14.166-13.93,0-8.288,6.23-13.989,14.166-13.989s14.106,5.7,14.106,13.989C229.7,52.365,223.528,58.066,215.594,58.066Zm0-23.217c-4.7,0-8.758,3.7-8.758,9.287,0,5.524,4.056,9.228,8.758,9.228,4.643,0,8.7-3.7,8.7-9.228C224.292,38.552,220.237,34.849,215.594,34.849Z"/><path class="cls-1" d="M252.389,20.742a10.856,10.856,0,0,0-4.585-.94c-3.644,0-5.583,3.35-5.583,6.877v4.114h7.7l-.882,4.291H242.22V57.419h-5.349V35.084h-4.526V30.793h4.526V28.324c0-8.7,4.232-12.989,11.932-12.989a11.717,11.717,0,0,1,4.526.881Z"/></svg>