<?xml version="1.0" encoding="utf-8"?>
<!-- Generator: Adobe Illustrator 21.1.0, SVG Export Plug-In . SVG Version: 6.00 Build 0)  -->
<svg version="1.1" id="Layer_1" xmlns="http://www.w3.org/2000/svg" xmlns:xlink="http://www.w3.org/1999/xlink" x="0px" y="0px"
	 viewBox="0 0 514.4 73.9" style="enable-background:new 0 0 514.4 73.9;" xml:space="preserve">
<style type="text/css">
	.st0{opacity:0.9;fill:#FFFFFF;}
</style>
<title>Artboard 3</title>
<polygon class="st0" points="285.3,16.4 285.3,27.7 297.3,27.7 297.3,57.3 308.1,57.3 308.1,16.4 "/>
<rect x="281.3" y="12.9" class="st0" width="2.6" height="14.9"/>
<polygon class="st0" points="291.7,57.3 291.7,46 279.8,46 279.8,16.5 269,16.5 269,57.3 "/>
<rect x="293.2" y="46" class="st0" width="2.6" height="14.9"/>
<rect x="322.2" y="15.3" class="st0" width="9.6" height="44.1"/>
<path class="st0" d="M399.6,27.1v32.2h10.3V42.9c0.1-8.1,9.1-8.6,9.1-8.6v-7.8c-5,0-9.2,3.9-9.2,3.9v-3.3H399.6z"/>
<path class="st0" d="M442.1,27.1v32.2h9.9v-19c0-4.6,7.3-4.9,7.3,0v19h9.7V35.2c0-4.8-6.4-12-17-5.1v-3H442.1z"/>
<path class="st0" d="M509.4,15.3c-2.8,0-5.1,2.3-5.1,5.1s2.3,5.1,5.1,5.1s5.1-2.3,5.1-5.1v0C514.4,17.6,512.2,15.3,509.4,15.3z
	 M509.4,24.7c-2.4,0-4.3-1.9-4.3-4.3s1.9-4.3,4.3-4.3c2.4,0,4.3,1.9,4.3,4.3C513.7,22.8,511.8,24.7,509.4,24.7L509.4,24.7z"/>
<path class="st0" d="M508,22.9h-0.7v-5.3h2.5c0.9,0,1.7,0.3,1.7,1.4c0,0.5-0.3,1-0.7,1.3c0.3,0.1,0.6,0.3,0.6,1l0,1
	c0,0.3,0,0.4,0.3,0.5V23h-0.9c-0.1-0.4-0.1-0.9-0.1-1.3c0-0.4-0.1-0.9-0.9-0.9H508V22.9z M508,20h1.7c0.5,0,1.1-0.1,1.1-0.9
	c0-0.8-0.6-0.9-1-0.9H508V20z"/>
<path class="st0" d="M422.4,47.5c0-2.3,1.9-4.1,4.1-4.1c2.3,0,4.1,1.9,4.1,4.1c0,2.3-1.9,4.1-4.1,4.1
	C424.2,51.6,422.4,49.8,422.4,47.5C422.4,47.5,422.4,47.5,422.4,47.5z M421.4,34.1c1.5-0.2,3.1-0.2,4.6-0.1c4.7,0.2,4.1,4,4.1,4
	c-1.7-0.9-3.6-1.4-5.6-1.4c-3.6-0.1-10.9,2.2-10.9,11.7c0,8.5,6.8,10.9,10.8,10.9c2.2,0.1,4.3-0.6,6.1-1.9v2h9.3V37.4
	c0-4.3-0.8-5.4-2.7-7.6c-2.7-3-9.2-3.3-9.2-3.3h-6.6L421.4,34.1z"/>
<path class="st0" d="M485.5,28.1c-10.3-0.3-14.7,8.5-14.7,15.3c-0.1,8.9,5.8,16.3,14.6,15.6c2-0.2,3.9-1.1,5.5-2.4v2.7h10V15.3h-10
	v14.6C489.3,28.9,487.5,28.3,485.5,28.1z M485.4,49.8c-3.4,0-6.2-2.8-6.2-6.2c0-3.4,2.8-6.2,6.2-6.2c3.4,0,6.2,2.8,6.2,6.2
	c0,0,0,0,0,0C491.6,47,488.8,49.8,485.4,49.8z"/>
<path class="st0" d="M382.2,64.5c-4.6-0.2-5.5-3.1-5.5-3.1h-11.5c2.4,16.1,30.7,16.7,32,1.3V27.1h-9.6v3.4
	c-6.6-6.7-22.1-1.9-21.6,13.3c0.5,14.1,15.5,18.4,21.6,12.9v3.8C387.5,64.7,382.2,64.5,382.2,64.5z M381.5,49.5
	c-3.4,0-6.2-2.8-6.2-6.2c0-3.4,2.8-6.2,6.2-6.2c3.4,0,6.2,2.8,6.2,6.2c0,0,0,0,0,0C387.7,46.7,385,49.5,381.5,49.5L381.5,49.5z"/>
<path class="st0" d="M349,25.9c-7.9,0-15.6,6.4-15.5,16.6c0,11.4,7.2,18.1,16.6,17.8c7.2-0.2,12.2-4.8,14-11.2h-9.9
	c-0.5,1-1.9,2.2-4.8,2.2c-2.9,0.2-5.4-2.1-5.6-5c0-0.1,0-0.3,0-0.4l20.8,0C365.9,34,358.2,25.9,349,25.9z M343.7,39.1
	c0.3-2.9,3-5,5.9-4.7c2.5,0.3,4.4,2.2,4.7,4.7H343.7z"/>
<path class="st0" d="M28.3,57.4l-4.1-9.7H9.6l-4.1,9.7H0l16-38H18l16,38H28.3z M18.6,34c-0.6-1.5-1.1-3-1.6-4.6h-0.1
	c-0.4,1.6-1,3.1-1.6,4.6l-3.7,9.2h10.7L18.6,34z"/>
<path class="st0" d="M61.5,58.1c-3.3,0.1-6.5-0.8-9.3-2.5v-40h5.3V31c1.5-0.6,3-0.9,4.6-0.9c7.6,0,14.5,5.4,14.5,13.8
	C76.8,52.7,70.5,58.1,61.5,58.1z M62.2,34.8c-1.6,0-3.2,0.4-4.6,1.2v16.6c1.2,0.5,2.6,0.8,3.9,0.7c6.2,0,9.8-3.8,9.8-9.5
	C71.4,38.9,67.3,34.8,62.2,34.8C62.3,34.8,62.3,34.8,62.2,34.8z"/>
<path class="st0" d="M97.5,35c-4.3,0-9.5,2.3-9.5,9.9v12.6h-5.3V30.8h5.1l0.2,4.2c1.4-3.3,5.1-4.5,9.1-4.5l1,4.5L97.5,35z"/>
<path class="st0" d="M119.7,58.1c-1.8-0.4-3.2-1.7-3.9-3.4c-1.8,2.3-4.6,3.6-7.5,3.4c-4.5,0.2-8.3-3.3-8.6-7.8c0-0.1,0-0.3,0-0.4
	c0-5.2,4.2-8.1,8.8-8.5l6.2-0.6v-1.7c0-2.4-1.4-4.3-5.2-4.3c-2.6,0-5.1,0.7-7.3,2.1l-1.1-4.4c2.6-1.6,5.6-2.4,8.7-2.3
	c5.9,0,10.2,3.3,10.2,9.6v10.7c0,2.4,1.3,3.8,3,4.1L119.7,58.1z M114.7,45.2l-5.3,0.5c-3.2,0.3-4.6,2.4-4.6,4.3c0,2,1.7,3.6,3.7,3.6
	c2.8,0,6.2-2.6,6.2-6L114.7,45.2z"/>
<path class="st0" d="M145.6,57.4V40.3c0-2.8-1.7-5.6-6.2-5.6c-4.3,0-6.4,2.8-6.4,5.6v17.1h-5.3V30.8h4.7l0.2,2.6
	c2.1-2.2,4.1-3.3,8.2-3.3c5.8,0,10.1,3.7,10.1,9.6v17.6H145.6z"/>
<path class="st0" d="M177.7,57.4l-0.2-2.1c-1.6,1.8-4.6,2.8-8.2,2.8c-7.4-0.2-13.3-6.4-13.1-13.9c0,0,0,0,0-0.1c0-8.2,6.1-14,14-14
	c2.3,0,4.6,0.6,6.6,1.8V15.6h5.3v41.8H177.7z M177,37.3c-1.8-1.6-4.2-2.5-6.6-2.5c-4.8,0-8.6,3.7-8.6,9.3c0,5.5,3.9,9.2,8.6,9.2
	c2.5,0.1,4.9-0.9,6.6-2.7V37.3z"/>
<path class="st0" d="M215.6,58.1c-7.9,0-14.2-5.7-14.2-13.9c0-8.3,6.2-14,14.2-14s14.1,5.7,14.1,14
	C229.7,52.4,223.5,58.1,215.6,58.1z M215.6,34.8c-4.7,0-8.8,3.7-8.8,9.3c0,5.5,4.1,9.2,8.8,9.2c4.6,0,8.7-3.7,8.7-9.2
	C224.3,38.6,220.2,34.8,215.6,34.8z"/>
<path class="st0" d="M252.4,20.7c-1.4-0.6-3-1-4.6-0.9c-3.6,0-5.6,3.4-5.6,6.9v4.1h7.7l-0.9,4.3h-6.8v22.3h-5.3V35.1h-4.5v-4.3h4.5
	v-2.5c0-8.7,4.2-13,11.9-13c1.6,0,3.1,0.3,4.5,0.9L252.4,20.7z"/>
</svg>
