<svg id="Layer_1" data-name="Layer 1" xmlns="http://www.w3.org/2000/svg" viewBox="0 0 592 124.94"><defs><style>.cls-1{fill:#85c446;}.cls-2{fill:#6f993f;}.cls-3{fill:#fff;}</style></defs><title>logo_white</title><path d="M214.82,32.91c-4.83-6.64,141.84-14.15,148-23.59-5.65,8.65-153.35,16.25-148,23.59" transform="translate(0)"/><path class="cls-1" d="M208.16,23.46l6.66,9.45c-5.39-7.35,142.3-14.94,148-23.59L367.12,0c-6.86,11.16-165.07,15.47-159,23.46" transform="translate(0)"/><path d="M244.89,75.57c5.21,6.63,80.57,12.71,78.34,19.05,3.16-6.81-73.4-12.81-78.34-19.05" transform="translate(0)"/><path class="cls-2" d="M329.53,81l-6.3,13.61c3.16-6.81-73.4-12.81-78.34-19.05L235.32,62c8.2,8.7,99.42,9.61,94.22,19" transform="translate(0)"/><path d="M214.82,32.91c8.77,11.74,131.37,13.44,127.93,19.57,3.79-6.73-119.45-8.28-127.93-19.57" transform="translate(0)"/><path class="cls-2" d="M348,41.12l-5.27,11.36c3.79-6.73-119.45-8.28-127.94-19.57l-6.66-9.45C214,30.85,350.85,35.23,348,41.12" transform="translate(0)"/><path class="cls-3" d="M25.93,106.62c-2.52-1.66-3.58-4.09-3.6-7.82v-76H0V98.93c0,15.4,11.25,24.08,33.06,25.71,2,.14,4.08.29,6.14.29H84.75V109.1h-46c-6.15,0-10.32-.82-12.86-2.48m154.46-8.1c0,3.89-1.05,6.4-3.39,8.08s-6.21,2.51-11.85,2.5H135.3c-5.64,0-9.53-.85-11.94-2.65s-3.49-4.53-3.51-8.78V22.76H97.52V99.5c0,11.41,8,19.79,21.57,23.59a47.65,47.65,0,0,0,13,1.84h36.36a45.13,45.13,0,0,0,12.76-1.84c13.74-3.94,21.78-12.17,21.77-23.59V22.76H180.4Zm264.47,0c0,3.89-1.05,6.4-3.39,8.08s-6.21,2.51-11.85,2.51H399.76c-5.64,0-9.53-.85-11.94-2.65s-3.49-4.53-3.51-8.78V22.76H362V99.49h0c0,11.42,8,19.8,21.56,23.6a47.71,47.71,0,0,0,13,1.84h36.36a45.23,45.23,0,0,0,12.76-1.84c13.73-3.94,21.78-12.17,21.77-23.59V22.76H444.86Zm84.31,10.58c-6.15,0-10.32-.81-12.86-2.48s-3.58-4.09-3.6-7.82v-76H490.37V98.93c0,15.4,11.24,24.08,33.06,25.71,2,.14,4.08.29,6.15.29h45.55V109.09ZM347.08,22.74H318.94L282.26,57.95,245.79,22.74H217.65l50.75,48.67-55.82,53.53h28.14l41.55-40.08,42.15,40.08h27.94L296.13,71.41Z" transform="translate(0)"/><path d="M279.54,124.75c-2.6-7.6,35.88-15.62,43.69-30.13-7.78,14.31-48.76,22.2-43.69,30.13" transform="translate(0)"/><path class="cls-1" d="M268.2,108.67l11.34,16.09c-5.08-7.92,35.91-15.81,43.69-30.13L329.53,81c-5.58,9.39-66.31,20.72-61.33,27.64" transform="translate(0)"/><path d="M244.89,75.57c-4.54-6.22,90.58-11.11,97.87-23.09-6.77,11-103,16.08-97.87,23.09" transform="translate(0)"/><path class="cls-1" d="M235.32,62l9.57,13.6c-5.17-7,91.1-12.06,97.87-23.09L348,41.12C340.49,53.22,229.52,54.83,235.32,62" transform="translate(0)"/><polygon class="cls-3" points="580.74 114.07 580.74 120.8 579.79 120.8 579.79 114.07 577.36 114.07 577.36 113.23 583.16 113.23 583.16 114.07 580.74 114.07"/><path class="cls-3" d="M591.11,120.8l-.3-3.67c0-.57-.09-1.26-.11-1.85h0c-.24.58-.61,1.34-.87,1.89L588,120.84h-.36l-1.79-3.68c-.26-.53-.58-1.26-.85-1.86h0c0,.62-.07,1.32-.11,1.83l-.3,3.67h-.84l.61-7.57h.6l2,4.07c.3.62.68,1.39.94,2h0c.25-.64.6-1.38.91-2l2-4.06h.6l.62,7.57h-.89Z" transform="translate(0)"/></svg>